<?xml version="1.0" encoding="utf-8"?>
<!-- Generator: Adobe Illustrator 27.0.0, SVG Export Plug-In . SVG Version: 6.00 Build 0)  -->
<svg version="1.1" id="Layer_1" xmlns="http://www.w3.org/2000/svg" xmlns:xlink="http://www.w3.org/1999/xlink" x="0px" y="0px"
	 viewBox="0 0 1080 1080" style="enable-background:new 0 0 1080 1080;" xml:space="preserve">
<style type="text/css">
	.st0{fill:none;stroke:#000000;stroke-linecap:round;stroke-linejoin:round;stroke-miterlimit:10;}
	.st1{display:none;}
	.st2{display:inline;opacity:0.7;fill:#C35233;}
	.st3{fill:#FFFFFF;}
	.st4{fill:#E9D2A3;}
	.st5{fill:#DAA765;}
	.st6{fill:#D09E62;}
	.st7{fill:#CF602F;}
	.st8{fill:#C35233;}
	.st9{fill:#F3814A;}
	.st10{fill:#F38A62;}
	.st11{opacity:0.15;fill:#FFFFFF;}
	.st12{opacity:0.6;fill:#F18A4C;}
	.st13{opacity:0.7;fill:#C35233;}
	.st14{opacity:0.35;}
	.st15{opacity:0.37;fill:#DA7446;}
	.st16{opacity:0.4;fill:url(#SVGID_1_);}
	.st17{opacity:0.4;fill:url(#SVGID_00000048500040372018906770000003762386462484251041_);}
	.st18{opacity:0.4;fill:url(#SVGID_00000070116539120006201620000011802584100224515515_);}
	.st19{opacity:0.4;fill:url(#SVGID_00000052072569313738136040000007939920552833075101_);}
	.st20{opacity:0.4;fill:url(#SVGID_00000021831248060546778660000010711622199700414874_);}
	.st21{opacity:0.4;fill:url(#SVGID_00000080922305163346130650000015585560440572271022_);}
	.st22{opacity:0.4;fill:url(#SVGID_00000132089753333304865000000007005948475645514929_);}
	.st23{opacity:0.08;fill:#FFFFFF;}
	.st24{opacity:0.4;fill:url(#SVGID_00000026145664029072253090000001555460154650928048_);}
	.st25{opacity:0.4;fill:url(#SVGID_00000128449066379711103060000018163406369284026507_);}
	.st26{opacity:0.4;fill:url(#SVGID_00000118359968504402555840000017083907103805123770_);}
	.st27{opacity:0.4;fill:url(#SVGID_00000183240953778968741890000003523756778195381634_);}
	.st28{opacity:0.4;fill:url(#SVGID_00000084516468285427031920000003753011237041049487_);}
	.st29{opacity:0.4;fill:url(#SVGID_00000067226882661520960170000005875965561894762424_);}
	.st30{opacity:0.4;fill:url(#SVGID_00000001645972621931597420000014752714400035863435_);}
	.st31{opacity:0.4;fill:url(#SVGID_00000072245860012173460250000017615793128305579953_);}
	.st32{opacity:0.4;fill:url(#SVGID_00000120560785418038388450000016442418754561097382_);}
	.st33{opacity:0.4;}
	.st34{opacity:0.35;fill:url(#SVGID_00000138571070291841483310000004066949595047305407_);}
	.st35{opacity:0.35;fill:url(#SVGID_00000039104352009610288110000001165726083266080396_);}
	.st36{opacity:0.4;fill:url(#SVGID_00000048495113819131393080000010060697715762425484_);}
	.st37{opacity:0.4;fill:url(#SVGID_00000155845010118590133460000009153723928544817551_);}
	.st38{opacity:0.4;fill:url(#SVGID_00000063619782396901462570000014039735967764464546_);}
	.st39{opacity:0.4;fill:url(#SVGID_00000050638043525049476240000004918415447243237032_);}
	.st40{fill:url(#SVGID_00000021813596403438026920000010238550004182672039_);}
	.st41{fill:url(#SVGID_00000049912866473965977460000017099488436205680813_);}
	.st42{opacity:0.7;}
	.st43{fill:url(#SVGID_00000094615626009277644600000002275644320042619828_);}
	.st44{fill:#F8F1E9;}
	.st45{opacity:0.5;fill:#E4DCD5;}
	.st46{opacity:0.45;fill:#F8F5F3;}
	.st47{opacity:0.65;fill:#FFFFFF;}
	.st48{fill:#F3DB97;}
	.st49{fill:#E4C88B;}
	.st50{opacity:0.6;fill:#F8E3BA;}
	.st51{opacity:0.8;fill:#F8E3BA;}
	.st52{opacity:0.25;fill:#FFFFFF;}
	.st53{fill:#618828;}
	.st54{fill:#92A931;}
	.st55{fill:#809A2C;}
	.st56{opacity:0.6;fill:#92A931;}
	.st57{opacity:0.6;fill:#618828;}
	.st58{opacity:0.5;fill:#818D92;}
	.st59{fill:#E4F1F8;}
	.st60{fill:#CEDDE4;}
	.st61{fill:#B5CAD2;}
	.st62{opacity:0.5;fill:#CEDDE4;}
	.st63{fill:#F7F3EB;}
	.st64{opacity:0.5;fill:#F3D997;}
	.st65{fill:none;stroke:#60470F;stroke-miterlimit:10;}
	.st66{fill:none;stroke:#000000;stroke-miterlimit:10;}
	.st67{fill:#F3D997;}
	.st68{fill:#F4DC98;}
	.st69{opacity:0.7;fill:#F8E3BA;}
	.st70{opacity:0.35;fill:#FFFFFF;}
	.st71{clip-path:url(#SVGID_00000045598183634819812840000001042092069564227747_);}
	.st72{opacity:0.5;fill:#96A488;}
	.st73{fill:#F0F3EC;}
	.st74{fill:#E5E9E0;}
	.st75{fill:none;stroke:#FFFFFF;stroke-width:3;stroke-miterlimit:10;}
	.st76{fill:none;stroke:#FFFFFF;stroke-width:3;stroke-linecap:round;stroke-linejoin:round;stroke-miterlimit:10;}
	.st77{opacity:0.65;fill:url(#);}
	.st78{opacity:0.2;fill:#FFFFFF;}
	.st79{opacity:0.1;fill:#FFFFFF;}
	.st80{opacity:0.5;fill:#EDE1CA;}
	.st81{opacity:0.3;fill:#AF8056;}
	.st82{fill:#D1D6CC;}
	.st83{opacity:0.28;fill:#AF8056;}
	.st84{opacity:0.3;fill:#997552;enable-background:new    ;}
	.st85{fill:#E5C98C;}
	.st86{opacity:0.6;fill:#F9E4BB;enable-background:new    ;}
	.st87{opacity:0.8;fill:#F9E4BB;enable-background:new    ;}
	.st88{opacity:0.25;fill:#FFFFFF;enable-background:new    ;}
</style>
<g>
	<path class="st68" d="M877.82,650.81c-2.48,16.69-12.02,45.8-61.05,79.47c-77.2,53.02-179.5,67.33-278,60.64h-0.07
		c-33.11-2.25-65.78-6.88-96.93-13.21c-0.01,0-0.01,0-0.02,0c-112.42-22.83-204.89-67.81-225.73-103.34
		c-0.37-0.63-0.72-1.24-0.72-1.25c-6.08-10.61-36.95-67.8-12.03-116.54c26.53-51.88,98.14-58.65,108.02-59.45
		c3.8-9.12,11.28-23.96,25.61-36.88c42.81-38.59,93.34-11.82,150.59-52.25c27.16-19.17,35.38-39.03,37.9-46.09
		c2.04-5.7,7.53-21.66,4.1-40.98c-3.31-18.66-12.14-24.63-9.59-28.04c3.02-4.04,19.56-1.26,41.2,8.56
		c13.02,5.89,27.88,14.33,42.74,25.34l0.01,0.01c0.01,0,0.01,0.01,0.01,0.01c0.01,0.01,0.03,0.02,0.04,0.02
		c18.75,13.9,37.51,31.9,52.59,54.09c12.37,18.2,20.06,35.96,24.97,50.65c1.33,4,2.46,7.78,3.41,11.27c0.22-0.04,0.44-0.07,0.67-0.1
		c12.03-1.8,23.91-2.17,35.36-1.19c34.62,2.97,65.22,18.3,83.67,43.94c8.95,12.43,13.66,25.38,16.16,36.53
		c1.33,6,2.02,11.49,2.38,16.09C832.33,546.05,886.3,593.73,877.82,650.81z"/>
	<path class="st49" d="M549.16,339.4c1.4-6,5.83-12.05,12.24-13.5c10.32-2.23,18.95,7.65,21.45,16.68
		c1.68,5.56,1.93,11.41,1.74,17.02c-0.32,8.26-1.81,16.45-4.23,24.33c-4.72,15.41-12.29,29.93-21.55,42.97
		c-0.78,1.09-2.3,1.34-3.38,0.56c-0.98-0.7-1.28-2-0.76-3.04c4.56-9.36,8.83-18.78,12.31-28.41c3.43-9.5,6.22-19.34,7.38-29.3
		c0.91-9.75,1.93-22.28-4.77-29.9c-1.68-1.93-4.31-3.86-6.82-3.55c-3.96,0.39-7.27,4.2-9.1,7.86
		C552.32,343.63,548.51,342.14,549.16,339.4L549.16,339.4z"/>
	<path class="st49" d="M613.38,361.31c23.22,29.03,26.28,72.34,8.6,104.84c-1.42,2.51-5.27,0.91-4.45-1.88
		c4.5-14.55,6.97-29.46,6.3-44.61c-0.27-8.51-1.6-17.02-3.59-25.3c-1.57-6.24-3.5-12.42-5.84-18.44c-1.55-4.06-3.33-8.04-5.14-12.08
		C608.14,361.27,611.58,359.12,613.38,361.31L613.38,361.31z"/>
	<path class="st49" d="M610.65,432.14c2.23,23.15-7.28,47.68-25.06,62.78c-1.72,1.41-4.11-0.76-2.86-2.6
		c6.16-9.15,11.63-18.49,15.7-28.67c4.13-10.15,6.65-20.71,8.36-31.6C607.13,429.84,610.41,429.9,610.65,432.14L610.65,432.14z"/>
	<path class="st49" d="M785.13,500.39c10.65,7.38,16.97,20.08,17.51,32.93c0.69,12.67-4.31,25.36-12.02,35.14
		c-1.5,1.87-4.47,0.02-3.42-2.15c5.01-10.2,8.68-21.24,7.84-32.54c-0.58-8.27-3.54-16.21-7.76-23.33c-1.44-2.42-3.16-4.92-4.86-7.11
		C781.03,501.54,783.26,499.15,785.13,500.39L785.13,500.39z"/>
	<path class="st49" d="M459.53,615.87c48.01,10.11,107.47,17.01,155.29,4.58c3.34-0.84,6.59-1.95,9.88-2.97
		c1.89-0.7,4.02,0.32,4.61,2.26c0.54,1.76-0.37,3.62-2.04,4.3c0,0-5.06,2.05-5.06,2.05c-2.41,0.99-5.25,1.81-7.73,2.68
		c-23.32,7.18-48.03,8.67-72.27,7.66c-28.61-1.35-56.98-5.88-84.53-13.77C453.44,621.28,455.04,614.93,459.53,615.87L459.53,615.87z
		"/>
	<path class="st49" d="M851.77,652.37c-4.52,33.72-34.32,60.22-66.51,67.68c-1.31,0.3-2.61-0.52-2.91-1.83
		c-0.26-1.14,0.32-2.27,1.34-2.74c7.14-3.42,14.01-7.13,20.43-11.42c12.78-8.48,23.69-19.55,32.08-32.38
		c4.21-6.36,7.92-13.22,10.84-20.27C847.97,648.71,851.98,649.51,851.77,652.37L851.77,652.37z"/>
	<path class="st49" d="M240,552.33c-8.38,26.32-12.66,57.31,2.35,81.93c4.87,8.23,11.57,14.82,18.9,21
		c1.26,1.11,1.38,3.02,0.27,4.28c-0.93,1.05-2.42,1.3-3.62,0.71c-4.66-2.3-9.21-5.02-13.3-8.44
		c-12.68-10.13-20.76-25.62-22.78-41.63c-2.67-21.08,2.32-42.28,12.74-60.52C236.53,546.59,241.24,548.89,240,552.33L240,552.33z"/>
	<path class="st49" d="M345.84,598.51c30.66,18.07,64.18,31.41,98.3,41.34c76.85,22.32,160.19,23.14,236.63-1.41
		c25.58-8,50.19-18.67,73.97-31.13c1.63-0.85,3.65-0.23,4.5,1.4c0.82,1.57,0.26,3.5-1.23,4.4c-15.58,9.37-31.85,17.64-48.6,24.84
		c-92.63,40.28-200.41,39.34-294.15,3.14c-21.28-8.16-41.99-17.86-61.55-29.59c-3.92-2.39-7.72-4.79-11.59-7.48
		C338.73,601.53,341.98,596.21,345.84,598.51L345.84,598.51z"/>
	<path class="st49" d="M778.36,643.5c-6.55,15.71-18.73,28.42-31.79,38.96c-26.28,20.5-58.59,31.75-91.1,37.51
		c-16.19,2.82-32.55,4.21-48.85,4.35c-1.92,0.02-3.49-1.53-3.51-3.45c-0.02-1.8,1.34-3.29,3.09-3.49
		c15.94-1.85,31.76-4.12,47.29-7.55c30.59-6.74,61.03-17.63,86.52-36.06c12.38-9.07,23.98-19.76,31.96-32.97
		C773.95,636.87,779.84,639.29,778.36,643.5L778.36,643.5z"/>
	<path class="st49" d="M345.8,509.64c-2.64-19.48,9.12-36.25,26.81-43.89c8.14-3.55,17.05-4,25.48-6.3
		c8.17-1.99,16.24-4.48,24.31-7.2c1.02-0.35,2.12,0.2,2.46,1.21c0.31,0.9-0.1,1.88-0.9,2.33c-7.62,4.19-15.7,7.55-24.03,10.19
		c-6.06,2-12.59,3.31-18.71,4.84c-9.38,2.8-18.23,8.58-23.88,16.32c-4.6,6.32-7.17,14.15-7.68,22.36
		C349.5,511.8,346.13,511.95,345.8,509.64L345.8,509.64z"/>
	<path class="st49" d="M413.56,555.67c16.61,12.29,35.75,20.77,56.29,23.34c6.79,0.91,13.68,1.2,20.67,1.14
		c1.08-0.02,1.97,0.85,1.98,1.93c0.01,0.93-0.63,1.7-1.5,1.91c-21.44,4.96-44.85,0.4-63.39-11.34c-6.2-3.93-11.88-8.65-16.66-14.13
		c-0.71-0.81-0.62-2.04,0.19-2.75C411.83,555.16,412.84,555.14,413.56,555.67L413.56,555.67z"/>
	<path class="st69" d="M273.59,631.95c-5.24-6.21-11.4-13.66-15.6-25.35c-2.22-6.19-8.81-24.55-0.61-42.74
		c1.46-3.24,8.87-19.68,21.76-20.49c7.7-0.49,13.75,4.84,16.88,7.66c11.7,10.58,9.59,20.93,17.55,39.97
		c4.27,10.21,11.93,28.52,29.1,41.49c10.11,7.64,18.91,9.93,26.48,21.89c2.18,3.45,8.01,12.66,4.8,17.84
		c-4.73,7.63-26.26,2-35.02-0.29C328.51,669.21,297.84,660.73,273.59,631.95z"/>
	<path class="st69" d="M397.43,541.47c-6.44-3.95-10.02-6.19-13.47-10.77c-7.4-9.85-10.41-25.5-3.64-36.72
		c2.7-4.47,6.14-6.91,11.42-10.63c8.41-5.94,15.46-7.99,21.75-10.27c5.75-2.08,20.72-7.51,34.3-17.57
		c11.13-8.25,16.63-16.13,30.48-19.76c5.53-1.45,7.2-0.86,8.02,0c4.07,4.32-6.19,23.12-18.73,36.87
		c-15.15,16.63-26.05,17.58-29.95,31.52c-0.61,2.17-2.76,10.29,0.53,18.71c3.05,7.81,8.15,9.1,21.08,20.61
		c8.27,7.36,20.79,18.51,18.46,23.24c-1.38,2.79-7.43,2.41-11.23,2.13c-13.95-1.01-18.75-6.95-34.74-13.91
		C415.59,547.88,411.04,549.81,397.43,541.47z"/>
	<path class="st69" d="M587.99,388.63c1.61-9.66,0.82-17.47,2.41-17.66c1.15-0.14,2.5,3.8,2.94,5.09
		c4.63,13.46,3.98,34.71-7.76,53.53c-2.42,3.88-7.21,11.4-11.26,10.5c-2.78-0.62-3.91-4.9-3.96-5.11c-1.38-5.5,2.8-9.84,6.92-16.63
		C577.28,418.34,585.22,405.27,587.99,388.63z"/>
	<path class="st69" d="M702.9,510.2c1.76-1.08,11.02-6.46,17.78-2.42c5.85,3.5,6.21,11.91,6.46,17.78
		c0.45,10.59-3.76,18.42-5.13,20.79c-1.86,3.2-5.54,8.46-16.21,15.48c-16.66,10.95-21.47,7.17-57.03,18.68
		c-4.53,1.47-13.15,4.34-16.16,0.81c-1.53-1.8-1.02-4.57-0.81-5.66c1.9-9.6,14.07-12.2,30.81-23.71
		c12.71-8.73,20.74-14.26,27.36-24.77C694.4,520.13,695.92,514.48,702.9,510.2z"/>
	<path class="st69" d="M772.53,676.67c6.17-2.54,17.42-5.08,20.74-0.21c4,5.86-0.62,13.61-5.14,19.08
		c-2.26,2.74-7.5,11.21-18.83,16.95c-9.83,4.98-24.76,8.51-27.5,4c-1.4-2.3,1.27-6.36,6.66-14.38
		C758.06,687.85,762.92,680.63,772.53,676.67z"/>
	<path class="st69" d="M435.95,698.28c1.02-2.71,0.36-5.83-1.1-8.33c-6.42-10.99-48.48-21.53-50.47-6.12
		C382.03,702.04,430.74,712.07,435.95,698.28z"/>
	<path class="st49" d="M831.18,534.08c-1.54-15.74-6.2-31.44-14.33-45.38c-24.84-43.38-78.29-60.98-126-55.24
		c-5.34-15.81-15.04-38.59-32.91-62.26c-4.7-6.23-9.73-12.2-15.06-17.9c-4.71-5.03-9.66-9.84-14.82-14.41
		c-4.41-3.91-8.98-7.63-13.69-11.17c-3.78-2.84-7.64-5.55-11.65-8.05c-2.78-1.74-5.58-3.45-8.4-5.14c-3.69-2.22-7.4-4.39-11.13-6.52
		c-4.21-2.4-8.46-4.73-12.76-6.99c-4.37-2.29-8.78-4.5-13.27-6.55c-4.15-1.9-8.36-3.69-12.66-5.22c-6.18-2.19-9.19-2.72-10.94-2.98
		c-1.56-0.23-4.86-0.62-8.97-0.15c-2.46,0.28-3.71,0.44-5.02,1.23c-2.83,1.7-4.5,5.16-4.33,8.27c0.11,1.9,0.88,2.97,2.26,5.44
		c1.88,3.36,3.64,6.67,4.95,10.21c5.73,15.29,4.77,32.56-0.64,47.91c-6.31,18.12-19.87,32.68-35.37,43.67
		c-16.72,12.14-36.16,19.42-56.53,22.52c-26.44,4.36-55.49,2.13-79.92,16.09c-10.09,5.71-18.62,13.66-25.83,22.67
		c-20.83,26.2-18.32,57.28,6.09,79.96c4.11,3.87,8.56,7.27,13.23,10.23c4.68,2.95,9.54,5.52,14.73,7.47
		c0.84,0.31,1.83,0.03,2.34-0.8c0.54-0.86,0.27-1.99-0.52-2.63c-8.15-6.55-15.75-13.7-22.04-21.49
		c-16.88-20.55-19.7-42.99-2.82-64.12c25.87-33.74,59.22-28.72,96.77-35.99c32.5-5.91,63.25-23.12,83.95-49.13
		c13.9-17.53,20.98-40.5,18.47-62.87c-0.63-5.59-1.85-11.16-3.85-16.51c-0.9-2.68-2.26-5.37-3.63-7.99
		c-1.15-2.19,0.67-4.77,3.11-4.4c0.66,0.1,1.33,0.21,2.01,0.33c14.58,2.55,27.58,10.03,40.28,17.25
		c12.27,6.98,24.14,14.72,35.16,23.55c9.17,7.35,17.74,15.47,25.42,24.37c6.55,7.59,12.56,15.65,17.99,24.08
		c4.41,6.84,8.43,13.94,12,21.25c2.77,5.66,5.28,11.45,7.52,17.34c3.57,9.4,6.42,19.5,5.13,29.64c-0.02,0.14-0.04,0.27-0.05,0.41
		c-0.02,0.18-0.05,0.37-0.08,0.55c-0.57,3.91-1.49,7.77-2.74,11.52c-1.25,3.76-2.84,7.4-4.75,10.87c-1.54,2.81-3.3,5.51-5.25,8.06
		c-9.43,12.38-23.25,21.13-38.43,24.72c-2.37,0.6-1.67,4.1,0.73,3.8c20.22-2.77,37.67-13.88,49.2-29.54
		c0.14,1.34,0.19,2.66,0.14,3.97c-0.42,10.88-7.08,20.18-14.77,27.46c-11.13,10.46-25.08,17.69-39.12,23.97
		c-1.15,0.5-1.78,1.86-1.27,3.13c0.44,1.11,1.66,1.69,2.83,1.46c7.96-1.61,15.74-4.25,23.19-7.76
		c11.25-5.35,22.12-12.96,29.49-23.39c7.48-10.24,9.97-24.16,3.87-35.47c4.71-8.04,7.99-16.99,9.47-26.46
		c0.49-0.07,1.02-0.14,1.02-0.14c28.26-3.66,58.68,0.68,82.95,15.91c18.66,11.53,32.66,29.45,38.8,50.46
		c1.63,5.58,3.11,11.26,3.51,17.08c0.41,5.91-0.75,11.59-2.21,17.28c-2.93,11.1-7.67,22.15-16.14,30.11
		c-1.66,1.52-3.45,2.87-5.34,4.08c-1.64,0.97-2.29,3.08-1.4,4.81c0.92,1.79,3.12,2.5,4.91,1.58c7.31-3.65,13.35-9.46,18.07-16.05
		c5.45-7.79,9.47-16.46,12.26-25.52c27.29,25.8,51.25,61.02,45.98,99.67c-6.3,40.76-47.43,70.08-80.87,89.76
		c-76.02,42.79-165.77,53.2-251.81,50.83c87.07,8.81,179.16,1.16,257.6-40.32c33.82-18.59,69.79-43.71,85.04-80.69
		C899.94,619.55,868.14,567.32,831.18,534.08z"/>
	<path class="st70" d="M278.87,564.33c-6.86,0.74-14.38,19.9-8.61,35.24c3.06,8.14,11.2,18.77,21.3,18.33
		c4.04-0.17,9.43-2.16,11.63-6.38c2.44-4.67,0.07-10.42-4.66-21.91c-1.31-3.19-2.27-5.5-3.99-8.55
		C291.72,576.11,284.68,563.7,278.87,564.33z"/>
	<path class="st70" d="M394.24,517.52c0.24,1.32,0.59,2.64,1.3,3.78c1.12,1.78,2.99,2.92,4.8,3.99c2.03,1.2,4.12,2.43,6.45,2.83
		c2.33,0.4,4.98-0.21,6.4-2.1c2.02-2.7,0.78-6.51,1.13-9.86c0.5-4.78,4.24-8.48,7.56-11.96s6.64-7.82,5.97-12.58
		C408.86,485.73,389.97,494.32,394.24,517.52z"/>
	<path class="st69" d="M555.69,358.79c-0.64-2.85-1.31-5.76-0.96-8.66c0.35-2.9,1.95-5.83,4.65-6.93c2.74-1.11,6.21,0.09,7.67,2.67
		c0.74,1.32,0.98,2.86,1.15,4.36c1.5,13.4-1.3,27.64-9.59,38.27c-0.74,0.95-1.92,1.97-3.01,1.45c-1-0.47-1.07-1.85-0.95-2.95
		c0.49-4.53,3.13-8.58,3.71-12.81C559.02,369.44,556.73,363.45,555.69,358.79z"/>
</g>
</svg>
