<?xml version="1.0" encoding="utf-8"?>
<!-- Generator: Adobe Illustrator 27.0.0, SVG Export Plug-In . SVG Version: 6.00 Build 0)  -->
<svg version="1.1" id="Layer_1" xmlns="http://www.w3.org/2000/svg" xmlns:xlink="http://www.w3.org/1999/xlink" x="0px" y="0px"
	 viewBox="0 0 1080 1080" style="enable-background:new 0 0 1080 1080;" xml:space="preserve">
<style type="text/css">
	.st0{fill:none;stroke:#000000;stroke-linecap:round;stroke-linejoin:round;stroke-miterlimit:10;}
	.st1{display:none;}
	.st2{display:inline;opacity:0.7;fill:#C35233;}
	.st3{fill:#FFFFFF;}
	.st4{fill:#E9D2A3;}
	.st5{fill:#DAA765;}
	.st6{fill:#D09E62;}
	.st7{fill:#CF602F;}
	.st8{fill:#C35233;}
	.st9{fill:#F3814A;}
	.st10{fill:#F38A62;}
	.st11{opacity:0.15;fill:#FFFFFF;}
	.st12{opacity:0.6;fill:#F18A4C;}
	.st13{opacity:0.7;fill:#C35233;}
	.st14{opacity:0.35;}
	.st15{opacity:0.37;fill:#DA7446;}
	.st16{opacity:0.4;fill:url(#SVGID_1_);}
	.st17{opacity:0.4;fill:url(#SVGID_00000046304025477400456730000008128192798892308665_);}
	.st18{opacity:0.4;fill:url(#SVGID_00000141428784052702377900000009492293618285180598_);}
	.st19{opacity:0.4;fill:url(#SVGID_00000088833918705588564530000012627064073715594373_);}
	.st20{opacity:0.4;fill:url(#SVGID_00000065041451698860064940000012318817181068924572_);}
	.st21{opacity:0.4;fill:url(#SVGID_00000005977231295544625860000012781600000092582539_);}
	.st22{opacity:0.4;fill:url(#SVGID_00000002374822079873471800000008028004064319154610_);}
	.st23{opacity:0.08;fill:#FFFFFF;}
	.st24{opacity:0.4;fill:url(#SVGID_00000056411220489007524900000000218658228510326948_);}
	.st25{opacity:0.4;fill:url(#SVGID_00000088853442368123209920000016675870441194962089_);}
	.st26{opacity:0.4;fill:url(#SVGID_00000067955291893352579530000002726695243966928015_);}
	.st27{opacity:0.4;fill:url(#SVGID_00000072966583674388136610000016816081977803047579_);}
	.st28{opacity:0.4;fill:url(#SVGID_00000137836242846682023460000013429749804229787529_);}
	.st29{opacity:0.4;fill:url(#SVGID_00000074404745311084853490000003584368810101125019_);}
	.st30{opacity:0.4;fill:url(#SVGID_00000026131090460788908250000005687075437407819911_);}
	.st31{opacity:0.4;fill:url(#SVGID_00000036210870595879760490000000072792647755475614_);}
	.st32{opacity:0.4;fill:url(#SVGID_00000149363978836630881650000014396947801820964267_);}
	.st33{opacity:0.4;}
	.st34{opacity:0.35;fill:url(#SVGID_00000007402690112164471670000006742510867091419561_);}
	.st35{opacity:0.35;fill:url(#SVGID_00000173121467981869631190000017538457415526917307_);}
	.st36{opacity:0.4;fill:url(#SVGID_00000075851891806160721960000014231563568657048753_);}
	.st37{opacity:0.4;fill:url(#SVGID_00000048497980735654496570000005609791210161364352_);}
	.st38{opacity:0.4;fill:url(#SVGID_00000054244601227227273940000018062949457432192647_);}
	.st39{opacity:0.4;fill:url(#SVGID_00000075856994198458283610000003257294928455734188_);}
	.st40{fill:url(#SVGID_00000181069930020407188820000004664240613774310532_);}
	.st41{fill:url(#SVGID_00000091695162673942064570000003170271112910861993_);}
	.st42{opacity:0.7;}
	.st43{fill:url(#SVGID_00000176003706351823282800000000009644089148152969_);}
	.st44{fill:#F8F1E9;}
	.st45{opacity:0.5;fill:#E4DCD5;}
	.st46{opacity:0.45;fill:#F8F5F3;}
	.st47{opacity:0.65;fill:#FFFFFF;}
	.st48{fill:#F3DB97;}
	.st49{fill:#E4C88B;}
	.st50{opacity:0.6;fill:#F8E3BA;}
	.st51{opacity:0.8;fill:#F8E3BA;}
	.st52{opacity:0.25;fill:#FFFFFF;}
	.st53{fill:#618828;}
	.st54{fill:#92A931;}
	.st55{fill:#809A2C;}
	.st56{opacity:0.6;fill:#92A931;}
	.st57{opacity:0.6;fill:#618828;}
	.st58{opacity:0.5;fill:#818D92;}
	.st59{fill:#E4F1F8;}
	.st60{fill:#CEDDE4;}
	.st61{fill:#B5CAD2;}
	.st62{opacity:0.5;fill:#CEDDE4;}
	.st63{fill:#F7F3EB;}
	.st64{opacity:0.5;fill:#F3D997;}
	.st65{fill:none;stroke:#60470F;stroke-miterlimit:10;}
	.st66{fill:none;stroke:#000000;stroke-miterlimit:10;}
	.st67{fill:#F3D997;}
	.st68{fill:#F4DC98;}
	.st69{opacity:0.7;fill:#F8E3BA;}
	.st70{opacity:0.35;fill:#FFFFFF;}
	.st71{clip-path:url(#SVGID_00000165922642343194093650000001046779308232086956_);}
	.st72{opacity:0.5;fill:#96A488;}
	.st73{fill:#F0F3EC;}
	.st74{fill:#E5E9E0;}
	.st75{fill:none;stroke:#FFFFFF;stroke-width:3;stroke-miterlimit:10;}
	.st76{fill:none;stroke:#FFFFFF;stroke-width:3;stroke-linecap:round;stroke-linejoin:round;stroke-miterlimit:10;}
	.st77{opacity:0.65;fill:url(#);}
	.st78{opacity:0.2;fill:#FFFFFF;}
	.st79{opacity:0.1;fill:#FFFFFF;}
	.st80{opacity:0.5;fill:#EDE1CA;}
	.st81{opacity:0.3;fill:#AF8056;}
	.st82{fill:#D1D6CC;}
	.st83{opacity:0.28;fill:#AF8056;}
	.st84{opacity:0.3;fill:#997552;enable-background:new    ;}
	.st85{fill:#E5C98C;}
	.st86{opacity:0.6;fill:#F9E4BB;enable-background:new    ;}
	.st87{opacity:0.8;fill:#F9E4BB;enable-background:new    ;}
	.st88{opacity:0.25;fill:#FFFFFF;enable-background:new    ;}
</style>
<g>
	<path class="st4" d="M265.25,436.32c-0.48,0.52-0.96,1.04-1.44,1.57c0.05-0.06,0.11-0.13,0.16-0.19
		C264.39,437.23,264.82,436.77,265.25,436.32z"/>
	<path class="st4" d="M275.77,426.71c-0.99,0.78-1.97,1.59-2.95,2.42C273.8,428.29,274.78,427.48,275.77,426.71z"/>
	<path class="st4" d="M440.11,386.36c-1.68,0.18-3.33,0.35-4.94,0.51C436.78,386.7,438.43,386.53,440.11,386.36z"/>
	<path class="st4" d="M826.82,455.62c-1.76-2.47-3.59-4.83-5.49-7.08C823.24,450.8,825.08,453.15,826.82,455.62z"/>
	<path class="st4" d="M831.72,463.21c-0.36-0.61-0.73-1.23-1.11-1.84c-1.22-1.98-2.48-3.89-3.79-5.74c1.32,1.85,2.58,3.76,3.8,5.74
		C831,461.98,831.37,462.6,831.72,463.21z"/>
	<path class="st4" d="M836.11,471.44c-0.24-0.51-0.49-1.02-0.75-1.53c0.09,0.19,0.19,0.37,0.28,0.55
		C835.8,470.79,835.96,471.11,836.11,471.44z"/>
	<path class="st4" d="M835.81,597.98c-1.96,4.3-4.24,8.62-6.86,12.82c-0.45,0.71-0.9,1.42-1.38,2.17c0,0.01-0.01,0.01-0.02,0.02
		c-0.33,0.52-0.69,1.05-1.06,1.59c-0.18,0.27-0.38,0.54-0.57,0.82c-0.84,1.19-1.75,2.42-2.75,3.68c-0.28,0.35-0.57,0.71-0.87,1.08
		c-0.29,0.36-0.6,0.72-0.91,1.09c-0.27,0.32-0.54,0.63-0.82,0.95c-1.12,1.28-2.34,2.6-3.67,3.94c-0.33,0.33-0.67,0.67-1.02,1.01
		c-0.37,0.37-0.75,0.73-1.13,1.09c-0.39,0.37-0.79,0.73-1.19,1.1c-0.81,0.75-1.66,1.5-2.55,2.25c-0.29,0.25-0.58,0.5-0.88,0.75
		c-0.86,0.72-1.75,1.45-2.68,2.17c-0.45,0.35-0.91,0.71-1.38,1.07c-0.47,0.35-0.95,0.71-1.43,1.07c-0.56,0.43-1.14,0.84-1.73,1.27
		c-0.46,0.32-0.93,0.65-1.41,0.98c-0.51,0.36-1.02,0.71-1.54,1.06c-0.55,0.37-1.11,0.74-1.68,1.12c-0.57,0.37-1.15,0.74-1.74,1.12
		c-0.59,0.38-1.19,0.75-1.8,1.13c-1.22,0.75-2.48,1.51-3.79,2.27c-0.79,0.46-1.59,0.92-2.42,1.39c-0.87,0.49-1.77,0.99-2.68,1.48
		c-0.71,0.38-1.43,0.76-2.16,1.15c-0.78,0.41-1.57,0.83-2.38,1.24c-0.71,0.35-1.43,0.72-2.15,1.08c-0.39,0.19-0.79,0.39-1.19,0.59
		c-0.76,0.37-1.53,0.74-2.31,1.11c-0.44,0.21-0.88,0.42-1.33,0.63c-0.41,0.19-0.83,0.39-1.25,0.58c-1.68,0.79-3.42,1.56-5.2,2.34
		c-0.45,0.2-0.9,0.4-1.35,0.59c-0.68,0.3-1.37,0.59-2.06,0.88c-0.7,0.3-1.4,0.59-2.11,0.88c-0.47,0.2-0.95,0.4-1.43,0.59
		c-0.66,0.27-1.33,0.54-2,0.81c-5.49,2.2-11.42,4.4-17.82,6.6c-1.26,0.43-2.53,0.86-3.82,1.29c-1.39,0.47-2.81,0.93-4.25,1.39
		c-0.74,0.24-1.49,0.48-2.25,0.72c-0.73,0.24-1.47,0.47-2.21,0.7c-1.51,0.47-3.04,0.94-4.6,1.41c-0.64,0.2-1.29,0.39-1.94,0.58
		c-0.27,0.08-0.55,0.17-0.82,0.24c-0.63,0.19-1.26,0.38-1.89,0.56c-4.25,1.25-8.67,2.48-13.26,3.71c-0.39,0.11-0.79,0.22-1.2,0.32
		c-1.2,0.32-2.41,0.64-3.64,0.96c-77.74,20.25-146.05,23.44-194.8,21.73c-6.65-0.22-12.94-0.52-18.88-0.94
		c-23.91-1.56-41.43-4.12-50.88-5.63c-3.7-0.56-74.17-12.29-147.02-52.1c-1.05-0.57-2.1-1.15-3.14-1.74
		c-1.05-0.58-2.08-1.17-3.11-1.76c-2.4-1.38-4.77-2.79-7.09-4.26c-0.87-0.55-1.73-1.1-2.59-1.67c-0.65-0.42-1.29-0.85-1.93-1.29
		c-0.43-0.29-0.86-0.58-1.28-0.88c-0.39-0.27-0.78-0.55-1.17-0.83c-0.42-0.3-0.84-0.6-1.26-0.92c-0.64-0.45-1.27-0.93-1.89-1.41
		c-0.31-0.23-0.62-0.47-0.93-0.72c-0.34-0.26-0.67-0.52-1-0.79c-0.69-0.55-1.37-1.11-2.04-1.68c-0.68-0.57-1.34-1.14-2-1.73
		c-0.66-0.59-1.32-1.19-1.96-1.8c-0.65-0.61-1.29-1.23-1.92-1.86c0-0.01-0.01-0.01-0.01-0.01c-0.02-0.01-0.03-0.02-0.05-0.04
		c-0.29-0.29-0.58-0.59-0.86-0.89c-0.19-0.18-0.37-0.37-0.53-0.55c-0.31-0.31-0.6-0.62-0.87-0.93c-0.23-0.23-0.44-0.47-0.64-0.7
		c-0.05-0.04-0.08-0.07-0.09-0.11c-0.3-0.32-0.59-0.65-0.88-0.98c-0.45-0.5-0.88-1-1.3-1.52c-0.17-0.21-0.35-0.42-0.53-0.64
		c-0.19-0.22-0.36-0.43-0.52-0.65c-0.03-0.02-0.05-0.04-0.05-0.06c-0.08-0.08-0.15-0.17-0.2-0.25c-0.03-0.02-0.05-0.05-0.05-0.07
		c-0.81-1.02-1.6-2.07-2.38-3.15c-0.36-0.51-0.73-1.03-1.09-1.56c-0.36-0.53-0.72-1.07-1.07-1.61c-0.46-0.71-0.92-1.43-1.35-2.16
		c-0.36-0.58-0.71-1.17-1.05-1.76c-0.11-0.23-0.26-0.43-0.35-0.66c-3.96-6.97-6.68-14.08-8.5-21.14
		c-5.84-22.33-2.78-44.32-0.45-61.05c1.03-7.41,2.33-16.65,4.69-26.73c0.65-2.8,1.39-5.66,2.23-8.58c1.81-6.31,4.1-12.82,7.03-19.3
		c-0.77,2.06-6.6,17.94-4.84,30.79c2.19,16.08,16.64,30.33,50.63,46.74c65.28,31.5,130.55,36.14,207.65,41.62
		c5.63,0.4,13.64,0.9,23.62,1.14c12.33,0.31,27.76,0.23,45.5-0.97c28.63-1.97,51.29-6.2,95.36-14.56
		c46.55-8.88,46.29-10.62,77.32-15.43c34.54-5.4,45.21-4.9,54.12-6.78c0.13-0.03,0.26-0.06,0.39-0.08c0.24-0.05,0.48-0.11,0.71-0.17
		c0.36-0.08,0.72-0.18,1.07-0.27c0.01,0,0.02-0.01,0.02-0.01c0.72-0.19,1.44-0.41,2.18-0.64c0,0,0.01-0.01,0.02-0.01
		c0.36-0.12,0.73-0.25,1.11-0.37l0.01-0.01c0.28-0.1,0.57-0.2,0.86-0.31c0.87-0.32,1.77-0.68,2.72-1.09h0.01
		c0.78-0.33,1.55-0.68,2.32-1.05c0.39-0.19,0.78-0.37,1.17-0.56c1.15-0.57,2.29-1.17,3.42-1.79c1.13-0.63,2.25-1.29,3.36-1.97
		c0.73-0.46,1.46-0.92,2.19-1.4c0.73-0.48,1.46-0.98,2.18-1.48c1.07-0.76,2.13-1.53,3.17-2.33c1.41-1.08,2.78-2.19,4.14-3.35
		c1.34-1.15,2.66-2.33,3.95-3.56c0.01,0,0.01,0,0.01,0c0.65-0.61,1.29-1.23,1.92-1.86c1.89-1.89,3.73-3.85,5.5-5.87
		c0.26-0.29,0.5-0.59,0.75-0.89c0.48-0.6,0.93-1.23,1.35-1.87s0.81-1.3,1.16-1.97c0.54-1.01,1.01-2.06,1.4-3.13
		c0.13-0.36,0.25-0.71,0.37-1.08c1.13-3.55,1.48-7.33,1.01-11.08c-0.1-0.8-0.24-1.61-0.42-2.41c-0.04-0.18-0.08-0.37-0.13-0.55
		c1.12,4.42,1.96,8.67,2.6,12.67c1.89,11.75,2.01,21.28,2.03,26.15C849.41,539.67,849.14,569.03,835.81,597.98z"/>
	<path class="st5" d="M312.1,407.69c-0.89,0.32-1.78,0.65-2.68,0.98c-0.38,0.14-0.77,0.28-1.16,0.43c0.38-0.15,0.76-0.29,1.14-0.43
		C310.3,408.34,311.2,408.01,312.1,407.69z"/>
	<path class="st5" d="M812.84,540.23c-1.13,0.63-2.27,1.23-3.42,1.79C810.57,541.45,811.71,540.85,812.84,540.23z"/>
	<path class="st5" d="M826.82,455.62c-1.76-2.47-3.59-4.83-5.49-7.08C823.24,450.8,825.08,453.15,826.82,455.62z"/>
	<path class="st5" d="M831.72,463.21c-0.36-0.61-0.73-1.23-1.11-1.84c-1.22-1.98-2.48-3.89-3.79-5.74c1.32,1.85,2.58,3.76,3.8,5.74
		C831,461.98,831.37,462.6,831.72,463.21z"/>
	<path class="st6" d="M265.25,436.32c-0.48,0.52-0.96,1.04-1.44,1.57c-2.69,2.99-4.98,5.92-6.93,8.69c1.93-2.77,4.22-5.7,6.92-8.69
		c0.06-0.06,0.12-0.13,0.17-0.19C264.39,437.23,264.82,436.77,265.25,436.32z"/>
	<path class="st6" d="M275.77,426.71c-0.99,0.78-1.97,1.59-2.95,2.42C273.8,428.29,274.78,427.48,275.77,426.71z"/>
	<path class="st6" d="M295.11,414.69c-1.22,0.6-2.46,1.23-3.72,1.91c-0.08,0.04-0.16,0.07-0.24,0.11
		C292.49,415.99,293.81,415.32,295.11,414.69z"/>
	<path class="st6" d="M387.04,392.19c-2.39,0.29-4.74,0.57-7.04,0.85C382.3,392.75,384.65,392.47,387.04,392.19z"/>
	<path class="st6" d="M797.22,546.51c-0.13,0.03-0.26,0.06-0.39,0.09v-0.01C796.96,546.56,797.09,546.53,797.22,546.51z"/>
	<path class="st6" d="M836.11,471.44c-0.24-0.51-0.49-1.02-0.75-1.53c-0.16-0.33-0.32-0.65-0.49-0.97c0.27,0.51,0.53,1.01,0.77,1.52
		C835.8,470.79,835.96,471.11,836.11,471.44z"/>
	<path class="st6" d="M840.01,517.52c-0.24,0.31-0.48,0.61-0.74,0.9c-1.77,2.02-3.6,3.98-5.51,5.86c1.89-1.89,3.73-3.85,5.5-5.87
		C839.52,518.12,839.76,517.82,840.01,517.52z"/>
	<path class="st5" d="M812.07,621.85c-4.14,2.31-6.3,2.81-20.82,8.4c-12.02,4.62-12.02,4.85-25.44,10.12
		c-34.32,13.49-51.85,20.29-69.49,23.38c-6.1,1.07-11.71,1.58-22.91,2.59c-41.11,3.73-51.9,0.52-79.26,2.66
		c-37.06,2.89-32.2,9.94-70.53,12.33c-31.62,1.96-53.58-1.67-59.08-2.64c-14-2.46-14.13-3.87-35.49-8.47
		c-24.31-5.25-30.13-4.71-55.87-9.25c-30.81-5.43-46.21-8.15-61.65-14.57c0,0-25.26-10.46-49.21-28.64
		c-7.44-5.65-14.04-11.35-19.83-16.91c0.08,0.23,0.23,0.43,0.35,0.65c3.91,6.81,8.44,12.57,13.46,17.59
		c9.73,9.74,21.21,16.75,33.37,23.39c72.85,39.81,143.31,51.54,147.01,52.1c9.45,1.51,26.97,4.07,50.88,5.63
		c5.94,0.41,12.23,0.71,18.88,0.94c48.75,1.71,117.07-1.48,194.8-21.73c90.28-23.47,115.3-49.6,126.34-66.46
		c0.48-0.74,0.93-1.45,1.38-2.16c2.62-4.21,4.9-8.52,6.86-12.83C827.58,611.46,818.62,618.2,812.07,621.85z"/>
	<path class="st80" d="M490.48,650.65c1.12-0.66,2.21-1.4,3.28-2.21c17.64-13.41,1.99-31.85-12.3-39.28
		c-11.45-5.95-23.72-10.32-36.35-12.95c-22.28-4.64-45.33-3.84-67.86-7.08c-19.55-2.81-38.51-8.63-56.99-15.47
		c-9.1-3.36-18.1-6.98-27.09-10.65c-8.38-3.42-17.9-9.2-27.21-5.98c-8.25,2.86-10.82,10.79-7.95,18.68
		c2.78,7.63,8.31,15.53,14.85,20.38c25.19,18.69,53.69,32.87,83.72,41.88c26.93,8.08,54.22,8.14,81.44,13.88
		C454.68,655.38,474.89,659.92,490.48,650.65z"/>
	<path class="st5" d="M339.44,602.56c0.96,4.09,5.36,9.13,9.97,7.87c4.24-1.16,6.59-7.09,4.94-10.6c-2.33-4.98-12.51-4.81-14.72-1.2
		C338.82,599.95,339.19,601.52,339.44,602.56z"/>
	<path class="st6" d="M341.83,601.41c-0.78,1.33-0.41,2.89-0.19,3.92c0.23,0.97,0.66,2.02,1.26,3c-1.7-1.59-2.96-3.8-3.45-5.78
		c-0.26-1.04-0.63-2.63,0.19-3.92c2.19-3.62,12.39-3.78,14.72,1.19c0.09,0.21,0.15,0.38,0.21,0.59
		C350.76,597.81,343.65,598.46,341.83,601.41z"/>
	<path class="st5" d="M358.82,610.43c-2.62,1.59-5.12,5.78-3.21,8.7c1.76,2.68,6.41,2.97,8.47,1.03c2.93-2.74,0.51-9.77-2.5-10.49
		C360.49,609.41,359.49,610.03,358.82,610.43z"/>
	<path class="st5" d="M733.39,635.92c0.24,3.09,2.88,7.26,6.38,6.86c3.23-0.37,5.6-4.43,4.8-7.18c-1.14-3.89-8.58-4.92-10.6-2.53
		C733.24,633.94,733.33,635.13,733.39,635.92z"/>
	<path class="st5" d="M752.98,630.38c0.16,2.01,1.88,4.74,4.16,4.47c2.1-0.24,3.65-2.89,3.13-4.68c-0.74-2.54-5.6-3.21-6.92-1.65
		C752.88,629.08,752.94,629.86,752.98,630.38z"/>
	<path class="st6" d="M795.86,575.72c0.16,2.01,1.88,4.74,4.16,4.47c2.1-0.24,3.65-2.89,3.13-4.68c-0.74-2.54-5.6-3.21-6.92-1.65
		C795.76,574.43,795.82,575.2,795.86,575.72z"/>
	<path class="st5" d="M764.17,615.41c-1.11-0.27-2.75-0.15-3.71,1.07c-1.09,1.38-0.48,3.16-0.39,3.4c0.65,1.8,2.86,3.5,4.87,2.73
		c1.51-0.58,2.39-2.34,2.16-3.99C766.89,616.99,765.61,615.76,764.17,615.41z"/>
	<path class="st6" d="M796.73,558.25c-1.43-0.35-3.55-0.19-4.79,1.37c-1.41,1.79-0.62,4.07-0.51,4.39c0.84,2.32,3.68,4.52,6.29,3.52
		c1.95-0.74,3.08-3.02,2.79-5.14C800.22,560.28,798.58,558.71,796.73,558.25z"/>
	<path class="st5" d="M255.62,551.45c-0.22-1.12-1.03-2.56-2.54-2.91c-1.72-0.4-3.07,0.9-3.25,1.09c-1.35,1.35-1.96,4.07-0.41,5.57
		c1.16,1.13,3.13,1.17,4.53,0.27C255.34,554.57,255.91,552.9,255.62,551.45z"/>
	<path class="st5" d="M599.85,627.74c1.01-2.13,1.72-5.44,0.43-7.69c-1.47-2.56-4.44-1.84-4.85-1.74c-3.03,0.8-6.76,4.71-6.7,8.95
		c0.04,3.18,2.18,5.42,4.75,5.43C596.04,632.7,598.54,630.51,599.85,627.74z"/>
	<path class="st5" d="M299.3,626.09c-0.5,0.46-0.27,1.47-0.12,2.09c0.64,2.72,3.05,4.29,8.71,7.47c4.85,2.72,7.27,4.09,8.66,4.67
		c0,0,5.59,2.36,12.74,2.66c0.63,0.03,1.69,0.05,1.8-0.31c0.18-0.61-2.56-1.92-3.72-2.48c-8.82-4.24-13.22-6.36-15.85-7.76
		C304.33,628.62,300.52,624.97,299.3,626.09z"/>
	<path class="st5" d="M577.34,638.76c0.91,1.03,2.97,0.95,4.27,0.33c2.12-1,2.66-3.6,3.04-5.44c0.67-3.2,0.55-8.08-0.95-8.45
		C581.24,624.58,574.82,635.9,577.34,638.76z"/>
	<path class="st5" d="M845.31,498.39c-0.1-0.8-0.24-1.61-0.42-2.41c-0.03-0.17-0.08-0.34-0.12-0.51c-0.01-0.02-0.01-0.03-0.01-0.04
		c-0.02-0.09-0.04-0.17-0.06-0.26c-0.07-0.26-0.13-0.52-0.21-0.79c-0.23-0.87-0.46-1.74-0.71-2.62c-0.26-0.9-0.52-1.81-0.8-2.73
		c-0.04-0.12-0.08-0.24-0.11-0.35c0-0.04-0.02-0.09-0.04-0.13c-0.17-0.53-0.34-1.07-0.51-1.6c-0.01-0.04-0.03-0.08-0.04-0.12
		c-0.19-0.58-0.38-1.15-0.58-1.73c-0.02-0.08-0.05-0.17-0.08-0.25c-0.16-0.46-0.32-0.91-0.48-1.37c-0.09-0.25-0.18-0.5-0.27-0.75
		c-0.14-0.38-0.28-0.76-0.42-1.14c-0.05-0.13-0.1-0.27-0.15-0.4c-0.08-0.21-0.16-0.42-0.24-0.63c-0.14-0.37-0.29-0.75-0.44-1.12
		c-0.03-0.07-0.05-0.13-0.08-0.2c-0.1-0.24-0.19-0.49-0.29-0.73c-0.09-0.22-0.19-0.44-0.28-0.66c-0.12-0.3-0.25-0.61-0.37-0.91
		c-0.01-0.01-0.02-0.03-0.02-0.04c-0.19-0.46-0.39-0.93-0.59-1.39c-0.26-0.59-0.52-1.18-0.79-1.78c-0.01-0.02-0.02-0.04-0.03-0.06
		c-0.24-0.54-0.49-1.08-0.75-1.62v-0.01c0-0.01-0.01-0.02-0.02-0.03c-0.09-0.19-0.18-0.38-0.28-0.57c-0.01-0.01-0.01-0.02-0.01-0.02
		c-0.07-0.16-0.15-0.32-0.23-0.48c-0.16-0.34-0.33-0.69-0.51-1.03c-0.11-0.22-0.22-0.44-0.33-0.66c-0.03-0.06-0.07-0.12-0.1-0.18
		c-0.02-0.05-0.04-0.09-0.06-0.13c-0.25-0.5-0.52-1.01-0.79-1.52c-0.75-1.41-1.53-2.81-2.36-4.21c-0.01-0.02-0.02-0.03-0.02-0.04
		c-0.36-0.6-0.72-1.2-1.09-1.8c-0.3-0.49-0.61-0.98-0.91-1.46c-0.31-0.49-0.63-0.98-0.95-1.46c-0.62-0.94-1.25-1.86-1.89-2.77
		c-0.02-0.02-0.03-0.04-0.04-0.05c0-0.01,0-0.01,0-0.01c-0.02-0.03-0.04-0.06-0.06-0.08c-0.07-0.1-0.14-0.2-0.22-0.3
		c-1.22-1.71-2.48-3.36-3.76-4.95c-0.46-0.57-0.92-1.13-1.39-1.68c-0.02-0.02-0.04-0.05-0.06-0.07c-0.48-0.57-0.96-1.13-1.45-1.68
		c-1.3-1.48-2.63-2.9-4-4.29c-29.53-29.93-74.74-40.09-125.9-51.57c-28.2-6.36-52.71-9.32-76.72-10.79
		c-6.73-0.42-13.44-0.74-20.18-0.94c-11.26-0.38-22.62-0.58-34.4-0.73c-23.41-0.33-82.2-0.28-159.18,12.23
		c-0.86,0.1-1.72,0.19-2.57,0.29c-1.7,0.19-3.37,0.38-5.02,0.57c-0.82,0.09-1.64,0.19-2.45,0.28c-0.81,0.09-1.62,0.19-2.42,0.28
		c-2.39,0.29-4.74,0.57-7.04,0.85c-11.51,1.42-21.88,2.91-31.84,4.86c-1.33,0.26-2.65,0.53-3.97,0.8c-2.63,0.55-5.24,1.14-7.84,1.77
		c-1.3,0.31-2.6,0.63-3.9,0.97c-3.24,0.84-6.49,1.75-9.76,2.75c-1.46,0.44-2.92,0.91-4.4,1.39c-2.04,0.67-4.1,1.37-6.19,2.11
		c-0.89,0.32-1.78,0.65-2.68,0.98c-0.38,0.14-0.77,0.28-1.16,0.43c-2.35,0.88-4.9,1.88-7.59,3.04c-0.76,0.33-1.53,0.67-2.31,1.02
		c-1.06,0.48-2.15,0.99-3.25,1.53c-1.22,0.6-2.46,1.23-3.72,1.91c-0.08,0.04-0.16,0.07-0.24,0.11c-0.05,0.03-0.11,0.06-0.16,0.08
		c-2.02,1.02-3.97,2.08-5.85,3.19c-5.03,2.96-9.58,6.29-13.76,10.06c-0.52,0.47-1.04,0.95-1.55,1.44c-0.51,0.49-1.01,0.99-1.51,1.49
		c-1.51,1.5-2.95,3.08-4.35,4.72c0.43-0.47,0.85-0.92,1.28-1.37c-0.48,0.52-0.96,1.04-1.44,1.57c-2.69,2.99-4.98,5.92-6.93,8.69
		c-0.5,0.7-0.96,1.38-1.39,2.04c-0.9,1.35-1.7,2.65-2.43,3.89c-0.29,0.49-0.57,0.98-0.83,1.46c-0.14,0.24-0.27,0.47-0.39,0.7
		c-0.13,0.24-0.26,0.47-0.38,0.69c-2.22,4.1-3.44,7.22-3.98,8.66c0,0.01,0,0.01-0.01,0.02c0,0,0,0.01-0.01,0.03
		c-0.68,1.83-4.93,13.43-5.15,24.72c-0.04,2.04,0.05,4.08,0.32,6.04c2.19,16.08,16.64,30.33,50.63,46.74
		c65.28,31.5,130.55,36.14,207.65,41.62c5.63,0.4,13.64,0.9,23.62,1.14c12.33,0.31,27.76,0.23,45.5-0.97
		c28.63-1.97,51.29-6.2,95.36-14.56c46.55-8.88,46.29-10.62,77.32-15.43c18.46-2.89,30.1-4.09,38.29-4.86
		c7.15-0.68,11.68-1.04,15.83-1.92c0.13-0.03,0.26-0.06,0.39-0.08c0.24-0.05,0.48-0.11,0.71-0.17c0.36-0.08,0.72-0.18,1.07-0.27
		c0.01,0,0.02-0.01,0.02-0.01c0.72-0.19,1.44-0.41,2.18-0.64c0,0,0.01-0.01,0.02-0.01c0.36-0.12,0.73-0.25,1.11-0.37l0.01-0.01
		c0.28-0.1,0.57-0.2,0.86-0.31c0.87-0.32,1.77-0.68,2.72-1.09h0.01c0.78-0.34,1.55-0.69,2.32-1.05c0.39-0.19,0.78-0.37,1.17-0.56
		c1.15-0.57,2.29-1.17,3.42-1.79c1.13-0.63,2.25-1.29,3.36-1.97c0.73-0.46,1.46-0.92,2.19-1.4c0.73-0.48,1.46-0.98,2.18-1.48
		c1.07-0.76,2.13-1.53,3.17-2.33c1.41-1.08,2.78-2.19,4.14-3.35c1.34-1.15,2.66-2.33,3.95-3.56c0.01,0,0.01,0,0.01,0
		c0.65-0.61,1.29-1.23,1.92-1.86c1.89-1.89,3.73-3.85,5.5-5.87c0.26-0.29,0.5-0.59,0.75-0.89c0.48-0.6,0.93-1.23,1.35-1.87
		c0.42-0.64,0.81-1.3,1.16-1.97c0.54-1.01,1.01-2.06,1.4-3.13c0.13-0.36,0.25-0.71,0.37-1.08
		C845.43,505.92,845.78,502.14,845.31,498.39z M275.78,426.71c-0.99,0.78-1.97,1.59-2.95,2.42
		C273.81,428.29,274.79,427.48,275.78,426.71z"/>
	<path class="st81" d="M835.82,597.98c-1.96,4.3-4.24,8.62-6.86,12.82c-0.45,0.71-0.9,1.42-1.38,2.17c0,0-0.01,0-0.02,0.01
		c-0.28,0.43-0.57,0.86-0.87,1.3c-0.06,0.1-0.12,0.2-0.19,0.3c-0.18,0.27-0.38,0.54-0.57,0.82c-0.07,0.09-0.14,0.19-0.21,0.28
		c-0.33,0.47-0.67,0.94-1.03,1.42c-0.07,0.1-0.15,0.2-0.22,0.3c-0.39,0.52-0.8,1.05-1.23,1.59c-0.02,0.03-0.04,0.06-0.06,0.09
		c-0.06,0.07-0.13,0.15-0.19,0.23c-0.18,0.22-0.36,0.44-0.54,0.67c-0.05,0.06-0.09,0.11-0.14,0.18c-0.04,0.05-0.09,0.1-0.13,0.15
		c-0.23,0.27-0.46,0.55-0.7,0.83c-0.03,0.04-0.05,0.07-0.08,0.11c-0.01,0.01-0.03,0.02-0.04,0.04c-0.78,0.91-1.6,1.84-2.48,2.79
		c-0.03,0.03-0.06,0.06-0.09,0.1c-0.58,0.61-1.18,1.24-1.8,1.87c-0.03,0.03-0.05,0.06-0.08,0.09c-0.02,0.01-0.04,0.03-0.05,0.04
		c-0.64,0.65-1.31,1.3-2,1.96c-0.04,0.03-0.07,0.06-0.1,0.1c-0.1,0.09-0.21,0.18-0.31,0.28c-0.63,0.59-1.28,1.18-1.95,1.78
		c-0.13,0.12-0.27,0.24-0.41,0.36c-0.99,0.87-2.03,1.75-3.13,2.64c-0.13,0.11-0.26,0.22-0.4,0.33c-1.6,1.29-3.31,2.6-5.15,3.92
		c-0.16,0.12-0.32,0.24-0.49,0.37c-0.14,0.09-0.29,0.19-0.43,0.29c-1.29,0.92-2.64,1.84-4.05,2.76c-0.05,0.04-0.1,0.07-0.15,0.11
		c-0.04,0.02-0.08,0.05-0.12,0.07c-3.64,2.39-7.7,4.81-12.22,7.26c-0.03,0.02-0.06,0.04-0.09,0.06c-0.06,0.03-0.12,0.06-0.17,0.09
		c-1.27,0.68-2.57,1.37-3.91,2.06c-0.16,0.08-0.31,0.16-0.46,0.24c-0.2,0.09-0.4,0.19-0.6,0.29c-0.4,0.21-0.81,0.41-1.23,0.62
		c-0.1,0.06-0.21,0.11-0.32,0.17c-0.39,0.19-0.79,0.39-1.19,0.59c-0.08,0.03-0.16,0.07-0.24,0.11
		c-18.18,8.88-42.79,18.02-76.5,26.78c-77.74,20.25-146.06,23.43-194.81,21.73c-1.56-0.06-3.1-0.11-4.62-0.17
		c-3.5-0.15-6.89-0.31-10.18-0.51c-1.38-0.08-2.74-0.17-4.07-0.26c-23.91-1.56-41.43-4.13-50.89-5.63
		c-1.36-0.21-11.72-1.92-27.88-5.98c21.58,2.88,54.67,5.7,94.82,2.35c37.64-3.14,41.48-8.37,83.88-12.9
		c64.43-6.9,71.95,3.42,112.96-7.82c23.34-6.4,61.83-17.51,75.62-48.69c5.8-13.11,6.78-28.76,7.26-36.26
		c0.41-6.61,1.32-21.03-2.32-36.77c-0.75-3.25-1.69-6.55-2.87-9.85c-5.95-16.67-17.42-31.82-40.4-48.69
		c-36.19-26.57-80.42-42.35-137.03-52.33c-34.43-6.07-71.55-6.98-145.79-8.79c0,0-115.28-2.82-169.35,25.72
		c-6.71,3.54-12.89,7.63-12.89,7.63c-13.27,9.01-23.28,18.69-30.36,26.59c0.22-11.29,4.47-22.89,5.15-24.72
		c0.01-0.02,0.01-0.03,0.01-0.03c0.01-0.01,0.01-0.01,0.01-0.02c0.54-1.44,1.76-4.56,3.98-8.66c0.12-0.22,0.25-0.45,0.38-0.69
		c0.12-0.23,0.25-0.46,0.39-0.7c0.26-0.48,0.54-0.97,0.83-1.46c0.73-1.24,1.53-2.54,2.43-3.89c0.43-0.66,0.89-1.34,1.39-2.04
		c1.93-2.77,4.22-5.7,6.92-8.69c0.06-0.06,0.12-0.13,0.17-0.19c0-0.01,0-0.01,0-0.01c1.4-1.64,2.84-3.22,4.35-4.72
		c0.5-0.5,1-1,1.51-1.49c0.51-0.49,1.03-0.97,1.55-1.44c4.18-3.78,8.73-7.1,13.76-10.06c1.88-1.11,3.83-2.17,5.85-3.19
		c0.05-0.02,0.11-0.05,0.16-0.08c1.34-0.72,2.66-1.39,3.96-2.02c1.1-0.54,2.19-1.05,3.25-1.53c0.78-0.35,1.55-0.69,2.31-1.02
		c2.69-1.16,5.24-2.16,7.59-3.04c0.38-0.15,0.76-0.29,1.14-0.43c0.9-0.33,1.8-0.66,2.7-0.98c2.09-0.74,4.15-1.44,6.19-2.11
		c1.48-0.48,2.94-0.95,4.4-1.39c3.27-1,6.52-1.91,9.76-2.75c1.3-0.34,2.6-0.66,3.9-0.97c2.6-0.63,5.21-1.22,7.84-1.77
		c1.32-0.27,2.64-0.54,3.97-0.8c9.96-1.95,20.33-3.44,31.84-4.86c2.3-0.29,4.65-0.57,7.04-0.85c0.8-0.09,1.61-0.19,2.42-0.28
		c0.81-0.09,1.63-0.19,2.45-0.28c1.65-0.19,3.32-0.38,5.02-0.57c0.85-0.1,1.71-0.19,2.57-0.29
		c76.98-12.51,135.77-12.56,159.18-12.23c11.78,0.15,23.14,0.35,34.4,0.73c6.74,0.2,13.45,0.52,20.18,0.94
		c24.01,1.47,48.52,4.43,76.72,10.79c51.16,11.48,96.37,21.64,125.9,51.57c1.37,1.39,2.7,2.81,4,4.29c0.49,0.55,0.97,1.11,1.45,1.68
		c0.02,0.02,0.04,0.05,0.06,0.07c0.47,0.55,0.93,1.11,1.39,1.68c1.3,1.6,2.56,3.24,3.76,4.95c0.08,0.1,0.15,0.2,0.22,0.3
		c0.02,0.02,0.04,0.05,0.06,0.08c0,0,0,0,0,0.01c0.01,0.01,0.02,0.03,0.04,0.05c0.64,0.91,1.27,1.83,1.89,2.77
		c0.32,0.48,0.64,0.97,0.95,1.46c0.31,0.48,0.62,0.97,0.92,1.46c0.37,0.59,0.73,1.2,1.08,1.8c0,0.01,0.01,0.02,0.02,0.04
		c0.83,1.4,1.61,2.8,2.36,4.21c0.27,0.51,0.54,1.02,0.79,1.52c0.02,0.04,0.04,0.08,0.06,0.13c0.03,0.06,0.07,0.12,0.1,0.18
		c0.21,0.4,0.42,0.8,0.61,1.21c0.07,0.16,0.15,0.32,0.23,0.48s0.16,0.32,0.23,0.48c0,0,0,0.01,0.01,0.02
		c0.1,0.19,0.19,0.38,0.28,0.57c0.01,0.01,0.02,0.02,0.02,0.03v0.01c0.26,0.54,0.51,1.08,0.75,1.62c0.01,0.02,0.02,0.04,0.03,0.06
		c0.27,0.6,0.53,1.19,0.79,1.78c0.2,0.46,0.4,0.93,0.59,1.39c0,0.01,0.01,0.03,0.02,0.04c0.12,0.3,0.25,0.61,0.37,0.91
		c0.09,0.22,0.19,0.44,0.28,0.66c0.1,0.24,0.19,0.49,0.29,0.73c0.03,0.07,0.05,0.13,0.08,0.2c0.15,0.37,0.3,0.75,0.44,1.12
		c0.08,0.21,0.16,0.42,0.24,0.63c0.05,0.13,0.1,0.27,0.15,0.4c0.14,0.38,0.28,0.76,0.42,1.14c0.09,0.25,0.18,0.5,0.27,0.75
		c0.16,0.46,0.32,0.91,0.48,1.37c0.03,0.08,0.06,0.17,0.08,0.25c0.2,0.58,0.39,1.15,0.58,1.73c0.01,0.04,0.03,0.08,0.04,0.12
		c0.17,0.53,0.34,1.07,0.51,1.6c0.02,0.04,0.04,0.09,0.04,0.13c0.03,0.11,0.07,0.23,0.11,0.35c0.28,0.92,0.54,1.83,0.8,2.73
		c0.25,0.88,0.48,1.75,0.71,2.62c0.08,0.27,0.14,0.53,0.21,0.79c0.02,0.09,0.04,0.17,0.06,0.26c0,0.01,0,0.02,0.01,0.04
		c0.04,0.17,0.09,0.34,0.12,0.51c1.06,4.22,1.85,8.29,2.47,12.12c1.89,11.75,2.01,21.28,2.03,26.15
		C849.42,539.67,849.15,569.03,835.82,597.98z"/>
</g>
</svg>
