<?xml version="1.0" encoding="utf-8"?>
<!-- Generator: Adobe Illustrator 27.0.0, SVG Export Plug-In . SVG Version: 6.00 Build 0)  -->
<svg version="1.1" id="Layer_1" xmlns="http://www.w3.org/2000/svg" xmlns:xlink="http://www.w3.org/1999/xlink" x="0px" y="0px"
	 viewBox="0 0 1080 1080" style="enable-background:new 0 0 1080 1080;" xml:space="preserve">
<style type="text/css">
	.st0{fill:none;stroke:#000000;stroke-linecap:round;stroke-linejoin:round;stroke-miterlimit:10;}
	.st1{display:none;}
	.st2{display:inline;opacity:0.7;fill:#C35233;}
	.st3{fill:#FFFFFF;}
	.st4{fill:#E9D2A3;}
	.st5{fill:#DAA765;}
	.st6{fill:#D09E62;}
	.st7{fill:#CF602F;}
	.st8{fill:#C35233;}
	.st9{fill:#F3814A;}
	.st10{fill:#F38A62;}
	.st11{opacity:0.15;fill:#FFFFFF;}
	.st12{opacity:0.6;fill:#F18A4C;}
	.st13{opacity:0.7;fill:#C35233;}
	.st14{opacity:0.35;}
	.st15{opacity:0.37;fill:#DA7446;}
	.st16{opacity:0.4;fill:url(#SVGID_1_);}
	.st17{opacity:0.4;fill:url(#SVGID_00000147912425869084510960000015736398092367086499_);}
	.st18{opacity:0.4;fill:url(#SVGID_00000055681264283703951900000014750544379127304068_);}
	.st19{opacity:0.4;fill:url(#SVGID_00000158736070789186147810000001219583402678634162_);}
	.st20{opacity:0.4;fill:url(#SVGID_00000059290060549646598410000005047054868889172413_);}
	.st21{opacity:0.4;fill:url(#SVGID_00000026125698505109308620000010771528367732527019_);}
	.st22{opacity:0.4;fill:url(#SVGID_00000103947713358067388700000017666313577676902073_);}
	.st23{opacity:0.08;fill:#FFFFFF;}
	.st24{opacity:0.4;fill:url(#SVGID_00000006680318705663367320000000081675279361111972_);}
	.st25{opacity:0.4;fill:url(#SVGID_00000093167477887101063990000000765098015576801675_);}
	.st26{opacity:0.4;fill:url(#SVGID_00000067920191256809773740000009152529492940680346_);}
	.st27{opacity:0.4;fill:url(#SVGID_00000110452168657757606910000009791361551512831905_);}
	.st28{opacity:0.4;fill:url(#SVGID_00000147903409426667788710000013887464091501265815_);}
	.st29{opacity:0.4;fill:url(#SVGID_00000179617707295637923140000004638395530324935087_);}
	.st30{opacity:0.4;fill:url(#SVGID_00000149368345455147342900000016872048533495468708_);}
	.st31{opacity:0.4;fill:url(#SVGID_00000008830722648305510490000009575264874790221202_);}
	.st32{opacity:0.4;fill:url(#SVGID_00000060745814272269099440000003224179412107139772_);}
	.st33{opacity:0.4;}
	.st34{opacity:0.35;fill:url(#SVGID_00000138556977690059428720000011456649525903314319_);}
	.st35{opacity:0.35;fill:url(#SVGID_00000129901325876275383790000012429989168360620162_);}
	.st36{opacity:0.4;fill:url(#SVGID_00000054243641663884156440000003324631665390594693_);}
	.st37{opacity:0.4;fill:url(#SVGID_00000026859819816847272880000009021966756785240472_);}
	.st38{opacity:0.4;fill:url(#SVGID_00000133529777277168168600000010216141176209103489_);}
	.st39{opacity:0.4;fill:url(#SVGID_00000116952523197954987230000007968630069867854721_);}
	.st40{fill:url(#SVGID_00000173847331089118648540000011352202482259774351_);}
	.st41{fill:url(#SVGID_00000145016741958395351470000004092209542741214635_);}
	.st42{opacity:0.7;}
	.st43{fill:url(#SVGID_00000052071910910478011190000001831374125793994660_);}
	.st44{fill:#F8F1E9;}
	.st45{opacity:0.5;fill:#E4DCD5;}
	.st46{opacity:0.45;fill:#F8F5F3;}
	.st47{opacity:0.65;fill:#FFFFFF;}
	.st48{fill:#F3DB97;}
	.st49{fill:#E4C88B;}
	.st50{opacity:0.6;fill:#F8E3BA;}
	.st51{opacity:0.8;fill:#F8E3BA;}
	.st52{opacity:0.25;fill:#FFFFFF;}
	.st53{fill:#618828;}
	.st54{fill:#92A931;}
	.st55{fill:#809A2C;}
	.st56{opacity:0.6;fill:#92A931;}
	.st57{opacity:0.6;fill:#618828;}
	.st58{opacity:0.5;fill:#818D92;}
	.st59{fill:#E4F1F8;}
	.st60{fill:#CEDDE4;}
	.st61{fill:#B5CAD2;}
	.st62{opacity:0.5;fill:#CEDDE4;}
	.st63{fill:#F7F3EB;}
	.st64{opacity:0.5;fill:#F3D997;}
	.st65{fill:none;stroke:#60470F;stroke-miterlimit:10;}
	.st66{fill:none;stroke:#000000;stroke-miterlimit:10;}
	.st67{fill:#F3D997;}
	.st68{fill:#F4DC98;}
	.st69{opacity:0.7;fill:#F8E3BA;}
	.st70{opacity:0.35;fill:#FFFFFF;}
	.st71{clip-path:url(#SVGID_00000016040067368637526490000007225805792990156422_);}
	.st72{opacity:0.5;fill:#96A488;}
	.st73{fill:#F0F3EC;}
	.st74{fill:#E5E9E0;}
	.st75{fill:none;stroke:#FFFFFF;stroke-width:3;stroke-miterlimit:10;}
	.st76{fill:none;stroke:#FFFFFF;stroke-width:3;stroke-linecap:round;stroke-linejoin:round;stroke-miterlimit:10;}
	.st77{opacity:0.65;fill:url(#);}
	.st78{opacity:0.2;fill:#FFFFFF;}
	.st79{opacity:0.1;fill:#FFFFFF;}
	.st80{opacity:0.5;fill:#EDE1CA;}
	.st81{opacity:0.3;fill:#AF8056;}
	.st82{fill:#D1D6CC;}
	.st83{opacity:0.28;fill:#AF8056;}
	.st84{opacity:0.3;fill:#997552;enable-background:new    ;}
	.st85{fill:#E5C98C;}
	.st86{opacity:0.6;fill:#F9E4BB;enable-background:new    ;}
	.st87{opacity:0.8;fill:#F9E4BB;enable-background:new    ;}
	.st88{opacity:0.25;fill:#FFFFFF;enable-background:new    ;}
</style>
<g>
	<g>
		<path class="st53" d="M548.26,769.39c-1.39-2.26-3.14-4.92-5.22-7.77c-0.18-0.26-0.4-0.55-0.58-0.8
			c-10.9-14.88-18.78-19.11-31.91-31.62c-0.04-0.04-0.04-0.04-0.07-0.07c-0.47-0.44-0.98-0.95-1.5-1.42
			c-2.95-2.92-6.13-6.02-9.41-9.52c-0.07-0.04-0.07-0.07-0.07-0.11c-6.05-6.42-12.44-14.22-18.31-24.43
			c-6.75-11.6-10.69-22.57-13.35-29.94c-3.9-10.76-6.35-20.13-7.91-27.06l-9.48-3.65c2.52,11.2,5.65,21.01,8.9,29.47
			c1.2-0.18,2.33-0.07,3.32,0.44c1.53,0.8,2.15,2.33,3.87,8.72c2.3,8.39,3.43,12.58,3.65,14.52c0,0.07,0,0.18,0,0.29
			c4.7,9.08,9.26,17.29,17.21,26.48c2.55,2.92,5.29,5.8,8.06,8.53c1.5,0.55,3.68,1.57,5.87,3.54c2.44,2.12,3.87,4.38,4.63,5.84
			c0,0.07,0,0.15,0,0.18c5.58,4.81,10.69,8.72,14,11.27c5.73,4.45,11.23,8.32,18.16,15.54c1.5,1.57,2.84,3.1,4.12,4.56
			c2.52,2.92,4.6,5.65,6.24,7.95L548.26,769.39z"/>
		<path class="st54" d="M548.29,769.35c-0.04-0.04-0.04-0.07-0.04-0.11c-0.15-0.18-0.29-0.36-0.4-0.58
			c-0.04-0.07-0.11-0.15-0.15-0.18c-0.36-0.62-0.8-1.28-1.28-1.97c-0.18-0.26-0.4-0.62-0.69-1.06c-0.84-1.2-1.71-2.48-2.7-3.83
			c-0.18-0.26-0.4-0.55-0.58-0.8c-4.08-5.54-7.73-9.66-11.42-13.24c-0.62-0.58-1.2-1.17-1.82-1.75c-2.44-2.3-4.96-4.45-7.62-6.75
			c-3.32-2.88-6.93-5.94-11.01-9.88c-0.04-0.04-0.04-0.04-0.07-0.07c-0.47-0.44-0.98-0.95-1.5-1.42c-2.95-2.92-6.13-6.02-9.41-9.52
			c-0.07-0.04-0.07-0.07-0.07-0.11c-1.53-1.6-3.06-3.28-4.6-5.11c-1.57-1.79-3.1-3.68-4.63-5.69c-3.1-4.05-6.13-8.53-9.08-13.64
			c-6.75-11.6-10.69-22.58-13.35-29.94c-3.9-10.76-6.35-20.13-7.91-27.06c-1.05-0.4-2.09-0.8-3.14-1.21c0.23,0.96,0.57,2.34,0.99,4
			c1.28,5.02,3.79,14.79,7.95,26.35c3.1,8.6,6.73,18.5,13.35,29.94c3.1,5.36,5.62,8.9,6.93,10.69c4.08,5.58,7.91,9.74,11.42,13.31
			c9.74,9.92,13.42,11.67,29.69,26.37c6.82,6.13,9.66,8.97,12.73,12.51c0.98,1.17,1.9,2.26,2.74,3.36c2.55,3.21,4.52,6.05,5.84,8.06
			C548.39,769.79,548.34,769.57,548.29,769.35z"/>
		<path class="st53" d="M612.73,782.4c-2.57-5.44-9.65-8.13-15.44-5.89c-5.26,2.04-7.08,7.29-7.38,8.33
			c-0.29,0.97,0.26,1.98,1.22,2.27c0.98,0.31,1.98-0.26,2.27-1.22c0.22-0.75,1.53-4.55,5.21-5.97c4.02-1.57,9.07,0.34,10.83,4.05
			c1.42,3.02,0.09,6.31-0.83,8.01c-3.35,6.16-11.72,6.53-12.09,6.54c-7.49,0.37-12.81-5.09-14.8-7.12c-1.57-1.6-2.96-3.7-2.96-3.7
			c-1.49-2.16-2.17-3.68-3.27-5.81c-1.7-3.28-2.83-5.47-4.29-7.41c-3.04-4.05-6.82-6.08-8.76-7.1c-3.97-2.09-7.39-2.69-10.9-3.31
			c-2.94-0.52-5.45-0.69-7.29-0.74c-0.37-0.06-0.64-0.17-0.83-0.25c-0.58-0.27-0.97-0.65-1.34-1.03c-0.14-0.14-0.1-0.11-0.51-0.54
			c-0.29-0.3-0.52-0.54-0.68-0.7c0.62,0.89,1.44,2.16,2.26,3.77c1.09,2.15,2.93,5.76,3.17,10.24c0.12,2.33,0.39,7.37-3.16,11.51
			c-0.56,0.65-4.98,5.63-11.14,4.59c-4.35-0.74-6.75-4.01-7.19-4.61c-1.59-2.18-2.34-4.69-1.99-6.72c0.02-0.13,0.6-3.27,2.98-4.24
			c1.21-0.49,2.83-0.47,4.05,0.04c0.86,0.36,1.45,0.93,1.75,1.67c0.33,0.83,0.3,1.86-0.11,2.8c-0.48,1.13-1.39,2.01-2.57,2.47
			c-0.93,0.37-1.39,1.44-1.02,2.37c0.37,0.93,1.42,1.38,2.37,1.02c2.08-0.83,3.7-2.4,4.57-4.43c0.78-1.83,0.83-3.87,0.14-5.6
			c-0.67-1.66-1.95-2.93-3.71-3.67c-2.12-0.9-4.74-0.92-6.85-0.06c-4.06,1.66-5.04,6.12-5.19,7c-0.52,3.03,0.45,6.49,2.64,9.49
			c2.44,3.33,5.94,5.55,9.63,6.07c0.59,0.08,1.17,0.12,1.73,0.12c6.65,0,11.29-5.42,12.22-6.59c4.61-5.85,5.04-14.46,1.37-22.61
			c11.01,1.52,18.68,5.23,22.75,11.09c1.53,2.21,2.29,4.3,3.1,6.51c1.23,3.39,2.5,6.88,6.46,10.92c2.03,2.06,8.09,8.22,16.81,8.22
			c0.24,0,0.48-0.01,0.72-0.01c1.1-0.04,10.89-0.61,15.16-8.45C613.97,789.74,614.3,785.72,612.73,782.4z"/>
		<path class="st55" d="M465.73,711.23c-1.43,2.55-4.11,7.16-9.55,10.6c-1.5,0.96-4.74,2.96-9.39,3.5
			c-3.25,0.38-7.77,0.89-10.34-1.62c-2.58-2.51-0.92-5.89-0.67-19.19c0.13-6.72-0.29-6.84,0.13-11.01
			c0.54-5.32,0.95-9.55,3.41-14.35c3.06-6.05,7.45-9.36,9.9-11.14c2.8-2.07,6.72-4.97,10.12-5.54c1.21-0.19,2.32-0.1,3.31,0.41
			c1.56,0.83,2.16,2.36,3.88,8.72c2.29,8.4,3.44,12.6,3.63,14.51c0,0.1,0.03,0.19,0.03,0.29
			C470.6,690.41,471.56,700.92,465.73,711.23z"/>
		<path class="st55" d="M506.98,749.9c-0.06,1.91-0.25,4.46-2.07,6.14c-2.29,2.1-5.76,1.66-6.91,1.53
			c-5.32-0.67-6.02-4.01-12.48-7.13c-6.05-2.93-7.7-1.08-10.69-3.85c-3.53-3.25-5.12-9.36-3.06-14c1.4-3.12,4.04-4.58,7.89-6.62
			c3.15-1.69,8.43-3.91,15.75-4.55h0.03c1.46,0.57,3.66,1.59,5.86,3.53c2.45,2.13,3.85,4.39,4.62,5.86c0,0.06,0.03,0.13,0.03,0.19
			C507.14,739.81,507.14,746.15,506.98,749.9z"/>
		<path class="st53" d="M554.34,729.28c-0.86,2.9-4.11,4.46-7.64,6.11c-1.94,0.92-6.78,3.15-13.53,3.06
			c-10.12-0.13-17.35-5.41-22.15-8.91c-0.16-0.13-0.32-0.22-0.48-0.35c-0.03-0.03-0.03-0.03-0.06-0.06
			c-0.48-0.45-0.99-0.95-1.5-1.43c-2.96-2.9-6.14-6.02-9.42-9.52c-0.62-0.68-1.25-1.36-1.87-2.04c1.67-2.57,7.84-11.39,18.71-13.43
			c12.97-2.44,22.85,6.59,29.92,13.15C549.79,719.06,555.74,724.53,554.34,729.28z"/>
		<path class="st54" d="M537.34,755.55c0.08-1.78,0.55-6.37,3.96-9.23c3.95-3.31,9.35-2.22,15.28-1.02
			c4.68,0.95,13.2,2.68,13.65,6.52c0.44,3.71-6.76,8.52-13.24,8.96c-2.75,0.19-5.16-0.48-9.98-1.83
			C542.93,757.8,539.63,756.52,537.34,755.55z"/>
		<path class="st53" d="M475.28,512.08c-5.04,15.11-9.95,33.56-13.07,54.87c-3.42,23.33-3.83,44.07-3.05,61.05
			c-2.82-1.12-5.63-2.25-8.45-3.37c-0.43-17.48,0.25-37.7,3.19-59.96c2.15-16.33,5.18-31.19,8.54-44.43
			C466.71,517.53,470.99,514.8,475.28,512.08z"/>
		<path class="st54" d="M466.51,521.47c-3.24,12.93-6.14,27.38-8.23,43.21c-2.93,22.24-3.61,42.45-3.17,59.96
			c1.31,0.55,2.66,1.06,3.98,1.57c0.04,0.62,0.04,1.2,0.07,1.79c-2.81-1.09-5.62-2.22-8.46-3.35c-0.4-17.51,0.26-37.71,3.21-59.96
			c2.15-16.34,5.18-31.18,8.53-44.42c2.14-1.37,4.28-2.73,6.42-4.1C468.07,517.93,467.29,519.7,466.51,521.47z"/>
		<path class="st53" d="M656.65,434.17c0.19,0.68,0.66,3.43-0.83,4.96c-1.41,1.44-3.9,1.11-4.66,1.01
			c-11.31-1.39-22.81,1.25-34.19,0.64c-6.21-0.33-15.07,1.25-32.79,4.41c-16.2,2.89-30.7,5.48-42.84,9.78
			c-12.24,4.34-33.58,14.5-54.98,40.92c-1.08-4.18-2.15-8.36-3.23-12.55c4.66-4.88,11.4-11.29,20.31-17.76
			c18.05-13.1,34.27-18.67,48.49-23.42c24.9-8.32,43.19-9.85,67.78-11.92C625.31,429.78,654.76,427.45,656.65,434.17z"/>
		<path class="st56" d="M655.82,439.12c-0.26,0.26-0.51,0.44-0.8,0.58c0-0.69-0.11-1.24-0.18-1.49c-1.9-6.75-31.33-4.41-36.91-3.94
			c-24.58,2.08-42.89,3.61-67.8,11.93c-14.22,4.74-30.45,10.32-48.47,23.41c-7.59,5.47-13.57,10.94-18.05,15.43
			c-0.15-0.55-0.29-1.13-0.44-1.68c4.63-4.89,11.38-11.31,20.31-17.8c18.02-13.09,34.25-18.64,48.47-23.41
			c24.91-8.32,43.22-9.85,67.8-11.89c5.58-0.47,35.01-2.81,36.91,3.9C656.84,434.85,657.32,437.58,655.82,439.12z"/>
		<path class="st53" d="M582.88,441.06c1.82,10.77-1.8,16.01-3.1,17.63c-4.68,5.85-14.42,5.74-33.89,5.51
			c-9.3-0.11-14.14-0.93-18.19-4.41c-0.95-0.81-4.91-4.31-5.67-9.77c-0.92-6.57,3.38-11.81,8.43-17.79
			c8.14-9.63,13.9-16.43,23.97-17.63c1.6-0.19,14.89-1.55,23.15,8.54C583.49,430.39,583.05,438.91,582.88,441.06z"/>
	</g>
	<g>
		<g>
			<path class="st53" d="M311.71,633c-6.8,0-13.43-5.09-16.39-10.73c-2.13-4.05-3.16-10.97,5.35-31.57
				c2.25-5.45,4.77-10.86,7.52-16.18c-7.64,6.97-17.88,13.3-29.85,13.3c-0.19,0-0.37,0-0.57,0c-3.41-0.06-11.4-0.19-16.82-6.1
				c-1.05-1.14-1.97-2.46-2.72-3.9c-2.05,0.19-4.32,0.08-6.76-0.55c-5.46-1.41-9.12-4.72-11.22-7.24c-0.64-0.78-0.54-1.92,0.23-2.57
				c0.77-0.64,1.92-0.54,2.57,0.23c1.76,2.12,4.81,4.88,9.33,6.04c1.54,0.4,3.05,0.51,4.37,0.52c-0.77-2.44-1.12-5.04-0.98-7.58
				c0.22-3.94,1.65-7.24,4.02-9.32c3.04-2.65,8.31-4.02,12.49-1.56c3.88,2.3,5.87,7.5,4.51,11.85c-1.31,4.2-5.16,5.8-9.61,7.65
				c-1.43,0.59-3.15,1.31-5.14,1.84c0.48,0.77,1.02,1.48,1.6,2.12c4.37,4.75,11.25,4.87,14.2,4.92c0.16,0,0.32,0,0.48,0
				c19.67,0,34.99-19.83,39.24-25.96c0.57-0.82,1.68-1.02,2.51-0.48c0.83,0.55,1.06,1.66,0.53,2.5
				c-6.49,10.23-12.06,20.95-16.56,31.85c-9,21.81-6.45,26.66-5.49,28.49c2.66,5.06,9.18,9.8,15.04,8.59
				c0.2-0.04,5.15-1.12,6.57-5.14c0.74-2.09,0.49-4.84-0.61-6.87c-0.62-1.14-1.43-1.88-2.29-2.08c-1.48-0.36-4.02,0.51-4.51,2.43
				c-0.37,1.44,0.44,3.13,1.98,4.11c0.85,0.54,1.1,1.67,0.56,2.52c-0.55,0.85-1.67,1.09-2.52,0.56c-2.85-1.82-4.3-5.15-3.54-8.1
				c1-3.88,5.53-5.86,8.89-5.07c1.87,0.45,3.52,1.83,4.64,3.89c1.59,2.92,1.92,6.78,0.85,9.82c-2.06,5.84-8.54,7.35-9.27,7.5
				C313.45,632.91,312.58,633,311.71,633z M267.4,558.14c-1.95,0-3.91,0.82-5.21,1.96c-1.63,1.42-2.62,3.83-2.79,6.77
				c-0.12,2.29,0.25,4.69,1.04,6.9c2.03-0.47,3.81-1.21,5.34-1.85c4.3-1.78,6.76-2.91,7.53-5.36c0.75-2.4-0.14-6-2.88-7.63
				C269.49,558.38,268.44,558.14,267.4,558.14z"/>
		</g>
		<path class="st53" d="M340.2,574.53c-1.9,0.95-4.81,2.08-8.5,2.3c-1.53,0.07-4.74,0.26-8.06-0.95c-0.15-0.04-0.26-0.11-0.4-0.15
			c-1.31-0.51-2.63-1.24-3.9-2.26c-4.34-3.65-5.03-9.04-5.58-13.06c-0.18-1.42-0.4-2.88-0.44-4.41c0-0.84,0.04-1.71,0.15-2.63
			c0.15-0.91,0.37-1.86,0.69-2.81c3.57-9.99,16.38-15.03,19.73-16.23c0.55-0.18,0.84-0.26,0.84-0.26l0.04,0.18
			c-0.44,1.31-0.69,2.66-0.73,4.01c-0.04,0.15-0.04,0.29-0.04,0.44c0,0.04,0,0.07,0,0.07c-0.55,2.23-0.84,4.6-0.84,7.11
			c-0.04,3.54-0.62,15.9,6.6,27.94C339.9,574.05,340.05,574.27,340.2,574.53z"/>
		<path class="st57" d="M342.18,537.98c-2.36,1.94-5.49,4.84-8.58,8.86c-6.78,8.83-9.76,18.39-9.2,18.66
			c0.4,0.2,2.46-4.52,7.24-10.86c4.94-6.54,10.01-11.13,13.69-14.09L342.18,537.98z"/>
		<path class="st54" d="M386.4,506.58c-0.73-0.04-1.53-0.04-2.33-0.04c-16.05,0.07-44.42,12.62-49.31,27.72l-0.04-0.18
			c0,0-16.45,4.92-20.57,16.48c-0.33,0.95-0.55,1.9-0.69,2.81c-2.01-1.86-6.89-5.94-14.7-10.43c-10.25-5.87-10.25-23.67-4.56-34.28
			c3.17-5.87,9.19-8.93,21.15-14.81c19.62-9.66,29.47-14.37,39.75-12.66C372.91,484.12,383.3,501,386.4,506.58z"/>
		<path class="st55" d="M600.34,525.99c-0.04,0-0.04-0.04-0.07-0.04v-0.11C600.3,525.91,600.34,525.95,600.34,525.99z"/>
		<path class="st55" d="M472.14,423.32c-0.33-0.04-0.62-0.11-0.95-0.22c-0.04,0-0.11-0.04-0.15-0.04
			c-16.99-4.27-19.47-2.15-24.73-5.58c-7-4.6-10.21-13.49-10.07-20.35c0.04-2.48,0.07-4.41,1.31-6.35c4.41-6.6,17.8-2.33,28.63-0.62
			c-0.98,4.63-1.9,10.32-1.57,15.14c0.33,4.41,1.79,10.28,6.86,17.18c0.15,0.18,0.29,0.4,0.44,0.58c0,0,0,0.04,0.04,0.04
			C472,423.18,472.07,423.25,472.14,423.32z"/>
		<path class="st53" d="M476.45,428.36c-1.93,7.11-3.72,15.5-4.7,24.98c0,0.29-0.04,0.58-0.04,0.84c-0.11,1.09-0.22,2.19-0.29,3.25
			c-1.31-0.51-2.66-0.77-4.19-1.06c-0.77-0.15-1.57-0.26-2.48-0.44c0.04-0.88,0.15-1.75,0.26-2.63v-0.33
			c1.35-11.49,3.65-21.55,6.05-29.91c0.04,0,0.11,0.04,0.15,0.04c0.33,0.11,0.62,0.18,0.95,0.22c0,0.04,0,0.04,0.04,0.04
			c0.07,0.11,0.15,0.22,0.22,0.29C473.53,425.18,474.84,426.75,476.45,428.36z"/>
		<path class="st53" d="M526.03,309.49c-1.16-5.68-7.21-7.7-9.49-8.47c-2.84-0.95-5.61-1.08-8.13-0.78c1.79-2.79,2.71-6,2.48-9.25
			c-0.36-4.81-3.37-10.82-9.16-12.65c-6.4-2.02-12.05,2.44-15.09,4.84c-6.55,5.17-9.11,12.07-10.64,16.18
			c-1.06,2.85-1.6,5.16-2.23,7.84c-0.44,1.88-0.95,4.04-1.74,6.8c-0.18-0.67-0.39-1.32-0.63-1.97c-1.25-3.33-4.91-11.18-11.91-12.06
			c-1.25-0.15-4.46-0.28-7.16,1.84c-2.04,1.61-3.49,4.32-3.76,7.06c-0.23,2.28,0.37,4.39,1.69,5.94c2.15,2.54,6.5,3.97,9.77,1.86
			c2.24-1.46,3.45-4.21,3.14-7.18c-0.1-1.01-1.07-1.75-2-1.63c-1,0.1-1.73,1-1.63,2c0.16,1.58-0.43,3.06-1.5,3.76
			c-1.67,1.08-4.02,0-5-1.16c-0.86-1.01-0.93-2.3-0.84-3.21c0.17-1.76,1.11-3.55,2.39-4.56c1.67-1.32,3.83-1.17,4.45-1.09
			c5.16,0.65,8.15,7.61,8.95,9.73c1.16,3.09,1.49,6.59,0.97,10.1c-0.84,3.12-1.85,6.24-3.01,9.27c-1.37,3.58-2.53,5.97-3.54,8.08
			c-1.3,2.67-2.32,4.79-2.95,7.78c-1.03,4.85-0.6,10.12,1.28,15.65c0.26,0.76,0.97,1.24,1.73,1.24c0.2,0,0.39-0.03,0.59-0.1
			c0.95-0.32,1.46-1.36,1.14-2.32c-1.67-4.9-2.06-9.52-1.16-13.72c0.54-2.56,1.43-4.4,2.66-6.95c1-2.07,2.25-4.64,3.67-8.37
			c1.21-3.17,2.27-6.43,3.15-9.69c0.21-0.57,0.49-1.37,0.83-2.35c2.27-6.56,3.22-10.64,3.99-13.91c0.62-2.66,1.11-4.77,2.09-7.4
			c1.49-4,3.73-10.05,9.48-14.59c2.68-2.12,7.17-5.67,11.73-4.23c3.98,1.26,6.34,5.7,6.62,9.44c0.3,4.13-1.89,8.23-5.59,10.88
			c-1.64,0.72-2.96,1.48-3.84,2.05c-0.79,0.51-1.06,1.52-0.64,2.35c0.42,0.83,1.41,1.21,2.28,0.88c1.44-0.55,2.77-1.25,3.98-2.09
			c3.12-1.32,7.47-2.34,11.95-0.84c1.89,0.63,6.33,2.12,7.07,5.74c0.53,2.6-0.93,5.61-3.49,7.14c-2.63,1.58-6.08,1.31-8.59-0.66
			c-0.79-0.62-1.94-0.49-2.56,0.31c-0.62,0.79-0.48,1.94,0.31,2.56c3.7,2.9,8.81,3.26,12.72,0.92
			C524.74,318.14,526.88,313.62,526.03,309.49z"/>
		<path class="st55" d="M419.19,532.37c-0.11,1.13-0.29,2.48-0.58,4.09c-0.55,3.28-1.42,7.69-2.66,13.86
			c-2.95,14.48-3.32,16.08-4.78,19c-1.13,2.3-5.07,10.14-12.69,15.06c-3.28,2.19-6.78,3.46-7.15,3.61c-3.1,1.13-5.36,1.28-7.18,1.82
			c-9.3,2.81-9.74,4.27-13.46,4.85c-11.82,1.86-24.47-10.5-30.49-20.13c-0.15-0.26-0.29-0.47-0.44-0.69
			c-7.22-12.04-6.64-24.4-6.6-27.94c0-2.52,0.29-4.89,0.84-7.11c0,0,0-0.04,0-0.07c0-0.15,0-0.29,0.04-0.44
			c0.04-1.35,0.29-2.7,0.73-4.01c4.89-15.1,33.26-27.64,49.31-27.72c0.8,0,1.6,0,2.33,0.04c2.12,0.11,3.79,0.29,3.79,0.29
			c0.62,0,1.31,0.07,2.12,0.15c0.91,0.11,1.9,0.29,2.99,0.58c0.66,0.18,1.39,0.4,2.12,0.69c2.26,0.84,4.05,1.93,5.94,3.43
			c0.88,0.69,1.79,1.49,2.77,2.41c0.47,0.44,0.98,0.91,1.53,1.39c0.66,0.62,1.28,1.17,1.9,1.71c5.65,5.21,8.53,7.8,8.79,8.31
			C419.26,527.3,419.59,528.87,419.19,532.37z"/>
		<path class="st55" d="M487.72,496.37c0.33,2.55-1.42,4.67-2.99,6.49c-2.12,2.44-4.01,4.67-5.87,6.75
			c-1.9,2.04-3.68,3.98-5.62,5.76c-4.27,3.98-9.01,7.4-15.65,10.79c-14.77,7.51-28.96,9.7-38.99,10.28c0.29-1.6,0.47-2.95,0.58-4.09
			c0.4-3.5,0.07-5.07-0.84-6.82c-0.29-0.55-3.79-3.68-10.69-10.03c-1.64-1.5-2.99-2.74-4.3-3.79c-1.9-1.5-3.68-2.59-5.94-3.43
			c-0.73-0.29-1.46-0.51-2.12-0.69c-1.09-0.29-2.08-0.47-2.99-0.58c6.71-9.04,15.46-16.56,26.77-20.79c0,0,0.11-0.04,0.26-0.11
			c14.62-6.38,27.43-4.38,39.82-2.37c0.11,0,0.18,0,0.33,0.04c1.71,0.26,4.52,0.73,7.66,1.39c2.88,0.58,6.09,1.39,9.08,2.41
			c0.51,0.18,1.06,0.37,1.64,0.62c1.79,0.73,3.87,1.75,6.24,3.14c1.24,0.88,2.22,1.82,2.84,2.88c0.07,0.07,0.11,0.15,0.15,0.22
			c0.04,0.07,0.07,0.11,0.11,0.18v0.07C487.46,495.24,487.64,495.79,487.72,496.37z"/>
		<path class="st57" d="M392.31,533.17c1.64,1.49,2.77,2.59,3.46,3.28C395.08,535.76,393.92,534.67,392.31,533.17z"/>
		<path class="st55" d="M484.11,491.34c-2.37-1.39-4.45-2.41-6.24-3.14C480.24,489.08,482.39,490.14,484.11,491.34z"/>
		<path class="st53" d="M487.21,494.62c-0.04-0.07-0.07-0.11-0.11-0.18c-0.04-0.07-0.07-0.15-0.15-0.22
			c-0.15-0.33-0.37-0.69-0.69-1.09c-0.77-0.95-1.6-1.49-2.15-1.79c-1.71-1.2-3.87-2.26-6.24-3.14c-0.58-0.26-1.13-0.44-1.64-0.62
			c-2.99-1.02-6.2-1.82-9.08-2.41c-3.14-0.66-5.94-1.13-7.66-1.39c-0.15-0.04-0.22-0.04-0.33-0.04c-12.4-2.01-25.2-4.01-39.82,2.37
			c-0.88-0.4-1.57-0.88-2.19-1.39c-4.49-3.68-7.04-6.38-8.64-9.41c-1.2-2.26-5.58-9.85-4.41-19.8c0.51-4.16,0.91-7.59,3.57-10.03
			c1.57-1.42,5.18-3.68,18.42-0.95c8.75,1.79,13.02,3.98,20.35,6.6c6.13,2.19,10.61,3.32,14.11,4.05c1.6,0.33,2.95,0.55,4.19,0.73
			c0.91,0.18,1.71,0.29,2.48,0.44c1.53,0.29,2.88,0.55,4.19,1.06c0.26,0.07,0.47,0.18,0.73,0.29c0,0,1.46,0.66,2.84,1.64
			C477.58,461.22,482.79,475,487.21,494.62z"/>
		<path class="st55" d="M484.11,491.34c-2.37-1.39-4.45-2.41-6.24-3.14C480.24,489.08,482.39,490.14,484.11,491.34z"/>
		<g>
			<path class="st53" d="M664.16,482.73c-0.49,0-0.98-0.2-1.34-0.58c-0.68-0.74-0.64-1.89,0.09-2.58
				c15.15-14.12,21.89-32.04,16.37-43.57c-1.48-3.09-5.8-10.51-13.9-12.44c-5.06-1.2-9.42,0.2-11.56,1.14
				c-5.64,2.49-10.66,8.34-12.78,14.9c-1.49,4.61-1.33,8.82,0.44,11.84c1.76,2.99,5.34,5.14,9.11,5.49
				c4.16,0.36,9.32-1.43,11.28-5.59c0.48-1.03,1.9-4.61-0.12-7.67c-1.41-2.13-4.39-3.83-7.43-2.98c-1.77,0.51-3.52,1.94-4.37,3.56
				c-0.34,0.66-0.68,1.63-0.37,2.55c0.28,0.83,1.1,1.68,2.03,2.14c0.51,0.25,1.3,0.49,2.1,0.21c1.57-0.54,2.03-2.8,2.04-2.82
				c0.18-0.98,1.14-1.65,2.12-1.46c0.99,0.17,1.65,1.1,1.48,2.09c-0.03,0.18-0.79,4.37-4.43,5.64c-1.54,0.54-3.28,0.4-4.9-0.38
				c-1.8-0.88-3.29-2.5-3.89-4.23c-0.58-1.67-0.37-3.59,0.58-5.42c1.32-2.53,3.85-4.59,6.6-5.38c4.16-1.19,8.98,0.7,11.47,4.48
				c3.07,4.65,1.06,9.77,0.38,11.23c-2.8,5.95-9.71,8.12-14.9,7.67c-4.91-0.45-9.6-3.31-11.93-7.28c-2.31-3.93-2.58-9.19-0.77-14.81
				c2.46-7.62,8.12-14.19,14.78-17.12c2.57-1.13,7.77-2.8,13.88-1.35c9.64,2.3,14.64,10.84,16.35,14.41
				c6.29,13.16-0.61,32.37-17.17,47.81C665.05,482.57,664.6,482.73,664.16,482.73z"/>
		</g>
		<g>
			<path class="st53" d="M694.11,488.21c-2.41,0-5.03-1.13-6.35-3.68c-1.58-3.05-0.59-6.93,2.29-9.02c0.81-0.59,1.95-0.42,2.55,0.4
				c0.59,0.82,0.41,1.96-0.4,2.55c-1.44,1.04-1.95,2.93-1.19,4.4c0.84,1.63,2.94,1.92,4.09,1.57c2.08-0.6,2.95-3.52,2.75-5.31
				c-0.39-3.49-5.01-5.97-8.2-6.43c-5.86-0.86-12.61,4.33-16.42,12.58c-0.43,0.92-1.51,1.31-2.42,0.89
				c-0.91-0.42-1.31-1.51-0.89-2.42c4.54-9.85,12.69-15.75,20.25-14.66c4.32,0.62,10.68,4.01,11.31,9.63
				c0.41,3.65-1.49,8.1-5.36,9.22C695.48,488.11,694.8,488.21,694.11,488.21z"/>
		</g>
		<path class="st0" d="M619.82,545.9c-1.81,0.13-3.63,0.19-5.38,0.29c1.78-0.25,3.56-0.35,5.28-0.35
			C619.75,545.87,619.79,545.87,619.82,545.9z"/>
		<path class="st0" d="M614.31,546.19c0,0.06-0.76,0.13-1.37,0.19C613.39,546.32,613.87,546.25,614.31,546.19z"/>
		<path class="st55" d="M679.77,538.86c-5.76,3.39-10.98,4.05-16.16,4.63c-14.11,1.71-25.24-2.15-40.66-7.73
			c-4.89-1.75-11.6-4.41-19.44-8.21c-0.95-0.47-1.93-0.95-2.95-1.46c-0.07-0.04-0.15-0.07-0.22-0.11c0-0.04-0.04-0.07-0.07-0.15
			v-0.04c-0.04-0.29-0.07-0.58-0.11-0.88c-0.44-5.69-0.4-15.32,4.34-25.53c1.75-3.72,8.46-18.09,23.41-23.09
			c6.02-2.01,10.65-1.6,18.82-0.88c5,0.47,14.44,1.42,24.62,5.73c0.22,0.11,0.47,0.18,0.69,0.33c5.58,2.44,11.38,5.91,16.74,10.87
			c3.94,3.65,6.27,5.84,7.77,9.77C701.28,514.57,692.35,531.46,679.77,538.86z"/>
		<path class="st53" d="M672.04,481.49c-0.22-0.15-0.47-0.22-0.69-0.33c-10.18-4.3-19.62-5.25-24.62-5.73
			c-8.17-0.73-12.8-1.13-18.82,0.88c-14.95,5-21.66,19.37-23.41,23.09c-4.74,10.21-4.78,19.84-4.34,25.53
			c0.04,0.29,0.07,0.58,0.11,0.88v0.04c0.04,0.07,0.07,0.11,0.07,0.15c0.07,0.04,0.15,0.07,0.22,0.11v0.18
			c-2.41-2.23-6.53-6.56-8.68-13.28c-3.72-11.52,1.02-21.55,2.84-25.38c1.53-3.28,7.99-15.72,20.93-19.91
			c2.22-0.73,7.91-0.95,19.29-1.42c10.06-0.44,15.17-0.58,18.13,0.22C657.05,467.52,664.7,470.55,672.04,481.49z"/>
		<path class="st55" d="M616.93,542.73c0.04,0.04,0.07,0.04,0.11,0.07c-0.58,0.04-1.17,0.07-1.71,0.11
			c-4.23-3.21-9.74-8.42-14.99-16.92c1.09,0.55,2.15,1.06,3.17,1.57c6.38,4.96,13.24,9.99,20.64,14.99
			c0.69,0.47,1.42,0.98,2.12,1.42C623.35,543.24,620.21,542.76,616.93,542.73z"/>
		<path class="st53" d="M753.11,586.93c-1.6,1.9-4.19,2.04-5.91,2.12c-9.08,0.33-17.69-1.42-20.68-2.04
			c-6.97-1.35-5.91-0.84-12.58-2.12c-18.64-3.57-54.52-13.02-61.6-14.92c0.11-0.84,0.18-1.6,0.15-2.44
			c-0.11-4.49-2.52-8.02-4.74-10.5c-0.18-0.22-0.33-0.4-0.55-0.58l-0.66-0.66c-0.33-0.36-0.62-0.66-0.88-0.91
			c-0.26-0.26-0.51-0.51-0.77-0.73c4.67,2.26,10.28,4.78,16.74,7.22c3.35,1.24,10.76,3.87,21.92,6.56
			c13.46,3.28,35.67,7.48,49.53,8.28c1.39,0.11,4.7,0.69,11.38,1.82c6.24,1.09,8.79,1.68,9.7,3.72
			C754.89,583.43,754.2,585.65,753.11,586.93z"/>
		<path class="st54" d="M652.49,567.53c0.04,0.84-0.04,1.6-0.15,2.44c-0.37,1.93-1.24,4.08-2.88,7.04
			c-5.47,9.88-9.3,16.81-17.94,20.72c-9.3,4.23-18.13,2.26-21.08,1.57c-10.8-2.55-17.03-9.56-20.39-13.31
			c-5-5.62-10.07-11.27-9.81-18.34c0.18-6.2,4.38-11.67,10.1-15.9c0.98-0.73,2.04-1.46,3.1-2.08c4.45-2.77,9.45-4.78,14.22-5.87
			c0,0,0.04-0.04,0.07-0.04c0.84-0.18,1.64-0.37,2.41-0.47c0.62-0.07,1.39-0.15,1.39-0.18h0.11c1.2-0.07,2.44-0.15,3.68-0.18
			c0.55-0.04,1.13-0.07,1.71-0.11c-0.04-0.04-0.07-0.04-0.11-0.07c3.28,0.04,6.42,0.51,9.34,1.24c1.24,0.33,2.44,0.69,3.61,1.09
			c6.27,2.26,11.49,5.76,14.99,9.08h0.04c0.25,0.22,0.51,0.47,0.77,0.73c0.25,0.26,0.55,0.55,0.88,0.91l0.66,0.66
			c0.22,0.18,0.37,0.36,0.55,0.58C649.97,559.5,652.38,563.04,652.49,567.53z"/>
		<path class="st53" d="M611.53,543.09c0,0.04-0.77,0.11-1.39,0.18c-0.73,0.11-1.5,0.22-2.41,0.47c-0.04,0-0.07,0.04-0.07,0.04
			c-4.78,1.09-9.77,3.1-14.22,5.87c-15.28,0.69-41.03,0.29-67.32-7.99c-6.24-1.97-16.41-5.18-28.7-11.71
			c-9.08-4.81-19.95-11.82-24.18-14.59c1.93-1.79,3.72-3.72,5.62-5.76c2.55,2.3,6.02,5.14,10.32,8.17
			c3.72,2.59,14.81,10.03,34.32,16.48c6.16,2.04,27.9,8.86,56.89,9.37C594.14,543.89,611.53,542.84,611.53,543.09z"/>
		<path class="st56" d="M753.73,585.94c0-0.15-0.04-0.29-0.11-0.4c-0.91-2.04-3.46-2.63-9.7-3.72c-6.67-1.13-9.99-1.71-11.38-1.82
			c-13.86-0.8-36.07-5-49.53-8.28c-11.16-2.7-18.56-5.32-21.92-6.56c-3.87-1.46-7.44-2.95-10.65-4.41
			c-0.84-1.42-1.79-2.66-2.74-3.72c-0.15-0.22-0.29-0.4-0.55-0.58l-0.62-0.66c-0.37-0.36-0.66-0.66-0.88-0.91
			c-0.29-0.26-0.55-0.51-0.77-0.73c4.63,2.26,10.25,4.78,16.7,7.22c3.36,1.24,10.79,3.87,21.92,6.56
			c13.49,3.28,35.67,7.48,49.53,8.28c1.39,0.11,4.74,0.69,11.38,1.82c6.24,1.09,8.83,1.68,9.74,3.72
			C754.71,583.06,754.42,584.7,753.73,585.94z"/>
		<path class="st56" d="M611.53,543.09c0,0.04-0.77,0.11-1.35,0.18c-0.77,0.11-1.53,0.22-2.44,0.47c-0.04,0-0.07,0.04-0.07,0.04
			c-3.21,0.73-6.56,1.9-9.77,3.46c-5.58,0.15-12.14,0.29-18.02,0.18c-28.99-0.51-50.73-7.33-56.89-9.37c0,0-20.98-6.91-34.32-16.48
			c-3.96-2.84-5.94-4.26-6.59-5.03c-0.52-0.62-1.68-2.1-3.74-3.14c-0.9-0.45-1.71-0.69-2.25-0.82c0.93-0.99,1.87-1.98,2.8-2.98
			c2.52,2.3,5.98,5.14,10.28,8.17c3.72,2.59,14.81,10.03,34.36,16.48c6.13,2.04,27.86,8.86,56.86,9.37
			C594.14,543.89,611.53,542.84,611.53,543.09z"/>
		<path class="st55" d="M512.99,347.9c-2.77,7.15-8.35,11.6-11.93,14.44c-2.59,2.04-5.36,4.19-9.66,5.54
			c-4.19,1.28-7.51,1.06-13.82,0.62c-2.99-0.26-6.86-0.66-11.41-1.53c-0.22-0.04-0.47-0.11-0.73-0.15
			c-0.66-0.15-1.31-0.29-2.01-0.44c-0.07,0-0.11,0-0.18-0.04c-0.04,0-0.11-0.04-0.15-0.04c-0.07-0.55-0.15-1.2-0.18-1.9
			c-0.04-0.33-0.04-0.66-0.07-1.02c-0.29-5.32,0.29-13.71,5.69-21.04c3.61-4.96,8.32-7.33,17.69-12.18
			c12.73-6.49,19.04-9.77,23.49-7.18C516.16,326.68,516.2,339.66,512.99,347.9z"/>
		<path class="st54" d="M463.25,366.36c-0.15,0.07-0.26,0.18-0.37,0.29c-0.29,0.26-0.62,0.47-0.91,0.77
			c-5.32,4.27-9.37,7.99-12.22,10.79c-2.92,2.81-3.61,3.65-5.51,4.92c-5.76,3.83-11.67,4.27-17.1,4.6
			c-6.31,0.4-10.69,0.66-15.97-1.5c-5.4-2.15-8.5-5.51-13.2-10.61c-4.96-5.4-5.58-8.06-5.76-9.15c-0.07-0.51-0.95-5.91,2.26-9.74
			c2.84-3.39,7.08-3.5,12-4.27c17.58-2.63,18.2-9.34,29.18-8.06c7.55,0.88,13.02,4.78,15.86,6.82c5.69,4.01,9.26,8.72,11.34,12.18
			c0.04,0.36,0.04,0.69,0.07,1.02c0.04,0.69,0.11,1.35,0.18,1.9C463.14,366.32,463.21,366.36,463.25,366.36z"/>
		<path class="st53" d="M480.17,419.13c-0.62,4.7-1.75,8.39-2.52,10.47l-0.66-0.66c-0.18-0.18-0.4-0.4-0.55-0.58
			c-1.6-1.6-2.92-3.17-4.05-4.7c-0.07-0.07-0.15-0.18-0.22-0.29c-0.04,0-0.04,0-0.04-0.04c-0.07-0.07-0.15-0.15-0.18-0.22
			c-0.04,0-0.04-0.04-0.04-0.04c-0.15-0.18-0.29-0.4-0.44-0.58c-5.07-6.89-6.53-12.76-6.86-17.18c-0.33-4.81,0.58-10.5,1.57-15.14
			c0.04-0.26,0.11-0.47,0.15-0.69c0-0.04,0-0.04,0-0.07c0.11-0.58,0.22-1.13,0.4-1.71c0.04-0.15,0.07-0.29,0.11-0.44v-0.04
			c0.84-3.35,1.53-5.65,1.53-5.65c0.77,0.88,1.64,1.82,2.52,2.95c0.47,0.62,0.98,1.28,1.46,1.97c1.82,2.66,3.65,5.87,5.11,9.66
			c0.11,0.26,0.18,0.51,0.33,0.77C480.86,405.23,480.97,413.04,480.17,419.13z"/>
		<path class="st53" d="M470.9,384.52c-0.88-1.13-1.75-2.08-2.52-2.95c0,0-0.69,2.3-1.53,5.65v0.04c-0.04,0.15-0.07,0.29-0.11,0.44
			c-1.42-4.23-3.87-12.55-4.78-20.28c0.29-0.29,0.62-0.51,0.91-0.77c0.11-0.11,0.22-0.22,0.37-0.29c0.07,0.04,0.11,0.04,0.18,0.04
			c0.69,0.15,1.35,0.29,2.01,0.44c0.26,0.04,0.51,0.11,0.73,0.15C467.22,371.57,469.23,380.22,470.9,384.52z"/>
		<path class="st54" d="M474.7,390.25c-1.66,1.85-3.68,4.54-5.24,8.14c-3.14,7.18-2.65,13.77-2.2,16.96
			c-1.75-3.87-2.41-7.22-2.63-10.03c-0.33-4.81,0.58-10.5,1.57-15.14c0.04-0.26,0.11-0.47,0.15-0.69c0-0.04,0-0.04,0-0.07
			c0.11-0.58,0.22-1.13,0.4-1.71c0.04-0.15,0.07-0.29,0.11-0.44v-0.04c0.84-3.36,1.53-5.65,1.53-5.65c0.77,0.88,1.64,1.82,2.52,2.95
			c0.47,0.62,0.98,1.28,1.46,1.97C473.16,387.66,473.93,388.9,474.7,390.25z"/>
		<path class="st56" d="M473.46,425c-0.04,0-0.04,0,0,0.04c-1.48,4.3-2.91,9.37-3.98,15.14c-1.13,6.07-1.6,11.57-1.74,16.3
			c-0.18-0.04-0.33-0.07-0.51-0.11c-0.77-0.15-1.57-0.26-2.48-0.44c0.04-0.88,0.15-1.75,0.26-2.63v-0.33
			c1.35-11.49,3.65-21.55,6.05-29.91c0.04,0,0.11,0.04,0.15,0.04c0.33,0.11,0.62,0.18,0.95,0.22c0,0.04,0,0.04,0.04,0.04
			c0.07,0.11,0.15,0.22,0.22,0.29C472.75,424.1,473.1,424.55,473.46,425z"/>
	</g>
	<g>
		<path class="st55" d="M500.35,537.86c-0.32,0.64-0.61,1.27-0.89,1.88c-1.53,3.37-2.77,7-7.26,32.78
			c-0.83,4.77-1.59,9.1-2.16,12.79c-0.03,0.03-0.03,0.03-0.03,0.03c-5.7,6.02-11.81,8.78-13.94,9.74
			c-10.28,4.49-19.29,3.53-32.43,2.1c-6.84-0.76-8.34-1.62-9.1-2.1c-8.47-5.54-9.33-21.55-4.65-32.88c2.2-5.32,5.22-8.4,11.33-14.64
			c11.81-12.09,23.27-17.63,28.96-20.05c9.04-3.79,13.59-5.7,18.71-3.85C495.29,525.99,498.63,532.74,500.35,537.86z"/>
		<path class="st53" d="M541.85,614.82c-1.27,3.88-3.09,7.16-6.27,9.23c-1.34,0.89-2.8,1.46-4.33,1.78
			c-8.15,1.81-17.76-3.31-20.34-4.68c-14.99-7.99-20.43-23.55-22.03-29c0.32-1.94,0.7-4.23,1.11-6.81c0,0,0,0,0.03-0.03
			c0.57-3.69,1.34-8.02,2.16-12.79c4.49-25.78,5.73-29.41,7.26-32.78c0.29-0.6,0.57-1.24,0.89-1.88
			c5.63-11.36,16.01-23.81,23.27-21.87c3.91,1.05,5.82,5.95,7.26,9.68c4.11,10.6,1.91,19.51,1.21,26.51
			c-0.1,1.05-0.19,2.07-0.22,3.09C530.71,581.31,549.01,593.21,541.85,614.82z"/>
		<path class="st55" d="M541.85,614.82c-1.27,3.88-3.09,7.16-6.27,9.23c-1.34,0.89-2.8,1.46-4.33,1.78
			c-0.32-0.13-0.64-0.25-0.96-0.38c1.62-2.99,3.5-7.54,3.44-13.11c-0.13-8.53-4.81-10.82-7.7-22.31
			c-0.96-3.79-2.67-10.98-0.89-19.64c1.4-6.97,4.52-12.09,6.72-15.12C530.71,581.31,549.01,593.21,541.85,614.82z"/>
		<path class="st53" d="M839.03,442.36c-3.19-10.39-13.86-20.67-27.35-19.25c-4.91,0.51-9.46,2.58-13.23,5.7
			c1.26-6.2,0.73-11.29-1.71-15.32c-0.89-1.47-1.96-2.69-3.1-3.97c-1.91-2.15-4.06-4.6-6.17-9.14c-1.71-3.68-2.56-6.99-2.69-10.42
			c-0.1-2.74-0.19-5.1,1.12-7.58c1.16-2.2,4.61-6.27,9.13-5.85c2.54,0.22,5.24,1.8,6.87,4.03c1.17,1.6,1.63,3.31,1.3,4.83
			c-0.39,1.77-1.89,3.63-3.73,4.61c-0.97,0.52-2.45,1.01-3.92,0.45c-2.19-0.84-3.6-3.64-3.35-6.64c0.09-1-0.66-1.89-1.66-1.97
			c-1-0.03-1.88,0.66-1.97,1.66c-0.39,4.66,1.94,8.91,5.67,10.35c2.17,0.84,4.64,0.61,6.96-0.64c2.76-1.49,4.94-4.25,5.56-7.04
			c0.56-2.56-0.12-5.32-1.92-7.77c-2.26-3.08-5.9-5.19-9.49-5.5c-5.6-0.48-10.45,3.55-12.68,7.78c-1.76,3.34-1.65,6.42-1.54,9.41
			c0.15,3.92,1.11,7.68,3.03,11.82c2.33,5.03,4.78,7.8,6.74,10.02c1.07,1.21,1.99,2.25,2.71,3.44c2.74,4.52,2.85,13.23-0.44,21.92
			c-1.45,2.32-3.05,2.87-3.78,5.62c-0.02,0.06,0,0.12-0.01,0.18c-0.02,0.12-0.03,0.23-0.02,0.35c0,0.12,0.02,0.24,0.05,0.35
			c0.03,0.11,0.06,0.21,0.11,0.31c0.05,0.11,0.11,0.21,0.18,0.31c0.06,0.09,0.14,0.17,0.22,0.25c0.09,0.09,0.19,0.16,0.3,0.23
			c0.05,0.03,0.08,0.08,0.14,0.11c0.05,0.02,0.1,0.02,0.15,0.04c0.07,0.03,0.12,0.08,0.19,0.1c0.1,0.03,0.19,0.01,0.29,0.02
			c0.06,0.01,0.12,0.04,0.18,0.04c0.03,0,0.06-0.02,0.09-0.03c0.3-0.02,0.59-0.08,0.84-0.24c0.02-0.01,0.03-0.03,0.04-0.04
			c0.24-0.15,0.42-0.37,0.57-0.62c0.02-0.04,0.06-0.05,0.08-0.09c0.2-0.39,0.35-0.76,0.53-1.14c0,0,0,0,0,0
			c-1.41,5.62-2.11,8.43-2.2,8.91c-1.47,8.39-4.74,20.58-8.75,35.07c-0.99,3.57-1.94,6.91-2.83,10.03c-0.06,0.16-0.1,0.35-0.16,0.51
			c-8.08,27.63-12.54,36.83-16.39,43.64c-7.61,13.5-15.82,23.04-21.96,30.14c-4.49,5.12-13.69,15.25-28.39,27.44
			c-17.22,14.29-43.76,36.25-83.99,47.9c-19.45,5.63-34.82,6.75-39.02,7c-22.25,1.4-38.64-1.97-57.9-5.92
			c-22.72-4.65-41.6-11.17-61.11-17.92c-5.22-1.81-7.89-2.74-10.38-3.79c-24.22-10.31-32.05-24.32-40.49-21.04
			c-3.6,1.4-6.65,5.7-5.92,8.28c0.64,2.26,4.11,3.12,5.09,3.37c10.47,2.71,15.34,10.89,40.14,21.42
			c19.45,8.28,35.87,11.52,59.42,16.17c25.75,5.09,38.64,7.64,55.86,7.83c34.56,0.38,59.96-7.96,65.41-9.84
			c24.63-8.37,40.87-19.77,55.13-29.79c14.04-9.87,31.38-24.03,48.32-43.54c5.03-5.79,10.12-11.71,15.05-18.71
			c3.88-5.51,7.67-11.68,11.27-19c1.11-2.26,2.42-5.09,3.95-8.98c2.17-5.47,4.71-13.08,7.7-24.13c0.45-1.69,0.92-3.44,1.4-5.28
			c0,0,0-0.03,0-0.06c1.71-6.63,2.93-12.11,3.72-15.85c2.76-13.02,5.87-31.16,7.54-39.5c0.22-1.08,0.51-2.48,0.89-4.15
			c0.09-0.41,0.18-0.81,0.28-1.2c1.24-5.32,4.39-10.13,9.15-12.8c2.43-1.36,5.11-2.25,7.92-2.54c11.63-1.19,20.72,7.7,23.48,16.69
			c3.23,10.51-1.56,23.15-10.24,27.04c-0.79,0.35-1.63,0.64-2.52,0.87c-1.5-6.5-4.33-12.38-9.62-12.97
			c-1.91-0.21-5.65,0.14-7.44,2.79c-2,2.98-0.64,7.48,1.66,10.2c2.83,3.35,7.72,4.54,12.5,4.17c0.74,4.61,1.01,9.62,0.93,13.64
			c-0.02,1,0.78,1.84,1.79,1.86c0.01,0,0.02,0,0.04,0c0.99,0,1.8-0.79,1.82-1.79c0.03-1.39,0.09-7.72-0.98-14.3
			c1.16-0.29,2.27-0.67,3.31-1.14C837.05,469.21,842.77,454.52,839.03,442.36z M810.17,469c-1.4-1.66-2.3-4.49-1.42-5.81
			c0.6-0.89,2.17-1.23,3.39-1.23c0.22,0,0.43,0.01,0.62,0.03c3.1,0.35,5.15,4.53,6.41,9.9C815.57,472.1,812.06,471.23,810.17,469z"
			/>
		<path class="st55" d="M811.63,541.36c-1.85,4.74-5.76,6.46-14.29,11.3c-14.99,8.5-13.88,9.52-18.62,10.63
			c-3.47,0.83-10.73,1.85-20.56-2.04c0-0.16,0.06-0.51,0.1-1.02c3.88-5.51,7.67-11.68,11.27-19c1.11-2.26,2.42-5.09,3.95-8.98
			c0.95-0.6,2.01-1.18,3.09-1.66c5.35-2.36,10.69-2.29,18.46-2.23c7.61,0.1,14.16,0.25,16.61,4.46
			C813.6,536.21,811.98,540.44,811.63,541.36z"/>
		<path class="st55" d="M793.46,441.65v0.03c-0.76,3.53-1.5,7-2.26,10.34c-1.97-2.99-5.22-7.23-10.22-10.92
			c-6.87-5.09-10.28-4.2-14.1-8.98c-4.2-5.28-4.39-11.81-4.55-17.19c-0.13-3.72-0.29-9.13,1.85-9.9c2.16-0.8,4.23,4.2,11.49,10.73
			c7.8,7.03,11.24,6.52,14.58,12.35c2.45,4.23,2.9,8.43,3.09,10.69C793.43,439.81,793.46,440.73,793.46,441.65z"/>
		<path class="st53" d="M710.32,687.04c0,0-18.43,2.16-40.58-20.27c2.64,0.06,5.22-0.25,7.8-0.83
			C681.99,671.03,692.94,681.66,710.32,687.04z"/>
		<path class="st53" d="M815.54,510.81c-5.12,4.46-15.56,0.06-24.09-3.53c-3.91-1.65-6.97-3.31-8.88-4.42c0,0,0-0.03,0-0.06
			c1.24-4.81,2.51-10.09,3.72-15.85c6.49-11.62,14.83-18.17,20.59-16.61c2.77,0.76,4.77,3.31,4.93,3.5c3.57,4.68,0,8.75,2.32,16.61
			c1.66,5.6,4.2,5.95,4.46,10.76C818.66,502.28,818.95,507.85,815.54,510.81z"/>
		<path class="st55" d="M657.33,749.61c-0.41,1.21-0.76,2.48-1.05,3.82c-1.05,4.9-0.48,7.51-2.23,16.11
			c-0.7,3.41-1.46,6.27-2.04,8.31c-1.43-0.83-6.43-3.91-6.78-8.69c-0.13-1.59,0.29-3.31,3.85-8.72c1.88-2.83,4.55-6.62,8.21-10.85
			C657.29,749.58,657.29,749.61,657.33,749.61z"/>
		<path class="st54" d="M718.25,730.07c-0.06,0.16-0.13,0.29-0.16,0.45c-0.1,0.19-0.16,0.38-0.22,0.57
			c-1.11,2.74-2.8,4.84-3.02,5.12c-3.5,4.62-7.64,6.87-9.45,7.83c-8.75,4.65-13.15,6.97-27.75,13.97
			c-6.88,3.31-16.23,9.2-25.81,20.5c0.06-0.22,0.13-0.41,0.19-0.67c0.57-2.04,1.34-4.9,2.04-8.31c1.75-8.59,1.18-11.2,2.23-16.11
			c0.29-1.34,0.64-2.61,1.05-3.82c2.42-7.29,6.68-12.32,8.75-14.7c2.58-2.96,8.02-8.43,16.39-12.13c9.23-4.07,12.79-1.85,19.64-6.75
			c2.01-1.43,6.43-4.71,8.75-10.69c2.29-5.82,1.46-11.3,0.48-14.7c-0.35-1.34-0.76-2.36-0.99-2.93c4.11,7.61,6.14,14.42,7.38,19.22
			c0.06,0.29,0.13,0.54,0.22,0.83c0.6,2.45,1.08,5,1.4,7.54c0,0.25,0.03,0.51,0.06,0.73C719.93,720.91,719.71,725.78,718.25,730.07z
			"/>
		<path class="st53" d="M741.99,736.18c-3.44,1.59-6.08,1.59-7.73,1.37c-3.88-0.51-5.63-2.71-11.08-5.16
			c-1.94-0.86-3.69-1.46-5.09-1.88c0.03-0.16,0.1-0.29,0.16-0.45c1.46-4.3,1.69-9.17,1.18-14.04c-0.03-0.22-0.06-0.48-0.06-0.73
			c-0.32-2.55-0.8-5.09-1.4-7.54c1.97,3.12,3.98,5.38,5.41,6.84c7.32,7.54,13.94,8.88,17.22,16.26
			C741.54,733.06,741.86,735.01,741.99,736.18z"/>
		<path class="st55" d="M741.99,736.18c-0.13-1.18-0.45-3.12-1.4-5.32c-3.28-7.38-9.9-8.72-17.22-16.26
			c-1.43-1.46-3.44-3.72-5.41-6.84c-0.1-0.29-0.16-0.54-0.22-0.83c-1.24-4.81-3.28-11.62-7.38-19.22c0.22,0.57,0.64,1.59,0.99,2.93
			c-1.05-2.36-1.81-3.76-1.81-3.76c0.38-2.1,0.99-5.06,2-8.59c1.34-4.68,2.01-7,3.57-9.26c0.41-0.54,5.25-7.23,10.54-6.24
			c1.97,0.38,3.41,1.72,4.61,3.28c4.93,6.17,4.71,13.21,5.73,19.32c2.32,13.69,9.45,13.97,11.49,25.4
			C748.48,716.48,748.23,724.88,741.99,736.18z"/>
		<path class="st54" d="M793.38,441.65c-0.15,1.67-0.38,3.97-0.77,6.71c-0.51,3.62-1.06,6.52-1.49,8.64
			c-2.76,13.51-8.28,33.37-8.75,35.08c-0.98,3.54-1.97,6.89-2.84,10.03c-0.07,0.15-0.11,0.33-0.15,0.51
			c-8.1,27.61-12.55,36.8-16.41,43.62c-7.59,13.49-15.83,23.05-21.95,30.12c-4.49,5.14-13.68,15.28-28.37,27.46
			c-17.25,14.3-43.76,36.25-84.03,47.88c-19.44,5.65-34.79,6.75-38.99,7c-22.28,1.42-38.66-1.97-57.91-5.91
			c-22.72-4.67-41.61-11.16-61.12-17.91c-5.22-1.82-7.88-2.77-10.36-3.79c-24.22-10.32-32.06-24.33-40.48-21.04
			c-2.15,0.8-4.08,2.66-5.14,4.56c-0.36-0.37-0.66-0.8-0.8-1.31c-0.73-2.55,2.33-6.86,5.94-8.24c8.42-3.28,16.27,10.72,40.48,21.01
			c2.48,1.06,5.14,2.01,10.36,3.79c19.51,6.75,38.4,13.28,61.12,17.94c19.26,3.94,35.63,7.29,57.91,5.91
			c4.19-0.26,19.55-1.39,38.99-7c40.26-11.63,66.78-33.63,84.03-47.88c14.7-12.22,23.89-22.32,28.37-27.46
			c6.13-7.07,14.37-16.63,21.95-30.12c3.87-6.82,8.32-16.01,16.41-43.65c0.04-0.15,0.07-0.33,0.15-0.51
			c0.88-3.1,1.86-6.46,2.84-10.03c2.81-10.03,5.8-21.77,8.75-35.05C791.88,448.65,792.61,445.18,793.38,441.65z"/>
		<path class="st53" d="M718.12,641.97c-6.05,12.03-18.01,16.39-27.28,19.8c-4.58,1.69-8.94,3.28-13.3,4.17
			c-2.58,0.57-5.16,0.89-7.8,0.83c-2.93-0.06-5.92-0.54-9.01-1.69c-11.14-4.14-16.61-13.85-18.36-17.28
			c-0.8-1.4-11.27-20.56-1.85-36.73c1.08-1.81,4.74-7.93,12.13-11.39c3.44-1.59,10.19-3.79,27.56,1.11
			c17.92,5.06,38.19,10.82,41.12,25.34C722.7,632.87,719.74,638.76,718.12,641.97z"/>
		<path class="st53" d="M782.38,487.06c0.25,0.95,0.81,3.6-0.39,6.52c-0.71,1.71-1.75,2.86-2.44,3.51
			c-1.75,0.25-3.98,0.41-6.56,0.13c-7.54-0.83-17.54-5.38-19.64-12.86c-1.43-5.06,2.16-6.27,2.07-16.14
			c-0.03-6.78-1.75-9.58-0.22-10.76c2.64-2.04,10.98,3.72,16.14,9.1C774.61,470,779.64,476.43,782.38,487.06z"/>
		<path class="st53" d="M488.89,592.16c-1.81,22.22-13.18,33.67-18.27,37.72c-3.63-1.31-7.1-2.58-10.38-3.79
			c4.2-1.59,14.07-5.98,21.39-16.52C486.31,602.86,488.13,596.27,488.89,592.16z"/>
	</g>
</g>
</svg>
