<?xml version="1.0" encoding="utf-8"?>
<!-- Generator: Adobe Illustrator 27.0.0, SVG Export Plug-In . SVG Version: 6.00 Build 0)  -->
<svg version="1.1" id="Layer_1" xmlns="http://www.w3.org/2000/svg" xmlns:xlink="http://www.w3.org/1999/xlink" x="0px" y="0px"
	 viewBox="0 0 1080 1080" style="enable-background:new 0 0 1080 1080;" xml:space="preserve">
<style type="text/css">
	.st0{fill:none;stroke:#000000;stroke-linecap:round;stroke-linejoin:round;stroke-miterlimit:10;}
	.st1{display:none;}
	.st2{display:inline;opacity:0.7;fill:#C35233;}
	.st3{fill:#FFFFFF;}
	.st4{fill:#E9D2A3;}
	.st5{fill:#DAA765;}
	.st6{fill:#D09E62;}
	.st7{fill:#CF602F;}
	.st8{fill:#C35233;}
	.st9{fill:#F3814A;}
	.st10{fill:#F38A62;}
	.st11{opacity:0.15;fill:#FFFFFF;}
	.st12{opacity:0.6;fill:#F18A4C;}
	.st13{opacity:0.7;fill:#C35233;}
	.st14{opacity:0.35;}
	.st15{opacity:0.37;fill:#DA7446;}
	.st16{opacity:0.4;fill:url(#SVGID_1_);}
	.st17{opacity:0.4;fill:url(#SVGID_00000009590672714371296900000006462359536884495791_);}
	.st18{opacity:0.4;fill:url(#SVGID_00000052091214112274973100000000564630540408014001_);}
	.st19{opacity:0.4;fill:url(#SVGID_00000133522194361056473340000001580825714888250240_);}
	.st20{opacity:0.4;fill:url(#SVGID_00000003081338514801300350000005284797912454130352_);}
	.st21{opacity:0.4;fill:url(#SVGID_00000148632771913963828040000003473750397965485957_);}
	.st22{opacity:0.4;fill:url(#SVGID_00000022518599575035559350000015009905940700248717_);}
	.st23{opacity:0.08;fill:#FFFFFF;}
	.st24{opacity:0.4;fill:url(#SVGID_00000052083997927352694310000002461915067392752016_);}
	.st25{opacity:0.4;fill:url(#SVGID_00000015350656914274333530000014938652983625224355_);}
	.st26{opacity:0.4;fill:url(#SVGID_00000085948323896711916270000018416412078131990150_);}
	.st27{opacity:0.4;fill:url(#SVGID_00000089544255929445263110000008705054083320332973_);}
	.st28{opacity:0.4;fill:url(#SVGID_00000167360860350708723550000005486226000330798208_);}
	.st29{opacity:0.4;fill:url(#SVGID_00000158727369719980681240000009707628231306392760_);}
	.st30{opacity:0.4;fill:url(#SVGID_00000037678655255551433000000004877625181016829865_);}
	.st31{opacity:0.4;fill:url(#SVGID_00000075125252215841430690000017289233961237491382_);}
	.st32{opacity:0.4;fill:url(#SVGID_00000100380423293930536640000006851344793861336474_);}
	.st33{opacity:0.4;}
	.st34{opacity:0.35;fill:url(#SVGID_00000106136503878047616540000017972601676632997515_);}
	.st35{opacity:0.35;fill:url(#SVGID_00000121275146439368702010000012564624873493781685_);}
	.st36{opacity:0.4;fill:url(#SVGID_00000140001154570809145900000003928924117517982878_);}
	.st37{opacity:0.4;fill:url(#SVGID_00000161596839288583859890000013898793622183439294_);}
	.st38{opacity:0.4;fill:url(#SVGID_00000018197432625614892530000015874801462711400615_);}
	.st39{opacity:0.4;fill:url(#SVGID_00000071547632935684127760000004769403889801817004_);}
	.st40{fill:url(#SVGID_00000008847157682576005720000003814504649276084392_);}
	.st41{fill:url(#SVGID_00000138565074576847551590000013586270015488813968_);}
	.st42{opacity:0.7;}
	.st43{fill:url(#SVGID_00000078007274754788650950000013863397445537647532_);}
	.st44{fill:#F8F1E9;}
	.st45{opacity:0.5;fill:#E4DCD5;}
	.st46{opacity:0.45;fill:#F8F5F3;}
	.st47{opacity:0.65;fill:#FFFFFF;}
	.st48{fill:#F3DB97;}
	.st49{fill:#E4C88B;}
	.st50{opacity:0.6;fill:#F8E3BA;}
	.st51{opacity:0.8;fill:#F8E3BA;}
	.st52{opacity:0.25;fill:#FFFFFF;}
	.st53{fill:#618828;}
	.st54{fill:#92A931;}
	.st55{fill:#809A2C;}
	.st56{opacity:0.6;fill:#92A931;}
	.st57{opacity:0.6;fill:#618828;}
	.st58{opacity:0.5;fill:#818D92;}
	.st59{fill:#E4F1F8;}
	.st60{fill:#CEDDE4;}
	.st61{fill:#B5CAD2;}
	.st62{opacity:0.5;fill:#CEDDE4;}
	.st63{fill:#F7F3EB;}
	.st64{opacity:0.5;fill:#F3D997;}
	.st65{fill:none;stroke:#60470F;stroke-miterlimit:10;}
	.st66{fill:none;stroke:#000000;stroke-miterlimit:10;}
	.st67{fill:#F3D997;}
	.st68{fill:#F4DC98;}
	.st69{opacity:0.7;fill:#F8E3BA;}
	.st70{opacity:0.35;fill:#FFFFFF;}
	.st71{clip-path:url(#SVGID_00000111186550599451647780000011296686503495724452_);}
	.st72{opacity:0.5;fill:#96A488;}
	.st73{fill:#F0F3EC;}
	.st74{fill:#E5E9E0;}
	.st75{fill:none;stroke:#FFFFFF;stroke-width:3;stroke-miterlimit:10;}
	.st76{fill:none;stroke:#FFFFFF;stroke-width:3;stroke-linecap:round;stroke-linejoin:round;stroke-miterlimit:10;}
	.st77{opacity:0.65;fill:url(#);}
	.st78{opacity:0.2;fill:#FFFFFF;}
	.st79{opacity:0.1;fill:#FFFFFF;}
	.st80{opacity:0.5;fill:#EDE1CA;}
	.st81{opacity:0.3;fill:#AF8056;}
	.st82{fill:#D1D6CC;}
	.st83{opacity:0.28;fill:#AF8056;}
	.st84{opacity:0.3;fill:#997552;enable-background:new    ;}
	.st85{fill:#E5C98C;}
	.st86{opacity:0.6;fill:#F9E4BB;enable-background:new    ;}
	.st87{opacity:0.8;fill:#F9E4BB;enable-background:new    ;}
	.st88{opacity:0.25;fill:#FFFFFF;enable-background:new    ;}
</style>
<g>
	<path class="st63" d="M810.6,546.81c1.55,38.27-14,66.6-20.17,77.5c-23.2,41.09-58.52,59.72-74.95,68.1
		c-22.31,11.39-45.93,15.73-93.2,24.37c-26.69,4.88-43.27,6.19-60.52,5.49c-17.25-0.7-30.79-3.21-44.11-5.73
		c-23.88-4.55-37.15-9.12-59-15.29c-47.01-13.22-48.45-9.69-70.79-17.08c-24.93-8.22-76.23-25.19-102.51-72.78
		c-5.81-10.53-20.97-41.71-14.49-77.68c0.23-1.29,0.46-2.57,0.77-3.87c2.42-10.87,5.99-18.08,12.15-30.62
		c3.47-7.05,18.62-36.83,52.17-70.07c21.49-21.27,34.85-34.48,57.7-44.39c8.8-3.84,10.63-3.52,63.01-15.42
		c48.05-10.9,47.95-11.48,55.16-11.7c24.44-0.69,31.06,5.9,73.47,12.8c25.21,4.09,33.28,3.42,47.56,5.43
		c44.02,6.14,100.24,30.83,138.54,78.96c12.12,15.27,33.89,42.64,38.46,82.41C810.23,540.33,810.49,543.53,810.6,546.81z"/>
	<path class="st45" d="M809.87,537.21c0.36,3.12,0.62,6.32,0.74,9.6c1.55,38.27-14,66.6-20.17,77.5
		c-23.2,41.09-58.52,59.72-74.95,68.1c-22.31,11.39-45.93,15.73-93.2,24.37c-26.69,4.88-43.27,6.19-60.52,5.49
		c-17.25-0.7-30.79-3.21-44.11-5.73c-23.88-4.55-37.15-9.12-59-15.29c-47.01-13.22-48.45-9.69-70.79-17.08
		c-24.93-8.22-76.23-25.19-102.51-72.78c-5.81-10.53-20.97-41.71-14.49-77.68c6.53,11.08,16.13,25.01,29.86,39.18
		c0,0,17.34,17.89,37.44,30.58c40.3,25.43,64.57,10.55,160.75,28.17c19.49,3.57,39.12,7.96,68.63,8.7
		c19.99,0.5,36.43-0.88,49.19-1.99c33.86-2.94,59.32-8.15,65.82-9.56c50.96-11,76.82-16.86,95.64-34.29
		C787.17,586.18,802.19,569.07,809.87,537.21z"/>
	<path class="st64" d="M409.4,470.81c-8.71,8.16-24.41,23.29-28.41,47.08c-2.41,14.35,0.64,25.88,2.09,32.39
		c4.91,21.97,19.32,41.03,37.15,54.77c17.83,13.74,38.95,22.6,60.4,29.44c23.32,7.43,47.35,12.64,71.65,15.53
		c27.53,3.28,55.91,3.51,82.44-4.53c14.03-4.25,46.92-16.66,63.68-49.92c13.66-27.1,8.92-53.52,6.73-65.69
		c-1.06-5.91-8.31-43.31-39.66-71.65c-43.92-39.7-103.64-33.18-149.7-28.15C490.72,432.83,443.85,438.53,409.4,470.81z"/>
	<path class="st46" d="M443.7,409.91c-33.72,13-66.57,39.42-69.93,75.4c-0.47,5.02-0.3,10.26,1.81,14.84
		c3.28,7.13,10.73,11.47,18.23,13.76c24.49,7.48,50.47-2.36,74.83-10.26c26.57-8.62,53.86-15.04,81.48-19.19
		c10.47-1.57,21.24-2.89,30.64-7.77c9.4-4.88,17.29-14.27,17.04-24.85c-0.17-7.34-4.14-14.06-8.76-19.77
		C555.35,390.38,488.85,392.51,443.7,409.91z"/>
	<path class="st45" d="M680.89,532c14.8-11.85,25.07-24.03,26.74-27.06c15.44-27.86,4.49-59.13,8.03-59.75
		c2.79-0.49,9.44,18.98,12.35,37.09c1.43,8.93,0.19,4.22,1.77,39.68c0.21,4.68,0.4,9.49-1.1,13.93
		c-3.21,9.47-13.13,14.79-22.5,18.27c-22.78,8.48-48.36,11.54-71.42,3.83c-2.9-0.97-6.26-4.37-3.95-6.37
		c0.52-0.45,1.22-0.64,1.89-0.81C651.44,546.03,665,544.72,680.89,532z"/>
	<path class="st47" d="M439.78,462.05c6.08,8,23.81,3.03,41.29-1.86c16.89-4.73,35.45-9.93,36.34-19.92
		c0.81-9.07-13.45-16.65-14.47-17.18c-13.79-7.14-28.48-1.9-37.94,1.48c-8.43,3.01-16.53,5.9-21.93,14.27
		C439.25,444.73,435.12,455.92,439.78,462.05z"/>
</g>
</svg>
