<?xml version="1.0" encoding="utf-8"?>
<!-- Generator: Adobe Illustrator 27.0.0, SVG Export Plug-In . SVG Version: 6.00 Build 0)  -->
<svg version="1.1" id="Layer_1" xmlns="http://www.w3.org/2000/svg" xmlns:xlink="http://www.w3.org/1999/xlink" x="0px" y="0px"
	 viewBox="0 0 1080 1080" style="enable-background:new 0 0 1080 1080;" xml:space="preserve">
<style type="text/css">
	.st0{fill:none;stroke:#000000;stroke-linecap:round;stroke-linejoin:round;stroke-miterlimit:10;}
	.st1{display:none;}
	.st2{display:inline;opacity:0.7;fill:#C35233;}
	.st3{fill:#FFFFFF;}
	.st4{fill:#E9D2A3;}
	.st5{fill:#DAA765;}
	.st6{fill:#D09E62;}
	.st7{fill:#CF602F;}
	.st8{fill:#C35233;}
	.st9{fill:#F3814A;}
	.st10{fill:#F38A62;}
	.st11{opacity:0.15;fill:#FFFFFF;}
	.st12{opacity:0.6;fill:#F18A4C;}
	.st13{opacity:0.7;fill:#C35233;}
	.st14{opacity:0.35;}
	.st15{opacity:0.37;fill:#DA7446;}
	.st16{opacity:0.4;fill:url(#SVGID_1_);}
	.st17{opacity:0.4;fill:url(#SVGID_00000068641587753831193260000017639856715895977361_);}
	.st18{opacity:0.4;fill:url(#SVGID_00000056401596926626557190000017734425219064297654_);}
	.st19{opacity:0.4;fill:url(#SVGID_00000170976256400197753540000014424620210865596312_);}
	.st20{opacity:0.4;fill:url(#SVGID_00000178885723445472643890000000008553483735888026_);}
	.st21{opacity:0.4;fill:url(#SVGID_00000023253234391259730430000002258516807064372154_);}
	.st22{opacity:0.4;fill:url(#SVGID_00000174589659942072504260000003582243376694515852_);}
	.st23{opacity:0.08;fill:#FFFFFF;}
	.st24{opacity:0.4;fill:url(#SVGID_00000124125144646333981810000011658493793201496474_);}
	.st25{opacity:0.4;fill:url(#SVGID_00000124877614472653716260000004996565340549342635_);}
	.st26{opacity:0.4;fill:url(#SVGID_00000033362855424247848230000018352245321625831580_);}
	.st27{opacity:0.4;fill:url(#SVGID_00000119801116044894096880000014415532826994311602_);}
	.st28{opacity:0.4;fill:url(#SVGID_00000143578697532264054080000015342840405876890791_);}
	.st29{opacity:0.4;fill:url(#SVGID_00000145031084632860305550000003254415129389333945_);}
	.st30{opacity:0.4;fill:url(#SVGID_00000011732423951621921820000014826809399510643641_);}
	.st31{opacity:0.4;fill:url(#SVGID_00000154395125925282658180000008103332127269707159_);}
	.st32{opacity:0.4;fill:url(#SVGID_00000018197692093242901630000006024891511323451813_);}
	.st33{opacity:0.4;}
	.st34{opacity:0.35;fill:url(#SVGID_00000168109008403630054050000001035034469785401508_);}
	.st35{opacity:0.35;fill:url(#SVGID_00000047773351229474807590000005290519876531635645_);}
	.st36{opacity:0.4;fill:url(#SVGID_00000150794329840689068570000003794221415025022100_);}
	.st37{opacity:0.4;fill:url(#SVGID_00000051352440749401472870000008722059026508928666_);}
	.st38{opacity:0.4;fill:url(#SVGID_00000048472406124153916820000017815465200407182260_);}
	.st39{opacity:0.4;fill:url(#SVGID_00000114071350513566527260000016220321299797245854_);}
	.st40{fill:url(#SVGID_00000042721362997203739100000007320166763199943568_);}
	.st41{fill:url(#SVGID_00000041293885973047922220000002582710936601646498_);}
	.st42{opacity:0.7;}
	.st43{fill:url(#SVGID_00000055695464872487607080000016778550316069234364_);}
	.st44{fill:#F8F1E9;}
	.st45{opacity:0.5;fill:#E4DCD5;}
	.st46{opacity:0.45;fill:#F8F5F3;}
	.st47{opacity:0.65;fill:#FFFFFF;}
	.st48{fill:#F3DB97;}
	.st49{fill:#E4C88B;}
	.st50{opacity:0.6;fill:#F8E3BA;}
	.st51{opacity:0.8;fill:#F8E3BA;}
	.st52{opacity:0.25;fill:#FFFFFF;}
	.st53{fill:#618828;}
	.st54{fill:#92A931;}
	.st55{fill:#809A2C;}
	.st56{opacity:0.6;fill:#92A931;}
	.st57{opacity:0.6;fill:#618828;}
	.st58{opacity:0.5;fill:#818D92;}
	.st59{fill:#E4F1F8;}
	.st60{fill:#CEDDE4;}
	.st61{fill:#B5CAD2;}
	.st62{opacity:0.5;fill:#CEDDE4;}
	.st63{fill:#F7F3EB;}
	.st64{opacity:0.5;fill:#F3D997;}
	.st65{fill:none;stroke:#60470F;stroke-miterlimit:10;}
	.st66{fill:none;stroke:#000000;stroke-miterlimit:10;}
	.st67{fill:#F3D997;}
	.st68{fill:#F4DC98;}
	.st69{opacity:0.7;fill:#F8E3BA;}
	.st70{opacity:0.35;fill:#FFFFFF;}
	.st71{clip-path:url(#SVGID_00000173155317112073371870000006835045946215112839_);}
	.st72{opacity:0.5;fill:#96A488;}
	.st73{fill:#F0F3EC;}
	.st74{fill:#E5E9E0;}
	.st75{fill:none;stroke:#FFFFFF;stroke-width:3;stroke-miterlimit:10;}
	.st76{fill:none;stroke:#FFFFFF;stroke-width:3;stroke-linecap:round;stroke-linejoin:round;stroke-miterlimit:10;}
	.st77{opacity:0.65;fill:url(#);}
	.st78{opacity:0.2;fill:#FFFFFF;}
	.st79{opacity:0.1;fill:#FFFFFF;}
	.st80{opacity:0.5;fill:#EDE1CA;}
	.st81{opacity:0.3;fill:#AF8056;}
	.st82{fill:#D1D6CC;}
	.st83{opacity:0.28;fill:#AF8056;}
	.st84{opacity:0.3;fill:#997552;enable-background:new    ;}
	.st85{fill:#E5C98C;}
	.st86{opacity:0.6;fill:#F9E4BB;enable-background:new    ;}
	.st87{opacity:0.8;fill:#F9E4BB;enable-background:new    ;}
	.st88{opacity:0.25;fill:#FFFFFF;enable-background:new    ;}
</style>
<g>
	<path class="st9" d="M217.6,560.13c-0.06,0.99-0.06,2.02,0,3.1c0.03,0.5,0.06,1.02,0.16,1.58c0.03,0.37,0.09,0.78,0.19,1.18
		c0.12,0.78,0.28,1.58,0.5,2.39c0.16,0.5,0.28,1.02,0.47,1.52c0.12,0.37,0.25,0.74,0.37,1.15c0.43,1.15,0.9,2.33,1.52,3.54
		c0.34,0.68,0.68,1.36,1.09,2.08c0.22,0.4,0.43,0.84,0.68,1.24c0.19,0.34,0.4,0.68,0.62,1.05c0.22,0.34,0.43,0.71,0.65,1.09
		c0.47,0.71,0.96,1.46,1.49,2.2c0.37,0.53,0.78,1.05,1.18,1.61c0.56,0.74,1.15,1.49,1.74,2.23c0.62,0.74,1.24,1.52,1.92,2.29
		c0,0,0,0.03,0.03,0.03c0.65,0.78,1.36,1.55,2.11,2.36c0.74,0.81,1.52,1.61,2.33,2.45c30.98,31.63,36.16,48.44,49.09,51.66
		c12.9,3.23,27.75,7.75,43.91,19.38c0.31,0.22,0.62,0.43,0.96,0.65c0.62,0.4,1.3,0.81,1.98,1.18c0.43,0.25,0.9,0.47,1.33,0.68
		c0.71,0.37,1.46,0.71,2.23,1.02c0.5,0.22,0.99,0.4,1.52,0.62c0,0,0.03,0,0.06,0.03c0.99,0.37,2.05,0.74,3.13,1.12
		c1.67,0.56,3.44,1.05,5.27,1.52c0.59,0.16,1.21,0.31,1.83,0.43c0.62,0.15,1.27,0.31,1.89,0.43c0.56,0.12,1.12,0.25,1.67,0.34
		c0.03,0,0.06,0,0.09,0.03c0.84,0.15,1.67,0.31,2.54,0.47c0.31,0.06,0.59,0.12,0.9,0.15c1.49,0.25,2.98,0.47,4.5,0.68
		c0.87,0.12,1.77,0.22,2.64,0.34h0.12c0.96,0.12,1.92,0.22,2.88,0.31c1.36,0.12,2.7,0.25,4.06,0.34c1.05,0.06,2.11,0.12,3.19,0.19
		c1.18,0.06,2.36,0.09,3.57,0.12c0.99,0.03,2.02,0.06,3.01,0.06h2.39c9.95-0.06,18.88-1.18,24.56-3.29c0.34-0.12,0.62-0.25,0.93-0.4
		c0.03,0.03,0.03,0,0.03,0c0.09,0,0.15-0.03,0.22-0.09c0.28-0.12,0.56-0.25,0.84-0.37c-3.16-10.05-9.8-25.12-15.38-36.99
		c-0.4-0.84-0.78-1.67-1.18-2.48c-0.03-0.03-0.03-0.03-0.03-0.06c-1.61-3.41-3.1-6.48-4.34-8.99c-0.53-0.99-0.99-1.92-1.4-2.73
		c-0.06-0.12-0.12-0.25-0.19-0.37c-0.31-0.62-0.59-1.15-0.84-1.61c-0.37-0.71-0.65-1.24-0.87-1.61c-0.37-0.62-0.53-1.55-0.53-2.73
		c0-0.87,0.09-1.89,0.28-3.01c0-0.03,0.03-0.06,0.03-0.12c0.16-1.09,0.4-2.26,0.74-3.5c0.03-0.09,0.06-0.22,0.09-0.34
		c0,0-0.06-0.06-0.22-0.16c0,0,0,0-0.03,0c-0.12-0.09-0.28-0.22-0.47-0.37c-0.56-0.37-1.43-0.99-2.6-1.77
		c-1.43-0.96-3.29-2.17-5.46-3.5c-0.37-0.22-0.71-0.43-1.09-0.65c-0.19-0.16-0.4-0.28-0.62-0.37c-1.12-0.68-2.29-1.36-3.54-2.05
		c-1.02-0.56-2.05-1.12-3.1-1.64c-0.87-0.47-1.77-0.9-2.67-1.33c-0.03-0.03-0.06-0.06-0.09-0.06s-0.09-0.03-0.16-0.06
		c-0.03,0-0.03,0-0.06-0.03h-0.03c-0.03-0.03-0.06-0.03-0.09-0.06c-0.99-0.47-1.98-0.93-3.01-1.36c-0.74-0.34-1.52-0.65-2.26-0.96
		c-1.8-0.74-3.6-1.36-5.36-1.92c-0.62-0.19-1.24-0.4-1.8-0.65c-0.43-0.22-0.84-0.4-1.21-0.62c-0.31-0.16-0.62-0.34-0.9-0.53
		c-0.03,0-0.06-0.03-0.09-0.06c-0.43-0.25-0.84-0.53-1.21-0.84c-0.53-0.37-1.02-0.81-1.52-1.24c-0.62-0.56-1.21-1.18-1.8-1.83
		c-0.5-0.56-0.99-1.18-1.49-1.8c-0.09-0.12-0.22-0.28-0.31-0.43c-0.4-0.56-0.81-1.12-1.15-1.71c-0.12-0.16-0.22-0.31-0.31-0.5
		c-0.37-0.59-0.74-1.21-1.09-1.86c-0.03-0.09-0.09-0.22-0.15-0.31c-0.06-0.12-0.16-0.25-0.22-0.4c-0.34-0.62-0.65-1.27-0.96-1.92
		c0-0.06-0.03-0.09-0.06-0.15c0-0.06-0.03-0.09-0.06-0.12c-0.34-0.81-0.71-1.61-1.02-2.45c-0.28-0.71-0.56-1.4-0.81-2.08
		c-0.37-1.05-0.71-2.08-1.02-3.1c0-0.03,0-0.03,0-0.06c-0.22-0.71-0.43-1.4-0.59-2.08c-0.19-0.68-0.37-1.36-0.53-2.05
		c-0.16-0.62-0.28-1.21-0.4-1.83c-0.09-0.47-0.19-0.96-0.28-1.43c-0.09-0.47-0.19-0.93-0.25-1.4c-0.09-0.43-0.15-0.9-0.22-1.33
		c-0.09-0.43-0.12-0.87-0.19-1.27c-0.06-0.5-0.12-0.96-0.19-1.43c-0.06-0.68-0.12-1.33-0.16-1.92c-0.03-0.71-0.06-1.4-0.06-1.98
		c0-9.05,23.91-40.68,44.56-70.42c0.93-1.33,1.83-2.6,2.76-3.85c3.5-4.9,6.95-9.21,10.23-13.02c0.59-0.68,1.18-1.36,1.77-2.02
		c0.56-0.65,1.15-1.3,1.71-1.92c1.52-1.67,3.01-3.23,4.47-4.68c0.47-0.5,0.96-0.96,1.43-1.43c0.47-0.47,0.96-0.93,1.43-1.36
		c0.31-0.31,0.62-0.62,0.93-0.9c0.5-0.47,1.02-0.96,1.55-1.43c2.57-2.36,5.02-4.37,7.32-6.17c0.65-0.5,1.27-0.96,1.89-1.43
		c0.78-0.59,1.55-1.18,2.33-1.71c0.37-0.28,0.74-0.53,1.09-0.78c0.4-0.28,0.84-0.56,1.24-0.84c0.25-0.19,0.5-0.34,0.74-0.5
		c0.16-0.12,0.28-0.22,0.43-0.34c0.09-0.03,0.22-0.12,0.34-0.19c2.26-1.49,4.31-2.79,6.17-3.94c1.09-0.68,2.42-1.43,3.97-2.23
		c0.53-0.25,1.05-0.53,1.61-0.81c0.56-0.28,1.15-0.56,1.77-0.87c0.19-0.09,0.37-0.19,0.59-0.28c0.53-0.25,1.05-0.5,1.61-0.78
		c0.56-0.25,1.15-0.53,1.74-0.81c0.34-0.15,0.68-0.31,1.05-0.5c0.34-0.15,0.71-0.34,1.09-0.5v-0.03h0.03
		c0.71-0.34,1.46-0.68,2.23-1.05c0.81-0.37,1.58-0.74,2.39-1.12c1.61-0.74,3.32-1.55,5.09-2.42c0.87-0.4,1.77-0.84,2.7-1.3
		c0.9-0.43,1.83-0.9,2.79-1.36c0.93-0.47,1.89-0.93,2.88-1.43c0.96-0.47,1.95-0.96,2.95-1.49c2.39-1.21,4.87-2.51,7.38-3.88v-0.03
		c0.19-0.06,0.34-0.16,0.53-0.25c0.56-0.31,1.09-0.59,1.64-0.9c1.27-0.71,2.57-1.43,3.88-2.2c0.4-0.22,0.81-0.43,1.21-0.68
		c0.28-0.16,0.56-0.31,0.84-0.5c2.17-1.21,4.34-2.51,6.57-3.91c1.3-0.78,2.73-1.67,4.22-2.6c0.15-0.09,0.28-0.19,0.43-0.28
		c1.15-0.78,2.36-1.52,3.54-2.29c0.22-0.12,0.4-0.25,0.59-0.37c0.06-0.03,0.16-0.09,0.22-0.15l0.09-0.09
		c0.09-0.06,0.22-0.12,0.31-0.19c3.19-2.11,6.39-4.34,9.64-6.7c-0.16-0.03-0.28-0.06-0.43-0.09c-0.34-0.06-0.71-0.12-1.05-0.22
		c-0.22-0.03-0.43-0.09-0.65-0.12c-0.25-0.03-0.5-0.09-0.74-0.12l-0.56-0.09c-0.06-0.03-0.16-0.06-0.25-0.06
		c-0.9-0.16-1.92-0.34-3.07-0.5c-0.71-0.09-1.49-0.22-2.26-0.31c-0.12-0.03-0.25-0.03-0.37-0.06c-0.74-0.06-1.55-0.15-2.36-0.25
		c-2.95-0.28-6.26-0.5-9.67-0.47h-0.22c-0.5,0-1.02,0-1.52,0.03c-1.58,0.06-3.16,0.16-4.78,0.31c-0.19,0-0.34,0.03-0.53,0.06
		c-0.06,0-0.15,0.03-0.22,0.03c-0.47,0.06-0.9,0.09-1.4,0.19c-0.47,0.06-0.87,0.16-1.3,0.22c-0.53,0.09-1.02,0.19-1.49,0.28
		c-0.28,0.06-0.53,0.12-0.81,0.19c-0.4,0.09-0.78,0.19-1.18,0.28c-0.56,0.12-1.02,0.25-1.46,0.37c-0.47,0.12-0.87,0.25-1.18,0.34
		c-1.8,0.59-4,1.12-6.57,1.55c-0.16,0.03-0.28,0.06-0.43,0.09c-0.06,0-0.16,0-0.25,0.03c-5.67,0.9-12.9,1.49-20.53,1.86
		c-1.36,0.06-2.76,0.12-4.16,0.19c-2.91,0.12-5.86,0.22-8.78,0.28h-0.37c-2.08,0.03-4.16,0.09-6.17,0.12
		c-0.99,0.03-1.98,0.03-2.98,0.03c-1.46,0.03-2.88,0.03-4.28,0.06c-1.43,0.03-2.79,0.03-4.09,0.03h-0.19
		c-1.77,0-3.47,0.03-5.05,0.03c-0.56,0-1.12,0.03-1.64,0.03c-3.04,0.06-5.3,0.09-7.04,0.12c-0.68,0.03-1.3,0.06-1.83,0.06
		c-0.19,0-0.37,0.03-0.56,0.03c-3.85,0.22-19.57,3.91-38.67,9.83c-1.92,0.59-3.88,1.21-5.86,1.86c-17.33,5.61-36.62,12.9-52.1,21.09
		c-0.62,0.31-1.21,0.65-1.8,0.96c-1.58,0.87-3.13,1.74-4.62,2.6c-0.9,0.56-1.8,1.09-2.67,1.64c-8,4.99-14.3,10.26-17.64,15.63
		c0,0-1.95,10.33-2.57,18.73c-0.06,0.68-0.19,1.3-0.37,1.89c-0.09,0.31-0.22,0.59-0.34,0.87c-0.09,0.25-0.22,0.5-0.37,0.74
		c-0.09,0.19-0.22,0.4-0.37,0.59c-1.05,1.58-2.6,2.95-4.34,4.16c-0.43,0.34-0.87,0.65-1.3,0.93c-1.02,0.71-2.05,1.4-3.04,2.08
		c-1.74,1.18-3.38,2.45-4.59,3.94c-0.25,0.28-0.5,0.59-0.68,0.93c-0.03,0.03-0.06,0.03-0.03,0.06c-0.28,0.4-0.53,0.81-0.71,1.24
		c-3.23,7.1-9.05,45.21-15.5,52.96c-1.05,1.27-2.48,2.76-3.94,4.47c-0.5,0.56-0.99,1.12-1.49,1.74c-0.31,0.4-0.65,0.84-0.96,1.27
		c-0.34,0.43-0.65,0.9-0.96,1.36c-0.28,0.37-0.53,0.78-0.78,1.21c-0.9,1.46-1.71,3.01-2.33,4.71c-0.16,0.4-0.28,0.78-0.4,1.18
		c-0.03,0.12-0.06,0.25-0.12,0.37c-0.12,0.53-0.28,1.05-0.37,1.58c-0.12,0.56-0.25,1.15-0.31,1.74
		C217.72,559.07,217.66,559.6,217.6,560.13z"/>
	<path class="st7" d="M336.09,608.91c15.04,17.01,19.11,13.04,30.79,29.23c5.7,7.9,9.05,14.83,17.99,22.13
		c7.47,6.09,15.03,9.34,20.38,11.15c-4.88-12.53-9.77-25.06-14.65-37.59c-4.16-8.84-7.72-15.94-8.84-17.86
		c-0.93-1.61-0.56-5.21,0.62-9.71c0,0-16-11.78-30.85-16.31c-14.85-4.5-20.03-30.36-20.03-39.38c0-9.05,23.91-40.68,44.56-70.42
		c20.68-29.71,37.46-40.03,47.82-46.48c5.83-3.66,18.51-8.78,34.48-16.96c-16.62,1.55-40.37,6.29-64.07,20.47
		c-13.09,7.81-21.95,15.97-24.96,18.85c-10.12,9.7-10.66,13.17-26.2,34.11c-21.21,28.58-30.6,36.02-32.7,54.34
		c-0.12,1.08-0.55,5.02-0.28,10.32C311.45,580.55,327.04,598.68,336.09,608.91z"/>
	<path class="st8" d="M323.39,549.08c-2.89,14.94,3.48,31.73,12.9,41.91c8.95,9.68,15.75,8.08,29.01,21.92
		c5.36,5.59,6.19,7.87,14.45,18.49c8.78,11.29,16.53,19.89,21.66,25.35c-0.23-13.76-0.94-32.36-2.97-54.36
		c-0.26-2.85-1.58-16.88-3.47-30.51c-2.69-19.34-8.2-49.6-20.48-88.84c-4.68,5.96-11.8,14.85-20.79,25.41
		C331.08,535.05,325.47,538.34,323.39,549.08z"/>
	<path class="st9" d="M686.1,425.92l-3.07,1.83c-14.76,4.34-38.98,11.01-60.69,16.74c-19.01,5.06-36.09,9.37-43.01,10.76
		c-17.7,3.57-36.12,26.92-41.8,29.74c-5.64,2.85-23.35,8.5-41.06,8.5c-17.7,0-24.77,23.38-24.77,23.38
		c-4.5-0.28-9.58-0.12-14.27,0.34c-7.84,0.74-14.57,2.42-15.47,4.62c-1.43,3.54-36.81,46.73-45.31,55.91
		c-5.73,6.23-11.81,19.23-14.26,28.53c0,0-9.05-6.67-19.88-11.91c-0.12-0.06-0.21-0.09-0.34-0.15c-0.99-0.47-1.98-0.93-3.01-1.37
		c-0.74-0.34-1.52-0.65-2.26-0.96c-1.8-0.74-3.6-1.36-5.37-1.92c-0.62-0.19-1.24-0.41-1.8-0.65c-0.43-0.22-0.83-0.41-1.2-0.62
		c-0.31-0.16-0.62-0.35-0.9-0.53c-0.03,0-0.07-0.03-0.1-0.06c-0.43-0.25-0.83-0.53-1.21-0.84c-0.52-0.37-1.02-0.81-1.52-1.24
		c-0.62-0.56-1.2-1.18-1.79-1.83c-0.5-0.56-1-1.18-1.49-1.8c-1.12-1.49-2.11-3.1-3.01-4.81c-0.43-0.8-0.84-1.64-1.24-2.48
		c0-0.06-0.03-0.09-0.06-0.12c-0.34-0.81-0.72-1.61-1.03-2.45c-0.28-0.68-0.55-1.4-0.8-2.08c-0.37-1.05-0.72-2.11-1.03-3.16
		c-0.21-0.71-0.43-1.4-0.58-2.08c-0.19-0.68-0.38-1.36-0.53-2.04c-0.16-0.63-0.28-1.21-0.4-1.83c-0.1-0.47-0.19-0.97-0.28-1.43
		c-0.1-0.47-0.19-0.93-0.25-1.4c-0.1-0.43-0.16-0.9-0.22-1.33c-0.09-0.43-0.12-0.87-0.19-1.27c-0.06-0.5-0.12-0.96-0.18-1.43
		c-0.06-0.68-0.13-1.33-0.16-1.92c-0.03-0.71-0.06-1.4-0.06-1.98c0-9.06,23.91-40.69,44.56-70.43c0.93-1.33,1.83-2.6,2.76-3.84
		c3.51-4.9,6.95-9.21,10.24-13.03c0.58-0.68,1.17-1.36,1.76-2.01c0.56-0.65,1.15-1.3,1.71-1.92c1.52-1.68,3.01-3.23,4.46-4.69
		c0.47-0.49,0.97-0.96,1.43-1.42c0.47-0.47,0.96-0.93,1.43-1.37c0.31-0.31,0.62-0.62,0.93-0.9c0.49-0.46,1.02-0.96,1.55-1.42
		c2.57-2.36,5.02-4.38,7.32-6.18c0.65-0.49,1.27-0.96,1.89-1.42c0.77-0.59,1.55-1.18,2.32-1.71c0.37-0.28,0.75-0.52,1.09-0.77
		c0.4-0.28,0.84-0.56,1.24-0.84c0.25-0.19,0.5-0.34,0.74-0.5c0.16-0.12,0.28-0.21,0.44-0.34c0.09-0.03,0.21-0.12,0.34-0.18
		c2.26-1.49,4.31-2.79,6.17-3.94c1.08-0.68,2.42-1.43,3.97-2.23c0.53-0.25,1.05-0.53,1.61-0.81c0.56-0.28,1.15-0.56,1.77-0.87
		c0.18-0.09,0.37-0.18,0.59-0.28c0.52-0.25,1.05-0.49,1.61-0.77c0.56-0.25,1.15-0.53,1.74-0.81c1.39-0.65,2.85-1.33,4.4-2.08
		c0.78-0.34,1.55-0.71,2.39-1.11c1.61-0.75,3.32-1.55,5.08-2.42c0.87-0.4,1.77-0.84,2.7-1.3c0.9-0.44,1.83-0.9,2.79-1.37
		c0.93-0.43,1.92-0.93,2.89-1.42c0.96-0.47,1.95-0.97,2.94-1.49c2.39-1.21,4.87-2.51,7.38-3.88c0.19-0.09,0.34-0.19,0.53-0.28
		c0.56-0.31,1.08-0.59,1.64-0.9c1.27-0.71,2.58-1.42,3.88-2.2c0.4-0.22,0.81-0.43,1.21-0.68c0.28-0.16,0.56-0.31,0.84-0.5
		c2.17-1.21,4.34-2.51,6.57-3.91c0.93-0.55,1.89-1.14,2.85-1.73c0.44-0.28,0.9-0.56,1.37-0.87c0.15-0.09,0.28-0.19,0.43-0.28
		c1.18-0.71,2.36-1.49,3.54-2.29c0.21-0.13,0.4-0.25,0.59-0.38c0.21-0.12,0.43-0.27,0.62-0.43c3.19-2.11,6.38-4.34,9.64-6.7
		c8.09-5.92,15.97-10.23,23.47-13.33h0.03c0.07,0,0.1-0.03,0.16-0.06c0.62-0.25,1.24-0.5,1.83-0.72c0.09-0.03,0.19-0.06,0.25-0.09
		c3.63-1.36,7.13-2.45,10.51-3.29c0.78-0.21,1.55-0.4,2.29-0.56c16.81-3.75,30.58-1.67,38.95,0.62c0,0,33.31-2.45,51.66,9.03
		c2.55,1.61,4.78,3.1,6.02,3.91c0.06,0.06,0.12,0.12,0.19,0.15c0.55,0.37,0.86,0.59,0.86,0.59c9.93,6.88,12.87,10.61,22.08,16.5
		c2.05,1.3,2.83,1.73,3.76,2.23c0.03,0,0.03,0.03,0.06,0.03c0,0,0,0,0.01,0.01C670.72,410.55,686.1,425.92,686.1,425.92z"/>
	<path class="st10" d="M651.9,400.41c-36.37-14.81-66.28-13.89-81.81-12.19c-30.66,3.36-50.56,14.71-88.45,36.33
		c-36.95,21.08-55.42,31.62-64.09,52.7c-3.17,7.7-5.53,17.99-15.28,29.44c-8.84,10.38-13.49,9.66-25.17,22.24
		c-8.54,9.19-16.07,17.51-18.02,30.26c-1.72,11.24,1.77,20.24,3.06,23.46c5.5,13.69,15.76,20.78,19.59,23.16
		c-13.1-7.99-18.25-10.94-19.22-11.43c-0.12-0.06-0.21-0.09-0.34-0.15c-0.99-0.47-1.98-0.93-3.01-1.37
		c-0.74-0.34-1.52-0.65-2.26-0.96c-1.8-0.74-3.6-1.36-5.37-1.92c-0.62-0.19-1.24-0.41-1.8-0.65c-0.43-0.22-0.83-0.41-1.2-0.62
		c-0.31-0.16-0.62-0.35-0.9-0.53c-0.03,0-0.07-0.03-0.1-0.06c-0.43-0.25-0.83-0.53-1.21-0.84c-0.52-0.37-1.02-0.81-1.52-1.24
		c-0.62-0.56-1.2-1.18-1.79-1.83c-0.5-0.56-1-1.18-1.49-1.8c-1.12-1.49-2.11-3.1-3.01-4.81c-0.43-0.8-0.84-1.64-1.24-2.48
		c0-0.06-0.03-0.09-0.06-0.12c-0.34-0.81-0.72-1.61-1.03-2.45c-0.28-0.68-0.55-1.4-0.8-2.08c-0.37-1.05-0.72-2.11-1.03-3.16
		c-0.21-0.71-0.43-1.4-0.58-2.08c-0.19-0.68-0.38-1.36-0.53-2.04c-0.16-0.63-0.28-1.21-0.4-1.83c-0.1-0.47-0.19-0.97-0.28-1.43
		c-0.1-0.47-0.19-0.93-0.25-1.4c-0.1-0.43-0.16-0.9-0.22-1.33c-0.09-0.43-0.12-0.87-0.19-1.27c-0.06-0.5-0.12-0.96-0.18-1.43
		c-0.06-0.68-0.13-1.33-0.16-1.92c-0.03-0.71-0.06-1.4-0.06-1.98c0-9.06,23.91-40.69,44.56-70.43c0.93-1.33,1.83-2.6,2.76-3.84
		c3.51-4.9,6.95-9.21,10.24-13.03c0.58-0.68,1.17-1.36,1.76-2.01c0.56-0.65,1.15-1.3,1.71-1.92c1.52-1.68,3.01-3.23,4.46-4.69
		c0.47-0.49,0.97-0.96,1.43-1.42c0.47-0.47,0.96-0.93,1.43-1.37c0.31-0.31,0.62-0.62,0.93-0.9c0.49-0.46,1.02-0.96,1.55-1.42
		c2.57-2.36,5.02-4.38,7.32-6.18c0.65-0.49,1.27-0.96,1.89-1.42c0.77-0.59,1.55-1.18,2.32-1.71c0.37-0.28,0.75-0.52,1.09-0.77
		c0.4-0.28,0.84-0.56,1.24-0.84c0.25-0.19,0.5-0.34,0.74-0.5c0.16-0.12,0.28-0.21,0.44-0.34c0.09-0.03,0.21-0.12,0.34-0.18
		c2.26-1.49,4.31-2.79,6.17-3.94c1.08-0.68,2.42-1.43,3.97-2.23c0.53-0.25,1.05-0.53,1.61-0.81c0.56-0.28,1.15-0.56,1.77-0.87
		c0.18-0.09,0.37-0.18,0.59-0.28c0.52-0.25,1.05-0.49,1.61-0.77c0.56-0.25,1.15-0.53,1.74-0.81c1.39-0.65,2.85-1.33,4.4-2.08
		c0.78-0.34,1.55-0.71,2.39-1.11c1.61-0.75,3.32-1.55,5.08-2.42c0.87-0.4,1.77-0.84,2.7-1.3c0.9-0.44,1.83-0.9,2.79-1.37
		c0.93-0.43,1.92-0.93,2.89-1.42c0.96-0.47,1.95-0.97,2.94-1.49c2.39-1.21,4.87-2.51,7.38-3.88c0.19-0.09,0.34-0.19,0.53-0.28
		c0.56-0.31,1.08-0.59,1.64-0.9c1.27-0.71,2.58-1.42,3.88-2.2c0.4-0.22,0.81-0.43,1.21-0.68c0.28-0.16,0.56-0.31,0.84-0.5
		c2.17-1.21,4.34-2.51,6.57-3.91c0.93-0.55,1.89-1.14,2.85-1.73c0.44-0.28,0.9-0.56,1.37-0.87c0.15-0.09,0.28-0.19,0.43-0.28
		c1.18-0.71,2.36-1.49,3.54-2.29c0.21-0.13,0.4-0.25,0.59-0.38c0.21-0.12,0.43-0.27,0.62-0.43c3.19-2.11,6.38-4.34,9.64-6.7
		c8.09-5.92,15.97-10.23,23.47-13.33h0.03c0.07,0,0.1-0.03,0.16-0.06c0.62-0.25,1.24-0.5,1.83-0.72c0.09-0.03,0.19-0.06,0.25-0.09
		c3.63-1.36,7.13-2.45,10.51-3.29c0.78-0.21,1.55-0.4,2.29-0.56c16.81-3.75,30.58-1.67,38.95,0.62c0,0,33.31-2.45,51.66,9.03
		c2.55,1.61,4.78,3.1,6.02,3.91c0.06,0.06,0.12,0.12,0.19,0.15c0.55,0.37,0.86,0.59,0.86,0.59
		C643.16,393.12,646.67,396.52,651.9,400.41z"/>
	<path class="st7" d="M381.24,613.25c-2.59-5.96-6.91-18.18-5.34-33.74c0.38-3.8,2.62-22.63,17.25-38.52
		c2.36-2.57,4.74-4.72,17.27-13.33c22.4-15.38,34.83-22.25,51.38-33.25c21.52-14.3,16.86-13.56,28.36-20.26
		c19.93-11.62,31.21-12.28,71.32-24.31c34.77-10.43,31.03-11.36,47.81-15.4c28.53-6.86,53.97-7.69,73.73-6.7
		c-75.52,56.21-160.24,111.08-254.86,161.36C412.44,597.47,396.79,605.51,381.24,613.25z"/>
	<path class="st78" d="M459.44,462.57c5.29,2.09,9.86,5.61,14.61,8.73c10,6.56,21.1,11.44,32.7,14.39
		c-4.05-8.41-14.24-11.32-22.6-15.48c-4.24-2.11-8.22-4.73-12.5-6.78c-11.68-5.59-29.04-8.96-41.85-7.06
		C438.55,461.67,450.07,458.87,459.44,462.57z"/>
	<path class="st78" d="M412.9,524.12c-1.94-1.84-0.87-1.87-3.63-5.2c-6.17-7.46-12.18-8.04-22.32-16.42
		c-3.82-3.15-5.73-4.73-5.57-5.86c0.8-5.94,26.27-3.2,61.64-11.99c3.36-0.84,7.86-2.03,13.96-1.67c16.69,1.01,29.4,12.77,28.11,15
		c-1.81,3.15-30.29-14.49-51.15-4.62c-3.36,1.59-6,3.64-11.84,5.2c-12.55,3.35-22.92-0.12-23.57,1.79
		c-0.43,1.28,4.33,2.29,10.28,7.96c3.53,3.37,3.92,4.99,7.81,8.08c3.26,2.59,6.22,4.03,7.65,4.71c11.36,5.42,21.83,3.69,21.88,4.6
		C446.22,527.09,423.02,533.71,412.9,524.12z"/>
	<path class="st8" d="M387.2,566.53c6.6-12.29,15.83-19.54,21.48-23.98c11.14-8.76,12.56-5.88,27.99-16.15
		c16.15-10.74,18.7-16.62,31.44-20.99c8.71-2.99,15.64-3.03,19.13-3.19c14.14-0.68,35.7-6.58,68.17-29.68
		c-52.93,34.86-106.13,74.58-158.54,119.91c-5.68,4.91-11.28,9.83-16.82,14.77C379.06,598.76,378.53,582.66,387.2,566.53z"/>
	<path class="st9" d="M860.1,535c-0.31-1.71-0.68-3.22-1.05-4.59c-0.15-0.53-0.28-1.02-0.43-1.52c0,0-0.4-1.28-0.89-2.53
		c-1.03-2.62-4.82-8.52-6.88-13.36c-1.98-4.65-2.12-4.84-3.48-10.56c-3.54-14.88-20.53-2.85-20.53-2.85
		c2.85-9.9,3.54-28.31,0.71-32.56c-2.82-4.25-12.74-9.21-15.56-9.93c-0.61-0.15-1.28-1.14-2.09-2.68c-0.68-1.29-1.47-2.97-2.4-4.89
		c-0.16-0.33-0.33-0.67-0.5-1.02c-0.46-0.93-0.96-1.9-1.5-2.9c-0.43-0.82-0.89-1.66-1.39-2.51c-0.04-0.06-0.07-0.12-0.11-0.19
		c-0.12-0.2-0.24-0.4-0.35-0.6c-0.12-0.19-0.24-0.38-0.35-0.58c-0.09-0.15-0.19-0.3-0.28-0.46c-0.46-0.75-0.95-1.51-1.47-2.25
		c-0.03-0.04-0.06-0.07-0.08-0.11c-0.03-0.06-0.06-0.11-0.1-0.16c-0.03-0.05-0.06-0.09-0.09-0.13c-0.25-0.35-0.5-0.69-0.76-1.04
		v-0.01c-0.3-0.39-0.59-0.78-0.89-1.17c-0.04-0.04-0.07-0.09-0.11-0.14c-0.06-0.08-0.13-0.16-0.2-0.25
		c-0.28-0.34-0.56-0.68-0.84-1.02c-0.01-0.01-0.03-0.02-0.04-0.04c-0.34-0.39-0.69-0.79-1.03-1.17c-0.03-0.03-0.05-0.05-0.07-0.07
		c-0.1-0.11-0.21-0.23-0.31-0.34c-0.09-0.09-0.18-0.19-0.28-0.28c-0.09-0.11-0.19-0.21-0.3-0.32c-0.1-0.1-0.2-0.2-0.3-0.29
		c-0.2-0.2-0.41-0.4-0.61-0.6v-0.01c-0.15-0.14-0.3-0.28-0.45-0.4c-0.06-0.06-0.13-0.11-0.19-0.17c-0.18-0.16-0.36-0.33-0.55-0.49
		c-0.19-0.17-0.37-0.33-0.57-0.49c-0.02-0.01-0.04-0.03-0.06-0.05c-0.03-0.03-0.06-0.05-0.09-0.07c-0.09-0.08-0.18-0.15-0.28-0.23
		c-0.28-0.22-0.57-0.45-0.86-0.67c-0.1-0.07-0.2-0.15-0.3-0.22c-0.05-0.04-0.09-0.07-0.14-0.1c-0.12-0.09-0.25-0.18-0.38-0.27
		c-0.3-0.22-0.61-0.43-0.92-0.63c-14.18-9.21-84.98-12.03-99.15-7.07c-0.19,0.07-0.4,0.14-0.61,0.22c-0.1,0.03-0.21,0.07-0.32,0.1
		v0.01c0,0,0,0-0.01,0c-0.17,0.05-0.35,0.11-0.53,0.17c-1.28,0.42-2.89,0.92-4.77,1.5c-1.62,0.49-3.44,1.04-5.45,1.63
		c-27.68,8.12-88.87,24.53-103.68,27.5c-17.71,3.57-36.13,26.92-41.82,29.74c-0.09,0.04-0.18,0.09-0.27,0.14
		c-0.09,0.04-0.19,0.08-0.28,0.13v0.01h-0.01c-0.2,0.09-0.41,0.18-0.63,0.28v0.01c0,0,0,0-0.01,0c-0.31,0.14-0.64,0.28-1,0.43
		c-0.15,0.06-0.29,0.12-0.45,0.18v0.01c0,0,0,0-0.01,0c-0.36,0.14-0.75,0.29-1.15,0.45c-0.18,0.07-0.36,0.14-0.55,0.2v0.01
		c0,0,0,0-0.01,0c-0.3,0.11-0.61,0.22-0.93,0.33v0.01c0,0,0,0-0.01,0c-0.32,0.11-0.65,0.23-0.99,0.35
		c-0.34,0.11-0.69,0.22-1.04,0.34c-0.31,0.1-0.61,0.2-0.93,0.3c-0.32,0.1-0.64,0.2-0.97,0.3c-0.23,0.07-0.47,0.14-0.71,0.22
		c-0.96,0.28-1.97,0.57-3.02,0.85c-0.23,0.06-0.46,0.12-0.69,0.18c-0.65,0.17-1.32,0.34-2,0.51c-7.41,1.81-16.4,3.26-25.39,3.26
		c-2.49,0-4.77,0.46-6.85,1.26c-0.23,0.09-0.46,0.18-0.68,0.27c0,0,0,0-0.01,0c-0.22,0.1-0.44,0.2-0.66,0.3h-0.01
		c-0.22,0.11-0.43,0.22-0.64,0.33h-0.02c-0.21,0.11-0.42,0.22-0.63,0.34s-0.42,0.24-0.62,0.37c0-0.01-0.01,0-0.01,0
		c-0.21,0.13-0.41,0.26-0.61,0.38c-0.2,0.13-0.4,0.27-0.59,0.4c-0.6,0.41-1.17,0.85-1.72,1.31c-0.19,0.16-0.37,0.31-0.54,0.46
		c-0.18,0.16-0.35,0.32-0.52,0.48c-0.18,0.15-0.35,0.31-0.52,0.49c-0.16,0.16-0.33,0.33-0.5,0.5c-0.16,0.16-0.32,0.33-0.48,0.51
		c-0.06,0.06-0.11,0.13-0.17,0.19c-0.42,0.45-0.82,0.91-1.21,1.38c-0.06,0.08-0.12,0.15-0.18,0.23c-0.23,0.28-0.45,0.56-0.66,0.84
		c-0.1,0.13-0.19,0.26-0.29,0.39c-0.24,0.33-0.48,0.66-0.71,0.99c-0.05,0.06-0.09,0.12-0.13,0.19c-0.57,0.83-1.1,1.67-1.58,2.48
		c-0.47,0.8-0.9,1.59-1.29,2.34c-0.2,0.39-0.39,0.77-0.57,1.14c-0.28,0.56-0.52,1.09-0.74,1.59c-0.21,0.48-0.4,0.92-0.57,1.33
		c-0.06,0.12-0.11,0.25-0.15,0.37c-0.07,0.18-0.13,0.35-0.2,0.51c-0.09,0.25-0.18,0.48-0.26,0.69c-0.01,0.02-0.02,0.03-0.02,0.05
		c-0.16,0.44-0.27,0.78-0.35,1c-0.01,0.03-0.02,0.05-0.02,0.07c-0.04,0.13-0.06,0.2-0.06,0.2h-0.01c-0.41-0.03-0.82-0.05-1.23-0.06
		c-0.71-0.04-1.42-0.06-2.15-0.07c-3.57-0.05-7.34,0.12-10.88,0.47c-0.49,0.05-0.98,0.1-1.46,0.15c-0.71,0.08-1.42,0.17-2.11,0.27
		c0,0,0,0-0.01,0c-0.45,0.06-0.9,0.13-1.35,0.2c-0.67,0.11-1.32,0.22-1.95,0.34c-0.42,0.08-0.83,0.17-1.22,0.25
		c-0.4,0.09-0.79,0.18-1.16,0.27c-0.18,0.05-0.37,0.1-0.55,0.14c-0.9,0.24-1.72,0.5-2.44,0.77c-0.28,0.11-0.56,0.22-0.81,0.33
		c-0.13,0.06-0.25,0.12-0.37,0.18c-0.24,0.11-0.46,0.23-0.66,0.36c-0.71,0.42-1.18,0.88-1.38,1.36c-0.11,0.28-0.43,0.8-0.93,1.52
		c-0.2,0.29-0.42,0.61-0.68,0.97c-0.12,0.17-0.26,0.36-0.4,0.55c-0.28,0.39-0.58,0.8-0.91,1.24s-0.68,0.91-1.06,1.41
		c-0.38,0.49-0.78,1.01-1.19,1.55c-0.63,0.82-1.3,1.68-2.01,2.59c-0.72,0.91-1.47,1.87-2.25,2.86c-0.26,0.33-0.53,0.66-0.79,1
		c-0.54,0.67-1.09,1.37-1.65,2.07c-0.84,1.05-1.71,2.14-2.6,3.25c-0.89,1.1-1.8,2.23-2.72,3.37c-2.16,2.67-4.39,5.4-6.62,8.12
		c-0.64,0.78-1.27,1.55-1.91,2.32c-0.95,1.16-1.9,2.31-2.83,3.44c-0.62,0.75-1.24,1.5-1.86,2.23c-0.92,1.11-1.82,2.19-2.7,3.24
		c-1.47,1.76-2.88,3.44-4.2,4.99c-0.53,0.63-1.05,1.23-1.54,1.82c-0.94,1.09-1.82,2.11-2.62,3.05c-0.49,0.56-0.95,1.09-1.38,1.58
		c-0.24,0.27-0.48,0.54-0.7,0.79c-0.67,0.76-1.26,1.41-1.76,1.95c-0.44,0.49-0.9,1.01-1.34,1.58c-0.46,0.56-0.9,1.16-1.35,1.79
		c-3.24,4.56-6.38,10.73-8.73,16.67c-0.39,0.99-0.76,1.97-1.11,2.94c-0.23,0.64-0.44,1.28-0.65,1.91c-0.1,0.32-0.21,0.63-0.3,0.94
		c-0.29,0.93-0.56,1.83-0.78,2.7c-0.18,0.69-0.34,1.36-0.49,2.01v0.01c-0.59,2.74-0.81,5.02-0.53,6.54c0.07,0.34,0.16,0.64,0.27,0.9
		c0.04,0.09,0.09,0.17,0.13,0.25c0.05,0.09,0.1,0.17,0.14,0.26c0.06,0.08,0.1,0.17,0.14,0.25c0.05,0.1,0.11,0.2,0.17,0.31
		c0.06,0.11,0.12,0.23,0.19,0.35c0.13,0.24,0.27,0.52,0.43,0.81c0.26,0.49,0.51,0.99,0.76,1.48c0.88,1.72,1.97,3.91,3.21,6.45
		c2.18,4.48,4.81,10.03,7.46,15.88c1.96,4.32,3.93,8.81,5.74,13.15c2.42,5.82,4.55,11.37,5.98,15.91c0.53,1.71,0.96,3.26,1.27,4.62
		c0.74,3.23,1.42,4.75,2.13,6.34c0,0,2.25,5.07,6.49,9.38c0.6,0.61,1.3,1.27,1.3,1.27c0.59,0.56,1.15,1.05,1.77,1.58
		c0.5,0.4,1.02,0.84,1.55,1.21c0.28,0.22,0.56,0.43,0.84,0.62c0.62,0.5,1.27,0.93,1.92,1.36c0.62,0.43,1.24,0.84,1.89,1.21
		c0.16,0.09,0.34,0.22,0.53,0.31c0.47,0.28,0.93,0.56,1.4,0.81c0.25,0.15,0.5,0.28,0.74,0.4c1.15,0.65,2.29,1.24,3.5,1.8
		c0.03,0.03,0.09,0.06,0.16,0.09c1.15,0.56,2.33,1.09,3.53,1.58c0.22,0.09,0.43,0.19,0.68,0.28c1.18,0.5,2.39,0.99,3.6,1.43
		c1.33,0.53,2.7,1.02,4.06,1.49c9.09,3.13,10.54,0.96,43.91,2.82c26.48,1.49,28.22,3.01,36.81,1.43
		c12.12-2.23,15.04-6.45,38.23-20.53c1.8-1.09,29.24-17.64,62.33-32.56c1.12-0.53,4-1.74,8.99-3.81c1.24-0.53,2.6-1.09,4.09-1.74
		c0.78-0.31,1.58-0.65,2.42-0.96c1.61-0.71,3.38-1.46,5.3-2.23h0.03c1.92-0.81,3.97-1.67,6.17-2.57c1.09-0.47,2.23-0.93,3.41-1.43
		c30.36-12.62,45.65-19.01,52.41-21.24c15.72-5.27,27.72-8,51.69-13.46c23.01-5.24,34.51-7.85,41.77-8.5
		c14.82-1.33,24.9-0.4,38.95-6.39c6.82-2.91,12.22-5.21,16.99-10.61C866.3,567.5,862.18,545.82,860.1,535z"/>
	<path class="st7" d="M855.5,522.02c0.32,5.68,0.21,19.61-9.21,31.27c-5.6,6.93-12.12,10.14-18.43,13.17
		c-13.71,6.57-24.65,7.31-40.15,9.21c0,0-12.95,1.59-44.13,7.04c-22.27,3.89-38.21,8.69-55.91,14.02
		c-70.36,21.19-128.48,52.26-128.48,52.26c-37.5,20.05-43.11,27.87-64.41,30.45c-13.36,1.62-28.05,0.59-60.51,4.17
		c-9.71,1.07-17.66,2.19-22.87,2.96v0.01c0.01,0,0.01,0.01,0.02,0.01c0.14,0.16,0.3,0.34,0.44,0.48c0.11,0.13,0.22,0.26,0.34,0.39
		c0.18,0.21,0.37,0.41,0.56,0.6c0.21,0.22,0.43,0.43,0.64,0.65c0.08,0.08,0.16,0.16,0.25,0.23c0.06,0.06,0.13,0.12,0.19,0.18
		c0.03,0.05,0.06,0.08,0.1,0.1c0.04,0.03,0.07,0.07,0.11,0.11c0.59,0.56,1.15,1.06,1.77,1.59c0.49,0.4,1.02,0.83,1.55,1.21
		c0.14,0.11,0.29,0.22,0.43,0.32c0.14,0.1,0.28,0.21,0.42,0.3c0.62,0.49,1.26,0.93,1.91,1.36c0.62,0.43,1.24,0.84,1.89,1.21
		c0.15,0.09,0.34,0.22,0.53,0.31c0.46,0.28,0.93,0.56,1.39,0.81h0.01c0.25,0.15,0.49,0.27,0.74,0.4c0.29,0.16,0.58,0.32,0.87,0.48
		c0.57,0.31,1.15,0.6,1.73,0.89c0.3,0.15,0.6,0.29,0.9,0.43h0.01c0.03,0.03,0.1,0.06,0.16,0.09c0.57,0.28,1.15,0.55,1.73,0.82
		c0.59,0.26,1.18,0.51,1.79,0.76c0.11,0.05,0.22,0.1,0.34,0.14c0.12,0.05,0.23,0.09,0.36,0.14c0.58,0.25,1.17,0.49,1.77,0.74
		c0.6,0.24,1.2,0.47,1.81,0.69c1.33,0.52,2.7,1.02,4.06,1.49c9.09,3.13,10.54,0.96,43.91,2.82c26.48,1.49,28.22,3.01,36.81,1.42
		c3.79-0.7,6.68-1.59,9.58-2.91c0.57-0.27,1.15-0.55,1.73-0.85c0,0,0-0.01,0.01,0c2.05-1.06,4.18-2.35,6.71-3.96
		c0.36-0.23,0.74-0.47,1.12-0.71c0.57-0.37,1.15-0.74,1.76-1.14c0.21-0.14,0.42-0.27,0.63-0.41c0.42-0.26,0.84-0.54,1.28-0.83
		c0.44-0.29,0.9-0.58,1.37-0.88c0.93-0.6,1.91-1.23,2.94-1.9c0-0.01,0-0.01,0.01,0c0.78-0.5,1.59-1.02,2.43-1.56c0,0,0,0,0.01,0
		c2.55-1.61,5.41-3.39,8.67-5.37c0.25-0.15,1.01-0.61,2.21-1.33c0-0.01,0.01,0,0.01,0c0.41-0.24,0.86-0.51,1.35-0.8
		c0-0.01,0-0.01,0.01,0c0.67-0.4,1.42-0.84,2.25-1.32c0-0.01,0-0.01,0.01,0c1.26-0.73,2.69-1.55,4.28-2.47c0,0,0,0,0.01,0
		c0.8-0.45,1.64-0.92,2.51-1.42h0.01c0.88-0.49,1.8-1.01,2.75-1.54c7.65-4.26,17.68-9.64,29.04-15.23c1.89-0.94,3.82-1.87,5.77-2.82
		h0.01c2.45-1.17,4.95-2.35,7.48-3.53c0.51-0.23,1.02-0.47,1.54-0.7c1.03-0.47,2.06-0.93,3.09-1.4c0.2-0.1,0.47-0.22,0.8-0.37
		c0.67-0.3,1.6-0.7,2.82-1.21c0.8-0.33,1.72-0.72,2.77-1.16h0.01c0.52-0.22,1.08-0.45,1.67-0.7c0.29-0.12,0.6-0.25,0.91-0.38
		c1.24-0.53,2.6-1.08,4.09-1.73h0.01c0.78-0.31,1.57-0.66,2.41-0.97c1.61-0.71,3.38-1.45,5.3-2.23h0.03h0.02
		c1.92-0.8,3.97-1.67,6.17-2.57c0.27-0.12,0.54-0.23,0.81-0.35c0.56-0.24,1.13-0.47,1.72-0.71c0.29-0.12,0.59-0.25,0.88-0.37
		c18.02-7.49,30.73-12.79,39.49-16.33c0.93-0.37,1.81-0.72,2.65-1.05c0.84-0.33,1.63-0.65,2.38-0.94c3.39-1.34,5.97-2.29,7.87-2.92
		h0.01c0.49-0.16,0.98-0.33,1.47-0.49c15.01-4.96,27-7.68,50.21-12.97c23.01-5.24,34.52-7.84,41.77-8.5
		c12.98-1.16,22.31-0.6,33.86-4.44c0.82-0.28,1.66-0.57,2.5-0.9h0.01c0.85-0.32,1.71-0.66,2.58-1.04h0.01
		c2.56-1.09,4.91-2.1,7.11-3.22c0,0,0,0,0.01,0c2.56-1.3,4.91-2.74,7.11-4.66c0,0,0,0,0.01,0c0.95-0.81,1.86-1.72,2.76-2.73
		c12.56-14.23,8.43-35.91,6.36-46.73c-0.32-1.71-0.69-3.22-1.06-4.59c-0.15-0.53-0.28-1.02-0.43-1.52
		c-0.04-0.11-0.07-0.23-0.11-0.34c-0.08-0.25-0.16-0.5-0.25-0.74c-0.12-0.35-0.24-0.69-0.37-1.02c-0.08-0.22-0.16-0.42-0.25-0.63
		L855.5,522.02z"/>
	<path class="st8" d="M411.38,686.58c0.15,0.15,0.31,0.34,0.47,0.5c0.28,0.34,0.59,0.68,0.9,0.99c0.43,0.43,0.87,0.87,1.3,1.27
		c0.59,0.56,1.15,1.05,1.77,1.58c0.5,0.4,1.02,0.84,1.55,1.21c0.28,0.22,0.56,0.43,0.84,0.62c0.62,0.5,1.27,0.93,1.92,1.36
		c0.62,0.43,1.24,0.84,1.89,1.21c0.15,0.09,0.34,0.22,0.53,0.31c0.47,0.28,0.93,0.56,1.4,0.81c0.25,0.15,0.5,0.28,0.74,0.4
		c1.15,0.65,2.29,1.24,3.5,1.8c0.03,0.03,0.09,0.06,0.15,0.09c1.15,0.56,2.33,1.09,3.54,1.58c0.22,0.09,0.43,0.19,0.68,0.28
		c1.18,0.5,2.39,0.99,3.6,1.43c1.33,0.53,2.7,1.02,4.06,1.49c9.09,3.13,10.54,0.96,43.91,2.82c26.48,1.49,28.22,3.01,36.81,1.43
		c12.12-2.23,15.04-6.45,38.23-20.53c1.8-1.09,29.24-17.64,62.33-32.56c1.12-0.53,4-1.74,8.99-3.81c1.24-0.53,2.6-1.09,4.09-1.74
		c0.77-0.31,1.58-0.65,2.42-0.96c1.61-0.71,3.38-1.46,5.3-2.23h0.03c1.92-0.81,3.97-1.67,6.17-2.57c1.09-0.47,2.23-0.93,3.41-1.43
		c30.36-12.62,45.65-19.01,52.41-21.24c15.72-5.27,27.72-8,51.69-13.46c23.01-5.24,34.51-7.85,41.77-8.5
		c14.82-1.33,24.9-0.4,38.95-6.39c6.82-2.91,12.22-5.21,16.99-10.61c8.5-9.64,9.36-22.7,8.37-33.49
		c-1.25,7.56-4.28,18.09-12.59,26.25c-12.76,12.52-29.46,11.13-52.24,12.76c-37.99,2.73-67.19,12.08-92.95,20.24
		c-20.96,6.64-51.5,18.27-59.67,21.48c-3.19,1.25-6.21,2.47-9.35,3.76c0,0-9.71,3.98-18.42,7.83c-20.19,8.92-53.5,28.48-55.4,29.6
		c-31.19,18.37-28.92,18.88-36.66,21.25c-8.15,2.49-7.79,1.04-48.74,3.75c-20.88,1.38-28.04,2.23-39.58,0
		C425.68,693.07,417.12,689.45,411.38,686.58z"/>
	<path class="st15" d="M498.48,430.04c-3.61,1.76-7.27,3.64-9.97,6.61c-2.7,2.96-4.29,7.28-2.99,11.07c1.15,3.37,4.3,5.69,7.6,7.04
		c7.96,3.25,17.12,1.93,25.18-1.07c8.06-3,15.44-7.56,23.35-10.94c22.97-9.83,48.96-9.21,73.2-15.29c3.39-0.85,7.39-2.55,7.75-6.03
		c0.15-1.47-0.43-2.91-1.13-4.21c-4.47-8.36-13.6-13.24-22.73-15.78c-16.03-4.47-34.55-3.9-48.55,5.5
		C534.8,417.25,515.22,421.87,498.48,430.04z"/>
	<path class="st10" d="M217.6,560.13c-0.06,0.99-0.06,2.02,0,3.1c0.03,0.5,0.06,1.02,0.15,1.58c0.03,0.37,0.09,0.78,0.19,1.18
		c0.12,0.78,0.28,1.58,0.5,2.39c0.16,0.5,0.28,1.02,0.47,1.52c0.12,0.37,0.25,0.74,0.37,1.15c0.43,1.15,0.93,2.33,1.52,3.54
		c0.34,0.68,0.68,1.36,1.09,2.08c0.22,0.4,0.43,0.84,0.68,1.24c0.19,0.34,0.4,0.68,0.62,1.05c0.22,0.34,0.43,0.71,0.65,1.09
		c0.46,0.71,0.96,1.46,1.49,2.2c0.37,0.53,0.78,1.05,1.18,1.61c0.56,0.74,1.15,1.49,1.74,2.23c0.62,0.74,1.24,1.52,1.92,2.29
		c0,0,0,0.03,0.03,0.03c0.65,0.78,1.36,1.55,2.11,2.36c0.74,0.81,1.52,1.61,2.33,2.45c30.98,31.63,36.16,48.44,49.09,51.66
		c12.9,3.23,27.75,7.75,43.91,19.38c0.31,0.22,0.62,0.43,0.96,0.65c0.62,0.4,1.3,0.81,1.98,1.18c0.43,0.25,0.9,0.47,1.33,0.68
		c0.71,0.37,1.46,0.71,2.23,1.02c0.5,0.22,0.99,0.4,1.52,0.62c0,0,0.03,0,0.06,0.03c0.99,0.37,2.05,0.74,3.13,1.12
		c1.67,0.56,3.44,1.05,5.27,1.52c0.59,0.16,1.21,0.31,1.83,0.43c0.62,0.15,1.27,0.31,1.89,0.43c0.56,0.12,1.12,0.25,1.67,0.34
		c0.03,0,0.06,0,0.09,0.03c0.84,0.15,1.67,0.31,2.54,0.47c0.31,0.06,0.59,0.12,0.9,0.15c1.49,0.25,2.98,0.47,4.5,0.68
		c0.87,0.12,1.77,0.22,2.64,0.34h0.12c0.96,0.12,1.92,0.22,2.88,0.31c1.36,0.12,2.7,0.25,4.06,0.34c1.05,0.06,2.11,0.12,3.19,0.19
		c1.18,0.06,2.36,0.09,3.57,0.12c0.99,0.03,2.02,0.06,3.01,0.06h2.39c-15.72-3.07-28.16-7.94-36.81-12
		c-15.91-7.47-26.85-16.56-41.8-29.12c-11.91-10.02-17.86-15.01-21.86-20.62c-7.66-10.7-11.23-21.71-14.45-31.78
		c-0.09-0.28-0.19-0.53-0.25-0.78c-0.43-1.3-0.81-2.51-1.18-3.66c-2.45-7.69-3.91-12.81-4.37-18.7
		c-1.02-12.78,3.04-23.01,11.57-37.89c0.47-0.84,0.96-1.67,1.46-2.54c2.17-3.69,4.56-7.69,7.23-12.06
		c5.43-8.93,11.63-19.04,20.53-29.77c0.59-0.71,1.21-1.46,1.86-2.17c0.68-0.84,1.43-1.67,2.23-2.54c1.05-1.21,2.17-2.45,3.38-3.69
		c2.36-2.51,4.9-5.02,7.63-7.6c9.18-8.56,18.95-17.71,34.39-25.18c1.3-0.62,2.54-1.21,3.69-1.71c1.18-0.5,2.33-0.96,3.41-1.33
		c10.11-3.72,16.99-3.07,46.2-11.29c21.86-6.14,24.81-8.4,40.37-11.6c15.72-3.23,28.93-4.25,37.77-4.59c1.3-0.78,2.73-1.67,4.22-2.6
		c0.15-0.09,0.28-0.19,0.43-0.28c1.15-0.78,2.36-1.52,3.54-2.29c0.31-0.22,0.59-0.4,0.9-0.62c0.09-0.06,0.22-0.12,0.31-0.19
		c3.19-2.11,6.39-4.34,9.64-6.7c-0.16-0.03-0.28-0.06-0.43-0.09c-0.34-0.06-0.71-0.12-1.05-0.22c-0.22-0.03-0.43-0.09-0.65-0.12
		c-0.25-0.03-0.5-0.09-0.74-0.12l-0.56-0.09c-0.06-0.03-0.15-0.06-0.25-0.06c-0.9-0.16-1.92-0.34-3.07-0.5
		c-0.71-0.09-1.49-0.22-2.26-0.31c-0.12-0.03-0.25-0.03-0.37-0.06c-0.74-0.06-1.55-0.15-2.36-0.25c-2.95-0.28-6.26-0.5-9.67-0.47
		h-0.22c-0.5,0-1.02,0-1.52,0.03c-1.58,0.06-3.16,0.16-4.78,0.31c-0.19,0-0.34,0.03-0.53,0.06c-0.06,0-0.15,0.03-0.22,0.03
		c-0.47,0.06-0.9,0.09-1.4,0.19c-0.47,0.06-0.87,0.16-1.3,0.22c-0.53,0.09-1.02,0.19-1.49,0.28c-0.28,0.06-0.53,0.12-0.81,0.19
		c-0.4,0.09-0.78,0.19-1.18,0.28c-0.56,0.12-1.02,0.25-1.46,0.37c-0.47,0.12-0.87,0.25-1.18,0.34c-1.8,0.59-4,1.12-6.57,1.55
		c-0.15,0.03-0.28,0.06-0.43,0.09c-0.06,0-0.15,0-0.25,0.03c-5.67,0.9-12.9,1.49-20.53,1.86c-1.36,0.06-2.76,0.12-4.16,0.19
		c-2.92,0.12-5.86,0.22-8.78,0.28h-0.37c-2.08,0.03-4.16,0.09-6.17,0.12c-0.99,0.03-1.98,0.03-2.98,0.03
		c-1.46,0.03-2.88,0.03-4.28,0.06c-1.43,0.03-2.79,0.03-4.09,0.03h-0.19c-1.77,0-3.47,0.03-5.05,0.03c-0.56,0-1.12,0.03-1.64,0.03
		c-3.04,0.06-5.3,0.09-7.04,0.12c-0.68,0.03-1.3,0.06-1.83,0.06c-0.19,0-0.37,0.03-0.56,0.03c-3.85,0.22-19.57,3.91-38.67,9.83
		c-1.92,0.59-3.88,1.21-5.86,1.86c-17.33,5.61-36.62,12.9-52.1,21.09c-0.62,0.31-1.21,0.65-1.8,0.96c-1.58,0.87-3.13,1.74-4.62,2.6
		c-0.9,0.56-1.8,1.09-2.67,1.64c-8,4.99-14.3,10.26-17.64,15.63c0,0-1.95,10.33-2.57,18.73c-0.06,0.68-0.19,1.3-0.37,1.89
		c-0.09,0.31-0.22,0.59-0.34,0.87c-0.09,0.25-0.22,0.5-0.37,0.74c-0.09,0.19-0.22,0.4-0.37,0.59c-1.05,1.58-2.6,2.95-4.34,4.16
		c-0.43,0.34-0.87,0.65-1.3,0.93c-1.02,0.71-2.05,1.4-3.04,2.08c-1.74,1.18-3.38,2.45-4.59,3.94c-0.25,0.28-0.5,0.59-0.68,0.93
		c-0.03,0.03-0.06,0.03-0.03,0.06c-0.28,0.4-0.53,0.81-0.71,1.24c-3.23,7.1-9.05,45.21-15.5,52.96c-1.05,1.27-2.48,2.76-3.94,4.47
		c-0.5,0.56-0.99,1.12-1.49,1.74c-0.31,0.4-0.65,0.84-0.96,1.27c-0.34,0.43-0.65,0.9-0.96,1.36c-0.28,0.37-0.53,0.78-0.77,1.21
		c-0.9,1.46-1.71,3.01-2.33,4.71c-0.15,0.4-0.28,0.78-0.4,1.18c-0.03,0.12-0.06,0.25-0.12,0.37c-0.12,0.53-0.28,1.05-0.37,1.58
		c-0.12,0.56-0.25,1.15-0.31,1.74C217.72,559.07,217.66,559.6,217.6,560.13z"/>
	<path class="st15" d="M673.16,545.9c-14.79,2.64-29.9,6.21-44.67,3.43c-10.91-2.06-21.13-7.64-28.75-15.72
		c-0.95-1.01-2.24-2.57-2.89-4.84c-1.55-5.47,1.88-10.8,3.24-12.9c10.47-16.25,36.1-25.48,36.1-25.48
		c28.29-10.2,48-17.17,81.28-22.57c19.07-3.1,35.27-4.49,54.1-1.18c16.61,2.92,22.81,7.31,25.74,9.72
		c12.19,10.06,18.93,28.88,14.41,43.01c-7.63,23.86-34.28,26.89-55.07,22.48C730.42,536.27,699.25,541.24,673.16,545.9z"/>
	<path class="st15" d="M328.55,495.49c-6.89,14.66-18.4,26.59-27.18,40.21c-2.37,3.67-4.6,7.54-7.94,10.36
		c-3.34,2.82-8.13,4.4-12.15,2.69c-1.08-9.43,1.76-18.82,4.56-27.88c3.96-12.82,8.08-25.95,16.36-36.5
		c4.19-5.35,9.39-9.91,15.23-13.37c5.93-3.51,19.4-7.16,21.51,3.11C340.17,480.02,331.08,490.12,328.55,495.49z"/>
	<path class="st10" d="M809.89,454.42c-17.93-7.04-51.02-17.2-92.61-13.65c-44.02,3.76-75,20.95-81.88,24.9
		c-13.42,7.71-28.97,19-36.68,24.6c-2.67,1.94-30.4,22.14-47.84,32.59c-5.44,3.26-9.34,5.25-12.71,6.73
		c-7.17,3.14-10.52,3.83-14.98,5.73c-9.17,3.9-14.53,9.63-18.98,13.97c-2.35,2.29-26.02,25.12-51.45,38.72
		c-20.78,11.11-28.71,8.56-38.81,20.69c-7.65,9.19-10.53,19.6-11.58,23.52c-3.66,13.63-2.16,25.17-0.92,31.27
		c-3.78-9.87-7.33-18.21-10.3-24.84c-2.29-5.11-2.78-5.55-7.46-15.88c-1.36-3-2.87-6.05-4.59-9.09c-0.06-0.11-0.12-0.21-0.17-0.31
		c-0.04-0.08-0.08-0.17-0.14-0.25c-0.04-0.09-0.09-0.17-0.14-0.26c-0.04-0.08-0.09-0.16-0.13-0.25c-0.11-0.26-0.2-0.56-0.27-0.9
		c-0.28-1.52-0.06-3.8,0.53-6.54v-0.01c0.15-0.65,0.31-1.32,0.49-2.01c0.22-0.87,0.49-1.77,0.78-2.7c0.09-0.31,0.2-0.62,0.3-0.94
		c0.21-0.63,0.42-1.27,0.65-1.91c0.35-0.97,0.72-1.95,1.11-2.94c2.35-5.94,5.49-12.11,8.73-16.67c0.45-0.63,0.89-1.23,1.35-1.79
		c0.45-0.57,0.9-1.09,1.35-1.58c0.49-0.54,1.09-1.19,1.75-1.95c0.22-0.25,0.46-0.52,0.7-0.79c0.43-0.49,0.89-1.02,1.38-1.58
		c0.81-0.94,1.69-1.96,2.62-3.05c0.49-0.59,1.01-1.19,1.54-1.82c1.32-1.55,2.73-3.23,4.2-4.99c0.88-1.05,1.78-2.13,2.7-3.24
		c0.62-0.73,1.24-1.48,1.86-2.23c0.93-1.13,1.88-2.28,2.83-3.44c0.64-0.77,1.27-1.54,1.91-2.32c2.23-2.72,4.46-5.45,6.62-8.12
		c0.92-1.14,1.83-2.27,2.72-3.37c0.89-1.11,1.76-2.2,2.6-3.25c0.56-0.7,1.11-1.4,1.65-2.07c0.26-0.34,0.53-0.67,0.79-1
		c0.79-0.99,1.54-1.95,2.25-2.86c0.71-0.91,1.38-1.77,2.01-2.59c0.41-0.54,0.81-1.06,1.19-1.55c0.38-0.5,0.73-0.97,1.06-1.41
		s0.63-0.85,0.91-1.24c0.14-0.19,0.28-0.38,0.4-0.55c0.26-0.36,0.49-0.68,0.68-0.97c0.5-0.72,0.82-1.24,0.93-1.52
		c0.2-0.48,0.67-0.94,1.38-1.36c0.2-0.13,0.42-0.25,0.66-0.36c0.12-0.06,0.24-0.12,0.37-0.18c0.25-0.11,0.53-0.22,0.81-0.33
		c0.72-0.27,1.54-0.53,2.44-0.77c0.18-0.04,0.37-0.09,0.55-0.14c0.37-0.09,0.76-0.18,1.16-0.27c0.39-0.08,0.8-0.17,1.22-0.25
		c0.63-0.12,1.28-0.23,1.95-0.34c0.45-0.07,0.9-0.14,1.35-0.2c0.01,0,0.01,0,0.01,0c0.69-0.1,1.4-0.19,2.11-0.27
		c0.48-0.05,0.97-0.1,1.46-0.15c3.54-0.35,7.31-0.52,10.88-0.47c0.73,0.01,1.44,0.03,2.15,0.07c0.41,0.01,0.82,0.03,1.23,0.06h0.01
		c0,0,0.02-0.07,0.06-0.2c0-0.02,0.01-0.04,0.02-0.07c0.08-0.22,0.19-0.56,0.35-1c0-0.02,0.01-0.03,0.02-0.05
		c0.08-0.21,0.17-0.44,0.26-0.69c0.07-0.16,0.13-0.33,0.2-0.51c0.04-0.12,0.09-0.25,0.15-0.37c0.17-0.41,0.36-0.85,0.57-1.33
		c0.22-0.5,0.46-1.03,0.74-1.59c0.18-0.37,0.37-0.75,0.57-1.14c0.39-0.75,0.82-1.54,1.29-2.34c0.48-0.81,1.01-1.65,1.58-2.48
		c0.04-0.07,0.08-0.13,0.13-0.19c0.23-0.33,0.47-0.66,0.71-0.99c0.1-0.13,0.19-0.26,0.29-0.39c0.21-0.28,0.43-0.56,0.66-0.84
		c0.06-0.08,0.12-0.15,0.18-0.23c0.39-0.47,0.79-0.93,1.21-1.38c0.06-0.06,0.11-0.13,0.17-0.19c0.16-0.18,0.32-0.35,0.48-0.51
		c0.17-0.17,0.34-0.34,0.5-0.5c0.17-0.18,0.34-0.34,0.52-0.49c0.17-0.16,0.34-0.32,0.52-0.48c0.17-0.15,0.35-0.3,0.54-0.46
		c0.55-0.46,1.12-0.9,1.72-1.31c0.19-0.13,0.39-0.27,0.59-0.4c0.2-0.12,0.4-0.25,0.61-0.38c0,0,0.01-0.01,0.01,0
		c0.2-0.13,0.41-0.25,0.62-0.37s0.42-0.23,0.63-0.34h0.02c0.21-0.11,0.42-0.22,0.64-0.33h0.01c0.22-0.1,0.44-0.2,0.66-0.3
		c0.01,0,0.01,0,0.01,0c0.22-0.09,0.45-0.18,0.68-0.27c2.08-0.8,4.36-1.26,6.85-1.26c8.99,0,17.98-1.45,25.39-3.26
		c0.68-0.17,1.35-0.34,2-0.51c0.23-0.06,0.46-0.12,0.69-0.18c1.05-0.28,2.06-0.57,3.02-0.85c0.24-0.08,0.48-0.15,0.71-0.22
		c0.33-0.1,0.65-0.2,0.97-0.3c0.32-0.1,0.62-0.2,0.93-0.29c0.35-0.12,0.7-0.24,1.04-0.35c0.34-0.12,0.67-0.24,0.99-0.35
		c0.01,0,0.01,0,0.01,0c0.32-0.11,0.63-0.23,0.93-0.34c0.01,0,0.01,0,0.01,0c0.19-0.07,0.37-0.14,0.55-0.21
		c0.4-0.16,0.79-0.31,1.15-0.45c0.01,0,0.01,0,0.01,0c0.16-0.06,0.3-0.13,0.45-0.19c0.36-0.15,0.69-0.29,1-0.43
		c0.01,0,0.01,0,0.01,0c0.22-0.1,0.43-0.2,0.63-0.29h0.01c0.09-0.05,0.19-0.1,0.28-0.14c0.09-0.05,0.18-0.1,0.27-0.14
		c5.69-2.82,24.11-26.17,41.82-29.74c14.81-2.97,76-19.38,103.68-27.5c2.01-0.59,3.83-1.14,5.45-1.63c1.88-0.58,3.49-1.08,4.77-1.5
		c0.18-0.06,0.36-0.12,0.53-0.17c0.01,0,0.01,0,0.01,0c0.11-0.04,0.22-0.08,0.32-0.11c0.21-0.08,0.42-0.15,0.61-0.22
		c14.17-4.96,84.97-2.14,99.15,7.07c0.31,0.2,0.62,0.41,0.92,0.63c0.13,0.09,0.26,0.18,0.38,0.27c0.05,0.03,0.09,0.06,0.14,0.1
		c0.1,0.07,0.2,0.15,0.3,0.22c0.29,0.22,0.58,0.45,0.86,0.67c0.1,0.08,0.19,0.15,0.28,0.23c0.03,0.02,0.06,0.04,0.09,0.07
		c0.02,0.02,0.04,0.04,0.06,0.05c0.2,0.16,0.38,0.32,0.57,0.49c0.19,0.16,0.37,0.33,0.55,0.49c0.06,0.06,0.13,0.11,0.19,0.17
		c0.15,0.12,0.3,0.26,0.45,0.4v0.01c0.2,0.2,0.41,0.4,0.61,0.6c0.1,0.09,0.2,0.19,0.3,0.29c0.11,0.11,0.21,0.21,0.3,0.32
		c0.1,0.09,0.19,0.19,0.28,0.28c0.1,0.11,0.21,0.23,0.31,0.34c0.02,0.02,0.04,0.04,0.07,0.07c0.34,0.38,0.69,0.78,1.03,1.17
		c0.01,0.02,0.03,0.03,0.04,0.04c0.28,0.34,0.56,0.68,0.84,1.02c0.07,0.09,0.14,0.17,0.2,0.25c0.04,0.05,0.07,0.1,0.11,0.14
		c0.3,0.39,0.59,0.78,0.89,1.17v0.01c0.26,0.35,0.51,0.69,0.76,1.04c0.03,0.04,0.06,0.08,0.09,0.13c0.04,0.05,0.07,0.1,0.1,0.16
		c0.02,0.04,0.05,0.07,0.08,0.11c0.52,0.74,1.01,1.5,1.47,2.25c0.09,0.16,0.19,0.31,0.28,0.46c0.11,0.2,0.23,0.39,0.35,0.58
		c0.11,0.2,0.23,0.4,0.35,0.6c0.04,0.07,0.07,0.13,0.11,0.19c0.5,0.85,0.96,1.69,1.39,2.51c0.54,1,1.04,1.97,1.5,2.9
		c0.17,0.35,0.34,0.69,0.5,1.02C808.42,451.45,809.21,453.13,809.89,454.42z"/>
	<path class="st79" d="M772.77,429.56c-6.84-1.77-32.71-7.92-77.72,1.14c-24.84,5-61.93,12.46-97.08,37.69
		c-9.57,6.87-38.01,27.01-55.25,33.08c-10.49,3.69-18.94,5.34-32.67,12.57c0,0-4.81,2.57-9.29,5.54c-9.39,6.23-16.98,17.98-24.66,26
		c-12.02,12.55-26.59,18.38-40.31,23.87c-13.1,5.24-15.85,4.17-22.91,9.36c-12.48,9.19-17.22,22.39-19.09,27.68
		c-4.79,13.6-3.73,25.65-2.63,32.17c-2.65-5.85-5.28-11.4-7.46-15.88c-1.24-2.54-2.33-4.73-3.21-6.45c-0.25-0.49-0.5-0.99-0.76-1.48
		c-0.16-0.29-0.3-0.57-0.43-0.81c-0.07-0.12-0.13-0.24-0.19-0.35c-0.11-0.19-0.21-0.37-0.31-0.56c-0.05-0.09-0.1-0.17-0.15-0.26
		c-0.04-0.08-0.08-0.16-0.12-0.25c-0.12-0.26-0.21-0.56-0.27-0.9c-0.36-1.88,0.07-4.93,1.01-8.56c0.31-1.16,0.67-2.38,1.09-3.64
		c0.21-0.63,0.42-1.27,0.65-1.91c0.35-0.97,0.72-1.95,1.11-2.94c2.35-5.94,5.49-12.11,8.73-16.67c0.89-1.26,1.8-2.4,2.69-3.37
		c0.66-0.72,1.49-1.64,2.46-2.74c1.15-1.32,2.5-2.88,4-4.63c0.49-0.59,1.01-1.19,1.54-1.82c1.32-1.55,2.73-3.23,4.2-4.99
		c0.88-1.05,1.78-2.13,2.7-3.24c0.62-0.73,1.24-1.48,1.86-2.23c0.93-1.13,1.88-2.28,2.83-3.44c0.64-0.77,1.27-1.54,1.91-2.32
		c2.23-2.72,4.46-5.45,6.62-8.12c0.92-1.14,1.83-2.27,2.72-3.37c0.89-1.11,1.76-2.2,2.6-3.25c0.56-0.7,1.11-1.4,1.65-2.07
		c0.26-0.34,0.53-0.67,0.79-1c0.78-0.99,1.53-1.95,2.25-2.86c0.71-0.91,1.38-1.77,2.01-2.59c0.41-0.54,0.81-1.06,1.19-1.55
		c0.38-0.5,0.73-0.97,1.06-1.41s0.63-0.85,0.91-1.24c0.14-0.19,0.28-0.38,0.4-0.55c0.26-0.36,0.48-0.68,0.68-0.97
		c0.5-0.72,0.82-1.24,0.93-1.52c0.2-0.48,0.67-0.94,1.38-1.36c0.2-0.13,0.42-0.25,0.66-0.36c0.12-0.06,0.24-0.12,0.37-0.18
		c0.25-0.11,0.53-0.22,0.81-0.33c0.72-0.27,1.54-0.53,2.44-0.77c0.18-0.04,0.37-0.09,0.55-0.14c0.37-0.09,0.76-0.18,1.16-0.27
		c0.39-0.08,0.8-0.17,1.22-0.25c0.63-0.12,1.28-0.23,1.95-0.34c0.45-0.07,0.9-0.14,1.35-0.2c0.01,0,0.01,0,0.01,0
		c0.69-0.1,1.4-0.19,2.11-0.27c0.48-0.05,0.97-0.1,1.46-0.15c3.54-0.35,7.31-0.52,10.88-0.47c0.73,0.01,1.44,0.03,2.15,0.07
		c0.41,0.01,0.82,0.03,1.23,0.06c0,0,1.79-5.9,5.82-11.77c0.04-0.06,0.09-0.13,0.13-0.19c0.23-0.33,0.47-0.66,0.71-0.99
		c0.09-0.13,0.19-0.25,0.29-0.38c0.22-0.28,0.44-0.56,0.66-0.84c0.06-0.08,0.12-0.15,0.18-0.23c0.06-0.07,0.12-0.13,0.18-0.2
		c0.33-0.4,0.68-0.79,1.04-1.18c0.06-0.06,0.11-0.13,0.17-0.19c0.16-0.18,0.32-0.35,0.48-0.51c0.17-0.17,0.34-0.34,0.5-0.5
		c0.17-0.18,0.34-0.34,0.52-0.49c0.17-0.16,0.34-0.32,0.52-0.48c0.17-0.15,0.35-0.3,0.54-0.46c0.55-0.46,1.12-0.9,1.72-1.31
		c0.19-0.13,0.39-0.27,0.59-0.4c0.2-0.12,0.4-0.25,0.61-0.38c0-0.01,0-0.01,0.01,0c0.2-0.13,0.41-0.25,0.62-0.37
		s0.42-0.23,0.63-0.34c0.01-0.01,0.01,0,0.01,0c0.22-0.12,0.43-0.22,0.65-0.33h0.01c0.22-0.1,0.44-0.2,0.66-0.3
		c0.01,0,0.01,0,0.01,0c0.22-0.09,0.45-0.18,0.68-0.27c2.08-0.8,4.36-1.26,6.85-1.26c8.99,0,17.98-1.45,25.39-3.26
		c0.68-0.17,1.35-0.34,2-0.51c0.23-0.06,0.46-0.12,0.69-0.18c1.05-0.28,2.06-0.57,3.02-0.85c0.24-0.08,0.48-0.15,0.71-0.22
		c0.66-0.2,1.29-0.4,1.9-0.59v-0.01c0.71-0.23,1.39-0.46,2.03-0.69c0.01,0,0.01,0,0.01,0v-0.01c0.32-0.11,0.63-0.22,0.93-0.33
		c0.01,0,0.01,0,0.01,0v-0.01c0.19-0.06,0.37-0.13,0.55-0.2c0.4-0.16,0.79-0.31,1.15-0.45c0.01,0,0.01,0,0.01,0v-0.01
		c0.16-0.06,0.3-0.12,0.45-0.18c0.36-0.15,0.69-0.29,1-0.43c0.01,0,0.01,0,0.01,0v-0.01c0.22-0.1,0.43-0.19,0.63-0.28
		c0-0.01,0-0.01,0.01,0v-0.01c0.09-0.05,0.19-0.09,0.28-0.13c0.09-0.05,0.18-0.1,0.27-0.14c5.69-2.82,24.11-26.17,41.82-29.74
		c14.81-2.97,76-19.38,103.68-27.5c2.01-0.59,3.83-1.14,5.45-1.63c1.88-0.58,3.49-1.08,4.77-1.5c0.18-0.06,0.36-0.12,0.53-0.17
		c0.01,0,0.01,0,0.01,0v-0.01c0.11-0.03,0.22-0.07,0.32-0.1c0.21-0.08,0.42-0.15,0.61-0.22c14.17-4.96,84.97-2.14,99.15,7.07
		c0.44,0.29,0.88,0.59,1.3,0.9c0.05,0.03,0.09,0.06,0.14,0.1c0.1,0.07,0.2,0.15,0.3,0.22c0.29,0.22,0.58,0.45,0.86,0.67
		c0.1,0.08,0.19,0.15,0.28,0.23c0.03,0.02,0.06,0.04,0.09,0.07c0.02,0.02,0.04,0.04,0.06,0.05c0.39,0.32,0.76,0.65,1.12,0.98
		c0.43,0.38,0.85,0.78,1.25,1.18c0.41,0.4,0.8,0.81,1.19,1.23c0.02,0.02,0.04,0.04,0.07,0.07c0.34,0.38,0.69,0.78,1.03,1.17
		c0.01,0.02,0.03,0.03,0.04,0.04c0.28,0.34,0.56,0.68,0.84,1.02c0.07,0.09,0.14,0.17,0.2,0.25c0.04,0.05,0.07,0.1,0.11,0.14
		c0.3,0.39,0.59,0.78,0.89,1.17v0.01c0.32,0.44,0.64,0.88,0.95,1.33c0.03,0.04,0.05,0.07,0.08,0.11c0.54,0.74,1.03,1.49,1.47,2.25
		C796.02,437.59,785.75,432.92,772.77,429.56z"/>
	<path class="st23" d="M491.07,584.55c71.31-17.92,92.15-23.97,110.16-10.9c2.89,2.1,11.57,8.39,11.78,16.6
		c0.23,8.74-9.26,15.04-16.13,19.42c-38.28,24.45-58.52,37.05-93.12,42.94c-8.52,1.45-19.38,2.75-32.56-0.67
		c-9.18-2.38-22.32-5.78-28.64-18.26c-3.3-6.52-4.63-15.31-2.58-22.57C444.22,596.18,461.54,591.97,491.07,584.55z"/>
	<path class="st79" d="M217.79,558.58c-0.48,3.67,0.18,6.43,0.91,9.57c0.63,2.72,1.65,5.53,3.18,8.51c0.22,0.4,0.43,0.84,0.68,1.24
		c0.19,0.34,0.4,0.68,0.62,1.05c0.22,0.34,0.43,0.71,0.65,1.09c0.46,0.71,0.96,1.46,1.49,2.2c0.37,0.53,0.78,1.05,1.18,1.61
		c0.56,0.74,1.15,1.49,1.74,2.23c0.62,0.74,1.24,1.52,1.92,2.29c0,0,0,0.03,0.03,0.03c0.65,0.78,1.36,1.55,2.11,2.36
		c0.74,0.81,1.52,1.61,2.33,2.45c30.98,31.63,36.16,48.44,49.09,51.66c12.9,3.23,27.75,7.75,43.91,19.38
		c0.31,0.22,0.62,0.43,0.96,0.65c0.62,0.4,1.3,0.81,1.98,1.18c0.43,0.25,0.9,0.47,1.33,0.68c0.71,0.37,1.46,0.71,2.23,1.02
		c0.5,0.22,0.99,0.4,1.52,0.62c0,0,0.03,0,0.06,0.03c0.99,0.37,2.05,0.74,3.13,1.12c1.67,0.56,3.44,1.05,5.27,1.52
		c0.59,0.16,1.21,0.31,1.83,0.43c0.62,0.15,1.27,0.31,1.89,0.43c0.56,0.12,1.12,0.25,1.67,0.34c0.03,0,0.06,0,0.09,0.03
		c0.84,0.15,1.67,0.31,2.54,0.47c0.31,0.06,0.59,0.12,0.9,0.15c1.49,0.25,2.98,0.47,4.5,0.68c0.87,0.12,1.77,0.22,2.64,0.34h0.12
		c0.96,0.12,1.92,0.22,2.88,0.31c1.36,0.12,2.7,0.25,4.06,0.34c1.05,0.06,2.11,0.12,3.19,0.19c1.18,0.06,2.36,0.09,3.57,0.12
		c0.99,0.03,2.02,0.06,3.01,0.06h0.5c-0.16-0.12-0.34-0.22-0.5-0.34c-8.37-0.19-21.02-1.4-35.07-6.98
		c-6.31-2.48-8.33-4.05-15.03-7.67c-4.81-2.61-5.39-2.65-8.69-4.48c-5.96-3.3-9.4-6.37-13.27-9.47
		c-11.96-9.59-14.33-8.55-22.86-15.69c-2.72-2.28-6.63-5.86-15.69-17.48c-19.47-24.99-29.21-37.49-29.59-50.66
		c-0.32-11.19,3.96-23.36,4.64-25.25c3.32-9.26,4.99-10.1,7.31-18.02c2.29-7.81,2.45-11.07,4.93-16.9c0.28-0.65,0.59-1.4,0.96-2.14
		c0.06-0.12,0.12-0.28,0.22-0.4c5.67-11.78,10.98-13.86,15.5-24.99c4.53-11.07,0.59-12.19,4.47-20.4c2.14-4.56,5.21-8.25,8.93-11.32
		c0.87-0.78,1.8-1.49,2.73-2.14c1.3-0.96,2.7-1.83,4.12-2.67c0.87-0.53,1.74-1.02,2.64-1.52c5.05-2.73,10.61-4.99,16.09-7.19
		c2.39-0.96,4.18-1.57,4.25-1.6c35.78-12.94,53.67-19.41,64.95-21.87c31.12-6.8,44.19,0.7,74.81-5.02
		c15.29-2.86,22.93-4.28,24.15-4.71c2.81-0.99,10.49-4.34,21.02-4.34c0.37,0,0.68-0.03,0.9-0.03c-0.16-0.03-0.28-0.06-0.43-0.09
		c-0.34-0.06-0.71-0.12-1.05-0.22c-0.22-0.03-0.43-0.09-0.65-0.12c-0.25-0.03-0.5-0.09-0.74-0.12l-0.56-0.09
		c-4.47-0.74-8.37-1.12-11.47-1.33c-2.2-0.15-4.31-0.28-6.51-0.31h-0.22c-0.5,0-1.02,0-1.52,0.03c-1.58,0.06-3.16,0.16-4.78,0.31
		c-0.19,0-0.34,0.03-0.53,0.06c-0.06,0-0.15,0.03-0.22,0.03c-0.47,0.06-0.9,0.09-1.4,0.19c-0.47,0.06-0.87,0.16-1.3,0.22
		c-0.53,0.09-1.02,0.19-1.49,0.28c-0.28,0.06-0.53,0.12-0.81,0.19c-0.4,0.09-0.78,0.19-1.18,0.28c-0.56,0.12-1.02,0.25-1.46,0.37
		c-0.47,0.12-0.87,0.25-1.18,0.34c-2.17,0.62-4.34,1.12-6.57,1.55c-0.15,0.03-0.28,0.06-0.43,0.09c-0.06,0-0.15,0-0.25,0.03
		c-7.32,1.3-15.1,1.67-24.68,2.14c-3.69,0.19-4.81,0.15-8.78,0.19h-0.37c-3.16,0-8.03,0.03-16.9,0.19
		c-2.17,0.03-4.12,0.06-5.86,0.09c-0.56,0-1.12,0.03-1.64,0.03c-3.04,0.06-5.3,0.09-7.04,0.12c-0.68,0.03-1.3,0.06-1.83,0.06
		c-0.19,0-0.37,0.03-0.56,0.03c-3.85,0.22-19.57,3.91-38.67,9.83c-1.92,0.59-3.88,1.21-5.86,1.86c-17.33,5.61-36.62,12.9-52.1,21.09
		c-0.62,0.31-1.21,0.65-1.8,0.96c-1.58,0.87-3.13,1.74-4.62,2.6c-0.9,0.56-1.8,1.09-2.67,1.64c-8,4.99-14.3,10.26-17.64,15.63
		c0,0-1.95,10.33-2.57,18.73c-0.06,0.68-0.19,1.3-0.37,1.89c-0.09,0.31-0.22,0.59-0.34,0.87c-0.09,0.25-0.22,0.5-0.37,0.74
		c-0.09,0.19-0.22,0.4-0.37,0.59c-1.05,1.58-2.6,2.95-4.34,4.16c-0.43,0.34-0.87,0.65-1.3,0.93c-1.02,0.71-2.05,1.4-3.04,2.08
		c-1.83,1.8-3.85,3.69-6.02,6.17c-3.23,7.1-9.05,45.21-15.5,52.96c-1.05,1.27-2.48,2.76-3.94,4.47c-0.5,0.56-0.99,1.12-1.49,1.74
		c-0.31,0.4-0.65,0.84-0.96,1.27c-0.34,0.43-0.65,0.9-0.96,1.36c0,0-0.41,0.61-0.77,1.21C218.42,553.74,217.79,558.58,217.79,558.58
		z"/>
	<path class="st23" d="M291.17,611.31c-2.58-3.9-4.98-8.04-5.98-12.61c-1-4.57-0.45-9.67,2.41-13.38c0.3-0.39,4.1-5.59,9.96-6.24
		c9.99-1.11,18.84,11.73,22.38,20.14c4.11,9.75,6.6,26.5-0.32,29.15C308.91,632.48,296.21,618.93,291.17,611.31z"/>
	<path class="st79" d="M558.85,371.61c-30.4,5.39-48.05,16.61-58.7,26.27c-6.68,6.06-14.66,15.19-30.19,24.68
		c-11.82,7.22-13.74,5.94-24.74,12.07c-23.53,13.13-37.79,31.88-44.43,40.79c-11.79,15.83-9.32,18.62-21.81,33.12
		c-9.96,11.56-14.23,12.36-20.96,22.95c-3.83,6.03-11.93,18.11-11.12,32.76c0.89,16.2,12.08,27.03,15.4,30.02
		c-2.11-0.95-3.89-1.69-5.24-2.23c-3.01-1.2-4.51-1.8-5.52-2.08c-0.28-0.08-0.98-0.23-1.8-0.65c-0.43-0.22-0.83-0.41-1.2-0.62
		c-0.31-0.16-0.62-0.35-0.9-0.53c-0.03,0-0.07-0.03-0.1-0.06c-0.43-0.25-0.83-0.53-1.21-0.84c-0.52-0.37-1.02-0.81-1.52-1.24
		c-0.62-0.56-1.2-1.18-1.79-1.83c-0.5-0.56-1-1.18-1.49-1.8c-1.12-1.49-2.11-3.1-3.01-4.81c-0.43-0.8-0.84-1.64-1.24-2.48
		c0-0.06-0.03-0.09-0.06-0.12c-0.34-0.81-0.72-1.61-1.03-2.45c-0.28-0.68-0.55-1.4-0.8-2.08c-0.37-1.05-0.72-2.11-1.03-3.16
		c-0.21-0.71-0.43-1.4-0.58-2.08c-0.19-0.68-0.38-1.36-0.53-2.04c-0.16-0.63-0.28-1.21-0.4-1.83c-0.1-0.47-0.19-0.97-0.28-1.43
		c-0.1-0.47-0.19-0.93-0.25-1.4c-0.1-0.43-0.16-0.9-0.22-1.33c-0.09-0.43-0.12-0.87-0.19-1.27c-0.06-0.5-0.12-0.96-0.18-1.43
		c-0.06-0.68-0.13-1.33-0.16-1.92c-0.03-0.71-0.06-1.4-0.06-1.98c0-9.06,23.91-40.69,44.56-70.43c0.93-1.33,1.83-2.6,2.76-3.84
		c3.51-4.9,6.95-9.21,10.24-13.03c0.58-0.68,1.17-1.36,1.76-2.01c0.56-0.65,1.15-1.3,1.71-1.92c1.52-1.68,3.01-3.23,4.46-4.69
		c0.47-0.49,0.97-0.96,1.43-1.42c0.47-0.47,0.96-0.93,1.43-1.37c0.31-0.31,0.62-0.62,0.93-0.9c0.49-0.46,1.02-0.96,1.55-1.42
		c2.57-2.36,5.02-4.38,7.32-6.18c0.65-0.49,1.27-0.96,1.89-1.42c0.77-0.59,1.55-1.18,2.32-1.71c0.37-0.28,0.75-0.52,1.09-0.77
		c0.4-0.28,0.84-0.56,1.24-0.84c0.25-0.19,0.5-0.34,0.74-0.5c0.16-0.12,0.28-0.21,0.44-0.34c0.09-0.03,0.21-0.12,0.34-0.18
		c2.26-1.49,4.31-2.79,6.17-3.94c1.08-0.68,2.42-1.43,3.97-2.23c0.53-0.25,1.05-0.53,1.61-0.81c0.56-0.28,1.15-0.56,1.77-0.87
		c0.18-0.09,0.37-0.18,0.59-0.28c0.52-0.25,1.05-0.49,1.61-0.77c0.56-0.25,1.15-0.53,1.74-0.81c1.39-0.65,2.85-1.33,4.4-2.08
		c0.78-0.34,1.55-0.71,2.39-1.11c1.61-0.75,3.32-1.55,5.08-2.42c0.87-0.4,1.77-0.84,2.7-1.3c0.9-0.44,1.83-0.9,2.79-1.37
		c0.93-0.43,1.92-0.93,2.89-1.42c0.96-0.47,1.95-0.97,2.94-1.49c2.39-1.21,4.87-2.51,7.38-3.88c0.19-0.09,0.34-0.19,0.53-0.28
		c0.56-0.31,1.08-0.59,1.64-0.9c1.27-0.71,2.58-1.42,3.88-2.2c0.4-0.22,0.81-0.43,1.21-0.68c0.28-0.16,0.56-0.31,0.84-0.5
		c2.17-1.21,4.34-2.51,6.57-3.91c0.93-0.55,1.89-1.14,2.85-1.73c0.44-0.28,0.9-0.56,1.37-0.87c0.15-0.09,0.28-0.19,0.43-0.28
		c1.18-0.71,2.36-1.49,3.54-2.29c0.21-0.13,0.4-0.25,0.59-0.38c0.21-0.12,0.43-0.27,0.62-0.43c3.19-2.11,6.38-4.34,9.64-6.7
		c8.09-5.92,15.97-10.23,23.47-13.33h0.03c0.07,0,0.1-0.03,0.16-0.06c0.62-0.25,1.24-0.5,1.83-0.72c0.09-0.03,0.19-0.06,0.25-0.09
		c3.63-1.36,7.13-2.45,10.51-3.29c0.78-0.21,1.55-0.4,2.29-0.56C545.65,371.92,552.67,371.42,558.85,371.61z"/>
	<path class="st78" d="M403.63,578.97c0.48-1.52,17.49,1.61,33.1,7.42c2.42,0.9,11.48,4.35,22.46,10.68
		c6.92,3.98,10.37,5.98,13.97,9.21c9.79,8.79,13.16,19.65,15.62,27.56c1.95,6.29,1.81,17.12,1.52,38.79
		c-0.02,1.43-0.1,4.41-2.08,5.83c-1.51,1.08-3.96,1.15-5.08,0c-1.5-1.53-0.31-4.92,0.18-6.46c4.45-13.96,0.57-31.15,0.11-33.21
		c-1.12-4.96-2.73-8.34-4.87-12.82c-2.09-4.37-5.9-12.36-13.07-19.66c-10.15-10.32-22.14-14.31-26.61-15.58
		c-8.68-2.46-13.18-1.56-24.24-5.92C410.91,583.32,403.3,580.02,403.63,578.97z"/>
	<path class="st78" d="M458.12,661.54c-3.42-1.44-7.1-2.98-11.47-4.06c-8.94-2.22-11.29-0.16-13.22-2.29
		c-2.97-3.29,1.41-9.54,5.23-23.2c3.87-13.84,3.84-23.41,4.54-23.35c0.69,0.07,1.64,9.67-0.38,20.72
		c-2.1,11.54-5.96,16.67-3.06,20.5c1.96,2.59,4.53,1.32,11.05,3.65c10.23,3.66,16.9,11.44,16.44,12.12
		C467,665.99,464.65,664.28,458.12,661.54z"/>
	<path class="st78" d="M414.76,633.4c-1.82,7.72-2.91,12.36-3,18.27c-0.24,15.05,6.17,26.55,6.46,26.46
		c0.19-0.06-1.94-5.36-2.46-13.9c-0.01-0.18-0.25-4.31,0.09-8.63c1.3-16.42,12.61-56.06,11.51-56.46c-0.55-0.2-4.57,9.38-7.17,16.49
		C418.79,619.46,416.64,625.4,414.76,633.4z"/>
	<path class="st78" d="M447.55,558.61c3.92,1.94,7.5,4.55,11.45,6.42c2.86,1.35,5.9,2.32,8.68,3.82c4.42,2.4,8,6.07,11.51,9.68
		c2.95,3.04,5.9,6.07,8.85,9.11c1.62-4.26-1.47-8.74-4.38-12.26c-2.28-2.75-4.56-5.51-7.23-7.89c-8.46-7.55-19.9-10.59-30.89-13.39
		c-2.73-0.7-24.27-5.92-21.02-1.02c1.91,2.88,7.59,1.47,10.5,1.82C439.37,555.41,443.63,556.66,447.55,558.61z"/>
	<path class="st78" d="M507.11,618.56c3.02,9.28,3.56,19.15,4.58,28.86c0.26,2.44,0.67,5.13,2.56,6.7
		c0.85-5.62,1.69-11.42,0.32-16.94c-0.45-1.81-1.13-3.57-1.39-5.41c-0.38-2.76,0.21-5.58-0.16-8.34
		c-0.42-3.22-3.61-12.26-6.04-14.44C501.95,604.44,506.27,615.97,507.11,618.56z"/>
	<path class="st78" d="M775.59,449.27c6.4,7.37,10.75,16.25,15.47,24.79c1.19,2.15,2.62,4.46,4.97,5.17
		c-1.41-5.51-2.9-11.17-6.31-15.72c-1.12-1.49-2.43-2.84-3.39-4.44c-1.43-2.39-1.99-5.22-3.4-7.62c-1.65-2.8-8.11-9.88-11.19-10.95
		C765.33,438.28,773.8,447.21,775.59,449.27z"/>
	<path class="st78" d="M539.25,598.48c-4.57-7.54-6.91-13.04-8.69-16.74c-3.57-7.41-11.28-23.39-22.47-34.03
		c-16.71-15.88-36.24-15.36-35.86-20.62c0.36-5.12,16.39-7.91,20.76-8.67c7.97-1.39,8.76-0.19,34.38,0.42
		c10.21,0.24,13.99,0.15,20.11,1.81c5.95,1.62,10.24,3.85,15.85,6.76c8.43,4.38,17.8,10.41,17.3,11.38
		c-0.5,0.97-11.07-2.81-18.51-6.16c-4.17-1.88-8.28-4.03-12.09-4.37c-0.6-0.05-3.12-0.23-6.41-1.05c-1.18-0.29-2.03-0.57-2.22-0.62
		c-10.78-2.77-19.35-2.84-28.29-2.86c-7.91-0.01-26.8,0.66-27.05,3.61c-0.14,1.61,5.48,1.69,13.71,6.42
		c7.91,4.54,12.71,10.2,21.3,20.33c3.52,4.15,5.34,6.73,6.92,9.4c2.87,4.87,3.97,8.37,5.37,12.02c5.08,13.27,8.23,13.19,13.87,27.17
		c1.49,3.69,3.3,8.74,4.84,14.88c2.95,11.76,3.77,23.05,3.09,23.17c-0.25,0.04-1.07-2.77-2.69-8.39c-2.29-7.93-2.25-8.44-3.54-12.62
		c-1.43-4.61-2.72-8.7-5.19-13.63C542.14,602.96,541.15,601.62,539.25,598.48z"/>
	<path class="st78" d="M535.01,546.45c-0.14,0.59,6.85,1.65,14.14,5.68c2.98,1.65,12.26,7.24,21.21,23.75
		c12.86,23.71,11.84,45.58,15.35,45.48c1.74-0.05,1.9-5.45,6.11-14.45c4.08-8.73,7.37-11.02,10.95-16.78
		c8.38-13.5,7.59-28.71,6.97-40.6c-0.51-9.81-0.97-18.58-5.25-27.12c-14.28-28.53-60.8-33.77-61.09-32.94
		c-0.11,0.32,6.51,2.07,23.5,10.45c14.03,6.91,21.12,10.45,24.89,14.75c8.9,10.16,10,22.87,10.63,30.16
		c0.8,9.22-0.56,16.1-2.09,23.5c-2.34,11.36-8.12,30.85-12.9,30.4c-3.31-0.31-2-9.78-9.03-23.61c-2.68-5.28-9-17.32-21.94-24.03
		C546.06,545.7,535.18,545.73,535.01,546.45z"/>
	<path class="st78" d="M621.02,496.53c4.14,3.16,12.88,10.37,20.77,21.37c6.13,8.54,14.92,20.8,15.98,38.02
		c1.02,16.56-5.56,30.51-6.61,30.31c-0.73-0.14,0.8-7.07,0.55-19.84c-0.18-9.14-0.28-14.58-1.94-20.66
		c-2.38-8.71-8.15-14.94-18.41-28c-5.37-6.84-10.82-13.74-17.64-19.13c-11.23-8.88-18.1-12-26.32-23.18
		c-3.6-4.9-6.29-9.94-5.67-10.42c0.9-0.7,7.72,9.23,20.97,19.42C611.23,490.98,613.02,490.42,621.02,496.53z"/>
	<path class="st78" d="M645.92,491.35c13.02,11.94,25.26,25.96,29.45,43.13c1.33,5.44,1.82,11.1,3.86,16.31
		c0.29,0.74,1.28,1.56,1.7,0.89c0.59-9.01,0.42-18.08-0.53-27.06c-0.36-3.4-0.84-6.85-2.32-9.92c-1.77-3.68-4.83-6.55-7.83-9.34
		c-7.27-6.76-14.53-13.51-21.8-20.27C639.58,476.84,639.14,485.14,645.92,491.35z"/>
	<path class="st78" d="M673.98,465.47c6.16,7,12.24,14.08,18.24,21.22c3.51,4.19,7.04,8.46,9.33,13.42
		c1.99,4.31,2.78,7.85,4.25,19.14c2.43,18.69,2.65,27.15,6.22,40.13c0.99,3.6,2.59,9.42,3.48,9.28c1.62-0.26-0.08-20.13-1.88-33.53
		c-0.95-7.09-2.27-13.03-3.28-18.8c-1.17-6.72-2.38-13.56-5.54-19.61c-3.81-7.3-10.15-12.9-15.42-19.22
		c-11.84-14.19-10.38-16.51-17.3-22.03c-10.51-8.39-22.5-10.44-22.75-9.87c-0.18,0.41,5.49,2.37,12.58,7.81
		C664.33,455.27,666.54,457.02,673.98,465.47z"/>
	<path class="st78" d="M734.46,471.34c3.58,4.62,5.68,7.4,7.65,11.74c3.4,7.48,3.86,13.98,4.06,16.61
		c1.49,19.32,6.19,51.34,7.61,51.3c1.01-0.03,1.63-16.48,0.98-31.57c-0.27-6.39-2.09-16.78-5.71-37.55
		c-0.45-2.59-1.23-6.82-4.16-11.17c-2.65-3.94-5.59-5.8-9.68-8.68c-12.51-8.8-17.58-14.35-18.2-13.71
		C716.42,448.93,721.03,454,734.46,471.34z"/>
	<path class="st78" d="M787.57,520.92c0.99,5.31,1.13,10.73,1.27,16.12c0.21,8.18,0.43,16.36,0.64,24.53
		c1.17,0.72,2.29-1.01,2.6-2.35c3.57-15.68,6.96-32.94-0.56-47.15c-2.54-4.81-6.2-8.93-9.89-12.93c-1.75-1.89-3.4-3.28-5.76-3.1
		C780.87,504.06,785.78,511.34,787.57,520.92z"/>
	<path class="st78" d="M372.48,540.25c3.64,0.96,4.28,0.22,13.29,1.61c5.98,0.92,9.02,1.41,11.63,2.63
		c6.77,3.17,8.73,8.07,10.52,7.22c1.65-0.78,1.83-5.86-0.56-9.1c-2.58-3.48-7.44-3.86-9.25-4.03c-20.36-1.87-39.01-12.24-40.34-9.11
		C356.89,531.55,364.27,538.09,372.48,540.25z"/>
	<path class="st78" d="M481.76,445.37c0.38-0.74-2.82-3.15-4.5-4.29c-4.52-3.05-7.42-3.16-17.74-6.2c-0.79-0.23-4.64-1.37-9.79-2.71
		c-2.65-0.69-5.94-1.51-9.73-0.63c-0.41,0.1-2.91,0.7-2.87,1.3c0.03,0.45,1.42,0.69,2.58,0.9c8.72,1.55,7.71,1.43,8.32,1.49
		c2.66,0.24,3.99,0.8,11.23,3.33C473.95,443.7,481.3,446.26,481.76,445.37z"/>
	<path class="st78" d="M493.33,453.99c7.16,3.4,7.67,6.43,25.56,19.1c7.62,5.4,8.18,5.31,8.3,5.18c0.6-0.68-6.3-7.64-9.76-10.96
		c-5.51-5.3-3.9-2.9-13.16-10.95c-3.26-2.83-6.02-5.35-10.19-5.71c-1.69-0.15-4.2,0.01-4.36,0.77
		C489.54,452.24,492.26,453.47,493.33,453.99z"/>
	<path class="st78" d="M517.51,432.84c3.34,3.34,8.11,8.11,12.9,14.78c8.21,11.44,10.84,20.64,12,20.23
		c0.95-0.34-0.31-6.65-1.63-10.86c-0.53-1.7-1.79-5.33-4.44-9.7c-2.1-3.47-3.82-5.33-10.01-12.22c-8.26-9.2-7.55-8.51-8.13-9.08
		c-13.84-13.83-23.84-14.76-26.03-14.89c-0.92-0.06-3.31-0.19-3.53,0.54c-0.42,1.37,7.34,3.81,16.07,9.9
		C509.6,424.95,512.72,428.06,517.51,432.84z"/>
	<path class="st78" d="M542.33,421.06c0.06,3.47-0.38,7.36,1.86,10.02c2.53,3.02,6.88,3.18,8.77,3.3
		c17.93,1.11,34.95,12.41,35.89,10.39c0.54-1.16-4.81-5.44-10.44-8.02c-6.74-3.09-17.49-5.41-23.23-6.64
		c-1.38-0.3-4.24-0.9-6.25-3.26c-1.97-2.31-2.12-5.13-2.2-6.11c-0.96-11.5-13.73-22.9-11.1-25.76c0.58-0.63,1.42-0.32,10.58,2
		c9.24,2.34,12.75,3.13,13.03,2.44c0.16-0.37-0.71-1.06-1.09-1.36c-5.62-4.42-26.56-11.18-28.82-6.18
		c-0.91,2.01,1.05,4.09,6.89,11.85C539.97,408.69,542.23,414.82,542.33,421.06z"/>
	<path class="st78" d="M586.94,403.22c9.89,9.63,11.17,7.02,16.56,13.58c6.8,8.27,9.27,17.91,8.69,18.19
		c-0.25,0.12-1.4-1.36-5.11-7.88c0,0,0,0,0,0c-1.29-1.99-2.44-3.37-2.52-3.51c-1.68-2.81-35.71-28.67-34.73-30.43
		c0.29-0.51,3.64,0.79,5.97,1.9C581.54,397.81,585.02,401.35,586.94,403.22z"/>
	<path class="st78" d="M365,420.91c9.25,10.25,10.7,7.72,15.66,14.61c6.25,8.69,8.1,18.47,7.5,18.71c-0.26,0.11-1.31-1.45-4.59-8.2
		c0,0,0,0,0,0c-1.16-2.07-2.22-3.52-2.29-3.66c-1.5-2.92-33.8-30.91-32.7-32.59c0.32-0.49,3.58,1.02,5.84,2.28
		C359.96,415.16,363.2,418.91,365,420.91z"/>
	<path class="st78" d="M632.85,421.43c0.27-0.16-0.08-1.04-1.66-6c-1.32-4.15-1.27-4.17-1.56-4.73c-1.4-2.69-3.51-4.13-6.04-5.81
		c-3.5-2.33-7.52-4.07-7.79-3.62c-0.24,0.4,2.94,1.9,6.23,5.82c2.4,2.85,2.19,3.82,5.27,8.19
		C629.16,417.91,632.23,421.8,632.85,421.43z"/>
	<path class="st78" d="M344.37,492.21c0.3-0.36-0.6-1.3-5.11-6.88c-3.77-4.67-3.72-4.72-4.38-5.29c-3.2-2.73-6.81-3.45-11.1-4.26
		c-5.95-1.12-12.34-1.19-12.51-0.46c-0.15,0.65,4.98,0.86,11.38,4.15c4.66,2.4,4.82,3.77,11.14,7.76
		C337.6,489.65,343.68,493.03,344.37,492.21z"/>
	<path class="st78" d="M379.52,626.49c-0.22-1.38-14.69,1.02-34.87,0.61c-13.55-0.28-23.85-0.49-36.11-4.02
		c-19.94-5.74-32.51-16.63-33.77-14.92c-0.74,1.01,3.16,5.39,6.87,8.65c11.91,10.46,25.46,12.48,42.5,14.8
		c22.22,3.02,36.51,0.73,45.34-1.45C370.41,629.93,379.7,627.61,379.52,626.49z"/>
	<path class="st78" d="M331.69,649.06c-0.25,1.32,13.16,6.85,28.52,6.22c11.49-0.47,21.73-4.3,21.53-5.57
		c-0.2-1.25-10.39,0.46-31.15-0.1C336.94,649.25,331.84,648.26,331.69,649.06z"/>
	<path class="st78" d="M292.65,591.51c-19.31-4.82-27.3-7.54-43.3-12.96c-3.28-1.11-9.79-3.4-10.19-7.29
		c-0.23-2.25,1.64-4.4,7.12-8.79c7.66-6.14,14.08-10.01,15.99-11.17c14.75-8.98,14.16-10.72,23.64-15.23
		c7.43-3.54,16.25-6.5,16.81-5.39c0.53,1.06-6.71,5.29-16.75,12.27c-21.88,15.2-32.86,22.82-31.57,28.32
		c1.38,5.88,15.08,2.02,42.54,11.56c13.78,4.78,18.08,8.44,31.52,10.5c11.98,1.84,21.44,0.91,21.54,2.1
		c0.1,1.16-8.78,3.52-17.89,4.1C319.12,600.35,314.57,596.99,292.65,591.51z"/>
	<path class="st78" d="M272.17,497.73c8.22-0.18,14.36,1.1,26.64,3.68c15.05,3.15,20.8,5.69,24.1,7.35
		c4.19,2.1,11.61,6.38,10.78,7.88c-0.86,1.55-10.21-0.55-21.57-3.15c-17.42-3.99-19.18-5.55-30.17-7.79
		c-18-3.67-29.38-2.76-29.45-4.29C252.43,499.97,262.53,497.94,272.17,497.73z"/>
	<path class="st78" d="M305.3,471.15c0.07-0.3-0.17-0.87-5.03-3.4c-2.75-1.43-4.59-2.39-7.5-3.51c-2.68-1.04-4.34-1.68-6.73-2.08
		c-2.16-0.37-6.77-0.85-7.04,0.09c-0.24,0.86,3.39,1.79,12.72,6.64c2.51,1.3,5.92,3.14,10.43,3.06
		C302.78,471.94,305.13,471.89,305.3,471.15z"/>
	<path class="st78" d="M358.36,473.42c0.59,0.94,2.51,4.11,3.11,3.86c0.6-0.25-0.34-3.88-1.3-6.47c-0.96-2.6-2.07-4.43-2.29-4.85
		c-3.26-6.23-6.62-12.6-11.9-17.39c-4.86-4.41-11.04-7.2-17.13-9.83c-6.99-3.02-9.87-4.1-13.06-4.31
		c-5.13-0.33-11.49,0.8-11.62,2.38c-0.21,2.6,16.91,0.25,31.3,11.1C342.81,453.46,353.38,465.4,358.36,473.42z"/>
	<path class="st78" d="M404.19,423.01c3.78,6.6,5.19,9.19,5.9,8.94c0.64-0.23,0.31-2.62,0.25-3.06c-0.37-2.71-1.61-4.48-2.46-5.83
		c-4.09-6.51-3.22-9.94-6.75-11.56c-0.46-0.21-1.95-0.89-2.53-0.33C397.74,411.99,399.53,414.89,404.19,423.01z"/>
</g>
</svg>
