<?xml version="1.0" encoding="utf-8"?>
<!-- Generator: Adobe Illustrator 27.0.0, SVG Export Plug-In . SVG Version: 6.00 Build 0)  -->
<svg version="1.1" id="Layer_1" xmlns="http://www.w3.org/2000/svg" xmlns:xlink="http://www.w3.org/1999/xlink" x="0px" y="0px"
	 viewBox="0 0 1080 1080" style="enable-background:new 0 0 1080 1080;" xml:space="preserve">
<style type="text/css">
	.st0{fill:none;stroke:#000000;stroke-linecap:round;stroke-linejoin:round;stroke-miterlimit:10;}
	.st1{display:none;}
	.st2{display:inline;opacity:0.7;fill:#C45233;}
	.st3{fill:#FFFFFF;}
	.st4{fill:#EAD3A4;}
	.st5{fill:#DBA865;}
	.st6{fill:#D19F62;}
	.st7{fill:#D0602F;}
	.st8{fill:#C45233;}
	.st9{fill:#F4824A;}
	.st10{fill:#F48B62;}
	.st11{opacity:0.15;fill:#FFFFFF;}
	.st12{opacity:0.6;fill:#F28B4C;}
	.st13{opacity:0.7;fill:#C45233;}
	.st14{opacity:0.35;}
	.st15{opacity:0.37;fill:#DB7446;}
	.st16{opacity:0.4;fill:url(#SVGID_1_);}
	.st17{opacity:0.4;fill:url(#SVGID_00000070802358051051460320000012540071750930550421_);}
	.st18{opacity:0.4;fill:url(#SVGID_00000142873269873351561350000000031592043950380928_);}
	.st19{fill:none;}
	.st20{opacity:0.4;fill:url(#SVGID_00000180330688312737679240000005619528447547773119_);}
	.st21{opacity:0.4;fill:url(#SVGID_00000114786963199371175560000000661848996678452144_);}
	.st22{opacity:0.4;fill:url(#SVGID_00000083068456507954611350000003797725850304644029_);}
	.st23{opacity:0.4;fill:url(#SVGID_00000038385392886523553720000006395697685969768343_);}
	.st24{opacity:0.08;fill:#FFFFFF;}
	.st25{opacity:0.4;fill:url(#SVGID_00000129166083199617095010000011301144445581577868_);}
	.st26{opacity:0.4;fill:url(#SVGID_00000011730880318107129330000001525035972916901794_);}
	.st27{opacity:0.4;fill:url(#SVGID_00000121253768655279093570000018047983895650180993_);}
	.st28{opacity:0.4;fill:url(#SVGID_00000142867128905345799950000009440002550495396283_);}
	.st29{opacity:0.4;fill:url(#SVGID_00000150078554989766062310000009569222924064078767_);}
	.st30{opacity:0.4;fill:url(#SVGID_00000124145602818175347290000007902346816091836558_);}
	.st31{opacity:0.4;fill:url(#SVGID_00000143601056202070376540000009597168547206718651_);}
	.st32{opacity:0.4;fill:url(#SVGID_00000095324076671176824940000004493671230013806989_);}
	.st33{opacity:0.4;fill:url(#SVGID_00000065758286934933382280000012798568745651601583_);}
	.st34{opacity:0.4;}
	.st35{opacity:0.35;fill:url(#SVGID_00000013178953660158987810000010034467291267237308_);}
	.st36{opacity:0.35;fill:url(#SVGID_00000019640190341823130230000009340599037788645258_);}
	.st37{opacity:0.4;fill:url(#SVGID_00000092439089750353689440000014495694305784904842_);}
	.st38{opacity:0.4;fill:url(#SVGID_00000110460250096616497590000009817368362357220237_);}
	.st39{opacity:0.4;fill:url(#SVGID_00000157300802536804539100000008014062935789212326_);}
	.st40{opacity:0.4;fill:url(#SVGID_00000083085728958117732330000017402081413537432754_);}
	.st41{fill:url(#SVGID_00000099651525273309209470000004039695920426280888_);}
	.st42{fill:url(#SVGID_00000147920104169187497010000007144937874249672351_);}
	.st43{opacity:0.7;}
	.st44{fill:url(#SVGID_00000107577907204542064330000006930993295426552237_);}
	.st45{fill:#F9F2EA;}
	.st46{opacity:0.5;fill:#E5DDD6;}
	.st47{opacity:0.45;fill:#F9F6F4;}
	.st48{opacity:0.65;fill:#FFFFFF;}
	.st49{fill:#F4DC98;}
	.st50{fill:#E5C98C;}
	.st51{opacity:0.6;fill:#F9E4BB;}
	.st52{opacity:0.8;fill:#F9E4BB;}
	.st53{opacity:0.25;fill:#FFFFFF;}
	.st54{fill:#618928;}
	.st55{fill:#93AA31;}
	.st56{fill:#809B2C;}
	.st57{opacity:0.6;fill:#93AA31;}
	.st58{opacity:0.6;fill:#618928;}
	.st59{opacity:0.5;fill:#828E93;}
	.st60{fill:#E5F2F9;}
	.st61{fill:#CFDEE5;}
	.st62{fill:#B6CBD3;}
	.st63{opacity:0.5;fill:#CFDEE5;}
	.st64{fill:#B6C8CE;}
	.st65{opacity:0.3;fill:#997552;}
	.st66{opacity:0.4;fill:url(#SVGID_00000127741608361513274530000014220680284277621380_);}
	.st67{opacity:0.4;fill:url(#SVGID_00000018199632258885561060000012997428534381005234_);}
	.st68{opacity:0.4;fill:url(#SVGID_00000015312435710963936600000009749397378044460203_);}
	.st69{opacity:0.4;fill:url(#SVGID_00000094588230992283352770000004426460053653341093_);}
	.st70{opacity:0.4;fill:url(#SVGID_00000008111815835119161610000008275491938368155835_);}
	.st71{opacity:0.4;fill:url(#SVGID_00000178194902742071636320000008155660220509938327_);}
	.st72{opacity:0.4;fill:url(#SVGID_00000119114639190116310420000017019371688371024045_);}
	.st73{opacity:0.4;fill:url(#SVGID_00000062172072046112621340000015754945199898922942_);}
	.st74{opacity:0.4;fill:url(#SVGID_00000065055007267119928790000006413044002174356368_);}
	.st75{opacity:0.4;fill:url(#SVGID_00000051344038017113100000000009008298985828559517_);}
	.st76{opacity:0.4;fill:url(#SVGID_00000168110949039557313170000004001098687207860655_);}
	.st77{opacity:0.4;fill:url(#SVGID_00000076602787238397411290000004111783325376418469_);}
	.st78{opacity:0.4;fill:url(#SVGID_00000138532236993255634420000006555187077039265921_);}
	.st79{opacity:0.4;fill:url(#SVGID_00000124842178419294851160000012910165932315899562_);}
	.st80{opacity:0.4;fill:url(#SVGID_00000045583276907459054830000012001693203242515605_);}
	.st81{opacity:0.4;fill:url(#SVGID_00000068674081091153620670000010612857495648904380_);}
	.st82{opacity:0.35;fill:url(#SVGID_00000093877164894341635060000006493279353913536932_);}
	.st83{opacity:0.35;fill:url(#SVGID_00000049216904086965620270000006759579070362151577_);}
	.st84{opacity:0.4;fill:url(#SVGID_00000080192290033343315000000010243155812959038614_);}
	.st85{opacity:0.4;fill:url(#SVGID_00000048487432126905976520000013037072342501926327_);}
	.st86{opacity:0.4;fill:url(#SVGID_00000062178417298783280780000000708429499552657848_);}
	.st87{opacity:0.4;fill:url(#SVGID_00000131334513718250587920000007481988350821344932_);}
	.st88{fill:url(#SVGID_00000054955965990553100680000002766688275284810119_);}
	.st89{fill:url(#SVGID_00000107584504738251454240000007500628269004103063_);}
	.st90{fill:url(#SVGID_00000170266007402037833350000017480792255767420819_);}
	.st91{opacity:0.4;fill:url(#SVGID_00000078750579934179335430000016362572635735281810_);}
	.st92{opacity:0.4;fill:url(#SVGID_00000129206157469774927230000005637909934935255735_);}
	.st93{opacity:0.4;fill:url(#SVGID_00000089551758744084863880000008962181360358733489_);}
	.st94{opacity:0.4;fill:url(#SVGID_00000030488774069431007500000011176953082732620987_);}
	.st95{opacity:0.4;fill:url(#SVGID_00000102539813165739902990000000832873535311146140_);}
	.st96{opacity:0.4;fill:url(#SVGID_00000114058597607713160430000003142066993770879135_);}
	.st97{opacity:0.4;fill:url(#SVGID_00000072261407130068851950000015215683399138209678_);}
	.st98{opacity:0.4;fill:url(#SVGID_00000021082578353772238970000010361640313881141138_);}
	.st99{opacity:0.4;fill:url(#SVGID_00000161632808255201294550000015044067095465251478_);}
	.st100{opacity:0.4;fill:url(#SVGID_00000114049375331421189110000009348212889104410767_);}
	.st101{opacity:0.4;fill:url(#SVGID_00000000195714899360665440000003213330379312140949_);}
	.st102{opacity:0.4;fill:url(#SVGID_00000021841573719982793600000005906202608136738709_);}
	.st103{opacity:0.4;fill:url(#SVGID_00000047042181723259239570000006092626541033290383_);}
	.st104{opacity:0.4;fill:url(#SVGID_00000165212756126342139620000013686044645521618616_);}
	.st105{opacity:0.4;fill:url(#SVGID_00000036970597145592611360000016475416033884867734_);}
	.st106{opacity:0.4;fill:url(#SVGID_00000152233827631699498070000008837475397974090146_);}
	.st107{opacity:0.35;fill:url(#SVGID_00000124846094391068815370000002885031907695018632_);}
	.st108{opacity:0.35;fill:url(#SVGID_00000096056671206663838790000006265028357795417276_);}
	.st109{opacity:0.4;fill:url(#SVGID_00000006695753340330599010000006660307549578172039_);}
	.st110{opacity:0.4;fill:url(#SVGID_00000142894761934297676250000014943775045654689467_);}
	.st111{opacity:0.4;fill:url(#SVGID_00000123422004336501804140000005946127549991858360_);}
	.st112{opacity:0.4;fill:url(#SVGID_00000079470201965772909650000012980842423616272798_);}
	.st113{fill:url(#SVGID_00000114067032756761940310000011508045107312156552_);}
	.st114{fill:url(#SVGID_00000082370468730200430480000009418124350789299590_);}
	.st115{fill:url(#SVGID_00000082367061419959879510000007983190575386461331_);}
	.st116{opacity:0.4;fill:url(#SVGID_00000133525034954587605530000000260938059032865448_);}
	.st117{opacity:0.4;fill:url(#SVGID_00000177455570339086420200000018375638151548320681_);}
	.st118{opacity:0.4;fill:url(#SVGID_00000059300132856862784480000008271367013172265096_);}
	.st119{opacity:0.4;fill:url(#SVGID_00000130621606228629670790000013872715117665618056_);}
	.st120{opacity:0.4;fill:url(#SVGID_00000149358290714848835360000001370260415308979636_);}
	.st121{opacity:0.4;fill:url(#SVGID_00000152235589987049649080000011422573091603119239_);}
	.st122{opacity:0.4;fill:url(#SVGID_00000026151674616547258590000004895870388332940166_);}
	.st123{opacity:0.4;fill:url(#SVGID_00000133510087173492343090000016223000670294019201_);}
	.st124{opacity:0.4;fill:url(#SVGID_00000057830823751333536220000001019863854005028020_);}
	.st125{opacity:0.4;fill:url(#SVGID_00000097497332832630511550000007470822280834985877_);}
	.st126{opacity:0.4;fill:url(#SVGID_00000167362664163232872380000018293724978470110907_);}
	.st127{opacity:0.4;fill:url(#SVGID_00000087375402719245108180000007270770981028894613_);}
	.st128{opacity:0.4;fill:url(#SVGID_00000136407350526172366540000005932277731056992138_);}
	.st129{opacity:0.4;fill:url(#SVGID_00000181765651881409861860000017650224304892788645_);}
	.st130{opacity:0.4;fill:url(#SVGID_00000074426137843568299340000013013405275955949744_);}
	.st131{opacity:0.4;fill:url(#SVGID_00000026126933994509843710000003202111403652281228_);}
	.st132{opacity:0.35;fill:url(#SVGID_00000146487398315852382300000012152906005995358629_);}
	.st133{opacity:0.35;fill:url(#SVGID_00000132806540129674864650000002795791975660074654_);}
	.st134{opacity:0.4;fill:url(#SVGID_00000052794579794865213050000018092628837383786936_);}
	.st135{opacity:0.4;fill:url(#SVGID_00000032639177661557308510000010230506691795183783_);}
	.st136{opacity:0.4;fill:url(#SVGID_00000120533469450613341390000015970441360564844735_);}
	.st137{opacity:0.4;fill:url(#SVGID_00000071536218919141144020000014717106699063796156_);}
	.st138{fill:url(#SVGID_00000180356240447804180510000006260169684298402696_);}
	.st139{fill:url(#SVGID_00000008107019478585022560000015859522118460827268_);}
	.st140{fill:url(#SVGID_00000034767976316833006840000000182383400418340021_);}
	.st141{opacity:0.4;fill:url(#SVGID_00000007406854090441410780000015117232654728041151_);}
	.st142{opacity:0.4;fill:url(#SVGID_00000160884972844983212710000003819889653188191375_);}
	.st143{opacity:0.4;fill:url(#SVGID_00000021808146399882523110000010171095130243890605_);}
	.st144{opacity:0.4;fill:url(#SVGID_00000067948182510857084080000004063821621882184124_);}
	.st145{opacity:0.4;fill:url(#SVGID_00000155838403558437866020000015691190413307459764_);}
	.st146{opacity:0.4;fill:url(#SVGID_00000005985559848621929800000002192380221213269664_);}
	.st147{opacity:0.4;fill:url(#SVGID_00000111171166531254532810000011760233622265928613_);}
	.st148{opacity:0.4;fill:url(#SVGID_00000002379260712758664800000013849727373826667686_);}
	.st149{opacity:0.4;fill:url(#SVGID_00000029752055553793642730000015378689602709881786_);}
	.st150{opacity:0.4;fill:url(#SVGID_00000142861808553563606060000001647580559883691930_);}
	.st151{opacity:0.4;fill:url(#SVGID_00000073720285918825989410000006483960558788406424_);}
	.st152{opacity:0.4;fill:url(#SVGID_00000031173583279299564790000001399307016270087050_);}
	.st153{opacity:0.4;fill:url(#SVGID_00000032620213394166811350000010523935287211290524_);}
	.st154{opacity:0.4;fill:url(#SVGID_00000107581124206599252490000017566360602204613821_);}
	.st155{opacity:0.4;fill:url(#SVGID_00000077304686695921321070000004541195666986332577_);}
	.st156{opacity:0.4;fill:url(#SVGID_00000042697243603144694790000003614626761574856849_);}
	.st157{opacity:0.35;fill:url(#SVGID_00000008109848188116814550000001774852772275960743_);}
	.st158{opacity:0.35;fill:url(#SVGID_00000119802331462026735400000013409447788801872812_);}
	.st159{opacity:0.4;fill:url(#SVGID_00000162327160265547331330000003137135348573619618_);}
	.st160{opacity:0.4;fill:url(#SVGID_00000005265318193929036210000015212131118925661077_);}
	.st161{opacity:0.4;fill:url(#SVGID_00000157995252992093282030000006892572659480453256_);}
	.st162{opacity:0.4;fill:url(#SVGID_00000123442815321907474440000006599550360774925710_);}
	.st163{fill:url(#SVGID_00000008120360473721586420000012621557718017827496_);}
	.st164{fill:url(#SVGID_00000147933604981899007750000005662395067275620009_);}
	.st165{fill:url(#SVGID_00000150803773374383010830000005688170714575399585_);}
	.st166{opacity:0.4;fill:url(#SVGID_00000072993549742217894370000002939271579273546425_);}
	.st167{opacity:0.4;fill:url(#SVGID_00000160189328630011057050000017639155595465562802_);}
	.st168{opacity:0.4;fill:url(#SVGID_00000001627229533132172540000005036896736238399643_);}
	.st169{opacity:0.4;fill:url(#SVGID_00000131338276381794324700000010902881593623902909_);}
	.st170{opacity:0.4;fill:url(#SVGID_00000009558382847315943860000000615583947084507039_);}
	.st171{opacity:0.4;fill:url(#SVGID_00000124858564380287684850000001333900646457865399_);}
	.st172{opacity:0.4;fill:url(#SVGID_00000085252401967917471540000016934322901111740860_);}
	.st173{opacity:0.4;fill:url(#SVGID_00000142169906811178736740000011829151959317466802_);}
	.st174{opacity:0.4;fill:url(#SVGID_00000053510024805286356710000014742404790275611832_);}
	.st175{opacity:0.4;fill:url(#SVGID_00000015334341226315624770000001619575219137069472_);}
	.st176{opacity:0.4;fill:url(#SVGID_00000178186954725878310700000011653316453456914095_);}
	.st177{opacity:0.4;fill:url(#SVGID_00000052802047969810218750000017859883826849845896_);}
	.st178{opacity:0.4;fill:url(#SVGID_00000158712462111878798840000013717997216167158459_);}
	.st179{opacity:0.4;fill:url(#SVGID_00000026877478234317209560000002957080215697041330_);}
	.st180{opacity:0.4;fill:url(#SVGID_00000042738837013353376090000016200610324303845311_);}
	.st181{opacity:0.4;fill:url(#SVGID_00000095312323257676880300000006621273778287962526_);}
	.st182{opacity:0.35;fill:url(#SVGID_00000069362320943127976820000011868642390916288410_);}
	.st183{opacity:0.35;fill:url(#SVGID_00000092416632995920857910000001095647025896670139_);}
	.st184{opacity:0.4;fill:url(#SVGID_00000098191105198932654350000014422970910212290701_);}
	.st185{opacity:0.4;fill:url(#SVGID_00000039120314891356735640000011095273396572705156_);}
	.st186{opacity:0.4;fill:url(#SVGID_00000183237845390381579270000007503180669641548683_);}
	.st187{opacity:0.4;fill:url(#SVGID_00000170957414330453775380000016305632915266655619_);}
	.st188{fill:url(#SVGID_00000058561239036293003750000014030251660384816807_);}
	.st189{fill:url(#SVGID_00000065054380521709847470000014906158543598440331_);}
	.st190{fill:url(#SVGID_00000008149545740577743290000004057287899423691945_);}
	.st191{opacity:0.4;fill:url(#SVGID_00000052797147379306867770000003800306294082304406_);}
	.st192{opacity:0.4;fill:url(#SVGID_00000078023818783560740310000011278296490865862535_);}
	.st193{opacity:0.4;fill:url(#SVGID_00000067954010822907155220000015177258023307727282_);}
	.st194{opacity:0.4;fill:url(#SVGID_00000101819537731133489680000011861895716630377390_);}
	.st195{opacity:0.4;fill:url(#SVGID_00000023961924377838530230000007458910123256725171_);}
	.st196{opacity:0.4;fill:url(#SVGID_00000005243688085521683610000001226094241273251733_);}
	.st197{opacity:0.4;fill:url(#SVGID_00000023269374856928962940000008672434089803623574_);}
	.st198{opacity:0.4;fill:url(#SVGID_00000054263192792724798760000010278877164754669440_);}
	.st199{opacity:0.4;fill:url(#SVGID_00000046298650628513963210000013716580531045832102_);}
	.st200{opacity:0.4;fill:url(#SVGID_00000162334107256573491810000001929454937047252110_);}
	.st201{opacity:0.4;fill:url(#SVGID_00000142874301826527703730000013215605412681666447_);}
	.st202{opacity:0.4;fill:url(#SVGID_00000150791062367631822760000008402423047826059142_);}
	.st203{opacity:0.4;fill:url(#SVGID_00000168096703395970443970000002199163445278337441_);}
	.st204{opacity:0.4;fill:url(#SVGID_00000043457728886167904550000000798545273934400413_);}
	.st205{opacity:0.4;fill:url(#SVGID_00000178173410458812928140000005803391997589530271_);}
	.st206{opacity:0.4;fill:url(#SVGID_00000009576913075705671900000016379963591098707878_);}
	.st207{opacity:0.35;fill:url(#SVGID_00000037662797362274339780000012131155345458620336_);}
	.st208{opacity:0.35;fill:url(#SVGID_00000129194870817895079020000004366940215863243673_);}
	.st209{opacity:0.4;fill:url(#SVGID_00000081633650774849846000000017645339200908884647_);}
	.st210{opacity:0.4;fill:url(#SVGID_00000065781669906206940790000005521122836884491433_);}
	.st211{opacity:0.4;fill:url(#SVGID_00000002373457034600621650000003995196266181497012_);}
	.st212{opacity:0.4;fill:url(#SVGID_00000025431180143104939390000013716303731823532703_);}
	.st213{fill:url(#SVGID_00000032629982553799215160000009114142749832881539_);}
	.st214{fill:url(#SVGID_00000014617617618795708290000013419378324314100905_);}
	.st215{fill:url(#SVGID_00000166652245301870153650000014822144862429236142_);}
	.st216{opacity:0.4;fill:url(#SVGID_00000118389387134520594100000014456569610652758949_);}
	.st217{opacity:0.4;fill:url(#SVGID_00000134209712662145949760000013990675748252492986_);}
	.st218{opacity:0.4;fill:url(#SVGID_00000136408922660752918630000007044357169942525347_);}
	.st219{opacity:0.4;fill:url(#SVGID_00000047024779219637913240000013232338053561879223_);}
	.st220{opacity:0.4;fill:url(#SVGID_00000168109156876379370880000010359538500266819990_);}
	.st221{opacity:0.4;fill:url(#SVGID_00000105385102799501583780000010551261235681427641_);}
	.st222{opacity:0.4;fill:url(#SVGID_00000103962514472384252040000008114700320484116868_);}
	.st223{opacity:0.4;fill:url(#SVGID_00000101793698026447041380000002192491827522842497_);}
	.st224{opacity:0.4;fill:url(#SVGID_00000030461061329352021600000018235276587683679381_);}
	.st225{opacity:0.4;fill:url(#SVGID_00000054988184019296573740000013672028525348976557_);}
	.st226{opacity:0.4;fill:url(#SVGID_00000057860835584442742780000000171763586905408154_);}
	.st227{opacity:0.4;fill:url(#SVGID_00000035507072680716464210000017217057510970160788_);}
	.st228{opacity:0.4;fill:url(#SVGID_00000178196225526313515560000013163645567879040386_);}
	.st229{opacity:0.4;fill:url(#SVGID_00000029040661801031016950000005850268449039094428_);}
	.st230{opacity:0.4;fill:url(#SVGID_00000183966740266958151370000013350257501450044584_);}
	.st231{opacity:0.4;fill:url(#SVGID_00000151511878439344285110000011149246176769816467_);}
	.st232{opacity:0.35;fill:url(#SVGID_00000070103932907044249460000004698893701948463024_);}
	.st233{opacity:0.35;fill:url(#SVGID_00000098206888504308527740000018227696461229863587_);}
	.st234{opacity:0.4;fill:url(#SVGID_00000062185789512907745410000017476654380501844096_);}
	.st235{opacity:0.4;fill:url(#SVGID_00000082339851603881562730000002995088027471296178_);}
	.st236{opacity:0.4;fill:url(#SVGID_00000092448526858830600070000006846459554252495752_);}
	.st237{opacity:0.4;fill:url(#SVGID_00000088842819113002550270000004324664409574731926_);}
	.st238{fill:url(#SVGID_00000093855987968111449490000016803545094387336069_);}
	.st239{fill:url(#SVGID_00000034089776675990082880000004833519433375172994_);}
	.st240{fill:url(#SVGID_00000172404328472916866300000000691805627668894120_);}
	.st241{opacity:0.4;fill:url(#SVGID_00000051349347006999482660000009604775107938561175_);}
	.st242{opacity:0.4;fill:url(#SVGID_00000075164387856598489690000006992734033932053391_);}
	.st243{opacity:0.4;fill:url(#SVGID_00000178918815620752124460000012153447449198879913_);}
	.st244{opacity:0.4;fill:url(#SVGID_00000083809102015867258720000001895600590887992991_);}
	.st245{opacity:0.4;fill:url(#SVGID_00000172439089682019604930000008120296972543520701_);}
	.st246{opacity:0.4;fill:url(#SVGID_00000111876120766448390110000016389125839203262343_);}
	.st247{opacity:0.4;fill:url(#SVGID_00000176027835306522420890000002129756757667909291_);}
	.st248{opacity:0.4;fill:url(#SVGID_00000111177948491817763260000006727026380662220690_);}
	.st249{opacity:0.4;fill:url(#SVGID_00000167387504097724994580000005806708838121498802_);}
	.st250{opacity:0.4;fill:url(#SVGID_00000064316863207807797950000010607492949174825662_);}
	.st251{opacity:0.4;fill:url(#SVGID_00000153682677204261764400000016249636196831845037_);}
	.st252{opacity:0.4;fill:url(#SVGID_00000082350881199419837700000008259959510480763795_);}
	.st253{opacity:0.4;fill:url(#SVGID_00000136387043432503637240000014503731858811168434_);}
	.st254{opacity:0.4;fill:url(#SVGID_00000167367224241851295560000001400147439816022940_);}
	.st255{opacity:0.4;fill:url(#SVGID_00000075161100944413672400000018351582558630600120_);}
	.st256{opacity:0.4;fill:url(#SVGID_00000053518796943926779010000010444796200013463200_);}
	.st257{opacity:0.35;fill:url(#SVGID_00000155128366819127452560000017743069985718355860_);}
	.st258{opacity:0.35;fill:url(#SVGID_00000021827146561495173430000008214343806567011513_);}
	.st259{opacity:0.4;fill:url(#SVGID_00000083789538381945760080000017684923475934919331_);}
	.st260{opacity:0.4;fill:url(#SVGID_00000135684643913705561680000002044530561794242964_);}
	.st261{opacity:0.4;fill:url(#SVGID_00000070831214547387850880000000374803847117484725_);}
	.st262{opacity:0.4;fill:url(#SVGID_00000014629941059013427270000018101279582709031297_);}
	.st263{fill:url(#SVGID_00000116937839749916316600000014421130845143548830_);}
	.st264{fill:url(#SVGID_00000124151516915950216570000004067206035926834353_);}
	.st265{fill:url(#SVGID_00000154400348560740334380000012217993350958445972_);}
	.st266{opacity:0.4;fill:url(#SVGID_00000156564140787491350370000017126455557097302920_);}
	.st267{opacity:0.4;fill:url(#SVGID_00000139985412276527086150000018400793574142740143_);}
	.st268{opacity:0.4;fill:url(#SVGID_00000042712861600083486780000015282070354525868458_);}
	.st269{opacity:0.4;fill:url(#SVGID_00000064315959896376033570000011164555377019385260_);}
	.st270{opacity:0.4;fill:url(#SVGID_00000049192011817299701600000003735722864622797956_);}
	.st271{opacity:0.4;fill:url(#SVGID_00000000224116949043842900000012165709566580207531_);}
	.st272{opacity:0.4;fill:url(#SVGID_00000157305751587469030670000010027684267156083854_);}
	.st273{opacity:0.4;fill:url(#SVGID_00000081635501201543530140000016849138567451174818_);}
	.st274{opacity:0.4;fill:url(#SVGID_00000019647943462802305910000015393259615750696100_);}
	.st275{opacity:0.4;fill:url(#SVGID_00000092414486642098735950000011758629971205837488_);}
	.st276{opacity:0.4;fill:url(#SVGID_00000180328988177823433890000006220645400860426166_);}
	.st277{opacity:0.4;fill:url(#SVGID_00000181801414375064417300000007730625967304541621_);}
	.st278{opacity:0.4;fill:url(#SVGID_00000172410986031692303120000009638378328926581917_);}
	.st279{opacity:0.4;fill:url(#SVGID_00000023997116773047898540000015813295130798482572_);}
	.st280{opacity:0.4;fill:url(#SVGID_00000156569021457144345210000002566950274429624709_);}
	.st281{opacity:0.4;fill:url(#SVGID_00000090982283684002552670000003418121793684636041_);}
	.st282{opacity:0.35;fill:url(#SVGID_00000018917073760967749850000009749338995344713629_);}
	.st283{opacity:0.35;fill:url(#SVGID_00000091730918262249087650000012837809474595732895_);}
	.st284{opacity:0.4;fill:url(#SVGID_00000010286833717127135710000007297167814657462914_);}
	.st285{opacity:0.4;fill:url(#SVGID_00000080903353224120867680000005229422370553536949_);}
	.st286{opacity:0.4;fill:url(#SVGID_00000061471654404996360600000015775024398979759792_);}
	.st287{opacity:0.4;fill:url(#SVGID_00000049192076929336733040000012551409411297888652_);}
	.st288{fill:url(#SVGID_00000151520524146712509930000018155990821923516308_);}
	.st289{fill:url(#SVGID_00000182512266898016062910000012092126680494492590_);}
	.st290{fill:url(#SVGID_00000081632784885131066640000006513717956159719863_);}
	.st291{opacity:0.4;fill:url(#SVGID_00000134248187221504785980000006988095132982336923_);}
	.st292{opacity:0.4;fill:url(#SVGID_00000057123830668875821540000013842665937786251707_);}
	.st293{opacity:0.4;fill:url(#SVGID_00000103249520999398040880000009930940026527623097_);}
	.st294{opacity:0.4;fill:url(#SVGID_00000143616886967267284100000002167413647708375436_);}
	.st295{opacity:0.4;fill:url(#SVGID_00000078028805431375137040000002733198351501653679_);}
	.st296{opacity:0.4;fill:url(#SVGID_00000182514314319231552670000011293898245135751090_);}
	.st297{opacity:0.4;fill:url(#SVGID_00000148649530536028707360000013484520672658959529_);}
	.st298{opacity:0.4;fill:url(#SVGID_00000046300302003645562490000005647616551548486039_);}
	.st299{opacity:0.4;fill:url(#SVGID_00000014621157258011615530000017594198156575057823_);}
	.st300{opacity:0.4;fill:url(#SVGID_00000104701056989512913280000003349303653256170426_);}
	.st301{opacity:0.4;fill:url(#SVGID_00000173132955980878435070000012460098233051359655_);}
	.st302{opacity:0.4;fill:url(#SVGID_00000075854709057192258430000012842281089591467944_);}
	.st303{opacity:0.4;fill:url(#SVGID_00000013175258446056338670000004216273754416817079_);}
	.st304{opacity:0.4;fill:url(#SVGID_00000122699837466630878610000016081260477934231190_);}
	.st305{opacity:0.4;fill:url(#SVGID_00000050645688026914662470000013438244634928114569_);}
	.st306{opacity:0.4;fill:url(#SVGID_00000062877272140194607850000018007702756180332192_);}
	.st307{opacity:0.35;fill:url(#SVGID_00000058558155332741985620000007671324703606768309_);}
	.st308{opacity:0.35;fill:url(#SVGID_00000178168582258437049570000008945366898484839851_);}
	.st309{opacity:0.4;fill:url(#SVGID_00000069370365742876696030000000024752686749111974_);}
	.st310{opacity:0.4;fill:url(#SVGID_00000134954648560687411480000010737838844278969508_);}
	.st311{opacity:0.4;fill:url(#SVGID_00000112631689084905333560000000459302300512471722_);}
	.st312{opacity:0.4;fill:url(#SVGID_00000043427034747247376360000002446091545106988177_);}
	.st313{fill:url(#SVGID_00000168808591107456665610000012361884424732698240_);}
	.st314{fill:url(#SVGID_00000108291933256953500950000010338458080460507537_);}
	.st315{fill:url(#SVGID_00000055683619392398760480000009087753542278851227_);}
	.st316{opacity:0.4;fill:url(#SVGID_00000146479965183251455300000013418465922038879163_);}
	.st317{opacity:0.4;fill:url(#SVGID_00000010310191067937731330000007049205763631673783_);}
	.st318{opacity:0.4;fill:url(#SVGID_00000028309740415057893090000013285888562388540311_);}
	.st319{opacity:0.4;fill:url(#SVGID_00000151506056908017129170000002221145951510567068_);}
	.st320{opacity:0.4;fill:url(#SVGID_00000168811647551053600380000004081595936216827820_);}
	.st321{opacity:0.4;fill:url(#SVGID_00000147939823991914312120000017014570845515132082_);}
	.st322{opacity:0.4;fill:url(#SVGID_00000116935966534026075960000017096889467351752895_);}
	.st323{opacity:0.4;fill:url(#SVGID_00000166676685016346998620000014257673645943874952_);}
	.st324{opacity:0.4;fill:url(#SVGID_00000094588189405211181480000008894430084780808632_);}
	.st325{opacity:0.4;fill:url(#SVGID_00000108997601269837341340000013302061700660148876_);}
	.st326{opacity:0.4;fill:url(#SVGID_00000052103869078616396590000006632195811332046752_);}
	.st327{opacity:0.4;fill:url(#SVGID_00000069385787970344181180000016684453438670005890_);}
	.st328{opacity:0.4;fill:url(#SVGID_00000031166275054550376810000005222132312678790821_);}
	.st329{opacity:0.4;fill:url(#SVGID_00000152227102555747098900000011991271648174846386_);}
	.st330{opacity:0.4;fill:url(#SVGID_00000116950007963934487570000013415054523479300541_);}
	.st331{opacity:0.4;fill:url(#SVGID_00000080206880005058548910000002947284486524047527_);}
	.st332{opacity:0.35;fill:url(#SVGID_00000117638260943993636590000007153177225404478353_);}
	.st333{opacity:0.35;fill:url(#SVGID_00000075881351543526181950000016814462233819655845_);}
	.st334{opacity:0.4;fill:url(#SVGID_00000023264534156616876730000013161895228798077607_);}
	.st335{opacity:0.4;fill:url(#SVGID_00000173841220815006933570000012297588569924325765_);}
	.st336{opacity:0.4;fill:url(#SVGID_00000163785743765560248420000015875478433698599840_);}
	.st337{opacity:0.4;fill:url(#SVGID_00000062191345323837045670000012631045142357852860_);}
	.st338{fill:url(#SVGID_00000103971350882163081150000013364507950244840618_);}
	.st339{fill:url(#SVGID_00000165199623693984714560000017337485692881377436_);}
	.st340{fill:url(#SVGID_00000002347999504156776440000018027624203422607530_);}
	.st341{opacity:0.4;fill:url(#SVGID_00000096020486344806868700000008323657817253962888_);}
	.st342{opacity:0.4;fill:url(#SVGID_00000094602449236711597530000014968109892961234579_);}
	.st343{opacity:0.4;fill:url(#SVGID_00000114071687755627063620000007689042864355776701_);}
	.st344{opacity:0.4;fill:url(#SVGID_00000090279237215362472360000001104932405114693010_);}
	.st345{opacity:0.4;fill:url(#SVGID_00000156579011650555710770000003114807422255864748_);}
	.st346{opacity:0.4;fill:url(#SVGID_00000183244328644401220360000000409647057080766654_);}
	.st347{opacity:0.4;fill:url(#SVGID_00000080199512294595384480000015394554037970265486_);}
	.st348{opacity:0.4;fill:url(#SVGID_00000075873863394091563520000005645500202329373375_);}
	.st349{opacity:0.4;fill:url(#SVGID_00000086659757999183026590000011883002525968898176_);}
	.st350{opacity:0.4;fill:url(#SVGID_00000106128458766487274130000003704494924341819321_);}
	.st351{opacity:0.4;fill:url(#SVGID_00000124161560944378672770000006558886998033159833_);}
	.st352{opacity:0.4;fill:url(#SVGID_00000009583256281640433750000017277128196790723256_);}
	.st353{opacity:0.4;fill:url(#SVGID_00000107566761138259513510000016016788588765396359_);}
	.st354{opacity:0.4;fill:url(#SVGID_00000041994632024719504460000000436147555085639058_);}
	.st355{opacity:0.4;fill:url(#SVGID_00000072267778130052341100000002193987276688686240_);}
	.st356{opacity:0.4;fill:url(#SVGID_00000031191738478422598940000012695670265539190203_);}
	.st357{opacity:0.35;fill:url(#SVGID_00000094584713783393784970000015656409239649309838_);}
	.st358{opacity:0.35;fill:url(#SVGID_00000008841283886081927720000008705184081313884053_);}
	.st359{opacity:0.4;fill:url(#SVGID_00000083799785431512649510000009924129625797751683_);}
	.st360{opacity:0.4;fill:url(#SVGID_00000168803934533453155500000008596123707313268156_);}
	.st361{opacity:0.4;fill:url(#SVGID_00000126312488021671859360000018090833173757969800_);}
	.st362{opacity:0.4;fill:url(#SVGID_00000064325456601800500400000011622645039269754288_);}
	.st363{fill:url(#SVGID_00000130639068359524735470000012303890747182852241_);}
	.st364{fill:url(#SVGID_00000152258493738445944980000007399468591196128912_);}
	.st365{fill:url(#SVGID_00000096039600428285056720000014485987073114262455_);}
	.st366{opacity:0.4;fill:url(#SVGID_00000071517702912593585370000004160042314076395657_);}
	.st367{opacity:0.4;fill:url(#SVGID_00000152233875962124483780000000474214925793677232_);}
	.st368{opacity:0.4;fill:url(#SVGID_00000153685096652405541110000011261829113623420549_);}
	.st369{opacity:0.4;fill:url(#SVGID_00000093152938162372254140000016467234392929494967_);}
	.st370{opacity:0.4;fill:url(#SVGID_00000096749294053018966550000014955374036051233421_);}
	.st371{opacity:0.4;fill:url(#SVGID_00000013899347988218035800000009401893738658574001_);}
	.st372{opacity:0.4;fill:url(#SVGID_00000161597784621055957870000005182713181663775139_);}
	.st373{opacity:0.4;fill:url(#SVGID_00000125595598988083732640000014625535942542306486_);}
	.st374{opacity:0.4;fill:url(#SVGID_00000111903462956240012980000016950972783254679459_);}
	.st375{opacity:0.4;fill:url(#SVGID_00000045605325134468947530000016210223371033303719_);}
	.st376{opacity:0.4;fill:url(#SVGID_00000009560900188441177780000013152792561940850080_);}
	.st377{opacity:0.4;fill:url(#SVGID_00000057852644103329664740000015824630374140369587_);}
	.st378{opacity:0.4;fill:url(#SVGID_00000071554829297579840870000013246201639287434686_);}
	.st379{opacity:0.4;fill:url(#SVGID_00000075162616845471697910000016851623454035524792_);}
	.st380{opacity:0.4;fill:url(#SVGID_00000013891291151831910780000007813299067856497309_);}
	.st381{opacity:0.4;fill:url(#SVGID_00000141453118527190459250000006368223351319600829_);}
	.st382{opacity:0.35;fill:url(#SVGID_00000182509808510665166680000000430248781841915567_);}
	.st383{opacity:0.35;fill:url(#SVGID_00000016764313735810332900000011399505340049633962_);}
	.st384{opacity:0.4;fill:url(#SVGID_00000021086466129013008070000009449248025187068346_);}
	.st385{opacity:0.4;fill:url(#SVGID_00000139253050403572733950000003216130803438673072_);}
	.st386{opacity:0.4;fill:url(#SVGID_00000145778915999735530230000000974955513775074747_);}
	.st387{opacity:0.4;fill:url(#SVGID_00000082361065686945848690000007879242064651524787_);}
	.st388{fill:url(#SVGID_00000067228925088561353710000015457245447645983917_);}
	.st389{fill:url(#SVGID_00000139265102471182147530000014031670024086215849_);}
	.st390{fill:url(#SVGID_00000173882164395755403680000009101232438116961181_);}
	.st391{fill:none;stroke:#60470F;stroke-miterlimit:10;}
	.st392{fill:none;stroke:#000000;stroke-miterlimit:10;}
</style>
<g>
	<g>
		<path class="st59" d="M997.32,580.33c-3.82,11.47-7.56,11.1-19.54,31.45c-12,20.4-9.19,22.35-17.82,35.94
			c-8.8,13.86-19.16,22.59-39.9,40.01c-15.36,12.93-24.29,20.42-38.83,27.96c-4.71,2.43-7.71,3.69-34.48,14.01
			c-23.21,8.95-34.81,13.42-39.65,15.21c-24.22,8.95-42.9,15.85-66.66,23.01c-18.57,5.61-33.84,10.21-54.66,14.26
			c-26.24,5.11-45.75,6.32-78.64,8.22c-20.29,1.17-37.8,1.68-50.06,1.81c-6.08,0.07-13.57,0.09-22.08,0
			c-12.27-0.13-29.79-0.64-50.06-1.81c-32.89-1.9-52.43-3.12-78.62-8.22c-20.82-4.05-36.09-8.64-54.68-14.26
			c-23.78-7.16-42.44-14.06-66.68-23.01c-4.8-1.79-16.4-6.26-39.61-15.21c-26.79-10.32-29.8-11.58-34.5-14.01
			c-14.54-7.54-23.47-15.03-38.84-27.96c-20.73-17.42-31.1-26.15-39.9-40.01c-1.57-2.45-2.74-4.51-3.69-6.39
			c6.96,7.34,15.8,14.77,28.51,25.44c15.52,13.09,24.53,20.64,39.23,28.27c4.75,2.45,7.78,3.71,34.86,14.15
			c23.45,9.06,35.17,13.57,40.05,15.38c24.49,9.04,43.34,16,67.37,23.25c18.77,5.66,34.22,10.3,55.24,14.39
			c26.5,5.17,46.24,6.39,79.46,8.31c20.49,1.19,38.19,1.7,50.59,1.83c8.6,0.09,16.16,0.07,22.3,0c12.4-0.13,30.1-0.64,50.59-1.83
			c33.22-1.92,52.98-3.14,79.48-8.31c21.02-4.09,36.47-8.73,55.24-14.39c24-7.25,42.86-14.21,67.37-23.25
			c4.88-1.81,16.6-6.32,40.05-15.38c27.05-10.43,30.08-11.69,34.86-14.15c14.68-7.63,23.72-15.18,39.23-28.27
			c20.95-17.59,31.41-26.41,40.29-40.43c8.73-13.73,5.88-15.69,18.01-36.32c12.11-20.56,15.89-20.18,19.74-31.78
			c3.93-11.78,3.67-23.19,2.43-31.9c1.17,2.37,2.25,5.02,3.43,9.04C998.56,541.76,1003.93,560.48,997.32,580.33z"/>
		<path class="st60" d="M992.39,563.47c-3.85,11.56-7.61,11.18-19.69,31.7c-12.1,20.56-9.25,22.52-17.96,36.22
			c-8.87,13.97-19.3,22.77-40.21,40.32c-15.48,13.03-24.48,20.58-39.13,28.18c-4.74,2.45-7.77,3.72-34.76,14.12
			c-23.38,9.02-35.08,13.52-39.95,15.33c-24.43,9.02-43.24,15.97-67.19,23.19c-18.71,5.66-34.12,10.29-55.09,14.37
			c-26.44,5.15-46.13,6.37-79.27,8.29c-20.44,1.18-38.1,1.69-50.46,1.83c-6.12,0.07-13.67,0.09-22.25,0
			c-12.37-0.14-30.03-0.65-50.46-1.83c-33.14-1.92-52.83-3.14-79.25-8.29c-20.97-4.08-36.38-8.71-55.11-14.37
			c-23.95-7.22-42.76-14.17-67.19-23.19c-4.85-1.8-16.55-6.3-39.93-15.33c-27.01-10.4-30.04-11.67-34.78-14.12
			c-14.66-7.6-23.66-15.15-39.13-28.18c-20.9-17.55-31.34-26.35-40.21-40.32c-8.71-13.7-5.86-15.66-17.96-36.22
			c-12.08-20.52-15.84-20.14-19.69-31.7c-6.66-20-1.25-38.87,0.59-45.29c3.81-13.3,6.86-11.76,15.04-33.39
			c5.97-15.75,5.11-18.58,10.44-30.56c2.05-4.63,7.7-17.15,17.71-29.27c3.81-4.63,13.45-15.5,43.67-32.44
			c19.03-10.65,26.51-12.68,47.5-22.63c37.63-17.89,34.83-21.48,57.35-31.14c33.76-14.52,39.64-6.26,93.81-21.52
			c34.67-9.76,31.77-12.99,61.4-19.8c31.16-7.17,77.61-9.07,77.61-9.07c22.69-0.94,42.78-0.69,59.44,0c0,0,46.42,1.9,77.61,9.07
			c29.65,6.82,26.74,10.05,61.4,19.8c54.18,15.26,60.06,7,93.84,21.52c22.5,9.67,19.69,13.25,57.32,31.14
			c20.99,9.96,28.47,11.98,47.5,22.63c30.22,16.93,39.89,27.8,43.69,32.44c9.98,12.12,15.64,24.64,17.71,29.27
			c5.31,11.98,4.47,14.81,10.42,30.56c8.18,21.63,11.24,20.09,15.07,33.39C993.64,524.6,999.05,543.47,992.39,563.47z"/>
		<ellipse class="st61" cx="537.55" cy="547.79" rx="342.45" ry="153.62"/>
		<g>
			<path class="st62" d="M205.17,688.41c-14.6-7.17-27.15-17.71-39.52-28.09c-12.35-10.45-25.35-20.46-35.23-33.45
				c-4.92-6.49-8.96-13.72-11.74-21.35c-5.86-15.05-14.66-28.75-24.29-41.66c-2.38-3.33-4.08-7.14-5.24-11.03
				c-1.19-3.89-1.98-7.9-2.4-11.94c-0.01-0.14,0.09-0.26,0.22-0.27c0.14-0.01,0.26,0.08,0.27,0.22c1.06,7.91,3.21,15.93,7.97,22.44
				c9.85,12.83,18.87,26.57,24.79,41.71c1.47,3.77,3.02,7.45,5.02,10.93c9.8,17.84,26.23,30.41,41.41,43.47
				c6.16,5.24,12.29,10.51,18.68,15.44c6.37,4.95,13.14,9.38,20.28,13.15c0.12,0.06,0.17,0.22,0.1,0.34
				C205.44,688.42,205.29,688.47,205.17,688.41L205.17,688.41z"/>
		</g>
		<g>
			<path class="st62" d="M838.44,702.37c-66.55,25.71-134.66,54.09-206.53,59.06c-47.75,3.7-95.78,5.24-143.63,2.59
				c-35.88-1.81-71.98-3.95-106.9-12.98c-34.76-9.05-69.47-20.51-102.53-33.86c0.05-0.13,0.19-0.19,0.32-0.15
				c11.25,4.09,22.49,8.19,33.81,12.09c11.31,3.9,22.7,7.56,34.18,10.94c34.24,10.79,69.5,18.08,105.39,20.01
				c35.75,2.47,71.7,3.98,107.55,3.12c47.66-1.73,95.94-2.86,142.28-15.22c28.72-7.52,57.52-17,85.44-27.21
				c12.32-4.33,38.09-14.28,50.44-18.87c0.13-0.05,0.27,0.02,0.32,0.14C838.63,702.18,838.56,702.32,838.44,702.37L838.44,702.37z"
				/>
		</g>
		<g>
			<path class="st62" d="M859.7,694.11c-4,1.85-8.1,3.46-12.23,5c-1.39,0.49-2.77,0.97-4.18,1.39c-0.13,0.04-0.27-0.04-0.31-0.17
				c-0.04-0.12,0.02-0.25,0.13-0.3c2.66-1.26,5.38-2.36,8.12-3.41c2.75-1.04,5.49-2.07,8.29-2.98
				C859.81,693.54,859.99,693.98,859.7,694.11L859.7,694.11z"/>
		</g>
		<g>
			<path class="st62" d="M911.49,660.55c-11.67,10.82-24.12,21.22-38.71,27.86c-0.27,0.13-0.51-0.29-0.23-0.44
				c10.39-5.86,19.95-12.95,29.2-20.46c0,0,4.68-3.7,4.68-3.7c1.58-1.22,3.14-2.45,4.73-3.64
				C911.4,659.98,911.72,660.33,911.49,660.55L911.49,660.55z"/>
		</g>
		<g>
			<path class="st62" d="M991.23,540.82c-0.64,8.32-2.8,16.9-7.84,23.7c-5.04,6.64-9.85,13.36-14.39,20.36
				c-0.16,0.25-0.58,0.02-0.43-0.25c1.93-3.7,4.06-7.3,6.34-10.81c4.49-6.96,10.47-12.95,12.89-21.02c1.34-3.9,2.29-7.94,2.94-12.03
				C990.77,540.47,991.26,540.5,991.23,540.82L991.23,540.82z"/>
		</g>
		<path class="st63" d="M992.39,563.47c-3.85,11.56-7.62,11.18-19.69,31.7c-12.1,20.56-9.24,22.52-17.96,36.22
			c-8.87,13.97-19.31,22.77-40.21,40.32c-15.48,13.03-24.48,20.58-39.14,28.18c-4.19,2.18-7.06,3.43-26.55,10.96
			c16.42-8.71,57.75-33.56,81.32-84.35c4.28-9.23,36.42-81.33,1.19-145.63c-14.66-26.75-34.56-40.46-63.74-60.56
			c-32.98-22.71-54.91-29.25-130.67-58.96c-98.46-38.61-84.64-36.66-103.58-41.43c-49.59-12.5-93.11-12.97-165.25-13.75
			c-28.51-0.31-52.17,0.23-68.57,0.78c8.13-3.19,14.64-5.84,30.7-9.53c31.14-7.17,77.61-9.07,77.61-9.07
			c22.68-0.94,42.77-0.69,59.44,0c0,0,46.43,1.89,77.61,9.07c29.65,6.82,26.73,10.05,61.4,19.8c54.18,15.26,60.06,6.99,93.83,21.52
			c22.5,9.67,19.69,13.25,57.32,31.14c21.01,9.96,28.47,11.99,47.5,22.63c30.23,16.93,39.9,27.8,43.71,32.44
			c9.98,12.12,15.64,24.64,17.71,29.27c5.3,11.98,4.46,14.81,10.4,30.56c8.2,21.63,11.25,20.09,15.08,33.39
			C993.64,524.6,999.05,543.47,992.39,563.47z"/>
	</g>
	<path class="st64" d="M370.24,581.41c36.94,25.58,108.4,67.4,201.19,74.88c46.12,3.72,79.29-2.51,109.17-8.12
		c46.54-8.74,81.56-15.76,88.42-38.8c5.46-18.33-8.78-40.52-22.79-52.03c-17.36-14.27-38.38-15.46-49.39-15.63
		C649.68,540.97,529.17,554.97,370.24,581.41z"/>
	<g>
		<path class="st4" d="M718.71,575.02c-1.18,2.6-2.56,5.21-4.14,7.75c-6.26,10.11-20.24,26.66-77.15,41.46
			c-46.96,12.23-88.24,14.16-117.69,13.13c-4.02-0.14-7.82-0.32-11.4-0.57c-14.44-0.94-25.03-2.49-30.74-3.4
			c-2.24-0.34-44.81-7.43-88.81-31.48c-11.14-6.08-21.33-12.67-28.29-24.76c-0.07-0.14-0.16-0.26-0.21-0.4
			c-2.4-4.21-4.04-8.51-5.14-12.77c-3.53-13.49-1.68-26.77-0.27-36.88c0.62-4.47,1.41-10.05,2.83-16.14
			c0.39-1.69,0.84-3.42,1.35-5.19c2.61-9.09,6.83-18.84,14.12-27.45c14.51-17.18,37.19-21.17,81.98-28.47
			c46.51-7.56,82.03-7.58,96.17-7.39c7.12,0.09,13.98,0.21,20.78,0.44c4.07,0.12,8.12,0.31,12.19,0.57
			c14.5,0.89,29.31,2.68,46.35,6.52c36.63,8.23,68.21,15.32,84.95,42.51c5.96,9.7,8.78,19.9,10.11,28.23
			c1.14,7.1,1.21,12.85,1.22,15.8C726.92,539.8,726.76,557.53,718.71,575.02z"/>
		<path class="st5" d="M724.07,512.92c1.26,4.93,0.07,10.21-3.28,14.04c-5.7,6.51-12.58,11.99-20.14,15.24
			c-8.19,3.51-10.41,1.54-38.19,5.88c-18.75,2.91-18.59,3.96-46.71,9.32c-26.62,5.05-40.31,7.61-57.61,8.8
			c-10.72,0.72-20.03,0.78-27.48,0.59c-6.03-0.15-10.87-0.45-14.27-0.69c-46.58-3.31-86.01-6.11-125.45-25.15
			c-20.53-9.91-29.26-18.52-30.59-28.23c-1.06-7.79,2.48-17.41,2.93-18.62c0.71-1.89,3.36-8.56,9.87-15.78
			c9.24-10.26,20.21-14.94,27.55-17.65c17.47-6.45,32.19-8.32,54.43-10.82c11.55-1.3,67.51-7.76,96.17-7.39
			c7.12,0.09,13.98,0.21,20.78,0.44c4.07,0.12,8.12,0.31,12.19,0.57c14.5,0.89,29.31,2.68,46.35,6.52
			c36.63,8.23,68.21,15.32,84.95,42.51C719.77,499.33,722.42,506.41,724.07,512.92z"/>
		<path class="st6" d="M720.8,526.96c-5.7,6.5-12.58,11.98-20.15,15.23c-2.04,0.86-3.7,1.4-5.49,1.8c0.14-1.71,0.01-3.44-0.43-5.14
			c-1.67-6.51-4.31-13.58-8.51-20.42c-16.74-27.19-48.33-34.28-84.95-42.51c-17.04-3.84-31.85-5.63-46.35-6.52
			c-4.07-0.25-8.12-0.45-12.19-0.57c-6.8-0.23-13.66-0.35-20.78-0.44c-28.67-0.38-84.63,6.09-96.17,7.39
			c-22.25,2.49-36.96,4.36-54.44,10.82c-1.7,0.63-3.61,1.37-5.65,2.27c1.56-2.91,3.94-6.66,7.45-10.55
			c9.25-10.27,20.21-14.94,27.56-17.65c17.46-6.45,32.19-8.32,54.42-10.82c11.55-1.31,67.51-7.76,96.17-7.39
			c7.12,0.09,13.98,0.21,20.78,0.44c4.07,0.12,8.12,0.31,12.19,0.57c14.5,0.89,29.31,2.68,46.35,6.52
			c36.63,8.23,68.21,15.32,84.95,42.51c4.21,6.82,6.86,13.91,8.51,20.42C725.34,517.84,724.14,523.12,720.8,526.96z"/>
		<path class="st5" d="M718.71,575.02c-1.18,2.6-2.56,5.21-4.14,7.75c-0.27,0.43-0.54,0.86-0.83,1.31
			c-6.67,10.19-21.78,25.97-76.32,40.15c-46.96,12.23-88.24,14.16-117.69,13.13c-4.02-0.14-7.82-0.32-11.4-0.57
			c-14.44-0.94-25.03-2.49-30.74-3.4c-2.24-0.34-44.81-7.43-88.81-31.48c-7.35-4.01-14.29-8.25-20.16-14.13
			c-3.03-3.03-5.77-6.51-8.13-10.63c-0.07-0.14-0.16-0.26-0.21-0.4c3.49,3.36,7.49,6.81,11.98,10.22
			c14.47,10.98,29.73,17.3,29.73,17.3c9.33,3.88,18.63,5.52,37.24,8.8c15.55,2.74,19.07,2.42,33.75,5.59
			c12.9,2.78,12.98,3.64,21.44,5.12c3.32,0.58,16.59,2.78,35.69,1.59c23.16-1.44,20.22-5.7,42.61-7.45
			c16.53-1.29,23.05,0.65,47.88-1.61c6.77-0.61,10.15-0.92,13.84-1.57c10.66-1.86,21.25-5.98,41.98-14.12
			c8.11-3.19,8.11-3.32,15.37-6.11c8.78-3.38,10.08-3.68,12.58-5.07C708.32,587.24,713.73,583.17,718.71,575.02z"/>
		<path class="st6" d="M713.73,584.08c-6.67,10.19-21.78,25.97-76.32,40.15c-46.96,12.23-88.24,14.16-117.69,13.13
			c-4.02-0.14-7.82-0.32-11.4-0.57c-14.44-0.94-25.03-2.49-30.74-3.4c-2.24-0.34-44.81-7.43-88.81-31.48
			c-7.35-4.01-14.29-8.25-20.16-14.13c1.13,0.9,2.28,1.8,3.47,2.71c2.95,2.26,13.69,10.22,29.73,17.3
			c14.83,6.54,26.98,9.15,36.68,11.15c12.27,2.55,15.27,2.14,32.48,4.5c32.33,4.38,32.96,7.38,48.95,8.45
			c16.73,1.11,18.84-1.96,52.06-6.1c40.01-4.99,38.14-0.32,61.03-5.13c28.85-6.06,48.14-20.64,65.16-26.02
			C703.8,592.86,709.09,588.92,713.73,584.08z"/>
		<path class="st5" d="M418.84,577.8c0.58,2.47,3.24,5.52,6.02,4.75c2.56-0.7,3.98-4.28,2.99-6.4c-1.41-3.01-7.56-2.91-8.89-0.72
			C418.47,576.21,418.69,577.16,418.84,577.8z"/>
		<path class="st6" d="M420.28,577.1c-0.47,0.8-0.25,1.74-0.11,2.37c0.14,0.59,0.4,1.22,0.76,1.81c-1.03-0.96-1.79-2.3-2.08-3.49
			c-0.16-0.63-0.38-1.59,0.11-2.37c1.32-2.19,7.49-2.29,8.89,0.72c0.06,0.13,0.09,0.23,0.13,0.36
			C425.68,574.92,421.38,575.32,420.28,577.1z"/>
		<path class="st5" d="M430.55,582.55c-1.58,0.96-3.09,3.49-1.94,5.25c1.07,1.62,3.87,1.79,5.12,0.62c1.77-1.66,0.31-5.9-1.51-6.33
			C431.56,581.93,430.95,582.3,430.55,582.55z"/>
		<path class="st5" d="M656.83,597.95c0.15,1.87,1.74,4.39,3.86,4.14c1.95-0.22,3.38-2.67,2.9-4.34c-0.69-2.35-5.18-2.97-6.41-1.53
			C656.74,596.75,656.8,597.47,656.83,597.95z"/>
		<path class="st5" d="M668.67,594.6c0.1,1.22,1.13,2.86,2.52,2.7c1.27-0.15,2.21-1.74,1.89-2.83c-0.45-1.53-3.38-1.94-4.18-1
			C668.61,593.82,668.65,594.29,668.67,594.6z"/>
		<path class="st5" d="M675.43,585.56c-0.67-0.17-1.66-0.09-2.24,0.64c-0.66,0.84-0.29,1.91-0.24,2.06
			c0.39,1.09,1.73,2.12,2.94,1.65c0.91-0.35,1.44-1.41,1.31-2.41C677.07,586.51,676.3,585.77,675.43,585.56z"/>
		<path class="st5" d="M368.2,546.91c-0.13-0.68-0.62-1.54-1.53-1.76c-1.04-0.24-1.85,0.55-1.96,0.66
			c-0.82,0.82-1.19,2.46-0.25,3.37c0.7,0.68,1.89,0.71,2.73,0.17C368.03,548.8,368.38,547.79,368.2,546.91z"/>
		<path class="st5" d="M576.16,593c0.61-1.28,1.04-3.29,0.26-4.65c-0.89-1.55-2.68-1.11-2.93-1.05c-1.83,0.48-4.08,2.84-4.05,5.4
			c0.02,1.92,1.32,3.27,2.87,3.28C573.85,596,575.37,594.68,576.16,593z"/>
		<path class="st5" d="M394.59,592.01c-0.3,0.28-0.16,0.89-0.07,1.26c0.39,1.64,1.84,2.59,5.26,4.51c2.93,1.65,4.39,2.47,5.23,2.82
			c0,0,3.38,1.43,7.7,1.61c0.38,0.02,1.02,0.03,1.09-0.18c0.11-0.37-1.55-1.16-2.25-1.5c-5.33-2.56-7.99-3.84-9.57-4.69
			C397.63,593.54,395.33,591.33,394.59,592.01z"/>
		<path class="st5" d="M562.56,599.66c0.55,0.62,1.79,0.57,2.58,0.2c1.28-0.6,1.6-2.17,1.84-3.29c0.4-1.93,0.33-4.88-0.58-5.11
			C564.92,591.1,561.04,597.93,562.56,599.66z"/>
	</g>
</g>
</svg>
