<?xml version="1.0" encoding="utf-8"?>
<!-- Generator: Adobe Illustrator 27.0.0, SVG Export Plug-In . SVG Version: 6.00 Build 0)  -->
<svg version="1.1" id="Layer_1" xmlns="http://www.w3.org/2000/svg" xmlns:xlink="http://www.w3.org/1999/xlink" x="0px" y="0px"
	 viewBox="0 0 1080 1080" style="enable-background:new 0 0 1080 1080;" xml:space="preserve">
<style type="text/css">
	.st0{fill:none;stroke:#000000;stroke-linecap:round;stroke-linejoin:round;stroke-miterlimit:10;}
	.st1{display:none;}
	.st2{display:inline;opacity:0.7;fill:#C45233;}
	.st3{fill:#FFFFFF;}
	.st4{fill:#EAD3A4;}
	.st5{fill:#DBA865;}
	.st6{fill:#D19F62;}
	.st7{fill:#D0602F;}
	.st8{fill:#C45233;}
	.st9{fill:#F4824A;}
	.st10{fill:#F48B62;}
	.st11{opacity:0.15;fill:#FFFFFF;}
	.st12{opacity:0.6;fill:#F28B4C;}
	.st13{opacity:0.7;fill:#C45233;}
	.st14{opacity:0.35;}
	.st15{opacity:0.37;fill:#DB7446;}
	.st16{opacity:0.4;fill:url(#SVGID_1_);}
	.st17{opacity:0.4;fill:url(#SVGID_00000037655944042989993410000006985215002487618746_);}
	.st18{opacity:0.4;fill:url(#SVGID_00000063610999814926744210000007129307726808461954_);}
	.st19{fill:none;}
	.st20{opacity:0.4;fill:url(#SVGID_00000002379755575358985520000007462288172026725766_);}
	.st21{opacity:0.4;fill:url(#SVGID_00000034077865533780074340000001006946882700966801_);}
	.st22{opacity:0.4;fill:url(#SVGID_00000098903566440949996110000005497166646945091991_);}
	.st23{opacity:0.4;fill:url(#SVGID_00000036970594306356642850000008911411974888603057_);}
	.st24{opacity:0.08;fill:#FFFFFF;}
	.st25{opacity:0.4;fill:url(#SVGID_00000032628108982754561660000009429585922290684547_);}
	.st26{opacity:0.4;fill:url(#SVGID_00000056386937833712183770000017974955043600461453_);}
	.st27{opacity:0.4;fill:url(#SVGID_00000054260404734714066720000018067245588062497723_);}
	.st28{opacity:0.4;fill:url(#SVGID_00000138534696908785620630000007159311231710936715_);}
	.st29{opacity:0.4;fill:url(#SVGID_00000083796592282851943820000004011191941378883745_);}
	.st30{opacity:0.4;fill:url(#SVGID_00000020397875394819269530000008654706921740910766_);}
	.st31{opacity:0.4;fill:url(#SVGID_00000054979737353507366680000003830708897261436816_);}
	.st32{opacity:0.4;fill:url(#SVGID_00000093136780042421242190000003707732658209115558_);}
	.st33{opacity:0.4;fill:url(#SVGID_00000040556617850206303620000000910862649016479130_);}
	.st34{opacity:0.4;}
	.st35{opacity:0.35;fill:url(#SVGID_00000176016090711463378680000012714779522561827236_);}
	.st36{opacity:0.35;fill:url(#SVGID_00000093867169259812196510000012453782628815663275_);}
	.st37{opacity:0.4;fill:url(#SVGID_00000119089855537068574740000003174630025763678099_);}
	.st38{opacity:0.4;fill:url(#SVGID_00000079448948482675535820000013867352560914457733_);}
	.st39{opacity:0.4;fill:url(#SVGID_00000120553667914005213170000008853368300161775032_);}
	.st40{opacity:0.4;fill:url(#SVGID_00000010993855191394074280000003989077269328781493_);}
	.st41{fill:url(#SVGID_00000163045792515129041960000003465542471952139406_);}
	.st42{fill:url(#SVGID_00000072243747389841885500000007834631031504405164_);}
	.st43{opacity:0.7;}
	.st44{fill:url(#SVGID_00000152255085675862534340000017588371640737509296_);}
	.st45{fill:#F9F2EA;}
	.st46{opacity:0.5;fill:#E5DDD6;}
	.st47{opacity:0.45;fill:#F9F6F4;}
	.st48{opacity:0.65;fill:#FFFFFF;}
	.st49{fill:#F4DC98;}
	.st50{fill:#E5C98C;}
	.st51{opacity:0.6;fill:#F9E4BB;}
	.st52{opacity:0.8;fill:#F9E4BB;}
	.st53{opacity:0.25;fill:#FFFFFF;}
	.st54{fill:#618928;}
	.st55{fill:#93AA31;}
	.st56{fill:#809B2C;}
	.st57{opacity:0.6;fill:#93AA31;}
	.st58{opacity:0.6;fill:#618928;}
	.st59{opacity:0.5;fill:#828E93;}
	.st60{fill:#E5F2F9;}
	.st61{fill:#CFDEE5;}
	.st62{fill:#B6CBD3;}
	.st63{opacity:0.5;fill:#CFDEE5;}
	.st64{fill:#B6C8CE;}
	.st65{opacity:0.3;fill:#997552;}
	.st66{opacity:0.4;fill:url(#SVGID_00000062178768942140391170000008152583027938642321_);}
	.st67{opacity:0.4;fill:url(#SVGID_00000127753944890469305740000012519536688469593992_);}
	.st68{opacity:0.4;fill:url(#SVGID_00000162336695456733299700000013905170684468698773_);}
	.st69{opacity:0.4;fill:url(#SVGID_00000140726013598379157010000018192581251729980553_);}
	.st70{opacity:0.4;fill:url(#SVGID_00000157988559746629644260000002252506205309781174_);}
	.st71{opacity:0.4;fill:url(#SVGID_00000150080203420956371280000010572190488185749135_);}
	.st72{opacity:0.4;fill:url(#SVGID_00000051349787861663143660000009437994241946137256_);}
	.st73{opacity:0.4;fill:url(#SVGID_00000145758288746436959970000017064240288792112311_);}
	.st74{opacity:0.4;fill:url(#SVGID_00000027570600193167413470000018272073199030289847_);}
	.st75{opacity:0.4;fill:url(#SVGID_00000016789198209698549180000013693141870964299424_);}
	.st76{opacity:0.4;fill:url(#SVGID_00000077294965978069853540000013653862159869701816_);}
	.st77{opacity:0.4;fill:url(#SVGID_00000153665764433910903050000003790039936621987498_);}
	.st78{opacity:0.4;fill:url(#SVGID_00000013155460136268330600000015263411014117419904_);}
	.st79{opacity:0.4;fill:url(#SVGID_00000005984762794006855280000010567059566071720117_);}
	.st80{opacity:0.4;fill:url(#SVGID_00000061439599970592809700000005487888740045580440_);}
	.st81{opacity:0.4;fill:url(#SVGID_00000160173233176180200930000015209203447412285604_);}
	.st82{opacity:0.35;fill:url(#SVGID_00000088831876459479089280000004924204936435483059_);}
	.st83{opacity:0.35;fill:url(#SVGID_00000038386284275464874550000014703689005680763540_);}
	.st84{opacity:0.4;fill:url(#SVGID_00000160869348003622008140000003682337822758278584_);}
	.st85{opacity:0.4;fill:url(#SVGID_00000153689219899891327750000011409219954089721742_);}
	.st86{opacity:0.4;fill:url(#SVGID_00000008849582833954386420000010538919932188897928_);}
	.st87{opacity:0.4;fill:url(#SVGID_00000087398977881521262140000001959443814776374159_);}
	.st88{fill:url(#SVGID_00000038395878380510052520000004017339234968308404_);}
	.st89{fill:url(#SVGID_00000083089941935652849650000007984523195344140952_);}
	.st90{fill:url(#SVGID_00000183929673515090810140000011166520028333162935_);}
	.st91{opacity:0.4;fill:url(#SVGID_00000123418652844170867850000008274409367724010400_);}
	.st92{opacity:0.4;fill:url(#SVGID_00000121252283654173858450000012889125162836581030_);}
	.st93{opacity:0.4;fill:url(#SVGID_00000028325548427002235610000009206336015091134627_);}
	.st94{opacity:0.4;fill:url(#SVGID_00000125598389796390477050000012795802373115672448_);}
	.st95{opacity:0.4;fill:url(#SVGID_00000155824582917627368340000007754339400227137410_);}
	.st96{opacity:0.4;fill:url(#SVGID_00000166651313503838554470000014046901448667956662_);}
	.st97{opacity:0.4;fill:url(#SVGID_00000118373576767158773110000008671917393796429736_);}
	.st98{opacity:0.4;fill:url(#SVGID_00000128449672627291307930000011178458097680013731_);}
	.st99{opacity:0.4;fill:url(#SVGID_00000084517021767840811270000016589067233403005591_);}
	.st100{opacity:0.4;fill:url(#SVGID_00000017500179090399501150000011970274548542172578_);}
	.st101{opacity:0.4;fill:url(#SVGID_00000114793102267696184970000016446228387380065454_);}
	.st102{opacity:0.4;fill:url(#SVGID_00000136399090911901530870000004319800616851197847_);}
	.st103{opacity:0.4;fill:url(#SVGID_00000100377373965800876820000013451421863025237397_);}
	.st104{opacity:0.4;fill:url(#SVGID_00000022555520332110018200000006240914786416567441_);}
	.st105{opacity:0.4;fill:url(#SVGID_00000142166853839991885930000010766776608478890659_);}
	.st106{opacity:0.4;fill:url(#SVGID_00000177460337132863980430000005755207402671019951_);}
	.st107{opacity:0.35;fill:url(#SVGID_00000002364631066112492520000015007740914630802308_);}
	.st108{opacity:0.35;fill:url(#SVGID_00000159435785020593407870000001382378862328739732_);}
	.st109{opacity:0.4;fill:url(#SVGID_00000138569795812058813500000010308343154909839029_);}
	.st110{opacity:0.4;fill:url(#SVGID_00000168094802336612208810000003743370878627483048_);}
	.st111{opacity:0.4;fill:url(#SVGID_00000127025420688260078590000008748699505154304145_);}
	.st112{opacity:0.4;fill:url(#SVGID_00000049208664265885358730000014840163491850167204_);}
	.st113{fill:url(#SVGID_00000168795971724456533650000002042993287354569370_);}
	.st114{fill:url(#SVGID_00000103983069531284946340000016429987099363958935_);}
	.st115{fill:url(#SVGID_00000152264255853633201040000002782352582205607859_);}
	.st116{opacity:0.4;fill:url(#SVGID_00000119120147090066941770000011319966852341293454_);}
	.st117{opacity:0.4;fill:url(#SVGID_00000114771810223282351960000008741378928960484790_);}
	.st118{opacity:0.4;fill:url(#SVGID_00000145039049113085546770000013669045239695351453_);}
	.st119{opacity:0.4;fill:url(#SVGID_00000125571211045610153250000000720048865974075524_);}
	.st120{opacity:0.4;fill:url(#SVGID_00000085934755276017202780000016469576352546643337_);}
	.st121{opacity:0.4;fill:url(#SVGID_00000159448759454722848690000013005365470183273616_);}
	.st122{opacity:0.4;fill:url(#SVGID_00000128482678938732359380000005591472206401928862_);}
	.st123{opacity:0.4;fill:url(#SVGID_00000148630388325674099250000013248451356286031268_);}
	.st124{opacity:0.4;fill:url(#SVGID_00000082348040069196502640000003398309202434574724_);}
	.st125{opacity:0.4;fill:url(#SVGID_00000001631631158730035860000005100138533497176248_);}
	.st126{opacity:0.4;fill:url(#SVGID_00000160890540901131546270000013772733446421639837_);}
	.st127{opacity:0.4;fill:url(#SVGID_00000101097514487284319620000013749754506166290849_);}
	.st128{opacity:0.4;fill:url(#SVGID_00000172402141340395245920000007640858617616779406_);}
	.st129{opacity:0.4;fill:url(#SVGID_00000085245632456364027540000016969330924490674083_);}
	.st130{opacity:0.4;fill:url(#SVGID_00000114764133412942781330000000981510823455187899_);}
	.st131{opacity:0.4;fill:url(#SVGID_00000052790079232042926960000008347340834105495215_);}
	.st132{opacity:0.35;fill:url(#SVGID_00000052807266979286364670000008804593430172666545_);}
	.st133{opacity:0.35;fill:url(#SVGID_00000033339421990251113670000013576115909080954809_);}
	.st134{opacity:0.4;fill:url(#SVGID_00000108303105104732206770000008649283714478169227_);}
	.st135{opacity:0.4;fill:url(#SVGID_00000080194685126458087170000002026442585881814694_);}
	.st136{opacity:0.4;fill:url(#SVGID_00000128449579768232243120000000323464656713962664_);}
	.st137{opacity:0.4;fill:url(#SVGID_00000096021528077429130410000012638100606996142265_);}
	.st138{fill:url(#SVGID_00000057136614665310076580000015090764056518571670_);}
	.st139{fill:url(#SVGID_00000021099005279995542760000013737741897850141083_);}
	.st140{fill:url(#SVGID_00000157283320470466671010000010110059780197979297_);}
	.st141{opacity:0.4;fill:url(#SVGID_00000095333498121039862790000004534036991771196297_);}
	.st142{opacity:0.4;fill:url(#SVGID_00000000194475751846093570000003020614414276580287_);}
	.st143{opacity:0.4;fill:url(#SVGID_00000114795855880236954790000016073186276669150344_);}
	.st144{opacity:0.4;fill:url(#SVGID_00000124874642202090165850000015353223283464418722_);}
	.st145{opacity:0.4;fill:url(#SVGID_00000165954642069453495090000006497941066431748501_);}
	.st146{opacity:0.4;fill:url(#SVGID_00000011743971045169367030000007733850749408941203_);}
	.st147{opacity:0.4;fill:url(#SVGID_00000127031701418064145680000011052822703717364102_);}
	.st148{opacity:0.4;fill:url(#SVGID_00000168075630082708843960000004092420383375854249_);}
	.st149{opacity:0.4;fill:url(#SVGID_00000142864735491048660440000013453908705819866532_);}
	.st150{opacity:0.4;fill:url(#SVGID_00000176040563452852069540000007268236680384466595_);}
	.st151{opacity:0.4;fill:url(#SVGID_00000148660763382571993430000001301341176088219265_);}
	.st152{opacity:0.4;fill:url(#SVGID_00000112633074181100417660000010208028313806787730_);}
	.st153{opacity:0.4;fill:url(#SVGID_00000165927590448270062950000006415712478741393284_);}
	.st154{opacity:0.4;fill:url(#SVGID_00000121995608199586902280000012655923379275121808_);}
	.st155{opacity:0.4;fill:url(#SVGID_00000004536872008738401210000017063786232663343281_);}
	.st156{opacity:0.4;fill:url(#SVGID_00000153680414682651885060000016234272040912777399_);}
	.st157{opacity:0.35;fill:url(#SVGID_00000005244002605497489440000001392967057170939052_);}
	.st158{opacity:0.35;fill:url(#SVGID_00000134220139514193468500000008428562860281082547_);}
	.st159{opacity:0.4;fill:url(#SVGID_00000000196541491811182500000003555509914638118328_);}
	.st160{opacity:0.4;fill:url(#SVGID_00000018220079409020579290000014825108354567121336_);}
	.st161{opacity:0.4;fill:url(#SVGID_00000099640103400556421610000005153372805573184696_);}
	.st162{opacity:0.4;fill:url(#SVGID_00000085217611490671745200000013726007635648996274_);}
	.st163{fill:url(#SVGID_00000000909101283897140170000007942390916605205941_);}
	.st164{fill:url(#SVGID_00000131368454816111390550000004751821389086096544_);}
	.st165{fill:url(#SVGID_00000087376618142288156990000016707519959443486896_);}
	.st166{opacity:0.4;fill:url(#SVGID_00000000181166539718916830000010440768651025324685_);}
	.st167{opacity:0.4;fill:url(#SVGID_00000057852542024470696600000008293608164974999937_);}
	.st168{opacity:0.4;fill:url(#SVGID_00000006696734257428951680000002867999284942730680_);}
	.st169{opacity:0.4;fill:url(#SVGID_00000000920801064331078120000003110399446419046790_);}
	.st170{opacity:0.4;fill:url(#SVGID_00000096776920309548364290000000614335663140982204_);}
	.st171{opacity:0.4;fill:url(#SVGID_00000073704388008713150870000002023249831565557434_);}
	.st172{opacity:0.4;fill:url(#SVGID_00000021816525575982006320000014273296913519596687_);}
	.st173{opacity:0.4;fill:url(#SVGID_00000088848463445043036840000017720734105187612573_);}
	.st174{opacity:0.4;fill:url(#SVGID_00000036252503665446094500000007923819881535508121_);}
	.st175{opacity:0.4;fill:url(#SVGID_00000030448865253390718810000014116258011088619186_);}
	.st176{opacity:0.4;fill:url(#SVGID_00000160183568454770610940000003342383329627108521_);}
	.st177{opacity:0.4;fill:url(#SVGID_00000106830590618672466420000009608030019104381060_);}
	.st178{opacity:0.4;fill:url(#SVGID_00000181070547554107187230000002802317782800893323_);}
	.st179{opacity:0.4;fill:url(#SVGID_00000101808767212071174670000001196632756497141152_);}
	.st180{opacity:0.4;fill:url(#SVGID_00000022529424418094798030000000926746346030019006_);}
	.st181{opacity:0.4;fill:url(#SVGID_00000013882354014012654210000003290284661639891884_);}
	.st182{opacity:0.35;fill:url(#SVGID_00000140736559848294513940000013474494250338546104_);}
	.st183{opacity:0.35;fill:url(#SVGID_00000049902951872193866840000005979712763059553200_);}
	.st184{opacity:0.4;fill:url(#SVGID_00000048471592065420847250000005677792912255199407_);}
	.st185{opacity:0.4;fill:url(#SVGID_00000009547686793041379300000012165040112944756873_);}
	.st186{opacity:0.4;fill:url(#SVGID_00000013872312685097864080000012425928004959388297_);}
	.st187{opacity:0.4;fill:url(#SVGID_00000060025255590088323800000006968691611221582003_);}
	.st188{fill:url(#SVGID_00000119107683340906481910000015067890145379302068_);}
	.st189{fill:url(#SVGID_00000159459086954444039780000006762058129545749418_);}
	.st190{fill:url(#SVGID_00000125597762186955093370000000612968719102097332_);}
	.st191{opacity:0.4;fill:url(#SVGID_00000121989847480947528370000002662743419374826119_);}
	.st192{opacity:0.4;fill:url(#SVGID_00000181067705112445524900000010587889599273720710_);}
	.st193{opacity:0.4;fill:url(#SVGID_00000113316424032243106660000016834480471457270666_);}
	.st194{opacity:0.4;fill:url(#SVGID_00000130608446434899797350000004917409444906967460_);}
	.st195{opacity:0.4;fill:url(#SVGID_00000045608869450730992620000009707909686927075204_);}
	.st196{opacity:0.4;fill:url(#SVGID_00000151523190864717070350000009507055677273251460_);}
	.st197{opacity:0.4;fill:url(#SVGID_00000055668285695198686050000016723945264482265003_);}
	.st198{opacity:0.4;fill:url(#SVGID_00000110440716863450801890000016852910762365753256_);}
	.st199{opacity:0.4;fill:url(#SVGID_00000181806599844161492410000009902956950076311729_);}
	.st200{opacity:0.4;fill:url(#SVGID_00000121972159646872178470000009845520333321221769_);}
	.st201{opacity:0.4;fill:url(#SVGID_00000121271425826833051480000002287641147695287439_);}
	.st202{opacity:0.4;fill:url(#SVGID_00000157287499573091089350000015522400161007491262_);}
	.st203{opacity:0.4;fill:url(#SVGID_00000032618729157672794400000009289697124805093280_);}
	.st204{opacity:0.4;fill:url(#SVGID_00000034774420119774210960000012840444788845664132_);}
	.st205{opacity:0.4;fill:url(#SVGID_00000047034940618564199050000012436933201286438812_);}
	.st206{opacity:0.4;fill:url(#SVGID_00000177481685156594413320000010054487814125126570_);}
	.st207{opacity:0.35;fill:url(#SVGID_00000132088843739238878600000013847777682852506541_);}
	.st208{opacity:0.35;fill:url(#SVGID_00000070834354281127641320000001194539688116765068_);}
	.st209{opacity:0.4;fill:url(#SVGID_00000133523292766596176180000005669752426266887053_);}
	.st210{opacity:0.4;fill:url(#SVGID_00000084506154711543525190000016122950787261854388_);}
	.st211{opacity:0.4;fill:url(#SVGID_00000124860295757623856990000000430521568019815042_);}
	.st212{opacity:0.4;fill:url(#SVGID_00000044891936870089025030000007389230010920153228_);}
	.st213{fill:url(#SVGID_00000053517640938187097200000016089664045176683140_);}
	.st214{fill:url(#SVGID_00000152959751823649830420000016093884985240185229_);}
	.st215{fill:url(#SVGID_00000091697987303015879490000012306954226146166710_);}
	.st216{opacity:0.4;fill:url(#SVGID_00000121259530872733684240000006386915746264235696_);}
	.st217{opacity:0.4;fill:url(#SVGID_00000102537955231863829350000015529115934835753906_);}
	.st218{opacity:0.4;fill:url(#SVGID_00000170260218112906768450000007127865300191323543_);}
	.st219{opacity:0.4;fill:url(#SVGID_00000096028804316668515690000009537381414876736905_);}
	.st220{opacity:0.4;fill:url(#SVGID_00000107571480392866583310000013399265798819668622_);}
	.st221{opacity:0.4;fill:url(#SVGID_00000104697061129513753170000008906242527098185375_);}
	.st222{opacity:0.4;fill:url(#SVGID_00000172426143374527088860000015842446070908923826_);}
	.st223{opacity:0.4;fill:url(#SVGID_00000036239113429203385060000014735523385269837712_);}
	.st224{opacity:0.4;fill:url(#SVGID_00000065763518032846634230000000426819356372439430_);}
	.st225{opacity:0.4;fill:url(#SVGID_00000070079032745132156150000016831728786647915173_);}
	.st226{opacity:0.4;fill:url(#SVGID_00000152239094868847354350000008382775148559307680_);}
	.st227{opacity:0.4;fill:url(#SVGID_00000028307161515122073380000003583752442104304257_);}
	.st228{opacity:0.4;fill:url(#SVGID_00000172433363741478228550000003346097171179355061_);}
	.st229{opacity:0.4;fill:url(#SVGID_00000062180910018172411300000004323563440134788274_);}
	.st230{opacity:0.4;fill:url(#SVGID_00000000922058402819816400000002711977385556427704_);}
	.st231{opacity:0.4;fill:url(#SVGID_00000083067452678393788580000009591108103587581886_);}
	.st232{opacity:0.35;fill:url(#SVGID_00000111903420310718386670000013829803354627567753_);}
	.st233{opacity:0.35;fill:url(#SVGID_00000111886991991384755780000008633635914636359069_);}
	.st234{opacity:0.4;fill:url(#SVGID_00000174595606493310048320000016841883086929302947_);}
	.st235{opacity:0.4;fill:url(#SVGID_00000065794736903315306040000006796291026633804696_);}
	.st236{opacity:0.4;fill:url(#SVGID_00000070804347914893418710000000572643230985135293_);}
	.st237{opacity:0.4;fill:url(#SVGID_00000179627723733030834550000010764625329168734630_);}
	.st238{fill:url(#SVGID_00000008132217416627416350000015255895927206009250_);}
	.st239{fill:url(#SVGID_00000096760612244979238080000013186254042985110958_);}
	.st240{fill:url(#SVGID_00000160906603749558661790000013802948758407240635_);}
	.st241{opacity:0.4;fill:url(#SVGID_00000140703157328223254920000016909698754380333717_);}
	.st242{opacity:0.4;fill:url(#SVGID_00000067916372950144017950000015924538854552506535_);}
	.st243{opacity:0.4;fill:url(#SVGID_00000157302214717110620470000003730368547627121332_);}
	.st244{opacity:0.4;fill:url(#SVGID_00000109735294102249563990000013186766628082945214_);}
	.st245{opacity:0.4;fill:url(#SVGID_00000052806496222243397160000009132163786579468979_);}
	.st246{opacity:0.4;fill:url(#SVGID_00000016055342914486451610000006124388416830628747_);}
	.st247{opacity:0.4;fill:url(#SVGID_00000060027151064556848010000017640167443260816271_);}
	.st248{opacity:0.4;fill:url(#SVGID_00000137094151953186923460000016072968510188857244_);}
	.st249{opacity:0.4;fill:url(#SVGID_00000105385981315768570790000000135315173682189988_);}
	.st250{opacity:0.4;fill:url(#SVGID_00000128448171819322223620000013753954632441711254_);}
	.st251{opacity:0.4;fill:url(#SVGID_00000075133469580134357310000007119919892710844554_);}
	.st252{opacity:0.4;fill:url(#SVGID_00000116944579944955769070000004631788492885734836_);}
	.st253{opacity:0.4;fill:url(#SVGID_00000137117941077007031990000003492990706822382487_);}
	.st254{opacity:0.4;fill:url(#SVGID_00000148650812886319325030000014326213075830839972_);}
	.st255{opacity:0.4;fill:url(#SVGID_00000131363897871719202910000011760318157172703413_);}
	.st256{opacity:0.4;fill:url(#SVGID_00000166645417823168059830000007078347492225111222_);}
	.st257{opacity:0.35;fill:url(#SVGID_00000083770940367765291480000006195120788617114291_);}
	.st258{opacity:0.35;fill:url(#SVGID_00000112619906913414333470000009138679404241039542_);}
	.st259{opacity:0.4;fill:url(#SVGID_00000045579089035595755340000013143757951445620923_);}
	.st260{opacity:0.4;fill:url(#SVGID_00000091701395216453433500000004802223021314758805_);}
	.st261{opacity:0.4;fill:url(#SVGID_00000010309959908067648790000014662879563670539169_);}
	.st262{opacity:0.4;fill:url(#SVGID_00000016033679095789723220000006683083036999555259_);}
	.st263{fill:url(#SVGID_00000045594204073990404780000008902706159308341379_);}
	.st264{fill:url(#SVGID_00000001626180439978271090000000375464347980921766_);}
	.st265{fill:url(#SVGID_00000057107164121872073410000011225284432626533025_);}
	.st266{opacity:0.4;fill:url(#SVGID_00000160909097754324135700000001824759104385012358_);}
	.st267{opacity:0.4;fill:url(#SVGID_00000013881369106165839210000005857678426308076695_);}
	.st268{opacity:0.4;fill:url(#SVGID_00000024724244526078744440000002784955358078399903_);}
	.st269{opacity:0.4;fill:url(#SVGID_00000047019772842618481240000016813134464776403889_);}
	.st270{opacity:0.4;fill:url(#SVGID_00000039123198952441744780000016549138533276390786_);}
	.st271{opacity:0.4;fill:url(#SVGID_00000160896142388219363030000014429852614248962210_);}
	.st272{opacity:0.4;fill:url(#SVGID_00000143582707717369229190000010184927332434676662_);}
	.st273{opacity:0.4;fill:url(#SVGID_00000183209357293438681670000017597258299150694291_);}
	.st274{opacity:0.4;fill:url(#SVGID_00000016067622307992219290000017396581608377377975_);}
	.st275{opacity:0.4;fill:url(#SVGID_00000045613703620730749060000003853253939945413507_);}
	.st276{opacity:0.4;fill:url(#SVGID_00000016756822228912272640000008874940764608730282_);}
	.st277{opacity:0.4;fill:url(#SVGID_00000014630268685128493290000001517416371069190025_);}
	.st278{opacity:0.4;fill:url(#SVGID_00000046316489477832709340000016435745200209479609_);}
	.st279{opacity:0.4;fill:url(#SVGID_00000155867502623422811850000017632043701274738612_);}
	.st280{opacity:0.4;fill:url(#SVGID_00000037663812980946395100000010625159133395891118_);}
	.st281{opacity:0.4;fill:url(#SVGID_00000160883193181764994730000017383160221784850312_);}
	.st282{opacity:0.35;fill:url(#SVGID_00000021109832330356529380000011183812120455721103_);}
	.st283{opacity:0.35;fill:url(#SVGID_00000103972101851350072790000010948686647052800663_);}
	.st284{opacity:0.4;fill:url(#SVGID_00000020364897217118478270000000708641432006412973_);}
	.st285{opacity:0.4;fill:url(#SVGID_00000175315691222692776080000010274341315433457319_);}
	.st286{opacity:0.4;fill:url(#SVGID_00000169539642820841188550000000942607880198255764_);}
	.st287{opacity:0.4;fill:url(#SVGID_00000087387112095452375670000000375680332272708234_);}
	.st288{fill:url(#SVGID_00000125573577400034818950000000935188983506000556_);}
	.st289{fill:url(#SVGID_00000173151224928675796820000000083500650566563758_);}
	.st290{fill:url(#SVGID_00000005235355639744055580000009460751268842288319_);}
	.st291{opacity:0.4;fill:url(#SVGID_00000021097172094340779510000002341253876314933691_);}
	.st292{opacity:0.4;fill:url(#SVGID_00000129175699567864978120000003370823035886393261_);}
	.st293{opacity:0.4;fill:url(#SVGID_00000100371983663120955500000008397170815873047708_);}
	.st294{opacity:0.4;fill:url(#SVGID_00000167393117651902562730000010834021399871613833_);}
	.st295{opacity:0.4;fill:url(#SVGID_00000154412278536803280480000008704564208931332282_);}
	.st296{opacity:0.4;fill:url(#SVGID_00000119093303156453832280000005110403779880378752_);}
	.st297{opacity:0.4;fill:url(#SVGID_00000140696334822580046430000008438459321439641020_);}
	.st298{opacity:0.4;fill:url(#SVGID_00000046336610135983748800000016769268323299433648_);}
	.st299{opacity:0.4;fill:url(#SVGID_00000029760573444122503000000017552278531999156882_);}
	.st300{opacity:0.4;fill:url(#SVGID_00000062909593115444540630000008638270546498194108_);}
	.st301{opacity:0.4;fill:url(#SVGID_00000176732708533800357040000010847319228200814762_);}
	.st302{opacity:0.4;fill:url(#SVGID_00000098217288004465740740000005639508866434554525_);}
	.st303{opacity:0.4;fill:url(#SVGID_00000044881279121669558460000009544818565250008204_);}
	.st304{opacity:0.4;fill:url(#SVGID_00000161623796370799527190000010097699806097622678_);}
	.st305{opacity:0.4;fill:url(#SVGID_00000056405383037781254800000012567249418659149226_);}
	.st306{opacity:0.4;fill:url(#SVGID_00000012460522985472637140000011163610604574506378_);}
	.st307{opacity:0.35;fill:url(#SVGID_00000129206286868203121990000010971369410919329214_);}
	.st308{opacity:0.35;fill:url(#SVGID_00000074413540491723577160000007887827291375334540_);}
	.st309{opacity:0.4;fill:url(#SVGID_00000036209768818834927230000003385057268943106225_);}
	.st310{opacity:0.4;fill:url(#SVGID_00000021090957673165598830000002345135093511102091_);}
	.st311{opacity:0.4;fill:url(#SVGID_00000057114435409043797230000000390949274536432773_);}
	.st312{opacity:0.4;fill:url(#SVGID_00000133525865369234881190000004309859639356300974_);}
	.st313{fill:url(#SVGID_00000043457160912399866320000000415956531642689415_);}
	.st314{fill:url(#SVGID_00000164505022008978464660000014200158214072925328_);}
	.st315{fill:url(#SVGID_00000023979021330833577290000017287860012587352747_);}
	.st316{opacity:0.4;fill:url(#SVGID_00000116953801572447526720000004106868487198040238_);}
	.st317{opacity:0.4;fill:url(#SVGID_00000065065696494722707080000006432914964949185182_);}
	.st318{opacity:0.4;fill:url(#SVGID_00000027595232177961338050000006761138643204531603_);}
	.st319{opacity:0.4;fill:url(#SVGID_00000170268262179508933330000012796277561017793195_);}
	.st320{opacity:0.4;fill:url(#SVGID_00000067920082263815784630000009968064352320066231_);}
	.st321{opacity:0.4;fill:url(#SVGID_00000170964141067027909020000008049332548233164460_);}
	.st322{opacity:0.4;fill:url(#SVGID_00000129200249376934222080000006411508843658307204_);}
	.st323{opacity:0.4;fill:url(#SVGID_00000078004837782883044050000013273139857076417928_);}
	.st324{opacity:0.4;fill:url(#SVGID_00000127752538561347292450000007258177460541897352_);}
	.st325{opacity:0.4;fill:url(#SVGID_00000056407697221615522530000005500164787179616391_);}
	.st326{opacity:0.4;fill:url(#SVGID_00000080166503111192749840000009875821187530518680_);}
	.st327{opacity:0.4;fill:url(#SVGID_00000146478134842803719350000015183624760636251548_);}
	.st328{opacity:0.4;fill:url(#SVGID_00000181801155756208605210000005835351480724751290_);}
	.st329{opacity:0.4;fill:url(#SVGID_00000123417431166736607640000012762686032592590764_);}
	.st330{opacity:0.4;fill:url(#SVGID_00000111874490231895829100000003787902710807962765_);}
	.st331{opacity:0.4;fill:url(#SVGID_00000072987143542926522990000015715707824925891982_);}
	.st332{opacity:0.35;fill:url(#SVGID_00000142889470854619922590000005827580817238551958_);}
	.st333{opacity:0.35;fill:url(#SVGID_00000065070230638069401930000005087979253771059604_);}
	.st334{opacity:0.4;fill:url(#SVGID_00000085238894345282627940000014987561567429626286_);}
	.st335{opacity:0.4;fill:url(#SVGID_00000165201968956255146800000002417194653090252161_);}
	.st336{opacity:0.4;fill:url(#SVGID_00000138545947504534749060000008463723037557571492_);}
	.st337{opacity:0.4;fill:url(#SVGID_00000018236457401372310550000013798673446649139620_);}
	.st338{fill:url(#SVGID_00000149348448913082616400000018216631038067750559_);}
	.st339{fill:url(#SVGID_00000182486548515677520640000006771864441770533286_);}
	.st340{fill:url(#SVGID_00000122692545985039327950000014434192364677025970_);}
	.st341{opacity:0.4;fill:url(#SVGID_00000164473596113234390940000005092693189778665145_);}
	.st342{opacity:0.4;fill:url(#SVGID_00000098900282261032203870000011982250705581784962_);}
	.st343{opacity:0.4;fill:url(#SVGID_00000069389296616418565090000017056751131224708245_);}
	.st344{opacity:0.4;fill:url(#SVGID_00000088093557669040944530000003579659982566343853_);}
	.st345{opacity:0.4;fill:url(#SVGID_00000039816274036965601060000004591594975882191789_);}
	.st346{opacity:0.4;fill:url(#SVGID_00000033347884147318459780000014655686161768024505_);}
	.st347{opacity:0.4;fill:url(#SVGID_00000173880963959057952400000008043815755186106012_);}
	.st348{opacity:0.4;fill:url(#SVGID_00000103963227372322325150000003164259868712988598_);}
	.st349{opacity:0.4;fill:url(#SVGID_00000016780037375826693840000007163705471763953830_);}
	.st350{opacity:0.4;fill:url(#SVGID_00000171709478301768419290000008621840519456859060_);}
	.st351{opacity:0.4;fill:url(#SVGID_00000096753110993406905150000014750064285798662031_);}
	.st352{opacity:0.4;fill:url(#SVGID_00000008861323339563063760000012487717806868801172_);}
	.st353{opacity:0.4;fill:url(#SVGID_00000005984831737143021980000018416569139570173330_);}
	.st354{opacity:0.4;fill:url(#SVGID_00000055684779147890942350000003513108444576334015_);}
	.st355{opacity:0.4;fill:url(#SVGID_00000029012335744316222680000011055816799863564720_);}
	.st356{opacity:0.4;fill:url(#SVGID_00000029040582614576883960000004160611450723351711_);}
	.st357{opacity:0.35;fill:url(#SVGID_00000175319247984257169910000013837714481231925436_);}
	.st358{opacity:0.35;fill:url(#SVGID_00000158741745671317354070000001665345886527689140_);}
	.st359{opacity:0.4;fill:url(#SVGID_00000080182345354024564080000003111598430071802042_);}
	.st360{opacity:0.4;fill:url(#SVGID_00000061456182444250049320000016990289255453980072_);}
	.st361{opacity:0.4;fill:url(#SVGID_00000090268879478709890610000015092818465732418492_);}
	.st362{opacity:0.4;fill:url(#SVGID_00000102516459179998899450000016941598769086551477_);}
	.st363{fill:url(#SVGID_00000008130416059911708430000006935992438037842861_);}
	.st364{fill:url(#SVGID_00000059269730372373376620000014433652840539597443_);}
	.st365{fill:url(#SVGID_00000012465562052245688670000001931514436669840289_);}
	.st366{opacity:0.4;fill:url(#SVGID_00000124127464569462364180000001913670954191241398_);}
	.st367{opacity:0.4;fill:url(#SVGID_00000165941851990273558100000012855840365836078772_);}
	.st368{opacity:0.4;fill:url(#SVGID_00000026128810507976644650000010722731289691567257_);}
	.st369{opacity:0.4;fill:url(#SVGID_00000023243926118449527730000000736660537989759376_);}
	.st370{opacity:0.4;fill:url(#SVGID_00000031193248329384840230000014450133913843932054_);}
	.st371{opacity:0.4;fill:url(#SVGID_00000053505618222830158080000000430121146626092182_);}
	.st372{opacity:0.4;fill:url(#SVGID_00000139260009599031150040000013941121432916732549_);}
	.st373{opacity:0.4;fill:url(#SVGID_00000029024185283006085390000001677605018476809394_);}
	.st374{opacity:0.4;fill:url(#SVGID_00000178905392372217751100000007600324107974607746_);}
	.st375{opacity:0.4;fill:url(#SVGID_00000099620453299639728430000000679257960480800949_);}
	.st376{opacity:0.4;fill:url(#SVGID_00000015314577472635763540000012337440330488161977_);}
	.st377{opacity:0.4;fill:url(#SVGID_00000085233165026411996990000003654896249480384155_);}
	.st378{opacity:0.4;fill:url(#SVGID_00000173151045712042993720000012507841440960152208_);}
	.st379{opacity:0.4;fill:url(#SVGID_00000167379269713964545430000011587305705619289752_);}
	.st380{opacity:0.4;fill:url(#SVGID_00000100346510749152367930000001376088138322698680_);}
	.st381{opacity:0.4;fill:url(#SVGID_00000150071182845108156330000012731121439224284607_);}
	.st382{opacity:0.35;fill:url(#SVGID_00000078753708995023119180000010399163831386496166_);}
	.st383{opacity:0.35;fill:url(#SVGID_00000082338998683070144760000015015441233179976356_);}
	.st384{opacity:0.4;fill:url(#SVGID_00000090262296220067306070000013254543664378257041_);}
	.st385{opacity:0.4;fill:url(#SVGID_00000131369155871477465880000015816329668060321703_);}
	.st386{opacity:0.4;fill:url(#SVGID_00000086672609114764266140000002051984527723033740_);}
	.st387{opacity:0.4;fill:url(#SVGID_00000083056670709642913250000015718253653010600849_);}
	.st388{fill:url(#SVGID_00000146472323239586502960000004023103223833144739_);}
	.st389{fill:url(#SVGID_00000000212842727403124200000002739675749749417653_);}
	.st390{fill:url(#SVGID_00000068647058295873571560000008994022328934461601_);}
	.st391{fill:none;stroke:#60470F;stroke-miterlimit:10;}
	.st392{fill:none;stroke:#000000;stroke-miterlimit:10;}
</style>
<g>
	<path class="st59" d="M997.32,580.33c-3.82,11.47-7.56,11.1-19.54,31.45c-12,20.4-9.19,22.35-17.82,35.94
		c-8.8,13.86-19.16,22.59-39.9,40.01c-15.36,12.93-24.29,20.42-38.83,27.96c-4.71,2.43-7.71,3.69-34.48,14.01
		c-23.21,8.95-34.81,13.42-39.65,15.21c-24.22,8.95-42.9,15.85-66.66,23.01c-18.57,5.61-33.84,10.21-54.66,14.26
		c-26.24,5.11-45.75,6.32-78.64,8.22c-20.29,1.17-37.8,1.68-50.06,1.81c-6.08,0.07-13.57,0.09-22.08,0
		c-12.27-0.13-29.79-0.64-50.06-1.81c-32.89-1.9-52.43-3.12-78.62-8.22c-20.82-4.05-36.09-8.64-54.68-14.26
		c-23.78-7.16-42.44-14.06-66.68-23.01c-4.8-1.79-16.4-6.26-39.61-15.21c-26.79-10.32-29.8-11.58-34.5-14.01
		c-14.54-7.54-23.47-15.03-38.84-27.96c-20.73-17.42-31.1-26.15-39.9-40.01c-1.57-2.45-2.74-4.51-3.69-6.39
		c6.96,7.34,15.8,14.77,28.51,25.44c15.52,13.09,24.53,20.64,39.23,28.27c4.75,2.45,7.78,3.71,34.86,14.15
		c23.45,9.06,35.17,13.57,40.05,15.38c24.49,9.04,43.34,16,67.37,23.25c18.77,5.66,34.22,10.3,55.24,14.39
		c26.5,5.17,46.24,6.39,79.46,8.31c20.49,1.19,38.19,1.7,50.59,1.83c8.6,0.09,16.16,0.07,22.3,0c12.4-0.13,30.1-0.64,50.59-1.83
		c33.22-1.92,52.98-3.14,79.48-8.31c21.02-4.09,36.47-8.73,55.24-14.39c24-7.25,42.86-14.21,67.37-23.25
		c4.88-1.81,16.6-6.32,40.05-15.38c27.05-10.43,30.08-11.69,34.86-14.15c14.68-7.63,23.72-15.18,39.23-28.27
		c20.95-17.59,31.41-26.41,40.29-40.43c8.73-13.73,5.88-15.69,18.01-36.32c12.11-20.56,15.89-20.18,19.74-31.78
		c3.93-11.78,3.67-23.19,2.43-31.9c1.17,2.37,2.25,5.02,3.43,9.04C998.56,541.76,1003.93,560.48,997.32,580.33z"/>
	<path class="st60" d="M992.39,563.47c-3.85,11.56-7.61,11.18-19.69,31.7c-12.1,20.56-9.25,22.52-17.96,36.22
		c-8.87,13.97-19.3,22.77-40.21,40.32c-15.48,13.03-24.48,20.58-39.13,28.18c-4.74,2.45-7.77,3.72-34.76,14.12
		c-23.38,9.02-35.08,13.52-39.95,15.33c-24.43,9.02-43.24,15.97-67.19,23.19c-18.71,5.66-34.12,10.29-55.09,14.37
		c-26.44,5.15-46.13,6.37-79.27,8.29c-20.44,1.18-38.1,1.69-50.46,1.83c-6.12,0.07-13.67,0.09-22.25,0
		c-12.37-0.14-30.03-0.65-50.46-1.83c-33.14-1.92-52.83-3.14-79.25-8.29c-20.97-4.08-36.38-8.71-55.11-14.37
		c-23.95-7.22-42.76-14.17-67.19-23.19c-4.85-1.8-16.55-6.3-39.93-15.33c-27.01-10.4-30.04-11.67-34.78-14.12
		c-14.66-7.6-23.66-15.15-39.13-28.18c-20.9-17.55-31.34-26.35-40.21-40.32c-8.71-13.7-5.86-15.66-17.96-36.22
		c-12.08-20.52-15.84-20.14-19.69-31.7c-6.66-20-1.25-38.87,0.59-45.29c3.81-13.3,6.86-11.76,15.04-33.39
		c5.97-15.75,5.11-18.58,10.44-30.56c2.05-4.63,7.7-17.15,17.71-29.27c3.81-4.63,13.45-15.5,43.67-32.44
		c19.03-10.65,26.51-12.68,47.5-22.63c37.63-17.89,34.83-21.48,57.35-31.14c33.76-14.52,39.64-6.26,93.81-21.52
		c34.67-9.76,31.77-12.99,61.4-19.8c31.16-7.17,77.61-9.07,77.61-9.07c22.69-0.94,42.78-0.69,59.44,0c0,0,46.42,1.9,77.61,9.07
		c29.65,6.82,26.74,10.05,61.4,19.8c54.18,15.26,60.06,7,93.84,21.52c22.5,9.67,19.69,13.25,57.32,31.14
		c20.99,9.96,28.47,11.98,47.5,22.63c30.22,16.93,39.89,27.8,43.69,32.44c9.98,12.12,15.64,24.64,17.71,29.27
		c5.31,11.98,4.47,14.81,10.42,30.56c8.18,21.63,11.24,20.09,15.07,33.39C993.64,524.6,999.05,543.47,992.39,563.47z"/>
	<ellipse class="st61" cx="537.55" cy="547.79" rx="342.45" ry="153.62"/>
	<g>
		<path class="st62" d="M205.17,688.41c-14.6-7.17-27.15-17.71-39.52-28.09c-12.35-10.45-25.35-20.46-35.23-33.45
			c-4.92-6.49-8.96-13.72-11.74-21.35c-5.86-15.05-14.66-28.75-24.29-41.66c-2.38-3.33-4.09-7.14-5.24-11.03
			c-1.19-3.89-1.98-7.9-2.4-11.94c-0.01-0.14,0.09-0.26,0.22-0.27c0.14-0.01,0.26,0.08,0.27,0.22c1.06,7.91,3.21,15.93,7.97,22.44
			c9.85,12.83,18.87,26.57,24.79,41.71c1.47,3.77,3.02,7.45,5.02,10.93c9.8,17.84,26.23,30.41,41.41,43.47
			c6.16,5.24,12.29,10.51,18.68,15.44c6.37,4.95,13.14,9.38,20.28,13.15c0.12,0.06,0.17,0.22,0.1,0.34
			C205.44,688.42,205.29,688.47,205.17,688.41L205.17,688.41z"/>
	</g>
	<g>
		<path class="st62" d="M838.44,702.37c-66.55,25.71-134.66,54.09-206.53,59.06c-47.75,3.7-95.78,5.24-143.63,2.59
			c-35.87-1.81-71.98-3.95-106.9-12.98c-34.76-9.05-69.47-20.51-102.53-33.86c0.05-0.13,0.19-0.19,0.32-0.15
			c11.25,4.09,22.49,8.19,33.81,12.09c11.31,3.9,22.7,7.56,34.18,10.94c34.24,10.79,69.5,18.08,105.39,20.01
			c35.75,2.47,71.7,3.98,107.55,3.12c47.66-1.73,95.94-2.86,142.28-15.22c28.72-7.52,57.52-17,85.44-27.21
			c12.32-4.33,38.09-14.28,50.44-18.87c0.13-0.05,0.27,0.02,0.32,0.14C838.63,702.18,838.56,702.32,838.44,702.37L838.44,702.37z"/>
	</g>
	<g>
		<path class="st62" d="M859.7,694.11c-4,1.85-8.1,3.46-12.23,5c-1.39,0.49-2.77,0.97-4.18,1.39c-0.13,0.04-0.27-0.04-0.31-0.17
			c-0.04-0.12,0.02-0.25,0.13-0.3c2.66-1.26,5.38-2.36,8.12-3.41c2.75-1.04,5.49-2.07,8.29-2.98
			C859.81,693.54,859.99,693.98,859.7,694.11L859.7,694.11z"/>
	</g>
	<g>
		<path class="st62" d="M911.49,660.55c-11.67,10.82-24.12,21.22-38.71,27.86c-0.27,0.13-0.51-0.29-0.23-0.44
			c10.39-5.86,19.95-12.95,29.2-20.46c0,0,4.68-3.7,4.68-3.7c1.58-1.22,3.14-2.45,4.73-3.64
			C911.4,659.98,911.72,660.33,911.49,660.55L911.49,660.55z"/>
	</g>
	<g>
		<path class="st62" d="M991.23,540.82c-0.64,8.32-2.8,16.9-7.84,23.7c-5.04,6.64-9.85,13.36-14.39,20.36
			c-0.16,0.25-0.58,0.03-0.43-0.25c1.93-3.7,4.06-7.3,6.34-10.81c4.49-6.96,10.47-12.95,12.89-21.02c1.34-3.9,2.29-7.94,2.94-12.03
			C990.77,540.47,991.26,540.5,991.23,540.82L991.23,540.82z"/>
	</g>
	<path class="st63" d="M992.39,563.47c-3.85,11.56-7.62,11.18-19.69,31.7c-12.1,20.56-9.24,22.52-17.96,36.22
		c-8.87,13.97-19.31,22.77-40.21,40.32c-15.48,13.03-24.48,20.58-39.14,28.18c-4.19,2.18-7.06,3.43-26.55,10.96
		c16.42-8.71,57.75-33.56,81.32-84.35c4.28-9.23,36.42-81.33,1.19-145.63c-14.66-26.75-34.56-40.46-63.74-60.56
		c-32.98-22.71-54.91-29.25-130.67-58.96c-98.46-38.61-84.64-36.66-103.58-41.43c-49.59-12.5-93.11-12.97-165.25-13.75
		c-28.51-0.31-52.17,0.23-68.57,0.78c8.13-3.19,14.64-5.84,30.7-9.53c31.14-7.17,77.61-9.07,77.61-9.07
		c22.68-0.94,42.77-0.69,59.44,0c0,0,46.43,1.89,77.61,9.07c29.65,6.82,26.73,10.05,61.4,19.8c54.18,15.26,60.06,6.99,93.83,21.52
		c22.5,9.67,19.69,13.25,57.32,31.14c21.01,9.96,28.47,11.99,47.5,22.63c30.23,16.93,39.9,27.8,43.71,32.44
		c9.98,12.12,15.64,24.64,17.71,29.27c5.3,11.98,4.46,14.81,10.4,30.56c8.2,21.63,11.25,20.09,15.08,33.39
		C993.64,524.6,999.05,543.47,992.39,563.47z"/>
</g>
</svg>
