<svg version="1.1" xmlns="http://www.w3.org/2000/svg" xmlns:xlink="http://www.w3.org/1999/xlink" x="0px" y="0px" viewBox="0 0 82 97" style="enable-background:new 0 0 82 97;" xml:space="preserve">
  <rect id="logo-bg" style="fill-rule:evenodd;clip-rule:evenodd;fill:#FFFFFF;" width="82" height="97"></rect>
  <path id="logo" style="fill-rule:evenodd;clip-rule:evenodd;fill:#A22428;" d="M74,88.9h-2.3V85h-0.9
	c-0.4,0.1-1.1,1.3-2.8,3.9h-2.6c1.7-2.6,2.7-4.3,3.3-4.6v0c-1-0.4-2-1.3-2-2.6c0-1.6,1.1-2.9,4-2.9H74V88.9z M61.1,88.9h-2.3v-5.5
	c0-0.5,0-1.1,0-1.4h0c-0.3,0.4-0.6,0.8-1.1,1.3l-4.8,5.6h-2.1V78.8h2.3v5.1c0,0.4,0,1.1,0,1.6h0c0.3-0.4,0.6-0.8,1-1.3l4.6-5.4h2.3
	V88.9z M50.1,70.5h0.5c-0.2,0.2-0.3,0.5-0.5,0.7V70.5z M49.7,76.5h-0.8c-0.1,0-0.1,0-0.1-0.1c0-0.1,0-0.1,0.1-0.1c0,0,0.4,0,0.6,0
	c0-0.2,0-38.5,0-38.5c0-0.1,0.1-0.1,0.1-0.1c0.1,0,0.1,0,0.1,0.1V76.5z M39.4,41.6H24.7V65h-4.8c-0.1-0.2-0.3-0.4-0.4-0.7h3.2
	c0.1,0,0.1,0,0.1-0.1c0-0.1,0-0.1-0.1-0.1h-3.3c-0.1-0.2-0.3-0.4-0.4-0.7h2c0.1,0,0.1,0,0.1-0.1c0-0.1-0.1-0.1-0.1-0.1h-2.1
	c-0.1-0.2-0.2-0.4-0.3-0.7h1c0.1,0,0.1,0,0.1-0.1c0-0.1,0-0.1-0.1-0.1h-1.1c-4.1-8-7.4-18.2-7.7-29.6h1.2c0.2,4.9,0.9,9.8,2.1,14.7
	c0.4,1.6,0.9,3.1,1.4,4.7c0.9,2.7,2,5.4,3.2,8l0.2-0.1c-1.2-2.6-2.3-5.3-3.2-8c-0.5-1.5-1-3.1-1.4-4.7c-1.3-4.9-2-9.8-2.1-14.7h51.2
	c0,0.2,0,0.3,0,0.5h-7.4c-0.1,0-0.1,0-0.1,0.1c0,0.1,0,0.1,0.1,0.1h7.4c0,0.2,0,0.5,0,0.7H56c-0.1,0-0.1,0.1-0.1,0.1
	c0,0.1,0,0.1,0.1,0.1h7.3c0,0.2,0,0.4,0,0.7H56c-0.1,0-0.1,0-0.1,0.1c0,0.1,0,0.1,0.1,0.1h7.2c0,0.2,0,0.4,0,0.7H56
	c-0.1,0-0.1,0.1-0.1,0.1c0,0.1,0,0.1,0.1,0.1h7.1c0,0.2,0,0.4-0.1,0.7H56c-0.1,0-0.1,0-0.1,0.1c0,0.1,0,0.1,0.1,0.1H63
	c0,0.2,0,0.4-0.1,0.7h-7.1c-0.1,0-0.1,0-0.1,0.1c0,0.1,0.1,0.1,0.1,0.1H63c0,0.2,0,0.4-0.1,0.7h-7c-0.1,0-0.1,0.1-0.1,0.1
	c0,0.1,0.1,0.1,0.1,0.1h7c0,0.2,0,0.5-0.1,0.7h-7.1c-0.1,0-0.1,0-0.1,0.1c0,0.1,0.1,0.1,0.1,0.1h7.1c0,0.2-0.1,0.4-0.1,0.7h-7
	c-0.1,0-0.1,0.1-0.1,0.1c0,0.1,0.1,0.1,0.1,0.1h6.9c0,0.2-0.1,0.4-0.1,0.7h-6.8c-0.1,0-0.1,0-0.1,0.1c0,0.1,0.1,0.1,0.1,0.1h6.8
	c0,0.2-0.1,0.5-0.1,0.7h-6.9c-0.1,0-0.1,0.1-0.1,0.1c0,0.1,0,0.1,0.1,0.1h6.9c0,0.2-0.1,0.4-0.1,0.7h-7.1c-0.1,0-0.1,0-0.1,0.1
	c0,0.1,0.1,0.1,0.1,0.1h7c0,0.2-0.1,0.5-0.1,0.7h-7c-0.1,0-0.1,0.1-0.1,0.1c0,0.1,0,0.1,0.1,0.1H62c0,0.2-0.1,0.4-0.1,0.7h-7
	c-0.1,0-0.1,0-0.1,0.1c0,0.1,0,0.1,0.1,0.1h7c0,0.2-0.1,0.4-0.1,0.7h-7.1c-0.1,0-0.1,0-0.1,0.1c0,0.1,0.1,0.1,0.1,0.1h7
	c0,0.2-0.1,0.4-0.2,0.7h-7.1c-0.1,0-0.1,0-0.1,0.1c0,0.1,0,0.1,0.1,0.1h7c-0.1,0.2-0.1,0.4-0.2,0.7H54c-0.1,0-0.1,0-0.1,0.1
	c0,0.1,0,0.1,0.1,0.1h7.2c-0.1,0.2-0.1,0.4-0.2,0.7h-7.2c-0.1,0-0.1,0-0.1,0.1c0,0,0,0.1,0.1,0.1H61c-0.1,0.2-0.1,0.4-0.2,0.7h-7.4
	c-0.1,0-0.1,0.1-0.1,0.1c0,0.1,0,0.1,0.1,0.1h7.3c-0.1,0.2-0.1,0.4-0.2,0.7h-7.6c-0.1,0-0.1,0-0.1,0.1c0,0.1,0,0.1,0.1,0.1h7.5
	c-0.1,0.2-0.1,0.5-0.2,0.7h-7.6c-0.1,0-0.1,0.1-0.1,0.1c0,0.1,0,0.1,0.1,0.1h7.6c-0.1,0.2-0.1,0.4-0.2,0.7h-7.8
	c-0.1,0-0.1,0-0.1,0.1c0,0.1,0.1,0.1,0.1,0.1h7.7c-0.1,0.2-0.1,0.4-0.2,0.7h-8c-0.1,0-0.1,0-0.1,0.1c0,0.1,0.1,0.1,0.1,0.1h7.9
	c-0.1,0.2-0.1,0.5-0.2,0.7h-8.2c-0.1,0-0.1,0-0.1,0.1c0,0.1,0.1,0.1,0.1,0.1h8.1c-0.1,0.2-0.2,0.5-0.2,0.7h-8.4
	c-0.1,0-0.1,0-0.1,0.1c0,0.1,0.1,0.1,0.1,0.1H59c-0.1,0.2-0.2,0.5-0.2,0.7h-8.7v-18l-1.2,0h0v0l-0.4,0.2L39.4,41.6z M48.3,76.5
	c-0.7-0.3-8.3-3.6-8.6-3.8V42c0.3-0.1,7.9-3.6,8.6-3.9V76.5z M45.9,88.9h-2.3v-4.2h-5.1v4.2h-2.3V78.8h2.3v4.1h5.1v-4.1h2.3V88.9z
	 M30.4,88.9l-1.1-2.5h-3.8l-1,2.5h-2.3l4.3-10.1h1.7l4.5,10.1H30.4z M19.2,88.9H17v-5.6c0-0.4,0-0.7,0-1.1h0c-0.1,0.3-0.5,0.8-0.7,1
	l-2.1,2.9h-1.1l-2.3-2.9c-0.2-0.3-0.5-0.6-0.7-1h0c0,0.4,0,0.7,0,1v5.6H7.8V78.8H10l2.9,3.8c0.3,0.4,0.6,0.8,0.8,1.1h0
	c0.2-0.3,0.4-0.7,0.8-1.2l2.7-3.7h2.1V88.9z M39.2,69.2H26.8c-0.1,0-0.1-0.1-0.1-0.1c0-0.1,0.1-0.1,0.1-0.1h12.4
	c0.1,0,0.1,0.1,0.1,0.1C39.4,69.1,39.3,69.2,39.2,69.2z M26.2,70.4h13.1c0.1,0,0.1,0.1,0.1,0.1c0,0.1-0.1,0.1-0.1,0.1H26.2
	c-0.1,0-0.1-0.1-0.1-0.1C26,70.5,26.1,70.4,26.2,70.4z M39.3,46.2c0,0.1-0.1,0.1-0.1,0.1H26.8c-0.1,0-0.1-0.1-0.1-0.1
	c0-0.1,0.1-0.1,0.1-0.1h12.4C39.2,46,39.3,46.1,39.3,46.2z M39.2,44.8h-13c-0.1,0-0.1-0.1-0.1-0.1c0-0.1,0.1-0.1,0.1-0.1h13
	c0.1,0,0.1,0.1,0.1,0.1C39.3,44.7,39.2,44.8,39.2,44.8z M39.2,72.5h-14V42.8h13.9c0.1,0,0.2,0.1,0.2,0.2c0,0.1-0.1,0.2-0.2,0.2
	c0,0-13.2,0-13.6,0v29c0.3,0,13.6,0,13.6,0c0.1,0,0.2,0.1,0.2,0.2C39.4,72.4,39.3,72.5,39.2,72.5z M24.7,65.9h-4.3
	c-0.1-0.2-0.3-0.4-0.4-0.7h4.7V65.9z M24.7,66.8h-3.8c-0.1-0.2-0.3-0.4-0.4-0.7h4.2V66.8z M24.7,67.7h-3.2c-0.1-0.2-0.3-0.4-0.4-0.7
	h3.6V67.7z M24.7,68.5h-2.7c-0.1-0.2-0.3-0.4-0.4-0.7h3.1V68.5z M24.7,69.4h-2.1c-0.2-0.2-0.3-0.4-0.5-0.7h2.5V69.4z M24.7,70.3
	h-1.4c-0.2-0.2-0.3-0.4-0.5-0.7h1.9V70.3z M24.7,71.2H24c-0.2-0.2-0.3-0.4-0.5-0.7h1.3V71.2z M24.7,72.2c-0.2-0.2-0.4-0.5-0.6-0.8
	h0.6V72.2z M4.8,72.5v-1.1h18.4c0.3,0.4,0.6,0.8,0.9,1.1H4.8z M4.8,70h17.4c0.3,0.4,0.5,0.7,0.8,1H4.8V70z M4.8,68.6h16.5
	c0.2,0.4,0.5,0.7,0.7,1H4.8V68.6z M4.8,67.3h15.6c0.2,0.4,0.4,0.7,0.7,1H4.8V67.3z M18.3,65.2v-1.5c0.1,0.2,0.2,0.4,0.3,0.6v0.9
	H18.3z M16.9,65.2v-4.4c0.1,0.2,0.2,0.4,0.3,0.7v3.7H16.9z M15.4,65.2v-7.6c0.1,0.3,0.2,0.5,0.3,0.8v6.9H15.4z M14,65.2V53.8
	c0.1,0.3,0.2,0.6,0.3,0.9v10.5H14z M12.5,65.2v-16c0.1,0.4,0.2,0.7,0.3,1.1v14.9H12.5z M11.1,65.2V42.9c0.1,0.6,0.2,1.1,0.3,1.6
	v20.7H11.1z M4.8,65.8h14.7c0.2,0.4,0.4,0.7,0.7,1.1H4.8V65.8z M5.3,65.2h0.3V23.1H5.3V65.2z M6.7,65.2H7V23.1H6.7V65.2z M8.2,65.2
	h0.3V23.1H8.2V65.2z M9.6,65.2h0.3V23.1H9.6V65.2z M63.4,30.9c0,0.2,0,0.4,0,0.6h-7.5c-0.1,0-0.1,0-0.1,0.1c0,0.1,0.1,0.1,0.1,0.1
	h7.5c0,0.2,0,0.4,0,0.6H10.7c0-0.4,0-0.9,0-1.3C15.2,30.9,59,30.8,63.4,30.9z M11.1,29.9h0.3v-6.8h-0.3V29.9z M12.5,29.9h0.3v-6.8
	h-0.3V29.9z M14,29.9h0.3v-6.8H14V29.9z M15.4,29.9h0.3v-6.8h-0.3V29.9z M16.9,29.9h0.3v-6.8h-0.3V29.9z M18.3,29.9h0.3v-6.8h-0.3
	V29.9z M19.8,29.9h0.3v-6.8h-0.3V29.9z M21.2,29.9h0.3v-6.8h-0.3V29.9z M22.7,29.9H23v-6.8h-0.3V29.9z M24.1,29.9h0.3v-6.8h-0.3
	V29.9z M25.6,29.9h0.3v-6.8h-0.3V29.9z M27,29.9h0.3v-6.8H27V29.9z M28.5,29.9h0.3v-6.8h-0.3V29.9z M29.9,29.9h0.3v-6.8h-0.3V29.9z
	 M31.4,29.9h0.3v-6.8h-0.3V29.9z M33.5,27.4c0-0.9-0.6-1.6-0.6-2.6c0-1,0.7-1.7,0.7-1.7h1.1c0,0-0.8,0.8-0.8,1.7
	c0,0.9,0.6,1.7,0.6,2.6c0,1-0.5,1.8-1.1,2.5c0,0-0.9,0-1.1,0C33,29.2,33.5,28.3,33.5,27.4z M35.2,24.8c0-1,0.7-1.7,0.7-1.7H37
	c0,0-0.8,0.8-0.8,1.7c0,0.9,0.6,1.7,0.6,2.6c0,1-0.5,1.8-1.1,2.5c0,0-0.9,0-1.1,0c0.8-0.7,1.2-1.6,1.2-2.5
	C35.8,26.5,35.2,25.8,35.2,24.8z M37.5,24.8c0-1,0.7-1.7,0.7-1.7h1.1c0,0-0.8,0.8-0.8,1.7c0,0.9,0.6,1.7,0.6,2.6
	c0,1-0.5,1.8-1.1,2.5c0,0-0.9,0-1.1,0c0.8-0.7,1.2-1.6,1.2-2.5C38.1,26.5,37.5,25.8,37.5,24.8z M39.8,24.8c0-1,0.7-1.7,0.7-1.7h1.1
	c0,0-0.8,0.8-0.8,1.7c0,0.9,0.6,1.7,0.6,2.6c0,1-0.5,1.8-1.1,2.5c0,0-0.9,0-1.1,0c0.8-0.7,1.2-1.6,1.2-2.5
	C40.4,26.5,39.8,25.8,39.8,24.8z M42.1,24.8c0-1,0.7-1.7,0.7-1.7h1.1c0,0-0.8,0.8-0.8,1.7c0,0.9,0.6,1.7,0.6,2.6
	c0,1-0.5,1.8-1.1,2.5c0,0-0.9,0-1.1,0c0.7-0.7,1.2-1.6,1.2-2.5C42.7,26.5,42.1,25.8,42.1,24.8z M44.5,29.9h0.3v-6.8h-0.3V29.9z
	 M45.9,29.9h0.3v-6.8h-0.3V29.9z M47.3,29.9h0.3v-6.8h-0.3V29.9z M48.8,29.9h0.3v-6.8h-0.3V29.9z M50.3,29.9h0.3v-6.8h-0.3V29.9z
	 M51.7,29.9H52v-6.8h-0.3V29.9z M53.2,29.9h0.3v-6.8h-0.3V29.9z M54.6,29.9h0.3v-6.8h-0.3V29.9z M56.1,29.9h0.3v-6.8h-0.3V29.9z
	 M57.5,29.9h0.3v-6.8h-0.3V29.9z M59,29.9h0.3v-6.8H59V29.9z M60.4,29.9h0.3v-6.8h-0.3V29.9z M61.9,29.9h0.3v-6.8h-0.3V29.9z
	 M63.3,29.9h0.3v-6.8h-0.3V29.9z M67.7,46v-3.1H68v2.2C67.9,45.4,67.8,45.7,67.7,46z M66.2,49.1v-6.1h0.3v5.6
	C66.4,48.7,66.3,48.9,66.2,49.1z M64.8,51.2v-8.3h0.3v7.9C65,50.9,64.9,51,64.8,51.2z M63.3,52.7v-9.8h0.3v9.5
	C63.5,52.5,63.4,52.6,63.3,52.7z M61.9,54v-6.1c0.1-0.4,0.2-0.9,0.3-1.3v7.1C62.1,53.8,62,53.9,61.9,54z M60.4,54.9v-2.1
	c0.1-0.3,0.2-0.7,0.3-1v2.9C60.6,54.8,60.5,54.9,60.4,54.9z M73.8,37.7c0,0.3,0,0.6-0.1,0.9l0,0.3c-0.9,10.1-7.5,18.7-16.5,21.9
	c0.7-1.4,1.3-2.9,1.9-4.4c5.5-2.4,9.2-7.4,10.5-14.5l0.1-0.4c0,0-3.1,0-6.4,0c0.2-1.3,0.4-2.5,0.5-3.8H73.8z M64.8,36.7h0.3V23.1
	h-0.3V36.7z M66.2,36.7h0.3V23.1h-0.3V36.7z M67.7,36.7H68V23.1h-0.3V36.7z M69.1,36.7h0.3V23.1h-0.3V36.7z M70.6,36.7h0.3V23.1
	h-0.3V36.7z M72,36.7h0.3V23.1H72V36.7z M73.5,36.7h0.3V23.1h-0.3V36.7z M74.8,37.7C74.5,49.1,67,58.9,56.7,61.9
	c0.1-0.3,0.3-0.5,0.4-0.8c9.6-3.3,16.5-12.7,17-23.5H74.8z M74.9,42.9c0.1-0.6,0.2-1.1,0.3-1.7v24h-0.3V42.9z M74.9,36.7h0.3V23.1
	h-0.3V36.7z M76.4,65.2h0.3V23.1h-0.3V65.2z M73.5,65.2V47.5c0.1-0.3,0.2-0.5,0.3-0.8v18.5H73.5z M72,65.2V50.5
	c0.1-0.2,0.2-0.4,0.3-0.6v15.3H72z M70.6,65.2V52.9c0.1-0.2,0.2-0.3,0.3-0.5v12.8H70.6z M69.1,65.2V54.8c0.1-0.1,0.2-0.3,0.3-0.4
	v10.8H69.1z M67.7,65.2v-8.8c0.1-0.1,0.2-0.2,0.3-0.3v9.1H67.7z M66.2,65.2v-7.4c0.1-0.1,0.2-0.2,0.3-0.3v7.7H66.2z M64.8,65.2V59
	c0.1-0.1,0.2-0.2,0.3-0.2v6.5H64.8z M63.3,65.2V60c0.1-0.1,0.2-0.1,0.3-0.2v5.4H63.3z M61.9,65.2v-4.3c0.1-0.1,0.2-0.1,0.3-0.2v4.5
	H61.9z M60.4,65.2v-3.5c0.1-0.1,0.2-0.1,0.3-0.2v3.7H60.4z M59,65.2v-2.9c0.1,0,0.2-0.1,0.3-0.1v3H59z M57.5,65.2v-2.4
	c0.1,0,0.2-0.1,0.3-0.1v2.5H57.5z M77.2,67H53.9c0.1-0.1,0.2-0.2,0.2-0.4h9.8c0.1,0,0.2-0.1,0.2-0.2c0-0.1-0.1-0.2-0.2-0.2h-9.6
	c0.1-0.1,0.2-0.3,0.3-0.4h22.7V67z M77.2,68.3H53c0.1-0.1,0.2-0.2,0.2-0.4H62c0.1,0,0.2-0.1,0.2-0.2c0-0.1-0.1-0.2-0.2-0.2h-8.6
	c0.1-0.1,0.2-0.3,0.2-0.4h23.6V68.3z M77.2,69.7H52.1c0.1-0.1,0.2-0.2,0.3-0.4h7.5c0.1,0,0.2-0.1,0.2-0.2c0-0.1-0.1-0.2-0.2-0.2
	h-7.3c0.1-0.1,0.2-0.2,0.2-0.4h24.4V69.7z M77.2,71.1H51.1c0.1-0.1,0.2-0.2,0.3-0.4h6.4c0.1,0,0.2-0.1,0.2-0.2
	c0-0.1-0.1-0.2-0.2-0.2h-6.1c0.1-0.1,0.2-0.2,0.3-0.4h25.3V71.1z M51.2,69.7c-0.2,0.2-0.3,0.4-0.5,0.7h-0.7v-0.7H51.2z M51.8,68.8
	c-0.2,0.2-0.3,0.5-0.5,0.7h-1.3v-0.7H51.8z M52.4,67.9c-0.1,0.2-0.3,0.4-0.4,0.7h-1.9v-0.7H52.4z M53,67c-0.2,0.2-0.3,0.4-0.4,0.7
	h-2.5V67H53z M53.5,66.1c-0.1,0.2-0.3,0.5-0.4,0.7h-3v-0.7H53.5z M54,65.2c-0.1,0.2-0.3,0.5-0.4,0.7h-3.6v-0.7H54z M54.5,64.3
	c-0.1,0.2-0.2,0.5-0.4,0.7h-4.1v-0.7H54.5z M55,63.5c-0.1,0.2-0.2,0.4-0.4,0.7h-4.6v-0.7H55z M55.5,62.6c-0.1,0.2-0.2,0.4-0.4,0.7
	h-5.1v-0.7H55.5z M55.9,61.7c-0.1,0.2-0.2,0.4-0.3,0.7h-5.5v-0.7H55.9z M56.4,63.2v2h-0.3v-2C56.2,63.2,56.3,63.2,56.4,63.2z
	 M56.4,60.8c-0.1,0.2-0.2,0.4-0.3,0.7h-6v-0.7H56.4z M56.8,59.9c-0.1,0.2-0.2,0.4-0.3,0.7h-6.4v-0.7H56.8z M57.2,59
	c-0.1,0.2-0.2,0.4-0.3,0.7h-6.8V59H57.2z M57.6,58.2c-0.1,0.2-0.2,0.5-0.3,0.7h-7.2v-0.7H57.6z M58,57.3c-0.1,0.2-0.2,0.4-0.3,0.7
	h-7.6v-0.7H58z M50.1,56.2v-0.7h8.6c-0.1,0.2-0.2,0.4-0.3,0.7H50.1z M58.3,56.4c-0.1,0.2-0.2,0.5-0.3,0.7h-8v-0.7H58.3z M77.2,72.5
	H50.1v-0.1c0.1-0.1,0.2-0.2,0.3-0.3h5.3c0.1,0,0.2-0.1,0.2-0.2c0-0.1-0.1-0.2-0.2-0.2h-5c0.1-0.1,0.2-0.2,0.3-0.4h26.3V72.5z
	 M77.9,74.6H50.1v-1.4h27.8V22.4H4.1v50.8h35.3l3.2,1.4H4.1V93h73.8V74.6z M53.6,9h-0.5v3.4h0.5c1.4,0,2.1-0.7,2.1-1.7
	C55.7,9.7,55,9,53.6,9z M27.5,81.5l-1.2,3.2h2.4C28.6,84.7,27.5,81.8,27.5,81.5L27.5,81.5z M73.1,11.5v1.8H69V16h4.8v1.8h-7.2V7.2
	h7.2L73.1,9H69v2.5H73.1z M53.5,14.1h-0.4v3.7h-2.4v-3.7h-0.4c-3.5,0-4.6-2.1-4.6-3.5c0-2.3,1.7-3.4,4.3-3.4h4
	c2.6,0,4.3,1.2,4.3,3.4C58.1,12,57,14.1,53.5,14.1z M35.6,16.3c-1.1,1-2.6,1.6-4.4,1.6c-1.7,0-3.2-0.4-4.2-1.3
	c-1.2-1-1.9-2.4-1.9-4.1c0-1.6,0.6-3,1.7-3.9c1.1-1,2.6-1.6,4.4-1.6c1.9,0,3.5,0.6,4.6,1.6c1,1,1.5,2.3,1.5,3.8
	C37.2,14,36.6,15.4,35.6,16.3z M14.4,17.8l-4-4.6h-0.1v4.6H7.9V7.2h2.4v4.4h0l3.9-4.4h2.8l-4.6,5.1l4.9,5.5H14.4z M4.1,21h73.8V4.1
	H4.1V21z M69,81.9c0,0.9,0.7,1.5,1.7,1.5h1v-2.9h-1C69.6,80.5,69,81.1,69,81.9z M31.2,8.9c-2,0-3.5,1.3-3.5,3.6
	c0,2.3,1.5,3.7,3.5,3.7c2,0,3.5-1.3,3.5-3.7C34.6,10.2,33.2,8.9,31.2,8.9z M48,10.7c0,1.1,0.7,1.7,2.1,1.7h0.5V9h-0.5
	C48.7,9,48,9.7,48,10.7z M2,95H80V2H2V95z M0,97h82V0H0V97z"></path>
</svg>
