<?xml version="1.0" encoding="utf-8"?>
<!-- Generator: Adobe Illustrator 28.0.0, SVG Export Plug-In . SVG Version: 6.00 Build 0)  -->
<svg version="1.1" id="Layer_1" xmlns="http://www.w3.org/2000/svg" xmlns:xlink="http://www.w3.org/1999/xlink" x="0px" y="0px"
	 viewBox="0 0 1080 1080" style="enable-background:new 0 0 1080 1080;" xml:space="preserve">
<style type="text/css">
	.st0{fill:none;stroke:#C1873A;stroke-width:16;stroke-linecap:round;stroke-linejoin:round;stroke-miterlimit:10;}
	.st1{fill:#E2D0E1;}
	.st2{fill:#EDE6EE;}
	.st3{fill:#DA9E53;}
	.st4{fill:#C98D4C;}
	.st5{fill:#DD6A6E;}
	.st6{fill:#D1626B;}
	.st7{fill:#F3EFF4;}
	.st8{fill:#C45C69;}
	.st9{fill:#FFB92E;}
	.st10{opacity:0.5;fill:#96A488;}
	.st11{fill:#F0F3EC;}
	.st12{fill:#E5E9E0;}
	.st13{fill:#B5CAD2;}
	.st14{fill:none;stroke:#009245;stroke-width:4;stroke-miterlimit:10;}
	.st15{fill:none;stroke:#009245;stroke-width:4;stroke-linecap:round;stroke-linejoin:round;stroke-miterlimit:10;}
	.st16{fill:none;stroke:#009245;stroke-width:4.1082;stroke-linecap:round;stroke-linejoin:round;stroke-miterlimit:10;}
	.st17{fill:none;stroke:#000000;stroke-width:1.9946;stroke-miterlimit:10;}
	.st18{fill:none;stroke:#000000;stroke-width:1.8919;stroke-miterlimit:10;}
	.st19{fill:none;stroke:#000000;stroke-width:1.924;stroke-miterlimit:10;}
	.st20{fill:none;stroke:#000000;stroke-width:1.924;stroke-linecap:round;stroke-linejoin:round;stroke-miterlimit:10;}
	.st21{fill:none;stroke:#000000;stroke-width:1.7309;stroke-linecap:round;stroke-linejoin:round;stroke-miterlimit:10;}
	.st22{fill:none;stroke:#000000;stroke-width:2;stroke-miterlimit:10;}
	.st23{fill:none;stroke:#000000;stroke-width:2;stroke-linecap:round;stroke-linejoin:round;stroke-miterlimit:10;}
	.st24{fill:#FFC257;}
	.st25{fill:#EDA229;}
	.st26{fill:#DD8E1B;}
	.st27{fill:#FFD085;}
	.st28{fill:none;stroke:#000000;stroke-width:3.4146;stroke-linecap:round;stroke-linejoin:round;stroke-miterlimit:10;}
	.st29{fill:none;stroke:#000000;stroke-width:1.8379;stroke-linecap:round;stroke-linejoin:round;stroke-miterlimit:10;}
	.st30{fill:none;stroke:#000000;stroke-linecap:round;stroke-linejoin:round;stroke-miterlimit:10;}
	.st31{fill:#D1D6CC;}
	.st32{fill:#F4DC98;}
	.st33{fill:#E9D2A3;}
	.st34{fill:#DAA765;}
	.st35{fill:#D09E62;}
	.st36{opacity:0.5;fill:#EDE1CA;}
	.st37{opacity:0.3;fill:#AF8056;}
	.st38{opacity:0.28;fill:#AF8056;}
	.st39{fill:#F3814A;}
	.st40{fill:#CF602F;}
	.st41{fill:#C35233;}
	.st42{fill:#F38A62;}
	.st43{opacity:0.2;fill:#FFFFFF;}
	.st44{opacity:0.37;fill:#DA7446;}
	.st45{opacity:0.1;fill:#FFFFFF;}
	.st46{opacity:0.08;fill:#FFFFFF;}
	.st47{opacity:0.3;fill:#997552;enable-background:new    ;}
	.st48{fill:#E5C98C;}
	.st49{opacity:0.6;fill:#F9E4BB;enable-background:new    ;}
	.st50{opacity:0.8;fill:#F9E4BB;enable-background:new    ;}
	.st51{fill:#618828;}
	.st52{fill:#92A931;}
	.st53{fill:#809A2C;}
	.st54{opacity:0.6;fill:#92A931;}
	.st55{opacity:0.6;fill:#618828;}
	.st56{opacity:0.25;fill:#E9D2A3;}
	.st57{fill:#E59055;}
	.st58{fill:#CE814D;}
	.st59{fill:#AF6C3E;}
	.st60{fill:#EFA16C;}
	.st61{fill:#FFBB8D;}
	.st62{fill:#E4C88B;}
	.st63{opacity:0.7;fill:#F8E3BA;}
	.st64{opacity:0.35;fill:#FFFFFF;}
	.st65{fill:#4D851D;}
	.st66{fill:#437A0F;}
	.st67{fill:#3B680B;}
	.st68{fill:#5B9324;}
	.st69{fill:#77B234;}
	.st70{fill:#E8EECB;}
	.st71{fill:#EFF4D4;}
	.st72{fill:#E3E8BF;}
	.st73{fill:#F9FFE1;}
	.st74{fill:#FCFFE9;}
	.st75{fill:#BF2C5A;}
	.st76{fill:#AF2859;}
	.st77{fill:#A3285A;}
	.st78{fill:#F3CEE4;}
	.st79{fill:#FFE3F7;}
	.st80{fill:#FFF8FD;}
	.st81{fill:#DBA9C9;}
	.st82{fill:#C9356A;}
	.st83{fill:#E0518B;}
	.st84{fill:#F96EA0;}
	.st85{fill:#A07A50;}
	.st86{fill:#BC916D;}
	.st87{fill:#936E4A;}
	.st88{fill:none;}
	.st89{fill:#E1AE4F;}
	.st90{fill:#D69F45;}
	.st91{fill:#C1873A;}
	.st92{fill:#E8B564;}
	.st93{fill:#F4C376;}
	.st94{fill:#AA7331;}
	.st95{fill:#839E39;}
	.st96{fill:#959F38;}
	.st97{fill:#8FAA44;}
	.st98{fill:#A8BF55;}
	.st99{fill:#708426;}
	.st100{fill:#FFCC73;}
	.st101{fill:#EDCC8C;}
	.st102{fill:#FFDDA1;}
	.st103{fill:#DDBB80;}
	.st104{fill:#FFE8C2;}
	.st105{fill:#CEA974;}
	.st106{fill:none;stroke:#E1AE4F;stroke-width:16;stroke-linecap:round;stroke-linejoin:round;stroke-miterlimit:10;}
	.st107{fill:none;stroke:#D69F45;stroke-width:16;stroke-linecap:round;stroke-linejoin:round;stroke-miterlimit:10;}
	.st108{fill:none;stroke:#F4C376;stroke-width:16;stroke-linecap:round;stroke-linejoin:round;stroke-miterlimit:10;}
	.st109{fill:none;stroke:#C1873A;stroke-width:5.6205;stroke-linecap:round;stroke-linejoin:round;stroke-miterlimit:10;}
	.st110{fill:none;stroke:#E1AE4F;stroke-width:5.6205;stroke-linecap:round;stroke-linejoin:round;stroke-miterlimit:10;}
	.st111{fill:none;stroke:#D69F45;stroke-width:5.6205;stroke-linecap:round;stroke-linejoin:round;stroke-miterlimit:10;}
	.st112{fill:none;stroke:#F4C376;stroke-width:5.6205;stroke-linecap:round;stroke-linejoin:round;stroke-miterlimit:10;}
	.st113{fill:none;stroke:#F4C376;stroke-width:5.2674;stroke-linecap:round;stroke-linejoin:round;stroke-miterlimit:10;}
	.st114{fill:none;stroke:#EDCC8C;stroke-width:5.8805;stroke-linecap:round;stroke-linejoin:round;stroke-miterlimit:10;}
	.st115{fill:none;stroke:#FFDDA1;stroke-width:5.8805;stroke-linecap:round;stroke-linejoin:round;stroke-miterlimit:10;}
	.st116{fill:none;stroke:#FFE8C2;stroke-width:5.8805;stroke-linecap:round;stroke-linejoin:round;stroke-miterlimit:10;}
	.st117{fill:none;stroke:#D1626B;stroke-width:5.2388;stroke-miterlimit:10;}
	.st118{fill:none;stroke:#D1626B;stroke-width:5.4518;stroke-miterlimit:10;}
	.st119{fill:none;stroke:#DD6A6E;stroke-width:5.2388;stroke-miterlimit:10;}
	.st120{fill:none;stroke:#AD4D58;stroke-width:5.0375;stroke-miterlimit:10;}
	.st121{fill:none;stroke:#D1626B;stroke-width:4.8407;stroke-miterlimit:10;}
	.st122{fill:none;stroke:#D1626B;stroke-width:5.0375;stroke-miterlimit:10;}
	.st123{fill:none;stroke:#DD6A6E;stroke-width:4.8407;stroke-miterlimit:10;}
</style>
<g>
	<path class="st1" d="M508.05,601.68c-0.21,1.11-0.73,4.16-3.04,5.62c-4.52,2.79-12.33-2.67-16.31-5.45
		c-5.6-3.91-8.23-7.28-11.24-10.33c-4.3-4.32-11.24-9.89-22.53-14.23c8.37,1.08,19.14,2.22,33.56,4.94
		c3.06,0.58,10.45,1.9,15.2,7.83C504.87,591.52,509,596.05,508.05,601.68z"/>
	<path class="st2" d="M507.77,615.42c1.29-0.51,3.86-1.45,5.64-3.71c2.46-3.15,2.62-6.58,2.69-8.59c0.32-9.35-6.47-16.9-7.49-18
		c-6.68-7.22-15.08-9.2-27.86-12.03c-9.09-2.02-9.72-1.07-23.89-3.78c-17.27-3.31-21-5.6-23.38-8.94c-3-4.21-4.43-10.87-1.63-15.55
		c3.53-5.9,12.27-6.18,17.21-6.3c22.27-0.58,39.7,14.2,44.52,18.31c10.03,8.52,19.45,20.48,23.16,26.59
		c0.64,1.06,3.48,5.81,8.07,11.67c1.85,2.36,3.44,4.22,4.5,5.42C529.32,600.51,519.41,613.7,507.77,615.42z"/>
	<path class="st1" d="M486.16,551.04c-6.72-2.88-14.63-4.96-23.26-4.74c-4.94,0.12-13.68,0.4-17.22,6.3
		c-2.57,4.3-1.57,10.27,0.94,14.47c-8.73-2.23-11.33-4.17-13.14-6.7c-3-4.21-4.43-10.87-1.63-15.55c3.54-5.9,12.28-6.17,17.22-6.3
		C464.73,538.11,477.99,545.31,486.16,551.04z"/>
	<path class="st1" d="M529.34,600.5c0,0-9.9,13.19-21.54,14.91c1.29-0.52,3.86-1.45,5.64-3.72c2.46-3.15,2.62-6.58,2.69-8.59
		c0.07-2.18-0.24-4.26-0.78-6.18c2.8-2.44,3.08-9.52-2.7-19.47c0.98,1.39,10.93,16.01,12.19,17.63
		C526.69,597.43,528.29,599.29,529.34,600.5z"/>
	<path class="st3" d="M428.57,566.96c-7.37-4.51-14.77-8.53-29.04-16.22c-18.8-10.16-23.74-12.14-29.11-13.67
		c-6.67-1.9-5.89-0.81-28.99-3.43c-3.86-0.45-24.99-2.96-45.54-8.27c-12.18-3.16-16.97-6.82-27.83-15.76
		c-5.97-4.9-9.66-11.84-11.79-17.12c-1.51-3.75-0.83-7.98,1.67-11.06c10.2,20.03,23.72,28.56,30.01,31.95
		c10.81,5.81,21.56,7.56,30.51,9.01c13.96,2.27,17.39,0.49,33.19,2.58c6.12,0.8,17.28,2.61,29.48,6.52
		c10.38,3.33,23.46,11,40.67,20.33C422.25,557.31,424.95,562.83,428.57,566.96z"/>
	<path class="st4" d="M428.52,566.93c-7.37-4.51-14.77-8.53-29.04-16.22c-18.8-10.16-23.74-12.14-29.11-13.67
		c-6.67-1.9-5.89-0.81-28.99-3.43c-3.86-0.45-24.99-2.96-45.54-8.27c-12.18-3.16-16.97-6.82-27.83-15.76
		c-4.66-3.83-7.93-8.89-10.15-13.44c1.73,2.44,3.79,4.78,6.23,6.79c10.86,8.94,15.65,12.6,27.83,15.76
		c20.55,5.31,41.68,7.82,45.54,8.27c23.1,2.62,22.32,1.53,28.99,3.43c5.37,1.53,10.31,3.51,29.11,13.67
		c13.86,7.47,21.24,11.47,28.4,15.83C425.14,562.46,426.71,564.87,428.52,566.93z"/>
	<path class="st3" d="M423.53,610.83c-0.21-0.13-0.43-0.26-0.64-0.39c-0.13-0.27-0.25-0.55-0.37-0.83
		C422.85,610.03,423.19,610.44,423.53,610.83z"/>
	<path class="st5" d="M503.24,352.37c-0.19,0.55-6.38,18.25-10.62,31.89c-0.41,1.32-0.8,2.58-1.15,3.79
		c-0.85,2.81-1.57,5.31-2.19,7.56c-4.76-2.19-7.64-4.89-9.47-7.21c-3.43-4.36-4.21-8.67-9.77-13.85c-1.73-1.61-3.56-2.97-6.88-4.94
		c-12.97-7.66-19.47-7.2-37.76-14.37c-4.97-1.95-10.62-4.4-11.54-3.05c-1.07,1.64,5.52,7.14,4.15,9.31
		c-0.77,1.21-3.62,0.78-4.65,0.48c-6.02-1.65-10.4-6.65-15.62-10.05c-5.38-3.53-11.85-5.38-18.3-5.22
		c-5.06,0.11-10.27,1.41-15.05-0.27c-4.05-1.42-7.1-4.78-10.8-6.97c-4.01-2.36-8.83-3.27-13.45-2.6c1.52-4.12,1.75-7.19,5.34-10.73
		c5.12-5.07,11.95-6.07,17.74-6.91c8.45-1.23,15.14-0.02,17.68,0.5c14.06,2.83,21.09,4.25,39.32,17.24
		C433.36,346.32,457.02,355.17,503.24,352.37z"/>
	<path class="st6" d="M443.02,347.59c-2.61,1.23-5.61,1.65-8.43,1.01c-3.84-0.86-7.07-3.4-10.64-5.07
		c-4.06-1.91-8.54-2.69-12.92-3.66c-17.09-3.79-33.75-10.82-51.25-10.63c-7.11,0.07-15.09,1.99-19.13,7.57
		c-0.17,0.01-0.34,0.04-0.51,0.06c1.52-4.12,1.75-7.19,5.34-10.73c5.12-5.07,11.95-6.07,17.74-6.91c8.45-1.23,15.14-0.02,17.68,0.5
		c14.06,2.83,21.09,4.25,39.32,17.24C425.7,340.87,433.01,344.68,443.02,347.59z"/>
	<path class="st2" d="M489.28,395.61c-1.55,11.11-2.29,15.35-5.85,23.96l-4.8,8.64c-5.24-5.59-4.78-10.26-10.88-16.22
		c-5.81-5.68-7.63-2.77-16.04-10c-5.29-4.52-5.6-6.55-11.55-10.88c-4.5-3.24-8.34-5.02-11.27-6.34c-6.13-2.79-9.21-4.18-13.36-3.93
		c-3.07,0.19-2.99,1.02-8.54,2.09c-4.96,0.94-8.08,1.87-10.82,0.69c-4.29-1.82-6.01-6.95-9.45-10.09
		c-7.02-6.41-18.66-2.94-27.16-7.18c-4-2-4.81-4.94-9.85-7.1c-4.89-2.07-10.5-2.68-11.4-0.99c-0.84,1.63,3.18,4.25,2.18,6.69
		c-0.79,1.92-4.03,2.19-4.74,2.26c-3.88,0.35-6.88-1.91-8.32-2.98c-3.32-2.49-5.51-6.04-6.61-8.58c4.79-4.85,12.22-5.77,17.16-14.21
		c0.98-1.68,1.65-3.19,2.16-4.57c4.62-0.67,9.44,0.24,13.45,2.6c3.7,2.19,6.75,5.55,10.8,6.97c4.78,1.68,9.99,0.38,15.05,0.27
		c6.45-0.16,12.92,1.69,18.3,5.22c5.22,3.4,9.6,8.4,15.62,10.05c1.03,0.3,3.88,0.73,4.65-0.48c1.37-2.17-5.22-7.67-4.15-9.31
		c0.92-1.35,6.57,1.1,11.54,3.05c18.29,7.17,24.79,6.71,37.76,14.37c3.32,1.97,5.15,3.33,6.88,4.94c5.56,5.18,6.34,9.49,9.77,13.85
		C481.64,390.72,484.52,393.42,489.28,395.61z"/>
	<path class="st5" d="M457.74,465.75c0.04,0,0.08-0.01,0.12-0.01c-3.78,6.12-8.02,13.67-12.33,22.3
		c-9.1-6.59-11.12-15.12-21.08-18.42c-6-2.01-9.34-0.27-11.39-3.3c-2.17-3.21,0.32-6.96-2.29-14.48c-0.57-1.64-1.01-2.92-2.03-4.38
		c-4.17-6.01-13.68-8.85-17.51-5.75c-2.69,2.16-1.53,6.38-4.93,8.06c-1.45,0.74-2.9,0.57-3.6,0.5c-4.86-0.61-7.42-5.84-10.91-10.46
		c-4.89-6.48-5.71-3.96-13.7-12.35c-8.76-9.21-10.08-14.68-16.22-15.63c-2.73-0.42-6.15,0.1-6.7,1.72
		c-1.27,3.67,5.13,5.99,5.11,9.86c-0.01,2.71-3.39,4.31-6.02,3.69c-2.65-0.63-4.69-2.64-6.79-4.36c-5.63-4.59-12.66-7.43-19.89-8.11
		c4.64-17.27,9.67-54.91,12.62-58.31c0.2-0.23,0.41-0.46,0.62-0.67c1.1,2.54,3.29,6.09,6.61,8.58c1.44,1.07,4.44,3.33,8.32,2.98
		c0.71-0.07,3.95-0.34,4.74-2.26c1-2.44-3.02-5.06-2.18-6.69c0.9-1.69,6.51-1.08,11.4,0.99c5.04,2.16,5.85,5.1,9.85,7.1
		c8.5,4.24,20.14,0.77,27.16,7.18c3.44,3.14,5.16,8.27,9.45,10.09c2.74,1.18,5.86,0.25,10.82-0.69c5.55-1.07,5.47-1.9,8.54-2.09
		c4.15-0.25,7.23,1.14,13.36,3.93c2.93,1.32,6.77,3.1,11.27,6.34c5.95,4.33,6.26,6.36,11.55,10.88c8.41,7.23,10.23,4.32,16.04,10
		c6.1,5.96,5.64,10.63,10.88,16.22L457.74,465.75z"/>
	<path class="st5" d="M892.79,487.74c-1.05-2.98-2.86-5.07-4.12-6.28c-14.85-1.24-24.98-12.71-105.88-24.79
		c-15.51-2.31-27.94-3.8-43.49-10.54c-9.26-4.02-16.57-7.17-23.96-14.33c-4.78-4.6-7.35-8.71-15.29-15.46
		c-1.39-1.16-5.49-4.59-11.77-8.74c-13.61-8.94-21.09-10.45-29.71-15.18c-12.69-6.96-12.46-12.43-26.19-24.97
		c-20.44-18.66-42.33-26.05-52.69-29.42c-17.41-5.69-31.17-10.18-47.59-5.29c-14.6,4.34-24.07,13.91-28.84,19.63
		c-0.01,0-0.01,0-0.02,0c-0.19,0.55-6.38,18.25-10.62,31.89c-0.41,1.32-0.8,2.58-1.15,3.79c7.36-4.34,14.96-8.48,21.21-14.3
		c4.66-4.33,9.02-9.57,15.16-11.2c7.02-1.86,14.54,1.53,21.66,0.12c3.85-0.75,7.33-2.88,11.2-3.52c3.79-0.63,7.66,0.2,11.42,1.02
		c4.55,1,9.11,2,13.67,3c3.26,0.72,6.53,1.44,9.67,2.56c4.86,1.73,7.78,3.47,13.83,7.09c17.44,10.43,18.46,10.49,20.74,13.37
		c4.48,5.65,1.32,6.39,6.1,14.31c6.23,10.32,13.97,12.97,25.04,22.88c0.69,0.62,2.08,1.99,4.35,2.9c2.37,0.97,5.05,0.82,7.5,1.58
		c4.1,1.26,7.03,4.89,9.03,8.69c1.99,3.81,3.3,7.96,5.58,11.6c3.77,6.02,9.86,10.14,15.77,14.09c3.29,2.2,7.19,4.5,10.98,3.35
		c1.32-0.41,2.5-1.21,3.81-1.65c3.54-1.18,7.38,0.12,10.88,2.15c4.48,2.6,11.24,1.49,16.41,1.93c3.96,0.34,7.95,0.67,11.82,1.63
		c2.89,0.72,5.73,1.79,8.21,3.45c3.58,2.41,6.25,5.91,9.01,9.23c7.05,8.49,15.03,16.14,22.83,23.93c1.96,1.95,3.91,3.92,5.51,6.17
		c4.03,5.64,6.1,13.2,12.17,16.54c3.26,1.8,7.11,2.02,10.74,2.85c4.3,0.98,8.33,2.86,12.33,4.72c7.24,3.37,15.3,7.14,21.81,11.86
		c2.69-5.31,5.81-10.69,9.47-15.82C883.65,512.6,897.07,500.02,892.79,487.74z M566.33,346.21c-0.62,0.62-1.66,0.39-2.49,0.11
		c-1.68-0.55-3.37-1.11-5.05-1.66c-1.74-0.58-3.52-1.16-5.35-1.21c-2.01-0.05-3.97,0.53-5.9,1.11c-2.44,0.74-4.91,1.49-7.09,2.79
		c-1.57,0.94-1.65,1.1-2.97,1.87c-1.37,0.79-6.01,3.41-11.61,2.88c-1.5-0.15-5.58-0.53-6.6-3.03c-0.05-0.12-0.39-1-0.14-2.01
		c0.67-2.73,5.03-3.79,8.63-4.77c14.39-3.94,16.55-6.69,24.05-5.94c0.36,0.04,2.65,0.31,5.53,1.21c3.67,1.15,7.68,2.85,9.12,6.42
		C566.75,344.71,566.88,345.65,566.33,346.21z"/>
	<path class="st2" d="M859.91,548.4c-7.08,13.92-11.27,27.43-14.66,35.07c-4.69,10.57-17.07,33.35-22.46,37.97
		c-5.38,4.65-9.87,9.79-12.03,19.62c-2.19,9.83-6.35,28.04-17.65,54.15c-0.04,0.1-0.09,0.2-0.14,0.29
		c-0.02,0.04-0.03,0.09-0.06,0.14c-11.6,25.61-54.69,18.38-70.87,13.54c-16.28-4.88-46.84-23.27-54.19-26.76
		c-46.2-21.88-52.44-15.11-78.86-33.32c-27.84-19.22-47-45.55-48.51-47.65c-9.33-13.02-15.08-24.57-30.98-40.86
		c-14.49-14.88-24.25-20.18-26.79-21.53c-7.21-3.78-29.69-15.59-47.98-6.38c-2.48,1.25-10.08,5.06-12.33,12.79
		c-0.61,2.04-0.78,4.2-0.6,6.35c-17.21-9.33-30.29-17-40.67-20.33c-12.2-3.91-23.36-5.72-29.48-6.52
		c-15.8-2.09-19.23-0.31-33.19-2.58c-8.95-1.45-19.7-3.2-30.51-9.01c-6.29-3.39-19.81-11.92-30.01-31.95
		c0.31-0.41,0.68-0.79,1.06-1.15c2.57-2.41,5.33-5.07,8.21-8.01c4.19-4.33,8.66-9.23,13.24-14.74c3.22-3.89,5.74-7.57,7.86-11.01
		c5.85-9.39,8.93-17.19,15.96-23.65c1.06-0.97,2.18-3.99,3.31-8.24c7.23,0.68,14.26,3.52,19.89,8.11c2.1,1.72,4.14,3.73,6.79,4.36
		c2.63,0.62,6.01-0.98,6.02-3.69c0.02-3.87-6.38-6.19-5.11-9.86c0.55-1.62,3.97-2.14,6.7-1.72c6.14,0.95,7.46,6.42,16.22,15.63
		c7.99,8.39,8.81,5.87,13.7,12.35c3.49,4.62,6.05,9.85,10.91,10.46c0.7,0.07,2.15,0.24,3.6-0.5c3.4-1.68,2.24-5.9,4.93-8.06
		c3.83-3.1,13.34-0.26,17.51,5.75c1.02,1.46,1.46,2.74,2.03,4.38c2.61,7.52,0.12,11.27,2.29,14.48c2.05,3.03,5.39,1.29,11.39,3.3
		c9.96,3.3,11.98,11.83,21.08,18.42c4.31-8.63,8.55-16.18,12.33-22.3c-0.04,0-0.08,0.01-0.12,0.01l20.89-37.54l4.8-8.64
		c2.06-6.74,2.43-11.49,5.85-23.96c0.62-2.25,1.34-4.75,2.19-7.56c7.36-4.34,14.96-8.48,21.21-14.3c4.66-4.33,9.02-9.57,15.16-11.2
		c7.02-1.86,14.54,1.53,21.66,0.12c3.85-0.75,7.33-2.88,11.2-3.52c3.79-0.63,7.66,0.2,11.42,1.02c4.55,1,9.11,2,13.67,3
		c3.26,0.72,6.53,1.44,9.67,2.56c4.86,1.73,7.78,3.47,13.83,7.09c17.44,10.43,18.46,10.49,20.74,13.37
		c4.48,5.65,1.32,6.39,6.1,14.31c6.23,10.32,13.97,12.97,25.04,22.88c0.69,0.62,2.08,1.99,4.35,2.9c2.37,0.97,5.05,0.82,7.5,1.58
		c4.1,1.26,7.03,4.89,9.03,8.69c1.99,3.81,3.3,7.96,5.58,11.6c3.77,6.02,9.86,10.14,15.77,14.09c3.29,2.2,7.19,4.5,10.98,3.35
		c1.32-0.41,2.5-1.21,3.81-1.65c3.54-1.18,7.38,0.12,10.88,2.15c4.48,2.6,11.24,1.49,16.41,1.93c3.96,0.34,7.95,0.67,11.82,1.63
		c2.89,0.72,5.73,1.79,8.21,3.45c3.58,2.41,6.25,5.91,9.01,9.23c7.05,8.49,15.03,16.14,22.83,23.93c1.96,1.95,3.91,3.92,5.51,6.17
		c4.03,5.64,6.1,13.2,12.17,16.54c3.26,1.8,7.11,2.02,10.74,2.85c4.3,0.98,8.33,2.86,12.33,4.72
		C845.34,539.91,853.4,543.68,859.91,548.4z"/>
	<path class="st5" d="M288.31,446.52c0.05,0,0.09,0.01,0.14,0.01c8.42,0.52,14.8,11.81,24.12,11.99c0.36,0.01,2.72,0.05,5.76-0.06
		c5.47-0.18,6.95-0.55,9.16-0.59c7.35-0.13,13.22,3.58,15.62,5.1c4.26,2.71,7.01,5.76,8.88,8.06c2.84,3.46,5.69,6.93,8.51,10.41
		c1.1,1.34,2.22,2.7,3.67,3.67c2.8,1.87,6.39,1.94,9.66,2.8c1.43,0.36,2.83,0.89,4.3,0.88c2.68-0.01,4.51-1.21,5.47-1.7
		c4.63-2.34,12.42-0.37,17.02,3.57c4.81,4.16,7.82,11.97,5.12,15.45c-1.32,1.69-3.63,1.91-4.98,2.06c-7.5,0.73-9.9-6.1-17.86-6.33
		c-3.5-0.12-3.56,0.54-9.52,1.38c-3.18,0.43-6.66,0.3-9.26-1.6c-1.77-1.28-2.92-3.26-4.51-4.75c-1.97-1.83-4.52-2.87-7.02-3.85
		c-4.08-1.6-8.21-3.11-12.37-4.55c-4.29-1.5-9.17-3.43-10.53-7.77c-0.33-1.01-0.43-2.08-0.93-3.02c-0.79-1.47-2.08-1.93-4.1-2.96
		c-5.68-2.91-5.93-3.78-7.56-3.53c-1.7,0.26-3.84,1.61-3.92,3.16c-0.1,2.19,4.02,2.76,8.41,7.58c1.72,1.87,3.73,4.21,3.24,6.18
		c-0.71,2.89-4.6,3.54-7.45,2.78c-5.84-1.59-10.24-6.41-15.86-8.65c-4.68-1.86-10.12-1.74-14.79,0.19
		c-2.83,1.19-4.93,2.61-8.24,2.18c-2.88-0.39-4.91-2.06-5.93-2.91c0,0-3.84-3.21-5.13-8.37c-0.09-0.35-0.15-0.7-0.21-1.05
		c4.19-4.33,8.66-9.23,13.23-14.73C283.67,453.64,286.18,449.96,288.31,446.52z"/>
	<path class="st2" d="M566.33,346.21c-0.62,0.62-1.66,0.39-2.49,0.11c-1.68-0.55-3.37-1.11-5.05-1.66
		c-1.74-0.58-3.52-1.16-5.35-1.21c-2.01-0.05-3.97,0.53-5.9,1.11c-2.44,0.74-4.91,1.49-7.09,2.79c-1.57,0.94-1.65,1.1-2.97,1.87
		c-1.37,0.79-6.01,3.41-11.61,2.88c-1.5-0.15-5.58-0.53-6.6-3.03c-0.05-0.12-0.39-1-0.14-2.01c0.67-2.73,5.03-3.79,8.63-4.77
		c14.39-3.94,16.55-6.69,24.05-5.94c0.36,0.04,2.65,0.31,5.53,1.21c3.67,1.15,7.68,2.85,9.12,6.42
		C566.75,344.71,566.88,345.65,566.33,346.21z"/>
	<path class="st5" d="M744.85,616.23c-1.76,3.09-5.96,3.79-9.47,3.26c-7.68-1.18-14.48-6.93-16.92-14.3
		c-1.69-5.12-5.93-9.36-10.59-12.08c-4.65-2.73-9.91-4.84-13.28-9.05c-4.77-5.99-4.45-14.49-7.18-21.65
		c-1.81-4.76-4.98-8.88-7.41-13.36c-4.04-7.48-6.01-15.88-9.47-23.64c-3.47-7.76-9.02-15.28-17.12-17.84
		c-2.61-0.83-5.81-2.68-6.9-5.19c-1.09-2.52-1.19-5.34-1.27-8.08c-0.2-6.36-0.24-9.55-0.08-11.52c0.9-11.06,4.33-17.58,2.87-18.35
		c-0.92-0.48-2.95,1.74-3.48,2.31c-5.94,6.47-5.16,17.22-5.19,19.53c-0.04,2.56,0.28,5.15-0.2,7.66c-0.48,2.52-2,5.05-4.45,5.79
		c-3.49,1.07-7.03-1.84-10.68-1.71c-2.48,0.09-4.66,1.56-6.86,2.7c-10.7,5.56-24.84,3.49-33.5-4.9c-1.46-1.42-2.8-3.01-4.48-4.17
		c-4.08-2.8-9.76-2.79-13.42-6.11c-3.87-3.51-8.69-8.65-13.89-9.08c-5.21-0.43-10.4,0.77-15.61,1.04c-0.88,0.05-1.81,0.06-2.58-0.36
		c-1.9-1.03-1.73-3.75-1.5-5.9c1.08-9.91-2.38-20.22-9.22-27.47c-2.87-3.05-6.6-5.67-10.79-5.74c-4.21-0.06-8.05,2.49-10.96,5.54
		c-2.91,3.05-5.19,6.66-8.16,9.65c-4.45,4.47-11.98,11.07-35.2,12.53c-0.04,0-0.08,0.01-0.12,0.01l20.8-37.43l4.89-8.75l0.51-0.91
		c0.12-0.14,0.44-0.45,0.92-0.52c0,0,0.48-0.07,1.03,0.23c1.57,0.86,2.15,5.05,2.15,5.05c0.73,5.26,0.23,7.26,1.28,7.83
		c1.05,0.56,2.82-0.76,3.39-1.25c5.04-4.32,7.55-10.98,12.39-15.52c4.53-4.23,11.01-6.58,14-12.01c1.86-3.4,2.78-8.26,6.58-9
		c2.58-0.51,4.99,1.37,7.58,1.87c8.67,1.68,15.27-11.85,23.73-9.32c3.95,1.18,7.25,5.78,11.14,4.39c5.77-2.06,11.99-5.14,18.1-4.58
		c3.07,0.29,6.33,1.71,7.55,4.55c0.7,1.63,0.64,3.49,1.17,5.18c0.84,2.66,3.05,4.62,5.01,6.61c3.98,4.06,7.25,8.81,9.63,13.97
		c0.96,2.09,1.8,4.29,3.36,5.98c1.48,1.6,3.47,2.61,5.42,3.59c8.1,4.05,16.19,8.11,24.29,12.16c3.15,1.58,6.28,4.65,7.49,7.97
		c1.2,3.32,1.75,6.86,3.15,10.1c1.3,2.98,3.28,5.6,5.24,8.18c1.39,1.84,2.8,3.69,4.45,5.3c2.42,2.35,5.32,4.13,8.12,6.02
		c8.85,5.99,16.96,13.39,22.3,22.65c5.34,9.26,7.69,20.53,4.89,30.85c-3.07,11.25,1.79,24.5,7.51,34.66
		c5.72,10.16,13.92,18.75,22.9,26.18c6.96,5.76,14.97,11.72,16.72,20.59C745.82,612.34,745.84,614.48,744.85,616.23z"/>
	<path class="st5" d="M845.25,584.91c-2.15-3.19-9.27,0.49-17.96-3.98c-4.02-2.06-6.39-4.65-6.75-5.45
		c-0.76-1.65-1.04-3.79-2.67-4.58c-0.92,2.35-1.2,4.29-1.29,5.55c-0.27,3.47,0.53,6.17-0.6,9.89c-0.28,0.93-0.68,1.91-1.36,2.01
		c-0.73,0.11-1.44-0.84-1.84-1.39c-1.41-1.93-1.61-4.02-1.66-4.25c-0.82-4.03-1.65-8.05-2.47-12.08c-0.48-2.35-0.98-4.76-2.23-6.81
		c-1.93-3.19-5.41-5.14-7.59-8.17c-3.33-4.61-3.1-10.78-4.03-16.39c-1.55-9.4-6.63-17.89-12.67-25.25
		c-7.44-9.07-13.93-16.43-19.48-20.9c-2.52-2.03-6.01-3.63-9.22-4.06c-2.47-0.33-5.17-0.08-7.1,1.49c-1.26,1.02-2.07,2.5-2.63,4.01
		c-1.69,4.57-1.35,9.75,0.37,14.31c1.72,4.56,4.75,8.55,8.28,11.91c1.61,1.54,3.51,3.54,2.8,5.65c-2.08,1.65-5.26,0.81-7.28-0.91
		c-2.02-1.72-3.31-4.13-5.07-6.1c-2.13-2.39-5.02-4.23-6.3-7.17c-1.09-2.51-0.81-5.37-0.51-8.09c0.25-2.26,0.5-4.52,0.75-6.78
		c0.34-3.04,0.68-6.12,0.28-9.15c-0.39-3.04-1.59-6.07-3.88-8.11c-3.36-2.99-8.26-3.26-12.75-3.37c-0.72-0.02-1.46-0.03-2.12,0.24
		c-0.69,0.28-1.23,0.85-1.72,1.43c-2.51,2.96-4.33,6.49-5.29,10.25c-0.92,3.61-0.48,8.73-0.97,12.42c-0.3,2.26-0.6,4.54-0.33,6.8
		c0.28,2.4,1.19,4.68,1.59,7.06c0.83,5.01-0.65,10.15-0.22,15.21c0.26,3.04,1.19,5.97,2.18,8.85c2.88,8.35,6.33,16.51,10.3,24.41
		c1.27,2.53,2.07,7.3,2.78,10.04c0.89,3.41,2.98,6.37,5.11,9.18c3.13,4.14,6.42,8.15,9.88,12.02c0.87,0.97,1.86,2,3.15,2.16
		c1.74,0.22,3.32-1.35,3.64-3.07c0.32-1.72-0.33-3.48-1.22-4.99c-0.67-1.15-1.5-2.51-0.9-3.7c0.37-0.73,1.17-1.11,1.77-1.66
		c1.56-1.45,1.58-3.88,1.35-5.99c-1.15-10.84-5.61-21.28-5.36-32.18c0.03-1.14,0.11-2.32,0.64-3.33c0.53-1.01,1.6-1.82,2.73-1.7
		c0.4,0.04,0.8,0.2,1.05,0.52c0.39,0.5,0.28,1.21,0.18,1.83c-0.65,4.29,0.14,8.78,2.23,12.58c1.94,3.54,4.91,6.42,6.92,9.92
		c2.76,4.79,3.57,10.67,2.21,16.02c-0.25,0.97-0.56,1.94-0.6,2.94c-0.11,2.64,1.67,4.94,3.36,6.98c0.47,0.57,0.97,1.15,1.65,1.42
		c0.88,0.35,1.87,0.09,2.81-0.05c5.5-0.8,11.25,3.42,12.14,8.91c-0.31,4.2,1.15,9.46,3.7,12.81c2.55,3.35,6.08,5.87,9.88,7.67
		c4.51,2.13,8.19,3.08,15.23,4.58c5.51,1.18,8.26,1.76,9.29,1.64c5.95-0.69,8.48-5.77,23.18-30.54
		C844.53,590.85,846.76,587.14,845.25,584.91z"/>
	<path class="st5" d="M452.03,475.7c5.01-2.44,9.59-3.13,15.16-2.93c7.01,0.25,14.54,2.54,20.71-0.8c3.41-1.84,5.75-5.12,8.45-7.9
		c2.7-2.78,7.19-3.76,11.05-4.15c3.42-0.34,6.63,2.03,8.45,4.95c1.82,2.92,2.59,6.35,3.63,9.63c0.8,2.53,1.77,5.01,2.9,7.41
		c1.15,2.43,2.52,4.86,4.66,6.49c3.19,2.43,7.5,2.69,11.5,2.55c4.01-0.15,8.14-0.58,11.92,0.77c2.56,0.91,4.76,2.59,6.92,4.24
		c1.92,1.46,3.83,2.93,5.75,4.39c1.64,1.26,3.32,2.55,4.43,4.3c2.89,4.57,1.07,10.54,1.67,15.92c0.61,5.42,3.78,10.41,3.79,15.86
		c0,0.6-0.06,1.26-0.46,1.71c-0.22,0.24-0.51,0.4-0.81,0.52c-2.62,1.11-5.71,0.19-8.06-1.41c-2.35-1.61-4.19-3.83-6.32-5.72
		c-1.6-1.42-3.36-2.66-5.12-3.88c-4.1-2.87-8.21-5.74-12.31-8.61c-3.71-2.6-7.32-6.09-11.6-7.58c-5.24-1.82-10.6-3.27-16.03-4.34
		c-1.89-0.37-3.83-0.71-5.54-1.6c-1.23-0.64-2.3-1.54-3.36-2.44c-3.2-2.71-6.4-5.41-9.6-8.12c-3.91-3.31-7.93-6.68-12.72-8.5
		c-1.64-0.62-3.35-1.05-5.08-1.28c-1.01-0.13-2.06-0.2-3.05,0.07c-1.09,0.29-2.05,0.97-2.89,1.73c-1.35,1.23-2.47,2.71-3.29,4.34
		c-0.51,1.03-0.93,2.15-1.77,2.93c-1.87,1.73-4.98,1.02-7-0.54c-2.02-1.56-3.45-3.78-5.48-5.31c-2.03-1.53-5.19-2.15-7-0.36
		c0.95-2.06,2-4.18,3.16-6.37C449.8,479.56,450.92,477.58,452.03,475.7z"/>
	<path class="st5" d="M793.03,695.89c-1.75-4.43-4.1-6.8-6.02-8.17c-3.2-2.27-6.19-2.21-8.18-5.48c-0.9-1.49-1.18-3.3-2.07-4.79
		c-2.05-3.45-6.71-4.31-10.71-3.9c-4,0.41-7.97,1.72-11.95,1.17c-2.76-0.38-5.31-1.62-7.81-2.85c-5.16-2.53-10.32-5.07-15.48-7.6
		c-2.86-1.4-5.76-2.84-8.06-5.04c-2.1-2.01-3.6-4.57-5.56-6.72s-4.65-3.97-7.54-3.74c-7.51,0.59-17.31-1.15-22.51-6.61
		c-2.9-3.04-4.85-6.84-7.31-10.24s-5.72-6.57-9.84-7.38c-2.19-0.43-4.46-0.15-6.69-0.38c-3.54-0.36-6.93-2.02-9.38-4.61
		c-9.06-9.59-12.67-20.7-23.96-28.35c-7.93-5.38-12.8-3.28-25.26-12.09c0,0-7.87-5.56-6.86-7.31c0.5-0.88,3.82,0.29,8.87-0.75
		c1.08-0.22,2.79-0.61,2.99-1.69c0.08-0.44-0.05-0.88-0.19-1.3c-1.52-4.46-4.88-8.26-9.11-10.32c-2.1-1.02-4.38-1.63-6.45-2.73
		c-3.78-2-6.53-5.46-9.17-8.82c-1.61-2.05-3.25-4.18-3.87-6.7c-0.45-1.84-0.32-3.77-0.54-5.65c-0.41-3.44-1.97-6.61-3.06-9.9
		c-1.46-4.43-2.04-9.15-1.71-13.8c0.08-1.11,0.27-2.33,1.11-3.06c0.95-0.81,2.37-0.7,3.57-0.37c7.51,2.05,12.33,10.39,20.04,11.49
		c3.79,0.54,7.55-0.82,11.32-1.48c5.98-1.05,12.11-0.36,18.15,0.33c1.55,0.18,3.24,0.42,4.32,1.55c0.82,0.86,1.12,2.06,1.57,3.16
		c1.74,4.21,5.91,7,7.81,11.14c1.8,3.92,1.38,8.68,3.63,12.35c0.99,1.62,2.43,2.91,3.85,4.17c7.91,7.08,15.86,14.6,20.31,24.24
		c0.89,1.93,1.65,4.02,1.4,6.12c-0.25,2.13-1.48,4.01-2.03,6.09c-0.93,3.52,0.2,7.33,2.22,10.36c2.01,3.03,4.83,5.43,7.6,7.78
		c1.69,1.43,2.56,1.59,3.27,1.39c2.29-0.68,1.7-5.88,3.84-6.58c1.43-0.47,3.22,1.36,4.72,2.94c4.06,4.26,4.55,7.28,8.73,14.17
		c0.83,1.37,1.68,2.75,2.87,3.82c3.62,3.24,9.17,2.61,13.8,4.07c7.88,2.47,12.4,10.64,15.26,18.38c1.19,3.23,2.49,6.81,5.52,8.43
		c1.43,0.77,3.08,0.99,4.7,1.13c2.85,0.25,5.71,0.27,8.56,0.08c6.17-0.41,12.89,0.72,18.07,4.09c7.05,4.59,7.26,6.98,14.57,11.45
		c4.4,2.68,10.21,4.93,17.96,5.54c-0.7,3.34-1.79,7.27-3.49,11.54C797.02,689.05,794.94,692.86,793.03,695.89z"/>
	<path class="st1" d="M445.55,488.02c0.02,0.03,0.06,0.05,0.09,0.08c-2.28,2.87-3.36,6.61-4.53,10.15
		c-2.58,7.77-6.06,15.22-10.36,22.13c-2.72,4.38-8.67,16.19-8.85,27.32c-0.06,0.42-0.1,0.84-0.13,1.27
		c-0.06,0.93-0.05,1.87,0.03,2.81c-4.85-2.63-9.37-5.13-13.59-7.43c-0.18-1.04-0.31-2.12-0.41-3.27c-0.54-6.5,0.45-15.57,8.37-31.13
		c6.09-11.98,9.71-24.89,13.41-37.77c0,0,0-0.01,0.01-0.02c0-0.01,0-0.01,0.01-0.02c5.9,4.08,8.65,10.59,15.93,15.86
		c4.29-8.59,8.51-16.11,12.28-22.22h0.03C454.07,471.89,449.84,479.41,445.55,488.02z"/>
	<path class="st7" d="M490.14,521.03c-0.59,0.96-1.5,1.68-2.47,2.23c-5.99,3.4-13.4,0.87-20.21,1.52
		c-4.89,0.47-9.38,2.58-13.89,4.67c-6.26-0.51-12.78,0.23-18.83,3.28c-2.08,1.05-9.75,10.05-12.86,15.51
		c0-11.29,6.09-23.42,8.86-27.87c4.3-6.91,7.78-14.36,10.36-22.13c1.2-3.63,2.02-7.32,4.44-10.22c0-0.01,0.26-0.24,0.28-0.25
		c1.85-1.46,4.79-0.78,6.72,0.67c2.03,1.54,3.46,3.76,5.47,5.31c0.79,0.61,1.76,1.1,2.76,1.35c0.06,0.17,0.13,0.35,0.2,0.52
		c1.93,4.59,6.37,7.52,10.87,9.42c4.49,1.9,9.31,3.06,13.53,5.53C489.02,512.71,492.38,517.38,490.14,521.03z"/>
	<g>
		<path class="st8" d="M502.9,352.39c-26.77,1.59-45.94-0.74-59.88-4.8c-0.62-0.18-1.22-0.36-1.84-0.55
			c-0.61-0.19-1.2-0.38-1.79-0.58c-0.03-0.01-0.05-0.02-0.08-0.03c-0.82-0.27-1.61-0.55-2.39-0.84c-0.01,0-0.02-0.01-0.03-0.01
			c-0.78-0.28-1.53-0.57-2.27-0.87c-0.09-0.03-0.18-0.06-0.26-0.1c-0.37-0.15-0.72-0.3-1.07-0.45c-0.19-0.08-0.38-0.15-0.56-0.23
			c-0.24-0.1-0.48-0.21-0.71-0.31c-0.1-0.04-0.2-0.09-0.3-0.14c-0.25-0.11-0.5-0.22-0.74-0.34c-0.24-0.1-0.48-0.22-0.72-0.33
			c-0.05-0.02-0.1-0.05-0.16-0.07c-0.26-0.12-0.52-0.25-0.78-0.38c-0.23-0.11-0.46-0.22-0.69-0.34c-0.22-0.11-0.43-0.22-0.65-0.33
			c-0.25-0.13-0.5-0.26-0.74-0.39c-0.09-0.05-0.18-0.1-0.27-0.15c-0.02-0.01-0.05-0.02-0.07-0.04c-0.38-0.2-0.76-0.41-1.12-0.62
			c-0.13-0.07-0.27-0.15-0.4-0.23c-0.04-0.02-0.08-0.05-0.12-0.07c-0.29-0.16-0.57-0.33-0.85-0.5c-0.12-0.07-0.23-0.14-0.35-0.21
			c-0.14-0.08-0.28-0.17-0.42-0.25c-0.08-0.05-0.15-0.09-0.23-0.14c-0.24-0.15-0.48-0.3-0.71-0.45c-0.03-0.02-0.06-0.04-0.09-0.06
			c-0.24-0.16-0.48-0.31-0.71-0.47c-0.11-0.07-0.22-0.14-0.33-0.22c-0.06-0.04-0.13-0.09-0.19-0.13c-0.4-0.27-0.79-0.54-1.17-0.81
			c-0.17-0.12-0.32-0.23-0.49-0.34c-0.55-0.39-1.08-0.76-1.61-1.13c-0.14-0.1-0.28-0.19-0.42-0.29c-0.66-0.46-1.31-0.9-1.96-1.34
			c-1.4-0.95-2.73-1.81-4-2.62c-0.02-0.01-0.04-0.02-0.06-0.04c-1.26-0.79-2.46-1.52-3.62-2.19c-0.03-0.02-0.07-0.04-0.1-0.06
			c-0.51-0.29-1.01-0.57-1.5-0.84c-0.09-0.05-0.18-0.1-0.27-0.15c-1.33-0.73-2.61-1.38-3.88-1.98c-0.65-0.31-1.29-0.59-1.93-0.87
			c-0.1-0.04-0.21-0.09-0.3-0.14c-0.1-0.04-0.2-0.08-0.31-0.12c-0.7-0.29-1.39-0.57-2.07-0.82c-0.29-0.11-0.58-0.22-0.87-0.32
			c-0.05-0.02-0.1-0.03-0.14-0.05c-0.51-0.18-1.03-0.35-1.54-0.52c-0.09-0.03-0.19-0.06-0.28-0.09c-0.55-0.18-1.1-0.34-1.65-0.5
			c-0.08-0.02-0.16-0.05-0.23-0.07c-0.58-0.17-1.16-0.33-1.74-0.48c-0.02-0.01-0.05-0.01-0.07-0.02c-3.01-0.79-6.17-1.43-9.78-2.16
			c-0.17-0.03-0.33-0.07-0.5-0.1c-0.07-0.01-0.14-0.03-0.22-0.04c-1.85-0.37-5.53-1.02-10.35-0.99c-0.15,0-0.3,0-0.46,0.01
			c-0.39,0.01-0.78,0.02-1.18,0.03c-0.14,0.01-0.28,0.01-0.43,0.02c-0.48,0.02-0.97,0.05-1.47,0.09c-0.06,0-0.12,0.01-0.19,0.01
			c-1.09,0.08-2.23,0.2-3.39,0.37c-5.79,0.84-12.62,1.84-17.74,6.91c-3.59,3.54-3.82,6.61-5.34,10.73c0.17-0.02,0.34-0.05,0.51-0.06
			c4.04-5.58,12.02-7.5,19.13-7.57c17.5-0.19,34.16,6.84,51.25,10.63c2.81,0.62,5.74,1.25,8.51,2.16c2.87,0.94,5.35,2.45,8.05,3.73
			c2.16,1.02,4.42,2.2,6.75,2.77c0.69,0.25,1.4,0.5,2.12,0.75c0.04,0.01,0.07,0.02,0.1,0.03c0.57,0.19,1.14,0.38,1.73,0.56
			c0.02,0.01,0.04,0.01,0.06,0.02c0.59,0.18,1.19,0.37,1.81,0.55c7.41,2.16,16.29,3.83,27.01,4.68c7.56,0.6,13.24,7.21,12.56,14.77
			c-0.44,4.89-1.03,9.73-2.52,14.51c0.76,1.33,1.56,2.64,2.59,3.96c0.92,1.16,2.09,2.42,3.64,3.65c2.05,1.65,4.08,2.79,5.83,3.56
			c0.27-2.34,0.81-4.09,1.27-5.26c0.28-0.72,0.52-1.22,0.92-2.3c0.69-1.88,1-3.31,1.15-3.79c4.13-13.28,10.11-30.42,10.59-31.81
			c-0.12,0.01-0.23,0.01-0.34,0.02C502.88,352.41,502.89,352.4,502.9,352.39z"/>
		<path class="st8" d="M898.94,491.38c-0.23-2.27-0.94-4.99-2.96-7c-2.6-2.59-6.22-2.84-7.31-2.92
			c-14.85-1.24-24.98-12.71-105.88-24.79c-15.51-2.31-27.94-3.8-43.49-10.54c-9.26-4.02-16.57-7.17-23.96-14.33
			c-4.78-4.6-7.35-8.71-15.29-15.46c-1.39-1.16-5.49-4.59-11.77-8.74c-13.61-8.94-21.09-10.45-29.71-15.18
			c-12.69-6.96-12.46-12.43-26.19-24.97c-20.44-18.66-42.33-26.05-52.69-29.42c-17.41-5.69-31.17-10.18-47.59-5.29
			c-12.14,3.61-20.74,10.84-26.03,16.46c5.34-5.03,13.02-10.59,23.19-13.61c16.42-4.89,30.17-0.4,47.59,5.29
			c10.35,3.37,32.25,10.76,52.69,29.42c13.72,12.54,13.5,18.01,26.18,24.97c8.63,4.73,16.11,6.24,29.71,15.18
			c6.29,4.15,10.38,7.58,11.77,8.74c7.94,6.75,10.52,10.86,15.29,15.46c7.4,7.16,14.71,10.31,23.96,14.33
			c15.56,6.74,27.98,8.23,43.5,10.54c80.9,12.08,91.02,23.55,105.88,24.79c1.08,0.08,4.71,0.33,7.31,2.92
			c2.02,2.01,2.73,4.73,2.95,7c0-0.02,0.01-0.05,0.01-0.07c0.16,1.58,0.09,2.95,0.05,3.71c-0.17,3.17-1.1,6.26-2.32,9.17
			c-0.69,1.64-1.48,3.25-2.33,4.81c-0.75,1.38-2.12,2.94-2.4,4.48c-0.12,0.67-0.33,1.3-0.58,1.93c0.73-0.73,1.31-1.87,1.89-2.75
			c0.62-0.95,1.24-1.91,1.83-2.87c1.14-1.85,2.21-3.74,3.18-5.69c1.7-3.44,3.12-7.13,3.5-10.97c0.03-0.32,0.06-0.63,0.07-0.95
			C899.03,494.28,899.1,492.94,898.94,491.38z"/>
	</g>
	<path class="st3" d="M895.98,484.38c-2.6-2.59-6.22-2.84-7.31-2.92c1.26,1.21,3.07,3.3,4.12,6.28
		c4.28,12.28-9.14,24.86-23.41,44.84c-13.24,18.57-19.44,40.34-24.13,50.89c-4.69,10.57-17.07,33.35-22.46,37.97
		c-5.38,4.65-9.87,9.79-12.03,19.62c-2.19,9.83-6.35,28.04-17.65,54.15c-11.32,26.12-54.8,18.84-71.07,13.97
		c-16.28-4.88-46.84-23.27-54.19-26.76c-46.2-21.88-52.44-15.11-78.86-33.32c-27.84-19.22-47-45.55-48.51-47.65
		c-9.33-13.02-15.08-24.57-30.98-40.86c-14.49-14.88-24.25-20.18-26.79-21.53c-7.21-3.78-29.69-15.59-47.98-6.38
		c-2.48,1.25-10.08,5.06-12.33,12.79c-0.61,2.04-0.78,4.2-0.6,6.35c0.45,5.49,3.15,11.01,6.77,15.14c0.57,0.66,1.16,1.29,1.79,1.87
		c3.03,2.86,6.4,4.61,10.56,5.85c11.99,7.66,27.63,18.24,38.46,28.37c1.03,0.96,3.68,3.47,7.83,6.03c3.77,2.33,9.83,6.04,16.45,6.64
		c3.69,0.33,7.4-1.05,9.7-3.95c0.02-0.02,0.04-0.05,0.05-0.07c2.46-3.14,2.61-6.58,2.69-8.58c0.32-9.35-6.47-16.9-7.49-18.01
		c-6.68-7.22-15.08-9.2-27.86-12.03c-9.09-2.02-9.72-1.07-23.89-3.78c-17.27-3.3-21.01-5.6-23.38-8.93
		c-3-4.21-4.43-10.87-1.63-15.55c3.53-5.89,12.27-6.17,17.21-6.3c22.27-0.58,39.7,14.21,44.52,18.31
		c10.03,8.52,19.45,20.48,23.16,26.59c0.64,1.06,3.48,5.81,8.07,11.67c1.84,2.36,3.44,4.22,4.5,5.42
		c9.06,12.93,24.14,31.47,47.15,48.57c16.85,12.54,32.02,19.89,42.7,25c33.18,15.87,39.33,11.41,68.46,27.2
		c16,8.66,19.9,13.13,33.61,17.05c9.15,2.62,24.33,6.75,42.53,1.65c4.89-1.36,27.3-7.64,37.45-26.74
		c5.32-10.01,1.68-12.99,9.89-34.56c4.57-12.03,8.96-19.67,10.18-21.76c5.95-10.18,9.96-13.8,15.6-21.56
		c4.53-6.2,6.64-10.3,18.37-35.41c20.11-43.06,18.46-40.75,20.1-43.22c9.18-13.8,22.92-28.78,23.62-41.74
		C899.08,493.14,899.37,487.75,895.98,484.38z M488.49,582.23c3.06,0.58,10.45,1.9,15.2,7.83c1.18,1.46,5.31,5.99,4.36,11.62
		c-0.21,1.11-0.73,4.16-3.04,5.62c-4.52,2.79-12.33-2.67-16.31-5.45c-5.6-3.91-8.23-7.28-11.24-10.33
		c-4.3-4.32-11.24-9.89-22.53-14.23C463.3,578.37,474.07,579.51,488.49,582.23z"/>
	<path class="st4" d="M898.94,491.32c-1.09,12.82-14.54,27.54-23.57,41.12c-1.64,2.47,0.01,0.16-20.1,43.22
		c-11.73,25.11-13.84,29.21-18.37,35.41c-5.64,7.76-9.65,11.38-15.6,21.56c-1.22,2.09-5.61,9.73-10.18,21.76
		c-8.21,21.57-4.57,24.55-9.89,34.56c-10.15,19.1-32.56,25.38-37.45,26.74c-18.2,5.1-33.38,0.97-42.53-1.65
		c-13.71-3.92-17.61-8.39-33.61-17.05c-29.13-15.79-35.28-11.33-68.46-27.2c-10.68-5.11-25.85-12.46-42.7-25
		c-23.01-17.1-38.09-35.64-47.15-48.57c-1.06-1.2-2.66-3.06-4.5-5.42c-4.59-5.86-7.43-10.61-8.07-11.67
		c-3.71-6.11-13.13-18.07-23.16-26.59c-4.82-4.1-22.25-18.89-44.52-18.31c-4.94,0.13-13.68,0.41-17.21,6.3
		c-1.42,2.38-1.79,5.47-1.38,8.29c0.21-1.33,0.69-2.8,1.38-3.96c3.53-5.89,12.27-6.17,17.21-6.3c22.27-0.58,39.7,14.21,44.52,18.31
		c10.03,8.52,19.45,20.48,23.16,26.59c0.64,1.06,3.48,5.81,8.07,11.67c1.84,2.36,3.44,4.22,4.5,5.42
		c9.06,12.93,24.14,31.47,47.15,48.57c16.85,12.54,32.02,19.89,42.7,25c33.18,15.87,39.33,11.41,68.46,27.2
		c16,8.66,19.9,13.13,33.61,17.05c9.15,2.62,24.33,6.75,42.53,1.65c4.89-1.36,27.3-7.64,37.45-26.74
		c5.32-10.01,1.68-12.99,9.89-34.56c4.57-12.03,8.96-19.67,10.18-21.76c5.95-10.18,9.96-13.8,15.6-21.56
		c4.53-6.2,6.64-10.3,18.37-35.41c20.11-43.06,18.46-40.75,20.1-43.22c9.18-13.8,22.92-28.78,23.62-41.74
		C899.03,494.27,899.1,492.9,898.94,491.32z M513.43,607.41c-0.02,0.02-0.04,0.05-0.05,0.07c-2.31,2.9-6.01,4.28-9.7,3.95
		c-6.63-0.6-12.68-4.31-16.46-6.64c-4.15-2.56-6.8-5.07-7.83-6.03c-9.47-8.86-22.61-18.06-33.78-25.35c-2.6-1.7-5.37-3.07-8.22-4.29
		c-2.61-1.12-4.9-2.58-7.02-4.58c-0.63-0.58-1.22-1.21-1.79-1.87c-3.49-3.99-6.13-9.27-6.71-14.57c-0.15,1.24-0.17,2.5-0.06,3.76
		c0.45,5.49,3.15,11.01,6.77,15.14c0.57,0.66,1.16,1.29,1.79,1.87c2.12,2,4.41,3.46,7.02,4.58c3.76,1.61,7.3,3.67,10.71,5.93
		c10.59,7,22.52,15.51,31.29,23.71c1.03,0.96,3.68,3.47,7.83,6.03c3.77,2.33,9.83,6.04,16.46,6.64c3.69,0.33,7.39-1.05,9.7-3.95
		c0.02-0.02,0.04-0.05,0.05-0.07c2.46-3.14,2.61-6.58,2.69-8.58c0.03-0.92-0.01-1.81-0.1-2.69
		C515.84,602.44,515.31,605.01,513.43,607.41z"/>
	<path class="st4" d="M480.77,568.93c-9.09-2.02-9.72-1.07-23.89-3.78c-17.27-3.3-21.01-5.6-23.38-8.93
		c-1.47-2.07-2.61-4.67-3.01-7.4c-0.66,4.06,0.75,8.56,3.01,11.73c2.37,3.33,6.11,5.63,23.38,8.93c14.17,2.71,14.8,1.76,23.89,3.78
		c12.78,2.83,21.18,4.81,27.86,12.03c0.92,1,6.53,7.24,7.39,15.32c0.06-0.61,0.08-1.17,0.1-1.64c0.32-9.35-6.47-16.9-7.49-18.01
		C501.95,573.74,493.55,571.76,480.77,568.93z"/>
	<path class="st7" d="M533.28,387.09c-0.01,2.71-0.63,5.3-1.56,7.82c-2.03-0.73-3.98-1.85-6.05-1.44c-3.8,0.74-4.72,5.6-6.58,9
		c-2.99,5.43-9.47,7.78-14,12.01c-4.84,4.54-7.35,11.2-12.39,15.52c-0.57,0.49-2.34,1.81-3.39,1.25c-1.05-0.57-0.55-2.57-1.28-7.83
		c0,0-0.58-4.19-2.15-5.05c-0.55-0.3-1.03-0.23-1.03-0.23c-0.48,0.07-0.8,0.38-0.92,0.52l-0.51,0.91c1.27-3.11,2.17-5.59,2.89-8.12
		c1.47-5.17,2.55-12.68,2.96-15.84c0.09-0.65,0.31-2.41,1.03-4.63c0.42-1.3,0.87-2.32,1.16-2.93c6.48-3.39,14.09-7.7,21.21-14.3
		c2.5-2.32,4.91-4.9,7.55-7.05c1.31,0.86,2.58,1.79,3.79,2.8C529.27,373.89,533.3,380.24,533.28,387.09z"/>
	<path class="st5" d="M457.77,465.71c0.03,0,0.06-0.01,0.09-0.01c-0.02,0.03-0.03,0.05-0.05,0.08h-0.01l0.01-0.03
		c-0.02,0.01-0.05,0.01-0.07,0.01L457.77,465.71z"/>
	<path class="st1" d="M489.28,395.57v0.04c-1.55,11.08-2.29,15.32-5.85,23.92l-4.8,8.64c-5.24-5.59-4.78-10.26-10.88-16.22
		c-2.02-1.97-3.56-2.91-5.06-3.59c3.77-5.02,7.47-10.14,10.81-15.65c1.66-2.73,2.84-5.5,3.72-8.31c0.76,1.33,1.56,2.64,2.59,3.96
		C481.64,390.68,484.52,393.38,489.28,395.57z"/>
	<path class="st6" d="M457.81,465.75l-0.01,0.03h0.01c-3.77,6.11-7.97,13.65-12.26,22.24c-7.28-5.27-10.05-11.8-15.95-15.88
		c2.16-7.6,4.37-15.19,7.12-22.58c5.94-15.97,16.2-28.18,25.95-41.17c0.01-0.01,0.01-0.02,0.02-0.03c1.5,0.68,3.04,1.62,5.06,3.59
		c6.1,5.96,5.64,10.63,10.88,16.22l-20.89,37.54h0.03l-0.03,0.05C457.76,465.76,457.79,465.76,457.81,465.75z"/>
	<path class="st6" d="M503.21,352.41c-0.48,1.39-6.46,18.53-10.59,31.81c-0.15,0.48-0.46,1.91-1.15,3.79
		c-0.4,1.08-0.64,1.58-0.92,2.3c-0.45,1.17-1,2.91-1.27,5.26c-1.75-0.77-3.78-1.91-5.83-3.56c-1.54-1.24-2.72-2.49-3.64-3.65
		c-1.03-1.32-1.83-2.63-2.59-3.96c0.01-0.01,0.01-0.01,0.01-0.02v-0.01c3.19-10.22,2.26-20.89,4.49-31.49
		C488.28,353.01,495.42,352.87,503.21,352.41z"/>
	<path class="st6" d="M810.77,481.43c-2.17,2.34-2.57,6.14-0.92,8.88c1.78,2.97,5.31,4.29,8.46,5.72
		c8.22,3.74,15.47,9.58,20.86,16.83c2.79,3.75,5.18,7.95,8.94,10.72c3.77,2.77,9.55,3.59,12.88,0.31c2.49-2.46,2.86-6.34,4.76-9.27
		c2.87-4.42,9.28-6.95,9.41-12.22c0.07-2.86-1.9-5.37-4.07-7.23c-6.36-5.48-14.86-7.64-23.07-9.39c-7.48-1.59-15-2.84-22.53-4.16
		C820.58,480.76,815.11,476.77,810.77,481.43z"/>
	<path class="st7" d="M565.29,603.53c5.75,6.53,14.02,10.15,21.25,15c10.3,6.91,18.75,16.52,29.78,22.17
		c14.94,7.65,33.58,7.48,46.8,17.83c2.81,2.2,5.32,4.84,8.49,6.48c3.17,1.64,7.33,2.06,10.1-0.19c1.04-0.84,1.8-1.99,2.32-3.22
		c3.39-7.95-3.42-17.01-11.43-20.27s-16.99-2.86-25.44-4.7c-16.48-3.58-29.9-15.4-41.03-28.07c-6.19-7.04-12-14.55-19.46-20.23
		c-5.21-3.96-17.78-11.66-24.21-6.27C556.34,587.19,561.13,598.81,565.29,603.53z"/>
	<path class="st6" d="M598.38,486.53c2.63,1.74,5.34,3.52,8.43,4.15c5.84,1.19,11.61-1.92,16.77-4.91c2.62-1.52,5.66-4.05,4.68-6.92
		c-0.24-0.71-0.72-1.32-1.19-1.91c-4.87-6.14-9.75-12.28-14.62-18.43c-1.28-1.61-2.59-3.25-4.32-4.33c-2.44-1.53-5.45-1.8-8.33-1.77
		c-8.16,0.08-14.05,5.19-14.38,13.36c-0.11,2.69-0.13,8.2,0.72,10.61C587.83,481.17,594.23,483.77,598.38,486.53z"/>
</g>
<g>
	<path class="st1" d="M414.76,669.24c-0.21,1.11-0.73,4.16-3.04,5.62c-4.52,2.79-12.33-2.67-16.31-5.45
		c-5.6-3.91-8.23-7.28-11.24-10.33c-4.3-4.32-11.24-9.89-22.53-14.23c8.37,1.08,19.14,2.22,33.56,4.94
		c3.06,0.58,10.45,1.9,15.2,7.83C411.58,659.08,415.71,663.61,414.76,669.24z"/>
	<path class="st2" d="M414.48,682.97c1.29-0.51,3.86-1.45,5.64-3.71c2.46-3.15,2.62-6.58,2.69-8.59c0.32-9.35-6.47-16.9-7.49-18
		c-6.68-7.22-15.08-9.2-27.86-12.03c-9.09-2.02-9.72-1.07-23.89-3.78c-17.27-3.31-21-5.6-23.38-8.94c-3-4.21-4.43-10.87-1.63-15.55
		c3.53-5.9,12.27-6.18,17.21-6.3c22.27-0.58,39.7,14.2,44.52,18.31c10.03,8.52,19.45,20.48,23.16,26.59
		c0.64,1.06,3.48,5.81,8.07,11.67c1.85,2.36,3.44,4.22,4.5,5.42C436.03,668.07,426.12,681.26,414.48,682.97z"/>
	<path class="st1" d="M392.87,618.6c-6.72-2.88-14.63-4.96-23.26-4.74c-4.94,0.12-13.68,0.4-17.22,6.3
		c-2.57,4.3-1.57,10.27,0.94,14.47c-8.73-2.23-11.33-4.17-13.14-6.7c-3-4.21-4.43-10.87-1.63-15.55c3.54-5.9,12.28-6.17,17.22-6.3
		C371.44,605.67,384.7,612.87,392.87,618.6z"/>
	<path class="st1" d="M436.05,668.06c0,0-9.9,13.19-21.54,14.91c1.29-0.52,3.86-1.45,5.64-3.72c2.46-3.15,2.62-6.58,2.69-8.59
		c0.07-2.18-0.24-4.26-0.78-6.18c2.8-2.44,3.08-9.52-2.7-19.47c0.98,1.39,10.93,16.01,12.19,17.63
		C433.4,664.99,435,666.85,436.05,668.06z"/>
	<path class="st3" d="M335.28,634.52c-7.37-4.51-14.77-8.53-29.04-16.22c-18.8-10.16-23.74-12.14-29.11-13.67
		c-6.67-1.9-5.89-0.81-28.99-3.43c-3.86-0.45-24.99-2.96-45.54-8.27c-12.18-3.16-16.97-6.82-27.83-15.76
		c-5.97-4.9-9.66-11.84-11.79-17.12c-1.51-3.75-0.83-7.98,1.67-11.06c10.2,20.03,23.72,28.56,30.01,31.95
		c10.81,5.81,21.56,7.56,30.51,9.01c13.96,2.27,17.39,0.49,33.19,2.58c6.12,0.8,17.28,2.61,29.48,6.52
		c10.38,3.33,23.46,11,40.67,20.33C328.96,624.87,331.66,630.39,335.28,634.52z"/>
	<path class="st4" d="M335.23,634.49c-7.37-4.51-14.77-8.53-29.04-16.22c-18.8-10.16-23.74-12.14-29.11-13.67
		c-6.67-1.9-5.89-0.81-28.99-3.43c-3.86-0.45-24.99-2.96-45.54-8.27c-12.18-3.16-16.97-6.82-27.83-15.76
		c-4.66-3.83-7.93-8.89-10.15-13.44c1.73,2.44,3.79,4.78,6.23,6.79c10.86,8.94,15.65,12.6,27.83,15.76
		c20.55,5.31,41.68,7.82,45.54,8.27c23.1,2.62,22.32,1.53,28.99,3.43c5.37,1.53,10.31,3.51,29.11,13.67
		c13.86,7.47,21.24,11.47,28.4,15.83C331.85,630.02,333.42,632.43,335.23,634.49z"/>
	<path class="st3" d="M330.24,678.39c-0.21-0.13-0.43-0.26-0.64-0.39c-0.13-0.27-0.25-0.55-0.37-0.83
		C329.56,677.59,329.9,678,330.24,678.39z"/>
	<path class="st5" d="M409.95,419.93c-0.19,0.55-6.38,18.25-10.62,31.89c-0.41,1.32-0.8,2.58-1.15,3.79
		c-0.85,2.81-1.57,5.31-2.19,7.56c-4.76-2.19-7.64-4.89-9.47-7.21c-3.43-4.36-4.21-8.67-9.77-13.85c-1.73-1.61-3.56-2.97-6.88-4.94
		c-12.97-7.66-19.47-7.2-37.76-14.37c-4.97-1.95-10.62-4.4-11.54-3.05c-1.07,1.64,5.52,7.14,4.15,9.31
		c-0.77,1.21-3.62,0.78-4.65,0.48c-6.02-1.65-10.4-6.65-15.62-10.05c-5.38-3.53-11.85-5.38-18.3-5.22
		c-5.06,0.11-10.27,1.41-15.05-0.27c-4.05-1.42-7.1-4.78-10.8-6.97c-4.01-2.36-8.83-3.27-13.45-2.6c1.52-4.12,1.75-7.19,5.34-10.73
		c5.12-5.07,11.95-6.07,17.74-6.91c8.45-1.23,15.14-0.02,17.68,0.5c14.06,2.83,21.09,4.25,39.32,17.24
		C340.07,413.88,363.73,422.73,409.95,419.93z"/>
	<path class="st2" d="M395.99,463.17c-1.55,11.11-2.29,15.35-5.85,23.96l-4.8,8.64c-5.24-5.59-4.78-10.26-10.88-16.22
		c-5.81-5.68-7.63-2.77-16.04-10c-5.29-4.52-5.6-6.55-11.55-10.88c-4.5-3.24-8.34-5.02-11.27-6.34c-6.13-2.79-9.21-4.18-13.36-3.93
		c-3.07,0.19-2.99,1.02-8.54,2.09c-4.96,0.94-8.08,1.87-10.82,0.69c-4.29-1.82-6.01-6.95-9.45-10.09
		c-7.02-6.41-18.66-2.94-27.16-7.18c-4-2-4.81-4.94-9.85-7.1c-4.89-2.07-10.5-2.68-11.4-0.99c-0.84,1.63,3.18,4.25,2.18,6.69
		c-0.79,1.92-4.03,2.19-4.74,2.26c-3.88,0.35-6.88-1.91-8.32-2.98c-3.32-2.49-5.51-6.04-6.61-8.58c4.79-4.85,12.22-5.77,17.16-14.21
		c0.98-1.68,1.65-3.19,2.16-4.57c4.62-0.67,9.44,0.24,13.45,2.6c3.7,2.19,6.75,5.55,10.8,6.97c4.78,1.68,9.99,0.38,15.05,0.27
		c6.45-0.16,12.92,1.69,18.3,5.22c5.22,3.4,9.6,8.4,15.62,10.05c1.03,0.3,3.88,0.73,4.65-0.48c1.37-2.17-5.22-7.67-4.15-9.31
		c0.92-1.35,6.57,1.1,11.54,3.05c18.29,7.17,24.79,6.71,37.76,14.37c3.32,1.97,5.15,3.33,6.88,4.94c5.56,5.18,6.34,9.49,9.77,13.85
		C388.35,458.28,391.23,460.98,395.99,463.17z"/>
	<path class="st5" d="M364.45,533.31c0.04,0,0.08-0.01,0.12-0.01c-3.78,6.12-8.02,13.67-12.33,22.3
		c-9.1-6.59-11.12-15.12-21.08-18.42c-6-2.01-9.34-0.27-11.39-3.3c-2.17-3.21,0.32-6.96-2.29-14.48c-0.57-1.64-1.01-2.92-2.03-4.38
		c-4.17-6.01-13.68-8.85-17.51-5.75c-2.69,2.16-1.53,6.38-4.93,8.06c-1.45,0.74-2.9,0.57-3.6,0.5c-4.86-0.61-7.42-5.84-10.91-10.46
		c-4.89-6.48-5.71-3.96-13.7-12.35c-8.76-9.21-10.08-14.68-16.22-15.63c-2.73-0.42-6.15,0.1-6.7,1.72
		c-1.27,3.67,5.13,5.99,5.11,9.86c-0.01,2.71-3.39,4.31-6.02,3.69c-2.65-0.63-4.69-2.64-6.79-4.36c-5.63-4.59-12.66-7.43-19.89-8.11
		c4.64-17.27,9.67-54.91,12.62-58.31c0.2-0.23,0.41-0.46,0.62-0.67c1.1,2.54,3.29,6.09,6.61,8.58c1.44,1.07,4.44,3.33,8.32,2.98
		c0.71-0.07,3.95-0.34,4.74-2.26c1-2.44-3.02-5.06-2.18-6.69c0.9-1.69,6.51-1.08,11.4,0.99c5.04,2.16,5.85,5.1,9.85,7.1
		c8.5,4.24,20.14,0.77,27.16,7.18c3.44,3.14,5.16,8.27,9.45,10.09c2.74,1.18,5.86,0.25,10.82-0.69c5.55-1.07,5.47-1.9,8.54-2.09
		c4.15-0.25,7.23,1.14,13.36,3.93c2.93,1.32,6.77,3.1,11.27,6.34c5.95,4.33,6.26,6.36,11.55,10.88c8.41,7.23,10.23,4.32,16.04,10
		c6.1,5.96,5.64,10.63,10.88,16.22L364.45,533.31z"/>
	<path class="st5" d="M799.5,555.3c-1.05-2.98-2.86-5.07-4.12-6.28c-14.85-1.24-24.98-12.71-105.88-24.79
		c-15.51-2.31-27.94-3.8-43.49-10.54c-9.26-4.02-16.57-7.17-23.96-14.33c-4.78-4.6-7.35-8.71-15.29-15.46
		c-1.39-1.16-5.49-4.59-11.77-8.74c-13.61-8.94-21.09-10.45-29.71-15.18c-12.69-6.96-12.46-12.43-26.19-24.97
		c-20.44-18.66-42.33-26.05-52.69-29.42c-17.41-5.69-31.17-10.18-47.59-5.29c-14.6,4.34-24.07,13.91-28.84,19.63
		c-0.01,0-0.01,0-0.02,0c-0.19,0.55-6.38,18.25-10.62,31.89c-0.41,1.32-0.8,2.58-1.15,3.79c7.36-4.34,14.96-8.48,21.21-14.3
		c4.66-4.33,9.02-9.57,15.16-11.2c7.02-1.86,14.54,1.53,21.66,0.12c3.85-0.75,7.33-2.88,11.2-3.52c3.79-0.63,7.66,0.2,11.42,1.02
		c4.55,1,9.11,2,13.67,3c3.26,0.72,6.53,1.44,9.67,2.56c4.86,1.73,7.78,3.47,13.83,7.09c17.44,10.43,18.46,10.49,20.74,13.37
		c4.48,5.65,1.32,6.39,6.1,14.31c6.23,10.32,13.97,12.97,25.04,22.88c0.69,0.62,2.08,1.99,4.35,2.9c2.37,0.97,5.05,0.82,7.5,1.58
		c4.1,1.26,7.03,4.89,9.03,8.69c1.99,3.81,3.3,7.96,5.58,11.6c3.77,6.02,9.86,10.14,15.77,14.09c3.29,2.2,7.19,4.5,10.98,3.35
		c1.32-0.41,2.5-1.21,3.81-1.65c3.54-1.18,7.38,0.12,10.88,2.15c4.48,2.6,11.24,1.49,16.41,1.93c3.96,0.34,7.95,0.67,11.82,1.63
		c2.89,0.72,5.73,1.79,8.21,3.45c3.58,2.41,6.25,5.91,9.01,9.23c7.05,8.49,15.03,16.14,22.83,23.93c1.96,1.95,3.91,3.92,5.51,6.17
		c4.03,5.64,6.1,13.2,12.17,16.54c3.26,1.8,7.11,2.02,10.74,2.85c4.3,0.98,8.33,2.86,12.33,4.72c7.24,3.37,15.3,7.14,21.81,11.86
		c2.69-5.31,5.81-10.69,9.47-15.82C790.36,580.16,803.78,567.58,799.5,555.3z M473.04,413.77c-0.62,0.62-1.66,0.39-2.49,0.11
		c-1.68-0.55-3.37-1.11-5.05-1.66c-1.74-0.58-3.52-1.16-5.35-1.21c-2.01-0.05-3.97,0.53-5.9,1.11c-2.44,0.74-4.91,1.49-7.09,2.79
		c-1.57,0.94-1.65,1.1-2.97,1.87c-1.37,0.79-6.01,3.41-11.61,2.88c-1.5-0.15-5.58-0.53-6.6-3.03c-0.05-0.12-0.39-1-0.14-2.01
		c0.67-2.73,5.03-3.79,8.63-4.77c14.39-3.94,16.55-6.69,24.05-5.94c0.36,0.04,2.65,0.31,5.53,1.21c3.67,1.15,7.68,2.85,9.12,6.42
		C473.46,412.27,473.59,413.21,473.04,413.77z"/>
	<path class="st2" d="M766.62,615.96c-7.08,13.92-11.27,27.43-14.66,35.07c-4.69,10.57-17.07,33.35-22.46,37.97
		c-5.38,4.65-9.87,9.79-12.03,19.62c-2.19,9.83-6.35,28.04-17.65,54.15c-0.04,0.1-0.09,0.2-0.14,0.29
		c-0.02,0.04-0.03,0.09-0.06,0.14c-11.6,25.61-54.69,18.38-70.87,13.54c-16.28-4.88-46.84-23.27-54.19-26.76
		c-46.2-21.88-52.44-15.11-78.86-33.32c-27.84-19.22-47-45.55-48.51-47.65c-9.33-13.02-15.08-24.57-30.98-40.86
		c-14.49-14.88-24.25-20.18-26.79-21.53c-7.21-3.78-29.69-15.59-47.98-6.38c-2.48,1.25-10.08,5.06-12.33,12.79
		c-0.61,2.04-0.78,4.2-0.6,6.35c-17.21-9.33-30.29-17-40.67-20.33c-12.2-3.91-23.36-5.72-29.48-6.52
		c-15.8-2.09-19.23-0.31-33.19-2.58c-8.95-1.45-19.7-3.2-30.51-9.01c-6.29-3.39-19.81-11.92-30.01-31.95
		c0.31-0.41,0.68-0.79,1.06-1.15c2.57-2.41,5.33-5.07,8.21-8.01c4.19-4.33,8.66-9.23,13.24-14.74c3.22-3.89,5.74-7.57,7.86-11.01
		c5.85-9.39,8.93-17.19,15.96-23.65c1.06-0.97,2.18-3.99,3.31-8.24c7.23,0.68,14.26,3.52,19.89,8.11c2.1,1.72,4.14,3.73,6.79,4.36
		c2.63,0.62,6.01-0.98,6.02-3.69c0.02-3.87-6.38-6.19-5.11-9.86c0.55-1.62,3.97-2.14,6.7-1.72c6.14,0.95,7.46,6.42,16.22,15.63
		c7.99,8.39,8.81,5.87,13.7,12.35c3.49,4.62,6.05,9.85,10.91,10.46c0.7,0.07,2.15,0.24,3.6-0.5c3.4-1.68,2.24-5.9,4.93-8.06
		c3.83-3.1,13.34-0.26,17.51,5.75c1.02,1.46,1.46,2.74,2.03,4.38c2.61,7.52,0.12,11.27,2.29,14.48c2.05,3.03,5.39,1.29,11.39,3.3
		c9.96,3.3,11.98,11.83,21.08,18.42c4.31-8.63,8.55-16.18,12.33-22.3c-0.04,0-0.08,0.01-0.12,0.01l20.89-37.54l4.8-8.64
		c2.06-6.74,2.43-11.49,5.85-23.96c0.62-2.25,1.34-4.75,2.19-7.56c7.36-4.34,14.96-8.48,21.21-14.3c4.66-4.33,9.02-9.57,15.16-11.2
		c7.02-1.86,14.54,1.53,21.66,0.12c3.85-0.75,7.33-2.88,11.2-3.52c3.79-0.63,7.66,0.2,11.42,1.02c4.55,1,9.11,2,13.67,3
		c3.26,0.72,6.53,1.44,9.67,2.56c4.86,1.73,7.78,3.47,13.83,7.09c17.44,10.43,18.46,10.49,20.74,13.37
		c4.48,5.65,1.32,6.39,6.1,14.31c6.23,10.32,13.97,12.97,25.04,22.88c0.69,0.62,2.08,1.99,4.35,2.9c2.37,0.97,5.05,0.82,7.5,1.58
		c4.1,1.26,7.03,4.89,9.03,8.69c1.99,3.81,3.3,7.96,5.58,11.6c3.77,6.02,9.86,10.14,15.77,14.09c3.29,2.2,7.19,4.5,10.98,3.35
		c1.32-0.41,2.5-1.21,3.81-1.65c3.54-1.18,7.38,0.12,10.88,2.15c4.48,2.6,11.24,1.49,16.41,1.93c3.96,0.34,7.95,0.67,11.82,1.63
		c2.89,0.72,5.73,1.79,8.21,3.45c3.58,2.41,6.25,5.91,9.01,9.23c7.05,8.49,15.03,16.14,22.83,23.93c1.96,1.95,3.91,3.92,5.51,6.17
		c4.03,5.64,6.1,13.2,12.17,16.54c3.26,1.8,7.11,2.02,10.74,2.85c4.3,0.98,8.33,2.86,12.33,4.72
		C752.05,607.47,760.11,611.24,766.62,615.96z"/>
	<path class="st5" d="M195.02,514.08c0.05,0,0.09,0.01,0.14,0.01c8.42,0.52,14.8,11.81,24.12,11.99c0.36,0.01,2.72,0.04,5.76-0.06
		c5.47-0.18,6.95-0.55,9.16-0.59c7.35-0.13,13.22,3.58,15.62,5.1c4.26,2.71,7.01,5.76,8.88,8.06c2.84,3.46,5.69,6.93,8.51,10.41
		c1.1,1.34,2.22,2.7,3.67,3.67c2.8,1.87,6.39,1.94,9.66,2.8c1.43,0.36,2.83,0.89,4.3,0.88c2.68-0.01,4.51-1.21,5.47-1.7
		c4.63-2.34,12.42-0.37,17.02,3.57c4.81,4.16,7.82,11.97,5.12,15.45c-1.32,1.69-3.63,1.91-4.98,2.06c-7.5,0.73-9.9-6.1-17.86-6.33
		c-3.5-0.12-3.56,0.54-9.52,1.38c-3.18,0.43-6.66,0.3-9.26-1.6c-1.77-1.28-2.92-3.26-4.51-4.75c-1.97-1.83-4.52-2.87-7.02-3.85
		c-4.08-1.6-8.21-3.11-12.37-4.55c-4.29-1.5-9.17-3.43-10.53-7.77c-0.33-1.01-0.43-2.08-0.93-3.02c-0.79-1.47-2.08-1.93-4.1-2.96
		c-5.68-2.91-5.93-3.78-7.56-3.53c-1.7,0.26-3.84,1.61-3.92,3.16c-0.1,2.19,4.02,2.76,8.41,7.58c1.72,1.87,3.73,4.21,3.24,6.18
		c-0.71,2.89-4.6,3.54-7.45,2.78c-5.84-1.59-10.24-6.41-15.86-8.65c-4.68-1.86-10.12-1.74-14.79,0.19
		c-2.83,1.19-4.93,2.61-8.24,2.18c-2.88-0.39-4.91-2.06-5.93-2.91c0,0-3.84-3.21-5.13-8.37c-0.09-0.35-0.15-0.7-0.21-1.05
		c4.19-4.33,8.66-9.23,13.23-14.73C190.38,521.2,192.89,517.52,195.02,514.08z"/>
	<path class="st2" d="M473.04,413.77c-0.62,0.62-1.66,0.39-2.49,0.11c-1.68-0.55-3.37-1.11-5.05-1.66
		c-1.74-0.58-3.52-1.16-5.35-1.21c-2.01-0.05-3.97,0.53-5.9,1.11c-2.44,0.74-4.91,1.49-7.09,2.79c-1.57,0.94-1.65,1.1-2.97,1.87
		c-1.37,0.79-6.01,3.41-11.61,2.88c-1.5-0.15-5.58-0.53-6.6-3.03c-0.05-0.12-0.39-1-0.14-2.01c0.67-2.73,5.03-3.79,8.63-4.77
		c14.39-3.94,16.55-6.69,24.05-5.94c0.36,0.04,2.65,0.31,5.53,1.21c3.67,1.15,7.68,2.85,9.12,6.42
		C473.46,412.27,473.59,413.21,473.04,413.77z"/>
	<path class="st5" d="M651.56,683.79c-1.76,3.09-5.96,3.79-9.47,3.26c-7.68-1.18-14.48-6.93-16.92-14.3
		c-1.69-5.12-5.93-9.36-10.59-12.08c-4.65-2.73-9.91-4.84-13.28-9.05c-4.77-5.99-4.45-14.49-7.18-21.65
		c-1.81-4.76-4.98-8.88-7.41-13.36c-4.04-7.48-6.01-15.88-9.47-23.64c-3.47-7.76-9.02-15.28-17.12-17.84
		c-2.61-0.83-5.81-2.68-6.9-5.19c-1.09-2.52-1.19-5.34-1.27-8.08c-0.2-6.36-0.24-9.55-0.08-11.52c0.9-11.06,4.33-17.58,2.87-18.35
		c-0.92-0.48-2.95,1.74-3.48,2.31c-5.94,6.47-5.16,17.22-5.19,19.53c-0.04,2.56,0.28,5.15-0.2,7.66c-0.48,2.52-2,5.05-4.45,5.79
		c-3.49,1.07-7.03-1.84-10.68-1.71c-2.48,0.09-4.66,1.56-6.86,2.7c-10.7,5.56-24.84,3.49-33.5-4.9c-1.46-1.42-2.8-3.01-4.48-4.17
		c-4.08-2.8-9.76-2.79-13.42-6.11c-3.87-3.51-8.69-8.65-13.89-9.08c-5.21-0.43-10.4,0.77-15.61,1.04c-0.88,0.05-1.81,0.06-2.58-0.36
		c-1.9-1.03-1.73-3.75-1.5-5.9c1.08-9.91-2.38-20.22-9.22-27.47c-2.87-3.05-6.6-5.67-10.79-5.74c-4.21-0.06-8.05,2.49-10.96,5.54
		c-2.91,3.05-5.19,6.66-8.16,9.65c-4.45,4.47-11.98,11.07-35.2,12.53c-0.04,0-0.08,0.01-0.12,0.01l20.8-37.43l4.89-8.75l0.51-0.91
		c0.12-0.14,0.44-0.45,0.92-0.52c0,0,0.48-0.07,1.03,0.23c1.57,0.86,2.15,5.05,2.15,5.05c0.73,5.26,0.23,7.26,1.28,7.83
		c1.05,0.56,2.82-0.76,3.39-1.25c5.04-4.32,7.55-10.98,12.39-15.52c4.53-4.23,11.01-6.58,14-12.01c1.86-3.4,2.78-8.26,6.58-9
		c2.58-0.51,4.99,1.37,7.58,1.87c8.67,1.68,15.27-11.85,23.73-9.32c3.95,1.18,7.25,5.78,11.14,4.39c5.77-2.06,11.99-5.14,18.1-4.58
		c3.07,0.29,6.33,1.71,7.55,4.55c0.7,1.63,0.64,3.49,1.17,5.18c0.84,2.66,3.05,4.62,5.01,6.61c3.98,4.06,7.25,8.81,9.63,13.97
		c0.96,2.09,1.8,4.29,3.36,5.98c1.48,1.6,3.47,2.61,5.42,3.59c8.1,4.05,16.19,8.11,24.29,12.16c3.15,1.58,6.28,4.65,7.49,7.97
		c1.2,3.32,1.75,6.86,3.15,10.1c1.3,2.98,3.28,5.6,5.24,8.18c1.39,1.84,2.8,3.69,4.45,5.3c2.42,2.35,5.32,4.13,8.12,6.02
		c8.85,5.99,16.96,13.39,22.3,22.65c5.34,9.26,7.69,20.53,4.89,30.85c-3.07,11.25,1.79,24.5,7.51,34.66
		c5.72,10.16,13.92,18.75,22.9,26.18c6.96,5.76,14.97,11.72,16.72,20.59C652.53,679.9,652.55,682.04,651.56,683.79z"/>
	<path class="st5" d="M751.96,652.46c-2.15-3.19-9.27,0.49-17.96-3.98c-4.02-2.06-6.39-4.65-6.75-5.45
		c-0.76-1.65-1.04-3.79-2.67-4.58c-0.92,2.35-1.2,4.29-1.29,5.55c-0.27,3.47,0.53,6.17-0.6,9.89c-0.28,0.93-0.68,1.91-1.36,2.01
		c-0.73,0.11-1.44-0.84-1.84-1.39c-1.41-1.93-1.61-4.02-1.66-4.25c-0.82-4.03-1.65-8.05-2.47-12.08c-0.48-2.35-0.98-4.76-2.23-6.81
		c-1.93-3.19-5.41-5.14-7.59-8.17c-3.33-4.61-3.1-10.78-4.03-16.39c-1.55-9.4-6.63-17.89-12.67-25.25
		c-7.44-9.07-13.93-16.43-19.48-20.9c-2.52-2.03-6.01-3.63-9.22-4.06c-2.47-0.33-5.17-0.08-7.1,1.49c-1.26,1.02-2.07,2.5-2.63,4.01
		c-1.69,4.57-1.35,9.75,0.37,14.31c1.72,4.56,4.75,8.55,8.28,11.91c1.61,1.54,3.51,3.54,2.8,5.65c-2.08,1.65-5.26,0.81-7.28-0.91
		c-2.02-1.72-3.31-4.13-5.07-6.1c-2.13-2.39-5.02-4.23-6.3-7.17c-1.09-2.51-0.81-5.37-0.51-8.09c0.25-2.26,0.5-4.52,0.75-6.78
		c0.34-3.04,0.68-6.12,0.28-9.15c-0.39-3.04-1.59-6.07-3.88-8.11c-3.36-2.99-8.26-3.26-12.75-3.37c-0.72-0.02-1.46-0.03-2.12,0.24
		c-0.69,0.28-1.23,0.85-1.72,1.43c-2.51,2.96-4.33,6.49-5.29,10.25c-0.92,3.61-0.48,8.73-0.97,12.42c-0.3,2.26-0.6,4.54-0.33,6.8
		c0.28,2.4,1.19,4.68,1.59,7.06c0.83,5.01-0.65,10.15-0.22,15.21c0.26,3.04,1.19,5.97,2.18,8.85c2.88,8.35,6.33,16.51,10.3,24.41
		c1.27,2.53,2.07,7.3,2.78,10.04c0.89,3.41,2.98,6.37,5.11,9.18c3.13,4.14,6.42,8.15,9.88,12.02c0.87,0.97,1.86,2,3.15,2.16
		c1.74,0.22,3.32-1.35,3.64-3.07c0.32-1.72-0.33-3.48-1.22-4.99c-0.67-1.15-1.5-2.51-0.9-3.7c0.37-0.73,1.17-1.11,1.77-1.66
		c1.56-1.45,1.58-3.88,1.35-5.99c-1.15-10.84-5.61-21.28-5.36-32.18c0.03-1.14,0.11-2.32,0.64-3.33c0.53-1.01,1.6-1.82,2.73-1.7
		c0.4,0.04,0.8,0.2,1.05,0.52c0.39,0.5,0.28,1.21,0.18,1.83c-0.65,4.29,0.14,8.78,2.23,12.58c1.94,3.54,4.91,6.42,6.92,9.92
		c2.76,4.79,3.57,10.67,2.21,16.02c-0.25,0.97-0.56,1.94-0.6,2.94c-0.11,2.64,1.67,4.94,3.36,6.98c0.47,0.57,0.97,1.15,1.65,1.42
		c0.88,0.35,1.87,0.09,2.81-0.05c5.5-0.8,11.25,3.42,12.14,8.91c-0.31,4.2,1.15,9.46,3.7,12.81c2.55,3.35,6.08,5.87,9.88,7.67
		c4.51,2.13,8.19,3.08,15.23,4.58c5.51,1.18,8.26,1.76,9.29,1.64c5.95-0.69,8.48-5.77,23.18-30.54
		C751.24,658.41,753.47,654.7,751.96,652.46z"/>
	<path class="st5" d="M358.74,543.26c5.01-2.44,9.59-3.13,15.16-2.93c7.01,0.25,14.54,2.54,20.71-0.8c3.41-1.84,5.75-5.12,8.45-7.9
		c2.7-2.78,7.19-3.76,11.05-4.15c3.42-0.34,6.63,2.03,8.45,4.95c1.82,2.92,2.59,6.35,3.63,9.63c0.8,2.53,1.77,5.01,2.9,7.41
		c1.15,2.43,2.52,4.86,4.66,6.49c3.19,2.43,7.5,2.69,11.5,2.55c4.01-0.15,8.14-0.58,11.92,0.77c2.56,0.91,4.76,2.59,6.92,4.24
		c1.92,1.46,3.83,2.93,5.75,4.39c1.64,1.26,3.32,2.55,4.43,4.3c2.89,4.57,1.07,10.54,1.67,15.92c0.61,5.42,3.78,10.41,3.79,15.86
		c0,0.6-0.06,1.26-0.46,1.71c-0.22,0.24-0.51,0.4-0.81,0.52c-2.62,1.11-5.71,0.19-8.06-1.41c-2.35-1.61-4.19-3.83-6.32-5.72
		c-1.6-1.42-3.36-2.66-5.12-3.88c-4.1-2.87-8.21-5.74-12.31-8.61c-3.71-2.6-7.32-6.09-11.6-7.58c-5.24-1.82-10.6-3.27-16.03-4.34
		c-1.89-0.37-3.83-0.71-5.54-1.6c-1.23-0.64-2.3-1.54-3.36-2.44c-3.2-2.71-6.4-5.41-9.6-8.12c-3.91-3.31-7.93-6.68-12.72-8.5
		c-1.64-0.62-3.35-1.05-5.08-1.28c-1.01-0.13-2.06-0.2-3.05,0.07c-1.09,0.29-2.05,0.97-2.89,1.73c-1.35,1.23-2.47,2.71-3.29,4.34
		c-0.51,1.03-0.93,2.15-1.77,2.93c-1.87,1.73-4.98,1.02-7-0.54c-2.02-1.56-3.45-3.78-5.48-5.31c-2.03-1.53-5.19-2.15-7-0.36
		c0.95-2.06,2-4.18,3.16-6.37C356.51,547.12,357.63,545.13,358.74,543.26z"/>
	<path class="st5" d="M699.74,763.45c-1.75-4.43-4.1-6.8-6.02-8.17c-3.2-2.27-6.19-2.21-8.18-5.48c-0.9-1.49-1.18-3.3-2.07-4.79
		c-2.05-3.45-6.71-4.31-10.71-3.9c-4,0.41-7.97,1.72-11.95,1.17c-2.76-0.38-5.31-1.62-7.81-2.85c-5.16-2.53-10.32-5.07-15.48-7.6
		c-2.86-1.4-5.76-2.84-8.06-5.04c-2.1-2.01-3.6-4.57-5.56-6.72s-4.65-3.97-7.54-3.74c-7.51,0.59-17.31-1.15-22.51-6.61
		c-2.9-3.04-4.85-6.84-7.31-10.24s-5.72-6.57-9.84-7.38c-2.19-0.43-4.46-0.15-6.69-0.38c-3.54-0.36-6.93-2.02-9.38-4.61
		c-9.06-9.59-12.67-20.7-23.96-28.35c-7.93-5.38-12.8-3.28-25.26-12.09c0,0-7.87-5.56-6.86-7.31c0.5-0.88,3.82,0.29,8.87-0.75
		c1.08-0.22,2.79-0.61,2.99-1.69c0.08-0.44-0.05-0.88-0.19-1.3c-1.52-4.46-4.88-8.26-9.11-10.32c-2.1-1.02-4.38-1.63-6.45-2.73
		c-3.78-2-6.53-5.46-9.17-8.82c-1.61-2.05-3.25-4.18-3.87-6.7c-0.45-1.84-0.32-3.77-0.54-5.65c-0.41-3.44-1.97-6.61-3.06-9.9
		c-1.46-4.43-2.04-9.15-1.71-13.8c0.08-1.11,0.27-2.33,1.11-3.06c0.95-0.81,2.37-0.7,3.57-0.37c7.51,2.05,12.33,10.39,20.04,11.49
		c3.79,0.54,7.55-0.82,11.32-1.48c5.98-1.05,12.11-0.36,18.15,0.33c1.55,0.18,3.24,0.42,4.32,1.55c0.82,0.86,1.12,2.06,1.57,3.16
		c1.74,4.21,5.91,7,7.81,11.14c1.8,3.92,1.38,8.68,3.63,12.35c0.99,1.62,2.43,2.91,3.85,4.17c7.91,7.08,15.86,14.6,20.31,24.24
		c0.89,1.93,1.65,4.02,1.4,6.12c-0.25,2.13-1.48,4.01-2.03,6.09c-0.93,3.52,0.2,7.33,2.22,10.36c2.01,3.03,4.83,5.43,7.6,7.78
		c1.69,1.43,2.56,1.59,3.27,1.39c2.29-0.68,1.7-5.88,3.84-6.58c1.43-0.47,3.22,1.36,4.72,2.94c4.06,4.26,4.55,7.28,8.73,14.17
		c0.83,1.37,1.68,2.75,2.87,3.82c3.62,3.24,9.17,2.61,13.8,4.07c7.88,2.47,12.4,10.64,15.26,18.38c1.19,3.23,2.49,6.81,5.52,8.43
		c1.43,0.77,3.08,0.99,4.7,1.13c2.85,0.25,5.71,0.27,8.56,0.08c6.17-0.41,12.89,0.72,18.07,4.09c7.05,4.59,7.26,6.98,14.57,11.45
		c4.4,2.68,10.21,4.93,17.96,5.54c-0.7,3.34-1.79,7.27-3.49,11.54C703.73,756.61,701.65,760.42,699.74,763.45z"/>
	<path class="st1" d="M352.26,555.58c0.02,0.03,0.06,0.05,0.09,0.08c-2.28,2.87-3.36,6.61-4.53,10.15
		c-2.58,7.77-6.06,15.22-10.36,22.13c-2.72,4.38-8.67,16.19-8.85,27.32c-0.06,0.42-0.1,0.84-0.13,1.27
		c-0.06,0.93-0.05,1.87,0.03,2.81c-4.85-2.63-9.37-5.13-13.59-7.43c-0.18-1.04-0.31-2.12-0.41-3.27c-0.54-6.5,0.45-15.57,8.37-31.13
		c6.09-11.98,9.71-24.89,13.41-37.77c0,0,0-0.01,0.01-0.02c0-0.01,0-0.01,0.01-0.02c5.9,4.08,8.65,10.59,15.93,15.86
		c4.29-8.59,8.51-16.11,12.28-22.22h0.03C360.78,539.45,356.55,546.97,352.26,555.58z"/>
	<path class="st7" d="M396.85,588.59c-0.59,0.96-1.5,1.68-2.47,2.23c-5.99,3.4-13.4,0.87-20.21,1.52
		c-4.89,0.47-9.38,2.58-13.89,4.67c-6.26-0.51-12.78,0.23-18.83,3.28c-2.08,1.05-9.75,10.05-12.86,15.51
		c0-11.29,6.09-23.42,8.86-27.87c4.3-6.91,7.78-14.36,10.36-22.13c1.2-3.63,2.02-7.32,4.44-10.22c0-0.01,0.26-0.24,0.28-0.25
		c1.85-1.46,4.79-0.78,6.72,0.67c2.03,1.54,3.46,3.76,5.47,5.31c0.79,0.61,1.76,1.1,2.76,1.35c0.06,0.17,0.13,0.35,0.2,0.52
		c1.93,4.59,6.37,7.52,10.87,9.42c4.49,1.9,9.31,3.06,13.53,5.53C395.73,580.27,399.09,584.94,396.85,588.59z"/>
	<path class="st3" d="M802.69,551.94c-2.6-2.59-6.22-2.84-7.31-2.92c1.26,1.21,3.07,3.3,4.12,6.28
		c4.28,12.28-9.14,24.86-23.41,44.84c-13.24,18.57-19.44,40.34-24.13,50.89c-4.69,10.57-17.07,33.35-22.46,37.97
		c-5.38,4.65-9.87,9.79-12.03,19.62c-2.19,9.83-6.35,28.04-17.65,54.15c-11.32,26.12-54.8,18.84-71.07,13.97
		c-16.28-4.88-46.84-23.27-54.19-26.76c-46.2-21.88-52.44-15.11-78.86-33.32c-27.84-19.22-47-45.55-48.51-47.65
		c-9.33-13.02-15.08-24.57-30.98-40.86c-14.49-14.88-24.25-20.18-26.79-21.53c-7.21-3.78-29.69-15.59-47.98-6.38
		c-2.48,1.25-10.08,5.06-12.33,12.79c-0.61,2.04-0.78,4.2-0.6,6.35c0.45,5.49,3.15,11.01,6.77,15.14c0.57,0.66,1.16,1.29,1.79,1.87
		c3.03,2.86,6.4,4.61,10.56,5.85c11.99,7.66,27.63,18.24,38.46,28.37c1.03,0.96,3.68,3.47,7.83,6.03c3.77,2.33,9.83,6.04,16.45,6.64
		c3.69,0.33,7.4-1.05,9.7-3.95c0.02-0.02,0.04-0.05,0.05-0.07c2.46-3.14,2.61-6.58,2.69-8.58c0.32-9.35-6.47-16.9-7.49-18.01
		c-6.68-7.22-15.08-9.2-27.86-12.03c-9.09-2.02-9.72-1.07-23.89-3.78c-17.27-3.3-21.01-5.6-23.38-8.93
		c-3-4.21-4.43-10.87-1.63-15.55c3.53-5.89,12.27-6.17,17.21-6.3c22.27-0.58,39.7,14.21,44.52,18.31
		c10.03,8.52,19.45,20.48,23.16,26.59c0.64,1.06,3.48,5.81,8.07,11.67c1.84,2.36,3.44,4.22,4.5,5.42
		c9.06,12.93,24.14,31.47,47.15,48.57c16.85,12.54,32.02,19.89,42.7,25c33.18,15.87,39.33,11.41,68.46,27.2
		c16,8.66,19.9,13.13,33.61,17.05c9.15,2.62,24.33,6.75,42.53,1.65c4.89-1.36,27.3-7.64,37.45-26.74
		c5.32-10.01,1.68-12.99,9.89-34.56c4.57-12.03,8.96-19.67,10.18-21.76c5.95-10.18,9.96-13.8,15.6-21.56
		c4.53-6.2,6.64-10.3,18.37-35.41c20.11-43.06,18.46-40.75,20.1-43.22c9.18-13.8,22.92-28.78,23.62-41.74
		C805.79,560.7,806.08,555.31,802.69,551.94z M395.2,649.79c3.06,0.58,10.45,1.9,15.2,7.83c1.18,1.46,5.31,5.99,4.36,11.62
		c-0.21,1.11-0.73,4.16-3.04,5.62c-4.52,2.79-12.33-2.67-16.31-5.45c-5.6-3.91-8.23-7.28-11.24-10.33
		c-4.3-4.32-11.24-9.89-22.53-14.23C370.01,645.93,380.78,647.07,395.2,649.79z"/>
	<path class="st4" d="M805.65,558.87c-1.09,12.82-14.54,27.54-23.57,41.12c-1.64,2.47,0.01,0.16-20.1,43.22
		c-11.73,25.11-13.84,29.21-18.37,35.41c-5.64,7.76-9.65,11.38-15.6,21.56c-1.22,2.09-5.61,9.73-10.18,21.76
		c-8.21,21.57-4.57,24.55-9.89,34.56c-10.15,19.1-32.56,25.38-37.45,26.74c-18.2,5.1-33.38,0.97-42.53-1.65
		c-13.71-3.92-17.61-8.39-33.61-17.05c-29.13-15.79-35.28-11.33-68.46-27.2c-10.68-5.11-25.85-12.46-42.7-25
		c-23.01-17.1-38.09-35.64-47.15-48.57c-1.06-1.2-2.66-3.06-4.5-5.42c-4.59-5.86-7.43-10.61-8.07-11.67
		c-3.71-6.11-13.13-18.07-23.16-26.59c-4.82-4.1-22.25-18.89-44.52-18.31c-4.94,0.13-13.68,0.41-17.21,6.3
		c-1.42,2.38-1.79,5.47-1.38,8.29c0.21-1.33,0.69-2.8,1.38-3.96c3.53-5.89,12.27-6.17,17.21-6.3c22.27-0.58,39.7,14.21,44.52,18.31
		c10.03,8.52,19.45,20.48,23.16,26.59c0.64,1.06,3.48,5.81,8.07,11.67c1.84,2.36,3.44,4.22,4.5,5.42
		c9.06,12.93,24.14,31.47,47.15,48.57c16.85,12.54,32.02,19.89,42.7,25c33.18,15.87,39.33,11.41,68.46,27.2
		c16,8.66,19.9,13.13,33.61,17.05c9.15,2.62,24.33,6.75,42.53,1.65c4.89-1.36,27.3-7.64,37.45-26.74
		c5.32-10.01,1.68-12.99,9.89-34.56c4.57-12.03,8.96-19.67,10.18-21.76c5.95-10.18,9.96-13.8,15.6-21.56
		c4.53-6.2,6.64-10.3,18.37-35.41c20.11-43.06,18.46-40.75,20.1-43.22c9.18-13.8,22.92-28.78,23.62-41.74
		C805.74,561.82,805.81,560.45,805.65,558.87z M420.14,674.96c-0.02,0.02-0.04,0.05-0.05,0.07c-2.31,2.9-6.01,4.28-9.7,3.95
		c-6.63-0.6-12.68-4.31-16.46-6.64c-4.15-2.56-6.8-5.07-7.83-6.03c-9.47-8.86-22.61-18.06-33.78-25.35c-2.6-1.7-5.37-3.07-8.22-4.29
		c-2.61-1.12-4.9-2.58-7.02-4.58c-0.63-0.58-1.22-1.21-1.79-1.87c-3.49-3.99-6.13-9.27-6.71-14.57c-0.15,1.24-0.17,2.5-0.06,3.76
		c0.45,5.49,3.15,11.01,6.77,15.14c0.57,0.66,1.16,1.29,1.79,1.87c2.12,2,4.41,3.46,7.02,4.58c3.76,1.61,7.3,3.67,10.71,5.93
		c10.59,7,22.52,15.51,31.29,23.71c1.03,0.96,3.68,3.47,7.83,6.03c3.77,2.33,9.83,6.04,16.46,6.64c3.69,0.33,7.39-1.05,9.7-3.95
		c0.02-0.02,0.04-0.05,0.05-0.07c2.46-3.14,2.61-6.58,2.69-8.58c0.03-0.92-0.01-1.81-0.1-2.69
		C422.55,669.99,422.02,672.56,420.14,674.96z"/>
	<path class="st4" d="M387.48,636.49c-9.09-2.02-9.72-1.07-23.89-3.78c-17.27-3.3-21.01-5.6-23.38-8.93
		c-1.47-2.07-2.61-4.67-3.01-7.4c-0.66,4.06,0.75,8.56,3.01,11.73c2.37,3.33,6.11,5.63,23.38,8.93c14.17,2.71,14.8,1.76,23.89,3.78
		c12.78,2.83,21.18,4.81,27.86,12.03c0.92,1,6.53,7.24,7.39,15.32c0.06-0.61,0.08-1.17,0.1-1.64c0.32-9.35-6.47-16.9-7.49-18.01
		C408.66,641.3,400.26,639.32,387.48,636.49z"/>
	<path class="st7" d="M439.99,454.65c-0.01,2.71-0.63,5.3-1.56,7.82c-2.03-0.73-3.98-1.85-6.05-1.44c-3.8,0.74-4.72,5.6-6.58,9
		c-2.99,5.43-9.47,7.78-14,12.01c-4.84,4.54-7.35,11.2-12.39,15.52c-0.57,0.49-2.34,1.81-3.39,1.25c-1.05-0.57-0.55-2.57-1.28-7.83
		c0,0-0.58-4.19-2.15-5.05c-0.55-0.3-1.03-0.23-1.03-0.23c-0.48,0.07-0.8,0.38-0.92,0.52l-0.51,0.91c1.27-3.11,2.17-5.59,2.89-8.12
		c1.47-5.17,2.55-12.68,2.96-15.84c0.09-0.65,0.31-2.41,1.03-4.63c0.42-1.3,0.87-2.32,1.16-2.93c6.48-3.39,14.09-7.7,21.21-14.3
		c2.5-2.32,4.91-4.9,7.55-7.05c1.31,0.86,2.58,1.79,3.79,2.8C435.98,441.45,440.01,447.8,439.99,454.65z"/>
	<path class="st5" d="M364.48,533.27c0.03,0,0.06-0.01,0.09-0.01c-0.02,0.03-0.03,0.05-0.05,0.08h-0.01l0.01-0.03
		c-0.02,0.01-0.05,0.01-0.07,0.01L364.48,533.27z"/>
	<path class="st1" d="M395.99,463.13v0.04c-1.55,11.08-2.29,15.32-5.85,23.92l-4.8,8.64c-5.24-5.59-4.78-10.26-10.88-16.22
		c-2.02-1.97-3.56-2.91-5.06-3.59c3.77-5.02,7.47-10.14,10.81-15.65c1.66-2.73,2.84-5.5,3.72-8.31c0.76,1.33,1.56,2.64,2.59,3.96
		C388.35,458.24,391.23,460.94,395.99,463.13z"/>
	<path class="st6" d="M364.52,533.31l-0.01,0.03h0.01c-3.77,6.11-7.97,13.65-12.26,22.24c-7.28-5.27-10.05-11.8-15.95-15.88
		c2.16-7.6,4.37-15.19,7.12-22.58c5.94-15.97,16.2-28.18,25.95-41.17c0.01-0.01,0.01-0.02,0.02-0.03c1.5,0.68,3.04,1.62,5.06,3.59
		c6.1,5.96,5.64,10.63,10.88,16.22l-20.89,37.54h0.03l-0.03,0.05C364.47,533.32,364.5,533.32,364.52,533.31z"/>
	<g>
		<path class="st8" d="M409.61,419.95c-26.77,1.59-45.94-0.74-59.88-4.8c-0.62-0.18-1.22-0.36-1.84-0.55
			c-0.61-0.19-1.2-0.38-1.79-0.58c-0.03-0.01-0.05-0.02-0.08-0.03c-0.82-0.27-1.61-0.55-2.39-0.84c-0.01,0-0.02-0.01-0.03-0.01
			c-0.78-0.28-1.53-0.57-2.27-0.87c-0.09-0.03-0.18-0.06-0.26-0.1c-0.37-0.15-0.72-0.3-1.07-0.45c-0.19-0.08-0.38-0.15-0.56-0.23
			c-0.24-0.1-0.48-0.21-0.71-0.31c-0.1-0.04-0.2-0.09-0.3-0.14c-0.25-0.11-0.5-0.22-0.74-0.34c-0.24-0.1-0.48-0.22-0.72-0.33
			c-0.05-0.02-0.1-0.05-0.16-0.07c-0.26-0.12-0.52-0.25-0.78-0.38c-0.23-0.11-0.46-0.22-0.69-0.34c-0.22-0.11-0.43-0.22-0.65-0.33
			c-0.25-0.13-0.5-0.26-0.74-0.39c-0.09-0.05-0.18-0.1-0.27-0.15c-0.02-0.01-0.05-0.02-0.07-0.04c-0.38-0.2-0.76-0.41-1.12-0.62
			c-0.13-0.07-0.27-0.15-0.4-0.23c-0.04-0.02-0.08-0.05-0.12-0.07c-0.29-0.16-0.57-0.33-0.85-0.5c-0.12-0.07-0.23-0.14-0.35-0.21
			c-0.14-0.08-0.28-0.17-0.42-0.25c-0.08-0.05-0.15-0.09-0.23-0.14c-0.24-0.15-0.48-0.3-0.71-0.45c-0.03-0.02-0.06-0.04-0.09-0.06
			c-0.24-0.16-0.48-0.31-0.71-0.47c-0.11-0.07-0.22-0.14-0.33-0.22c-0.06-0.04-0.13-0.09-0.19-0.13c-0.4-0.27-0.79-0.54-1.17-0.81
			c-0.17-0.12-0.32-0.23-0.49-0.34c-0.55-0.39-1.08-0.76-1.61-1.13c-0.14-0.1-0.28-0.19-0.42-0.29c-0.66-0.46-1.31-0.9-1.96-1.34
			c-1.4-0.95-2.73-1.81-4-2.62c-0.02-0.01-0.04-0.02-0.06-0.04c-1.26-0.79-2.46-1.52-3.62-2.19c-0.03-0.02-0.07-0.04-0.1-0.06
			c-0.51-0.29-1.01-0.57-1.5-0.84c-0.09-0.05-0.18-0.1-0.27-0.15c-1.33-0.73-2.61-1.38-3.88-1.98c-0.65-0.31-1.29-0.59-1.93-0.87
			c-0.1-0.04-0.21-0.09-0.3-0.14c-0.1-0.04-0.2-0.08-0.31-0.12c-0.7-0.29-1.39-0.57-2.07-0.82c-0.29-0.11-0.58-0.22-0.87-0.32
			c-0.05-0.02-0.1-0.03-0.14-0.05c-0.51-0.18-1.03-0.35-1.54-0.52c-0.09-0.03-0.19-0.06-0.28-0.09c-0.55-0.18-1.1-0.34-1.65-0.5
			c-0.08-0.02-0.16-0.05-0.23-0.07c-0.58-0.17-1.16-0.33-1.74-0.48c-0.02-0.01-0.05-0.01-0.07-0.02c-3.01-0.79-6.17-1.43-9.78-2.16
			c-0.17-0.03-0.33-0.07-0.5-0.1c-0.07-0.01-0.14-0.03-0.22-0.04c-1.85-0.37-5.53-1.02-10.35-0.99c-0.15,0-0.3,0-0.46,0.01
			c-0.39,0.01-0.78,0.02-1.18,0.03c-0.14,0.01-0.28,0.01-0.43,0.02c-0.48,0.02-0.97,0.05-1.47,0.09c-0.06,0-0.12,0.01-0.19,0.01
			c-1.09,0.08-2.23,0.2-3.39,0.37c-5.79,0.84-12.62,1.84-17.74,6.91c-3.59,3.54-3.82,6.61-5.34,10.73c0.17-0.02,0.34-0.05,0.51-0.06
			c4.04-5.58,12.02-7.5,19.13-7.57c17.5-0.19,34.16,6.84,51.25,10.63c2.81,0.62,5.74,1.25,8.51,2.16c2.87,0.94,5.35,2.45,8.05,3.73
			c2.16,1.02,4.42,2.2,6.75,2.77c0.69,0.25,1.4,0.5,2.12,0.75c0.04,0.01,0.07,0.02,0.1,0.03c0.57,0.19,1.14,0.38,1.73,0.56
			c0.02,0.01,0.04,0.01,0.06,0.02c0.59,0.18,1.19,0.37,1.81,0.55c7.41,2.16,16.29,3.83,27.01,4.68c7.56,0.6,13.24,7.21,12.56,14.77
			c-0.44,4.89-1.03,9.73-2.52,14.51c0.76,1.33,1.56,2.64,2.59,3.96c0.92,1.16,2.09,2.42,3.64,3.65c2.05,1.65,4.08,2.79,5.83,3.56
			c0.27-2.34,0.81-4.09,1.27-5.26c0.28-0.72,0.52-1.22,0.92-2.3c0.69-1.88,1-3.31,1.15-3.79c4.13-13.28,10.11-30.42,10.59-31.81
			c-0.12,0.01-0.23,0.01-0.34,0.02C409.59,419.97,409.6,419.96,409.61,419.95z"/>
		<path class="st8" d="M805.65,558.94c-0.23-2.27-0.94-4.99-2.96-7c-2.6-2.59-6.22-2.84-7.31-2.92
			c-14.85-1.24-24.98-12.71-105.88-24.79c-15.51-2.31-27.94-3.8-43.49-10.54c-9.26-4.02-16.57-7.17-23.96-14.33
			c-4.78-4.6-7.35-8.71-15.29-15.46c-1.39-1.16-5.49-4.59-11.77-8.74c-13.61-8.94-21.09-10.45-29.71-15.18
			c-12.69-6.96-12.46-12.43-26.19-24.97c-20.44-18.66-42.33-26.05-52.69-29.42c-17.41-5.69-31.17-10.18-47.59-5.29
			c-12.14,3.61-20.74,10.84-26.03,16.46c5.34-5.03,13.02-10.59,23.19-13.61c16.42-4.89,30.17-0.4,47.59,5.29
			c10.35,3.37,32.25,10.76,52.69,29.42c13.72,12.54,13.5,18.01,26.18,24.97c8.63,4.73,16.11,6.24,29.71,15.18
			c6.29,4.15,10.38,7.58,11.77,8.74c7.94,6.75,10.52,10.86,15.29,15.46c7.4,7.16,14.71,10.31,23.96,14.33
			c15.56,6.74,27.98,8.23,43.5,10.54c80.9,12.08,91.02,23.55,105.88,24.79c1.08,0.08,4.71,0.33,7.31,2.92
			c2.02,2.01,2.73,4.73,2.95,7c0-0.02,0.01-0.05,0.01-0.07c0.16,1.58,0.09,2.95,0.05,3.71c-0.17,3.17-1.1,6.26-2.32,9.17
			c-0.69,1.64-1.48,3.25-2.33,4.81c-0.75,1.38-2.12,2.94-2.4,4.48c-0.12,0.67-0.33,1.3-0.58,1.93c0.73-0.73,1.31-1.87,1.89-2.75
			c0.62-0.95,1.24-1.91,1.83-2.87c1.14-1.85,2.21-3.74,3.18-5.69c1.7-3.44,3.12-7.13,3.5-10.97c0.03-0.32,0.06-0.63,0.07-0.95
			C805.74,561.84,805.81,560.5,805.65,558.94z"/>
	</g>
	<path class="st6" d="M717.48,548.98c-2.17,2.34-2.57,6.14-0.92,8.88c1.78,2.97,5.31,4.29,8.46,5.72
		c8.22,3.74,15.47,9.58,20.86,16.83c2.79,3.75,5.18,7.95,8.94,10.72c3.77,2.77,9.55,3.59,12.88,0.31c2.49-2.46,2.86-6.34,4.76-9.27
		c2.87-4.42,9.28-6.95,9.41-12.22c0.07-2.86-1.9-5.37-4.07-7.23c-6.36-5.48-14.86-7.64-23.07-9.39c-7.48-1.59-15-2.84-22.53-4.16
		C727.29,548.32,721.82,544.33,717.48,548.98z"/>
	<path class="st7" d="M472,671.09c5.75,6.53,14.02,10.15,21.25,15c10.3,6.91,18.75,16.52,29.78,22.17
		c14.94,7.65,33.58,7.48,46.8,17.83c2.81,2.2,5.32,4.84,8.49,6.48c3.17,1.64,7.33,2.06,10.1-0.19c1.04-0.84,1.8-1.99,2.32-3.22
		c3.39-7.95-3.42-17.01-11.43-20.27s-16.99-2.86-25.44-4.7c-16.48-3.58-29.9-15.4-41.03-28.07c-6.19-7.04-12-14.55-19.46-20.23
		c-5.21-3.96-17.78-11.66-24.21-6.27C463.05,654.75,467.84,666.37,472,671.09z"/>
	<path class="st6" d="M505.09,554.09c2.63,1.74,5.34,3.52,8.43,4.15c5.84,1.19,11.61-1.92,16.77-4.91c2.62-1.52,5.66-4.05,4.68-6.92
		c-0.24-0.71-0.72-1.32-1.19-1.91c-4.87-6.14-9.75-12.28-14.62-18.43c-1.28-1.61-2.59-3.25-4.32-4.33c-2.44-1.53-5.45-1.8-8.33-1.77
		c-8.16,0.08-14.05,5.19-14.38,13.36c-0.11,2.69-0.13,8.2,0.72,10.61C494.54,548.73,500.94,551.33,505.09,554.09z"/>
</g>
<g>
	<path class="st6" d="M590.33,1.01c0.11-0.01,0.23-0.01,0.34-0.02c0.01,0,0.01,0,0.02,0c0.8-0.96,1.74-2.03,2.81-3.17
		C592.33-1.08,591.27,0,590.33,1.01z"/>
</g>
</svg>
