<?xml version="1.0" encoding="utf-8"?>
<!-- Generator: Adobe Illustrator 28.0.0, SVG Export Plug-In . SVG Version: 6.00 Build 0)  -->
<svg version="1.1" id="Layer_1" xmlns="http://www.w3.org/2000/svg" xmlns:xlink="http://www.w3.org/1999/xlink" x="0px" y="0px"
	 viewBox="0 0 1080 1080" style="enable-background:new 0 0 1080 1080;" xml:space="preserve">
<style type="text/css">
	.st0{fill:none;stroke:#C1873A;stroke-width:16;stroke-linecap:round;stroke-linejoin:round;stroke-miterlimit:10;}
	.st1{fill:#E2D0E1;}
	.st2{fill:#EDE6EE;}
	.st3{fill:#DA9E53;}
	.st4{fill:#C98D4C;}
	.st5{fill:#DD6A6E;}
	.st6{fill:#D1626B;}
	.st7{fill:#F3EFF4;}
	.st8{fill:#C45C69;}
	.st9{fill:#FFB92E;}
	.st10{opacity:0.5;fill:#96A488;}
	.st11{fill:#F0F3EC;}
	.st12{fill:#E5E9E0;}
	.st13{fill:#B5CAD2;}
	.st14{fill:none;stroke:#009245;stroke-width:4;stroke-miterlimit:10;}
	.st15{fill:none;stroke:#009245;stroke-width:4;stroke-linecap:round;stroke-linejoin:round;stroke-miterlimit:10;}
	.st16{fill:none;stroke:#009245;stroke-width:4.1082;stroke-linecap:round;stroke-linejoin:round;stroke-miterlimit:10;}
	.st17{fill:none;stroke:#000000;stroke-width:1.9946;stroke-miterlimit:10;}
	.st18{fill:none;stroke:#000000;stroke-width:1.8919;stroke-miterlimit:10;}
	.st19{fill:none;stroke:#000000;stroke-width:1.924;stroke-miterlimit:10;}
	.st20{fill:none;stroke:#000000;stroke-width:1.924;stroke-linecap:round;stroke-linejoin:round;stroke-miterlimit:10;}
	.st21{fill:none;stroke:#000000;stroke-width:1.7309;stroke-linecap:round;stroke-linejoin:round;stroke-miterlimit:10;}
	.st22{fill:none;stroke:#000000;stroke-width:2;stroke-miterlimit:10;}
	.st23{fill:none;stroke:#000000;stroke-width:2;stroke-linecap:round;stroke-linejoin:round;stroke-miterlimit:10;}
	.st24{fill:#FFC257;}
	.st25{fill:#EDA229;}
	.st26{fill:#DD8E1B;}
	.st27{fill:#FFD085;}
	.st28{fill:none;stroke:#000000;stroke-width:3.4146;stroke-linecap:round;stroke-linejoin:round;stroke-miterlimit:10;}
	.st29{fill:none;stroke:#000000;stroke-width:1.8379;stroke-linecap:round;stroke-linejoin:round;stroke-miterlimit:10;}
	.st30{fill:none;stroke:#000000;stroke-linecap:round;stroke-linejoin:round;stroke-miterlimit:10;}
	.st31{fill:#D1D6CC;}
	.st32{fill:#F4DC98;}
	.st33{fill:#E9D2A3;}
	.st34{fill:#DAA765;}
	.st35{fill:#D09E62;}
	.st36{opacity:0.5;fill:#EDE1CA;}
	.st37{opacity:0.3;fill:#AF8056;}
	.st38{opacity:0.28;fill:#AF8056;}
	.st39{fill:#F3814A;}
	.st40{fill:#CF602F;}
	.st41{fill:#C35233;}
	.st42{fill:#F38A62;}
	.st43{opacity:0.2;fill:#FFFFFF;}
	.st44{opacity:0.37;fill:#DA7446;}
	.st45{opacity:0.1;fill:#FFFFFF;}
	.st46{opacity:0.08;fill:#FFFFFF;}
	.st47{opacity:0.3;fill:#997552;enable-background:new    ;}
	.st48{fill:#E5C98C;}
	.st49{opacity:0.6;fill:#F9E4BB;enable-background:new    ;}
	.st50{opacity:0.8;fill:#F9E4BB;enable-background:new    ;}
	.st51{fill:#618828;}
	.st52{fill:#92A931;}
	.st53{fill:#809A2C;}
	.st54{opacity:0.6;fill:#92A931;}
	.st55{opacity:0.6;fill:#618828;}
	.st56{opacity:0.25;fill:#E9D2A3;}
	.st57{fill:#E59055;}
	.st58{fill:#CE814D;}
	.st59{fill:#AF6C3E;}
	.st60{fill:#EFA16C;}
	.st61{fill:#FFBB8D;}
	.st62{fill:#E4C88B;}
	.st63{opacity:0.7;fill:#F8E3BA;}
	.st64{opacity:0.35;fill:#FFFFFF;}
	.st65{fill:#4D851D;}
	.st66{fill:#437A0F;}
	.st67{fill:#3B680B;}
	.st68{fill:#5B9324;}
	.st69{fill:#77B234;}
	.st70{fill:#E8EECB;}
	.st71{fill:#EFF4D4;}
	.st72{fill:#E3E8BF;}
	.st73{fill:#F9FFE1;}
	.st74{fill:#FCFFE9;}
	.st75{fill:#BF2C5A;}
	.st76{fill:#AF2859;}
	.st77{fill:#A3285A;}
	.st78{fill:#F3CEE4;}
	.st79{fill:#FFE3F7;}
	.st80{fill:#FFF8FD;}
	.st81{fill:#DBA9C9;}
	.st82{fill:#C9356A;}
	.st83{fill:#E0518B;}
	.st84{fill:#F96EA0;}
	.st85{fill:#A07A50;}
	.st86{fill:#BC916D;}
	.st87{fill:#936E4A;}
	.st88{fill:none;}
	.st89{fill:#E1AE4F;}
	.st90{fill:#D69F45;}
	.st91{fill:#C1873A;}
	.st92{fill:#E8B564;}
	.st93{fill:#F4C376;}
	.st94{fill:#AA7331;}
	.st95{fill:#839E39;}
	.st96{fill:#959F38;}
	.st97{fill:#8FAA44;}
	.st98{fill:#A8BF55;}
	.st99{fill:#708426;}
	.st100{fill:#FFCC73;}
	.st101{fill:#EDCC8C;}
	.st102{fill:#FFDDA1;}
	.st103{fill:#DDBB80;}
	.st104{fill:#FFE8C2;}
	.st105{fill:#CEA974;}
	.st106{fill:none;stroke:#E1AE4F;stroke-width:16;stroke-linecap:round;stroke-linejoin:round;stroke-miterlimit:10;}
	.st107{fill:none;stroke:#D69F45;stroke-width:16;stroke-linecap:round;stroke-linejoin:round;stroke-miterlimit:10;}
	.st108{fill:none;stroke:#F4C376;stroke-width:16;stroke-linecap:round;stroke-linejoin:round;stroke-miterlimit:10;}
	.st109{fill:none;stroke:#C1873A;stroke-width:5.6205;stroke-linecap:round;stroke-linejoin:round;stroke-miterlimit:10;}
	.st110{fill:none;stroke:#E1AE4F;stroke-width:5.6205;stroke-linecap:round;stroke-linejoin:round;stroke-miterlimit:10;}
	.st111{fill:none;stroke:#D69F45;stroke-width:5.6205;stroke-linecap:round;stroke-linejoin:round;stroke-miterlimit:10;}
	.st112{fill:none;stroke:#F4C376;stroke-width:5.6205;stroke-linecap:round;stroke-linejoin:round;stroke-miterlimit:10;}
	.st113{fill:none;stroke:#F4C376;stroke-width:5.2674;stroke-linecap:round;stroke-linejoin:round;stroke-miterlimit:10;}
	.st114{fill:none;stroke:#EDCC8C;stroke-width:5.8805;stroke-linecap:round;stroke-linejoin:round;stroke-miterlimit:10;}
	.st115{fill:none;stroke:#FFDDA1;stroke-width:5.8805;stroke-linecap:round;stroke-linejoin:round;stroke-miterlimit:10;}
	.st116{fill:none;stroke:#FFE8C2;stroke-width:5.8805;stroke-linecap:round;stroke-linejoin:round;stroke-miterlimit:10;}
	.st117{fill:none;stroke:#D1626B;stroke-width:5.2388;stroke-miterlimit:10;}
	.st118{fill:none;stroke:#D1626B;stroke-width:5.4518;stroke-miterlimit:10;}
	.st119{fill:none;stroke:#DD6A6E;stroke-width:5.2388;stroke-miterlimit:10;}
	.st120{fill:none;stroke:#AD4D58;stroke-width:5.0375;stroke-miterlimit:10;}
	.st121{fill:none;stroke:#D1626B;stroke-width:4.8407;stroke-miterlimit:10;}
	.st122{fill:none;stroke:#D1626B;stroke-width:5.0375;stroke-miterlimit:10;}
	.st123{fill:none;stroke:#DD6A6E;stroke-width:4.8407;stroke-miterlimit:10;}
</style>
<g>
	<path class="st33" d="M782.94,461.23l-1.23,0.42c-0.52,0.09-1.06,0.18-1.6,0.28c-26.11,5.08-49.05,15.49-73.66,24.97
		c-64.16,24.72-132.11,43.02-199.77,56.46c-37.12,7.38-74.71,11.5-111.53,20.42c-41.94,10.17-86.34,23.97-101.11,53.18
		c-1.05,2.1-3,6.02-4.19,11.26c-9.11-3.39-26.59-11.38-40.74-29.24c-4.49-5.68-14.26-18-16.48-34.45
		c-0.61-4.61-0.58-9.08-0.06-13.41c0-0.03,0-0.06,0.01-0.09c2.62-20.94,17.03-38.08,25.51-47.92c8.45-9.8,36.46-39.74,137.81-67.41
		c15.37-4.19,36.8-8.76,79.15-17.3c68.15-13.75,111.37-19.38,148.53-27.64c9.65-2.14,97.33-18.8,139.09,10.28
		c0.03,0.01,0.04,0.04,0.06,0.04C779.31,412.67,788.63,431.45,782.94,461.23z"/>
	<path class="st34" d="M762.67,401.06c-41.76-29.07-129.45-12.42-139.09-10.28c-37.16,8.25-80.38,13.89-148.53,27.64
		c-42.35,8.54-63.78,13.11-79.15,17.3c-101.35,27.67-129.36,57.61-137.81,67.41c-8.48,9.84-22.89,26.98-25.51,47.92
		c0.52-15.2,3.67-35.92,15.02-56.9c9.06-16.76,21.6-30.47,38.95-43.44c67.42-50.42,185.66-73.5,226.18-80.89
		c141.1-25.7,179.13-13.75,203.71-1.5C736.56,378.35,751.84,390.67,762.67,401.06z"/>
	<path class="st34" d="M326.8,471.17c0.13,2.22,1.97,5.26,4.5,5.02c2.33-0.22,4.09-3.11,3.55-5.09c-0.76-2.81-6.1-3.66-7.59-1.97
		C326.72,469.75,326.77,470.6,326.8,471.17z"/>
	<path class="st34" d="M648.69,447.9c-0.23-1.16-1.06-2.65-2.62-3.01c-1.78-0.42-3.17,0.93-3.36,1.12c-1.4,1.4-2.03,4.21-0.43,5.76
		c1.2,1.16,3.24,1.21,4.68,0.28C648.39,451.13,648.98,449.41,648.69,447.9z"/>
	<path class="st34" d="M647.22,435.02c-0.16-0.79-0.73-1.81-1.79-2.06c-1.21-0.28-2.17,0.64-2.3,0.77
		c-0.96,0.96-1.39,2.88-0.29,3.94c0.82,0.8,2.22,0.83,3.2,0.19C647.02,437.23,647.43,436.05,647.22,435.02z"/>
	<path class="st34" d="M665.54,438.68c-0.16-0.79-0.73-1.81-1.79-2.06c-1.21-0.28-2.17,0.64-2.3,0.77
		c-0.96,0.96-1.39,2.88-0.29,3.94c0.82,0.8,2.22,0.83,3.2,0.19C665.34,440.89,665.74,439.71,665.54,438.68z"/>
	<path class="st34" d="M320.64,478.09c-0.19-0.85-1.45-1.24-2.23-1.49c-3.41-1.07-6.67,0.52-13.79,4.59
		c-6.09,3.49-9.14,5.23-10.67,6.36c0,0-6.16,4.53-11.04,12.09c-0.43,0.67-1.13,1.81-0.81,2.15c0.55,0.59,3.75-1.53,5.11-2.43
		c10.29-6.81,15.43-10.21,18.64-12.16C314.63,481.91,321.09,480.14,320.64,478.09z"/>
	<path class="st38" d="M782.11,462.95c0.09,1.21-9.11,1.3-23.95,5.66c-16.79,4.94-30.19,11.1-47.15,18.32
		c-0.86,0.33-1.7,0.66-2.56,1c-2.57,1-5.16,1.98-7.74,2.95l-62.99,21.37c-11.02,3.39-22.13,6.6-33.27,9.65
		c-0.28,0.08-0.55,0.15-0.84,0.24c-34.33,9.17-61.18,15.17-72.8,17.69c-0.46,0.11-0.9,0.21-1.36,0.29
		c-1.06,0.22-1.96,0.41-2.68,0.57c-0.29,0.06-0.55,0.11-0.79,0.17c-2.3,0.48-4.51,0.95-6.67,1.4c-3.24,0.66-6.31,1.29-9.25,1.88
		c-0.46,0.1-0.91,0.18-1.37,0.28c-0.68,0.14-1.36,0.26-2.03,0.39c-15.56,3.04-31.2,5.55-46.83,8.09c-0.12,0.03-0.26,0.04-0.4,0.06
		c-18.23,2.7-31.97,4.55-62.28,11.88c-41.93,10.18-86.34,23.97-101.11,53.18c-1.04,2.1-2.99,6.03-4.19,11.27
		c-1.54-0.57-0.15-0.22-2.1-1.06c2.61-9.89,7.15-22.8,15.55-36.23c59.38-94.95,212.78-57.7,339.52-108.36
		c0,0,53.91-21.55,110.33-22.33C756.45,461.25,781.97,460.94,782.11,462.95z"/>
	<path class="st34" d="M799.58,608.25c-19.35,20.97-38.87,33.97-56.17,44.19c-21.12,12.48-104.72,59.63-237.42,71.15
		c-27.98,2.43-77.94,5.02-131.81-10.49c-13.77-3.97-38.06-12.06-59.92-32.95c-23.61-22.57-25.34-38.18-25.46-41.94
		c-0.12-3.86,0.33-7.38,1.05-10.46c1.2-5.24,3.15-9.17,4.19-11.26c14.77-29.21,59.17-43,101.11-53.18
		c55.39-13.42,55.45-8.48,128.82-23.97c7.5-1.59,43.87-9.33,91.37-22.47c4.61-1.27,8.79-2.43,12.63-3.49l0.03-0.02l75.75-25.72
		c27.14-11.35,44.32-20.28,76.36-26.2c0.54-0.1,1.08-0.19,1.6-0.28c22.5-4.03,36.74-3.48,47.83,4.78
		c12.01,8.94,15.28,23.2,16.48,28.46C857.59,545.09,810.57,596.34,799.58,608.25z"/>
	<path class="st37" d="M847.56,504.45c-6.51,6.72-16.1,16.55-27.78,28.28c-34.12,34.28-51.17,51.42-60.13,58.58
		c-35.07,28.05-61.8,17.15-133.57,32.8c-65.3,14.24-71.47,29.44-123.4,43.74c-44.46,12.24-110.47,20.52-200.45-1.15
		c3.46,4.51,7.9,9.46,13.58,14.8c2.06,1.94,4.15,3.76,6.25,5.49c0.36,0.29,0.72,0.58,1.08,0.87c19.94,16,40.59,22.63,52.87,26.04
		c31.67,8.81,61.94,11.4,87.2,11.49c0.83,0.01,1.65,0.01,2.46,0.01c0.79,0,1.55,0,2.31-0.01c14.96-0.06,27.91-0.94,38-1.83
		c132.71-11.52,216.3-58.67,237.41-71.14c17.3-10.22,36.83-23.22,56.18-44.2c9.94-10.76,49.32-53.67,48.24-99.26
		c0.01-0.07,0.01-0.14,0-0.21C847.77,507.35,847.7,505.91,847.56,504.45z"/>
	<path class="st37" d="M847.81,508.78c0.01,0.07,0.01,0.14,0,0.21c1.08,45.58-38.29,88.5-48.24,99.26
		c-19.35,20.98-38.88,33.98-56.18,44.2c-21.12,12.47-104.7,59.62-237.41,71.14c-10.1,0.89-23.04,1.77-38,1.83
		c-0.76,0.01-1.52,0.01-2.31,0.01c-0.82,0-1.63,0-2.46-0.01c-25.25-0.1-55.53-2.68-87.2-11.49c-12.28-3.42-32.93-10.04-52.87-26.04
		c-0.36-0.29-0.72-0.58-1.08-0.87c-2.1-1.73-4.19-3.55-6.25-5.49c-3.26-3.06-6.11-5.99-8.59-8.78
		c17.45,11.44,34.33,16.78,45.08,19.78c33.29,9.25,65.11,11.98,91.66,12.07c0.87,0.01,1.73,0.01,2.59,0.01c0.83,0,1.62,0,2.42-0.01
		c15.72-0.06,29.33-0.98,39.95-1.92c139.49-12.1,227.35-61.67,249.54-74.78c18.19-10.73,38.71-24.4,59.05-46.45
		c8.09-8.75,34.71-37.74,45.8-72.62c1.54-1.56,2.95-3.03,4.23-4.36C847.7,505.91,847.77,507.35,847.81,508.78z"/>
	<path class="st37" d="M772.88,647.52c-0.04-1.44-0.11-2.88-0.25-4.33c0.06-0.06,0.11-0.11,0.17-0.17
		C772.87,644.52,772.91,646.02,772.88,647.52z"/>
	<path class="st56" d="M405.78,584.01c-10.35,1.55-19.25,3.7-27.82,9.76c-5.1,3.61-15.14,10.88-16.03,22.45
		c-0.8,10.48,6.6,20.51,16.45,25.45c9.85,4.94,21.64,5.42,32.64,3.62c14.06-2.31,22.02-5.73,31.94-9.28
		c34.4-12.28,47.74-2.44,84.48-16.37c9.9-3.76,20.86-9,22.41-17.69c0.85-4.76-1.43-8.85-2.08-9.99
		c-4.78-8.33-15.81-11.06-24.67-12.47c-24.88-3.97-34.94,2.04-65.8,3.04C435.73,583.24,427.79,580.72,405.78,584.01z"/>
	<path class="st56" d="M682.56,560.94c3.6,2.33,7.98,3.13,12.26,3.44c9.24,0.67,18.5-0.7,27.67-2.06c5.16-0.77,10.4-1.56,15.12-3.78
		c5.3-2.49,9.62-6.63,13.84-10.7c4.95-4.77,10.32-10.71,9.24-17.5c-1.21-7.63-9.9-11.57-17.58-12.44
		C730.69,516.49,655.05,543.17,682.56,560.94z"/>
	<path class="st56" d="M555.93,563.44c-5.82,4.85-3.78,13.2-3.66,13.66c0.35,1.32,1.63,5.43,5.71,8.04
		c4.81,3.08,9.96,1.79,11.23,1.47c1.17-0.29,2.87-0.74,4.59-2.03c3.61-2.72,5.6-7.9,4.56-12.82c-1.47-7.01-8.27-9.57-9.3-9.93
		C567.68,561.34,561.02,559.19,555.93,563.44z"/>
</g>
</svg>
