<?xml version="1.0" encoding="utf-8"?>
<!-- Generator: Adobe Illustrator 28.0.0, SVG Export Plug-In . SVG Version: 6.00 Build 0)  -->
<svg version="1.1" id="Layer_1" xmlns="http://www.w3.org/2000/svg" xmlns:xlink="http://www.w3.org/1999/xlink" x="0px" y="0px"
	 viewBox="0 0 1080 1080" style="enable-background:new 0 0 1080 1080;" xml:space="preserve">
<style type="text/css">
	.st0{fill:none;stroke:#C1873A;stroke-width:16;stroke-linecap:round;stroke-linejoin:round;stroke-miterlimit:10;}
	.st1{fill:#E2D0E1;}
	.st2{fill:#EDE6EE;}
	.st3{fill:#DA9E53;}
	.st4{fill:#C98D4C;}
	.st5{fill:#DD6A6E;}
	.st6{fill:#D1626B;}
	.st7{fill:#F3EFF4;}
	.st8{fill:#C45C69;}
	.st9{fill:#FFB92E;}
	.st10{opacity:0.5;fill:#96A488;}
	.st11{fill:#F0F3EC;}
	.st12{fill:#E5E9E0;}
	.st13{fill:#B5CAD2;}
	.st14{fill:none;stroke:#009245;stroke-width:4;stroke-miterlimit:10;}
	.st15{fill:none;stroke:#009245;stroke-width:4;stroke-linecap:round;stroke-linejoin:round;stroke-miterlimit:10;}
	.st16{fill:none;stroke:#009245;stroke-width:4.1082;stroke-linecap:round;stroke-linejoin:round;stroke-miterlimit:10;}
	.st17{fill:none;stroke:#000000;stroke-width:1.9946;stroke-miterlimit:10;}
	.st18{fill:none;stroke:#000000;stroke-width:1.8919;stroke-miterlimit:10;}
	.st19{fill:none;stroke:#000000;stroke-width:1.924;stroke-miterlimit:10;}
	.st20{fill:none;stroke:#000000;stroke-width:1.924;stroke-linecap:round;stroke-linejoin:round;stroke-miterlimit:10;}
	.st21{fill:none;stroke:#000000;stroke-width:1.7309;stroke-linecap:round;stroke-linejoin:round;stroke-miterlimit:10;}
	.st22{fill:none;stroke:#000000;stroke-width:2;stroke-miterlimit:10;}
	.st23{fill:none;stroke:#000000;stroke-width:2;stroke-linecap:round;stroke-linejoin:round;stroke-miterlimit:10;}
	.st24{fill:#FFC257;}
	.st25{fill:#EDA229;}
	.st26{fill:#DD8E1B;}
	.st27{fill:#FFD085;}
	.st28{fill:none;stroke:#000000;stroke-width:3.4146;stroke-linecap:round;stroke-linejoin:round;stroke-miterlimit:10;}
	.st29{fill:none;stroke:#000000;stroke-width:1.8379;stroke-linecap:round;stroke-linejoin:round;stroke-miterlimit:10;}
	.st30{fill:none;stroke:#000000;stroke-linecap:round;stroke-linejoin:round;stroke-miterlimit:10;}
	.st31{fill:#D1D6CC;}
	.st32{fill:#F4DC98;}
	.st33{fill:#E9D2A3;}
	.st34{fill:#DAA765;}
	.st35{fill:#D09E62;}
	.st36{opacity:0.5;fill:#EDE1CA;}
	.st37{opacity:0.3;fill:#AF8056;}
	.st38{opacity:0.28;fill:#AF8056;}
	.st39{fill:#F3814A;}
	.st40{fill:#CF602F;}
	.st41{fill:#C35233;}
	.st42{fill:#F38A62;}
	.st43{opacity:0.2;fill:#FFFFFF;}
	.st44{opacity:0.37;fill:#DA7446;}
	.st45{opacity:0.1;fill:#FFFFFF;}
	.st46{opacity:0.08;fill:#FFFFFF;}
	.st47{opacity:0.3;fill:#997552;enable-background:new    ;}
	.st48{fill:#E5C98C;}
	.st49{opacity:0.6;fill:#F9E4BB;enable-background:new    ;}
	.st50{opacity:0.8;fill:#F9E4BB;enable-background:new    ;}
	.st51{fill:#618828;}
	.st52{fill:#92A931;}
	.st53{fill:#809A2C;}
	.st54{opacity:0.6;fill:#92A931;}
	.st55{opacity:0.6;fill:#618828;}
	.st56{opacity:0.25;fill:#E9D2A3;}
	.st57{fill:#E59055;}
	.st58{fill:#CE814D;}
	.st59{fill:#AF6C3E;}
	.st60{fill:#EFA16C;}
	.st61{fill:#FFBB8D;}
	.st62{fill:#E4C88B;}
	.st63{opacity:0.7;fill:#F8E3BA;}
	.st64{opacity:0.35;fill:#FFFFFF;}
	.st65{fill:#4D851D;}
	.st66{fill:#437A0F;}
	.st67{fill:#3B680B;}
	.st68{fill:#5B9324;}
	.st69{fill:#77B234;}
	.st70{fill:#E8EECB;}
	.st71{fill:#EFF4D4;}
	.st72{fill:#E3E8BF;}
	.st73{fill:#F9FFE1;}
	.st74{fill:#FCFFE9;}
	.st75{fill:#BF2C5A;}
	.st76{fill:#AF2859;}
	.st77{fill:#A3285A;}
	.st78{fill:#F3CEE4;}
	.st79{fill:#FFE3F7;}
	.st80{fill:#FFF8FD;}
	.st81{fill:#DBA9C9;}
	.st82{fill:#C9356A;}
	.st83{fill:#E0518B;}
	.st84{fill:#F96EA0;}
	.st85{fill:#A07A50;}
	.st86{fill:#BC916D;}
	.st87{fill:#936E4A;}
	.st88{fill:none;}
	.st89{fill:#E1AE4F;}
	.st90{fill:#D69F45;}
	.st91{fill:#C1873A;}
	.st92{fill:#E8B564;}
	.st93{fill:#F4C376;}
	.st94{fill:#AA7331;}
	.st95{fill:#839E39;}
	.st96{fill:#959F38;}
	.st97{fill:#8FAA44;}
	.st98{fill:#A8BF55;}
	.st99{fill:#708426;}
	.st100{fill:#FFCC73;}
	.st101{fill:#EDCC8C;}
	.st102{fill:#FFDDA1;}
	.st103{fill:#DDBB80;}
	.st104{fill:#FFE8C2;}
	.st105{fill:#CEA974;}
	.st106{fill:none;stroke:#E1AE4F;stroke-width:16;stroke-linecap:round;stroke-linejoin:round;stroke-miterlimit:10;}
	.st107{fill:none;stroke:#D69F45;stroke-width:16;stroke-linecap:round;stroke-linejoin:round;stroke-miterlimit:10;}
	.st108{fill:none;stroke:#F4C376;stroke-width:16;stroke-linecap:round;stroke-linejoin:round;stroke-miterlimit:10;}
	.st109{fill:none;stroke:#C1873A;stroke-width:5.6205;stroke-linecap:round;stroke-linejoin:round;stroke-miterlimit:10;}
	.st110{fill:none;stroke:#E1AE4F;stroke-width:5.6205;stroke-linecap:round;stroke-linejoin:round;stroke-miterlimit:10;}
	.st111{fill:none;stroke:#D69F45;stroke-width:5.6205;stroke-linecap:round;stroke-linejoin:round;stroke-miterlimit:10;}
	.st112{fill:none;stroke:#F4C376;stroke-width:5.6205;stroke-linecap:round;stroke-linejoin:round;stroke-miterlimit:10;}
	.st113{fill:none;stroke:#F4C376;stroke-width:5.2674;stroke-linecap:round;stroke-linejoin:round;stroke-miterlimit:10;}
	.st114{fill:none;stroke:#EDCC8C;stroke-width:5.8805;stroke-linecap:round;stroke-linejoin:round;stroke-miterlimit:10;}
	.st115{fill:none;stroke:#FFDDA1;stroke-width:5.8805;stroke-linecap:round;stroke-linejoin:round;stroke-miterlimit:10;}
	.st116{fill:none;stroke:#FFE8C2;stroke-width:5.8805;stroke-linecap:round;stroke-linejoin:round;stroke-miterlimit:10;}
	.st117{fill:none;stroke:#D1626B;stroke-width:5.2388;stroke-miterlimit:10;}
	.st118{fill:none;stroke:#D1626B;stroke-width:5.4518;stroke-miterlimit:10;}
	.st119{fill:none;stroke:#DD6A6E;stroke-width:5.2388;stroke-miterlimit:10;}
	.st120{fill:none;stroke:#AD4D58;stroke-width:5.0375;stroke-miterlimit:10;}
	.st121{fill:none;stroke:#D1626B;stroke-width:4.8407;stroke-miterlimit:10;}
	.st122{fill:none;stroke:#D1626B;stroke-width:5.0375;stroke-miterlimit:10;}
	.st123{fill:none;stroke:#DD6A6E;stroke-width:4.8407;stroke-miterlimit:10;}
</style>
<path class="st24" d="M693.52,279.73c0.01,0,0.02-0.01,0.03-0.02l-0.03,0.03V279.73z"/>
<g>
	<path class="st101" d="M751.41,647.12c-1.98,7.43-8.64,11.68-10.98,13.18c-24.26,15.78-46.81,34.04-70.97,49.99
		c-2.8,1.84-9,5.98-18.06,7.84c-6.66,1.37-12.02,0.92-14.38,0.7c-53.97-5.09-136.59-22.2-136.59-22.2
		c-10.02-2.07-0.73-0.03-54.63-10.24c-34.88-6.61-63.96-12.22-84.72-16.27c-2.54-0.51-4.85-1.84-6.62-3.74
		c-4.22-4.54-10.79-10.04-19.63-12.43c-7.65-2.07-11.32-0.27-12.16,0.15c-3.23,1.65-5,4.49-5.88,6.4c-0.53,1.15-1.75,1.81-3,1.6
		c-14.11-2.41-90.15-15.46-108.72-20.1c-2.78-0.7-9.17-2.53-13.69-8.13c-4.71-5.84-5-12.87-5.09-15.78
		c-2.03-72.27,1.71-99.02,1.71-99.02s8.67-62.1,27.32-102.44c1.86-4.05,4.78-9.3,9.8-14.36c6.68-6.73,13.81-9.75,17.52-11.25
		c23.51-9.51,48.52-13.8,80.24-22.2c12.31-3.26,25.06-4.42,37.56-6.83c3.48-0.67,10.41-2.01,18.78,0
		c6.04,1.47,10.26,4.06,11.95,5.12c9.85,6.2,67.78,48.91,147.46,108.86c2.36,1.78,1.93,5.55-0.85,6.52
		c-1.6,0.56-2.97,1.49-3.96,2.71c-2.39,2.99-2.03,7.24-0.94,9.95c3.89,9.63,22.81,14.09,29.02,6.83c0.46-0.53,1.76-2.2,2.13-5.48
		c0.27-2.44,3.18-3.57,5.07-2.03l49,39.54l37.34,30.13c2.49,2,2.94,5.46,1.37,8.25c0,0.02-0.02,0.03-0.03,0.05
		c-4.1,7.39,4.49,18.3,5.86,20.03c6.11,7.75,17.04,14.72,20.49,11.95c3.18-2.54-0.67-12.74-4.73-21.38
		c-0.85-1.83,1.33-3.57,2.92-2.3c2.66,2.12,5.28,4.17,7.8,6.18c11.87,9.37,22.21,17.53,30.71,24.12h0.02
		c11.13,8.67,19.07,14.65,23.03,17.28c1.69,1.13,6.81,4.37,8.54,10.24C752.57,642.56,751.69,646.06,751.41,647.12z"/>
	<path class="st102" d="M751.42,647.11c-1.98,7.43-8.64,11.68-10.98,13.18c-24.26,15.78-46.81,34.04-70.97,49.99
		c-2.45,1.62-7.51,4.99-14.82,7.04c-1.59-2.56-3.68-5.6-6.83-9.02c-6.42-6.99-12.46-10.39-18.01-13.78
		c-25.76-15.72-49.09-35.14-74.17-51.91c-31.37-20.99-58.31-39.36-68.87-46.62c-96.91-66.68-114.7-92.74-179.06-134.56
		c-8.82-5.74-21.77-15.48-47.68-34.97c-10.11-7.6-17.72-13.45-23.43-18.06c-5.26-4.24-4.34-12.54,1.73-15.49
		c1.69-0.82,3.16-1.43,4.3-1.9c23.51-9.51,48.52-13.79,80.24-22.19c12.31-3.26,25.07-4.42,37.57-6.83c3.48-0.67,10.41-2.02,18.78,0
		c6.04,1.47,10.26,4.06,11.95,5.12c9.85,6.2,67.78,48.92,147.46,108.86c2.35,1.77,1.93,5.55-0.86,6.52
		c-1.6,0.56-2.97,1.49-3.96,2.72c-2.39,2.98-2.03,7.23-0.94,9.95c3.9,9.63,22.81,14.08,29.03,6.83c0.46-0.53,1.76-2.2,2.13-5.48
		c0.28-2.44,3.18-3.57,5.07-2.03l49,39.54l37.34,30.13c2.5,2,2.94,5.47,1.37,8.25c0,0.02-0.02,0.03-0.04,0.05
		c-4.09,7.39,4.49,18.3,5.86,20.03c6.11,7.75,17.04,14.71,20.49,11.95c3.17-2.55-0.67-12.74-4.73-21.38
		c-0.85-1.82,1.33-3.57,2.92-2.3c2.66,2.11,5.27,4.16,7.8,6.18c11.87,9.37,22.21,17.53,30.72,24.12h0.01
		c11.13,8.68,19.07,14.65,23.03,17.28c1.69,1.13,6.82,4.37,8.54,10.24C752.58,642.55,751.69,646.05,751.42,647.11z"/>
	<path class="st103" d="M285.16,516.82c6.49-0.57,12.17-6.21,12.78-12.7c1.23-13.03-11.58-28.22-23.29-15.84
		C265.61,497.84,269.68,518.19,285.16,516.82z"/>
	<path class="st103" d="M395.99,427.48c-0.93,0.29-3.07,0.96-4.3,3.07c-1.5,2.57-0.52,5.32-0.33,5.8c0.7,1.84,1.99,2.84,3.35,3.87
		c4.94,3.73,10.34,3.74,11.83,3.72c2.45-0.03,4.68-0.09,6.26-1.74c1.34-1.41,1.49-3.2,1.51-3.56c0.13-2.16-1.02-3.74-1.92-4.93
		c-2.64-3.5-6.33-4.77-8.5-5.48C401.36,427.39,398.88,426.58,395.99,427.48z"/>
	<path class="st103" d="M356.61,459.74c-5.4,6.03-2.56,15.24-2.36,15.85c1.63,5.02,5.05,7.83,8.25,10.46
		c6.17,5.07,12.5,6.68,16.03,7.54c3.18,0.77,9.54,2.25,17.4,0.69c4.47-0.89,10.69-2.12,13.16-6.99c0.33-0.66,1.48-3.12,0.69-7.54
		c-2.17-12.13-15.91-22.25-29.01-24.9c-7.15-1.45-12.59-0.35-15.26,0.37C362.2,456.12,359.09,456.96,356.61,459.74z"/>
	<path class="st103" d="M376.16,621.63c-0.08,1.52-0.28,5.67,2.38,7.67c3.45,2.59,9.85,0.19,12.9-3.84
		c0.33-0.44,3.41-4.64,1.81-9.44c-0.12-0.36-1.78-5.12-5.88-5.86c-1.98-0.36-3.6,0.39-4.47,0.79
		C378.94,612.8,376.38,617.25,376.16,621.63z"/>
	<path class="st103" d="M294.52,560.98c-0.11,2.33-0.57,17.03,9.13,27.3c4.18,4.43,7.33,4.95,8.11,5.06c7.36,1,13.44-6.65,14.91-8.5
		c4.63-5.82,5.52-12.01,6.09-16.41c0.94-7.26,3.02-23.26-7.41-31.23c-4.65-3.56-12.14-5.78-18.53-3.18
		C295.53,538.63,294.77,555.39,294.52,560.98z"/>
	<path class="st103" d="M512.46,563.41c-1.86,1.82-1.64,5.01-1.06,6.88c1.72,5.59,8.91,6.74,9.79,6.88
		c0.66,0.11,7.07,1.13,8.73-1.85c1.6-2.86-2.05-7.86-5.56-10.32C521.21,562.78,515.3,560.62,512.46,563.41z"/>
	<path class="st103" d="M517.22,490.63c4.21,4.14,7.05,11.15,4.76,13.76c-1.1,1.25-3.29,1.41-4.76,1.06
		c-2.59-0.61-2.59-2.67-5.82-5.03c-2.25-1.63-2.66-0.94-7.5-3.42c-4.7-2.41-5.28-3.56-5.46-3.99c-0.91-2.1-0.33-5.1,1.33-6.67
		C503.3,483,512.17,485.66,517.22,490.63z"/>
	<path class="st103" d="M618.58,603.64c1.1-0.14,2.92-0.41,4.35-1.87c1.44-1.47,1.66-3.32,1.73-3.95c0.59-5.37-5.05-9.52-5.73-10.01
		c-1.17-0.84-3.1-2.19-5.91-2.43c-2.66-0.23-7.2,0.45-8.91,3.8c-1.55,3.05,0.17,6.51,0.7,7.58
		C607.53,602.19,614.07,604.23,618.58,603.64z"/>
	<path class="st103" d="M609.83,629.77c0.17,2.43,1.41,4.65,2.04,7c0.99,3.66,0.57,7.76,2.54,11c2.13,3.5,6.42,4.95,10.42,5.83
		c3.27,0.72,8.42,1.86,12.11-0.96c5.16-3.95,4.31-13.29,1.54-19c-1.79-3.68-4.36-5.83-5.51-6.7c-7.58-5.72-19.49-5.5-22.25-0.92
		C609.93,627.33,609.78,629.02,609.83,629.77z"/>
	<path class="st104" d="M409.01,430.53c-0.56-0.21-1.07-0.38-1.51-0.52c-2.53-0.83-5.01-1.65-7.9-0.74
		c-0.93,0.29-3.07,0.96-4.3,3.07c-1.5,2.57-0.52,5.32-0.33,5.8c0.7,1.84,1.98,2.84,3.34,3.86c0.33,0.25,0.66,0.48,0.99,0.69
		c-1.5-0.54-3.09-1.34-4.63-2.5c-1.36-1.03-2.64-2.03-3.34-3.87c-0.19-0.48-1.17-3.23,0.33-5.8c1.23-2.11,3.37-2.78,4.3-3.07
		c2.89-0.91,5.37-0.09,7.9,0.74C405.19,428.63,407.11,429.28,409.01,430.53z"/>
	<path class="st104" d="M393.06,459.45c-2.84-1.27-5.78-2.22-8.68-2.81c-7.15-1.45-12.59-0.36-15.26,0.36
		c-3.31,0.9-6.42,1.75-8.9,4.53c-5.4,6.03-2.56,15.24-2.36,15.85c1.63,5.02,5.05,7.83,8.25,10.46c1.55,1.27,3.1,2.32,4.61,3.2
		c-2.6-1.12-5.44-2.71-8.25-5.02c-3.2-2.63-6.62-5.44-8.25-10.46c-0.2-0.61-3.04-9.82,2.36-15.85c2.48-2.78,5.59-3.63,8.91-4.53
		c2.66-0.72,8.11-1.81,15.25-0.36C384.91,455.66,389.15,457.26,393.06,459.45z"/>
	<path class="st104" d="M516.07,565.19c-1.86,1.83-1.64,5.01-1.06,6.88c0.59,1.92,1.83,3.32,3.24,4.33
		c-2.49-0.84-5.79-2.6-6.88-6.15c-0.58-1.87-0.8-5.05,1.06-6.88c2.73-2.67,8.31-0.78,11.54,1.35
		C521.11,563.67,517.93,563.37,516.07,565.19z"/>
	<path class="st104" d="M503.37,488.13c-1.66,1.57-2.24,4.56-1.33,6.67c0.17,0.38,0.62,1.3,3.88,3.14
		c-0.58-0.25-1.26-0.57-2.05-0.98c-4.7-2.4-5.28-3.55-5.47-3.98c-0.91-2.11-0.33-5.1,1.33-6.67c2.81-2.66,8.99-1.52,13.94,1.55
		C509.64,486.28,505.52,486.09,503.37,488.13z"/>
	<path class="st104" d="M618.55,587.51c-0.59-0.16-1.23-0.29-1.92-0.35c-2.66-0.23-7.2,0.45-8.9,3.8c-1.56,3.06,0.17,6.51,0.7,7.58
		c0.91,1.83,2.26,3.27,3.81,4.36c-3.01-1.01-5.88-3.03-7.45-6.18c-0.53-1.07-2.26-4.52-0.7-7.58c1.7-3.35,6.24-4.03,8.91-3.8
		C615.54,585.56,617.35,586.67,618.55,587.51z"/>
	<path class="st104" d="M614.32,627.81c-0.78,1.3-0.93,2.99-0.88,3.74c0.17,2.44,1.41,4.65,2.04,7.01c0.99,3.65,0.57,7.76,2.54,11
		c0.71,1.17,1.66,2.12,2.77,2.88c-2.61-0.95-4.99-2.37-6.41-4.7c-1.97-3.24-1.55-7.34-2.54-11c-0.63-2.36-1.87-4.57-2.04-7.01
		c-0.05-0.75,0.1-2.44,0.88-3.74c2.6-4.33,13.36-4.76,20.93,0.01C624.59,623.27,616.53,624.14,614.32,627.81z"/>
	<path class="st105" d="M414.3,438.63c-0.02,0.37-0.17,2.16-1.51,3.57c-1.58,1.65-3.8,1.71-6.26,1.74c-1.48,0.02-6.89,0-11.83-3.72
		c-0.03-0.03-0.07-0.05-0.1-0.07c4.09,2.08,7.97,2.09,9.2,2.07c2.45-0.03,4.68-0.08,6.26-1.74c1.34-1.41,1.48-3.2,1.51-3.56
		c0.13-2.16-1.03-3.75-1.92-4.94c-0.74-0.98-1.56-1.78-2.41-2.44c1.73,0.85,3.62,2.13,5.14,4.16
		C413.28,434.89,414.43,436.47,414.3,438.63z"/>
	<path class="st105" d="M409.09,487.29c-2.46,4.87-8.68,6.11-13.15,6.99c-7.87,1.56-14.22,0.09-17.41-0.68
		c-3.12-0.76-8.43-2.11-13.88-5.91c4.45,2.52,8.55,3.56,11.15,4.19c3.18,0.77,9.54,2.24,17.4,0.68c4.47-0.88,10.69-2.12,13.16-6.98
		c0.33-0.67,1.47-3.12,0.68-7.54c-1.28-7.16-6.59-13.62-13.42-18.25c8.11,4.68,14.71,11.88,16.16,19.97
		C410.57,484.17,409.43,486.63,409.09,487.29z"/>
	<path class="st105" d="M529.92,575.31c-1.66,2.99-8.07,1.96-8.73,1.86c-0.63-0.11-4.45-0.72-7.22-3.08
		c2.09,0.98,4.05,1.29,4.48,1.36c0.66,0.1,7.07,1.13,8.74-1.85c1.49-2.69-1.6-7.23-4.88-9.83c0.76,0.39,1.46,0.8,2.06,1.22
		C527.87,567.45,531.52,572.45,529.92,575.31z"/>
	<path class="st105" d="M521.98,504.39c-1.09,1.25-3.29,1.4-4.76,1.06c-1.2-0.28-1.84-0.88-2.51-1.67c1.47,0.27,3.5,0.08,4.54-1.11
		c2.29-2.61-0.56-9.62-4.77-13.76c-0.64-0.62-1.33-1.21-2.07-1.75c1.77,0.93,3.43,2.11,4.81,3.47
		C521.43,494.77,524.27,501.77,521.98,504.39z"/>
	<path class="st105" d="M624.67,597.81c-0.07,0.63-0.3,2.48-1.74,3.95c-1.43,1.46-3.25,1.73-4.35,1.87
		c-3.25,0.43-7.56-0.51-10.72-3.1c2.65,1.28,5.6,1.7,7.99,1.38c1.09-0.14,2.92-0.41,4.35-1.87c1.43-1.47,1.66-3.32,1.73-3.95
		c0.53-4.82-3.94-8.65-5.37-9.74c1,0.47,1.78,1.02,2.38,1.45C619.62,588.29,625.26,592.44,624.67,597.81z"/>
	<path class="st105" d="M636.93,652.64c-3.68,2.82-8.83,1.68-12.11,0.96c-3-0.66-6.15-1.64-8.45-3.56c1.79,0.86,3.79,1.41,5.72,1.84
		c3.27,0.72,8.42,1.86,12.11-0.96c5.15-3.95,4.31-13.29,1.53-19c-1.78-3.67-4.35-5.83-5.49-6.69c0.95,0.49,1.86,1.06,2.72,1.71
		c1.15,0.86,3.72,3.01,5.51,6.7C641.25,639.35,642.09,648.68,636.93,652.64z"/>
	<path class="st103" d="M496.84,644.66c-1.03,1.15-2.65,2.99-3.61,5.91c-0.27,0.84-2.02,7.65,2.14,13.96
		c2.66,4.03,7.74,6.6,12.45,5.53c3.02-0.69,5.57-2.73,7.69-4.99c0.68-0.72,1.34-1.51,1.61-2.46c0.25-0.88,0.14-1.77-0.18-2.62
		c-0.72-1.94-0.36-4.07,0.97-5.65c1.81-2.15,2.73-4.88,2.45-7.63c-0.46-4.6-4.13-7.58-7.11-8.66
		C505.56,635.25,497.93,643.45,496.84,644.66z"/>
	<g>
		<path class="st103" d="M357.28,667.01c-0.03,0.5-0.26,0.94-0.62,1.23l-2.76-2.47c-4.23-4.42-10.6-9.54-19.06-11.82
			c-7.65-2.07-11.32-0.28-12.15,0.15c-2.94,1.5-4.68,3.99-5.63,5.87c-0.1,0.18-0.18,0.36-0.26,0.53c-0.52,1.12-1.69,1.78-2.91,1.61
			v-0.01c-1.98-11.68,3.93-23.02,14.03-26.97c6.36-2.49,13.96-1.58,19.35,2.32c6.37,4.61,7.78,11.95,9.15,19.06
			C357.37,661.47,357.39,664.49,357.28,667.01z"/>
		<path class="st103" d="M356.66,668.24c-0.79-0.53-1.52-1.16-2.18-1.86c-0.19-0.2-0.38-0.4-0.58-0.61L356.66,668.24z"/>
		<path class="st103" d="M356.66,668.24c-0.79-0.53-1.52-1.16-2.18-1.86c-0.19-0.2-0.38-0.4-0.58-0.61L356.66,668.24z"/>
	</g>
	<g>
		<path class="st105" d="M357.28,667c-0.03,0.5-0.26,0.94-0.62,1.23l-2.76-2.47c-2.02-2.11-4.52-4.37-7.51-6.41
			c-0.14-1.34-0.36-2.86-0.7-4.62c-1.37-7.11-2.78-14.45-9.15-19.06c-0.99-0.72-2.05-1.33-3.17-1.84c4.92-0.47,9.99,0.78,13.9,3.61
			c6.37,4.61,7.78,11.95,9.15,19.06C357.37,661.46,357.39,664.48,357.28,667z"/>
		<path class="st105" d="M356.65,668.24c-0.79-0.53-1.52-1.16-2.18-1.86c-0.19-0.2-0.38-0.4-0.58-0.61L356.65,668.24z"/>
		<path class="st105" d="M356.65,668.24c-0.79-0.53-1.52-1.16-2.18-1.86c-0.19-0.2-0.38-0.4-0.58-0.61L356.65,668.24z"/>
	</g>
	<path class="st103" d="M488.67,585.56c1.81-1.86,5.3-5.43,4.9-9.55c-0.14-1.44-0.69-2.49-1.01-3.01c-4.73-7.5-18.46-7.41-19.12-7.4
		c-1.53,0.03-10.73,0.32-18.91,6.58c-15.27,11.69-21.33,39.84-9.25,51.6c7.49,7.29,22.56,8.54,29.81,2.06
		c5.04-4.52,6.05-12.58,6.13-13.32c0.6-5.31-0.85-10.31,0.65-17.31c0.28-1.28,0.73-2.98,1.87-4.8
		C485.22,588.05,486.25,588.05,488.67,585.56z"/>
	<path class="st105" d="M297.94,504.13c-0.61,6.48-6.29,12.12-12.78,12.69c-5.2,0.46-9.11-1.53-11.67-4.74
		c2.35,1.67,5.37,2.55,9.02,2.23c6.49-0.57,12.17-6.21,12.78-12.69c0.53-5.57-1.51-11.54-4.94-15.57
		C295.32,489.75,298.59,497.24,297.94,504.13z"/>
	<path class="st105" d="M391.44,625.46c-3.04,4.03-9.45,6.43-12.89,3.84c-0.68-0.51-1.18-1.17-1.53-1.88
		c3.57,1.46,9.03-0.84,11.77-4.46c0.34-0.44,3.41-4.65,1.82-9.45c-0.06-0.18-0.48-1.39-1.37-2.68c2.75,1.54,3.91,4.89,4.02,5.19
		C394.85,620.82,391.78,625.03,391.44,625.46z"/>
	<path class="st105" d="M332.76,568.43c-0.57,4.4-1.45,10.59-6.08,16.41c-1.48,1.85-7.56,9.5-14.92,8.5
		c-0.77-0.11-3.93-0.63-8.11-5.06c-0.07-0.08-0.15-0.16-0.22-0.24c2.94,2.36,5.07,2.71,5.68,2.79c7.36,1,13.45-6.65,14.92-8.49
		c4.63-5.83,5.51-12.02,6.08-16.41c0.86-6.55,2.62-20.2-4.68-28.66C335.77,545.26,333.7,561.2,332.76,568.43z"/>
	<path class="st105" d="M517.91,654.33c-1.33,1.58-1.69,3.71-0.97,5.65c0.32,0.85,0.43,1.73,0.18,2.62
		c-0.27,0.95-0.94,1.74-1.61,2.46c-2.12,2.26-4.67,4.3-7.69,4.99c-4.34,0.99-8.99-1.11-11.77-4.6c2.64,1.9,5.97,2.81,9.12,2.09
		c3.02-0.69,5.57-2.72,7.69-4.99c0.67-0.72,1.34-1.51,1.61-2.46c0.25-0.88,0.14-1.77-0.18-2.62c-0.72-1.94-0.36-4.07,0.97-5.65
		c1.81-2.15,2.73-4.89,2.46-7.63c-0.19-1.89-0.92-3.5-1.92-4.82c2.22,1.52,4.23,4,4.56,7.33
		C520.64,649.44,519.72,652.18,517.91,654.33z"/>
	<path class="st105" d="M488.67,585.56c-2.42,2.48-3.45,2.48-4.94,4.85c-1.14,1.81-1.59,3.51-1.87,4.8c-1.5,7-0.05,12-0.65,17.31
		c-0.08,0.73-1.09,8.8-6.13,13.31c-7.24,6.49-22.32,5.24-29.81-2.05c-0.38-0.37-0.75-0.76-1.09-1.17
		c7.86,6.08,21.48,6.78,28.25,0.72c5.05-4.52,6.05-12.58,6.13-13.32c0.6-5.31-0.85-10.31,0.66-17.31c0.27-1.29,0.73-2.99,1.87-4.8
		c1.48-2.36,2.51-2.36,4.93-4.85c1.82-1.86,5.3-5.43,4.9-9.55c-0.14-1.44-0.69-2.49-1.01-3c-0.17-0.27-0.35-0.53-0.55-0.78
		c1.26,0.89,2.36,1.97,3.19,3.28c0.33,0.52,0.88,1.57,1.02,3.01C493.97,580.13,490.48,583.7,488.67,585.56z"/>
	<path class="st104" d="M297.32,497.05c-4.29-7.41-12.57-11.36-20.35-3.14c-4.21,4.45-5.58,11.24-4.27,17.09
		c-4.23-6.46-3.73-16.71,1.95-22.71C284.25,478.14,294.59,486.52,297.32,497.05z"/>
	<path class="st104" d="M393.68,618.28c-0.92-1.13-2.23-2.18-3.98-2.5c-1.98-0.35-3.6,0.4-4.47,0.8c-3.97,1.84-6.53,6.29-6.75,10.67
		c-0.02,0.47-0.06,1.18-0.01,2c-2.59-2.02-2.39-6.1-2.31-7.62c0.22-4.38,2.77-8.83,6.75-10.67c0.87-0.41,2.48-1.16,4.47-0.8
		c4.09,0.74,5.75,5.5,5.87,5.86C393.51,616.79,393.65,617.55,393.68,618.28z"/>
	<path class="st104" d="M332.4,548.21c-1.18-2.01-2.72-3.84-4.73-5.38c-4.65-3.56-12.13-5.78-18.52-3.17
		c-11.3,4.59-12.06,21.35-12.31,26.94c-0.07,1.46-0.27,7.8,1.98,14.85c-4.69-9.02-4.39-18.62-4.3-20.47
		c0.25-5.59,1.01-22.35,12.3-26.95c6.39-2.6,13.87-0.38,18.53,3.18C329.12,540.09,331.26,544.02,332.4,548.21z"/>
	<path class="st104" d="M520.39,647.04c-1.39-1.65-3.2-2.8-4.82-3.38c-7.69-2.78-15.32,5.41-16.41,6.62
		c-1.02,1.14-2.65,2.99-3.61,5.91c-0.19,0.59-1.1,4.09-0.2,8.3c-4.13-6.3-2.4-13.08-2.12-13.92c0.96-2.92,2.58-4.77,3.61-5.91
		c1.09-1.21,8.72-9.4,16.41-6.62c2.98,1.08,6.65,4.06,7.11,8.66C520.37,646.81,520.38,646.93,520.39,647.04z"/>
	<g>
		<path class="st104" d="M354.64,648.74c-1.22-2.14-2.83-4.06-5.05-5.67c-5.39-3.9-12.99-4.81-19.35-2.32
			c-8.31,3.25-13.79,11.51-14.35,20.85c-0.56,0.41-1.28,0.61-2.01,0.51v-0.01c-1.98-11.68,3.93-23.02,14.03-26.97
			c6.36-2.49,13.96-1.58,19.35,2.32C351.29,640.37,353.34,644.38,354.64,648.74z"/>
	</g>
	<path class="st104" d="M493.56,576.02c0,0.29-0.03,0.57-0.09,0.85c-5.57-5.73-17.11-5.65-17.71-5.64
		c-1.53,0.03-10.73,0.32-18.92,6.58c-11.99,9.18-18.29,28.5-14.6,42.07c-7.77-13.22-1.49-37.15,12.28-47.69
		c8.18-6.27,17.38-6.55,18.91-6.58c0.66-0.01,14.39-0.1,19.12,7.4C493.36,574.29,493.56,575.25,493.56,576.02z"/>
	<path class="st102" d="M763.07,572.79c0.05,23.94-3.77,24.74,0,32.08l-43.23,6.18h-0.02c-8.5-6.59-18.85-14.75-30.71-24.12
		c-2.53-2.01-5.14-4.06-7.8-6.18c-1.59-1.26-3.77,0.48-2.92,2.3c4.06,8.64,7.9,18.83,4.73,21.38c-3.45,2.77-14.38-4.2-20.49-11.95
		c-1.37-1.72-9.95-12.63-5.86-20.03c0.02-0.02,0.03-0.03,0.03-0.05c1.57-2.78,1.13-6.25-1.37-8.25l-37.34-30.13
		c-0.05-0.36-0.1-0.73-0.15-1.09c-0.92-7.12-1.4-13.15-1.66-17.69c-0.48-8.59-0.17-11.11,1.25-13.57c2.24-3.89,6.15-5.63,11.1-7.39
		c10.45-3.72,16.83-4.44,27.13-6.57c19.94-4.15,29.2-6.59,29.2-6.59c4.37-1.14,8.28-2.25,13.56-1.64c6.61,0.77,11.66,3.81,14.8,6.16
		c0.44,0.22,0.87,0.44,1.31,0.68c0.24,0.58,0.5,1.18,0.75,1.79c1.71,4.17,1.02,2.82,9.03,23.42c0.84,2.17,2.56,6.49,6.18,11.11
		c1.62,2.08,2.87,3.64,4.7,4.76c0.32,0.2,0.68,0.41,1.06,0.58c3.57,1.66,6.76,0.79,11.92,0c4.9-0.75,9.89-0.61,14.8-1.25
		c0.2-0.02,0.41-0.05,0.63-0.07C763.24,542.34,763.02,552.49,763.07,572.79z"/>
	<path class="st101" d="M763.44,556.02c-0.03,4.9-0.05,10.33-0.03,16.78c0.06,23.94-3.77,24.74,0,32.08l-43.23,6.18h-0.01
		c-0.82-0.64-1.66-1.29-2.51-1.96c-4.82-3.75-10.19-7.96-16.04-12.56c-0.34-6.32-0.68-12.64-1.01-18.96
		c-0.48-9.02-0.96-18.03-1.44-27.05c-0.24-4.56-0.41-9.13-0.73-13.68c-0.17-2.57-0.34-4.76,0.97-6.69c1.95-2.85,5.91-3.24,7.31-3.41
		c6.1-0.73,13.9-3.31,22.4-6.63c0.54,0.83,1.15,1.68,1.82,2.54c1.62,2.08,2.87,3.64,4.7,4.76c0.32,0.21,0.68,0.41,1.05,0.58
		c3.57,1.66,6.77,0.79,11.92,0c4.9-0.75,9.89-0.61,14.8-1.24c0.21-0.02,0.41-0.05,0.64-0.07
		C763.73,537.37,763.52,545.49,763.44,556.02z"/>
	<line class="st28" x1="701.4" y1="519.77" x2="719.63" y2="515.66"/>
	<path class="st103" d="M730.59,550.19c-6.15,2.42-8.91,7.82-10.81,11.54c-1.09,2.14-2.39,5.57-2.76,10.25
		c-1.23,15.62,19.73,18.91,28.78,4.93c4.78-7.38,7.78-18.68,1.41-24.63C742.64,548,735.32,548.33,730.59,550.19z"/>
	<path class="st103" d="M721.14,542.38c-2.82-0.21-5.66-2.47-6.3-5.34c-0.43-1.91,0.09-4.13,1.14-5.7c0.1-0.15,0.18-0.26,0.23-0.33
		c1.57-2.15,5.86-4.68,9.5-3c1.73,0.8,3.22,2.5,3.65,4.5C730.34,537,725.98,542.74,721.14,542.38z"/>
	<path class="st105" d="M743.48,579.88c-9.87,10.42-27.58,6.5-26.45-7.9c0.37-4.68,1.67-8.11,2.76-10.25
		c1.51-2.95,3.56-6.96,7.41-9.69c-2.26,2.41-3.68,5.2-4.8,7.4c-1.1,2.14-2.4,5.57-2.76,10.25
		C718.59,582.89,733.41,587.29,743.48,579.88z"/>
	<path class="st105" d="M727.51,539.16c-1.57,2.01-3.91,3.4-6.37,3.22c-2.82-0.21-5.66-2.47-6.3-5.35c-0.43-1.9,0.09-4.13,1.14-5.7
		c0.1-0.15,0.18-0.26,0.23-0.33c0.56-0.77,1.46-1.58,2.56-2.23c-0.05,0.07-0.12,0.16-0.19,0.27c-1.05,1.57-1.57,3.79-1.14,5.7
		c0.65,2.87,3.49,5.14,6.31,5.34C725.07,540.18,726.36,539.82,727.51,539.16z"/>
	<path class="st24" d="M777.88,477.01c-1.08-2.59-5.55-2.8-6.66-2.85c-1.3-0.07-7.03-0.34-9.2,3.74c-2.02,3.79,0.03,9.48,3.5,10.6
		c2.93,0.96,5.96-1.65,7.83-3.27C774.31,484.39,779.19,480.17,777.88,477.01z M777.88,477.01c-1.08-2.59-5.55-2.8-6.66-2.85
		c-1.3-0.07-7.03-0.34-9.2,3.74c-2.02,3.79,0.03,9.48,3.5,10.6c2.93,0.96,5.96-1.65,7.83-3.27
		C774.31,484.39,779.19,480.17,777.88,477.01z"/>
	<path class="st104" d="M862.97,443.7c-2.95-10.68-5.87-17.62-9.85-27.53c-3.19-7.94-4.23-9.62-6.18-11.1
		c-4.05-3.11-10.53-0.48-23.43-0.43c-8.62,0.04-13.57-0.58-22.21-0.82c-13.89-0.37-15.29-0.44-18.08,0.41
		c-6.18,1.91-8.16,4.95-17.26,13.16c-4.01,3.62-15.13,13.59-28.78,22.61c-5.52,3.65-10.88,7.53-16.45,11.11
		c-8.02,5.14-11.78,7.17-12.75,11.51c-0.22,0.99-0.61,3.02,2.07,11.51c1.6,5.14,3.02,8.42,4.59,12.19c0.24,0.58,0.49,1.18,0.75,1.79
		c1.71,4.17,1.03,2.82,9.03,23.43c0.84,2.16,2.56,6.48,6.18,11.11c1.62,2.08,2.87,3.64,4.7,4.76c0.32,0.21,0.68,0.41,1.06,0.58
		c3.56,1.66,6.76,0.79,11.91,0c4.9-0.75,9.89-0.61,14.81-1.24c0.2-0.02,0.41-0.05,0.63-0.07c0.05-2.19,0.12-4.47,0.19-6.91
		c0.12-3.78,0.49-8.15,3.48-10.1c0.99-0.65,1.94-0.81,3.2-0.81c0.74,0,1.49-0.21,2.28-0.04c9.56-1.14,29.67-3.57,48.11-5.91
		c6.81-4.83,12.53-8.55,16.53-11.09c6.81-4.36,13.08-9.62,20.13-13.58c1.41-0.8,5.29-3.22,8.65-7.71c0.29-0.4,0.55-0.81,0.81-1.32
		C868.18,467.04,867.79,461.07,862.97,443.7z M773.35,485.23c-1.87,1.62-4.9,4.23-7.83,3.27c-3.47-1.12-5.52-6.81-3.5-10.6
		c2.17-4.08,7.9-3.81,9.2-3.74c1.11,0.05,5.58,0.26,6.66,2.85C779.19,480.17,774.31,484.39,773.35,485.23z"/>
	<path class="st104" d="M893.48,568.97c0.02-1.81-0.96-3.49-2.45-4.51c-1.66-1.13-2.79-2.35-3.58-3.42
		c-5.57-7.54-3.51-20.6,5.12-32.63c0,0,3.3-3.7,0.82-9.05c-1.84-4.01-15.56-11.63-20.75-16.03c-1.95-1.64-7.32-4.76-9.84-5
		c-4.75-0.44-7.17-0.15-16.82,1.25c-6.88,0.99-15.72,2.15-25.01,3.35c-18.44,2.34-38.56,4.03-48.08,5.46c-1.09,0.16-3.63,0.3-5,0.74
		c4.76,2.66,11.41,4.19,14.11,5.58c0.92,0.48,3.86,2.1,9.58,5.24c0.6,0.32,1.25,0.68,1.93,1.06c3.94,2.19,6.32,3.52,8.02,6.39
		c1.11,1.88,1.64,3.93,1.84,4.71c0.65,2.6,0.63,4.73,0.61,6.59c-0.02,1.88-0.17,2.54-0.41,5.14c-0.15,1.76-0.34,4.32-0.41,7.46
		c2.58,0.36,4.4,1.21,4.73,1.37c11.71,5.65,11.78,25.01,10.35,34.32c-0.58,3.72-2.22,13.54-10.14,20.49
		c-1.86,1.64-4.85,4.29-8.47,4.8c-0.15,3.7-0.27,6.83-0.38,9.07c-0.12,2.73-0.38,9.89-3.31,10.76c0,0,75.06-7.47,82.45-7.47
		c4.15,0,7.37-1.19,9.63-3.31c1.18-1.11,3.45-2.89,3.53-6.56C891.76,605.48,893.16,593.36,893.48,568.97z M844.89,607.74
		c-3.67,4.56-11.66,6.9-15.13,3.5c-2.75-2.7-1.84-8.28-0.07-11.59c0.39-0.73,1.37-2.39,3.26-3.84c2.87-2.2,8.25-4.22,11.7-1.64
		c2.17,1.64,2.56,4.39,2.7,5.36C847.94,603.66,845.6,606.86,844.89,607.74z"/>
	<path class="st101" d="M803.98,538.68c-0.02,1.88-0.17,2.54-0.41,5.14c-0.15,1.76-0.34,4.32-0.41,7.46
		c-1.95-0.27-4.32-0.26-6.8,0.55c-12.07,3.94-14.55,23.07-14.38,32.08c0.05,3.14,0.51,10.23,4.52,17.67
		c2.25,4.22,5.33,9.94,10.69,10.69c0.84,0.12,1.64,0.1,2.42-0.02c-0.15,3.7-0.27,6.83-0.38,9.07c-0.12,2.73-0.38,9.89-3.31,10.76
		c-1.86,0.55-3.98-1.62-4.92-2.54c-13.23-13.18-22.5-14.03-27.95-24.65c-3.77-7.34,0.05-8.14,0-32.08
		c-0.05-20.3,0.17-30.46,0.63-46.11c0.05-2.19,0.12-4.47,0.19-6.91c0.12-3.77,0.31-8.33,3.3-10.28c0.01-0.01,0.02-0.01,0.03-0.02
		c1.48-0.95,3.39-0.89,4.93-0.04c4.07,2.25,7.44,4.04,9.84,5.27c0.92,0.48,3.86,2.1,9.58,5.24c0.6,0.32,1.25,0.68,1.93,1.06
		c3.94,2.19,6.32,3.52,8.02,6.39c1.11,1.88,1.64,3.93,1.84,4.71C804.01,534.69,804,536.82,803.98,538.68z"/>
	<path class="st102" d="M805.3,454.9c-4.36-8.87-9.05-17.73-11.06-27.4c-1.04-5-1.5-10.51-4.93-14.29
		c-1.04-1.15-2.32-2.09-3.12-3.42c-1.03-1.72-1.28-4.07-2.14-5.81c-0.29,0.07-0.58,0.16-0.89,0.25c-6.18,1.91-8.16,4.95-17.26,13.16
		c-2.42,2.19-7.45,6.7-14.06,11.92c-4.32,3.41-9.32,7.12-14.72,10.69c-5.52,3.65-10.88,7.53-16.45,11.11
		c-0.9,0.58-1.75,1.12-2.55,1.63c-6.28,4-9.34,6.03-10.2,9.88c-0.22,0.99-0.61,3.02,2.07,11.51c1.6,5.14,3.02,8.42,4.59,12.19
		c0.24,0.58,0.49,1.18,0.75,1.79c1.71,4.17,1.03,2.82,9.03,23.43c0.84,2.16,2.56,6.48,6.18,11.11c0.52,0.67,1,1.28,1.48,1.84
		c2.76-0.43,5.47-1.2,7.87-2.59c3.12-1.8,5.56-4.55,8.27-6.93c3.73-3.29,7.98-5.91,12.21-8.52c14.83-9.13,29.66-18.26,44.49-27.39
		c1.43-0.88,2.89-1.79,3.83-3.18c0.86-1.27,1.2-2.84,1.3-4.38C810.4,465.69,807.87,460.12,805.3,454.9z M773.29,485.23
		c-1.87,1.62-4.9,4.23-7.83,3.27c-3.47-1.12-5.52-6.81-3.5-10.6c2.17-4.08,7.9-3.81,9.2-3.74c1.11,0.05,5.58,0.26,6.66,2.85
		C779.13,480.17,774.25,484.39,773.29,485.23z"/>
	<path class="st102" d="M809.51,462.71c-1.07-0.27-2.18-0.22-3.23,0.08c-1.91,0.54-4.48,0.9-7.22,0.18
		c-8.73-2.29-11.31-13.45-12.13-16.34c-1.89-6.6,1.74-16.33,3.56-20.54c0.6-1.4,1.89-2.4,3.4-2.62
		c16.72-2.38,27.62,22.42,28.81,33.03C823.68,465.4,813.56,463.72,809.51,462.71z"/>
	<path class="st104" d="M794.26,427.43c-1.82,4.22-5.45,13.94-3.56,20.54c0.73,2.55,2.83,11.54,9.31,15.19
		c-0.32-0.05-0.64-0.11-0.96-0.2c-8.73-2.29-11.3-13.45-12.13-16.34c-1.89-6.6,1.74-16.33,3.56-20.54c0.6-1.4,1.89-2.4,3.4-2.62
		c3.41-0.48,6.57,0.16,9.46,1.58c-1.81-0.41-3.7-0.51-5.68-0.23C796.15,425.03,794.86,426.03,794.26,427.43z"/>
	<path class="st105" d="M809.51,462.7c-0.15-0.04-0.3-0.07-0.45-0.09c0.18-0.04,0.35-0.07,0.52-0.11c1.39-0.29,2.83-0.58,4.04-1.34
		c3.11-1.93,3.72-6.19,3.49-9.84c-0.18-3.04-0.72-6.06-1.61-8.97c-0.88-2.93-2.13-5.9-2.58-8.89c5.67,7.49,9.13,17.32,9.77,23.03
		C823.68,465.4,813.55,463.72,809.51,462.7z"/>
	<path class="st105" d="M773.35,485.23c-1.88,1.62-4.9,4.23-7.84,3.28c-3.47-1.13-5.51-6.81-3.5-10.6c2.17-4.08,7.9-3.81,9.2-3.74
		c1.11,0.05,5.58,0.26,6.66,2.85C779.19,480.17,774.31,484.39,773.35,485.23z"/>
	<g>
		<path class="st103" d="M747.98,459.86c-3.43,5.15-7.5,7.95-9.62,9.17c-2.17,1.24-5.01,2.87-8.48,2.87c-0.69,0-1.41-0.07-2.15-0.21
			c-0.67-0.13-4.13-0.93-6.7-3.83c-3.4-3.83-4.45-9.87-2.83-15.14c0.8-0.51,1.65-1.05,2.55-1.63c5.57-3.58,10.93-7.46,16.45-11.11
			c5.4-3.57,10.4-7.28,14.72-10.69c0.18,0.22,0.3,0.51,0.33,0.81l0.09,0.8C752.99,436.05,754.72,449.75,747.98,459.86z"/>
	</g>
	<path class="st103" d="M844.89,607.74c-3.67,4.56-11.66,6.9-15.13,3.5c-2.75-2.7-1.84-8.28-0.07-11.59
		c0.39-0.73,1.37-2.39,3.26-3.84c2.87-2.2,8.25-4.22,11.7-1.64c2.17,1.64,2.56,4.39,2.7,5.36
		C847.94,603.66,845.61,606.86,844.89,607.74z"/>
	<path class="st102" d="M818.24,586.96c-0.58,3.72-2.22,13.54-10.14,20.49c-1.86,1.64-4.85,4.29-8.47,4.8
		c-0.79,0.12-1.59,0.14-2.42,0.02c-5.36-0.75-8.43-6.47-10.69-10.69c-4.01-7.44-4.47-14.53-4.52-17.67
		c-0.17-9.01,2.3-28.14,14.38-32.08c2.48-0.8,4.85-0.82,6.8-0.55c2.58,0.36,4.4,1.21,4.73,1.37
		C819.6,558.3,819.67,577.66,818.24,586.96z"/>
	<path class="st102" d="M893.76,519.36c-1.84-4.01-15.56-11.63-20.75-16.03c-1.95-1.64-7.32-4.77-9.85-5.01
		c-4.74-0.44-7.16-0.15-16.81,1.25c-6.88,0.99-15.73,2.15-25.01,3.35c-16.49,2.09-34.28,3.66-44.68,4.99
		c0.44-0.05,1.86,1.45,2.25,1.72c0.96,0.67,1.95,1.29,2.96,1.88c2.09,1.22,4.26,2.28,6.43,3.35c3.87,1.9,7.62,4.09,10.97,6.82
		c1.77,1.44,3.21,3.22,4.75,4.89c2.03,2.19,3.6,4.09,6.8,3.88c3.81-0.26,7.62-0.49,11.43-0.79c3.27-0.25,6.23-0.52,8.86-0.77
		c6.15-0.59,8.38-0.92,13.53-1.54c3.28-0.39,7.74-0.9,15.13-1.68c5.91-0.62,11.77-1.76,17.7-2.17c5.2-0.36,11.31-0.53,16.84-2.68
		C894.18,520.35,893.99,519.86,893.76,519.36z"/>
	<path class="st103" d="M820.22,525.11c-1.01-1.89-2.31-3.68-2.47-6.58c-0.06-1.04-0.12-4.95,2.18-6.8
		c3.57-2.88,10.61,0.99,12.21,1.87c6.36,3.49,12.24,10.49,13.8,19.52c1.43,8.33-0.66,19.28-7.22,23.23
		c-0.99,0.59-3.89,2.35-7.4,1.64c-2.8-0.56-4.61-2.41-5.34-3.29c-2.32-2.78-1.72-5.2-2.47-12.74
		C822.64,533.2,822.2,528.81,820.22,525.11z"/>
	<path class="st105" d="M844.89,607.74c-3.67,4.56-11.66,6.9-15.13,3.5c-0.53-0.52-0.92-1.14-1.19-1.84
		c3.91,1.6,10.27-0.68,13.43-4.59c0.71-0.89,3.05-4.08,2.45-8.22c-0.08-0.58-0.25-1.8-0.84-3.03c0.36,0.16,0.71,0.36,1.04,0.61
		c2.17,1.64,2.56,4.39,2.7,5.36C847.94,603.66,845.6,606.86,844.89,607.74z"/>
	<path class="st105" d="M818.23,586.96c-0.58,3.73-2.22,13.54-10.14,20.49c-1.86,1.64-4.85,4.29-8.47,4.8
		c-0.78,0.12-1.58,0.14-2.42,0.02c-2.96-0.41-5.23-2.35-7.05-4.71c1.21,0.91,2.59,1.55,4.16,1.77c0.83,0.12,1.64,0.1,2.42-0.02
		c3.62-0.51,6.61-3.16,8.47-4.8c7.92-6.94,9.56-16.76,10.14-20.48c1.17-7.53,1.34-21.65-4.84-29.75
		C819.6,561.35,819.55,578.41,818.23,586.96z"/>
	<path class="st105" d="M838.72,556.36c-0.99,0.59-3.9,2.34-7.4,1.64c-2.8-0.56-4.61-2.41-5.35-3.29c-0.27-0.32-0.5-0.64-0.69-0.96
		c0.85,0.55,1.9,1.06,3.15,1.31c3.5,0.7,6.41-1.05,7.4-1.64c6.56-3.95,8.65-14.91,7.22-23.23c-0.9-5.22-3.24-9.75-6.28-13.33
		c4.41,3.87,8,9.49,9.17,16.26C847.37,541.45,845.28,552.4,838.72,556.36z"/>
	<path class="st104" d="M751.41,647.12c-1.98,7.43-8.64,11.68-10.98,13.18c-24.26,15.78-46.81,34.04-70.97,49.99
		c-2.45,1.62-10.92,7.54-21.31,8.38c1.59-1.1,1.91-7-0.34-10.36c-0.19-0.28-0.46-0.5-0.69-0.74c2.72-2.88,5.8-5.87,9.25-8.94
		c15.64-13.92,15.84-8.91,37.25-25.5c19.64-15.23,29.47-22.03,49.13-35.63c1.64-1.13,3.78-2.59,6.18-3.77
		c1.03,1.36,1.93,2.96,2.48,4.85C752.57,642.56,751.68,646.06,751.41,647.12z"/>
	<path class="st101" d="M726.73,516.69c-2.71,0.86-5.42,1.71-8.13,2.57c-8.55,2.7-17.31,5.44-26.27,5.06
		c-7.11-0.3-13.97-2.54-20.73-4.77c-9.91-3.26-19.81-6.52-29.72-9.78c-2.98-0.98-12.94-3.77-22.54-7.41
		c-0.97-0.36-1.29-1.58-0.63-2.37c2.31-2.76,5.75-4.23,9.92-5.72c10.45-3.72,16.84-4.44,27.13-6.57c19.95-4.15,29.2-6.59,29.2-6.59
		c3.98-1.04,7.57-2.05,12.16-1.76c0.45,0.02,0.92,0.07,1.39,0.12c6.61,0.77,11.67,3.81,14.81,6.16c0.44,0.23,0.87,0.45,1.31,0.69
		c0.24,0.58,0.5,1.17,0.75,1.79c1.71,4.17,1.03,2.82,9.03,23.42c0.08,0.21,0.17,0.45,0.27,0.7
		C725.14,513.38,725.8,514.92,726.73,516.69z"/>
	<path class="st103" d="M715.38,488.11c1.12,2.73,1.21,3.09,3.38,8.77c-3.08-2.73-7.99-6.2-14.63-7.57
		c-0.49-0.1-0.97-0.19-1.44-0.26c-4.77-0.72-8.62,0-12.87,0.72c0,0-9.9,1.7-31.13,4.19c-10.95,1.28-17.7,1.44-28.96,4.36
		c-3.8,0.99-7.06,2.01-9.59,3.93c-0.23,0.17-0.53,0.22-0.79,0.11c-0.01,0-0.01,0-0.02-0.01c-0.96-0.39-1.26-1.61-0.59-2.4
		c2.31-2.74,5.74-4.2,9.89-5.69c10.45-3.72,16.84-4.44,27.13-6.57c19.95-4.15,29.2-6.59,29.2-6.59c3.98-1.04,7.57-2.05,12.16-1.76
		c0.45,0.02,0.92,0.07,1.39,0.12c6.61,0.77,11.67,3.81,14.81,6.16c0.44,0.23,0.87,0.45,1.31,0.69
		C714.87,486.9,715.13,487.49,715.38,488.11z"/>
	<path class="st103" d="M636.14,507.55c-3.32,5.24-1.73,11.29-1.13,13.57c1.73,6.6,6.18,10.32,7.57,11.45
		c4.3,3.5,8.66,4.41,12.4,5.18c1.88,0.39,5.01,0.4,11.29,0.43c0.71,0,1.71-0.07,2.84-0.56c2.27-0.98,3.56-3.55,3.61-6.02
		c0.05-2.47-0.93-4.85-2.14-7.01c-0.52-0.93-1.1-1.87-1.27-2.93c-0.37-2.23,1.18-4.36,2.99-5.71s3.96-2.23,5.67-3.7
		c1.72-1.47,2.98-3.86,2.18-5.97c-0.42-1.12-1.19-1.85-1.74-2.26c-5.83-4.32-16.51-4.74-16.51-4.74
		c-6.11-0.24-10.89-0.43-16.65,1.89C641.89,502.55,638.43,503.94,636.14,507.55z"/>
	<path class="st104" d="M660.01,538.18c-2.38-0.05-3.92-0.15-5.03-0.38c-3.74-0.78-8.1-1.68-12.41-5.18
		c-1.38-1.13-5.83-4.85-7.56-11.45c-0.6-2.28-2.19-8.33,1.13-13.57c2.29-3.61,5.75-5.01,9.1-6.36c1.52-0.61,2.96-1.05,4.39-1.35
		c-3.15,1.3-6.26,2.87-8.4,6.25c-3.55,5.61-1.85,12.09-1.21,14.53c1.86,7.06,6.62,11.04,8.1,12.25
		C652.21,536.24,656.34,537.38,660.01,538.18z"/>
	<path class="st88" d="M701.84,605.09c0.07,1.28,0.18,2.67,1.04,3.62c0.59,0.65,1.45,0.99,2.28,1.3c4.22,1.6,8.6,3.21,13.11,2.95
		c3.37-0.2,6.57-1.44,9.8-2.45c10.25-3.19,21.05-4.05,31.68-5.54c2.06-0.29,4.23-0.65,5.81-1.99c1.56-1.33,2.27-3.38,2.86-5.34
		c4.07-13.49,5.78-27.56,7.47-41.55c1.42-11.73,2.84-23.47,4.26-35.2c-0.25-0.38-0.87-0.44-1.19-0.1c-0.31,0.33-0.21,0.95,0.18,1.18
		c-0.27-4.81-1.01-10.31-5.04-12.93c-1.52-0.99-3.35-1.42-5.17-1.55c-8.26-0.57-15.6,4.71-22.97,8.5
		c-14.61,7.52-30.08,8.22-45.84,11.25c-2.29,0.44-2.14,0.08-2.39,2.39c-0.23,2.09,0.24,4.44,0.36,6.54
		c0.24,4.46,0.48,8.91,0.73,13.37c0.48,8.81,0.96,17.63,1.44,26.44C700.79,585.68,701.32,595.39,701.84,605.09z"/>
	<path class="st101" d="M678.4,583.05c4.06,8.64,7.9,18.84,4.73,21.38c-3.45,2.77-14.38-4.2-20.49-11.95
		c-1.37-1.73-9.95-12.63-5.86-20.03c0.02-0.01,0.04-0.03,0.04-0.05c1.57-2.78,1.12-6.25-1.37-8.25l-37.34-30.13
		c-0.05-0.42-0.11-0.84-0.16-1.26c-0.16-1.28,1.28-2.13,2.31-1.36c1.19,0.89,2.58,1.9,4.14,3.01c9.89,7.07,15.67,11.14,23.88,14.77
		c4.71,2.08,9.63,3.72,14.68,4.75c5.68,1.15,11.52,1.54,17.3,1.14c0.84-0.06,3.21-0.34,6.32,0.01c2.73,0.31,5.79,0.65,7.77,2.63
		c2.17,2.17,2.15,5.4,2.15,7.04c0.02,6.59,0.49,16.26,1.17,28.84c-4-2.42-6.77-4.88-8.56-6.66c-3.46-3.45-5.86-4.64-7.8-6.18
		C679.73,579.49,677.54,581.23,678.4,583.05z"/>
	<path class="st103" d="M683.78,597.16c0.79,3.41,0.79,6.11-0.64,7.25c-3.45,2.77-14.38-4.2-20.49-11.95
		c-1.2-1.51-7.92-10.05-6.84-17.12c1.46,5.5,5.52,10.67,6.43,11.81c6.11,7.75,17.04,14.72,20.49,11.95
		C683.27,598.66,683.61,598,683.78,597.16z"/>
	<path class="st103" d="M763.41,572.8c0.06,23.94-3.77,24.74,0,32.08l-43.23,6.18h-0.01c-0.82-0.64-1.66-1.29-2.51-1.96
		c3.37-0.92,6.61-2.36,9.78-3.77c6.56-2.93,13.17-5.88,19.1-9.92c2.09-1.43,4.12-3.02,5.61-5.06c1.71-2.35,2.62-5.18,3.5-7.95
		c1.02-3.21,2.05-6.43,2.8-9.72c0.95-4.17,1.46-8.47,2.94-12.49c0.53-1.45,1.37-2.64,1.73-5.12
		C763.08,559.97,763.39,566.35,763.41,572.8z"/>
	<path class="st103" d="M796.22,631.96c-0.09,0.05-0.19,0.08-0.28,0.11c-1.86,0.55-3.98-1.62-4.92-2.54
		c-13.23-13.19-22.5-14.04-27.95-24.66c-3.77-7.34,0.05-8.14,0-32.08c-0.05-20.3,0.17-30.46,0.63-46.11
		c0.06-2.19,0.12-4.48,0.19-6.92c0.11-3.35,0.27-7.32,2.4-9.52c2.66,5.92,4.31,15.28,4.69,34.13c0.29,14.11,0.43,21.17,0.09,25.72
		c-0.41,5.41-1.09,10.55,0.32,17.7c1.23,6.23,3.37,10.63,4.26,12.33c2.34,4.48,4.03,5.77,8.29,11.16
		C790.88,620.04,795.54,626.05,796.22,631.96z"/>
	<path class="st104" d="M845.08,529.69c-2.68-4.88-6.64-8.67-10.8-10.95c-1.6-0.88-8.65-4.75-12.22-1.87
		c-2.29,1.85-2.23,5.76-2.17,6.8c0.02,0.38,0.06,0.74,0.12,1.08c-0.99-1.81-2.19-3.56-2.34-6.36c-0.06-1.03-0.12-4.94,2.17-6.79
		c3.57-2.88,10.62,0.98,12.22,1.86C837.62,516.51,842.82,522.25,845.08,529.69z"/>
	<path class="st104" d="M816.33,562.55c-1.51-2.12-3.43-3.87-5.85-5.04c-0.33-0.16-2.15-1.01-4.73-1.37
		c-1.95-0.27-4.32-0.25-6.8,0.55c-12.07,3.94-14.54,23.06-14.37,32.08c0.05,2.87,0.44,9.06,3.58,15.79
		c-0.6-1.02-1.14-2.03-1.64-2.97c-4.01-7.45-4.47-14.53-4.53-17.68c-0.17-9.01,2.31-28.13,14.38-32.08c2.48-0.8,4.85-0.82,6.79-0.54
		c2.58,0.36,4.41,1.21,4.73,1.36C811.97,554.62,814.64,558.25,816.33,562.55z"/>
	<path class="st101" d="M867.09,469.14c0.05,0.1-0.12,0.37-0.47,0.89c-0.16,0.25-0.31,0.45-0.35,0.5c-3.36,4.49-7.24,6.91-8.65,7.71
		c-7.05,3.96-13.32,9.22-20.13,13.58c-4,2.54-9.72,6.26-16.53,11.09c-18.44,2.34-38.55,4.77-48.11,5.91
		c-0.79-0.17-1.54,0.04-2.28,0.04c-1.26,0-2.21,0.16-3.2,0.81c-2.99,1.95-3.36,6.32-3.48,10.1c-0.07,2.44-0.14,4.72-0.19,6.91
		c-0.22,0.02-0.43,0.05-0.63,0.07c-4.92,0.63-9.91,0.49-14.81,1.24c-4.18,0.64-7.07,1.33-9.91,0.68c0.07-0.56,0.25-1.11,0.52-1.61
		c1.22-2.23,3.5-3.43,4.76-3.95c5.47-2.29,9.97-6.5,15.37-8.93c9.92-4.47,8.55-6.63,23.75-15.49c17.35-10.11,20.6-10.47,27.53-16.08
		c2.74-2.22,5.08-5.73,8.06-7.49c4.05-2.39,7.89-2.83,9.98-3.08c0.8-0.1,1.59-0.19,2.39-0.27c0.84-0.09,1.68-0.18,2.52-0.26
		c0.87-0.09,1.74-0.17,2.6-0.25c0.89-0.08,1.78-0.16,2.67-0.24c0.9-0.08,1.8-0.15,2.7-0.22c0.9-0.07,1.8-0.14,2.7-0.21
		c0.89-0.07,1.79-0.13,2.68-0.2c0.88-0.06,1.76-0.12,2.63-0.18c0.85-0.06,1.71-0.11,2.56-0.17c0.82-0.05,1.64-0.1,2.46-0.16
		c0.77-0.05,1.55-0.09,2.32-0.14c0.72-0.04,1.44-0.08,2.17-0.13c0.66-0.04,1.32-0.07,1.98-0.11c0.59-0.03,1.18-0.06,1.77-0.1
		c0.51-0.03,1.02-0.05,1.53-0.08c1.25-0.06,1.16-0.05,1.26-0.06C866.46,469.16,866.99,468.95,867.09,469.14z"/>
	<g>
		<path class="st103" d="M830.9,494.8c-0.46-0.09-0.9-0.28-1.29-0.6c-0.3-0.25-0.53-0.55-0.71-0.89c-0.62-1.17-0.56-2.74-0.65-4.21
			c-0.01-0.21-0.03-0.42-0.05-0.62c-0.05-0.46-0.12-0.9-0.25-1.31c-0.08-0.25-0.18-0.49-0.3-0.71c-0.21-0.37-0.49-0.7-0.88-0.94
			c-0.16-0.1-0.32-0.18-0.5-0.25c-0.36-0.14-0.75-0.21-1.14-0.25c-0.17-0.02-0.34-0.03-0.51-0.04c-2.8-0.17-5.52,0.22-8.18,0.94
			c-3.99,1.07-7.87,2.88-11.77,4.65c-2.45,1.11-4.92,2.21-7.46,3.11c-2.37,0.84-4.81,1.23-7.27,1.72c-2.74,0.55-4.82,1.91-7.19,3.3
			c-15.2,8.86-13.83,11.02-23.75,15.49c-5.4,2.43-9.9,6.64-15.37,8.93c-1.26,0.52-3.54,1.72-4.76,3.95
			c-0.27,0.5-0.45,1.05-0.52,1.61c2.84,0.65,5.73-0.04,9.91-0.68c4.9-0.75,9.89-0.61,14.81-1.24c0.2-0.02,0.41-0.05,0.63-0.07
			c0.05-2.19,0.12-4.47,0.19-6.91c0.12-3.78,0.49-8.15,3.48-10.1c0.99-0.65,1.94-0.81,3.2-0.81c2.92,0,5.8-0.46,8.69-0.81
			c2.43-0.29,4.87-0.59,7.3-0.88c5.82-0.71,11.63-1.42,17.45-2.14c3.02-0.37,6.04-0.74,9.05-1.12c2.64-0.34,5.29-0.67,7.9-1
			c4.55-3.23,8.61-5.96,12-8.17C832.25,494.89,831.55,494.93,830.9,494.8z"/>
		<path class="st103" d="M832.96,494.75l-2.05,0.05C831.55,494.93,832.25,494.89,832.96,494.75z"/>
	</g>
</g>
</svg>
