<?xml version="1.0" encoding="utf-8"?>
<!-- Generator: Adobe Illustrator 28.0.0, SVG Export Plug-In . SVG Version: 6.00 Build 0)  -->
<svg version="1.1" id="Layer_1" xmlns="http://www.w3.org/2000/svg" xmlns:xlink="http://www.w3.org/1999/xlink" x="0px" y="0px"
	 viewBox="0 0 1080 1080" style="enable-background:new 0 0 1080 1080;" xml:space="preserve">
<style type="text/css">
	.st0{fill:none;stroke:#C1873A;stroke-width:16;stroke-linecap:round;stroke-linejoin:round;stroke-miterlimit:10;}
	.st1{fill:#E2D0E1;}
	.st2{fill:#EDE6EE;}
	.st3{fill:#DA9E53;}
	.st4{fill:#C98D4C;}
	.st5{fill:#DD6A6E;}
	.st6{fill:#D1626B;}
	.st7{fill:#F3EFF4;}
	.st8{fill:#C45C69;}
	.st9{fill:#FFB92E;}
	.st10{opacity:0.5;fill:#96A488;}
	.st11{fill:#F0F3EC;}
	.st12{fill:#E5E9E0;}
	.st13{fill:#B5CAD2;}
	.st14{fill:none;stroke:#009245;stroke-width:4;stroke-miterlimit:10;}
	.st15{fill:none;stroke:#009245;stroke-width:4;stroke-linecap:round;stroke-linejoin:round;stroke-miterlimit:10;}
	.st16{fill:none;stroke:#009245;stroke-width:4.1082;stroke-linecap:round;stroke-linejoin:round;stroke-miterlimit:10;}
	.st17{fill:none;stroke:#000000;stroke-width:1.9946;stroke-miterlimit:10;}
	.st18{fill:none;stroke:#000000;stroke-width:1.8919;stroke-miterlimit:10;}
	.st19{fill:none;stroke:#000000;stroke-width:1.924;stroke-miterlimit:10;}
	.st20{fill:none;stroke:#000000;stroke-width:1.924;stroke-linecap:round;stroke-linejoin:round;stroke-miterlimit:10;}
	.st21{fill:none;stroke:#000000;stroke-width:1.7309;stroke-linecap:round;stroke-linejoin:round;stroke-miterlimit:10;}
	.st22{fill:none;stroke:#000000;stroke-width:2;stroke-miterlimit:10;}
	.st23{fill:none;stroke:#000000;stroke-width:2;stroke-linecap:round;stroke-linejoin:round;stroke-miterlimit:10;}
	.st24{fill:#FFC257;}
	.st25{fill:#EDA229;}
	.st26{fill:#DD8E1B;}
	.st27{fill:#FFD085;}
	.st28{fill:none;stroke:#000000;stroke-width:3.4146;stroke-linecap:round;stroke-linejoin:round;stroke-miterlimit:10;}
	.st29{fill:none;stroke:#000000;stroke-width:1.8379;stroke-linecap:round;stroke-linejoin:round;stroke-miterlimit:10;}
	.st30{fill:none;stroke:#000000;stroke-linecap:round;stroke-linejoin:round;stroke-miterlimit:10;}
	.st31{fill:#D1D6CC;}
	.st32{fill:#F4DC98;}
	.st33{fill:#E9D2A3;}
	.st34{fill:#DAA765;}
	.st35{fill:#D09E62;}
	.st36{opacity:0.5;fill:#EDE1CA;}
	.st37{opacity:0.3;fill:#AF8056;}
	.st38{opacity:0.28;fill:#AF8056;}
	.st39{fill:#F3814A;}
	.st40{fill:#CF602F;}
	.st41{fill:#C35233;}
	.st42{fill:#F38A62;}
	.st43{opacity:0.2;fill:#FFFFFF;}
	.st44{opacity:0.37;fill:#DA7446;}
	.st45{opacity:0.1;fill:#FFFFFF;}
	.st46{opacity:0.08;fill:#FFFFFF;}
	.st47{opacity:0.3;fill:#997552;enable-background:new    ;}
	.st48{fill:#E5C98C;}
	.st49{opacity:0.6;fill:#F9E4BB;enable-background:new    ;}
	.st50{opacity:0.8;fill:#F9E4BB;enable-background:new    ;}
	.st51{fill:#618828;}
	.st52{fill:#92A931;}
	.st53{fill:#809A2C;}
	.st54{opacity:0.6;fill:#92A931;}
	.st55{opacity:0.6;fill:#618828;}
	.st56{opacity:0.25;fill:#E9D2A3;}
	.st57{fill:#E59055;}
	.st58{fill:#CE814D;}
	.st59{fill:#AF6C3E;}
	.st60{fill:#EFA16C;}
	.st61{fill:#FFBB8D;}
	.st62{fill:#E4C88B;}
	.st63{opacity:0.7;fill:#F8E3BA;}
	.st64{opacity:0.35;fill:#FFFFFF;}
	.st65{fill:#4D851D;}
	.st66{fill:#437A0F;}
	.st67{fill:#3B680B;}
	.st68{fill:#5B9324;}
	.st69{fill:#77B234;}
	.st70{fill:#E8EECB;}
	.st71{fill:#EFF4D4;}
	.st72{fill:#E3E8BF;}
	.st73{fill:#F9FFE1;}
	.st74{fill:#FCFFE9;}
	.st75{fill:#BF2C5A;}
	.st76{fill:#AF2859;}
	.st77{fill:#A3285A;}
	.st78{fill:#F3CEE4;}
	.st79{fill:#FFE3F7;}
	.st80{fill:#FFF8FD;}
	.st81{fill:#DBA9C9;}
	.st82{fill:#C9356A;}
	.st83{fill:#E0518B;}
	.st84{fill:#F96EA0;}
	.st85{fill:#A07A50;}
	.st86{fill:#BC916D;}
	.st87{fill:#936E4A;}
	.st88{fill:none;}
	.st89{fill:#E1AE4F;}
	.st90{fill:#D69F45;}
	.st91{fill:#C1873A;}
	.st92{fill:#E8B564;}
	.st93{fill:#F4C376;}
	.st94{fill:#AA7331;}
	.st95{fill:#839E39;}
	.st96{fill:#959F38;}
	.st97{fill:#8FAA44;}
	.st98{fill:#A8BF55;}
	.st99{fill:#708426;}
	.st100{fill:#FFCC73;}
	.st101{fill:#EDCC8C;}
	.st102{fill:#FFDDA1;}
	.st103{fill:#DDBB80;}
	.st104{fill:#FFE8C2;}
	.st105{fill:#CEA974;}
	.st106{fill:none;stroke:#E1AE4F;stroke-width:16;stroke-linecap:round;stroke-linejoin:round;stroke-miterlimit:10;}
	.st107{fill:none;stroke:#D69F45;stroke-width:16;stroke-linecap:round;stroke-linejoin:round;stroke-miterlimit:10;}
	.st108{fill:none;stroke:#F4C376;stroke-width:16;stroke-linecap:round;stroke-linejoin:round;stroke-miterlimit:10;}
	.st109{fill:none;stroke:#C1873A;stroke-width:5.6205;stroke-linecap:round;stroke-linejoin:round;stroke-miterlimit:10;}
	.st110{fill:none;stroke:#E1AE4F;stroke-width:5.6205;stroke-linecap:round;stroke-linejoin:round;stroke-miterlimit:10;}
	.st111{fill:none;stroke:#D69F45;stroke-width:5.6205;stroke-linecap:round;stroke-linejoin:round;stroke-miterlimit:10;}
	.st112{fill:none;stroke:#F4C376;stroke-width:5.6205;stroke-linecap:round;stroke-linejoin:round;stroke-miterlimit:10;}
	.st113{fill:none;stroke:#F4C376;stroke-width:5.2674;stroke-linecap:round;stroke-linejoin:round;stroke-miterlimit:10;}
	.st114{fill:none;stroke:#EDCC8C;stroke-width:5.8805;stroke-linecap:round;stroke-linejoin:round;stroke-miterlimit:10;}
	.st115{fill:none;stroke:#FFDDA1;stroke-width:5.8805;stroke-linecap:round;stroke-linejoin:round;stroke-miterlimit:10;}
	.st116{fill:none;stroke:#FFE8C2;stroke-width:5.8805;stroke-linecap:round;stroke-linejoin:round;stroke-miterlimit:10;}
	.st117{fill:none;stroke:#D1626B;stroke-width:5.2388;stroke-miterlimit:10;}
	.st118{fill:none;stroke:#D1626B;stroke-width:5.4518;stroke-miterlimit:10;}
	.st119{fill:none;stroke:#DD6A6E;stroke-width:5.2388;stroke-miterlimit:10;}
	.st120{fill:none;stroke:#AD4D58;stroke-width:5.0375;stroke-miterlimit:10;}
	.st121{fill:none;stroke:#D1626B;stroke-width:4.8407;stroke-miterlimit:10;}
	.st122{fill:none;stroke:#D1626B;stroke-width:5.0375;stroke-miterlimit:10;}
	.st123{fill:none;stroke:#DD6A6E;stroke-width:4.8407;stroke-miterlimit:10;}
</style>
<g>
	<path class="st65" d="M784.16,460.61c-8.18,7.48-15.06,11.73-28.83,20.25c-33.66,20.85-62.54,31.89-77.63,37.99
		C608,547.01,573.7,563.4,539.32,568.17l-0.01-0.06c7.09-1.46,14.68-4.06,22.14-8.43c35.69-20.89,57.99-76.13,35.09-121.82
		c-20.62-41.17-69.23-57.28-105.5-44.7c-2.07,0.71-4.04,1.52-5.96,2.38c18.82-10.22,75.56-35.08,158.25-59.06
		c49.96-14.5,75.37-21.69,96.9-19.58c11.72,1.16,64.7,6.38,80.08,41.38c2.74,6.22,3.38,11.3,3.94,15.91
		C829.8,418.87,791.04,454.31,784.16,460.61z"/>
	<path class="st66" d="M823.6,369.46c8.52,48.4-33.04,85.3-39.43,91.15c-8.18,7.48-15.06,11.73-28.83,20.25
		c-33.67,20.85-62.54,31.9-77.63,37.99c-69.7,28.16-104,44.55-138.38,49.32l-0.01-0.06c7.09-1.45,14.67-4.06,22.14-8.43
		c21.29-12.47,37.82-37.17,42.82-64.77C671.39,470.86,826.74,402.28,823.6,369.46z"/>
	<path class="st67" d="M824.8,383.66c-0.39,40.15-34.24,71.1-40.63,76.95c-8.19,7.48-15.06,11.73-28.83,20.25
		c-33.67,20.85-62.54,31.9-77.63,37.99c-69.71,28.16-104,44.55-138.38,49.32l-0.01-0.06c7.09-1.45,14.66-4.06,22.14-8.43
		c11.44-6.7,21.51-16.93,29.14-29.25c23.07-8.51,50.99-20.56,89.57-36.15c15.36-6.19,44.75-17.44,79.02-38.66
		c14.01-8.67,21.01-13,29.34-20.61C793.5,430.45,814.88,410.91,824.8,383.66z"/>
	<path class="st68" d="M564.4,377.67c-3.86,2.1-5.8,3.18-6.12,4.46c-1.65,6.38,14.5,12.05,18.47,13.83
		c26.92,12.04,36.21,35.45,42.48,62.83c0.38,1.47,1.5,6.21,4.87,7.26c1.71,0.53,3.55-0.01,5.23-0.62
		c19.61-7.12,33.89-23.79,50.7-36.15c30.21-22.21,68.46-30.32,101.06-48.84c4.88-2.77,9.87-6.04,12.26-11.12
		c3.4-7.25,0.22-16.29-5.67-21.7s-13.91-7.86-21.78-9.35c-35.96-6.81-77.21,4.61-77.21,4.61c-21.46,4.27-42.6,9.98-63.64,15.93
		C605.28,364.4,582.5,367.8,564.4,377.67z"/>
	<path class="st69" d="M580.17,373.52c-0.57,1.05-2.15,3.72-1.4,6.48c1.41,5.24,10.03,6.96,14.24,7.75
		c14.88,2.79,27.53-1.29,28.92-1.74c21.83-7.03,44.09-12.87,66.59-17.27c22.59-4.42,46.02-11.72,61.33-28.92
		c0.79-0.89,1.61-2.05,1.21-3.17c-0.34-0.96-1.4-1.41-2.37-1.73c-14.93-5.01-31.24-4.3-46.69-1.26
		c-25.67,5.05-27.13,7.73-45.58,12.36c-21.06,5.29-41.18,14.01-62.33,18.9C591.42,365.54,583.53,367.3,580.17,373.52z"/>
	<path class="st70" d="M561.47,559.77c-7.47,4.37-15.06,6.98-22.15,8.44c-16.69,3.45-30.75,0.65-34.44-0.16
		c-2.71-0.6-5.31-1.31-7.8-2.14c1.01-2.45,1.58-5.04,1.46-7.74l0.12-34.1v-0.22c0.01-0.3,0.01-0.61,0-0.91
		c-0.8-18.12-35.96-29.46-48.25-33.41c-5.03-1.62-9.95-2.89-14.76-3.87c-0.39-3.5-0.57-7.16-0.52-10.98
		c0.07-6.64,0.48-23.45,10.03-41.49c1.28-2.41,14.22-26.06,39.87-37.62c0.01,0,0.01-0.01,0.03-0.01c1.92-0.86,3.9-1.67,5.97-2.38
		c36.28-12.59,84.92,3.53,105.55,44.72C619.49,483.6,597.17,538.87,561.47,559.77z"/>
	<path class="st71" d="M466.73,425.72c-3.7,3.61-16.95,16.94-18.95,37.03c-0.88,8.83,1.12,16.05,5.17,30.14
		c6.64,23.14,9.96,34.72,18.95,43.92c17.38,17.81,41.78,18.04,46.51,18.09c6.23,0.06,22.79-0.01,38.45-11.21
		c12.62-9.02,17.94-20.46,21.84-28.84c3.52-7.57,12.73-28.16,6.89-53.4c-3.22-13.94-9.63-23.2-11.2-25.41
		c-16.73-23.48-42.89-28.25-46.51-28.85C525.33,406.78,491.29,401.69,466.73,425.72z"/>
	<g>
		<path class="st72" d="M502.31,461.89c0.56-1.73,1.48-3.41,2.94-4.48c1.46-1.08,3.54-1.44,5.13-0.56c1.86,1.03,2.57,3.44,2.31,5.55
			c-0.26,2.11-1.26,4.04-2.09,6c-1.25,2.97-2.1,6.1-2.53,9.29c-0.1,0.77-0.2,1.59-0.7,2.19c-2.17,2.59-4.52-5.65-4.91-7.02
			C501.44,469.29,501.16,465.46,502.31,461.89z"/>
		<path class="st72" d="M533.21,468.6c0.65,0.06,1.31,0.21,1.86,0.57c0.79,0.53,1.23,1.45,1.5,2.37c0.68,2.38,0.26,5.23-1.63,6.83
			c-0.72,0.61-1.6,1-2.48,1.35c-3.09,1.24-12.44,5.36-11.21-1.44C522.15,473.19,527.97,468.11,533.21,468.6z"/>
		<path class="st72" d="M535.58,491.7c0.79,0.35,1.68,0.44,2.54,0.46c1.32,0.03,2.72-0.15,3.76-0.97c1.04-0.81,1.54-2.43,0.77-3.5
			c-0.33-0.46-0.83-0.76-1.34-1.01c-1.89-0.92-6.06-1.89-7.86-0.26C531.5,488.18,533.76,490.91,535.58,491.7z"/>
		<path class="st72" d="M500.51,487.42c-1.89-3.71-4.94-5.78-6.66-5.84c-0.06,0-0.12,0-0.12,0c-0.56-0.01-2.42,0.06-3.71,1.42
			c-1.35,1.43-1.23,3.39-1.15,4.78c0.17,2.91,1.49,4.98,2.33,6.27c2.24,3.42,4.99,4.89,6.62,5.73c2.5,1.29,3.38,0.99,3.77,0.76
			c0.9-0.53,1.11-1.78,1.21-2.37c0.24-1.44-0.18-2.62-0.33-3.04C500.89,490.53,501.98,490.3,500.51,487.42z"/>
		<path class="st72" d="M508.93,518.11c0.2,2.5,0.94,5.24,3.07,6.57c2.11,1.32,5.33,0.51,6.34-1.76c0.28-0.64,0.4-1.34,0.44-2.03
			c0.25-3.67-1.75-10.32-5.62-11.75C508.21,507.33,508.7,515.37,508.93,518.11z"/>
		<path class="st72" d="M528.08,506.68c1.47,1.81,3.38,3.34,5.62,3.97c2.24,0.63,4.85,0.25,6.56-1.32c1.77-1.63,1.79-4.45,0.96-6.35
			c-1.01-2.31-3.33-3.11-6.88-4.29c-3.25-1.07-8.81-2.91-10.24-0.9C522.43,500.16,527.67,506.18,528.08,506.68z"/>
	</g>
	<g>
		<path class="st73" d="M499.51,461.1c0.56-1.73,1.48-3.41,2.94-4.48c1.46-1.08,3.54-1.44,5.13-0.56c1.86,1.03,2.57,3.44,2.31,5.55
			c-0.26,2.11-1.26,4.04-2.09,6c-1.25,2.97-2.1,6.1-2.53,9.29c-0.1,0.77-0.2,1.59-0.7,2.19c-2.17,2.59-4.52-5.65-4.91-7.02
			C498.65,468.5,498.36,464.67,499.51,461.1z"/>
		<path class="st73" d="M530.41,467.81c0.65,0.06,1.31,0.21,1.86,0.57c0.79,0.53,1.23,1.45,1.5,2.37c0.68,2.38,0.26,5.23-1.63,6.83
			c-0.72,0.61-1.6,1-2.48,1.35c-3.09,1.24-12.44,5.36-11.21-1.44C519.35,472.4,525.18,467.32,530.41,467.81z"/>
		<path class="st73" d="M532.78,490.91c0.79,0.35,1.68,0.44,2.54,0.46c1.32,0.03,2.72-0.15,3.76-0.97c1.04-0.81,1.54-2.43,0.77-3.5
			c-0.33-0.46-0.83-0.76-1.34-1.01c-1.89-0.92-6.06-1.89-7.86-0.26C528.7,487.39,530.96,490.12,532.78,490.91z"/>
		<path class="st73" d="M497.72,486.62c-1.89-3.71-4.94-5.78-6.66-5.84c-0.06,0-0.12,0-0.12,0c-0.56-0.01-2.42,0.06-3.71,1.42
			c-1.35,1.43-1.23,3.39-1.15,4.78c0.17,2.91,1.49,4.98,2.33,6.27c2.24,3.42,4.99,4.89,6.62,5.73c2.5,1.29,3.38,0.99,3.77,0.76
			c0.9-0.53,1.11-1.78,1.21-2.37c0.24-1.44-0.18-2.62-0.33-3.04C498.09,489.73,499.18,489.5,497.72,486.62z"/>
		<path class="st73" d="M506.13,517.31c0.2,2.5,0.94,5.24,3.07,6.57c2.11,1.32,5.33,0.51,6.34-1.76c0.28-0.64,0.4-1.34,0.44-2.03
			c0.25-3.67-1.75-10.32-5.62-11.75C505.42,506.54,505.91,514.57,506.13,517.31z"/>
		<path class="st73" d="M525.28,505.88c1.47,1.81,3.38,3.34,5.62,3.97c2.24,0.63,4.85,0.25,6.56-1.32c1.77-1.63,1.79-4.45,0.96-6.35
			c-1.01-2.31-3.33-3.11-6.88-4.29c-3.25-1.07-8.81-2.91-10.24-0.9C519.64,499.37,524.88,505.38,525.28,505.88z"/>
	</g>
	<path class="st74" d="M461.93,467.57c0.84,7.69,3.34,8.92,4.07,9.31c3.78,2.03,8.25-1.31,10.62-4.88
		c5.23-7.9,6.91-18.2,13.89-24.61c8.56-7.86,21.84-7.04,33.18-4.5c5.34,1.2,11.43,2.53,15.91-0.62c2.41-1.69,3.93-4.59,3.95-7.53
		c0.04-5.54-5.96-9.42-8.59-11.13c-14.13-9.19-48.92-9.97-65.12,11.75C459.87,448.71,461.57,464.33,461.93,467.57z"/>
	<path class="st74" d="M551.16,468.55c2.3,4.74,7.6,8.44,12.72,7.21c1.09-0.26,2.15-0.74,2.96-1.52c1.07-1.04,1.62-2.51,1.94-3.96
		c1.05-4.76,0-9.94-2.83-13.91c-3.26-4.59-10.67-9.75-14.74-4.72C547.56,456.17,548.76,463.71,551.16,468.55z"/>
</g>
<g>
	<path class="st70" d="M429.96,599.96c-1.12,0.61-2.28,1.19-3.43,1.75c-0.4,0.19-0.8,0.39-1.22,0.58c-2.75,1.29-5.61,2.51-8.45,3.61
		c-2.99,1.16-5.98,2.22-8.86,3.14c-1.29,0.43-2.57,0.82-3.82,1.19c-2.91,0.86-5.67,1.59-8.13,2.16c-0.67,0.16-1.34,0.31-1.99,0.45
		c-11.15,2.41-20.94,2.87-28.33,3.21c-5.17,0.24-22.23,0.85-38.91-1.71c-4.25-0.65-8.92-1.58-13.77-2.77
		c-15.85-3.82-33.62-10.26-45.23-18.2c-7.64-5.23-12.61-11.12-12.61-17.35v-0.13c0.13-11.57,17.35-20.59,25.55-24.91
		c6.24-3.27,12.37-5.31,18.84-6.72v14.72c0.12,6.32,4.16,12.13,12,18.51c33.71,27.43,87.21,24.3,116.59,22.57
		C428.69,600.04,429.29,600.01,429.96,599.96z"/>
	<path class="st71" d="M277.55,565.04c-1.97,2.15-5.99,8.55-3.89,13.64c1.19,2.89,3.92,4.16,6.74,5.55
		c15.13,7.46,11.95,8.07,20.73,11.52c8.28,3.25,8.59,1.72,40.92,6.5c7.48,1.11,15.01,1.96,22.53,2.78
		c5.52,0.61,11.11,1.63,16.57,0.62c3.75-0.69,7.26-2.31,10.88-3.51c4.72-1.56,9.9-2.53,13.52-5.93c3.86-3.62,5.1-9.49,3.92-14.65
		c-1.18-5.16-4.51-9.63-8.53-13.07c-11.18-9.58-26.75-11.51-40.92-15.51c-11.19-3.15-24.82-10.57-36.69-9.47
		c-10.14,0.94-21.63,4.43-30.51,9.43C287.14,556.15,281.95,560.23,277.55,565.04z"/>
	<path class="st65" d="M449.27,597.03v16.67c-0.12,13.8-24.58,25.02-43.39,30.82c-18.54-5.9-35.64-6.65-49.96-7.29
		c-9.87-0.43-16.3-0.07-21.49,0.48c-11.64,1.23-20.3,3.79-29.23,6.6c-24.4-6.99-50.17-19.4-50-33.63v-34.66
		c0,6.23,4.97,12.12,12.61,17.35c11.61,7.94,29.38,14.38,45.23,18.2c4.85,1.19,9.52,2.11,13.77,2.77
		c16.68,2.56,33.74,1.95,38.91,1.71c7.39-0.34,17.17-0.8,28.33-3.21c0.65-0.13,1.32-0.28,1.99-0.45c2.47-0.57,5.22-1.29,8.13-2.16
		c1.25-0.37,2.53-0.76,3.82-1.19c2.88-0.92,5.87-1.98,8.86-3.14c2.84-1.1,5.69-2.32,8.45-3.61c0.42-0.19,0.82-0.39,1.22-0.58
		c1.16-0.57,2.32-1.14,3.43-1.75c0.01,0,0.01,0,0.01,0C434.12,599.67,440.96,598.98,449.27,597.03z"/>
	<path class="st66" d="M449.27,597.04v16.67c-0.12,13.8-24.58,25.02-43.39,30.82c-18.54-5.9-35.64-6.64-49.96-7.28
		c-9.87-0.43-16.3-0.08-21.49,0.47c-11.64,1.24-20.29,3.8-29.23,6.61c-24.4-6.99-50.17-19.41-50-33.64v-0.16
		c5.39,3.09,10.83,6.14,16.57,8.53c31.55,13.1,67.58,4.59,101.48,8.73c6.18,0.75,12.33,1.93,18.55,1.84
		c6.22-0.09,12.65-1.6,17.41-5.6c5.43-4.57,7.86-11.6,9.11-18.7c2.35-0.93,4.7-1.95,6.98-3.02c0.42-0.2,0.82-0.39,1.22-0.58
		c1.16-0.57,2.32-1.15,3.43-1.76c0.02,0,0.02,0,0.02,0C434.12,599.67,440.96,598.99,449.27,597.04z"/>
	<path class="st67" d="M449.27,597.04v16.67c-0.12,13.8-24.58,25.02-43.39,30.82c-18.54-5.9-35.64-6.64-49.96-7.28
		c-9.87-0.43-16.3-0.08-21.49,0.47c-11.64,1.24-20.29,3.8-29.23,6.61c-22.19-6.36-45.52-17.21-49.43-29.83
		c6.78,7.21,19.26,13.55,32.7,18.38c7.06,2.54,14.73,2.85,21.98,0.89c5.77-1.56,11.91-2.86,19.24-3.64
		c5.19-0.55,11.62-0.9,21.49-0.47c10.78,0.48,23.14,1.02,36.5,3.77c10.67,2.2,21.79,1.16,31.69-3.37
		c13.41-6.13,25.08-14.43,25.16-23.95v-8.07C446.05,597.76,447.63,597.42,449.27,597.04z"/>
	<path class="st68" d="M261.68,605.28c-2.34,2.53-1.9,6.74,0.09,9.56c1.98,2.82,5.13,4.55,8.2,6.12c9.98,5.08,20.76,9.43,31.95,9.16
		c2.15-0.05,4.56-0.41,5.86-2.13c1.45-1.91,0.83-4.78-0.73-6.59c-1.56-1.81-3.83-2.83-6.01-3.81c-7.3-3.29-14.47-6.85-21.49-10.69
		C274.59,604.18,266.8,599.73,261.68,605.28z"/>
	<path class="st68" d="M317.93,627.25c-0.13,0.68,0.23,1.36,0.68,1.89c1.96,2.28,5.34,2.55,8.34,2.65c3.14,0.11,6.29,0.21,9.43,0.32
		c1.43,0.05,2.92,0.09,4.23-0.48c1.32-0.57,2.41-1.92,2.19-3.34C341.6,620.52,319.47,619.44,317.93,627.25z"/>
	<path class="st69" d="M286.26,607.73c-0.5-0.28-3.36-1.88-7.34-2.25c-2-0.18-4.95-0.39-6.45,1.22c-2.1,2.25-0.82,5.96,1.06,8.4
		c3.84,4.97,9.65,8.15,15.72,9.77c6.07,1.62,12.42,1.8,18.7,1.66c3.24-0.07,6.48-0.22,9.72-0.37c1.3-0.06,2.9-0.35,3.27-1.59
		c0.31-1.05-1.26-2.33-2.44-3.21C309.84,615.01,295.72,612.99,286.26,607.73z"/>
	<path class="st74" d="M272.03,580c1.61,1.94,3.75,3.36,5.88,4.72c6.06,3.87,13.04,7.61,20.09,6.21c1.55-0.31,3.31-1.17,3.47-2.74
		c0.07-0.73-0.23-1.44-0.55-2.1c-1.37-2.83-3.19-5.44-5.37-7.7c-1.75-1.82-3.77-3.48-4.88-5.75c-1.41-2.89-1.1-6.32-0.45-9.47
		c0.32-1.58,0.67-3.41-0.35-4.66c-0.36-0.44-0.85-0.74-1.36-0.97c-2.14-0.94-4.68-0.54-6.76,0.51c-2.09,1.05-3.81,2.69-5.5,4.3
		C271.29,567.06,266.74,573.66,272.03,580z"/>
</g>
<g>
	<path class="st65" d="M498.67,524l-0.12,34.08c0.12,2.69-0.45,5.28-1.46,7.73c-2.72,6.65-8.65,12.22-12.79,15.75
		c-8.61,7.36-17.52,10.29-26.39,13.1c-3.02,0.95-5.9,1.74-8.64,2.38c-8.31,1.95-15.15,2.63-19.3,2.93c0,0,0,0-0.01,0
		c-0.67,0.04-1.26,0.07-1.78,0.1c-29.38,1.72-82.88,4.86-116.59-22.57c-7.84-6.38-11.88-12.19-12-18.51v-35.21
		c0.1,5.84,3.57,11.26,10.27,17.08c0.52,0.46,1.04,0.91,1.61,1.37c0.01,0.01,0.04,0.03,0.06,0.04c9.35,7.66,20.24,12.94,31.72,16.52
		c29.66,9.29,63.22,7.3,84.29,6.07c2.42-0.15,6.44-0.43,11.54-1.2c5.11-0.77,11.29-2.05,18.07-4.22c1.22-0.39,2.42-0.77,3.64-1.17
		c4.18-1.38,8.37-2.93,12.5-5.1c0.85-0.45,1.7-0.91,2.54-1.41c0.42-0.24,0.85-0.49,1.26-0.77c0.43-0.25,0.85-0.52,1.26-0.82
		c0.4-0.25,0.79-0.52,1.17-0.8c1.29-0.91,2.57-1.9,3.85-3c1.43-1.23,3.15-2.71,4.91-4.37C493.2,537.27,498.45,530.99,498.67,524z"/>
	<path class="st70" d="M498.67,522.87c0.01,0.3,0.01,0.61,0,0.91V524c-0.22,6.99-5.47,13.28-10.38,17.98
		c-1.75,1.67-3.48,3.14-4.91,4.37c-3.33,2.85-6.69,5.04-10.1,6.81c-4.13,2.17-8.33,3.72-12.5,5.1c-1.22,0.4-2.42,0.79-3.64,1.17
		c-6.78,2.17-12.95,3.45-18.07,4.22c-5.1,0.77-9.11,1.06-11.54,1.2c-21.07,1.23-54.63,3.23-84.29-6.07
		c-11.48-3.58-22.36-8.86-31.72-16.52c-0.01-0.01-0.04-0.03-0.06-0.04c-0.57-0.46-1.09-0.91-1.61-1.37
		c-6.71-5.83-10.17-11.24-10.27-17.08c-0.21-11.27,12.06-19.87,17.19-23.48c6.75-4.73,14.05-6.9,28.65-11.29
		c9.58-2.85,18.6-5.52,31.02-6.77c5.19-0.52,11.61-0.86,21.49-0.46c11.12,0.48,23.92,1.01,37.77,3.82c4.8,0.98,9.72,2.25,14.75,3.87
		C462.73,493.43,497.87,504.76,498.67,522.87z"/>
	<path class="st71" d="M387.01,491.75c-6.16,0.95-12.17,2.19-17.59,3.14c-16.84,2.97-33.24,9.89-45.83,21.45
		c-3.43,3.15-6.87,7.98-3.27,12.4c2.02,2.48,5.33,3.73,8.3,4.66c7.01,2.2,14,4.55,20.68,7.62c6.74,3.1,12.75,7.67,19.65,10.41
		c7.78,3.09,16.34,3.49,24.71,3.43c15.98-0.11,32.35-1.85,46.68-8.92c5.15-2.54,9.96-5.47,15.42-7.33
		c8.36-2.84,22.59-4.89,23.99-15.87c0.7-5.51-3.14-10.78-7.94-13.59c-4.8-2.81-10.43-3.71-15.88-4.82
		c-12.1-2.45-23.95-6.12-35.33-10.93C410.73,489.24,398.59,489.97,387.01,491.75z"/>
	<g>
		<path class="st72" d="M387.44,525.74c0.42-1.19-2.41-3.15-3.77-3.94c-1.27-0.73-3.14-1.72-5.17-1.17
			c-0.91,0.25-1.79,0.84-2.1,1.73c-0.48,1.41,1.35,2.99,2.46,3.66c1.54,0.91,3.07,0.83,4.85,0.73
			C385.5,526.64,387.16,526.54,387.44,525.74z"/>
		<path class="st72" d="M396.15,518.66c-0.65-1.99-0.55-4.26,0.44-6.1c0.54-1.01,1.48-1.94,2.62-1.95c0.52-0.01,1.02,0.18,1.46,0.44
			c2.01,1.21,2.66,3.95,2.11,6.23c-0.31,1.27-1.61,4.73-3.03,5.16C397.87,522.99,396.66,520.23,396.15,518.66z"/>
		<path class="st72" d="M393.44,547.02c-0.41,1.46,0.23,3.24,1.62,3.85c0.5,0.22,1.06,0.28,1.61,0.25c2.36-0.13,4.38-2.02,5.17-4.25
			c0.25-0.7,0.38-1.53-0.02-2.16c-0.33-0.5-0.92-0.76-1.51-0.91C397.67,543.13,394.26,544.11,393.44,547.02z"/>
		<path class="st72" d="M386.36,534.59c-0.97,0.44-1.97,0.9-2.98,1.91c-0.51,0.52-1.47,1.5-1.91,3.1c-0.22,0.81-0.73,2.69,0.42,4.28
			c0.07,0.09,1.15,1.54,3,1.68c1.56,0.11,2.69-0.78,3.51-1.43c0.89-0.7,1.38-1.43,1.67-1.85c1.4-2.07,1.57-4.14,1.67-5.61
			c0.11-1.64,0.17-2.46-0.34-2.93C390.35,532.8,387.93,533.89,386.36,534.59z"/>
		<path class="st72" d="M406.12,532.14c-1.04,0.52-1.18,2.04-1.4,4.4c-0.13,1.39-0.22,2.44,0.36,3.61c0.22,0.44,0.78,1.58,2.06,2.08
			c1.44,0.55,3.18,0.06,4.15-1.07c0.99-1.16,0.85-2.61,0.76-3.57c-0.04-0.46-0.2-1.89-1.26-3.24
			C409.72,533.01,407.53,531.43,406.12,532.14z"/>
		<path class="st72" d="M412.34,521.03c1.7-0.87,3.14-0.84,3.45-0.83c0.91,0.04,2.51,0.1,3.55,1.37c0.99,1.21,1.05,3.01,0.35,4.27
			c-0.63,1.15-1.73,1.55-3.25,2.11c-0.84,0.31-2.09,0.42-4.59,0.66c-1.33,0.12-2.31,0.17-3.19-0.44c-0.24-0.17-0.49-0.34-0.65-0.62
			C407.16,526.03,409.38,522.55,412.34,521.03z"/>
	</g>
	<g>
		<path class="st73" d="M385.18,524.86c0.42-1.19-2.41-3.15-3.77-3.94c-1.27-0.73-3.14-1.72-5.17-1.17
			c-0.91,0.25-1.79,0.84-2.1,1.73c-0.48,1.41,1.35,2.99,2.46,3.66c1.54,0.91,3.07,0.83,4.85,0.73
			C383.23,525.76,384.89,525.66,385.18,524.86z"/>
		<path class="st73" d="M393.88,517.78c-0.65-1.99-0.55-4.26,0.44-6.1c0.54-1.01,1.48-1.94,2.62-1.95c0.52-0.01,1.02,0.18,1.46,0.44
			c2.01,1.21,2.66,3.95,2.11,6.23c-0.31,1.27-1.61,4.73-3.03,5.16C395.6,522.11,394.4,519.35,393.88,517.78z"/>
		<path class="st73" d="M391.17,546.14c-0.41,1.46,0.23,3.24,1.62,3.85c0.5,0.22,1.06,0.28,1.61,0.25c2.36-0.13,4.38-2.02,5.17-4.25
			c0.25-0.7,0.38-1.53-0.02-2.16c-0.33-0.5-0.92-0.76-1.51-0.91C395.4,542.25,391.99,543.23,391.17,546.14z"/>
		<path class="st73" d="M384.1,533.7c-0.97,0.44-1.97,0.9-2.98,1.91c-0.51,0.52-1.47,1.5-1.91,3.1c-0.22,0.81-0.73,2.69,0.42,4.28
			c0.07,0.09,1.15,1.54,3,1.68c1.56,0.11,2.69-0.78,3.51-1.43c0.89-0.7,1.38-1.43,1.67-1.85c1.4-2.07,1.57-4.14,1.67-5.61
			c0.11-1.64,0.17-2.46-0.34-2.93C388.08,531.92,385.66,533,384.1,533.7z"/>
		<path class="st73" d="M403.85,531.26c-1.04,0.52-1.18,2.04-1.4,4.4c-0.13,1.39-0.22,2.44,0.36,3.61c0.22,0.44,0.78,1.58,2.06,2.08
			c1.44,0.55,3.18,0.06,4.15-1.07c0.99-1.16,0.85-2.61,0.76-3.57c-0.04-0.46-0.2-1.89-1.26-3.24
			C407.46,532.13,405.26,530.55,403.85,531.26z"/>
		<path class="st73" d="M410.07,520.15c1.7-0.87,3.14-0.84,3.45-0.83c0.91,0.04,2.51,0.1,3.55,1.37c0.99,1.21,1.05,3.01,0.35,4.27
			c-0.63,1.15-1.73,1.55-3.25,2.11c-0.84,0.31-2.09,0.42-4.6,0.66c-1.33,0.12-2.31,0.17-3.19-0.44c-0.24-0.17-0.49-0.34-0.65-0.62
			C404.89,525.15,407.11,521.67,410.07,520.15z"/>
	</g>
	<path class="st66" d="M498.55,558.07c0.12,2.69-0.45,5.28-1.46,7.73c-2.72,6.65-8.65,12.23-12.79,15.75
		c-8.61,7.36-17.51,10.29-26.39,13.1c-3.02,0.95-5.9,1.74-8.64,2.38c-8.31,1.95-15.15,2.63-19.3,2.93c0,0,0,0-0.01,0
		c-0.67,0.04-1.27,0.07-1.79,0.1c-29.38,1.73-82.88,4.87-116.59-22.57c-7.83-6.38-11.88-12.19-12-18.51v-2.61
		c11.79,3.87,24.43,18.93,50.88,24.11c8.99,1.75,22.12,0.5,48.39-2.02c32.02-3.06,48.24-4.75,58-12.46
		c1.93-1.52,5.33-4.48,8.85-9.48c2.54-0.96,5.07-2.05,7.58-3.37c0.85-0.44,1.7-0.91,2.55-1.41c0.41-0.24,0.84-0.49,1.26-0.77
		c0.43-0.26,0.85-0.53,1.26-0.82c0.41-0.26,0.79-0.52,1.18-0.81c1.29-0.9,2.57-1.9,3.85-3c1.43-1.23,3.15-2.71,4.91-4.37
		c4.9-4.7,10.15-10.99,10.38-17.98L498.55,558.07z"/>
	<path class="st67" d="M498.55,558.07c0.12,2.69-0.45,5.28-1.46,7.73c-2.72,6.65-8.65,12.23-12.79,15.75
		c-8.61,7.36-17.51,10.29-26.39,13.1c-3.02,0.95-5.9,1.74-8.64,2.38c-8.31,1.95-15.15,2.63-19.3,2.93c0,0,0,0-0.01,0
		c-0.67,0.04-1.27,0.07-1.79,0.1c-29.38,1.73-82.88,4.87-116.59-22.57c-4.57-3.72-7.85-7.25-9.81-10.8
		c3.44,2.45,6.93,5.68,9.86,7.41c5.72,3.4,11.68,6.41,17.84,8.92c14.05,5.72,61.38,18.83,116.44,1.47
		c28.86-9.09,33.31-18.16,34.52-21.13c2.19-5.39,1.72-10.46,3.31-17.33c1.35-1.16,2.93-2.54,4.55-4.06
		c4.9-4.7,10.15-10.99,10.38-17.98L498.55,558.07z"/>
	<path class="st68" d="M322.53,556.11c-2.55-1.87-5.3-3.8-8.45-3.99s-6.67,2.2-6.43,5.35c0.1,1.34,0.83,2.54,1.59,3.65
		c6.29,9.21,15.79,16.17,26.45,19.41c8.74,2.65,18.02,2.82,27.15,2.96c14.41,0.22,29.15,0.36,42.8-4.25
		c1.94-0.66,4.27-2.2,3.64-4.15c-17.05-3.73-32.83-2.07-49.95-2.37C345.42,572.46,333.32,564.02,322.53,556.11z"/>
	<path class="st69" d="M309.94,556.57c-1.66,1.41-3.61,4.76-2.67,7.43c0.33,0.94,0.92,1.54,1.43,2.01
		c5.42,4.97,13.58,5.6,17.86,5.93c1.1,0.09,2.72,0.33,4.11-0.68C342.21,562.92,319.23,548.67,309.94,556.57z"/>
	<path class="st69" d="M342.93,574.13c1.94,4.41,7.55,5.18,15.97,6.34c2.5,0.34,5.46,0.34,8.12-1.17c1-0.57,1.95-1.51,1.89-2.66
		c-0.06-1.25-1.4-2.17-2.26-2.69c-3.25-1.97-19.16-11.58-23.47-6.49C341.61,569.32,342.18,572.42,342.93,574.13z"/>
	<path class="st74" d="M336.43,515.02c-2.62,2.54-4.54,6.03-4.4,9.68c0.04,0.92,0.22,1.89,0.82,2.59c0.43,0.5,1.03,0.82,1.61,1.13
		c2.44,1.29,4.93,2.59,7.63,3.16c2.7,0.58,5.7,0.35,7.96-1.24c2.62-1.84,3.79-5.06,5.56-7.72c4.02-6.02,11.11-9.03,17.48-12.47
		c3.82-2.06,6.54-6.6,1.42-9.22c-3.36-1.72-8.83-0.89-12.25,0.42C353.96,504.54,342.86,508.81,336.43,515.02z"/>
	<path class="st74" d="M435.73,521.46c-2.91,3.01-6.45,5.33-9.51,8.18c-3.06,2.85-5.73,6.48-6.08,10.65
		c-0.07,0.8-0.01,1.69,0.55,2.27c0.47,0.48,1.19,0.62,1.87,0.66c5.19,0.32,9.59-3.5,14.37-5.57c3.44-1.5,7.2-2.1,10.74-3.36
		c3.54-1.26,7.04-3.39,8.58-6.82c2.07-4.61-0.41-10.56-4.95-12.8c-3.08-1.51-6.78-1.35-9.88,0.01
		C437.73,516.3,438.22,518.87,435.73,521.46z"/>
</g>
<g>
	<path class="st65" d="M456.66,681.88l-0.12,36.04c0.45,10.54-8.59,19.72-14.24,24.83c-8.61,7.78-17.52,10.87-26.39,13.84
		c-13.62,4.56-24.89,5.43-29.74,5.72c-29.38,1.83-82.88,5.14-116.59-23.86c-7.84-6.75-11.88-12.89-12-19.58v-37.23
		c0.1,6.19,3.57,11.91,10.27,18.07c0.54,0.51,1.09,1,1.67,1.5c9.35,8.09,20.24,13.68,31.72,17.46c29.66,9.83,63.22,7.73,84.29,6.42
		c4.83-0.31,16.04-1.16,29.6-5.74c1.22-0.4,2.42-0.82,3.64-1.25c7.61-2.66,15.23-5.89,22.6-12.59c1.43-1.29,3.15-2.85,4.91-4.62
		C451.19,695.91,456.44,689.27,456.66,681.88z"/>
	<path class="st70" d="M456.66,680.69c0.01,0.31,0.01,0.64,0,0.95v0.24c-0.22,7.39-5.47,14.04-10.38,19
		c-1.75,1.77-3.48,3.33-4.91,4.62c-7.38,6.71-14.99,9.93-22.6,12.59c-1.22,0.43-2.42,0.85-3.64,1.25
		c-13.56,4.58-24.77,5.43-29.6,5.74c-21.07,1.31-54.63,3.4-84.29-6.42c-11.48-3.78-22.36-9.37-31.72-17.46
		c-0.58-0.51-1.13-1-1.67-1.5c-6.71-6.16-10.17-11.88-10.27-18.07c-0.21-11.93,12.06-21.01,17.19-24.83
		c6.75-5,14.05-7.3,28.65-11.92c0.59-0.19,1.19-0.37,1.78-0.57c8.94-2.81,17.59-5.37,29.23-6.6c5.19-0.55,11.61-0.91,21.49-0.48
		c14.32,0.64,31.42,1.38,49.96,7.29c0.85,0.27,1.7,0.54,2.56,0.83C420.73,649.55,455.86,661.52,456.66,680.69z"/>
	<path class="st71" d="M353.41,650.68c-25.46,2.06-40.69,4.72-55.52,9.39c-15.88,5-22.08,9.41-23.27,15.11
		c-0.23,1.11-0.52,3.44,0.82,6.94c7.69,20.14,48.74,25.88,54.68,26.71c7.11,0.99,3.31,0.25,33.79,1.96c7.04,0.4,14.12,0.79,21.12,0
		c6.5-0.74,12.84-2.48,19.11-4.34c5.29-1.57,10.57-3.23,15.53-5.62c2.12-1.02,26.32-12.69,24.91-23.23
		c-0.29-2.18-1.75-4.83-16.04-11.81c-17.3-8.44-31.93-15.58-53.27-16.47C371.94,649.18,365.76,649.68,353.41,650.68z"/>
	<g>
		<path class="st72" d="M338.61,674.86c-0.97-1.04-1.6-2.41-1.66-3.82c-0.06-1.42,0.49-2.87,1.54-3.82
			c0.94-0.85,2.26-1.27,3.52-1.11c1.26,0.16,2.44,0.89,3.14,1.95c0.85,1.29,0.97,2.91,1.07,4.45c0.1,1.67,1.12,5.33-1.48,5.32
			C342.71,677.82,339.96,676.31,338.61,674.86z"/>
		<path class="st72" d="M364.53,673.71c1.85-1.15,3.92-1.86,5.92-2.7c1.17-0.5,2.35-1.05,3.62-1.18c2.3-0.23,4.67,1.15,5.59,3.26
			c0.92,2.12,0.3,4.81-1.48,6.28c-1.6,1.33-3.81,1.61-5.89,1.64c-2.94,0.05-7.19,0.09-9.84-1.35
			C359.25,677.93,362.64,674.88,364.53,673.71z"/>
		<path class="st72" d="M383.93,691.54c1.02,0.03,2.04,0.02,3.05-0.1c0.59-0.07,1.25-0.23,1.53-0.75c0.34-0.62-0.06-1.38-0.51-1.93
			c-2.04-2.44-6.73-4.86-9.79-2.82c-1.37,0.91-1.34,2.25-0.34,3.48C379.31,691.2,381.79,691.48,383.93,691.54z"/>
		<path class="st72" d="M336.08,694.41c-0.22,1.16-0.09,2.36,0.19,3.51c0.3,1.24,0.84,2.51,1.9,3.2c1.03,0.66,2.34,0.66,3.55,0.53
			c0.53-0.06,1.06-0.14,1.54-0.36c1.14-0.52,1.81-1.71,2.24-2.89c0.97-2.69,2.23-8.75-1.43-10.08
			C340.7,687.09,336.65,691.4,336.08,694.41z"/>
		<path class="st72" d="M362.24,698.33c1.2,1.82,3.23,3.2,5.41,3.2c2.88,0,5.47-2.72,5.33-5.59c-0.03-0.54-0.14-1.09-0.44-1.54
			c-0.55-0.83-1.59-1.16-2.52-1.52c-1.74-0.67-3.36-1.65-4.78-2.85c-1.08-0.92-2.46-2.75-3.99-1.58
			C358.85,690.3,360.94,696.36,362.24,698.33z"/>
		<path class="st72" d="M336.81,681.62c0.12-1.99-7.52-5.15-14.19-3.45c-1.58,0.4-3.65,0.96-4.65,2.86c-1,1.9-0.64,4.58,0.93,6.1
			c1.68,1.63,4.13,1.33,5.39,1.18c2.69-0.33,3.22-1.5,8.63-4.36C336.07,682.28,336.77,682.21,336.81,681.62z"/>
	</g>
	<g>
		<path class="st73" d="M336.66,673.08c-0.97-1.04-1.6-2.41-1.66-3.82c-0.06-1.42,0.49-2.87,1.54-3.82
			c0.94-0.85,2.26-1.27,3.52-1.11s2.44,0.89,3.14,1.95c0.85,1.29,0.97,2.91,1.07,4.45c0.1,1.67,1.12,5.33-1.48,5.32
			C340.75,676.04,338.01,674.53,336.66,673.08z"/>
		<path class="st73" d="M362.58,671.93c1.85-1.15,3.92-1.86,5.92-2.7c1.17-0.5,2.35-1.05,3.62-1.18c2.3-0.23,4.67,1.15,5.59,3.26
			c0.92,2.12,0.3,4.81-1.48,6.28c-1.6,1.33-3.81,1.61-5.89,1.64c-2.94,0.05-7.19,0.09-9.84-1.35
			C357.3,676.16,360.69,673.11,362.58,671.93z"/>
		<path class="st73" d="M381.98,689.77c1.02,0.03,2.04,0.02,3.05-0.1c0.59-0.07,1.25-0.23,1.53-0.75c0.34-0.62-0.06-1.38-0.51-1.93
			c-2.04-2.44-6.73-4.86-9.79-2.82c-1.37,0.91-1.34,2.25-0.34,3.48C377.36,689.43,379.84,689.71,381.98,689.77z"/>
		<path class="st73" d="M334.12,692.63c-0.22,1.16-0.09,2.36,0.19,3.51c0.3,1.24,0.84,2.51,1.9,3.2c1.03,0.66,2.34,0.66,3.55,0.53
			c0.53-0.06,1.06-0.14,1.54-0.36c1.14-0.52,1.81-1.71,2.24-2.89c0.97-2.69,2.23-8.75-1.43-10.08
			C338.75,685.31,334.69,689.63,334.12,692.63z"/>
		<path class="st73" d="M360.29,696.56c1.2,1.82,3.23,3.2,5.41,3.2c2.88,0,5.47-2.72,5.33-5.59c-0.03-0.54-0.14-1.09-0.44-1.54
			c-0.55-0.83-1.59-1.16-2.52-1.52c-1.74-0.67-3.36-1.65-4.78-2.85c-1.08-0.91-2.46-2.75-3.99-1.58
			C356.89,688.53,358.98,694.58,360.29,696.56z"/>
		<path class="st73" d="M334.85,679.84c0.12-1.99-7.52-5.15-14.19-3.45c-1.58,0.4-3.65,0.96-4.65,2.86c-1,1.9-0.64,4.58,0.93,6.1
			c1.68,1.63,4.13,1.33,5.39,1.18c2.69-0.33,3.22-1.5,8.63-4.36C334.12,680.5,334.82,680.44,334.85,679.84z"/>
	</g>
	<path class="st66" d="M456.66,681.88l-0.12,36.05c0.45,10.54-8.59,19.71-14.24,24.83c-8.61,7.77-17.52,10.87-26.39,13.84
		c-13.62,4.56-24.89,5.43-29.74,5.72c-29.38,1.83-82.88,5.15-116.59-23.86c-7.84-6.75-11.88-12.89-12-19.58v-1.66
		c13.88,0.63,39.46,18.22,46.82,21.37c12.64,5.41,26.08,9.38,39.95,9.09c14.74-0.3,29.08-5.34,43.81-5.57
		c7.89-0.12,16.95,0.2,23.25-5.38c5.16-4.57,6.77-11.78,7.71-18.75c7.5-2.64,14.99-5.86,22.26-12.47c1.43-1.29,3.15-2.86,4.9-4.62
		C451.19,695.92,456.44,689.27,456.66,681.88z"/>
	<path class="st67" d="M456.66,681.88l-0.12,36.05c0.45,10.54-8.59,19.71-14.24,24.83c-8.61,7.77-17.52,10.87-26.39,13.84
		c-13.62,4.56-24.89,5.43-29.74,5.72c-29.38,1.83-82.88,5.15-116.59-23.86c-7.84-6.75-11.88-12.89-12-19.58v-1.66
		c0.6,0.03,1.22,0.09,1.86,0.18c9.11,3.96,16.63,9.6,22.46,14.04c11.77,8.97,11.52,10.4,19.4,15.76c9.49,6.45,22.17,6.63,33.2,6.81
		c15.51,0.25,31.01,0.5,46.51,0.75c8.45,0.13,16.72,0.03,24.1-4.54c13.6-8.42,33.37-21.42,33.72-39.23
		c0.02-1.07-0.02-2.15-0.09-3.22c0.88-0.71,1.76-1.46,2.64-2.26c1.43-1.29,3.15-2.86,4.9-4.62
		C451.19,695.92,456.44,689.27,456.66,681.88z"/>
	<path class="st68" d="M274.1,711.74c-3.05-1.85-7.37-3.57-9.8-0.96c-2.11,2.27-0.9,5.96,0.76,8.57c3.29,5.18,7.87,9.43,12.79,13.11
		c3.85,2.88,7.76,5.19,14.06,7.69c19.21,7.61,57.97,13.42,89.6,1.73c3.62-1.34,11.82-4.43,11.51-7.29
		c-0.32-2.88-9.08-4.42-10.87-4.29c-8.45,0.64-16.7,2.82-25.1,3.97C326.53,738.47,299.63,727.22,274.1,711.74z"/>
	<path class="st69" d="M277.82,718.83c2.23,5.25,7.44,8.05,10.77,9.6c14.61,6.83,23.49,5.79,34.65,5.4
		c1.75-0.06,3.59-0.15,5.07-1.08c0.44-0.28,1-0.93,0.97-1.52c-0.13-2.55-12.41-2.05-27.63-7.13c-7.24-2.42-11.32-4.11-11.32-4.11
		c-7.24-3-11.7-5.59-12.87-4.26C276.82,716.45,277.44,717.94,277.82,718.83z"/>
	<path class="st74" d="M286.06,670.34c0.39-4.13,2.44-8.25,6-10.38c1.89-1.13,4.09-1.65,6.24-2.15c9.05-2.1,18.11-4.2,27.28-5.71
		c3.11-0.51,6.85-0.74,8.85,1.7c0.38,0.46,0.67,1.03,0.6,1.62c-0.14,1.15-1.49,1.66-2.61,1.95c-7.68,1.99-15.21,4.56-22.5,7.69
		c-3.29,1.41-6.59,2.97-9.23,5.38c-2.75,2.5-7.43,14.81-10.61,14.41C285.86,684.34,285.81,673.05,286.06,670.34z"/>
	<path class="st74" d="M350.28,657.85c0.02,0.24,0.07,0.49,0.21,0.68c0.27,0.36,0.78,0.41,1.23,0.43
		c9.05,0.43,18.06,1.72,26.87,3.84c1.15,0.28,2.34,0.57,3.5,0.34c1.16-0.23,2.28-1.15,2.32-2.33c0.04-1.25-1.06-2.22-2.1-2.91
		C378.11,655.11,349.27,645.67,350.28,657.85z"/>
	<path class="st74" d="M395.49,686.38c-1.34,3.4-3.36,6.57-4.04,10.15c-0.08,0.44-0.15,0.92,0.01,1.34
		c0.21,0.58,0.78,0.95,1.34,1.21c3.52,1.61,7.64,0.3,11.19-1.26c5.06-2.23,9.89-4.96,14.41-8.15c1.85-1.3,3.7-2.75,4.72-4.76
		c2.06-4.07,0.05-9.09-2.9-12.57c-4.1-4.83-14.6-11.47-21.38-8.84c-4.26,1.66-2.26,5.02-1.73,8.61
		C397.8,676.9,397.26,681.88,395.49,686.38z"/>
</g>
<g>
	<path class="st70" d="M705.16,632.94c-0.04,7.15-5.4,13.68-13,19.26c-11.78,8.67-28.95,15.06-40.24,17.98
		c-0.67,0.18-1.34,0.34-1.99,0.49c-11.15,2.68-20.94,3.2-28.33,3.57c-5.17,0.27-22.23,0.95-38.91-1.9
		c-4.25-0.73-8.92-1.75-13.77-3.06c-15.85-4.25-33.62-11.4-45.23-20.24c-7.64-5.81-12.61-12.36-12.61-19.29v-0.15
		c0.13-12.86,17.35-22.9,25.55-27.69c13.03-7.6,25.56-9.17,41.77-11.21c12.43-1.56,22.82-1.65,30.32-1.44
		c24.62,0.73,57.01,1.67,81.87,22.91C698.14,618.64,705.2,624.66,705.16,632.94z"/>
	<path class="st65" d="M705.16,632.94v38.67c-0.13,18.23-34.67,32.43-53.23,37.23c-11.98,3.11-22.5,3.66-30.32,4.06
		c-5.17,0.27-22.23,0.95-38.91-1.9c-27.4-4.7-71.82-21.98-71.61-42.73v-38.53c0,6.93,4.97,13.47,12.61,19.29
		c11.61,8.83,29.38,15.98,45.23,20.24c4.85,1.31,9.52,2.33,13.77,3.06c16.68,2.85,33.74,2.17,38.91,1.9
		c7.39-0.37,17.17-0.89,28.33-3.57c0.65-0.15,1.32-0.31,1.99-0.49c11.29-2.91,28.46-9.31,40.24-17.98
		C699.76,646.62,705.11,640.09,705.16,632.94z"/>
	<path class="st71" d="M578.92,599.55c0,0-20.71,2.73-42.66,16.18c-1.79,1.1-5,3.31-6.18,7.07c-1.25,3.99,0.74,8.26,3.18,11.65
		c7.95,11.06,20.8,17.59,33.79,21.7c35.88,11.34,76.54,6.49,108.75-12.97c3.11-1.88,6.29-4.04,7.87-7.31
		c2.58-5.31-0.01-11.98-4.45-15.88c-4.44-3.9-10.3-5.68-15.96-7.35c-6.68-1.97-13.36-3.94-20.03-5.91
		c-15.09-4.45-22.84-5.93-23.49-6.06C615.44,599.81,599.44,596.84,578.92,599.55z"/>
	<g>
		<path class="st72" d="M599.95,623.57c-1.1-0.53-2.23-1.09-3.02-2.01c-0.79-0.92-1.17-2.32-0.56-3.38
			c0.49-0.85,1.51-1.29,2.49-1.27s1.91,0.45,2.72,1.01c1.71,1.18,3.66,3.64,3.68,5.85C605.29,627.37,602.03,624.58,599.95,623.57z"
			/>
		<path class="st72" d="M595.37,646.13c-0.46,1.71,0.57,3.92,2.34,3.98c0.55,0.02,1.08-0.17,1.59-0.39
			c2.59-1.13,5.95-5.38,3.03-8.01C599.81,639.45,596.02,643.75,595.37,646.13z"/>
		<path class="st72" d="M599.37,629.62c-0.25-2.55-6.47-3.95-10.62-3.86c-3.48,0.08-4.8,1.19-5.17,1.54
			c-1.17,1.08-2.25,3.04-1.75,5.06c0.72,2.89,4.15,3.73,4.67,3.86c2.53,0.62,4.62-0.36,6.69-1.33
			C595,634.04,599.59,631.88,599.37,629.62z"/>
		<path class="st72" d="M617.15,643.92c0.33,1.08,0.8,2.14,1.6,2.94c1.18,1.19,3.04,1.66,4.65,1.18c1.73-0.52,2.92-2,3.23-3.55
			c0.42-2.06-0.82-3.67-1.52-4.58c-1.78-2.32-5.44-4.59-7.37-3.34C615.49,638.03,616.98,643.36,617.15,643.92z"/>
		<path class="st72" d="M621.25,619.48c1.55-0.51,5.8-1.91,8.2,0.48c1.52,1.51,2.1,4.32,0.93,6.14c-0.42,0.65-1.26,1.49-3.82,2.02
			c-4.83,1.01-11.87,0.14-12.4-2.53C613.73,623.36,618.03,620.55,621.25,619.48z"/>
		<path class="st72" d="M626.24,634.61c-0.17,2.22,6.43,5.09,12.06,4.5c2.65-0.28,3.41-1.15,3.7-1.61c0.87-1.38,0.34-3.41-0.63-4.62
			c-1-1.24-2.38-1.53-3.69-1.81c-3.14-0.67-5.74,0.27-7.06,0.76C628.29,632.7,626.33,633.44,626.24,634.61z"/>
	</g>
	<g>
		<path class="st73" d="M597.86,621.89c-1.1-0.53-2.23-1.09-3.02-2.01c-0.79-0.92-1.17-2.32-0.56-3.38
			c0.49-0.85,1.51-1.29,2.49-1.27c0.98,0.02,1.91,0.45,2.72,1.01c1.71,1.18,3.66,3.64,3.68,5.85
			C603.19,625.69,599.94,622.9,597.86,621.89z"/>
		<path class="st73" d="M593.27,644.46c-0.46,1.71,0.57,3.92,2.34,3.98c0.55,0.02,1.08-0.17,1.59-0.39
			c2.59-1.13,5.95-5.38,3.03-8.01C597.72,637.78,593.92,642.07,593.27,644.46z"/>
		<path class="st73" d="M597.28,627.95c-0.25-2.55-6.47-3.95-10.62-3.86c-3.48,0.08-4.8,1.19-5.17,1.54
			c-1.17,1.08-2.25,3.04-1.75,5.06c0.72,2.89,4.15,3.73,4.67,3.86c2.53,0.62,4.62-0.36,6.69-1.33
			C592.91,632.36,597.5,630.21,597.28,627.95z"/>
		<path class="st73" d="M615.06,642.25c0.33,1.08,0.8,2.14,1.6,2.94c1.18,1.19,3.04,1.66,4.65,1.18c1.73-0.52,2.92-2,3.23-3.55
			c0.42-2.06-0.82-3.67-1.52-4.58c-1.78-2.32-5.44-4.59-7.37-3.34C613.4,636.36,614.89,641.68,615.06,642.25z"/>
		<path class="st73" d="M619.16,617.81c1.55-0.51,5.8-1.91,8.2,0.48c1.52,1.51,2.1,4.32,0.93,6.14c-0.42,0.65-1.26,1.49-3.82,2.02
			c-4.83,1.01-11.87,0.14-12.4-2.53C611.64,621.69,615.93,618.88,619.16,617.81z"/>
		<path class="st73" d="M624.15,632.94c-0.17,2.22,6.43,5.09,12.06,4.5c2.65-0.28,3.41-1.15,3.7-1.61c0.87-1.38,0.34-3.41-0.63-4.62
			c-1-1.24-2.38-1.53-3.69-1.81c-3.14-0.67-5.74,0.27-7.06,0.76C626.19,631.03,624.24,631.76,624.15,632.94z"/>
	</g>
	<path class="st66" d="M705.16,632.94v38.68c-0.13,18.22-34.67,32.42-53.23,37.23c-11.98,3.11-22.5,3.66-30.32,4.06
		c-5.17,0.26-22.23,0.95-38.91-1.91c-25.62-4.4-66.11-19.78-71.11-38.72c10.59-5.75,30.59,12.43,39.1,15.99
		c7.02,2.94,14.73,3.65,22.3,4.33c15.24,1.36,30.48,2.72,45.72,4.09c6.52,0.58,13.22,1.15,19.48-0.75
		c7.91-2.39,14.26-8.55,18.49-15.66c2.48-4.18,4.32-8.69,5.83-13.33c9.87-3.44,21.17-8.51,29.66-14.75
		C699.77,646.62,705.12,640.09,705.16,632.94z"/>
	<path class="st67" d="M705.16,632.94v38.68c-0.13,18.22-34.67,32.42-53.23,37.23c-11.98,3.11-22.5,3.66-30.32,4.06
		c-5.17,0.26-22.23,0.95-38.91-1.91c-25.62-4.4-66.11-19.78-71.11-38.72c1.9-1.03,4.1-1.29,6.48-1.01
		c6.68,6.38,9.61,13.78,18.75,20.48c6.38,4.69,16.42,6.73,36.49,10.81c10.58,2.15,22.45,4.51,38.4,4.64
		c12.23,0.1,21.74,0.09,33.24-3.96c4.43-1.56,9.07-3.87,18.35-8.5c12.57-6.26,14.26-8.04,15.18-9.11c5.37-6.22,6.43-15.07,6-23.28
		c-0.09-1.66-0.22-3.33-0.38-4.99c2.86-1.61,5.58-3.33,8.07-5.16C699.77,646.62,705.12,640.09,705.16,632.94z"/>
	<path class="st68" d="M525.33,676.68c5.82,4.89,13.07,7.75,20.33,10.02c25.39,7.94,52.32,9.57,78.92,9.31
		c11.64-0.11,24.55-1.12,32.58-9.55c0.56-0.59,1.11-1.25,1.26-2.04c0.24-1.26-0.58-2.48-1.5-3.38c-4.48-4.38-11.48-4.65-17.73-4.25
		c-24.84,1.57-50.98,9.33-74.94-0.96c-8.8-3.78-17.59-12.2-26.78-14.42C527.77,659.07,514.76,667.8,525.33,676.68z"/>
	<path class="st69" d="M524.66,662c-2.32-0.13-5.16,0.29-6.05,2.44c-0.8,1.94,0.52,4.08,1.9,5.66c6.71,7.68,16.29,12.41,26.16,14.96
		s20.14,3.11,30.33,3.65c1.07,0.06,2.41-0.04,2.82-1.03c0.27-0.65-0.02-1.4-0.36-2.02c-4.66-8.53-17.78-11.53-26.44-13.71
		C543.08,669.45,535.23,662.59,524.66,662z"/>
	<path class="st74" d="M544.79,633.22c2.79,2.19,6.98,1.45,9.92-0.53c2.94-1.98,5.04-4.94,7.52-7.48c3.79-3.88,8.54-6.8,13.71-8.44
		c4.63-1.46,9.94-2.12,13.11-5.8c0.75-0.87,1.34-2.16,0.71-3.12c-0.31-0.47-0.83-0.73-1.34-0.96c-8.1-3.7-17.59-4.25-26.06-1.5
		c-6.51,2.12-12.41,6.17-16.74,11.47C542.24,621.01,539.64,629.16,544.79,633.22z"/>
	<path class="st74" d="M659.2,647.19c-2.04,3.65-5.51,6.91-5.41,11.08c0.01,0.62,0.12,1.26,0.45,1.79c0.4,0.62,1.07,1.01,1.76,1.27
		c3.38,1.26,7.12-0.33,10.23-2.16c7.66-4.51,14.27-10.77,19.21-18.16c2.56-3.84,4.74-8.35,3.99-12.9
		c-0.91-5.57-5.86-9.49-10.65-12.48c-3.36-2.1-6.99-4.07-10.95-4.26c-2.1-0.1-4.32,0.37-5.86,1.8c-4.28,3.99-2.17,10.54-0.94,15.19
		C662.6,634.33,662.27,641.69,659.2,647.19z"/>
</g>
</svg>
