<?xml version="1.0" encoding="utf-8"?>
<!-- Generator: Adobe Illustrator 28.0.0, SVG Export Plug-In . SVG Version: 6.00 Build 0)  -->
<svg version="1.1" id="Layer_1" xmlns="http://www.w3.org/2000/svg" xmlns:xlink="http://www.w3.org/1999/xlink" x="0px" y="0px"
	 viewBox="0 0 1080 1080" style="enable-background:new 0 0 1080 1080;" xml:space="preserve">
<style type="text/css">
	.st0{fill:none;stroke:#C1873A;stroke-width:16;stroke-linecap:round;stroke-linejoin:round;stroke-miterlimit:10;}
	.st1{fill:#E2D0E1;}
	.st2{fill:#EDE6EE;}
	.st3{fill:#DA9E53;}
	.st4{fill:#C98D4C;}
	.st5{fill:#DD6A6E;}
	.st6{fill:#D1626B;}
	.st7{fill:#F3EFF4;}
	.st8{fill:#C45C69;}
	.st9{fill:#FFB92E;}
	.st10{opacity:0.5;fill:#96A488;}
	.st11{fill:#F0F3EC;}
	.st12{fill:#E5E9E0;}
	.st13{fill:#B5CAD2;}
	.st14{fill:none;stroke:#009245;stroke-width:4;stroke-miterlimit:10;}
	.st15{fill:none;stroke:#009245;stroke-width:4;stroke-linecap:round;stroke-linejoin:round;stroke-miterlimit:10;}
	.st16{fill:none;stroke:#009245;stroke-width:4.1082;stroke-linecap:round;stroke-linejoin:round;stroke-miterlimit:10;}
	.st17{fill:none;stroke:#000000;stroke-width:1.9946;stroke-miterlimit:10;}
	.st18{fill:none;stroke:#000000;stroke-width:1.8919;stroke-miterlimit:10;}
	.st19{fill:none;stroke:#000000;stroke-width:1.924;stroke-miterlimit:10;}
	.st20{fill:none;stroke:#000000;stroke-width:1.924;stroke-linecap:round;stroke-linejoin:round;stroke-miterlimit:10;}
	.st21{fill:none;stroke:#000000;stroke-width:1.7309;stroke-linecap:round;stroke-linejoin:round;stroke-miterlimit:10;}
	.st22{fill:none;stroke:#000000;stroke-width:2;stroke-miterlimit:10;}
	.st23{fill:none;stroke:#000000;stroke-width:2;stroke-linecap:round;stroke-linejoin:round;stroke-miterlimit:10;}
	.st24{fill:#FFC257;}
	.st25{fill:#EDA229;}
	.st26{fill:#DD8E1B;}
	.st27{fill:#FFD085;}
	.st28{fill:none;stroke:#000000;stroke-width:3.4146;stroke-linecap:round;stroke-linejoin:round;stroke-miterlimit:10;}
	.st29{fill:none;stroke:#000000;stroke-width:1.8379;stroke-linecap:round;stroke-linejoin:round;stroke-miterlimit:10;}
	.st30{fill:none;stroke:#000000;stroke-linecap:round;stroke-linejoin:round;stroke-miterlimit:10;}
	.st31{fill:#D1D6CC;}
	.st32{fill:#F4DC98;}
	.st33{fill:#E9D2A3;}
	.st34{fill:#DAA765;}
	.st35{fill:#D09E62;}
	.st36{opacity:0.5;fill:#EDE1CA;}
	.st37{opacity:0.3;fill:#AF8056;}
	.st38{opacity:0.28;fill:#AF8056;}
	.st39{fill:#F3814A;}
	.st40{fill:#CF602F;}
	.st41{fill:#C35233;}
	.st42{fill:#F38A62;}
	.st43{opacity:0.2;fill:#FFFFFF;}
	.st44{opacity:0.37;fill:#DA7446;}
	.st45{opacity:0.1;fill:#FFFFFF;}
	.st46{opacity:0.08;fill:#FFFFFF;}
	.st47{opacity:0.3;fill:#997552;enable-background:new    ;}
	.st48{fill:#E5C98C;}
	.st49{opacity:0.6;fill:#F9E4BB;enable-background:new    ;}
	.st50{opacity:0.8;fill:#F9E4BB;enable-background:new    ;}
	.st51{fill:#618828;}
	.st52{fill:#92A931;}
	.st53{fill:#809A2C;}
	.st54{opacity:0.6;fill:#92A931;}
	.st55{opacity:0.6;fill:#618828;}
	.st56{opacity:0.25;fill:#E9D2A3;}
	.st57{fill:#E59055;}
	.st58{fill:#CE814D;}
	.st59{fill:#AF6C3E;}
	.st60{fill:#EFA16C;}
	.st61{fill:#FFBB8D;}
	.st62{fill:#E4C88B;}
	.st63{opacity:0.7;fill:#F8E3BA;}
	.st64{opacity:0.35;fill:#FFFFFF;}
	.st65{fill:#4D851D;}
	.st66{fill:#437A0F;}
	.st67{fill:#3B680B;}
	.st68{fill:#5B9324;}
	.st69{fill:#77B234;}
	.st70{fill:#E8EECB;}
	.st71{fill:#EFF4D4;}
	.st72{fill:#E3E8BF;}
	.st73{fill:#F9FFE1;}
	.st74{fill:#FCFFE9;}
	.st75{fill:#BF2C5A;}
	.st76{fill:#AF2859;}
	.st77{fill:#A3285A;}
	.st78{fill:#F3CEE4;}
	.st79{fill:#FFE3F7;}
	.st80{fill:#FFF8FD;}
	.st81{fill:#DBA9C9;}
	.st82{fill:#C9356A;}
	.st83{fill:#E0518B;}
	.st84{fill:#F96EA0;}
	.st85{fill:#A07A50;}
	.st86{fill:#BC916D;}
	.st87{fill:#936E4A;}
	.st88{fill:none;}
	.st89{fill:#E1AE4F;}
	.st90{fill:#D69F45;}
	.st91{fill:#C1873A;}
	.st92{fill:#E8B564;}
	.st93{fill:#F4C376;}
	.st94{fill:#AA7331;}
	.st95{fill:#839E39;}
	.st96{fill:#959F38;}
	.st97{fill:#8FAA44;}
	.st98{fill:#A8BF55;}
	.st99{fill:#708426;}
	.st100{fill:#FFCC73;}
	.st101{fill:#EDCC8C;}
	.st102{fill:#FFDDA1;}
	.st103{fill:#DDBB80;}
	.st104{fill:#FFE8C2;}
	.st105{fill:#CEA974;}
	.st106{fill:none;stroke:#E1AE4F;stroke-width:16;stroke-linecap:round;stroke-linejoin:round;stroke-miterlimit:10;}
	.st107{fill:none;stroke:#D69F45;stroke-width:16;stroke-linecap:round;stroke-linejoin:round;stroke-miterlimit:10;}
	.st108{fill:none;stroke:#F4C376;stroke-width:16;stroke-linecap:round;stroke-linejoin:round;stroke-miterlimit:10;}
	.st109{fill:none;stroke:#C1873A;stroke-width:5.6205;stroke-linecap:round;stroke-linejoin:round;stroke-miterlimit:10;}
	.st110{fill:none;stroke:#E1AE4F;stroke-width:5.6205;stroke-linecap:round;stroke-linejoin:round;stroke-miterlimit:10;}
	.st111{fill:none;stroke:#D69F45;stroke-width:5.6205;stroke-linecap:round;stroke-linejoin:round;stroke-miterlimit:10;}
	.st112{fill:none;stroke:#F4C376;stroke-width:5.6205;stroke-linecap:round;stroke-linejoin:round;stroke-miterlimit:10;}
	.st113{fill:none;stroke:#F4C376;stroke-width:5.2674;stroke-linecap:round;stroke-linejoin:round;stroke-miterlimit:10;}
	.st114{fill:none;stroke:#EDCC8C;stroke-width:5.8805;stroke-linecap:round;stroke-linejoin:round;stroke-miterlimit:10;}
	.st115{fill:none;stroke:#FFDDA1;stroke-width:5.8805;stroke-linecap:round;stroke-linejoin:round;stroke-miterlimit:10;}
	.st116{fill:none;stroke:#FFE8C2;stroke-width:5.8805;stroke-linecap:round;stroke-linejoin:round;stroke-miterlimit:10;}
	.st117{fill:none;stroke:#D1626B;stroke-width:5.2388;stroke-miterlimit:10;}
	.st118{fill:none;stroke:#D1626B;stroke-width:5.4518;stroke-miterlimit:10;}
	.st119{fill:none;stroke:#DD6A6E;stroke-width:5.2388;stroke-miterlimit:10;}
	.st120{fill:none;stroke:#AD4D58;stroke-width:5.0375;stroke-miterlimit:10;}
	.st121{fill:none;stroke:#D1626B;stroke-width:4.8407;stroke-miterlimit:10;}
	.st122{fill:none;stroke:#D1626B;stroke-width:5.0375;stroke-miterlimit:10;}
	.st123{fill:none;stroke:#DD6A6E;stroke-width:4.8407;stroke-miterlimit:10;}
</style>
<g>
	<path class="st32" d="M847.45,640.85c-2.25,15.19-10.94,41.69-55.57,72.33c-70.26,48.25-163.37,61.28-253.01,55.19h-0.06
		c-30.13-2.05-59.87-6.27-88.21-12.02c-0.01,0-0.01,0-0.02,0c-102.31-20.78-186.47-61.72-205.44-94.05
		c-0.33-0.57-0.65-1.13-0.65-1.14c-5.54-9.65-33.63-61.71-10.95-106.06c24.15-47.21,89.31-53.38,98.31-54.1
		c3.46-8.3,10.27-21.81,23.31-33.56c38.96-35.12,84.95-10.75,137.06-47.56c24.72-17.45,32.2-35.52,34.5-41.95
		c1.86-5.18,6.86-19.71,3.73-37.3c-3.01-16.98-11.04-22.41-8.73-25.52c2.75-3.68,17.8-1.14,37.5,7.79
		c11.85,5.36,25.37,13.04,38.9,23.07l0.01,0.01c0.01,0,0.01,0.01,0.01,0.01c0.01,0.01,0.03,0.02,0.04,0.02
		c17.06,12.65,34.14,29.03,47.86,49.23c11.26,16.56,18.26,32.73,22.72,46.1c1.21,3.64,2.24,7.08,3.11,10.26
		c0.2-0.04,0.41-0.06,0.61-0.09c10.95-1.64,21.76-1.97,32.18-1.08c31.51,2.7,59.36,16.66,76.15,39.99
		c8.15,11.32,12.44,23.1,14.71,33.25c1.21,5.47,1.84,10.45,2.16,14.64C806.05,545.5,855.17,588.9,847.45,640.85z"/>
	<path class="st62" d="M548.34,357.43c1.28-5.46,5.3-10.96,11.14-12.29c9.4-2.03,17.25,6.96,19.52,15.18
		c1.53,5.06,1.75,10.38,1.58,15.49c-0.29,7.52-1.64,14.97-3.85,22.15c-4.3,14.02-11.18,27.24-19.61,39.11
		c-0.71,0.99-2.09,1.22-3.08,0.51c-0.89-0.64-1.17-1.82-0.7-2.77c4.15-8.52,8.04-17.09,11.2-25.86c3.12-8.64,5.66-17.6,6.72-26.67
		c0.83-8.87,1.76-20.28-4.34-27.21c-1.53-1.75-3.92-3.51-6.21-3.23c-3.61,0.35-6.62,3.82-8.28,7.15
		C551.21,361.28,547.74,359.93,548.34,357.43L548.34,357.43z"/>
	<path class="st62" d="M606.79,377.37c21.13,26.42,23.91,65.84,7.83,95.42c-1.3,2.29-4.8,0.83-4.05-1.71
		c4.1-13.25,6.34-26.81,5.73-40.6c-0.24-7.75-1.46-15.49-3.27-23.03c-1.43-5.68-3.19-11.3-5.31-16.78
		c-1.41-3.7-3.03-7.32-4.68-10.99C602.01,377.33,605.15,375.38,606.79,377.37L606.79,377.37z"/>
	<path class="st62" d="M604.3,441.84c2.03,21.07-6.62,43.39-22.81,57.14c-1.57,1.28-3.74-0.69-2.6-2.37
		c5.6-8.33,10.58-16.82,14.28-26.09c3.76-9.24,6.05-18.85,7.61-28.76C601.1,439.74,604.08,439.8,604.3,441.84L604.3,441.84z"/>
	<path class="st62" d="M763.1,503.95c9.69,6.72,15.44,18.27,15.93,29.97c0.62,11.53-3.93,23.08-10.94,31.98
		c-1.37,1.7-4.07,0.01-3.12-1.96c4.56-9.28,7.9-19.33,7.13-29.61c-0.53-7.53-3.22-14.75-7.07-21.23c-1.31-2.21-2.88-4.47-4.42-6.47
		C759.36,505,761.39,502.82,763.1,503.95L763.1,503.95z"/>
	<path class="st62" d="M466.77,609.05c43.69,9.2,97.81,15.48,141.33,4.17c3.04-0.77,5.99-1.78,8.99-2.71
		c1.72-0.64,3.66,0.29,4.2,2.06c0.49,1.6-0.34,3.29-1.86,3.92l-4.6,1.87c-2.19,0.9-4.78,1.64-7.03,2.44
		c-21.22,6.53-43.71,7.89-65.78,6.98c-26.04-1.23-51.86-5.35-76.93-12.53C461.22,613.97,462.68,608.19,466.77,609.05L466.77,609.05z
		"/>
	<path class="st62" d="M823.74,642.27c-4.12,30.69-31.24,54.81-60.53,61.6c-1.19,0.27-2.38-0.47-2.65-1.66
		c-0.24-1.03,0.29-2.07,1.22-2.5c6.5-3.12,12.75-6.49,18.59-10.4c11.63-7.72,21.56-17.8,29.2-29.47c3.83-5.79,7.21-12.03,9.87-18.45
		C820.29,638.94,823.93,639.66,823.74,642.27L823.74,642.27z"/>
	<path class="st62" d="M266.96,551.23c-7.63,23.95-11.52,52.16,2.14,74.57c4.43,7.49,10.53,13.49,17.2,19.11
		c1.14,1.01,1.25,2.75,0.24,3.9c-0.84,0.96-2.2,1.19-3.29,0.65c-4.24-2.09-8.38-4.57-12.1-7.68c-11.54-9.22-18.89-23.31-20.73-37.89
		c-2.43-19.19,2.11-38.48,11.6-55.08C263.81,546,268.1,548.09,266.96,551.23L266.96,551.23z"/>
	<path class="st62" d="M363.29,593.25c27.91,16.45,58.41,28.58,89.47,37.63c69.94,20.31,145.79,21.06,215.36-1.28
		c23.28-7.28,45.68-16.99,67.32-28.33c1.48-0.78,3.32-0.21,4.1,1.28c0.75,1.43,0.24,3.18-1.12,4.01
		c-14.18,8.53-28.99,16.06-44.24,22.61c-84.3,36.66-182.4,35.8-267.71,2.85c-19.37-7.42-38.22-16.25-56.02-26.93
		c-3.57-2.17-7.03-4.36-10.55-6.81C356.82,596,359.78,591.16,363.29,593.25L363.29,593.25z"/>
	<path class="st62" d="M756.94,634.2c-5.96,14.3-17.04,25.87-28.93,35.46c-23.92,18.66-53.32,28.89-82.91,34.13
		c-14.73,2.57-29.62,3.83-44.46,3.96c-1.75,0.02-3.18-1.39-3.19-3.14c-0.02-1.64,1.22-3,2.81-3.17c14.5-1.68,28.91-3.75,43.04-6.87
		c27.84-6.13,55.54-16.05,78.74-32.82c11.27-8.26,21.82-17.99,29.08-30.01C752.92,628.16,758.28,630.37,756.94,634.2L756.94,634.2z"
		/>
	<path class="st62" d="M363.25,512.37c-2.4-17.73,8.3-32.99,24.4-39.95c7.41-3.23,15.52-3.64,23.19-5.74
		c7.44-1.81,14.78-4.08,22.12-6.55c0.92-0.31,1.93,0.18,2.24,1.1c0.28,0.82-0.09,1.71-0.82,2.12c-6.93,3.81-14.29,6.87-21.87,9.28
		c-5.51,1.82-11.46,3.01-17.03,4.4c-8.54,2.55-16.59,7.8-21.73,14.86c-4.18,5.75-6.53,12.87-6.99,20.35
		C366.63,514.33,363.56,514.47,363.25,512.37L363.25,512.37z"/>
	<path class="st62" d="M424.92,554.26c15.12,11.18,32.53,18.9,51.23,21.25c6.18,0.83,12.45,1.09,18.81,1.04
		c0.98-0.02,1.79,0.77,1.8,1.76c0.01,0.84-0.58,1.55-1.36,1.74c-19.51,4.52-40.82,0.36-57.69-10.32
		c-5.64-3.57-10.81-7.87-15.17-12.86c-0.64-0.74-0.57-1.86,0.17-2.5C423.35,553.8,424.27,553.78,424.92,554.26L424.92,554.26z"/>
	<path class="st63" d="M297.54,623.69c-4.76-5.65-10.38-12.44-14.2-23.07c-2.02-5.63-8.02-22.34-0.56-38.9
		c1.33-2.95,8.08-17.91,19.8-18.65c7.01-0.44,12.52,4.4,15.36,6.97c10.65,9.63,8.73,19.05,15.97,36.38
		c3.89,9.3,10.85,25.96,26.48,37.76c9.2,6.95,17.21,9.04,24.1,19.92c1.99,3.14,7.29,11.52,4.37,16.24
		c-4.31,6.95-23.9,1.82-31.88-0.27C347.52,657.59,319.61,649.87,297.54,623.69z"/>
	<path class="st63" d="M410.25,541.33c-5.86-3.59-9.12-5.64-12.26-9.81c-6.74-8.96-9.47-23.21-3.31-33.42
		c2.46-4.07,5.59-6.28,10.39-9.67c7.66-5.41,14.07-7.27,19.79-9.34c5.23-1.9,18.86-6.83,31.22-15.99
		c10.13-7.5,15.14-14.68,27.74-17.99c5.04-1.32,6.56-0.78,7.3,0c3.7,3.93-5.64,21.04-17.04,33.56c-13.79,15.13-23.71,16-27.26,28.69
		c-0.55,1.97-2.51,9.37,0.48,17.03c2.78,7.11,7.41,8.28,19.18,18.75c7.53,6.7,18.92,16.84,16.8,21.15
		c-1.25,2.54-6.76,2.19-10.22,1.94c-12.69-0.92-17.07-6.32-31.61-12.66C426.77,547.18,422.63,548.92,410.25,541.33z"/>
	<path class="st63" d="M583.67,402.24c1.46-8.79,0.74-15.9,2.19-16.08c1.04-0.13,2.28,3.46,2.68,4.63
		c4.21,12.25,3.62,31.59-7.06,48.72c-2.2,3.53-6.56,10.38-10.25,9.56c-2.53-0.56-3.56-4.46-3.61-4.65
		c-1.26-5.01,2.55-8.96,6.3-15.14C573.93,429.28,581.15,417.38,583.67,402.24z"/>
	<path class="st63" d="M688.26,512.87c1.6-0.98,10.03-5.88,16.18-2.21c5.33,3.18,5.66,10.84,5.88,16.18
		c0.41,9.64-3.42,16.77-4.67,18.92c-1.69,2.91-5.04,7.7-14.76,14.09c-15.16,9.96-19.54,6.53-51.9,17
		c-4.12,1.33-11.97,3.95-14.71,0.74c-1.39-1.64-0.93-4.16-0.74-5.15c1.73-8.74,12.8-11.1,28.04-21.57
		c11.56-7.95,18.88-12.97,24.9-22.55C680.52,521.92,681.9,516.77,688.26,512.87z"/>
	<path class="st63" d="M751.62,664.39c5.61-2.31,15.86-4.62,18.88-0.19c3.64,5.34-0.56,12.39-4.67,17.37
		c-2.06,2.49-6.83,10.2-17.14,15.42c-8.95,4.53-22.53,7.74-25.03,3.64c-1.28-2.1,1.15-5.79,6.06-13.09
		C738.46,674.56,742.88,667.98,751.62,664.39z"/>
	<path class="st63" d="M445.3,684.05c0.93-2.47,0.33-5.3-1-7.58c-5.85-10-44.13-19.6-45.93-5.57
		C396.23,687.47,440.56,696.6,445.3,684.05z"/>
	<path class="st62" d="M805,534.61c-1.4-14.32-5.64-28.61-13.04-41.3c-22.61-39.48-71.26-55.5-114.67-50.27
		c-4.86-14.39-13.69-35.12-29.95-56.67c-4.28-5.67-8.86-11.11-13.71-16.29c-4.29-4.58-8.79-8.96-13.49-13.11
		c-4.02-3.55-8.17-6.95-12.46-10.17c-3.44-2.59-6.96-5.05-10.61-7.33c-2.53-1.58-5.08-3.14-7.64-4.68c-3.35-2.02-6.73-4-10.13-5.93
		c-3.84-2.18-7.7-4.31-11.61-6.36c-3.98-2.08-7.99-4.09-12.07-5.96c-3.78-1.73-7.61-3.36-11.52-4.75c-5.62-1.99-8.37-2.48-9.95-2.71
		c-1.42-0.21-4.42-0.56-8.16-0.14c-2.24,0.26-3.38,0.4-4.57,1.12c-2.58,1.55-4.1,4.69-3.94,7.53c0.1,1.73,0.8,2.7,2.05,4.95
		c1.71,3.05,3.31,6.07,4.51,9.29c5.21,13.92,4.34,29.64-0.59,43.61c-5.74,16.49-18.09,29.74-32.2,39.75
		c-15.21,11.05-32.91,17.68-51.45,20.5c-24.07,3.97-50.5,1.93-72.74,14.64c-9.18,5.19-16.95,12.43-23.51,20.63
		c-18.96,23.85-16.67,52.13,5.54,72.78c3.74,3.52,7.79,6.62,12.04,9.31c4.26,2.69,8.68,5.03,13.41,6.79
		c0.76,0.28,1.66,0.02,2.13-0.72c0.49-0.78,0.24-1.82-0.47-2.39c-7.41-5.96-14.33-12.47-20.06-19.56
		c-15.36-18.7-17.93-39.13-2.57-58.36c23.54-30.71,53.9-26.14,88.07-32.75c29.58-5.38,57.57-21.04,76.41-44.72
		c12.65-15.96,19.09-36.86,16.81-57.22c-0.57-5.09-1.69-10.15-3.51-15.03c-0.82-2.44-2.06-4.89-3.31-7.27
		c-1.04-1.99,0.61-4.34,2.83-4c0.6,0.09,1.21,0.2,1.83,0.3c13.27,2.32,25.1,9.13,36.66,15.7c11.17,6.35,21.97,13.39,32,21.44
		c8.35,6.69,16.15,14.08,23.14,22.18c5.96,6.91,11.43,14.25,16.38,21.92c4.02,6.23,7.67,12.69,10.92,19.34
		c2.52,5.15,4.8,10.42,6.84,15.78c3.25,8.55,5.84,17.75,4.67,26.98c-0.02,0.12-0.03,0.25-0.05,0.37c-0.02,0.17-0.05,0.33-0.07,0.5
		c-0.52,3.56-1.35,7.07-2.49,10.48c-1.14,3.42-2.59,6.74-4.32,9.9c-1.41,2.56-3,5.02-4.78,7.34c-8.58,11.26-21.16,19.23-34.98,22.5
		c-2.15,0.55-1.52,3.73,0.66,3.46c18.4-2.52,34.28-12.63,44.78-26.89c0.12,1.22,0.17,2.42,0.13,3.61
		c-0.38,9.9-6.44,18.36-13.44,24.99c-10.13,9.52-22.83,16.1-35.61,21.82c-1.05,0.46-1.62,1.69-1.16,2.85
		c0.4,1.01,1.52,1.54,2.57,1.33c7.24-1.47,14.32-3.87,21.11-7.06c10.24-4.87,20.13-11.8,26.84-21.29
		c6.81-9.32,9.08-21.99,3.52-32.28c4.29-7.31,7.27-15.46,8.62-24.08c0.44-0.06,0.93-0.13,0.93-0.13c25.72-3.33,53.4,0.62,75.5,14.48
		c16.98,10.49,29.72,26.8,35.31,45.92c1.48,5.08,2.83,10.25,3.19,15.54c0.37,5.38-0.69,10.55-2.01,15.73
		c-2.67,10.11-6.98,20.16-14.69,27.41c-1.51,1.38-3.14,2.61-4.86,3.71c-1.5,0.88-2.08,2.8-1.27,4.38c0.84,1.63,2.84,2.28,4.47,1.44
		c6.65-3.33,12.15-8.61,16.44-14.61c4.96-7.09,8.62-14.98,11.16-23.23c24.84,23.48,46.64,55.54,41.84,90.71
		c-5.73,37.09-43.17,63.78-73.6,81.69c-69.18,38.95-150.87,48.42-229.17,46.26c79.25,8.02,163.05,1.06,234.44-36.7
		c30.78-16.92,63.51-39.78,77.4-73.44C867.59,612.4,838.64,564.86,805,534.61z"/>
	<path class="st64" d="M302.34,562.14c-6.24,0.67-13.09,18.11-7.84,32.08c2.78,7.41,10.19,17.08,19.38,16.69
		c3.68-0.16,8.58-1.97,10.59-5.81c2.22-4.25,0.07-9.48-4.24-19.94c-1.19-2.9-2.06-5.01-3.64-7.78
		C314.03,572.86,307.63,561.57,302.34,562.14z"/>
	<path class="st64" d="M407.34,519.54c0.22,1.2,0.54,2.4,1.19,3.44c1.02,1.62,2.72,2.66,4.37,3.63c1.85,1.1,3.75,2.21,5.87,2.57
		c2.12,0.36,4.53-0.19,5.82-1.91c1.84-2.45,0.71-5.92,1.03-8.97c0.45-4.35,3.86-7.72,6.88-10.89c3.02-3.17,6.04-7.11,5.43-11.45
		C420.65,490.61,403.46,498.43,407.34,519.54z"/>
	<path class="st63" d="M554.28,375.08c-0.58-2.59-1.19-5.24-0.87-7.88s1.77-5.31,4.23-6.31c2.49-1.01,5.66,0.09,6.98,2.43
		c0.68,1.2,0.89,2.6,1.04,3.97c1.36,12.2-1.18,25.15-8.73,34.83c-0.68,0.87-1.74,1.79-2.74,1.32c-0.91-0.43-0.97-1.68-0.86-2.68
		c0.45-4.13,2.85-7.81,3.38-11.66C557.31,384.77,555.23,379.32,554.28,375.08z"/>
</g>
</svg>
