<?xml version="1.0" encoding="utf-8"?>
<!-- Generator: Adobe Illustrator 28.0.0, SVG Export Plug-In . SVG Version: 6.00 Build 0)  -->
<svg version="1.1" id="Layer_1" xmlns="http://www.w3.org/2000/svg" xmlns:xlink="http://www.w3.org/1999/xlink" x="0px" y="0px"
	 viewBox="0 0 1080 1080" style="enable-background:new 0 0 1080 1080;" xml:space="preserve">
<style type="text/css">
	.st0{fill:none;stroke:#C1873A;stroke-width:16;stroke-linecap:round;stroke-linejoin:round;stroke-miterlimit:10;}
	.st1{fill:#E2D0E1;}
	.st2{fill:#EDE6EE;}
	.st3{fill:#DA9E53;}
	.st4{fill:#C98D4C;}
	.st5{fill:#DD6A6E;}
	.st6{fill:#D1626B;}
	.st7{fill:#F3EFF4;}
	.st8{fill:#C45C69;}
	.st9{fill:#FFB92E;}
	.st10{opacity:0.5;fill:#96A488;}
	.st11{fill:#F0F3EC;}
	.st12{fill:#E5E9E0;}
	.st13{fill:#B5CAD2;}
	.st14{fill:none;stroke:#009245;stroke-width:4;stroke-miterlimit:10;}
	.st15{fill:none;stroke:#009245;stroke-width:4;stroke-linecap:round;stroke-linejoin:round;stroke-miterlimit:10;}
	.st16{fill:none;stroke:#009245;stroke-width:4.1082;stroke-linecap:round;stroke-linejoin:round;stroke-miterlimit:10;}
	.st17{fill:none;stroke:#000000;stroke-width:1.9946;stroke-miterlimit:10;}
	.st18{fill:none;stroke:#000000;stroke-width:1.8919;stroke-miterlimit:10;}
	.st19{fill:none;stroke:#000000;stroke-width:1.924;stroke-miterlimit:10;}
	.st20{fill:none;stroke:#000000;stroke-width:1.924;stroke-linecap:round;stroke-linejoin:round;stroke-miterlimit:10;}
	.st21{fill:none;stroke:#000000;stroke-width:1.7309;stroke-linecap:round;stroke-linejoin:round;stroke-miterlimit:10;}
	.st22{fill:none;stroke:#000000;stroke-width:2;stroke-miterlimit:10;}
	.st23{fill:none;stroke:#000000;stroke-width:2;stroke-linecap:round;stroke-linejoin:round;stroke-miterlimit:10;}
	.st24{fill:#FFC257;}
	.st25{fill:#EDA229;}
	.st26{fill:#DD8E1B;}
	.st27{fill:#FFD085;}
	.st28{fill:none;stroke:#000000;stroke-width:3.4146;stroke-linecap:round;stroke-linejoin:round;stroke-miterlimit:10;}
	.st29{fill:none;stroke:#000000;stroke-width:1.8379;stroke-linecap:round;stroke-linejoin:round;stroke-miterlimit:10;}
	.st30{fill:none;stroke:#000000;stroke-linecap:round;stroke-linejoin:round;stroke-miterlimit:10;}
	.st31{fill:#D1D6CC;}
	.st32{fill:#F4DC98;}
	.st33{fill:#E9D2A3;}
	.st34{fill:#DAA765;}
	.st35{fill:#D09E62;}
	.st36{opacity:0.5;fill:#EDE1CA;}
	.st37{opacity:0.3;fill:#AF8056;}
	.st38{opacity:0.28;fill:#AF8056;}
	.st39{fill:#F3814A;}
	.st40{fill:#CF602F;}
	.st41{fill:#C35233;}
	.st42{fill:#F38A62;}
	.st43{opacity:0.2;fill:#FFFFFF;}
	.st44{opacity:0.37;fill:#DA7446;}
	.st45{opacity:0.1;fill:#FFFFFF;}
	.st46{opacity:0.08;fill:#FFFFFF;}
	.st47{opacity:0.3;fill:#997552;enable-background:new    ;}
	.st48{fill:#E5C98C;}
	.st49{opacity:0.6;fill:#F9E4BB;enable-background:new    ;}
	.st50{opacity:0.8;fill:#F9E4BB;enable-background:new    ;}
	.st51{fill:#618828;}
	.st52{fill:#92A931;}
	.st53{fill:#809A2C;}
	.st54{opacity:0.6;fill:#92A931;}
	.st55{opacity:0.6;fill:#618828;}
	.st56{opacity:0.25;fill:#E9D2A3;}
	.st57{fill:#E59055;}
	.st58{fill:#CE814D;}
	.st59{fill:#AF6C3E;}
	.st60{fill:#EFA16C;}
	.st61{fill:#FFBB8D;}
	.st62{fill:#E4C88B;}
	.st63{opacity:0.7;fill:#F8E3BA;}
	.st64{opacity:0.35;fill:#FFFFFF;}
	.st65{fill:#4D851D;}
	.st66{fill:#437A0F;}
	.st67{fill:#3B680B;}
	.st68{fill:#5B9324;}
	.st69{fill:#77B234;}
	.st70{fill:#E8EECB;}
	.st71{fill:#EFF4D4;}
	.st72{fill:#E3E8BF;}
	.st73{fill:#F9FFE1;}
	.st74{fill:#FCFFE9;}
	.st75{fill:#BF2C5A;}
	.st76{fill:#AF2859;}
	.st77{fill:#A3285A;}
	.st78{fill:#F3CEE4;}
	.st79{fill:#FFE3F7;}
	.st80{fill:#FFF8FD;}
	.st81{fill:#DBA9C9;}
	.st82{fill:#C9356A;}
	.st83{fill:#E0518B;}
	.st84{fill:#F96EA0;}
	.st85{fill:#A07A50;}
	.st86{fill:#BC916D;}
	.st87{fill:#936E4A;}
	.st88{fill:none;}
	.st89{fill:#E1AE4F;}
	.st90{fill:#D69F45;}
	.st91{fill:#C1873A;}
	.st92{fill:#E8B564;}
	.st93{fill:#F4C376;}
	.st94{fill:#AA7331;}
	.st95{fill:#839E39;}
	.st96{fill:#959F38;}
	.st97{fill:#8FAA44;}
	.st98{fill:#A8BF55;}
	.st99{fill:#708426;}
	.st100{fill:#FFCC73;}
	.st101{fill:#EDCC8C;}
	.st102{fill:#FFDDA1;}
	.st103{fill:#DDBB80;}
	.st104{fill:#FFE8C2;}
	.st105{fill:#CEA974;}
	.st106{fill:none;stroke:#E1AE4F;stroke-width:16;stroke-linecap:round;stroke-linejoin:round;stroke-miterlimit:10;}
	.st107{fill:none;stroke:#D69F45;stroke-width:16;stroke-linecap:round;stroke-linejoin:round;stroke-miterlimit:10;}
	.st108{fill:none;stroke:#F4C376;stroke-width:16;stroke-linecap:round;stroke-linejoin:round;stroke-miterlimit:10;}
	.st109{fill:none;stroke:#C1873A;stroke-width:5.6205;stroke-linecap:round;stroke-linejoin:round;stroke-miterlimit:10;}
	.st110{fill:none;stroke:#E1AE4F;stroke-width:5.6205;stroke-linecap:round;stroke-linejoin:round;stroke-miterlimit:10;}
	.st111{fill:none;stroke:#D69F45;stroke-width:5.6205;stroke-linecap:round;stroke-linejoin:round;stroke-miterlimit:10;}
	.st112{fill:none;stroke:#F4C376;stroke-width:5.6205;stroke-linecap:round;stroke-linejoin:round;stroke-miterlimit:10;}
	.st113{fill:none;stroke:#F4C376;stroke-width:5.2674;stroke-linecap:round;stroke-linejoin:round;stroke-miterlimit:10;}
	.st114{fill:none;stroke:#EDCC8C;stroke-width:5.8805;stroke-linecap:round;stroke-linejoin:round;stroke-miterlimit:10;}
	.st115{fill:none;stroke:#FFDDA1;stroke-width:5.8805;stroke-linecap:round;stroke-linejoin:round;stroke-miterlimit:10;}
	.st116{fill:none;stroke:#FFE8C2;stroke-width:5.8805;stroke-linecap:round;stroke-linejoin:round;stroke-miterlimit:10;}
	.st117{fill:none;stroke:#D1626B;stroke-width:5.2388;stroke-miterlimit:10;}
	.st118{fill:none;stroke:#D1626B;stroke-width:5.4518;stroke-miterlimit:10;}
	.st119{fill:none;stroke:#DD6A6E;stroke-width:5.2388;stroke-miterlimit:10;}
	.st120{fill:none;stroke:#AD4D58;stroke-width:5.0375;stroke-miterlimit:10;}
	.st121{fill:none;stroke:#D1626B;stroke-width:4.8407;stroke-miterlimit:10;}
	.st122{fill:none;stroke:#D1626B;stroke-width:5.0375;stroke-miterlimit:10;}
	.st123{fill:none;stroke:#DD6A6E;stroke-width:4.8407;stroke-miterlimit:10;}
</style>
<g>
	<g>
		<path class="st75" d="M812.68,507.41c-1.89,24.29-6.76,87.06-54,128.4c-24.94,21.82-51.13,28.44-71.64,33.61
			c-34.09,8.62-65.98,8.22-92.84,4.27c13.49-24.78,22.11-53.76,22.86-86.11c0.7-30.23-2.28-53.04-8.46-70.84
			c0-0.02-0.02-0.05-0.02-0.07c-11.84-34.02-35.39-49.86-67.37-64.52c-35.92-16.46-72.21-14.18-100.46-9.13l-0.05-0.1
			c3.71-14.92,11.74-39.1,30.31-63.37c31.89-41.71,74.42-56.97,93.68-62.27c68.95-19,127.44,10.26,149.89,21.49
			c6.01,3,14.71,7.4,25.35,14.88c11.53,8.1,55.06,39.63,69.45,95.89C815.36,472.96,813.93,491.41,812.68,507.41z"/>
		<path class="st76" d="M803.28,430.94c-17.69-25.21-38.54-40.26-46.01-45.5c-10.64-7.48-19.34-11.88-25.35-14.88
			c-22.45-11.23-80.94-40.49-149.89-21.49c-19.26,5.3-61.79,20.56-93.68,62.27c-7.34,9.6-13.04,19.18-17.47,28.18
			c-10.72,0.49-20.86,1.85-30.13,3.51l-0.05-0.11c3.71-14.91,11.74-39.1,30.31-63.37c31.89-41.7,74.42-56.96,93.68-62.27
			c68.95-19,127.44,10.27,149.89,21.49c6.01,3.01,14.71,7.4,25.36,14.88C750.13,360.82,785.32,386.28,803.28,430.94z"/>
		<path class="st77" d="M794.34,412.42c-16.98-20.28-34.73-32.66-41.67-37.39c-11.43-7.76-20.75-12.32-27.2-15.44
			c-24.07-11.64-86.79-42.01-160.72-22.3c-20.65,5.51-66.26,21.35-100.45,64.61c-10.28,12.99-17.54,25.96-22.71,37.6
			c4.05-15.03,12.21-37.45,29.42-59.95c31.89-41.7,74.42-56.96,93.68-62.27c68.95-19,127.44,10.27,149.89,21.49
			c6.01,3.01,14.71,7.4,25.36,14.88C748.63,359.76,775.48,379.16,794.34,412.42z"/>
		<path class="st82" d="M539.33,379.74c-9.16,7.82-18.18,19.14-14.87,30.72c2.52,8.81,11.27,14.1,19.29,18.53
			c14.31,7.9,28.62,15.79,42.93,23.69c3.71,2.05,8.21,4.13,11.99,2.21c1.87-0.95,3.17-2.74,4.14-4.6
			c4.12-7.94,3.17-17.61,6.36-25.97c3.91-10.22,13.57-17.41,17.55-27.6c8.61-22.04-11.41-40.7-32.23-42.01
			C575.04,353.49,553.5,367.64,539.33,379.74z"/>
		<path class="st82" d="M639.04,546.18c1.75,5.46,3.55,11.02,6.91,15.67c4.62,6.39,11.85,10.51,19.41,12.73
			c22.75,6.68,47.81-3.08,65.27-19.11c17.47-16.03,28.77-37.53,39.38-58.73c5.43-10.85,10.91-22.55,9.34-34.58
			c-2.42-18.5-24.32-31.62-41.77-25.02c-9.84,3.72-17.32,12.22-27.22,15.79c-6.9,2.49-14.43,2.39-21.77,2.25
			c-17.38-0.32-66.79-9.96-71.88,14.59c-1.91,9.23,4.52,21.19,7.31,29.68C629.15,514.98,634.04,530.6,639.04,546.18z"/>
		<g>
			<path class="st83" d="M619.6,473.53c9.02,6.96,19.58,11.92,30.71,14.42c12.67,2.84,25.8,2.49,38.75,3.51
				c9.17,0.72,18.62,2.1,27.4-0.65c8.78-2.75,16.64-11.24,15.01-20.29c-1.66-9.21-11.62-14.2-20.6-16.81
				c-22.91-6.66-46.56-6.64-70.16-7.81c-6.29-0.31-14.01-2.18-19.43,1.98C613.49,453.83,611.74,467.46,619.6,473.53z"/>
			<path class="st83" d="M743.59,436.15c-3.89,4.32-7.15,9.21-9.65,14.47c-0.94,1.97-1.78,4.08-1.67,6.25
				c0.28,5.37,6.14,8.74,11.47,9.39c6.65,0.81,13.7-1.13,18.65-5.65c4.95-4.52,7.53-11.66,6.11-18.21
				C765.61,428.99,752.2,426.59,743.59,436.15z"/>
		</g>
		<g>
			<path class="st84" d="M656.24,393.49c-24.65,5.79-49.78,10.1-73.52,19.13c-1.09,0.45-1.96-1.11-0.93-1.77
				c16.58-10.14,36.07-14.36,55.02-17.44c6.36-0.94,12.73-1.67,19.18-1.91C657.17,391.47,657.44,393.22,656.24,393.49L656.24,393.49
				z"/>
			<path class="st84" d="M680.03,421.97c-2.63,12.91-6.65,25.45-11.29,37.76c-2.95,7.35-5.96,14.86-10.53,21.4
				c-0.67,0.93-2.19,0.12-1.75-0.96c3.61-9.52,6.8-19.87,10.29-29.51c3.53-9.86,7.09-19.71,11.36-29.3
				C678.59,420.31,680.27,420.81,680.03,421.97L680.03,421.97z"/>
			<path class="st84" d="M707.77,415.44c12.44,12.48,23.53,26.33,32.8,41.31c3.04,5.04,5.92,10.29,7.7,16.05
				c0.16,0.53-0.13,1.09-0.66,1.26c-0.47,0.15-0.97-0.07-1.19-0.49c-5.04-8.67-11.3-16.8-17.16-24.97
				c-1.77-2.35-10.99-14.96-12.91-17.57c-3.43-4.71-6.84-9.44-10.11-14.3C705.57,415.77,706.92,414.59,707.77,415.44L707.77,415.44z
				"/>
			<path class="st84" d="M715.14,397.09c9.88-1.08,22.8,1.21,29.71,8.89c0.36,0.43,0.31,1.08-0.13,1.45
				c-0.31,0.26-0.72,0.3-1.07,0.15c-4.69-1.81-9.24-3.19-14.06-4.52c-4.84-1.34-9.75-2.46-14.58-3.97
				C713.97,398.8,714.07,397.22,715.14,397.09L715.14,397.09z"/>
			<path class="st84" d="M681.8,367.01c-2.01-7.33-1.5-15.11,0.64-22.36c0.29-0.95,1.74-0.9,1.98,0.05
				c1.02,3.69,1.22,7.44,1.18,11.22c-0.09,3.8-0.45,7.54-1.8,11.16C683.48,368.02,682.04,367.95,681.8,367.01L681.8,367.01z"/>
			<path class="st84" d="M660.32,368.94c-12.43-10.38-23.61-23.4-36.92-32.65c-0.46-0.31-0.59-0.93-0.29-1.4
				c0.25-0.38,0.72-0.54,1.14-0.41c4.17,1.3,7.87,3.57,11.37,5.98c3.51,2.42,6.75,5.16,9.84,8.02c6.18,5.75,11.81,12.02,16.37,19.16
				C662.45,368.59,661.17,369.7,660.32,368.94L660.32,368.94z"/>
			<path class="st84" d="M656.34,379.76c-17.24-5.35-36.14-11.38-53.56-15.67c-6.01-1.51-12.05-2.78-18.14-4.11
				c-1.16-0.23-1.02-2.01,0.21-1.99c18.92,0.5,37.5,5.42,55.12,12.11c5.86,2.28,11.62,4.79,17.17,7.82
				C658.17,378.49,657.48,380.15,656.34,379.76L656.34,379.76z"/>
			<path class="st84" d="M660.22,400.87c-15.94,9.05-32.56,16.73-49.57,23.55c-1.07,0.41-1.89-1.1-0.94-1.76
				c7.53-5.37,15.67-9.73,23.97-13.72c8.34-3.93,16.85-7.47,25.77-9.91C660.56,398.72,661.23,400.3,660.22,400.87L660.22,400.87z"/>
			<path class="st84" d="M713.58,405.84c9.65,2.71,18.84,6.65,27.67,11.36c6.65,3.57,13.07,7.7,18.59,12.9
				c1.85,1.78,3.54,3.72,5.02,5.8c0.33,0.44,0.24,1.07-0.21,1.4c-0.4,0.3-0.95,0.25-1.3-0.08c-3.68-3.14-7.74-5.77-11.84-8.34
				c-8.28-5.14-16.96-9.69-25.6-14.25c-4.36-2.28-8.74-4.57-13.08-6.94C711.82,407.15,712.45,405.52,713.58,405.84L713.58,405.84z"
				/>
			<path class="st84" d="M703.18,377.54c2.84-5.59,8.73-12.13,15.18-13.24c0.58-0.07,1.11,0.34,1.18,0.92
				c0.04,0.33-0.08,0.63-0.28,0.87c-2.97,3.86-6.49,7.16-10.38,10.11c-1.33,0.99-2.71,1.94-4.25,2.73
				C703.76,379.39,702.74,378.4,703.18,377.54L703.18,377.54z"/>
		</g>
		<path class="st76" d="M812.68,507.41c-1.89,24.28-6.76,87.05-54,128.4c-24.94,21.82-51.13,28.44-71.64,33.61
			c-34.09,8.61-65.98,8.22-92.84,4.27c10.33-18.97,17.8-40.41,21.07-63.94c47.58,3.53,114.47-1.02,147.93-46.76
			c34.07-46.55,37.35-105.36,34.85-143.64c4.59,9.12,8.52,19.19,11.34,30.2C815.36,472.96,813.93,491.41,812.68,507.41z"/>
		<path class="st77" d="M812.68,507.41c-1.89,24.28-6.76,87.05-54,128.4c-24.94,21.82-51.13,28.44-71.64,33.61
			c-34.09,8.61-65.98,8.22-92.84,4.27c4.25-7.8,8-16.01,11.19-24.61c24.35,2.49,52.18,1.77,81.65-5.67
			c20.51-5.17,46.7-11.79,71.64-33.61c47.24-41.35,52.11-104.12,54-128.4c0.22-2.75,0.44-5.56,0.62-8.47
			C814.36,485.88,813.48,497.15,812.68,507.41z"/>
		<g>
			<path class="st85" d="M663.99,373.53c-2.29,0.98-4.19,3.02-4.42,5.42c-0.17,1.79,0.56,3.53,0.97,5.29
				c1.05,4.47,0.1,9.41,2.28,13.48c2.16,4.03,5.26,6.41,9.11,8.84c8.61,5.44,17.38,5.42,20.6,5.37c5.47-0.08,9-1.28,12.2-2.36
				c2.75-0.93,5.38-2.21,7.05-4.66c2.01-2.94,0.33-5.28-1.31-7.97c-1.74-2.85-0.91-6.13-2.88-8.92c-2.8-3.95-6.12-8.29-10.55-10.55
				c-5.24-2.67-11.05-4.32-16.96-4.85C675.44,372.2,668.34,371.67,663.99,373.53z"/>
			<g>
				<path class="st86" d="M666.7,391.46c0.59,0.7,1.76,1.24,2.32,0.52c0.21-0.27,0.24-0.63,0.26-0.97c0.07-1.5,0.01-3-0.2-4.49
					c-0.11-0.81-0.26-1.65-0.02-2.43c0.34-1.07,1.33-1.78,2.1-2.6c3.29-3.53-3.66-6.2-5.74-2.35
					C663.7,382.32,664.46,388.8,666.7,391.46z"/>
				<path class="st86" d="M673.54,385.21c-1.25,1.21-1.22,3.77,0.21,5.17c1.28,1.26,3.74,1.58,4.32,0.57
					c0.78-1.36-0.34-3.06-0.18-4.62c0.06-0.62,0.27-1.38-0.22-1.76c-0.26-0.2-0.57-0.21-0.86-0.2
					C675.27,384.45,674.28,384.49,673.54,385.21z"/>
				<path class="st86" d="M676.8,378.56c-0.15,0.36-0.57,1.38,0.04,1.84c0.59,0.45,1.42-0.19,3.07,0.12
					c1.13,0.21,2.34,0.78,2.71,0.99c0.43,0.26,0.91,0.57,1.47,0.5c0.6-0.08,1-0.56,1.19-1.01c0.53-1.23,0.18-3.02-1.51-4
					c-1.52-0.88-3.95-1.03-5.53-0.09C677.25,377.5,676.89,378.35,676.8,378.56z"/>
				<path class="st86" d="M686.46,386.28c-1.43,0.68-1.98,2.81-1.07,4.17c1.08,1.61,3.67,1.32,4.61,0.32
					c0.17-0.19,0.26-0.37,0.31-0.47c0.51-1.04,0.18-2.56-0.82-3.45C688.76,386.2,687.52,385.78,686.46,386.28z"/>
				<path class="st86" d="M690.48,382.54c1.45,0.4,2.67,1.28,3.31,2.01c1.05,1.19,0.49,1.9,1.51,2.9c0.93,0.92,2.51,1.43,3,0.94
					c0.74-0.73-0.78-3.83-2.83-5.88c-1.77-1.77-4.74-3.56-5.95-2.68c-0.59,0.43-0.81,1.53-0.44,2.11
					C689.34,382.34,689.8,382.35,690.48,382.54z"/>
				<path class="st86" d="M703.08,394.74c0.62,0.5,1.46,0.73,2.24,0.61c0.18-0.03,0.36-0.07,0.51-0.17c0.18-0.12,0.31-0.3,0.42-0.49
					c0.75-1.29,0.69-3.01-0.14-4.24C703.16,386.07,699.8,392.09,703.08,394.74z"/>
				<path class="st86" d="M675.32,400.33c-0.44-0.02-1.92-0.13-2.3,0.65c-0.19,0.39-0.11,0.85,0.04,1.25
					c0.54,1.46,1.93,2.18,2.82,2.72c2.6,1.57,2.17,2.35,4.25,3.66c3.52,2.21,8.87,2.57,10.57,0.39c0.44-0.56,0.14-0.65,0.77-2.49
					c1.14-3.31,2.4-3.86,2.24-5.49c-0.13-1.3-1.12-2.82-2.22-2.93c-1.42-0.15-1.88,2.19-4.98,4.2c-1.53,0.99-2.39,1.55-3.6,1.56
					C679.94,403.85,678.92,400.53,675.32,400.33z"/>
				<path class="st86" d="M699.86,403.77c-0.52,1.19-0.03,2.75,1.11,3.54c1.23,0.85,2.84,0.58,3.65-0.17
					c1.03-0.95,1.19-2.49,1.29-3.89c0.01-0.13-0.01-0.26-0.08-0.42c-0.41-0.91-2.28-1.06-3.61-0.7
					C701.58,402.31,700.36,402.64,699.86,403.77z"/>
				<path class="st86" d="M693.63,396.85c0.33,0.36,0.8,0.56,1.26,0.75c1.09,0.45,2.27,0.91,3.42,0.67c0.3-0.34,0.17-0.89-0.1-1.25
					c-0.27-0.36-0.66-0.62-0.95-0.96c-0.53-0.65-0.65-1.53-0.83-2.34c-0.31-1.41-1.96-3.42-3.46-1.91
					C691.9,392.88,692.75,395.9,693.63,396.85z"/>
				<path class="st86" d="M680.55,396.15c0.82,0.24,1.68,0.3,2.52,0.48c0.23,0.05,0.47,0.11,0.67,0.25c0.25,0.17,0.4,0.44,0.59,0.67
					c0.54,0.65,1.4,1.02,2.25,0.96c0.15-0.01,0.31-0.04,0.43-0.12c0.12-0.08,0.19-0.21,0.26-0.33c0.57-1.14,0.26-2.6-0.56-3.57
					c-0.82-0.98-2.07-1.52-3.32-1.75c-0.92-0.16-3.69-0.64-4.53-0.02C677.23,393.9,679.4,395.8,680.55,396.15z"/>
			</g>
			<g>
				<path class="st87" d="M665.34,390.11c0.59,0.7,1.76,1.24,2.32,0.52c0.21-0.27,0.24-0.63,0.26-0.97c0.07-1.5,0.01-3-0.2-4.49
					c-0.11-0.81-0.26-1.65-0.02-2.43c0.34-1.07,1.33-1.78,2.1-2.6c3.29-3.53-3.66-6.2-5.74-2.35
					C662.34,380.96,663.1,387.45,665.34,390.11z"/>
				<path class="st87" d="M672.19,383.85c-1.25,1.21-1.22,3.77,0.21,5.17c1.28,1.26,3.74,1.58,4.32,0.57
					c0.78-1.36-0.34-3.06-0.18-4.62c0.06-0.62,0.27-1.38-0.22-1.76c-0.26-0.2-0.57-0.21-0.86-0.2
					C673.91,383.09,672.93,383.14,672.19,383.85z"/>
				<path class="st87" d="M675.45,377.2c-0.15,0.36-0.57,1.38,0.04,1.84c0.59,0.45,1.42-0.19,3.07,0.12
					c1.13,0.21,2.34,0.78,2.71,0.99c0.43,0.26,0.91,0.57,1.47,0.5c0.6-0.08,1-0.56,1.19-1.01c0.53-1.23,0.18-3.02-1.51-4
					c-1.52-0.88-3.95-1.03-5.53-0.09C675.9,376.15,675.53,376.99,675.45,377.2z"/>
				<path class="st87" d="M685.11,384.92c-1.43,0.68-1.98,2.81-1.07,4.17c1.08,1.61,3.67,1.32,4.61,0.32
					c0.17-0.19,0.26-0.37,0.31-0.47c0.51-1.04,0.18-2.56-0.82-3.45C687.41,384.85,686.16,384.42,685.11,384.92z"/>
				<path class="st87" d="M689.12,381.18c1.45,0.4,2.67,1.28,3.31,2.01c1.05,1.19,0.49,1.9,1.51,2.9c0.93,0.92,2.51,1.43,3,0.94
					c0.74-0.73-0.78-3.83-2.83-5.88c-1.77-1.77-4.74-3.56-5.95-2.68c-0.59,0.43-0.81,1.53-0.44,2.11
					C687.99,380.98,688.44,380.99,689.12,381.18z"/>
				<path class="st87" d="M701.73,393.39c0.62,0.5,1.46,0.73,2.24,0.61c0.18-0.03,0.36-0.07,0.51-0.17c0.18-0.12,0.31-0.3,0.42-0.49
					c0.75-1.29,0.69-3.01-0.14-4.24C701.81,384.71,698.45,390.74,701.73,393.39z"/>
				<path class="st87" d="M673.96,398.97c-0.44-0.02-1.92-0.13-2.3,0.65c-0.19,0.39-0.11,0.85,0.04,1.25
					c0.54,1.46,1.93,2.18,2.82,2.72c2.6,1.57,2.17,2.35,4.25,3.66c3.52,2.21,8.87,2.57,10.57,0.39c0.44-0.56,0.14-0.65,0.77-2.49
					c1.14-3.31,2.4-3.86,2.24-5.49c-0.13-1.3-1.12-2.82-2.22-2.93c-1.42-0.15-1.88,2.19-4.98,4.2c-1.53,0.99-2.39,1.55-3.6,1.56
					C678.58,402.5,677.57,399.18,673.96,398.97z"/>
				<path class="st87" d="M698.5,402.41c-0.52,1.19-0.03,2.75,1.11,3.54c1.23,0.84,2.84,0.58,3.65-0.17
					c1.03-0.95,1.19-2.49,1.29-3.89c0.01-0.13-0.01-0.26-0.08-0.42c-0.41-0.91-2.28-1.06-3.61-0.7
					C700.22,400.95,699,401.28,698.5,402.41z"/>
				<path class="st87" d="M692.28,395.5c0.33,0.36,0.8,0.56,1.26,0.75c1.09,0.45,2.27,0.91,3.42,0.67c0.3-0.34,0.17-0.89-0.1-1.25
					c-0.27-0.36-0.66-0.62-0.95-0.96c-0.53-0.65-0.65-1.53-0.83-2.34c-0.31-1.41-1.96-3.42-3.46-1.91
					C690.54,391.52,691.4,394.55,692.28,395.5z"/>
				<path class="st87" d="M679.19,394.79c0.82,0.24,1.68,0.3,2.52,0.48c0.23,0.05,0.47,0.11,0.67,0.25c0.25,0.17,0.4,0.44,0.59,0.67
					c0.54,0.65,1.4,1.02,2.25,0.96c0.15-0.01,0.31-0.04,0.43-0.12c0.12-0.08,0.19-0.21,0.26-0.33c0.57-1.14,0.26-2.6-0.56-3.57
					s-2.07-1.52-3.32-1.75c-0.92-0.16-3.69-0.64-4.53-0.02C675.87,392.54,678.05,394.45,679.19,394.79z"/>
			</g>
		</g>
	</g>
	<g>
		<path class="st78" d="M595.39,606.55c-3.38,3.38-26.42,23.02-31.82,48.08c-0.81,3.78-2.63,7.57-5.15,11.29
			c-8.07,12.01-23.31,23.26-35.08,29.88c-7.35,4.15-15.34,7.16-23.69,8.38c-21.16,3.11-39.68,19.52-39.68,19.52
			c-67.09,43.3-132.99,3.33-134.33,2.51c-0.02-0.02-0.02-0.02-0.02-0.02c-9.71-7.66-18.95-16.37-27.5-26.17
			c-55.54-63.66-14.23-154.41-11.52-159.14c2.71-4.74,20.3-37.92,8.81-67.71c-11.52-29.8-30.55-42.77-29.13-56.88
			c1.56-15.29,27.08-24.37,31.15,0.67c0,0,1.84,16.17,4.91,23.62c2.45,5.9,14.73,19.05,27.6,20.41
			c12.86,1.36,54.84-5.42,83.97-12.19c7.67-1.79,16.73-3.95,26.84-5.75c28.25-5.05,64.54-7.33,100.46,9.13
			c31.98,14.66,55.53,30.5,67.37,64.52c0,0.02,0.02,0.05,0.02,0.07C621.42,577.64,598.77,603.17,595.39,606.55z"/>
		<path class="st79" d="M345.51,532.03c18.12,47.53,5.46,56.89,20.7,89.6c14.05,30.17,38.6,51.77,60.09,60.88
			c4.64,1.96,13.15,5.05,23.67,7.25c12.94,2.7,25.01,5.22,37.73,1.93c20.78-5.37,32.44-23.41,35.09-27.78
			c17.51-28.93,8.26-67.1-8.45-88.62c-8.56-11.03-19.29-17.95-23.26-20.47c-12.96-8.22-23.8-10.77-34.51-13.72
			c-2.73-0.75-39.3-6.95-80.87-20.72c-19.1-6.32-32.31-14.34-35.77-10.54C336.94,513.11,336.75,509.03,345.51,532.03z"/>
		<path class="st80" d="M362.64,549.75c14.72,38.45,4.44,46.03,16.82,72.49c11.42,24.41,31.38,41.89,48.84,49.26
			c3.77,1.59,10.69,4.09,19.24,5.86c10.52,2.18,20.33,4.22,30.67,1.56c16.89-4.34,26.37-18.94,28.52-22.48
			c14.23-23.41,6.71-54.29-6.87-71.7c-6.96-8.92-15.68-14.52-18.91-16.56c-12.54-7.92-23.95-10.2-28.05-11.1
			c-45.18-9.87-91.1-45.12-99.32-34.94C350.58,525.85,355.73,531.7,362.64,549.75z"/>
		<path class="st81" d="M468.61,717.27c-2.86,2.15-5.73,4.31-8.59,6.46l0,0c-67.1,43.31-132.99,3.33-134.33,2.51
			c-0.02-0.02-0.02-0.02-0.02-0.02c-9.71-7.65-18.95-16.37-27.49-26.17c-52.59-60.28-18.35-144.83-12.26-157.68
			c-10.8,30-26.45,96.59,18.78,146.72c5.39,5.97,11.43,11.73,11.43,11.73s9.35,8.89,17.58,14.97c16.9,12.5,45.98,14.03,55.25,14.44
			C420.87,731.64,448.42,724.75,468.61,717.27z"/>
		<path class="st81" d="M595.38,606.55c-0.72,0.72-2.32,2.18-4.46,4.25c3.77-10.31,8.35-25.91,9.76-45.35
			c1.07-14.76,2.2-30.38-4.16-46.87c-8.04-20.84-23.87-32.26-36.57-41.17c-40.55-28.45-86.5-29.11-112.83-29.48
			c-16.5-0.24-30.14,1.04-39.43,2.25c2.13-0.47,4.21-0.93,6.23-1.4c7.67-1.78,16.73-3.94,26.84-5.75
			c28.25-5.04,64.54-7.33,100.46,9.14c31.98,14.65,55.53,30.5,67.37,64.51c0,0.02,0.02,0.06,0.02,0.07
			C621.42,577.65,598.76,603.17,595.38,606.55z"/>
		<path class="st76" d="M298.24,422.85c-5.87-20.06-28.39-11.52-30.25,2.71c-1.35-3.17-2.01-6.2-1.7-9.29
			c1.56-15.3,27.08-24.38,31.15,0.67C297.44,416.94,297.72,419.41,298.24,422.85z"/>
		<path class="st81" d="M469.73,682.59c-15.82-1.65-28.92-8.59-41.61-17.77c-27.38-18.01-44.47-49.7-51.16-81.24
			c-2.38-14.78-8.48-28.31-16.37-40.92c-1.68-3.14-4.62-6.37-4.27-10.39c0.25-2.14,2.44-3.95,4.44-4.05
			c3.04-0.18,4.95,0.86,7.43,1.81c4.09,1.78,7.89,3.72,11.77,5.57c11.55,5.6,23.34,10.62,35.42,14.95
			c8.12,3.04,16.26,5.14,24.54,7.94c8.26,3.01,15.83,7.07,23.66,11c24.76,12.19,40.9,31.92,51.49,57.15
			c3.3,8.07,5.96,16.45,6.86,25.17c0.03,1.26-1.72,1.56-1.98,0.23c-1.14-8.4-4.01-16.56-7.38-24.33
			c-6.93-15.43-16.69-29.89-29.53-40.94c-6.45-5.41-13.75-9.75-21.35-13.58c-7.58-3.68-15.32-7.62-23.27-10.43
			c-8.03-2.66-16.59-4.86-24.6-7.82c-12.24-4.31-24.25-9.35-35.96-14.95c-3.9-1.83-7.78-3.79-11.59-5.42
			c-1.49-0.64-3.59-1.46-4.95-1.41c-0.19,0.03-0.14,0.04-0.13,0.02c-0.04,0.07,0.06-0.09,0.06-0.13c0-0.03-0.01,0.2,0.08,0.51
			c0.09,0.32,0.26,0.73,0.44,1.14c1.79,3.6,4.35,7.36,6.35,11c4.31,7.68,7.95,15.66,10.54,24.12c1.29,4.26,2.08,8.64,2.89,12.81
			c1.59,8.35,4.08,16.44,7.22,24.33c8.46,21.61,21.88,41.94,41.27,55.11c0,0,5.21,3.79,5.21,3.79c10.29,7.5,22.07,12.88,34.74,14.73
			c0.55,0.08,0.93,0.59,0.85,1.14C470.76,682.28,470.27,682.65,469.73,682.59L469.73,682.59z"/>
		<g>
			<path class="st81" d="M428.39,714.47c-39.85,9.32-86.34-2.12-108.55-38.74c-11.03-17.63-14.58-38.6-15.23-59.03
				c-0.42-13.7,5.36-26.71,7.5-39.93c3.27-19.79,1.99-39.82-0.03-59.78c-0.87-12.76-5.24-34.05,11.67-37.95
				c13.76-1.43,27.47,0.1,41.03,2.12c13.37,2.06,26.52,4.52,39.8,5.27c13.21,0.79,26.59-0.5,40.05-1.31
				c16.75-1.03,34.45-1.5,50.8,3.9c9.68,3.4,19.31,6.34,28.41,11.39c6.06,3.34,11.53,7.77,16.24,12.77
				c11.67,12.38,21.35,27.63,23.58,44.79c1.27,10.1,1.78,20.29,1.18,30.46c-0.48,6.82-1.2,13.62-3.47,20.14
				c-0.18,0.51-0.74,0.77-1.24,0.59c-0.5-0.18-0.76-0.72-0.59-1.22c2.04-6.27,2.63-13.04,2.95-19.63
				c0.41-9.99-0.23-20.05-1.64-29.95c-1.91-13.13-8.48-25.08-16.76-35.29c-6.19-7.64-13.32-14.77-22.07-19.39
				c-8.63-4.71-18.49-7.64-27.85-10.82c-29.21-8.98-59.78-0.09-89.86-1.88c-25.32-1.33-49.64-8.82-74.97-7.54
				c-9.01-0.41-12.94,4.59-13.44,13.34c-0.41,6.49,0.33,13.2,0.9,19.75c1.98,20.12,3.19,40.84-0.22,60.99
				c-1.13,6.76-3.05,13.4-4.8,19.81c-3.88,12.75-2.96,26.15-1.19,39.17c4.67,42.04,35.65,72.62,77.58,77.52
				c13.16,1.64,26.77,1.27,39.75-1.45C429.16,712.27,429.64,714.15,428.39,714.47L428.39,714.47z"/>
		</g>
		<path class="st81" d="M485.83,670.6c-29.4-1.53-49.92-24.71-60.13-50.6c-1.79-4.27-3.53-8.11-5.59-12.23
			c-1.96-4.13-3.98-8.57-4.45-13.23c-0.41-4.15,4.36-6.98,7.81-4.7c13.66,7.9,28.8,15.31,43.16,21.94
			c4.08,1.99,8.24,4.07,12.06,6.81c7.43,5.48,13.54,12.45,19.26,19.66c2.75,3.66,5.38,7.55,6.78,12.14
			c0.16,0.53-0.13,1.08-0.66,1.25c-0.51,0.16-1.04-0.12-1.22-0.61c-1.53-4.08-4.27-7.69-7.04-11.06
			c-5.79-6.61-12.05-13.16-19.31-18.14c-3.63-2.38-7.6-4.29-11.68-6.12c-14.83-6.34-29.72-13.49-43.78-21.54
			c-0.11-0.06-0.3-0.17-0.27-0.14c-0.05-0.02-0.04-0.01-0.06-0.01c0,0-0.08,0.05-0.08,0.05s-0.02,0.03-0.02,0.03
			c0,0.01,0.01,0.02,0,0.03l0.04,0.35c0.5,3.96,2.2,7.53,3.89,11.18c1.96,3.97,3.96,8.35,5.59,12.46
			c5.03,12.45,11.32,24.14,20.96,33.44c9.43,9.33,21.67,15.5,34.93,17.06c0.55,0.07,0.93,0.57,0.86,1.12
			C486.81,670.25,486.35,670.63,485.83,670.6L485.83,670.6z"/>
		<path class="st75" d="M469.67,682.59c-38.22-3.84-67.24-27.5-83.57-61.57c-3.99-8.13-7.17-16.67-9.57-25.38
			c-2.47-8.59-3.56-17.51-6.21-25.96c-3.2-10.42-8.25-20.34-13.79-29.8c-1.67-3.23-4.29-6.51-4.3-10.51
			c0.81-6.36,7.86-4.79,11.95-3.14c16.59,6.85,32.4,14.88,49.28,20.91c10.41,4.09,21.19,6.83,31.72,10.67
			c28.42,12.16,52.73,25.8,66.39,54.97c5.79,12.25,9.14,25.57,10.37,39.04c0.05,0.55-0.35,1.04-0.9,1.09
			c-0.54,0.05-1.02-0.34-1.09-0.87c-1.68-13.15-5.21-26.06-11.16-37.9c-13.09-26.06-33.42-38.21-59.16-49.6
			c-12.19-5.39-25.38-8.11-37.8-13c-12.63-4.61-25-9.92-37.22-15.48c-5.04-2.19-9.9-4.67-15.06-6.08c-1.01-0.28-2.07-0.31-2.38-0.22
			c0.02-0.01,0.06-0.16,0.03-0.06c-0.03,0.56,0.33,1.4,0.6,2.06c1.76,3.8,4.28,7.73,6.31,11.54c4.33,7.98,8.13,16.27,10.77,24.99
			c2.65,8.61,3.7,17.53,6.1,26.12c8.98,33.57,30.22,66.07,63.46,79.31c8.14,3.33,16.74,5.56,25.49,6.88
			c0.55,0.08,0.93,0.59,0.85,1.14C470.69,682.28,470.2,682.65,469.67,682.59L469.67,682.59z"/>
		<path class="st75" d="M485.88,670.61c-9.83,0.86-19.73-1.91-28.27-6.73c-17.37-9.65-28-27.6-35.73-45.19
			c-3.72-8.64-7.97-17.43-9.12-26.93c-0.56-2.63,0.91-5.48,3.57-6.27c1.51-0.49,3.21-0.19,4.54,0.65c0,0,0.78,0.44,0.78,0.44
			c6.21,3.52,12.5,6.89,18.86,10.13c8.47,4.36,17.04,8.45,25.75,12.31c8.85,3.79,18.08,8.34,24.58,15.78
			c6.65,7.31,11.29,16.22,13.88,25.55c0.15,0.53-0.16,1.08-0.69,1.23c-0.51,0.14-1.03-0.14-1.21-0.63
			c-1.6-4.44-3.57-8.73-5.96-12.75c-3.6-5.98-8.23-11.31-13.73-15.57c-5.62-4.27-12.03-6.85-18.6-9.6
			c-15.54-6.41-30.65-13.91-45.32-22.11c0,0-0.79-0.44-0.79-0.44l-0.37-0.2c-0.02,0-0.04-0.02-0.06-0.02
			c-0.16-0.05-0.38,0.1-0.35,0.25c0.89,9.22,5.13,17.7,8.63,26.24c7.27,17.03,16.86,34.3,33.08,44.17
			c3.95,2.44,8.18,4.46,12.63,5.78c4.46,1.3,9.1,1.99,13.77,1.91C487,668.55,487.19,670.48,485.88,670.61L485.88,670.61z"/>
		<path class="st75" d="M608.68,516.98c-0.02-0.08-0.03-0.16-0.05-0.24c0-0.01-0.02-0.05-0.02-0.07
			c-11.84-34.01-35.39-49.86-67.37-64.51c-35.92-16.47-72.21-14.18-100.46-9.14c-10.11,1.81-19.17,3.97-26.84,5.75
			c-2.02,0.47-4.1,0.94-6.23,1.41c7.19-0.94,16.99-1.92,28.7-2.21h0.03c0.19-0.04,0.38-0.07,0.58-0.11
			c28.25-5.04,64.54-7.33,100.46,9.14c31.98,14.65,55.53,30.5,67.37,64.51c0,0.02,0.02,0.06,0.02,0.07
			c1.92,9.14,3.25,18.42,3.72,27.75c0.37,7.38,0.19,14.8-0.73,22.14c-0.72,5.72-1.88,11.4-3.62,16.9
			c-1.31,4.14-2.94,8.19-4.96,12.05c-1.48,2.82-3.12,5.46-5.38,7.72c-1.84,1.84-3.87,3.47-5.67,5.35c-1.92,2-3.81,4.03-5.63,6.13
			c-5.09,5.91-9.67,12.3-13.25,19.24c-2.57,4.98-4.62,10.27-5.8,15.76c-0.81,3.78-2.63,7.57-5.15,11.29
			c-8.07,12.01-23.31,23.26-35.08,29.88c-7.35,4.15-15.34,7.16-23.69,8.38c-4.72,0.69-9.33,2.04-13.76,3.8
			c-3.67,1.46-6.73,3.09-11.85,5.82c-5.44,2.9-7.61,4.27-10.26,5.72c-9.48,5.21-17.92,7.6-30.76,11.25
			c-5.61,1.59-10.45,2.74-13.17,3.39c-4.06,0.97-8.15,1.87-12.26,2.64c-3.81,0.72-7.64,1.34-11.49,1.81
			c-3.61,0.44-7.23,0.75-10.86,0.88c-3.46,0.13-6.93,0.09-10.39-0.14c-3.37-0.23-6.73-0.64-10.05-1.25
			c-1.26-0.23-2.52-0.49-3.76-0.79c-42.11-9.81-73.95-51.74-83.16-89.6c-6.7-27.58-1.33-52.8,1.76-67.34
			c8.72-40.99,28.35-62.49,20.5-95.46c-0.27-1.12-0.56-2.22-0.87-3.28c-0.88-3.06-0.83-6.35,0.45-9.27c0.12-0.28,0.26-0.57,0.4-0.86
			c0.65-1.31,1.9-3.77,4.42-6.09c5.57-5.1,12.99-5.51,23.42-4.75c-12.13-2.38-23.31-14.49-25.63-20.1
			c-3.07-7.45-4.91-23.62-4.91-23.62c-4.07-25.04-29.59-15.96-31.15-0.66c-1.43,14.1,17.61,27.08,29.13,56.88
			c1.45,3.75,2.44,7.56,3.04,11.35c-0.01-0.18-0.02-0.36-0.04-0.54c4.55,26.55-9.36,52.76-11.74,56.94
			c-2.72,4.73-44.03,95.48,11.51,159.14c8.54,9.79,17.77,18.51,27.47,26.15c53.45,42.14,121.61,52.4,170.88,34.07
			c36.83-13.71,74.47-43.94,97.68-86.57c13.49-24.78,22.11-53.76,22.86-86.11C617.76,557.48,614.8,534.74,608.68,516.98z"/>
		<path class="st77" d="M617.06,587.58c-0.61,26.06-6.32,49.92-15.57,71.18c8.68-20.68,14.02-43.78,14.6-68.92
			c0.7-30.1-2.26-52.84-8.38-70.61c-0.02-0.08-0.04-0.16-0.05-0.24c0-0.01-0.02-0.05-0.02-0.07
			c-11.84-34.01-35.39-49.86-67.37-64.51c-35.92-16.47-72.21-14.18-100.46-9.14c-5.76,1.03-11.17,2.17-16.18,3.3
			c-6.17,0.44-11.53,1.03-15.92,1.6c2.13-0.47,4.21-0.94,6.23-1.41c7.67-1.78,16.73-3.94,26.84-5.75
			c28.25-5.04,64.54-7.33,100.46,9.14c31.98,14.65,55.53,30.5,67.37,64.51c0,0.02,0.02,0.06,0.02,0.07
			c0.01,0.08,0.03,0.16,0.04,0.24C614.8,534.74,617.76,557.48,617.06,587.58z"/>
		<path class="st76" d="M617.06,587.58c-0.75,32.35-9.37,61.33-22.86,86.11c-23.2,42.64-60.84,72.86-97.68,86.57
			c-49.26,18.33-117.38,8.08-170.82-34.03c0.47,0.28,2.96,1.77,7.11,3.76c34.49,24.33,80.12,21.93,99.14,20.93
			c22.53-1.19,40.4-6.2,50.39-9.52c13.4-4.45,22.95-9.27,30.79-13.29c15.9-8.16,32.21-16.63,44.01-30.06
			c8.76-9.96,12.93-19.24,16.99-28.46c8.9-20.21,11.99-38.82,13.36-55.34c3.81-3.96,6.83-6.64,7.9-7.71
			c3.38-3.38,26.03-28.9,13.21-89.8C614.78,534.54,617.77,557.35,617.06,587.58z"/>
		<path class="st77" d="M617.06,587.59c-0.75,32.35-9.37,61.33-22.86,86.11c-23.2,42.64-60.84,72.86-97.68,86.57
			c-31.28,11.64-70.15,11.75-108.05-0.49c32.54,7.45,64.89,5.93,91.67-4.03c36.84-13.71,74.48-43.93,97.68-86.57
			c10.85-19.93,18.55-42.57,21.53-67.51c7.13-10.27,19.48-36.34,9.25-84.92C614.78,534.55,617.77,557.36,617.06,587.59z"/>
		<path class="st85" d="M510.88,695.59c11.89-7.3,22.94-16.08,32.84-26.08c4.01-4.06,8.05-8.45,13.34-10.36
			c1.98-0.71,4.56-0.87,5.81,0.87c1.01,1.39,0.73,3.39,0.53,4.42c-2.42,12.42-3.63,18.63-6.26,23.09
			c-5.78,9.8-13.44,14.36-15.14,15.34c-0.62,0.35-2.09,1.42-4.29,2.1c-8.16,2.55-16.84,3.22-25.28,2.03
			c-2.17-0.31-8.77-0.59-9.2-3.61C502.76,700.27,508.89,696.81,510.88,695.59z"/>
		<g>
			<path class="st86" d="M512.94,704.06c0.15,0.67,0.77,1.15,1.42,1.35c0.66,0.2,1.36,0.16,2.04,0.12c4.16-0.2,8.34-0.1,12.49,0.28
				c0.36,0.03,0.72,0.07,1.07-0.03c0.31-0.09,0.58-0.27,0.82-0.48c0.78-0.67,1.34-1.63,1.43-2.65c0.09-1.03-0.34-2.11-1.16-2.72
				c-0.96-0.71-2.24-0.72-3.44-0.7C523.81,699.29,512.94,697.61,512.94,704.06z"/>
			<path class="st86" d="M529.55,688.74c-0.56,0.78-0.75,1.76-0.82,2.71c-0.06,0.77-0.06,1.56,0.2,2.28
				c0.26,0.73,0.81,1.38,1.56,1.59c0.93,0.26,1.92-0.23,2.63-0.88c0.71-0.65,1.27-1.47,2.01-2.09c0.51-0.42,1.1-0.74,1.57-1.21
				c1.52-1.48-0.14-4.26-1.93-4.74C533.19,685.99,530.44,687.5,529.55,688.74z"/>
			<path class="st86" d="M538.01,698.31c0.04,0.85,0.45,1.72,1.2,2.11c1.11,0.58,2.45-0.05,3.53-0.7c1.22-0.75,2.42-1.54,3.61-2.33
				c1.73-1.15,3.52-2.36,4.53-4.17c0.91-1.64,1.06-3.6,0.87-5.46c-0.02-0.24-0.06-0.48-0.19-0.69c-0.16-0.25-0.45-0.4-0.72-0.53
				c-0.91-0.45-1.85-0.9-2.86-0.97c-2.98-0.22-6.09,2.64-6.62,5.37c-0.3,1.52-0.22,1.91-1.32,3.1
				C538.91,695.27,537.92,696.45,538.01,698.31z"/>
			<path class="st86" d="M541.09,680.44c-0.09-0.34-0.3-1.3,0.15-2.36c0.41-0.96,1.14-1.39,1.67-1.76c0.34-0.24,0.72-0.46,1.13-0.43
				c0.65,0.05,1.08,0.71,1.27,1.33c0.43,1.43,0.13,3.06-0.78,4.23c-0.28,0.36-1.04,1.14-1.88,1
				C541.6,682.27,541.18,680.77,541.09,680.44z"/>
			<path class="st86" d="M552.3,679.92c-0.26,1.73,1.11,3.75,2.9,4.14c0.19,0.04,1.41,0.32,2.3-0.42c0.44-0.36,0.69-0.91,0.84-1.45
				c0.29-1.04,0.27-2.18-0.19-3.16c-0.14-0.3-0.92-1.73-2.47-1.88c-1.7-0.16-2.78,1.39-2.87,1.52
				C552.68,678.85,552.39,679.29,552.3,679.92z"/>
			<path class="st86" d="M551.45,668.43c1.11-1.53,2.66-2.67,4.25-3.69c0.68-0.44,1.52-0.87,2.25-0.53
				c0.77,0.35,0.97,1.34,1.02,2.18c0.02,0.3,0.03,0.6-0.06,0.88c-0.19,0.61-0.79,0.98-1.17,1.49c-0.69,0.94-0.56,2.28-1.18,3.27
				c-0.39,0.61-1.02,1.02-1.64,1.4C550.38,676.18,548.92,671.92,551.45,668.43z"/>
		</g>
		<g>
			<path class="st87" d="M513.89,702.16c0.15,0.67,0.77,1.15,1.42,1.35s1.36,0.16,2.04,0.12c4.16-0.2,8.34-0.1,12.49,0.28
				c0.36,0.03,0.72,0.07,1.07-0.03c0.31-0.09,0.58-0.27,0.82-0.48c0.78-0.67,1.34-1.63,1.43-2.65c0.09-1.03-0.34-2.11-1.16-2.72
				c-0.96-0.71-2.24-0.72-3.44-0.7C524.77,697.39,513.89,695.71,513.89,702.16z"/>
			<path class="st87" d="M530.5,686.84c-0.56,0.78-0.75,1.76-0.82,2.71c-0.06,0.77-0.06,1.56,0.2,2.28s0.81,1.38,1.56,1.59
				c0.93,0.26,1.92-0.23,2.63-0.88c0.71-0.65,1.27-1.47,2.01-2.09c0.51-0.42,1.1-0.74,1.57-1.21c1.52-1.48-0.14-4.26-1.93-4.74
				C534.15,684.09,531.4,685.6,530.5,686.84z"/>
			<path class="st87" d="M538.96,696.41c0.04,0.85,0.45,1.72,1.2,2.11c1.11,0.58,2.45-0.05,3.53-0.7c1.22-0.75,2.42-1.54,3.61-2.33
				c1.73-1.15,3.52-2.36,4.53-4.17c0.91-1.64,1.06-3.6,0.87-5.46c-0.02-0.24-0.06-0.48-0.19-0.69c-0.16-0.25-0.45-0.4-0.72-0.53
				c-0.91-0.45-1.85-0.9-2.86-0.97c-2.98-0.22-6.09,2.64-6.62,5.37c-0.3,1.52-0.22,1.91-1.32,3.1
				C539.87,693.37,538.88,694.55,538.96,696.41z"/>
			<path class="st87" d="M542.05,678.54c-0.09-0.34-0.3-1.3,0.15-2.36c0.41-0.96,1.14-1.39,1.67-1.76c0.34-0.24,0.72-0.46,1.13-0.43
				c0.65,0.05,1.08,0.71,1.27,1.33c0.43,1.43,0.13,3.06-0.78,4.23c-0.28,0.36-1.04,1.14-1.88,1
				C542.55,680.37,542.14,678.87,542.05,678.54z"/>
			<path class="st87" d="M553.25,678.02c-0.26,1.73,1.11,3.75,2.9,4.14c0.19,0.04,1.41,0.32,2.3-0.42c0.44-0.36,0.69-0.91,0.84-1.45
				c0.29-1.04,0.27-2.18-0.19-3.16c-0.14-0.3-0.92-1.73-2.47-1.88c-1.7-0.16-2.78,1.39-2.87,1.52
				C553.64,676.95,553.35,677.39,553.25,678.02z"/>
			<path class="st87" d="M552.4,666.53c1.11-1.53,2.66-2.67,4.25-3.69c0.68-0.44,1.52-0.87,2.25-0.53c0.77,0.35,0.97,1.34,1.02,2.18
				c0.02,0.3,0.03,0.6-0.06,0.88c-0.19,0.61-0.79,0.98-1.17,1.49c-0.69,0.94-0.56,2.28-1.18,3.27c-0.39,0.61-1.02,1.02-1.64,1.4
				C551.34,674.28,549.88,670.02,552.4,666.53z"/>
		</g>
		<g>
			<path class="st81" d="M451.88,703.62c-21.84-1.73-44.05-6.97-62.26-19.64c-1.9-1.22-3.93-2.78-5.77-4.13
				c-0.33-0.28-1.1-0.83-1.41-1.1c-0.59-0.41-1.09-1.01-1.11-1.73c0,0,0.58,1.3,0.58,1.3c-3.73-3.62-7.02-7-10.43-10.91
				c-9.77-11.74-13.35-27.35-16.61-41.83c-6.11-28.96-8.35-58.77-17.1-87.07c-2.2-6.96-4.77-13.73-8.37-20.09
				c-2.42-4.77-5.44-9.84-4.63-15.55c1.56-7.64,10.72-6.08,15.93-4.14c11.63,3.92,23.53,7.63,35.33,10.94
				c18.97,5.34,38.21,9.86,57.57,13.42c14.55,2.57,29.58,4.31,43.89,8.59c14.42,4.51,28.24,11.4,39.37,21.83
				c7.44,6.89,12.84,15.75,16.83,25c7.8,18.41,11.11,39.04,7.71,58.84c-0.11,0.53-0.62,0.86-1.15,0.75
				c-0.53-0.11-0.87-0.64-0.75-1.16c1.6-9.56,1-19.58-0.38-29.16c-3.15-18.98-10.47-38.25-24.7-51.66
				c-14.38-13.12-33.35-20.43-52.34-23.85c-39.16-5.84-78.17-14.2-115.82-26.66c0,0-7.07-2.31-7.07-2.31
				c-2.95-0.91-6.19-2.02-8.78-0.89c-1.21,0.86-1.04,2.57-0.76,4.14c1.27,5.77,5.07,10.9,7.38,16.38
				c6.04,13.8,9.38,28.62,12.17,43.29c6,27.55,8.23,78.39,25.09,98.87c3.02,3.6,6.64,7.33,9.98,10.62c0,0,0.58,1.3,0.58,1.3
				c0.09-0.41-0.28-1.09-0.53-1.26c0.53,0.46,1.14,0.91,1.66,1.34c4.23,3.27,8.68,6.35,13.27,9.08
				c10.52,6.37,22.45,9.99,34.43,12.59c5.97,1.25,12.14,2.37,18.21,2.91c0.57-0.01,1.04,0.48,1,1.04
				C452.85,703.25,452.4,703.64,451.88,703.62L451.88,703.62z"/>
		</g>
		<g>
			<path class="st75" d="M452.21,703.65c-19.91-0.35-40.65-3.24-58.02-13.64c-5.72-3.41-11.14-7.35-16.24-11.63
				c-0.43-0.32-0.83-1.11-0.83-1.67c0,0,0.71,1.56,0.71,1.56c-16.66-13.41-22.52-34.65-26.69-54.62
				c-5.71-27.13-8.75-54.77-16.24-81.47c-0.86-2.98-1.85-5.94-2.77-8.89c-0.61-1.57-1.39-3.73-1.96-5.2
				c-2.61-7.36-7.08-13.63-8.92-21.35c-2.9-11.91,6.55-15.74,16.71-12.73c31.69,10.37,64.08,18.67,96.88,24.72
				c36.56,6.2,80.31,14.84,98.66,51.21c10.51,20.64,12.86,44.93,7.91,67.43c-0.12,0.54-0.66,0.87-1.2,0.75
				c-0.53-0.12-0.86-0.64-0.76-1.17c1.87-9.78,2.18-19.92,1.24-29.83c-1.36-14.85-6.16-29.32-14.42-41.7
				c-20.55-29.9-59.09-35.64-92.42-41.3c-29.96-5.27-59.58-12.46-88.62-21.54c0,0-7.25-2.3-7.25-2.3l-1.73-0.55
				c-3.05-0.79-9.64-1.91-9.53,2.69c0.12,5.79,3.59,11.1,5.88,16.37c1.59,3.36,3.18,7.25,4.41,10.78
				c3.9,10.86,6.53,22.15,8.75,33.35c6.27,29.56,7.94,60.12,18.14,88.49c3.6,9.14,9.18,17.33,16.65,23.74c0,0,0.71,1.56,0.71,1.56
				c0.08-0.49-0.25-1.22-0.6-1.47l0.11,0.1c0,0,0.22,0.2,0.22,0.2c0.93,0.83,2.33,1.95,3.27,2.73
				c15.2,12.54,28.96,18.21,48.39,21.34c6.45,1.06,13.02,1.79,19.54,2.05c0.56,0.01,1.01,0.48,0.99,1.04
				C453.18,703.23,452.74,703.65,452.21,703.65L452.21,703.65z"/>
		</g>
		<g>
			<path class="st75" d="M428.39,714.5c-20.3,4.9-42,5.3-62.24-0.22c-36.74-9.88-58.23-40.28-64.11-76.72
				c-1.4-8.72-2.51-17.5-2.05-26.36c0.8-13.96,7.26-26.88,8.55-40.64c2.3-18.72,0.83-37.39-0.81-56.26
				c-1.09-15.14-4.7-41.06,17.75-40.41c12.24-0.5,24.58,0.71,36.66,2.4c13.75,1.91,27.31,4.35,40.9,5.43
				c13.52,1.2,27.19,0.11,41.02-0.62c13.93-0.74,28.08-1.2,41.92,1.5c6.92,1.3,13.63,3.66,20.19,6.19
				c6.51,2.47,12.99,5.28,19.13,8.8c18.5,10.5,32.38,28.56,38.36,48.91c5.36,19.58,4.48,42.96-2.27,62.1
				c-0.19,0.52-0.77,0.78-1.28,0.59c-0.52-0.19-0.78-0.76-0.6-1.27c5.95-18.61,6.4-41.66,0.82-60.41
				c-5.12-16.02-15.3-30.5-28.76-40.58c-10.93-8.02-23.89-12.86-36.75-17c-16.28-5.12-33.55-4.32-50.45-3.4
				c-13.83,0.8-27.85,1.94-41.76,0.79c-27.33-1.96-54.13-9.64-81.49-7.09c-11.68,2.53-7.87,24.45-7.57,33.62
				c1.1,13.73,2.26,27.68,1.73,41.68c-0.17,6.9-0.83,14.18-2.01,21c-1.61,10.41-5.77,19.9-7.38,30.09
				c-1.43,9.97-0.25,20.2,1.18,30.12c5.97,39.7,29.67,68.87,69.93,76.6c16.75,3.14,34.23,2.73,50.89-0.78
				C429.16,712.23,429.69,714.17,428.39,714.5L428.39,714.5z"/>
		</g>
	</g>
</g>
</svg>
