<?xml version="1.0" encoding="utf-8"?>
<!-- Generator: Adobe Illustrator 28.0.0, SVG Export Plug-In . SVG Version: 6.00 Build 0)  -->
<svg version="1.1" id="Layer_1" xmlns="http://www.w3.org/2000/svg" xmlns:xlink="http://www.w3.org/1999/xlink" x="0px" y="0px"
	 viewBox="0 0 1080 1080" style="enable-background:new 0 0 1080 1080;" xml:space="preserve">
<style type="text/css">
	.st0{fill:none;stroke:#C1873A;stroke-width:16;stroke-linecap:round;stroke-linejoin:round;stroke-miterlimit:10;}
	.st1{fill:#E2D0E1;}
	.st2{fill:#EDE6EE;}
	.st3{fill:#DA9E53;}
	.st4{fill:#C98D4C;}
	.st5{fill:#DD6A6E;}
	.st6{fill:#D1626B;}
	.st7{fill:#F3EFF4;}
	.st8{fill:#C45C69;}
	.st9{fill:#FFB92E;}
	.st10{opacity:0.5;fill:#96A488;}
	.st11{fill:#F0F3EC;}
	.st12{fill:#E5E9E0;}
	.st13{fill:#B5CAD2;}
	.st14{fill:none;stroke:#009245;stroke-width:4;stroke-miterlimit:10;}
	.st15{fill:none;stroke:#009245;stroke-width:4;stroke-linecap:round;stroke-linejoin:round;stroke-miterlimit:10;}
	.st16{fill:none;stroke:#009245;stroke-width:4.1082;stroke-linecap:round;stroke-linejoin:round;stroke-miterlimit:10;}
	.st17{fill:none;stroke:#000000;stroke-width:1.9946;stroke-miterlimit:10;}
	.st18{fill:none;stroke:#000000;stroke-width:1.8919;stroke-miterlimit:10;}
	.st19{fill:none;stroke:#000000;stroke-width:1.924;stroke-miterlimit:10;}
	.st20{fill:none;stroke:#000000;stroke-width:1.924;stroke-linecap:round;stroke-linejoin:round;stroke-miterlimit:10;}
	.st21{fill:none;stroke:#000000;stroke-width:1.7309;stroke-linecap:round;stroke-linejoin:round;stroke-miterlimit:10;}
	.st22{fill:none;stroke:#000000;stroke-width:2;stroke-miterlimit:10;}
	.st23{fill:none;stroke:#000000;stroke-width:2;stroke-linecap:round;stroke-linejoin:round;stroke-miterlimit:10;}
	.st24{fill:#FFC257;}
	.st25{fill:#EDA229;}
	.st26{fill:#DD8E1B;}
	.st27{fill:#FFD085;}
	.st28{fill:none;stroke:#000000;stroke-width:3.4146;stroke-linecap:round;stroke-linejoin:round;stroke-miterlimit:10;}
	.st29{fill:none;stroke:#000000;stroke-width:1.8379;stroke-linecap:round;stroke-linejoin:round;stroke-miterlimit:10;}
	.st30{fill:none;stroke:#000000;stroke-linecap:round;stroke-linejoin:round;stroke-miterlimit:10;}
	.st31{fill:#D1D6CC;}
	.st32{fill:#F4DC98;}
	.st33{fill:#E9D2A3;}
	.st34{fill:#DAA765;}
	.st35{fill:#D09E62;}
	.st36{opacity:0.5;fill:#EDE1CA;}
	.st37{opacity:0.3;fill:#AF8056;}
	.st38{opacity:0.28;fill:#AF8056;}
	.st39{fill:#F3814A;}
	.st40{fill:#CF602F;}
	.st41{fill:#C35233;}
	.st42{fill:#F38A62;}
	.st43{opacity:0.2;fill:#FFFFFF;}
	.st44{opacity:0.37;fill:#DA7446;}
	.st45{opacity:0.1;fill:#FFFFFF;}
	.st46{opacity:0.08;fill:#FFFFFF;}
	.st47{opacity:0.3;fill:#997552;enable-background:new    ;}
	.st48{fill:#E5C98C;}
	.st49{opacity:0.6;fill:#F9E4BB;enable-background:new    ;}
	.st50{opacity:0.8;fill:#F9E4BB;enable-background:new    ;}
	.st51{fill:#618828;}
	.st52{fill:#92A931;}
	.st53{fill:#809A2C;}
	.st54{opacity:0.6;fill:#92A931;}
	.st55{opacity:0.6;fill:#618828;}
	.st56{opacity:0.25;fill:#E9D2A3;}
	.st57{fill:#E59055;}
	.st58{fill:#CE814D;}
	.st59{fill:#AF6C3E;}
	.st60{fill:#EFA16C;}
	.st61{fill:#FFBB8D;}
	.st62{fill:#E4C88B;}
	.st63{opacity:0.7;fill:#F8E3BA;}
	.st64{opacity:0.35;fill:#FFFFFF;}
	.st65{fill:#4D851D;}
	.st66{fill:#437A0F;}
	.st67{fill:#3B680B;}
	.st68{fill:#5B9324;}
	.st69{fill:#77B234;}
	.st70{fill:#E8EECB;}
	.st71{fill:#EFF4D4;}
	.st72{fill:#E3E8BF;}
	.st73{fill:#F9FFE1;}
	.st74{fill:#FCFFE9;}
	.st75{fill:#BF2C5A;}
	.st76{fill:#AF2859;}
	.st77{fill:#A3285A;}
	.st78{fill:#F3CEE4;}
	.st79{fill:#FFE3F7;}
	.st80{fill:#FFF8FD;}
	.st81{fill:#DBA9C9;}
	.st82{fill:#C9356A;}
	.st83{fill:#E0518B;}
	.st84{fill:#F96EA0;}
	.st85{fill:#A07A50;}
	.st86{fill:#BC916D;}
	.st87{fill:#936E4A;}
	.st88{fill:none;}
	.st89{fill:#E1AE4F;}
	.st90{fill:#D69F45;}
	.st91{fill:#C1873A;}
	.st92{fill:#E8B564;}
	.st93{fill:#F4C376;}
	.st94{fill:#AA7331;}
	.st95{fill:#839E39;}
	.st96{fill:#959F38;}
	.st97{fill:#8FAA44;}
	.st98{fill:#A8BF55;}
	.st99{fill:#708426;}
	.st100{fill:#FFCC73;}
	.st101{fill:#EDCC8C;}
	.st102{fill:#FFDDA1;}
	.st103{fill:#DDBB80;}
	.st104{fill:#FFE8C2;}
	.st105{fill:#CEA974;}
	.st106{fill:none;stroke:#E1AE4F;stroke-width:16;stroke-linecap:round;stroke-linejoin:round;stroke-miterlimit:10;}
	.st107{fill:none;stroke:#D69F45;stroke-width:16;stroke-linecap:round;stroke-linejoin:round;stroke-miterlimit:10;}
	.st108{fill:none;stroke:#F4C376;stroke-width:16;stroke-linecap:round;stroke-linejoin:round;stroke-miterlimit:10;}
	.st109{fill:none;stroke:#C1873A;stroke-width:5.6205;stroke-linecap:round;stroke-linejoin:round;stroke-miterlimit:10;}
	.st110{fill:none;stroke:#E1AE4F;stroke-width:5.6205;stroke-linecap:round;stroke-linejoin:round;stroke-miterlimit:10;}
	.st111{fill:none;stroke:#D69F45;stroke-width:5.6205;stroke-linecap:round;stroke-linejoin:round;stroke-miterlimit:10;}
	.st112{fill:none;stroke:#F4C376;stroke-width:5.6205;stroke-linecap:round;stroke-linejoin:round;stroke-miterlimit:10;}
	.st113{fill:none;stroke:#F4C376;stroke-width:5.2674;stroke-linecap:round;stroke-linejoin:round;stroke-miterlimit:10;}
	.st114{fill:none;stroke:#EDCC8C;stroke-width:5.8805;stroke-linecap:round;stroke-linejoin:round;stroke-miterlimit:10;}
	.st115{fill:none;stroke:#FFDDA1;stroke-width:5.8805;stroke-linecap:round;stroke-linejoin:round;stroke-miterlimit:10;}
	.st116{fill:none;stroke:#FFE8C2;stroke-width:5.8805;stroke-linecap:round;stroke-linejoin:round;stroke-miterlimit:10;}
	.st117{fill:none;stroke:#D1626B;stroke-width:5.2388;stroke-miterlimit:10;}
	.st118{fill:none;stroke:#D1626B;stroke-width:5.4518;stroke-miterlimit:10;}
	.st119{fill:none;stroke:#DD6A6E;stroke-width:5.2388;stroke-miterlimit:10;}
	.st120{fill:none;stroke:#AD4D58;stroke-width:5.0375;stroke-miterlimit:10;}
	.st121{fill:none;stroke:#D1626B;stroke-width:4.8407;stroke-miterlimit:10;}
	.st122{fill:none;stroke:#D1626B;stroke-width:5.0375;stroke-miterlimit:10;}
	.st123{fill:none;stroke:#DD6A6E;stroke-width:4.8407;stroke-miterlimit:10;}
</style>
<g>
	<g>
		<path class="st95" d="M564.97,582.61c-0.84,5.88-4.1,11.36-8.83,14.87c-2.98,2.21-6.76,5.63-8.51,8.93c1.66,1.76,3,4.56,1.57,6.51
			c-1.03,1.4-2.98,1.62-4.7,1.72c-5.73,0.33-11.47,0.65-17.2,0.98c-0.01-0.01-0.01-0.01-0.02,0c-0.43,0.02-0.87,0.05-1.3,0.07
			c-5.36,0.3-10.83,0.63-15.85,2.53c-7.43,2.82-13.1,8.76-17.36,15.67c-1.53,2.46-2.87,5.03-4.05,7.63l4.1-10.34l5.77-14.52
			l1.86-4.69c5.16-5.14,6.29-13.16,5.75-20.47c-0.17-2.26-0.47-4.51-0.79-6.76c-0.73-5.03-1.63-10.05-1.5-15.11
			c0.01-0.24,0.32-2.63,1.65-5.37c0.59-1.21,1.57-3.24,2.47-3.12c1.27,0.17,0.82,4.4,3.02,5.24c0.81,0.31,1.83,0.11,2.42-0.41
			c0.87-0.77,0.76-2.2,0.74-2.7c-0.22-4.34,2.4-11.43,4.34-11.62c1.72-0.16,2.52,5.16,4.64,5.16c1.65,0,2.02-3.24,5-7.94
			c3.17-5,7.05-6.93,9.99-9.83c1.5-1.48,3.53-3.07,5.47-2.26c1.92,0.8,1.73,4.85,1.63,6.69c-0.55,11.23-7.7,19.17-5.92,20.75
			c0.76,0.68,3.51,0.48,7.06,0.22c0.2-0.01,0.71-0.04,1.11,0.27c0.44,0.35,0.49,1,0.46,1.56c-0.29,5.64-5.21,10.61-10.76,10.91
			c-1.02,0.05-2.07-0.02-3,0.38c-0.93,0.4-1.67,1.51-1.26,2.45c0.85,1.95,4.76,0.47,5.4,2.5c0.31,0.97-0.53,1.93-1.4,2.45
			c-0.87,0.53-1.9,0.95-2.34,1.86c-0.67,1.36,0.5,3.1,1.98,3.44c1.46,0.36,2.98-0.3,4.21-1.18c3.57-2.55,4.27-5,6.87-8.18
			c3.66-4.45,9.02-7.4,10.12-6.44c0.41,0.36,0.45,1.46-1.2,4.75c1.36-0.7,2.77-1.43,4.29-1.53c1.53-0.11,3.22,0.54,3.88,1.94
			C565.19,580.53,565.12,581.6,564.97,582.61z"/>
		<path class="st96" d="M481.01,574.92c0.16,0.27,0.34,0.54,0.54,0.77l-10.67,4.7c-1.45-5.52-1.41-11.43,0.14-16.93
			c0.47-1.67,1.49-3.6,3.22-3.55c2.1,0.05,2.79,2.78,3.1,4.86C477.89,568.34,479.14,571.81,481.01,574.92z"/>
		<path class="st96" d="M481.55,575.69l3.44-1.52c-0.61,1.05-1.14,2.27-2.26,2.19C482.25,576.33,481.87,576.05,481.55,575.69z"/>
		<path class="st95" d="M526.62,614.61l-6.77-9.54l-14.44-20.34c-0.07,0.6-0.21,1.31-0.51,1.36c-0.72,0.12-2.06-3.56-2.81-6.42
			c-1.23-4.74-1.08-8.22-1.99-8.32c-0.09-0.01-0.33,0-0.93,0.84c-1.8,2.57-1.44,5.22-1.93,5.29c-0.5,0.07-1.15-2.72-2.49-6.27
			c-0.68-1.8-1.32-3.23-1.75-4.14c-0.25-0.36-0.5-0.71-0.76-1.07c-0.04,0.1-0.07,0.2-0.11,0.3c-0.59,1.53-1.35,2.93-2.42,4.18
			c-2.11,2.48-5.01,4.13-7.94,5.46c-6.88,3.11-8.63,1.95-9.91,3.9c-2.69,4.1,3.62,11.41,1.76,13.02c-1.93,1.67-9.76-5.4-11.14-4.03
			c-1.15,1.15,3.12,7.28,3.67,8.06c4.12,5.91,8.3,8.9,7.71,9.83c-0.64,1.01-5.77-2.12-6.94-0.77c-1.24,1.43,2.7,6.92,6.29,11.74
			c5.17,6.94,8.29,15.72,7.05,24.28c-1.59,11-10.04,20.53-9.8,31.63c-0.45-4.44-2.64-7.4-4.79-11.32
			c-9.44-17.15-14.49-29.58-18.24-48.81c-0.61-3.12-1.25-13.05-1.02-16.23c0.22-2.96,1.22-5.97,3.68-8.59
			c0.75-0.79,2.36-2.28,12.11-5.08c5.71-1.64,6.33-1.47,11.28-3.04c3.79-1.21,6.48-2.39,9.19-3.6c2.86-1.28,5.73-2.92,7.68-5.42
			c0.82-1.05,1.35-2.25,1.83-3.46c0.3-0.77,0.52-1.59,0.64-2.41c0.51-3.53,1.77-5.35,3.1-6.12c2.57-1.5,5.63-2.07,7.97-3.89
			c0.76-0.58,2.03-0.97,1.89-1.6c-0.11-0.47-1.02-1.67-1.37-1.98c-2.58-2.21-6.45-0.52-9.81-0.13c-0.64,0.08-1.33,0.09-1.86-0.27
			c-1.22-0.85-0.58-2.75,0.2-4.01c2.47-3.97,4.21-5.9,7.22-10.05c3.06-4.23,4.53-8.45,3.79-9.01c-0.54-0.41-2.96,0.55-4.86,1.31
			c-0.13,0.05-0.51,0.21-0.94,0.09c0,0-0.25-0.07-0.46-0.25c-0.79-0.67,0.37-4.14-0.41-4.64c-0.27-0.17-0.73,0.04-3.13,1.74
			c-2.38,1.69-2.78,2.08-3.01,1.94c-0.75-0.47,1.61-5.77,2.63-8.05c2.04-4.59,3.52-6.51,2.41-8.07c-0.66-0.92-1.71-1.44-2.59-2.16
			c-3.16-2.62-2.93-7.83-2.87-11.66c0.16-9.72-1.08-19.24-2.22-19.36c-1.44-0.15-4.53,14.66-9.51,17.14
			c-0.26,0.13-2.7,1.39-3.22,0.52c-0.23-0.39-0.2-0.88-0.34-1.32c-0.44-1.34-3.22-1.09-3.69-1.06c-2.82,0.17-4.3,1.58-4.6,1.23
			c-0.44-0.5,2.91-3.08,5.11-7.89c0,0,2.29-4.64,0.88-9.19c-0.11-0.36-0.26-0.73-0.58-0.94c-0.41-0.28-0.97-0.16-1.46-0.21
			c-1.77-0.17-2.67-2.31-2.54-4.07c0.13-1.77,0.89-3.48,0.8-5.26c-0.03-0.65-0.2-1.32-0.66-1.78c-1.4-1.34-3.58,0.38-4.64,2
			c-2.52,3.86-4.66,7.99-6.36,12.28c-1.42,3.59-3.14,7.85-6.92,8.64c-0.36,0.07-0.74,0.1-1.06-0.05c-0.56-0.27-0.72-0.98-0.81-1.6
			c-0.98-6.98-0.46-14.18,1.52-20.96c0.98-3.33,2.26-7.11,0.45-10.08c-0.97-1.57-2.73-2.73-3.06-4.54c-0.18-0.97,0.01-2.2-0.81-2.75
			c-1.1-0.75-2.37,0.66-2.95,1.86c-1.77-1.57-2.15-4.19-1.97-6.54c0.18-2.35,0.79-4.69,0.57-7.04c-0.07-0.62-0.21-1.28-0.68-1.7
			c-1.15-1-2.89,0.35-3.51,1.73c-0.63,1.39-1.12,3.15-2.59,3.56c-1.74-4.32-2.91-8.88-3.45-13.51c-0.15-1.24-0.89-2.37-2.06-2.8
			c-2.64-0.97-4.01,2.15-4.4,4.56c-1.62,10.08-2.51,21.07-1.44,31.23c-1.34,1.09-3.28-0.03-5.02-0.12c-1.77-0.1-3.51,1.09-4.22,2.72
			c-0.71,1.63-0.46,3.62,0.51,5.12c0.87,1.37,2.25,2.34,3.31,3.58c1.64,1.89,2.51,4.44,2.37,6.93c-0.02,0.32-0.07,0.68-0.31,0.89
			c-0.34,0.32-0.89,0.19-1.32,0c-4.76-2.05-7.02-8.24-12.04-9.57c-1.64,2.81-1.63,6.36-0.58,9.44c0.71,2.09,1.51,2.79,5.17,8.19
			c2.91,4.3,4.89,7.24,4.42,7.67c-0.42,0.38-2.83-1.12-4.55-2.85c0,0-2.44-2.74-4.37-3.87c-0.53-0.31-1.08-0.6-1.76-0.27
			c-0.84,0.4-0.95,2.04-0.97,2.33c-0.21,3.55,1.92,11.8,1.92,11.8c1.28,4.96,1.65,10.86,0.51,11.23c-0.86,0.28-2.82-2.47-3.86-4.9
			c-0.81-1.9-2.84-7.93-3.76-9.35c-0.19-0.29-0.43-0.6-0.77-0.68c-0.35-0.09-0.73,0.09-1.03,0.31c-2.06,1.49-1.7,8.3-1.7,8.3
			c0.31,5.8,1.37,8.5,0.7,8.8c-0.65,0.29-2.2-1.98-7.24-7.73c-2.07-2.36-3.79-4.23-4.8-3.8c-0.68,0.29-1.29,1.72-2.36,4.24
			c-0.08,0.21-0.28,0.6-0.68,0.8c-0.66,0.34-1.42-0.21-1.94-0.74c-5.07-5.18-8.2-11.91-12.6-17.66c-1.3-1.71-3.49-3.5-5.37-2.44
			c-1.54,0.88-1.62,3.05-1.36,4.81c0.71,4.95,2.47,9.75,5.12,14c2.5,4.02,5.47,7.91,5.56,12.64c-1.11-0.42-2.28-0.85-3.46-0.7
			c-1.18,0.15-2.36,1.07-2.35,2.26c0,0.54,0.23,1.04,0.48,1.52c1.46,2.82,3.58,5.29,6.15,7.17c4.03,2.94,9.2,4.47,12.34,8.36
			c1.05,1.31,1.84,3.11,1.14,4.63c-1.04,2.28-4.28,2.14-6.73,1.63c-2.86-0.58-5.73-1.18-8.59-1.77c-0.34-0.07-0.7-0.15-1.04-0.06
			c-0.74,0.2-1.1,1.11-0.97,1.88c0.21,1.24,1.26,2.13,2.02,3.14c0.88,1.15,1.32,3.1-0.32,3.74c-0.65,0.26-1.39,0.14-2-0.21
			c-2.02-1.13-4.04-2.28-6.07-3.42c-1.21-0.68-2.73-1.37-3.91-0.63c-0.96,0.6-1.22,1.96-0.87,3.04c0.34,1.08,1.15,1.95,1.95,2.74
			c8.65,8.64,20.84,15.46,32.96,13.88c-0.87,1.81-2.14,3.44-2.66,5.37c-0.52,1.94,0.01,4.4,1.86,5.18c1.46,0.61,3.1-0.02,4.59-0.55
			c4.81-1.68,9.96-2.11,15.04-2.54c1.5-0.12,3.01-0.24,4.51-0.15c1.4,0.1,2.77,0.39,4.12,0.74c4.17,1.09,11.1,4.84,12.74,8.84
			c6.22,15.21,5.16,32.48,10.27,48.1c1.62,4.95,3.84,9.68,6.05,14.38c5.22,11.12,10.44,22.22,15.66,33.33
			c-14.31-2.8-28.63-11.49-38.35-22.37c-4.75-5.34-8.36-11.61-12.18-17.65c-0.8-1.26-3.72-5.88-5.11-5.37
			c-0.66,0.25-0.88,1.63-1.12,3.22c-0.4,2.58,0.08,3.58-0.35,3.84c-0.95,0.57-3.98-3.81-9.54-8.96c-1.64-1.52-4.9-4.45-9.76-6.71
			c-1.88-0.87-4.83-2.24-5.7-1.29c-0.8,0.89,0.51,3.3,1.35,4.84c2.66,4.87,5.17,5.33,6.39,9.31c0.24,0.8,1.12,3.64-0.24,4.98
			c-0.23,0.23-0.79,0.66-2.13,0.73c-1.16,0.05-3.77-0.17-7.08-3.3c-4.24-3.99-3.89-7.31-7.41-8.53c-0.24-0.08-2.44-0.84-3.15,0.09
			c-1.24,1.62,1.9,4.19,0.27,5.75c-0.56,0.54-1.42,0.63-2.13,0.34c-7.64-3.12-15.15-8.94-23.36-7.58c-0.38,0.06-0.78,0.15-1.06,0.41
			c-0.71,0.67-0.21,1.85,0.36,2.63c4.9,6.53,13.57,9.21,18.95,15.36c1.47,1.67,2.57,4.46,0.87,5.91c-1.11,0.93-2.78,0.65-4.18,0.25
			c-5.89-1.68-11.47-4.43-16.38-8.09c-3.25-2.41-6.99-5.4-10.86-4.24c-0.3,0.09-0.61,0.22-0.77,0.49c-0.23,0.42,0.03,0.96,0.13,1.16
			c0.79,1.67,5.91,7.22,5.71,7.55c-0.35,0.56-19.6-7.51-25.13-7.7c-0.51-0.02-1.59,0.04-2.12,0.64c-1.06,1.2,0.14,2.83,1.35,3.69
			c2.45,1.77,5.34,2.84,7.92,4.42c2.58,1.58,4.97,3.9,5.47,6.89c0.04,0.27,0.07,0.57-0.1,0.79c-0.18,0.24-0.52,0.29-0.82,0.31
			c-4.76,0.34-9.36-1.55-14.06-2.34c-2.78-0.48-5.62-0.57-8.42-0.27c-0.57,0.06-1.19,0.16-1.6,0.56c-0.65,0.63-0.48,1.71-0.43,2.06
			c0.44,3.26,6.23,5.82,5.91,6.76c-0.42,1.24-10.7-2.79-21.93,0.06c-1.1,0.28-4.87,1.3-4.82,2.43c0.11,2.43,17.87,4.42,23.37,10.05
			c0.44,0.45,2.23,2.16,1.56,3.27c-0.61,1.01-1.8,1.47-2.89,1.88c-1.41,0.51-2.94,1.16-3.15,2.87c-0.12,0.92,0.23,1.85,0.85,2.54
			c1.34,1.5,3.38,1.95,4.93,2.05c7.83,0.5,26.02-4.6,26.5-3.52c0.16,0.36-1.7,1.47-6.05,4.58c-6.44,4.61-6.94,5.48-6.78,6.09
			c0.35,1.33,4.01,2.19,6.94,1.59c0.39-0.08,3.85-0.64,6.06-0.98c0.5-0.08,1.12-0.06,1.39,0.37c0.18,0.3,0.11,0.69,0.01,1.02
			c-0.58,1.98-2.04,3.56-3.47,5.06c-1.43,1.49-2.91,3.06-3.53,5.03c-0.63,1.97-0.13,4.47,1.68,5.46c1.34,0.74,3,0.5,4.48,0.11
			c3.89-1,7.58-2.79,10.77-5.24c1.42-1.07,2.81-2.33,4.55-2.68c1.44-0.29,2.93,0.08,4.4,0.09c3.79,0.04,7.24-2.26,9.8-5.06
			c2.56-2.79,4.48-6.11,6.91-9c8.32-9.88,21.59-13.73,34.05-17.1c-1.68,5.17-6.14,8.84-10.64,11.9c-4.5,3.06-9.32,6.13-11.85,10.95
			c-1.26,2.39-1.93,5.8-0.79,6.62c1.78,1.28,7.26-4.27,8.22-3.37c1.01,0.96-4.29,8.09-5.35,15.95c-0.17,1.27-0.28,2.9,0.48,3.32
			c0.54,0.29,1.49-0.04,3.34-1.66c5.1-4.46,6.53-9.51,7.56-9.28c0.95,0.21,0.72,4.73,0.63,6.28c-0.57,9.84-2.47,22.63-2.47,22.63
			c-0.14,3.54-0.15,7.16,1.03,10.49c0.46,1.28,1.59,2.71,2.87,2.25c1.64-0.58,1.17-3.54,3.35-3.84c0.75-0.1,1.5,0.22,2.04,0.76
			c1.39,1.39,1.36,3.35,1.97,5.08c0.49,1.39,1.7,2.74,3.16,2.54c2.03-0.29,2.42-3.06,2.15-5.1c-0.46-3.43-1.05-4.86-2.28-9.77
			c-0.24-0.96-1.94-7.72-0.62-8.29c1.14-0.5,5.23,3.38,7.53,6.27c0.41,0.52,1.07,1.39,1.8,1.29c1.36-0.19,1.89-3.64,1.91-3.81
			c0.91-6.24-5.4-11.29-4.54-12.26c0.79-0.88,6.39,2.82,15.77,8.4c5.01,2.98,9.56,5.58,10.32,4.69c0.89-1.05-3.76-6.65-4.34-12.5
			c-0.08-0.77-0.1-1.74,0.5-2.38c1.35-1.42,4.54,0.23,5.22-0.8c0.57-0.85-1.04-2.83-1.26-3.11c-2.4-3.03-5.93-5.14-9.72-5.83
			c-1.61-0.3-3.81-1.02-3.48-2.63c0.3-1.47,2.35-1.48,3.85-1.45c2.18,0.06,4.38-0.55,6.21-1.74c0.49-0.32,0.99-0.71,1.19-1.27
			c0.56-1.49-1.22-2.78-2.74-3.2c-3.85-1.07-8.05-0.59-11.81-1.98c-3.4-1.25-6.19-4.03-7.45-7.42c-1.25-3.39-0.95-7.32,0.81-10.49
			c2.72-4.89,7.37-10.27,12.92-10.96c5.55-0.69,11.12,0.96,16.36,2.94c12.04,4.56,20.46,9.53,24.6,12.64
			c0.98,0.74,1.47,1.11,2.09,1.63c5.85,4.92,7.74,9.72,14.52,26.04c5.7,13.72,6.33,15.03,7.49,18.98c2.38,8.06,3.32,11.7,3.32,11.7
			c2.3,8.86,3.12,13.95,6.62,15.19c1.59,0.56,3.36,0.2,3.73,0.12c0.34-0.07,3.76-0.83,5.08-3.51c0.69-1.38,0.57-2.78-1.22-8.59
			c-1.19-3.9-1.79-5.85-2.39-7.28c-10.9-26.05-24.15-48.22-24.15-48.22c-3.59-6-5.1-8.24-5.95-12.41
			c-2.04-10.13,2.2-19.9,3.41-22.67c1.42-3.28,3.21-6.12,3.44-6.48c1.1-1.73,2.36-3.46,4.91-6.45c1.04-1.22,2.56-2.99,4.32-4.89
			c1.35-1.45,2.85-2.99,4.4-4.43c1.95-1.81,3.64-3.14,5.2-4.22c6.4-4.43,10.38-6.28,13.92-8.86
			C519.44,625.44,523.39,621.57,526.62,614.61z"/>
		<path class="st97" d="M404.65,571.13c-6.49,0.77-8.73,1.07-9.05,0.28c-0.49-1.19,3.66-4.16,5.54-5.37c3.43-2.2,5.61-2.56,5.6-3.53
			c-0.02-1.52-5.36-2.61-6.46-2.82c-8.28-1.61-12.12,0.81-20.67-0.88c-2.5-0.49-5.66-1.12-5.78-2.34
			c-0.31-3.24,21.51-4.72,22.63-11.94c0.56-3.59-4.57-4.93-11.34-14.47c-5.39-7.59-8.65-15.92-7.73-16.5
			c0.58-0.37,2.55,2.52,5.91,5.81c7.25,7.1,20.07,15.28,25.28,11.71c4.07-2.78,3.55-12.74,3.51-13.38
			c-0.22-3.66-1.27-5.86,0.13-7.74c1.65-2.19,4.34-0.83,7.16-2.24c3.5-1.74,4.65-6.47,6.7-25.75c1.07-10.08,1.29-13.86,1.87-13.87
			c0.85-0.02,1.95,7.93,2.18,15.45c0.31,10.28-1.11,16.79-1.85,22.41c-2.55,19.43,0.78,46.02,4.47,61.97
			c0.38,1.64,1.89,8.05-0.38,9.41c-2.91,1.73-8.01-7.15-17.68-7.35C414.41,569.98,411.15,570.36,404.65,571.13z"/>
		<path class="st97" d="M481.38,618.62c4.58,9.94,5.58,12.52,6.65,12.31c1.59-0.3,0.56-6.16,3.68-16.41
			c1.56-5.13,3.05-7.74,4.42-9.63c2.65-3.66,5.55-5.63,6.54-6.35c12.18-8.83,20.84-35.73,19.86-36.23c-0.12-0.06-0.73,0.76-1.96,2.4
			c-4.28,5.71-4.89,8.12-6.58,8.25c-2.24,0.17-3.37-3.93-4.7-3.63c-2.61,0.59,1.82,16.48-4.17,20.41c-3.07,2.01-8.66,0.74-9.97-1.74
			c-0.79-1.5-0.4-2.53-0.85-5.09c-0.3-1.71-1.94-3.53-3.51-2.8c-0.48,0.22-0.83,0.65-1.15,1.07c-1.78,2.36-3,5.14-3.54,8.05
			c-0.51,2.73-0.91,5.3-3.83,6.13c-2.65,0.75-4.83-0.21-6.34,2.85C473.9,602.33,478.77,612.94,481.38,618.62z"/>
		<g>
			<path class="st98" d="M313.01,675.17c13.27,8.26,30.27,10.11,45.18,5.67c1.62-0.45,4.84-1.48,6.42-2.05
				c17.17-5.52,34.76-11.84,53.06-11.38c0.55,0.02,0.98,0.49,0.96,1.04c-0.02,0.56-0.51,0.99-1.06,0.95
				c-8.92-0.48-17.85,1.2-26.53,3.25c-8.75,2.11-17.38,4.75-25.95,7.56c-4.19,1.44-8.83,2.78-13.18,3.52
				c-13.51,2.12-27.86-0.34-39.47-7.75C311.94,675.62,312.38,674.78,313.01,675.17L313.01,675.17z"/>
		</g>
		<g>
			<path class="st98" d="M375.8,646.35c11.74,6.73,24.12,12.72,37.08,16.63c1.24,0.39,0.71,2.27-0.57,1.92
				c-13.07-4.3-25.31-10.59-37.04-17.7C374.74,646.86,375.23,646,375.8,646.35L375.8,646.35z"/>
		</g>
		<g>
			<path class="st98" d="M332.18,668.35c5.12,2.66,10.34,5.68,15.88,7.28c1.27,0.32,0.83,2.23-0.46,1.95
				c-5.76-1.98-10.75-5.3-15.93-8.37C331.13,668.87,331.61,668.04,332.18,668.35L332.18,668.35z"/>
		</g>
		<g>
			<path class="st98" d="M353.93,662.72c5.19,2.89,10.54,5.99,16.31,7.49c0.54,0.11,0.89,0.65,0.78,1.19
				c-0.12,0.56-0.69,0.91-1.24,0.76c-3.06-0.89-5.77-2.33-8.52-3.82c-2.69-1.49-5.29-3.08-7.86-4.76
				C352.87,663.21,353.38,662.38,353.93,662.72L353.93,662.72z"/>
		</g>
		<g>
			<path class="st98" d="M383.45,663.05c5.02-0.22,10.02-0.35,15.09-0.11c0.55,0.03,0.98,0.49,0.95,1.05
				c-0.03,0.55-0.49,0.98-1.05,0.95c-4.93-0.56-9.97-0.77-14.98-0.89C382.83,664.05,382.81,663.08,383.45,663.05L383.45,663.05z"/>
		</g>
		<g>
			<path class="st98" d="M405.78,650.6c2.03,3.04,4.02,6.1,5.91,9.23c0.63,1.06,1.24,2.1,1.8,3.28c0.24,0.5,0.02,1.1-0.48,1.33
				c-0.5,0.24-1.1,0.02-1.33-0.48c-1.88-4.41-4.4-8.65-6.75-12.84C404.61,650.59,405.42,650.08,405.78,650.6L405.78,650.6z"/>
		</g>
		<g>
			<path class="st98" d="M405.9,696.61c-1.56,4.98-2.85,10.13-3.73,15.28c-0.82,5.1-1.49,10.46-0.34,15.53
				c0.16,0.61-0.79,0.88-0.97,0.26c-1.36-5.26-0.85-10.72-0.18-16.01c0.73-5.3,1.86-10.49,3.3-15.65
				C404.38,694.74,406.3,695.31,405.9,696.61L405.9,696.61z"/>
		</g>
		<g>
			<path class="st98" d="M403.54,705.77c2.11,3.4,4.39,6.91,7.28,9.67c0.48,0.41-0.15,1.17-0.64,0.77
				c-3.29-2.67-5.82-5.97-8.32-9.36c-0.32-0.45-0.22-1.07,0.23-1.4C402.56,705.12,403.25,705.27,403.54,705.77L403.54,705.77z"/>
		</g>
		<g>
			<path class="st98" d="M357.7,682.78c-5.41,6.97-11.3,13.69-18.67,18.65c-0.54,0.35-1.1-0.46-0.56-0.83
				c5.27-3.78,9.67-8.72,13.71-13.77c1.35-1.7,2.67-3.45,3.89-5.22C356.85,680.53,358.49,681.69,357.7,682.78L357.7,682.78z"/>
		</g>
		<g>
			<path class="st98" d="M481.17,582.54c2.2,11.61,4.14,23.9,9.03,34.7c0.25,0.49,0.06,1.09-0.43,1.35
				c-0.5,0.26-1.12,0.05-1.36-0.46c-2.57-5.64-3.82-11.58-5.13-17.56c-1.23-5.93-2.25-11.89-3.09-17.88
				C480.09,582.06,481.06,581.89,481.17,582.54L481.17,582.54z"/>
		</g>
		<g>
			<path class="st98" d="M537.78,548.37c-6.8,9.65-12.36,20.28-16.29,31.42c-3.58,11.4-7.46,22.86-13.98,33
				c-0.76,1.1-2.43-0.04-1.63-1.16c4.84-7.33,8.37-15.62,11.33-23.89c2.73-8.49,5.91-16.97,10.24-24.8
				c2.86-5.25,5.97-10.34,9.53-15.18C537.35,547.28,538.19,547.8,537.78,548.37L537.78,548.37z"/>
		</g>
		<g>
			<path class="st98" d="M529.21,595.14c-1.4,1.84-13.58,19.66-15.28,16.58c-0.34-0.45-0.23-1.11,0.24-1.43
				c2.77-1.94,5.18-4.84,7.47-7.42c2.32-2.71,4.58-5.5,6.76-8.33C528.78,594.05,529.57,594.61,529.21,595.14L529.21,595.14z"/>
		</g>
		<g>
			<path class="st98" d="M554.78,587.36c-6.15,6.84-13.15,12.88-20.96,17.76c-2.6,1.64-5.36,3.04-8.17,4.32
				c-0.5,0.23-1.1,0.01-1.32-0.5c-0.23-0.51,0-1.11,0.52-1.33c8.36-3.43,15.89-8.68,22.67-14.63c2.26-2,4.47-4.09,6.51-6.28
				C554.45,586.22,555.22,586.86,554.78,587.36L554.78,587.36z"/>
		</g>
		<g>
			<path class="st98" d="M483.57,502.79c-6.91,21.79-20.74,63.51-36.59,79.01c-0.97,0.88-2.34-0.56-1.34-1.48
				c5.2-4.86,8.99-11.19,12.45-17.4c6.92-12.73,12.39-26.24,17.45-39.82c2.51-6.82,4.89-13.69,7.09-20.6
				c0.08-0.26,0.36-0.41,0.63-0.33C483.5,502.25,483.65,502.53,483.57,502.79L483.57,502.79z"/>
		</g>
		<g>
			<path class="st98" d="M490.51,539.56c-4.84,1.92-9.68,4.15-13.9,7.21c-1.36,1.02-2.68,2.14-3.56,3.44
				c-0.31,0.46-0.94,0.59-1.4,0.28c-2.45-1.87,7.16-7.18,8.64-7.83c3.21-1.59,6.51-2.91,9.89-4.05
				C490.8,538.42,491.13,539.34,490.51,539.56L490.51,539.56z"/>
		</g>
		<g>
			<path class="st98" d="M454.48,502.75c-2.23,5.76-4.6,11.46-8.44,16.39c-2.06,2.38-4.2,4.48-6.24,6.73
				c-1.84,2.11-4.17,4.46-4.95,7.08c-0.36,1.28-2.29,0.75-1.92-0.55c1.11-3.26,3.42-5.34,5.6-7.73c2.11-2.21,4.38-4.32,6.37-6.5
				c1.91-2.24,3.45-4.87,4.86-7.53c1.4-2.68,2.67-5.45,3.8-8.26C453.78,501.81,454.71,502.14,454.48,502.75L454.48,502.75z"/>
		</g>
		<g>
			<path class="st98" d="M447.87,557.93c0.51,5.79,0.79,11.6,0.35,17.41c-0.17,1.95-0.39,3.91-0.98,5.88
				c-0.16,0.53-0.71,0.83-1.24,0.67c-0.54-0.16-0.85-0.75-0.66-1.28c2.1-7.24,1.74-15.1,1.53-22.6
				C446.83,557.38,447.81,557.28,447.87,557.93L447.87,557.93z"/>
		</g>
		<g>
			<path class="st98" d="M382.19,519.2c7.61,9.2,15.42,18.27,23.72,26.84c4.14,4.37,8.81,8.05,13.05,12.31
				c4.24,4.31,8.14,8.88,11.52,14c0.7,1.09-0.93,2.2-1.67,1.09c-4.77-7.45-10.9-14.13-17.54-20.02
				c-6.64-6.11-12.53-12.94-18.41-19.75c-3.89-4.56-7.7-9.17-11.44-13.85c-0.17-0.22-0.14-0.53,0.08-0.7
				C381.71,518.95,382.02,518.99,382.19,519.2L382.19,519.2z"/>
		</g>
		<g>
			<path class="st98" d="M422.01,502.24c2.79,5.91,5.81,12.02,8.22,18.13c0.44,1.24-1.4,1.93-1.88,0.7
				c-0.84-2.69-2.43-6.58-3.48-9.26c-1.23-3.06-2.49-6.11-3.77-9.15C420.86,502.07,421.73,501.66,422.01,502.24L422.01,502.24z"/>
		</g>
		<path class="st98" d="M460.79,513.95c-5.08,9.54-9.87,19.23-14.31,29.1c-2.71,6.15-5.36,12.49-7.49,18.9
			c-0.58,1.8-1.12,3.62-1.57,5.46c-1.61-12.67-2.75-25.43-2.88-38.2c-0.04-4.97,0.16-9.96,0.85-14.84c0.31-2.16,0.88-5.32,1.06-7.46
			c0.44-4.03,0.62-8.07,0.67-12.13c0.03-1.14,0.03-2.29,0.02-3.43c0-2.34-0.04-4.68-0.1-7.02c-0.33-10.02-1.08-20.02-2.17-29.98
			c-0.03-0.27-0.27-0.47-0.54-0.44c-0.28,0.03-0.48,0.27-0.45,0.55c1.01,9.93,1.69,19.92,1.91,29.9c0.02,0.91,0.04,1.82,0.05,2.73
			c-1.94-5.84-4.08-11.62-6.25-17.38c-0.23-0.6-1.14-0.26-0.94,0.34c2.54,7.92,5.44,15.9,7.13,24.02c0.01,0.05,0.02,0.1,0.04,0.14
			c-0.14,6.69-0.65,13.36-1.89,19.93c-1.46,10-1.07,20.08-0.53,30.12c0.61,10.02,1.59,19.99,2.92,29.94
			c0.17,1.17,1.86,1.08,1.98-0.05c0.34-5.22,2.02-10.52,3.69-15.48c5.42-15.21,12.39-29.86,19.7-44.26
			C461.98,513.83,461.08,513.39,460.79,513.95z"/>
		<g>
			<path class="st98" d="M413.85,529.45c0.06,6.16,0.05,12.36,0.72,18.48c0.1,0.87,0.24,1.71,0.53,2.53
				c0.37,1.25-1.49,1.84-1.9,0.59c-0.55-1.82-0.55-3.76-0.63-5.62c-0.13-5.34,0.05-10.67,0.28-16
				C412.88,528.79,413.85,528.8,413.85,529.45L413.85,529.45z"/>
		</g>
		<g>
			<path class="st98" d="M391.29,551.76c4.45,0.67,8.89,1.38,13.31,2.4c2.18,0.52,4.58,1.12,6.53,2.25
				c1.86,0.94,3.96,1.31,5.94,0.93c0.54-0.1,1.07,0.25,1.17,0.79c0.11,0.56-0.28,1.1-0.84,1.18c-3.05,0.54-6-0.63-8.51-2.13
				c-1.49-0.67-3.07-1.13-4.66-1.57c-4.29-1.16-8.7-2.03-13.11-2.87C390.5,552.63,390.64,551.66,391.29,551.76L391.29,551.76z"/>
		</g>
		<g>
			<path class="st98" d="M402.35,520.4c-0.02,4.78-0.19,9.87,1.19,14.46c0.44,1.24-1.4,1.92-1.88,0.69
				c-1.22-5.03-0.66-10.15-0.31-15.22C401.42,519.7,402.38,519.76,402.35,520.4L402.35,520.4z"/>
		</g>
		<path class="st99" d="M527.31,615.58c0,0.01-0.01,0.03-0.01,0.04c-0.01-0.01-0.01-0.01-0.02,0c-4.01,5.89-8.07,9.72-10.98,12.1
			c-7.57,6.2-11.24,5.77-19.12,13.08c-1.55,1.44-3.05,2.97-4.4,4.43c-0.03-2.44-0.07-6.66-0.02-11.33c0.01-0.89,0.04-1.79,0.05-2.71
			c0.2-8.91,0.81-18.53,2.49-20.38c2.27-2.48,2.77,2.25,3.28,5.85c0.21,1.6,0.43,2.98,0.8,3.43c1.2,1.44,3.12-1.58,4.01-6.99
			c0.9-5.42,5-12.84,6.05-9.49c1.05,3.35-0.86,9.75,0.32,10.56c0.52,0.35,4.98-4.25,10.07-9.09c6.49-6.18,13.99-12.72,15.56-9.75
			C538.21,600.62,529.27,605.32,527.31,615.58z"/>
		<path class="st99" d="M499.37,561.88c-0.8,1.16-1.03,1.79-1.53,2.33c-1.3,1.4-2.71,2.68-4.19,3.88c-0.89,0.72-1.67,1.3-2.26,1.74
			c-0.92,0.68-2.31,1.66-4.11,2.78c-0.18,0.11-0.4,0.25-0.76,0.47c-2.65,1.61-5.08,2.97-5.41,3.15c-4.99,2.77-7.48,4.15-8.1,4.45
			c-4.27,2.03-7.84,2.92-10.75,3.64c-1.96,0.49-9.38,2.24-11.88,4.31c-1.1,0.91-1.86,2.02-1.86,2.02c-0.55,0.79-0.88,1.54-1.08,2.07
			c1.37-6.35,6.2-11.88,12.35-14.03c1.72-0.61,3.53-0.97,5.27-1.55c3.59-1.21,6.84-3.43,9.27-6.33c1.89-2.25,3.7-5.15,6.63-5.41
			c0.21-0.02,0.44-0.01,0.61,0.1c0.29,0.2,0.31,0.62,0.31,0.8c0.08,1.73-0.12,3.57,0.19,3.73c0.41,0.21,2-2.19,2.79-3.32
			c0,0,1.84-2.63,6.17-6.83c4.86-4.72,11.95-6.48,14.15-6.15c0.34,0.05,0.56,0.15,0.64,0.3
			C506.2,554.72,503.28,556.26,499.37,561.88z"/>
		<path class="st99" d="M432.15,707.32c0.72,0.2,1.5,0.59,2.05,1.11c-0.8-0.19-2.02-0.45-3.52-0.65c-5.84-0.77-7.64,0.49-11.56-0.53
			c-1.12-0.29-3.76-1.01-6.09-3.25c-2.66-2.56-3.39-5.64-3.82-7.46c-0.34-1.43-1.2-5.4,0.44-10.04c1.58-4.45,4.67-6.97,6.07-8.08
			c2.51-2,4.96-2.78,5.96-3.26c3.86-1.87,8.53-1.62,12.52,0c1.85,0.74,3.58,1.77,5.15,2.97c-4.15-1.33-8.45-2.19-12.74-1.66
			c-5.55,0.69-10.2,6.07-12.92,10.96c-1.76,3.17-2.06,7.1-0.81,10.49c1.26,3.38,4.05,6.17,7.45,7.42
			C424.1,706.73,428.29,706.25,432.15,707.32z"/>
		<path class="st97" d="M392.21,695.84c-5.3,4.29-8.05,6.18-7.62,7.1c0.43,0.92,3.89,0.56,6.53-0.58c2.35-1.02,3.59-2.46,3.84-2.22
			c0.32,0.31-1.75,2.69-4.09,6.73c-1.22,2.11-2.99,5.48-2.53,5.8c0.27,0.19,1.09-0.81,3.26-2.39c2.14-1.56,3.22-2.35,3.74-2.14
			c1.66,0.64-0.67,7.64-0.5,17.44c0.11,6.13,1.16,11.68,1.7,11.66c0.61-0.02,0.32-7.41,1.59-20.16c0.71-7.1,1.07-10.65,2.12-15.05
			c2.43-10.17,5.9-15.17,4.67-16.03C403.94,685.3,401.54,688.29,392.21,695.84z"/>
		<path class="st97" d="M422.6,728.11c1.8,1.6,3.53,3.58,5.91,3.95c0.56-2.41-0.85-4.86-0.77-7.33c0.05-1.28,0.44-2.73-0.38-3.71
			c-0.63-0.75-1.72-0.86-2.7-0.9c-3.28-0.13-6.81-0.22-10.05,0.39C413.87,724.31,420.34,726.1,422.6,728.11z"/>
	</g>
	<g>
		<path class="st95" d="M510.13,479.71c1.2,5.82,4.78,11.09,9.72,14.3c3.11,2.03,7.09,5.21,9.04,8.4c-1.55,1.86-2.72,4.73-1.17,6.59
			c1.11,1.34,3.08,1.44,4.8,1.43c5.74-0.02,11.48-0.05,17.23-0.07c0.01-0.01,0.01-0.01,0.02,0c0.43,0,0.87-0.01,1.3-0.01
			c5.37-0.02,10.84-0.03,15.98,1.56c7.59,2.36,13.61,7.95,18.28,14.58c1.67,2.36,3.17,4.85,4.51,7.37l-4.72-10.07l-6.64-14.14
			l-2.14-4.57c-5.46-4.82-7.08-12.75-6.99-20.09c0.03-2.26,0.19-4.53,0.37-6.79c0.43-5.07,1.01-10.13,0.58-15.17
			c-0.02-0.24-0.48-2.61-1.97-5.26c-0.66-1.17-1.76-3.14-2.65-2.96c-1.25,0.25-0.55,4.44-2.69,5.42c-0.79,0.36-1.82,0.22-2.44-0.27
			c-0.92-0.72-0.9-2.15-0.9-2.65c-0.05-4.34-3.09-11.27-5.04-11.33c-1.73-0.06-2.2,5.31-4.32,5.43c-1.65,0.1-2.22-3.12-5.47-7.62
			c-3.47-4.79-7.46-6.49-10.57-9.2c-1.58-1.38-3.71-2.85-5.6-1.92c-1.87,0.92-1.43,4.95-1.22,6.78c1.24,11.17,8.85,18.67,7.17,20.35
			c-0.72,0.72-3.47,0.69-7.03,0.65c-0.2,0-0.72,0-1.09,0.33c-0.42,0.37-0.43,1.02-0.36,1.58c0.63,5.61,5.85,10.28,11.41,10.24
			c1.02-0.01,2.07-0.14,3.02,0.2c0.95,0.34,1.76,1.41,1.4,2.37c-0.73,1.99-4.72,0.75-5.24,2.82c-0.25,0.99,0.65,1.89,1.54,2.36
			c0.9,0.47,1.96,0.83,2.45,1.72c0.75,1.32-0.31,3.12-1.76,3.56c-1.44,0.44-2.99-0.12-4.27-0.92c-3.72-2.33-4.57-4.73-7.36-7.75
			c-3.92-4.22-9.45-6.84-10.49-5.81c-0.39,0.38-0.36,1.48,1.48,4.67c-1.4-0.62-2.85-1.25-4.37-1.27c-1.53-0.01-3.18,0.74-3.76,2.18
			C509.79,477.65,509.92,478.71,510.13,479.71z"/>
		<path class="st96" d="M593.47,466.91c-0.14,0.27-0.3,0.56-0.5,0.81l10.94,4.04c1.11-5.6,0.71-11.5-1.18-16.89
			c-0.57-1.63-1.71-3.5-3.43-3.35c-2.1,0.17-2.61,2.94-2.8,5.04C596.18,460.16,595.14,463.7,593.47,466.91z"/>
		<path class="st96" d="M592.98,467.72l-3.52-1.3c0.67,1.01,1.28,2.19,2.39,2.05C592.32,468.4,592.68,468.1,592.98,467.72z"/>
		<path class="st95" d="M550.36,509.31l6.18-9.93l13.17-21.18c0.1,0.59,0.28,1.29,0.59,1.33c0.73,0.08,1.84-3.67,2.41-6.58
			c0.94-4.81,0.58-8.27,1.48-8.43c0.09-0.02,0.33-0.03,0.98,0.78c1.96,2.45,1.76,5.12,2.25,5.16c0.51,0.04,0.98-2.78,2.1-6.41
			c0.57-1.83,1.12-3.3,1.49-4.24c0.23-0.37,0.46-0.74,0.69-1.11c0.04,0.1,0.09,0.19,0.13,0.29c0.68,1.5,1.53,2.84,2.67,4.03
			c2.25,2.35,5.25,3.82,8.26,4.96c7.05,2.69,8.73,1.42,10.13,3.29c2.94,3.93-2.92,11.61-0.97,13.1c2.03,1.55,9.42-5.99,10.88-4.7
			c1.22,1.07-2.67,7.45-3.17,8.27c-3.75,6.15-7.74,9.39-7.1,10.29c0.7,0.97,5.63-2.46,6.88-1.19c1.33,1.36-2.27,7.07-5.56,12.11
			c-4.74,7.24-7.32,16.2-5.56,24.66c2.25,10.89,11.27,19.88,11.71,30.98c0.17-4.46,2.18-7.55,4.09-11.59
			c8.37-17.69,12.66-30.41,15.23-49.83c0.41-3.15,0.45-13.1,0.02-16.26c-0.4-2.94-1.58-5.89-4.2-8.35c-0.8-0.75-2.49-2.14-12.4-4.34
			c-5.8-1.29-6.4-1.08-11.45-2.35c-3.86-0.97-6.61-1.99-9.4-3.03c-2.93-1.1-5.9-2.56-8-4.94c-0.88-1-1.48-2.16-2.03-3.35
			c-0.35-0.75-0.62-1.55-0.79-2.37c-0.73-3.5-2.1-5.23-3.47-5.92c-2.65-1.34-5.75-1.73-8.2-3.4c-0.8-0.54-2.08-0.84-1.98-1.49
			c0.08-0.48,0.91-1.73,1.25-2.06c2.44-2.37,6.41-0.92,9.78-0.73c0.64,0.04,1.33,0.01,1.84-0.39c1.16-0.93,0.42-2.78-0.44-3.99
			c-2.71-3.81-4.56-5.63-7.82-9.6c-3.32-4.04-5.04-8.16-4.33-8.76c0.51-0.44,2.98,0.37,4.93,1.01c0.13,0.04,0.52,0.18,0.94,0.03
			c0,0,0.24-0.09,0.45-0.28c0.75-0.71-0.62-4.11,0.12-4.65c0.26-0.19,0.73-0.01,3.23,1.55c2.48,1.54,2.91,1.91,3.13,1.75
			c0.72-0.52-1.96-5.66-3.11-7.88c-2.32-4.46-3.91-6.28-2.89-7.91c0.6-0.96,1.62-1.54,2.45-2.32c2.99-2.81,2.45-7.99,2.15-11.81
			c-0.75-9.69-0.09-19.27,1.04-19.46c1.43-0.24,5.42,14.36,10.54,16.53c0.27,0.11,2.78,1.23,3.24,0.32
			c0.21-0.41,0.14-0.89,0.26-1.34c0.36-1.36,3.15-1.28,3.62-1.28c2.82,0,4.38,1.32,4.67,0.95c0.41-0.53-3.09-2.89-5.58-7.56
			c0,0-2.57-4.49-1.44-9.12c0.09-0.36,0.22-0.75,0.52-0.98c0.39-0.3,0.95-0.22,1.44-0.29c1.75-0.27,2.53-2.47,2.28-4.22
			c-0.23-1.76-1.1-3.42-1.12-5.2c-0.01-0.65,0.12-1.33,0.55-1.82c1.32-1.42,3.6,0.16,4.75,1.72c2.75,3.7,5.14,7.69,7.1,11.87
			c1.64,3.49,3.61,7.64,7.43,8.2c0.36,0.05,0.74,0.06,1.06-0.11c0.54-0.31,0.66-1.02,0.71-1.64c0.56-7.03-0.4-14.18-2.8-20.82
			c-1.18-3.27-2.69-6.96-1.07-10.03c0.87-1.63,2.56-2.89,2.78-4.72c0.12-0.98-0.15-2.2,0.65-2.79c1.06-0.81,2.41,0.52,3.06,1.68
			c1.67-1.67,1.89-4.31,1.57-6.65c-0.32-2.33-1.07-4.63-0.99-6.99c0.03-0.62,0.13-1.29,0.58-1.74c1.09-1.06,2.91,0.17,3.61,1.51
			c0.71,1.35,1.31,3.07,2.8,3.4c1.47-4.42,2.36-9.04,2.62-13.69c0.07-1.24,0.75-2.42,1.88-2.92c2.57-1.13,4.13,1.9,4.67,4.29
			c2.23,9.97,3.79,20.87,3.34,31.08c1.4,1.01,3.27-0.23,5-0.42c1.76-0.2,3.57,0.87,4.38,2.46c0.81,1.59,0.68,3.58-0.19,5.14
			c-0.79,1.42-2.11,2.48-3.09,3.78c-1.52,1.99-2.23,4.58-1.95,7.06c0.04,0.32,0.11,0.68,0.37,0.87c0.36,0.3,0.9,0.13,1.32-0.08
			c4.63-2.33,6.51-8.65,11.43-10.28c1.8,2.71,2.01,6.25,1.16,9.39c-0.58,2.12-1.34,2.88-4.66,8.49c-2.65,4.47-4.44,7.52-3.94,7.92
			c0.44,0.36,2.76-1.29,4.37-3.12c0,0,2.27-2.88,4.13-4.13c0.51-0.34,1.04-0.66,1.74-0.38c0.86,0.35,1.07,1.98,1.11,2.27
			c0.42,3.53-1.2,11.89-1.2,11.89c-0.98,5.03-0.99,10.94,0.18,11.24c0.87,0.23,2.66-2.64,3.55-5.13c0.7-1.94,2.35-8.08,3.18-9.56
			c0.17-0.31,0.39-0.62,0.73-0.72c0.35-0.11,0.73,0.05,1.05,0.25c2.15,1.36,2.2,8.18,2.2,8.18c0.05,5.81-0.85,8.57-0.16,8.83
			c0.66,0.25,2.07-2.11,6.75-8.16c1.93-2.49,3.52-4.45,4.56-4.08c0.7,0.25,1.39,1.64,2.62,4.09c0.1,0.21,0.32,0.58,0.72,0.76
			c0.68,0.3,1.4-0.29,1.89-0.86c4.75-5.48,7.46-12.38,11.5-18.4c1.2-1.79,3.27-3.7,5.21-2.76c1.59,0.78,1.8,2.95,1.65,4.72
			c-0.41,4.98-1.87,9.88-4.26,14.29c-2.25,4.16-4.98,8.23-4.78,12.95c1.09-0.48,2.22-0.99,3.41-0.91c1.18,0.07,2.42,0.93,2.49,2.12
			c0.04,0.54-0.17,1.06-0.38,1.54c-1.28,2.9-3.25,5.5-5.7,7.53c-3.84,3.18-8.91,5.02-11.81,9.09c-0.97,1.37-1.64,3.21-0.86,4.69
			c1.18,2.22,4.4,1.88,6.82,1.21c2.82-0.76,5.65-1.52,8.46-2.29c0.34-0.09,0.69-0.19,1.04-0.12c0.76,0.16,1.16,1.04,1.09,1.82
			c-0.13,1.25-1.12,2.21-1.82,3.26c-0.81,1.2-1.12,3.17,0.55,3.72c0.66,0.22,1.39,0.05,1.98-0.33c1.95-1.25,3.9-2.53,5.85-3.79
			c1.17-0.76,2.64-1.53,3.87-0.87c1,0.54,1.34,1.88,1.05,2.98c-0.28,1.1-1.03,2.01-1.78,2.86c-8.1,9.15-19.86,16.7-32.05,15.86
			c0.97,1.75,2.34,3.3,2.98,5.2c0.64,1.9,0.25,4.39-1.54,5.28c-1.42,0.69-3.1,0.16-4.61-0.27c-4.9-1.38-10.07-1.5-15.17-1.62
			c-1.5-0.02-3.02-0.06-4.51,0.13c-1.4,0.18-2.74,0.55-4.07,0.99c-4.09,1.35-10.79,5.51-12.17,9.6
			c-5.28,15.56-3.17,32.73-7.32,48.64c-1.32,5.04-3.24,9.89-5.16,14.72c-4.53,11.41-9.07,22.82-13.6,34.22
			c14.11-3.66,27.88-13.22,36.92-24.67c4.42-5.62,7.63-12.1,11.09-18.36c0.72-1.3,3.36-6.1,4.77-5.67c0.68,0.2,0.98,1.57,1.32,3.14
			c0.55,2.55,0.14,3.58,0.59,3.81c0.98,0.51,3.74-4.05,8.97-9.53c1.54-1.62,4.62-4.74,9.33-7.29c1.82-0.99,4.69-2.53,5.61-1.63
			c0.86,0.83-0.31,3.32-1.05,4.91c-2.36,5.02-4.83,5.64-5.81,9.68c-0.2,0.82-0.9,3.7,0.54,4.96c0.25,0.21,0.83,0.61,2.17,0.59
			c1.16-0.03,3.75-0.39,6.87-3.72c3.99-4.24,3.44-7.54,6.88-8.96c0.24-0.1,2.38-0.98,3.15-0.11c1.34,1.54-1.64,4.3,0.08,5.76
			c0.59,0.5,1.45,0.55,2.15,0.21c7.44-3.58,14.58-9.84,22.86-8.99c0.38,0.04,0.78,0.11,1.08,0.35c0.75,0.63,0.33,1.83-0.2,2.65
			c-4.49,6.82-12.98,10.02-17.98,16.49c-1.37,1.75-2.29,4.61-0.51,5.95c1.17,0.86,2.82,0.47,4.19-0.01
			c5.78-2.04,11.18-5.12,15.86-9.08c3.09-2.61,6.65-5.82,10.59-4.89c0.3,0.07,0.63,0.18,0.79,0.45c0.25,0.4,0.03,0.96-0.05,1.16
			c-0.69,1.71-5.46,7.56-5.24,7.88c0.38,0.53,19.1-8.69,24.62-9.21c0.51-0.05,1.59-0.06,2.16,0.51c1.14,1.13,0.04,2.83-1.12,3.77
			c-2.34,1.91-5.16,3.16-7.63,4.9c-2.48,1.74-4.72,4.2-5.04,7.21c-0.02,0.27-0.03,0.57,0.14,0.79c0.2,0.22,0.54,0.25,0.84,0.25
			c4.77,0.04,9.25-2.11,13.89-3.19c2.74-0.64,5.57-0.91,8.39-0.79c0.57,0.02,1.19,0.08,1.63,0.46c0.69,0.58,0.58,1.68,0.55,2.03
			c-0.24,3.28-5.86,6.19-5.49,7.1c0.49,1.21,10.51-3.44,21.89-1.27c1.12,0.21,4.94,1.01,4.96,2.13c0.04,2.43-17.57,5.5-22.71,11.46
			c-0.41,0.48-2.1,2.29-1.36,3.36c0.67,0.97,1.88,1.35,3,1.7c1.44,0.43,3,0.98,3.32,2.68c0.17,0.91-0.12,1.86-0.69,2.59
			c-1.24,1.58-3.26,2.15-4.79,2.35c-7.79,0.98-26.25-3.01-26.67-1.9c-0.14,0.37,1.78,1.36,6.32,4.2c6.71,4.21,7.27,5.05,7.14,5.67
			c-0.27,1.35-3.87,2.43-6.83,2.01c-0.4-0.06-3.88-0.41-6.11-0.6c-0.5-0.04-1.12,0-1.37,0.45c-0.16,0.32-0.07,0.69,0.05,1.02
			c0.7,1.94,2.26,3.43,3.77,4.84c1.51,1.4,3.09,2.88,3.83,4.81c0.75,1.93,0.41,4.45-1.34,5.55c-1.3,0.82-2.96,0.68-4.46,0.39
			c-3.95-0.76-7.73-2.33-11.06-4.57c-1.48-0.99-2.95-2.15-4.71-2.4c-1.46-0.21-2.92,0.26-4.39,0.35c-3.78,0.28-7.37-1.82-10.09-4.45
			c-2.72-2.63-4.84-5.83-7.44-8.57c-8.91-9.35-22.39-12.39-35.03-14.99c2,5.06,6.67,8.45,11.35,11.23c4.68,2.78,9.67,5.55,12.5,10.2
			c1.4,2.31,2.28,5.67,1.19,6.56c-1.69,1.38-7.51-3.82-8.41-2.86c-0.95,1.02,4.77,7.81,6.31,15.59c0.25,1.25,0.46,2.88-0.27,3.34
			c-0.52,0.32-1.49,0.05-3.44-1.46c-5.36-4.15-7.1-9.09-8.11-8.8c-0.94,0.27-0.43,4.77-0.25,6.3c1.17,9.79,3.85,22.43,3.85,22.43
			c0.36,3.52,0.59,7.14-0.39,10.54c-0.38,1.3-1.43,2.8-2.73,2.42c-1.68-0.48-1.39-3.47-3.58-3.63c-0.76-0.06-1.49,0.31-1.99,0.88
			c-1.3,1.47-1.15,3.43-1.66,5.19c-0.41,1.41-1.53,2.84-3,2.73c-2.05-0.17-2.6-2.9-2.45-4.96c0.25-3.46,0.75-4.91,1.68-9.89
			c0.18-0.98,1.46-7.82,0.12-8.32c-1.17-0.43-5.01,3.69-7.14,6.72c-0.38,0.54-0.99,1.45-1.72,1.39c-1.37-0.11-2.11-3.52-2.14-3.69
			c-1.29-6.17,4.71-11.6,3.78-12.51c-0.84-0.83-6.21,3.21-15.23,9.35c-4.82,3.28-9.21,6.16-10.01,5.31
			c-0.95-0.99,3.35-6.87,3.57-12.74c0.03-0.78,0-1.75-0.65-2.34c-1.44-1.34-4.51,0.51-5.26-0.48c-0.62-0.82,0.87-2.89,1.07-3.18
			c2.21-3.17,5.6-5.49,9.35-6.41c1.59-0.4,3.74-1.25,3.32-2.83c-0.38-1.45-2.43-1.34-3.93-1.21c-2.17,0.2-4.4-0.29-6.3-1.36
			c-0.51-0.28-1.03-0.65-1.27-1.19c-0.64-1.45,1.04-2.85,2.54-3.36c3.78-1.31,8-1.08,11.66-2.7c3.32-1.45,5.93-4.4,6.98-7.86
			c1.05-3.46,0.51-7.37-1.45-10.42c-3.02-4.71-7.98-9.8-13.57-10.15c-5.58-0.35-11.05,1.64-16.15,3.93
			c-11.74,5.29-19.84,10.76-23.78,14.11c-0.94,0.8-1.4,1.19-1.99,1.75c-5.54,5.27-7.13,10.17-12.91,26.88
			c-4.85,14.04-5.4,15.39-6.32,19.4c-1.88,8.19-2.6,11.88-2.6,11.88c-1.76,8.99-2.26,14.12-5.68,15.56
			c-1.55,0.66-3.34,0.4-3.71,0.34c-0.34-0.05-3.8-0.6-5.28-3.19c-0.77-1.34-0.73-2.74,0.7-8.65c0.95-3.96,1.43-5.95,1.95-7.41
			c9.29-26.67,21.17-49.6,21.17-49.6c3.22-6.21,4.59-8.53,5.18-12.75c1.42-10.24-3.41-19.73-4.79-22.42
			c-1.62-3.19-3.58-5.91-3.83-6.26c-1.2-1.66-2.56-3.31-5.29-6.14c-1.12-1.16-2.74-2.83-4.61-4.62c-1.43-1.37-3.03-2.81-4.66-4.15
			c-2.06-1.69-3.83-2.92-5.45-3.9c-6.65-4.03-10.75-5.64-14.44-7.99C558.19,519.69,554.01,516.06,550.36,509.31z"/>
		<path class="st97" d="M669.46,458.48c6.53,0.37,8.78,0.53,9.05-0.28c0.42-1.22-3.9-3.93-5.86-5.02c-3.56-1.99-5.76-2.21-5.8-3.18
			c-0.08-1.52,5.19-2.93,6.28-3.21c8.17-2.11,12.14,0.07,20.58-2.14c2.46-0.65,5.58-1.46,5.62-2.69
			c0.11-3.26-21.76-3.41-23.32-10.53c-0.77-3.55,4.26-5.2,10.44-15.13c4.91-7.91,7.66-16.42,6.71-16.95
			c-0.6-0.33-2.39,2.67-5.55,6.16c-6.81,7.53-19.1,16.47-24.52,13.23c-4.23-2.53-4.32-12.5-4.32-13.14c0-3.66,0.92-5.93-0.6-7.72
			c-1.78-2.09-4.38-0.57-7.29-1.8c-3.6-1.53-5.04-6.17-8.25-25.29c-1.68-9.99-2.13-13.76-2.72-13.73
			c-0.85,0.03-1.47,8.04-1.23,15.55c0.32,10.28,2.13,16.69,3.21,22.25c3.73,19.24,2.02,45.98-0.69,62.13
			c-0.28,1.66-1.4,8.15,0.96,9.37c3.01,1.55,7.56-7.63,17.2-8.41C659.65,457.93,662.92,458.11,669.46,458.48z"/>
		<path class="st97" d="M595.76,510.56c-3.96,10.2-4.8,12.83-5.89,12.7c-1.61-0.2-0.94-6.12-4.67-16.16
			c-1.87-5.02-3.52-7.54-4.99-9.34c-2.86-3.49-5.89-5.28-6.92-5.94c-12.7-8.07-22.98-34.4-22.03-34.95
			c0.12-0.07,0.78,0.72,2.11,2.28c4.62,5.44,5.37,7.81,7.07,7.83c2.25,0.03,3.13-4.12,4.47-3.91c2.64,0.43-0.81,16.56,5.4,20.11
			c3.19,1.82,8.69,0.21,9.84-2.35c0.7-1.55,0.24-2.55,0.53-5.13c0.19-1.72,1.72-3.64,3.33-3.01c0.49,0.19,0.87,0.59,1.21,1
			c1.92,2.25,3.31,4.95,4.02,7.82c0.67,2.7,1.23,5.24,4.2,5.88c2.7,0.58,4.81-0.5,6.5,2.45
			C602.23,493.85,598.02,504.73,595.76,510.56z"/>
		<g>
			<path class="st98" d="M767.89,557.52c-11.13,8.1-25.3,11.43-38.92,10.14c-4.39-0.47-9.1-1.53-13.37-2.71
				c-8.73-2.28-17.5-4.4-26.36-5.97c-8.79-1.52-17.8-2.64-26.68-1.62c-0.55,0.07-1.06-0.32-1.12-0.88
				c-0.06-0.55,0.34-1.05,0.89-1.11c9.13-0.96,18.27,0.26,27.22,1.89c10.03,1.87,19.9,4.43,29.71,7.14c3.15,0.8,6.65,1.52,9.86,1.9
				c13.26,1.4,27.25-1.77,38.15-9.55c0.22-0.19,0.56-0.15,0.73,0.08C768.16,557.05,768.11,557.36,767.89,557.52L767.89,557.52z"/>
		</g>
		<g>
			<path class="st98" d="M703.41,532.62c-11.27,7.8-23.09,14.83-35.87,19.92c-0.51,0.2-1.09-0.05-1.3-0.57
				c-0.2-0.51,0.05-1.09,0.57-1.3c12.71-4.69,24.71-11.43,36.02-18.87C703.36,531.43,703.95,532.23,703.41,532.62L703.41,532.62z"/>
		</g>
		<g>
			<path class="st98" d="M748.27,551.93c-3.64,2.56-7.33,5.06-11.2,7.29c-1.31,0.74-2.61,1.46-4.14,2.02
				c-0.52,0.19-1.09-0.08-1.28-0.6c-0.19-0.52,0.08-1.09,0.6-1.28c2.69-0.84,5.36-2.37,7.88-3.74c2.56-1.44,5.09-2.95,7.59-4.51
				C748.25,550.76,748.8,551.55,748.27,551.93L748.27,551.93z"/>
		</g>
		<g>
			<path class="st98" d="M726.24,547.62c-5.01,3.61-10,7.33-15.82,9.57c-0.52,0.18-1.09-0.1-1.27-0.63
				c-0.19-0.54,0.13-1.14,0.69-1.29c2.79-0.82,5.51-2.29,8.09-3.71c2.63-1.48,5.22-3.08,7.74-4.76
				C726.18,546.44,726.76,547.23,726.24,547.62L726.24,547.62z"/>
		</g>
		<g>
			<path class="st98" d="M696.26,549.94c-4.96,0.42-9.96,0.92-14.82,1.79c-0.55,0.1-1.07-0.26-1.17-0.81
				c-0.1-0.57,0.3-1.11,0.88-1.17c5.04-0.55,10.05-0.72,15.07-0.81C696.85,548.93,696.9,549.9,696.26,549.94L696.26,549.94z"/>
		</g>
		<g>
			<path class="st98" d="M674.05,538.35c-1.61,3.25-3.18,6.53-4.64,9.85c-0.48,1.11-0.95,2.24-1.3,3.32
				c-0.17,0.53-0.73,0.82-1.26,0.65c-0.53-0.17-0.82-0.73-0.65-1.26c1.96-4.57,4.52-8.73,6.96-13.03
				C673.49,537.33,674.33,537.78,674.05,538.35L674.05,538.35z"/>
		</g>
		<g>
			<path class="st98" d="M677.73,583.09c1.75,5.06,3.19,10.17,4.25,15.42c1,5.25,1.84,10.66,0.8,16c-0.14,0.62-1.11,0.44-0.98-0.21
				c1.11-7.77-1.21-15.65-3.37-23.07c-0.79-2.51-1.64-5.02-2.58-7.45C675.39,582.54,677.26,581.83,677.73,583.09L677.73,583.09z"/>
		</g>
		<g>
			<path class="st98" d="M680.51,593.79c-2.29,3.53-4.62,6.98-7.74,9.85c-0.21,0.18-0.52,0.17-0.71-0.04
				c-0.17-0.2-0.17-0.49,0.01-0.68c1.38-1.44,2.55-3.13,3.65-4.84c1.09-1.72,2.12-3.5,3.05-5.29
				C679.44,591.6,681.22,592.61,680.51,593.79L680.51,593.79z"/>
		</g>
		<g>
			<path class="st98" d="M724.68,565.81c5.43,6.67,11.44,13.22,18.72,17.87c0.54,0.33,0.05,1.18-0.51,0.86
				c-5.77-3.33-10.68-7.85-15.3-12.58c-1.53-1.59-3.02-3.2-4.47-4.9c-0.36-0.42-0.31-1.05,0.11-1.41
				C723.67,565.28,724.34,565.35,724.68,565.81L724.68,565.81z"/>
		</g>
		<g>
			<path class="st98" d="M594.77,474.62c-0.75,9.05-1.74,18.08-3.56,27c-0.63,2.98-1.32,5.95-2.5,8.87
				c-0.21,0.51-0.79,0.76-1.3,0.55c-0.52-0.21-0.77-0.81-0.54-1.32c4.23-11.1,5.41-23.44,6.9-35.19
				C593.83,473.91,594.82,473.96,594.77,474.62L594.77,474.62z"/>
		</g>
		<g>
			<path class="st98" d="M535.95,443.23c7.61,9.25,13.97,19.46,18.79,30.43c4.36,10.94,9.04,21.97,16.14,31.41
				c0.85,1.02-0.71,2.33-1.56,1.25c-5.35-7.33-9.26-15.45-12.71-23.78c-3.14-8.36-6.61-16.48-11.3-24.1
				c-3.07-5.06-6.41-9.99-10.13-14.57c-0.18-0.21-0.16-0.54,0.06-0.72C535.46,442.99,535.77,443.02,535.95,443.23L535.95,443.23z"/>
		</g>
		<g>
			<path class="st98" d="M547.36,489.4c4.71,5.14,9.36,10.87,15.11,14.82c0.51,0.26,0.7,0.9,0.41,1.4
				c-0.29,0.49-0.94,0.64-1.41,0.33c-3.16-2.17-5.43-4.88-7.95-7.62c-2.39-2.71-4.69-5.46-6.93-8.29
				C546.2,489.54,546.94,488.92,547.36,489.4L547.36,489.4z"/>
		</g>
		<g>
			<path class="st98" d="M521.31,483.12c8.81,8.13,19.02,15.14,30.4,19.09c1.22,0.45,0.59,2.31-0.66,1.89
				c-8.67-3.22-16.51-8.3-23.63-14.13c-2.36-1.95-4.64-3.97-6.81-6.14C520.15,483.37,520.83,482.65,521.31,483.12L521.31,483.12z"/>
		</g>
		<g>
			<path class="st98" d="M587.46,394.73c8.34,20.92,25.06,61.3,41.65,75.42c1.02,0.81-0.19,2.41-1.25,1.56
				c-5.7-4.83-9.82-11.01-13.72-17.25c-3.83-6.23-7.23-12.69-10.44-19.23c-6.39-13.1-12.06-26.51-17.18-40.16
				c-0.1-0.26,0.04-0.55,0.29-0.64C587.07,394.34,587.36,394.47,587.46,394.73L587.46,394.73z"/>
		</g>
		<g>
			<path class="st98" d="M582.09,431.24c5.16,1.43,10.28,3.14,14.96,5.82c0.98,0.66,5.92,3.4,4.3,4.86
				c-0.43,0.38-1.11,0.3-1.45-0.16c-4.59-5.01-11.8-7.34-18.09-9.57C581.21,432.01,581.47,431.08,582.09,431.24L582.09,431.24z"/>
		</g>
		<g>
			<path class="st98" d="M616.46,392.86c2.62,5.35,5.54,10.86,9.6,15.22c2.12,2.06,4.51,4.03,6.76,6.1
				c2.32,2.25,4.75,4.19,6.06,7.38c0.44,1.23-1.39,1.93-1.87,0.7c-0.93-2.59-3.41-4.8-5.39-6.8c-2.17-2.13-4.44-4.09-6.64-6.34
				c-2.13-2.34-3.77-4.96-5.3-7.62c-1.52-2.68-2.88-5.41-4.13-8.23C615.29,392.68,616.19,392.26,616.46,392.86L616.46,392.86z"/>
		</g>
		<g>
			<path class="st98" d="M626.51,447.96c0.25,7.49,0.37,15.36,2.91,22.46c0.21,0.51-0.03,1.1-0.54,1.31
				c-0.52,0.22-1.13-0.05-1.32-0.58c-0.7-1.93-1.04-3.87-1.33-5.81c-0.79-5.77-0.86-11.59-0.71-17.4
				C625.53,447.3,626.51,447.31,626.51,447.96L626.51,447.96z"/>
		</g>
		<g>
			<path class="st98" d="M689.52,405.86c-6.93,9.78-14.04,19.42-21.72,28.64c-3.76,4.63-8.22,8.73-12.09,13.26
				c-3.84,4.52-7.38,9.39-10.23,14.52c-0.64,1.12-2.38,0.2-1.75-0.97c3.05-5.32,6.68-10.13,10.65-14.69
				c3.97-4.51,8.41-8.47,12.27-13.08c7.76-9.06,15.01-18.6,22.04-28.24c0.16-0.22,0.47-0.28,0.7-0.12
				C689.63,405.32,689.68,405.63,689.52,405.86L689.52,405.86z"/>
		</g>
		<g>
			<path class="st98" d="M648.86,391.13c-2.09,6.1-4.42,12.55-6.1,18.77c-0.34,1.27-2.24,0.8-1.94-0.48
				c0.85-2.84,2.38-6.65,3.43-9.43c1.2-3.08,2.43-6.15,3.68-9.21C648.17,390.19,649.07,390.52,648.86,391.13L648.86,391.13z"/>
		</g>
		<path class="st98" d="M609.94,404.83c5.65,9.21,11.02,18.59,16.06,28.17c3.08,5.97,6.11,12.14,8.63,18.41
			c0.68,1.76,1.34,3.54,1.9,5.35c0.83-12.74,1.19-25.55,0.54-38.3c-0.26-4.96-0.76-9.93-1.75-14.76c-0.45-2.14-1.2-5.26-1.52-7.38
			c-0.68-3.99-1.12-8.02-1.41-12.06c-0.09-1.14-0.17-2.29-0.22-3.42c-0.14-2.34-0.24-4.67-0.32-7.01
			c-0.29-10.03-0.14-20.04,0.34-30.05c0.01-0.27,0.25-0.49,0.52-0.48c0.28,0.01,0.5,0.24,0.49,0.53
			c-0.41,9.98-0.47,19.98-0.09,29.96c0.04,0.91,0.08,1.82,0.11,2.73c1.58-5.95,3.36-11.85,5.18-17.73c0.19-0.62,1.12-0.32,0.96,0.28
			c-2.06,8.06-4.46,16.2-5.65,24.41c-0.01,0.05-0.02,0.1-0.04,0.14c0.54,6.67,1.47,13.29,3.1,19.77c2.06,9.89,2.29,19.98,2.37,30.03
			c0.01,10.03-0.37,20.05-1.09,30.07c-0.09,1.17-1.79,1.2-1.98,0.07c-0.66-5.19-2.66-10.37-4.63-15.23
			c-6.34-14.85-14.18-29.05-22.36-42.98C608.73,404.78,609.61,404.29,609.94,404.83z"/>
		<g>
			<path class="st98" d="M658.73,417.35c0.55,5.31,1.06,10.61,1.26,15.95c0.03,1.86,0.15,3.78-0.27,5.62
				c-0.38,1.42-2.41,0.75-1.89-0.64c0.67-3.34,0.38-6.84,0.38-10.24c-0.09-3.53-0.25-7.07-0.46-10.6
				C657.69,416.81,658.66,416.71,658.73,417.35L658.73,417.35z"/>
		</g>
		<g>
			<path class="st98" d="M681.84,439.3c-5.41,1.4-10.85,2.73-16,4.82c-1.06,0.44-1.85,0.87-2.83,1.55
				c-2.02,1.29-4.52,2.01-6.99,1.79c-0.56-0.04-0.97-0.53-0.92-1.09c0.05-0.56,0.56-0.97,1.12-0.9c2.67,0.42,5.12-0.77,7.39-2.16
				c1.57-0.75,3.22-1.28,4.86-1.78c4.35-1.29,8.74-2.26,13.14-3.2C682.23,438.2,682.47,439.14,681.84,439.3L681.84,439.3z"/>
		</g>
		<g>
			<path class="st98" d="M669.65,407.58c0.26,1.87,2.5,16.73-0.56,15.9c-0.54-0.12-0.88-0.66-0.76-1.2
				c1.13-4.69,0.64-9.78,0.33-14.58C668.59,407.08,669.55,406.95,669.65,407.58L669.65,407.58z"/>
		</g>
		<path class="st99" d="M549.74,510.32c0,0.01,0.01,0.03,0.01,0.04c0.01-0.01,0.01-0.01,0.02,0c4.36,5.64,8.64,9.21,11.69,11.41
			c7.94,5.73,11.57,5.07,19.88,11.89c1.63,1.34,3.23,2.78,4.66,4.15c-0.11-2.44-0.33-6.65-0.68-11.31c-0.07-0.89-0.14-1.79-0.21-2.7
			c-0.74-8.88-1.93-18.45-3.73-20.19c-2.41-2.34-2.63,2.41-2.92,6.04c-0.11,1.61-0.25,3-0.59,3.47c-1.11,1.51-3.21-1.38-4.43-6.73
			c-1.22-5.36-5.77-12.51-6.62-9.1c-0.85,3.41,1.46,9.68,0.32,10.56c-0.5,0.39-5.23-3.94-10.6-8.46
			c-6.86-5.77-14.74-11.85-16.13-8.78C537.94,496.06,547.15,500.2,549.74,510.32z"/>
		<path class="st99" d="M574.35,455.02c0.87,1.1,1.13,1.73,1.67,2.23c1.38,1.32,2.87,2.51,4.42,3.62c0.94,0.66,1.74,1.2,2.36,1.6
			c0.96,0.62,2.41,1.52,4.27,2.53c0.19,0.1,0.41,0.22,0.78,0.42c2.74,1.45,5.25,2.65,5.59,2.81c5.15,2.46,7.72,3.69,8.36,3.94
			c4.38,1.77,8,2.44,10.96,2.98c1.99,0.37,9.5,1.67,12.12,3.58c1.15,0.84,1.98,1.9,1.98,1.9c0.59,0.76,0.97,1.48,1.21,2
			c-1.75-6.26-6.91-11.48-13.18-13.25c-1.76-0.51-3.58-0.75-5.35-1.23c-3.66-0.99-7.03-3.01-9.64-5.75c-2.03-2.13-4.01-4.91-6.95-5
			c-0.21,0-0.44,0.01-0.61,0.14c-0.27,0.22-0.27,0.64-0.27,0.82c0.02,1.73,0.34,3.55,0.03,3.73c-0.39,0.23-2.13-2.07-2.99-3.14
			c0,0-2-2.51-6.58-6.44c-5.14-4.42-12.32-5.74-14.5-5.28c-0.34,0.07-0.55,0.19-0.62,0.34C567.1,448.29,570.1,449.65,574.35,455.02z
			"/>
		<path class="st99" d="M650.31,596.1c-0.7,0.24-1.46,0.68-1.98,1.23c0.79-0.24,1.99-0.57,3.47-0.86c5.78-1.13,7.66,0.02,11.51-1.23
			c1.1-0.36,3.69-1.24,5.88-3.62c2.5-2.72,3.04-5.83,3.35-7.68c0.25-1.45,0.87-5.46-1.06-9.99c-1.85-4.35-5.08-6.67-6.55-7.69
			c-2.63-1.84-5.12-2.47-6.15-2.89c-3.97-1.63-8.62-1.1-12.49,0.76c-1.8,0.86-3.46,1.99-4.96,3.28c4.06-1.58,8.3-2.7,12.61-2.44
			c5.58,0.35,10.55,5.44,13.57,10.15c1.95,3.05,2.49,6.96,1.45,10.42c-1.06,3.45-3.67,6.4-6.98,7.86
			C658.31,595.01,654.09,594.79,650.31,596.1z"/>
		<path class="st97" d="M689.47,582.2c5.55,3.96,8.41,5.68,8.04,6.62c-0.38,0.94-3.85,0.8-6.55-0.18c-2.41-0.87-3.73-2.24-3.97-1.99
			c-0.31,0.33,1.91,2.58,4.49,6.47c1.35,2.03,3.31,5.28,2.87,5.64c-0.26,0.21-1.13-0.74-3.4-2.19c-2.24-1.43-3.35-2.15-3.87-1.91
			c-1.62,0.74,1.13,7.58,1.56,17.37c0.27,6.13-0.45,11.73-0.98,11.74c-0.61,0.01-0.77-7.38-2.82-20.03
			c-1.14-7.05-1.71-10.57-3.03-14.89c-3.04-10-6.82-14.78-5.63-15.72C677.12,572.39,679.7,575.24,689.47,582.2z"/>
		<path class="st97" d="M661.11,616.26c-1.7,1.71-3.31,3.79-5.66,4.3c-0.71-2.37,0.56-4.9,0.32-7.37c-0.12-1.27-0.61-2.7,0.16-3.72
			c0.58-0.78,1.67-0.96,2.64-1.06c3.27-0.33,6.79-0.63,10.05-0.22C669.59,611.94,663.23,614.12,661.11,616.26z"/>
	</g>
</g>
</svg>
