<?xml version="1.0" encoding="utf-8"?>
<!-- Generator: Adobe Illustrator 28.0.0, SVG Export Plug-In . SVG Version: 6.00 Build 0)  -->
<svg version="1.1" id="Layer_1" xmlns="http://www.w3.org/2000/svg" xmlns:xlink="http://www.w3.org/1999/xlink" x="0px" y="0px"
	 viewBox="0 0 1080 1080" style="enable-background:new 0 0 1080 1080;" xml:space="preserve">
<style type="text/css">
	.st0{fill:none;stroke:#C1873A;stroke-width:16;stroke-linecap:round;stroke-linejoin:round;stroke-miterlimit:10;}
	.st1{fill:#E2D0E1;}
	.st2{fill:#EDE6EE;}
	.st3{fill:#DA9E53;}
	.st4{fill:#C98D4C;}
	.st5{fill:#DD6A6E;}
	.st6{fill:#D1626B;}
	.st7{fill:#F3EFF4;}
	.st8{fill:#C45C69;}
	.st9{fill:#FFB92E;}
	.st10{opacity:0.5;fill:#96A488;}
	.st11{fill:#F0F3EC;}
	.st12{fill:#E5E9E0;}
	.st13{fill:#B5CAD2;}
	.st14{fill:none;stroke:#009245;stroke-width:4;stroke-miterlimit:10;}
	.st15{fill:none;stroke:#009245;stroke-width:4;stroke-linecap:round;stroke-linejoin:round;stroke-miterlimit:10;}
	.st16{fill:none;stroke:#009245;stroke-width:4.1082;stroke-linecap:round;stroke-linejoin:round;stroke-miterlimit:10;}
	.st17{fill:none;stroke:#000000;stroke-width:1.9946;stroke-miterlimit:10;}
	.st18{fill:none;stroke:#000000;stroke-width:1.8919;stroke-miterlimit:10;}
	.st19{fill:none;stroke:#000000;stroke-width:1.924;stroke-miterlimit:10;}
	.st20{fill:none;stroke:#000000;stroke-width:1.924;stroke-linecap:round;stroke-linejoin:round;stroke-miterlimit:10;}
	.st21{fill:none;stroke:#000000;stroke-width:1.7309;stroke-linecap:round;stroke-linejoin:round;stroke-miterlimit:10;}
	.st22{fill:none;stroke:#000000;stroke-width:2;stroke-miterlimit:10;}
	.st23{fill:none;stroke:#000000;stroke-width:2;stroke-linecap:round;stroke-linejoin:round;stroke-miterlimit:10;}
	.st24{fill:#FFC257;}
	.st25{fill:#EDA229;}
	.st26{fill:#DD8E1B;}
	.st27{fill:#FFD085;}
	.st28{fill:none;stroke:#000000;stroke-width:3.4146;stroke-linecap:round;stroke-linejoin:round;stroke-miterlimit:10;}
	.st29{fill:none;stroke:#000000;stroke-width:1.8379;stroke-linecap:round;stroke-linejoin:round;stroke-miterlimit:10;}
	.st30{fill:none;stroke:#000000;stroke-linecap:round;stroke-linejoin:round;stroke-miterlimit:10;}
	.st31{fill:#D1D6CC;}
	.st32{fill:#F4DC98;}
	.st33{fill:#E9D2A3;}
	.st34{fill:#DAA765;}
	.st35{fill:#D09E62;}
	.st36{opacity:0.5;fill:#EDE1CA;}
	.st37{opacity:0.3;fill:#AF8056;}
	.st38{opacity:0.28;fill:#AF8056;}
	.st39{fill:#F3814A;}
	.st40{fill:#CF602F;}
	.st41{fill:#C35233;}
	.st42{fill:#F38A62;}
	.st43{opacity:0.2;fill:#FFFFFF;}
	.st44{opacity:0.37;fill:#DA7446;}
	.st45{opacity:0.1;fill:#FFFFFF;}
	.st46{opacity:0.08;fill:#FFFFFF;}
	.st47{opacity:0.3;fill:#997552;enable-background:new    ;}
	.st48{fill:#E5C98C;}
	.st49{opacity:0.6;fill:#F9E4BB;enable-background:new    ;}
	.st50{opacity:0.8;fill:#F9E4BB;enable-background:new    ;}
	.st51{fill:#618828;}
	.st52{fill:#92A931;}
	.st53{fill:#809A2C;}
	.st54{opacity:0.6;fill:#92A931;}
	.st55{opacity:0.6;fill:#618828;}
	.st56{opacity:0.25;fill:#E9D2A3;}
	.st57{fill:#E59055;}
	.st58{fill:#CE814D;}
	.st59{fill:#AF6C3E;}
	.st60{fill:#EFA16C;}
	.st61{fill:#FFBB8D;}
	.st62{fill:#E4C88B;}
	.st63{opacity:0.7;fill:#F8E3BA;}
	.st64{opacity:0.35;fill:#FFFFFF;}
	.st65{fill:#4D851D;}
	.st66{fill:#437A0F;}
	.st67{fill:#3B680B;}
	.st68{fill:#5B9324;}
	.st69{fill:#77B234;}
	.st70{fill:#E8EECB;}
	.st71{fill:#EFF4D4;}
	.st72{fill:#E3E8BF;}
	.st73{fill:#F9FFE1;}
	.st74{fill:#FCFFE9;}
	.st75{fill:#BF2C5A;}
	.st76{fill:#AF2859;}
	.st77{fill:#A3285A;}
	.st78{fill:#F3CEE4;}
	.st79{fill:#FFE3F7;}
	.st80{fill:#FFF8FD;}
	.st81{fill:#DBA9C9;}
	.st82{fill:#C9356A;}
	.st83{fill:#E0518B;}
	.st84{fill:#F96EA0;}
	.st85{fill:#A07A50;}
	.st86{fill:#BC916D;}
	.st87{fill:#936E4A;}
	.st88{fill:none;}
	.st89{fill:#E1AE4F;}
	.st90{fill:#D69F45;}
	.st91{fill:#C1873A;}
	.st92{fill:#E8B564;}
	.st93{fill:#F4C376;}
	.st94{fill:#AA7331;}
	.st95{fill:#839E39;}
	.st96{fill:#959F38;}
	.st97{fill:#8FAA44;}
	.st98{fill:#A8BF55;}
	.st99{fill:#708426;}
	.st100{fill:#FFCC73;}
	.st101{fill:#EDCC8C;}
	.st102{fill:#FFDDA1;}
	.st103{fill:#DDBB80;}
	.st104{fill:#FFE8C2;}
	.st105{fill:#CEA974;}
	.st106{fill:none;stroke:#E1AE4F;stroke-width:16;stroke-linecap:round;stroke-linejoin:round;stroke-miterlimit:10;}
	.st107{fill:none;stroke:#D69F45;stroke-width:16;stroke-linecap:round;stroke-linejoin:round;stroke-miterlimit:10;}
	.st108{fill:none;stroke:#F4C376;stroke-width:16;stroke-linecap:round;stroke-linejoin:round;stroke-miterlimit:10;}
	.st109{fill:none;stroke:#C1873A;stroke-width:5.6205;stroke-linecap:round;stroke-linejoin:round;stroke-miterlimit:10;}
	.st110{fill:none;stroke:#E1AE4F;stroke-width:5.6205;stroke-linecap:round;stroke-linejoin:round;stroke-miterlimit:10;}
	.st111{fill:none;stroke:#D69F45;stroke-width:5.6205;stroke-linecap:round;stroke-linejoin:round;stroke-miterlimit:10;}
	.st112{fill:none;stroke:#F4C376;stroke-width:5.6205;stroke-linecap:round;stroke-linejoin:round;stroke-miterlimit:10;}
	.st113{fill:none;stroke:#F4C376;stroke-width:5.2674;stroke-linecap:round;stroke-linejoin:round;stroke-miterlimit:10;}
	.st114{fill:none;stroke:#EDCC8C;stroke-width:5.8805;stroke-linecap:round;stroke-linejoin:round;stroke-miterlimit:10;}
	.st115{fill:none;stroke:#FFDDA1;stroke-width:5.8805;stroke-linecap:round;stroke-linejoin:round;stroke-miterlimit:10;}
	.st116{fill:none;stroke:#FFE8C2;stroke-width:5.8805;stroke-linecap:round;stroke-linejoin:round;stroke-miterlimit:10;}
	.st117{fill:none;stroke:#D1626B;stroke-width:5.2388;stroke-miterlimit:10;}
	.st118{fill:none;stroke:#D1626B;stroke-width:5.4518;stroke-miterlimit:10;}
	.st119{fill:none;stroke:#DD6A6E;stroke-width:5.2388;stroke-miterlimit:10;}
	.st120{fill:none;stroke:#AD4D58;stroke-width:5.0375;stroke-miterlimit:10;}
	.st121{fill:none;stroke:#D1626B;stroke-width:4.8407;stroke-miterlimit:10;}
	.st122{fill:none;stroke:#D1626B;stroke-width:5.0375;stroke-miterlimit:10;}
	.st123{fill:none;stroke:#DD6A6E;stroke-width:4.8407;stroke-miterlimit:10;}
</style>
<g>
	<path class="st89" d="M742.72,665.24c-2.44,32.83-14.11,64.8-37.82,89.06c-41.09,42.06-100.1,42.3-117.05,42.38
		c-14.47,0.06-50.73,0.22-86.78-20.18c-21.59-12.23-61.03-41.96-84.76-52.47c-12.29-5.45-24.98-7.91-24.98-7.91
		c-7.95-1.55-13.84-1.63-16.57-1.98c-9.85-1.29-25.51-4.38-57.33-14.33c-15.48-4.84-29.81-11.5-45.06-23.97
		c-7.71-6.3-28.82-23.57-37.68-52.71c-16.14-53.18,22.48-99.79,26.24-104.17c14.47-16.91,31.12-26.5,50.45-35.07
		c31.6-14.03,63.31-22.3,92.47-26.94c64.2-10.27,116.1-3.03,127.5-1.31c38.57,5.81,88.41,13.9,137.23,50.45
		c14.11,10.57,31.66,23.71,46.42,46.42C734.75,582.9,745.75,624.76,742.72,665.24z"/>
	<path class="st90" d="M742.72,665.25c-2.44,32.83-14.1,64.8-37.82,89.05c-41.08,42.06-100.09,42.3-117.04,42.38
		c-14.47,0.06-50.74,0.23-86.78-20.18c-21.6-12.23-61.03-41.95-84.76-52.47c-12.29-5.45-24.99-7.91-24.99-7.91
		c-7.95-1.55-13.84-1.63-16.56-1.98c-9.85-1.29-25.51-4.37-57.34-14.32c-15.48-4.85-29.8-11.51-45.06-23.98
		c-7.71-6.29-28.82-23.57-37.68-52.71c-16.14-53.18,22.48-99.79,26.24-104.17c8.1-9.47,24.71-27.36,73.63-44.38
		c-43.67,27.43-67.05,69.95-58.19,101.07c7.73,27.17,41.9,52.26,44.19,53.91c3.04,2.19,8.75,6.93,17.47,10.68
		c23.05,9.92,45.16,4.01,91.57,19.37c56.99,18.87,53.77,38.05,106.14,50.94c20.45,5.03,59.31,14.06,102.97-1.3
		c14.09-4.96,54.44-19.16,71.03-56.04c6.9-15.33,8.02-30.86,9.1-45.83c1.64-22.62-0.85-41.41-3.37-54.13
		C724.14,566.81,746.92,608.81,742.72,665.25z"/>
	<path class="st90" d="M742.72,665.25c-2.44,32.83-14.1,64.8-37.82,89.05c-41.08,42.06-100.09,42.3-117.04,42.38
		c-14.47,0.06-50.74,0.23-86.78-20.18c-21.6-12.23-61.03-41.95-84.76-52.47c-12.29-5.45-24.99-7.91-24.99-7.91
		c-7.96-1.55-13.84-1.63-16.56-1.98c-9.85-1.29-25.51-4.37-57.34-14.32c-15.48-4.85-29.81-11.51-45.06-23.98
		c-7.71-6.29-28.82-23.57-37.68-52.71c-16.14-53.18,22.48-99.79,26.24-104.17c8.1-9.47,16.88-16.64,26.43-22.63
		c-0.11,0.23-0.22,0.46-0.33,0.69c-6.18,5.54-13.27,13.3-19.3,23.69c-2.39,4.12-16.9,30.46-12.35,63.33
		c5.19,37.5,33.19,70.9,69.2,82.56c26.39,8.55,55.2,5.99,82.05,12.96c76.9,19.94,83.57,66.78,161.2,80.38
		c39.25,6.87,66.94-0.57,76.74-3.6c14.57-4.51,45.85-14.18,65.23-42.64c16.49-24.19,15.68-49.18,14.39-89.38
		c-0.56-17.4-2.56-41.09-8.76-69.08c0-0.66,0.02-1.33,0.04-1.99C734.93,583.59,745.73,625.09,742.72,665.25z"/>
	<path class="st89" d="M828.01,609c-5.27,9.06-14.89,25.21-34.31,38.34c-19.43,13.16-39.07,16.83-50.98,17.9
		c3.03-40.48-7.97-82.34-27.73-112.75c-14.75-22.7-32.31-35.84-46.42-46.42c-48.82-36.55-98.66-44.64-137.23-50.45
		c-11.4-1.72-63.31-8.96-127.5,1.31c-3.98-7.57-33.86-68.74-1.65-120.38c28.03-44.92,82.88-50.31,104.94-52.47
		c34.77-3.41,63.02,5.27,78.71,10.09c27.91,8.58,35.78,16.69,72.65,34.31c53.14,25.39,58.3,18.83,86.78,34.31
		c13.78,7.49,72.03,39.13,94.85,106.96C856.54,518.59,849.72,571.64,828.01,609z"/>
	<path class="st91" d="M736.54,685.09c0,0-0.05,0.09-0.09,0.16c-20.82,36.61-59.21,57.72-59.21,57.72
		c-4.85,2.67-16.64,8.41-32.67,13.37c-9.8,3.03-37.49,10.47-76.74,3.6c-77.63-13.6-84.3-60.44-161.2-80.38
		c-26.85-6.97-55.66-4.41-82.05-12.96c-36.01-11.66-64.01-45.06-69.2-82.56c-4.55-32.87,9.96-59.21,12.35-63.33
		c6.03-10.39,13.12-18.15,19.3-23.69c0.11-0.23,0.22-0.46,0.33-0.69c-9.55,5.99-18.33,13.16-26.43,22.63
		c-3.76,4.38-42.38,50.99-26.24,104.17c8.86,29.14,29.97,46.42,37.68,52.71c15.25,12.47,29.58,19.13,45.06,23.98
		c31.83,9.95,47.49,13.03,57.34,14.32c2.72,0.35,8.6,0.43,16.56,1.98c0,0,12.7,2.46,24.99,7.91c23.73,10.52,63.16,40.24,84.76,52.47
		c36.04,20.41,72.31,20.24,86.78,20.18c16.95-0.08,75.96-0.32,117.04-42.38c21.21-21.69,32.77-49.55,36.73-78.67
		C741.23,678.59,738.07,682.44,736.54,685.09z"/>
	<path class="st92" d="M413.04,481.37c-28.49,5.48-57.14,19.93-70.72,45.56c-2.99,5.65-5.22,11.95-4.67,18.32
		c0.85,9.98,8.46,18.34,17.3,23.05c8.84,4.71,18.9,6.47,28.7,8.54c48.23,10.2,94.57,29.66,135.07,57.76
		c16.61,11.52,32.35,24.55,50.56,33.33c18.21,8.78,39.8,12.95,58.68,5.71c13.21-5.07,23.82-15.17,33.15-25.8
		c10.22-11.63,19.62-24.75,22.61-39.94c3.85-19.58-3.63-39.87-14.85-56.37c-18.65-27.42-47.46-46.93-78.59-58.35
		C537.31,473.75,468.33,470.74,413.04,481.37z"/>
	<path class="st93" d="M596.28,650.48c13.65,12.64,33.79,14.54,52.36,15.78c4.99,0.33,10.11,0.66,14.9-0.78
		c6.26-1.88,11.27-6.53,15.71-11.33c9.25-9.98,17.41-21.94,18.57-35.5c1.69-19.84-11.95-37.81-27.34-50.45
		c-9.54-7.83-20.13-14.54-31.71-18.82c-18.92-7.01-79.24-12.35-75.03,21.1c1.71,13.56,9.64,27.91,13.4,41.2
		C581.07,625.58,585.32,640.33,596.28,650.48z"/>
	<path class="st91" d="M331.37,528.13c-2.9,1-4.77,1.64-5.29,3.27c-0.64,2.04,1.03,4.74,2.8,5.73c3.87,2.17,8.67,1.15,12.98,0.07
		c1.56-0.39,3.31-0.94,3.96-2.41c0.66-1.48-0.78-3.24-1.48-4.14c-1.96-2.56-4.71-3.33-5.2-3.46
		C336.31,526.43,334.02,527.22,331.37,528.13z"/>
	<path class="st91" d="M348.79,540.95c-1.29,0.48-1.89,2.42-1.55,3.92c0.5,2.19,2.88,2.88,3.26,3.01c0.98,0.31,2.13,0.36,2.95-0.26
		c1.18-0.89,0.46-3.17-0.15-4.27c-0.15-0.27-0.79-1.35-2.12-1.99C350.57,541.06,349.66,540.62,348.79,540.95z"/>
	<path class="st94" d="M588.68,758.97c-2.03,2.48-3,6.63-1.29,9.19c0.56,0.83,1.25,1.28,1.59,1.48c8.41,5.08,24.51,1.74,24.51,1.74
		c5.95-1.24,9.68-2.05,10.07-4.14c0.53-2.83-5.43-6.06-8.58-7.77c-3.46-1.88-10.96-5.8-19.61-3.92
		C593.25,756.02,590.59,756.64,588.68,758.97z"/>
	<path class="st91" d="M640.17,700.48c-0.33,0.05-3.44,0.58-5.14,3.31c-1.29,2.08-1.04,4.27-0.78,6.47c0.12,1.06,0.3,1.49,0.41,1.72
		c0.96,2.04,3.35,2.71,4.11,2.93c3.51,0.99,8.18-0.14,9.9-3.28c0.33-0.61,0.46-1.12,0.53-1.42c0.64-2.62-0.42-5.46-2.22-7.3
		C646.57,702.49,643.94,699.9,640.17,700.48z"/>
	<path class="st91" d="M650.24,687.88c-1.8,0.83-2.23,3.37-2.17,4.87c0.02,0.44,0.15,3.65,2.3,4.58c2.15,0.92,5.33-0.87,6-3.47
		c0.8-3.09-2.26-6.03-4.61-6.23C651.55,687.61,650.92,687.57,650.24,687.88z"/>
	<path class="st91" d="M664.27,712.24c0.85,1.64,3.8,2.12,5.16,0.75c0.94-0.94,0.74-2.4,0.72-2.54c-0.03-0.18-0.26-1.59-1.43-2.22
		c-1.53-0.82-3.78,0.18-4.46,1.81C664.18,710.23,663.77,711.27,664.27,712.24z"/>
	<path class="st91" d="M472.95,645.56c0.85,1.64,3.8,2.12,5.16,0.75c0.94-0.94,0.74-2.4,0.72-2.54c-0.03-0.18-0.26-1.59-1.43-2.22
		c-1.53-0.82-3.78,0.18-4.46,1.81C472.86,643.54,472.45,644.59,472.95,645.56z"/>
	<path class="st94" d="M445.3,714.49c0.85,1.64,3.8,2.12,5.16,0.75c0.94-0.94,0.74-2.4,0.72-2.54c-0.03-0.18-0.26-1.59-1.43-2.22
		c-1.53-0.82-3.78,0.18-4.46,1.81C445.21,712.47,444.8,713.51,445.3,714.49z"/>
	<path class="st91" d="M657.51,624.82c0.85,1.64,3.8,2.12,5.16,0.75c0.94-0.94,0.74-2.4,0.72-2.54c-0.03-0.18-0.26-1.59-1.43-2.22
		c-1.53-0.82-3.78,0.18-4.46,1.81C657.42,622.81,657.01,623.85,657.51,624.82z"/>
	<path class="st91" d="M311.47,634.64c0.05,1.53,0.13,3.83,1.88,5.66c2.14,2.23,5.17,2.04,5.76,2.03c1.87-0.03,3.85-0.68,4.91-2.21
		c0.58-0.84,0.84-1.87,1.03-2.88c0.49-2.56,0.64-5.29-0.33-7.71c-0.18-0.46-2.27-4.26-5.92-4.35c-4.19-0.1-6.45,4.81-6.6,5.14
		C311.4,632.11,311.44,633.74,311.47,634.64z"/>
	<path class="st91" d="M472.36,484.42c-3.98,0.17-6.95,2.91-7.39,4.6c-0.06,0.23-0.24,0.88,0.1,1.38c0.24,0.36,0.68,0.51,1.09,0.64
		c3.22,1.05,6.44,2.1,9.66,3.15c0.89,0.29,1.92,0.56,2.7,0.06c0.74-0.47,0.89-1.43,0.98-1.97c0.38-2.45-0.8-5.9-3.65-7.29
		C474.48,484.33,473.23,484.39,472.36,484.42z"/>
	<path class="st91" d="M468.43,500.17c-1.08,1.26-0.51,4.63,1.5,5.28c1.91,0.61,4.35-1.49,4.23-3.18c-0.13-1.95-3.62-3.35-5.26-2.47
		C468.63,499.94,468.48,500.12,468.43,500.17z"/>
	<path class="st94" d="M438.02,699.32c-1.65,1.94-0.79,7.11,2.3,8.09c2.93,0.93,6.66-2.28,6.49-4.88c-0.2-2.98-5.55-5.14-8.06-3.79
		C438.33,698.97,438.09,699.24,438.02,699.32z"/>
	<path class="st91" d="M516.94,511.26c-0.92,1.46,0.71,4.25,2.79,5.36c0.44,0.24,2.11,1.12,3.39,0.32c1.23-0.77,1.38-2.63,0.97-3.87
		c-0.76-2.33-3.58-2.73-3.79-2.75C519.98,510.28,517.72,510.03,516.94,511.26z"/>
	<path class="st91" d="M496.64,298.67c-0.92,1.46,0.71,4.25,2.79,5.36c0.44,0.24,2.11,1.12,3.39,0.32c1.23-0.77,1.38-2.63,0.97-3.87
		c-0.76-2.33-3.58-2.73-3.79-2.75C499.69,297.69,497.42,297.44,496.64,298.67z"/>
	<path class="st91" d="M459.14,646.83c-0.92,1.46,0.71,4.25,2.79,5.36c0.44,0.24,2.11,1.12,3.39,0.32c1.23-0.77,1.38-2.63,0.97-3.87
		c-0.76-2.33-3.58-2.73-3.79-2.75C462.18,645.84,459.92,645.59,459.14,646.83z"/>
	<path class="st90" d="M828.01,609c-5.27,9.06-14.9,25.2-34.31,38.34c-19.44,13.16-39.07,16.83-50.98,17.9
		c3.03-40.48-7.97-82.34-27.73-112.75c-14.75-22.7-32.31-35.84-46.41-46.41c-48.82-36.55-98.67-44.64-137.23-50.46
		c-11.4-1.71-63.31-8.96-127.5,1.32c-3.98-7.57-33.87-68.74-1.66-120.38c2.75-4.4,5.75-8.42,8.96-12.1
		c-1.59,4.21-2.94,8.5-3.94,12.9c-3.47,15.28-2.32,32.32,6.66,45.17c14.79,21.17,46.69,20.55,63.23,20.32
		c7.23-0.1,10.79-0.91,20.21-2.21c24.13-3.34,54.92-5.84,73.05-5.12c52.24,2.06,92.42,34.49,102.42,42.56
		c16.05,12.96,13.1,15.05,43.89,42.56c34.66,30.97,47.19,36.17,57.86,38.57c7.54,1.7,37.14,8.36,53.87-9.31
		c14.19-14.99,14.68-42.78-0.18-67.34c4.55,8.33,8.59,17.38,11.89,27.19C856.55,518.59,849.72,571.64,828.01,609z"/>
	<path class="st91" d="M839.66,547.32c-10.84,7.84-24.74,10.26-38.12,10.21c-12.27-0.04-24.52-1.98-36.2-5.74
		c-51.35-16.5-84.85-64.43-126.81-98.31c-35.93-29.03-81.37-48.64-127.46-45.55c-18.02,1.21-35.64,5.81-53.58,7.9
		c-17.94,2.09-36.95,1.45-52.85-7.11c-6.76-3.64-12.78-9.01-17.19-15.35c0.77,32.08,13.86,58.74,16.4,63.57
		c64.19-10.27,116.1-3.03,127.5-1.31c38.56,5.81,88.41,13.9,137.23,50.45c14.1,10.57,31.66,23.71,46.41,46.41
		c19.76,30.42,30.76,72.27,27.73,112.75c11.91-1.06,31.54-4.74,50.98-17.9c19.41-13.13,29.04-29.28,34.31-38.34
		c11.61-19.97,18.96-44.42,20.77-70.32C846.12,541.89,843.13,544.81,839.66,547.32z"/>
	<path class="st92" d="M464.64,330.87c-6.12,3.09-12.13,7.05-15.48,12.96c-3.35,5.91-3.24,14.16,1.84,18.74
		c2.37,2.14,5.48,3.26,8.57,4.13c24.34,6.93,50.25,1.76,75.55,0.44c47.36-2.46,108.64,2.16,146.08,30.89
		c9.75,7.48,49.29,40.2,62.09,50.8c14.52,12.01,24.44,20.32,33.93,17.33c11.3-3.56,17.29-21.67,15.1-35.78
		c-3.03-19.56-21.64-30.72-32.15-37.02c-19.18-11.5-31.74-10.86-54.46-17.2c-28.24-7.87-35.95-15.16-63.45-29.37
		C592.18,320.91,517.69,304.14,464.64,330.87z"/>
	<path class="st93" d="M756.73,468.31c5.99,4.25,13.24,6.27,20.35,8.13c11.14,2.9,24.95,4.81,32.4-3.97
		c4.26-5.02,4.93-12.34,3.25-18.7c-1.69-6.36-5.42-11.96-9.29-17.29c-7.31-10.09-15.3-19.68-23.9-28.69
		c-5.6-5.87-11.54-11.56-18.6-15.55c-16.12-9.12-58.01-8.61-44.85,19.84c4.82,10.42,15.03,18.18,20.8,28.35
		C742.54,450.36,747.09,461.47,756.73,468.31z"/>
	<path class="st91" d="M426.87,366.93c-0.85,0.71-1.46,1.76-1.43,2.87c0.02,0.69,0.3,1.35,0.56,1.99c0.78,1.86,1.84,3.97,3.82,4.37
		c1.99,0.4,3.79-1.16,5.22-2.59c0.61-0.61,1.26-1.29,1.34-2.15c0.09-0.94-0.52-1.79-1.09-2.54c-0.67-0.87-1.36-1.75-2.26-2.37
		C431.12,365.21,428.59,365.49,426.87,366.93z"/>
	<path class="st91" d="M437.01,359.05c-0.02,1.23,1.12,3.36,3.14,3.24c1.71-0.1,3.13-1.79,3.03-3.5c-0.04-0.66-0.43-1.23-0.43-1.23
		c-0.41-0.65-0.96-0.95-1.17-1.06c-0.35-0.18-1.59-0.76-2.87-0.13c-1.21,0.59-1.55,1.81-1.62,2.11
		C437.07,358.59,437.02,358.8,437.01,359.05z"/>
	<path class="st91" d="M447.95,361.33c0.43,0.88,1.86,1.09,2.73,0.69c0.16-0.08,0.48-0.23,0.68-0.59c0.12-0.22,0.16-0.48,0.14-0.74
		c-0.05-0.7-0.71-1.67-1.77-1.71c-1-0.04-1.79,0.77-1.89,1.57C447.82,360.65,447.78,360.98,447.95,361.33z"/>
	<path class="st94" d="M583.05,416.57c-0.28,0.12-4.23,2.01-5.21,5.84c-0.19,0.73-0.49,1.97,0.15,3.02c0.98,1.63,3.62,1.88,5.4,1.4
		c0.73-0.2,1.14-0.49,1.59-0.71c3.7-1.73,8.47-0.01,11.92-2.19c0.54-0.34,1.06-0.82,1.17-1.46c0.09-0.53-0.13-1.06-0.38-1.53
		C594.91,415.61,588.33,414.31,583.05,416.57z"/>
	<path class="st94" d="M597.29,413.48c0.67,1.07,2.37,1.55,3.34,0.71c0.95-0.82,0.85-2.6-0.23-3.41c-0.97-0.73-2.51-0.51-3.15,0.46
		C596.79,411.94,596.9,412.86,597.29,413.48z"/>
	<path class="st91" d="M679.61,368.75c0.51,2.94,3.09,5.39,6.05,5.76c0.36,0.04,0.73,0.06,1.07-0.07c0.3-0.12,0.55-0.35,0.76-0.59
		c1.14-1.28,1.62-3.06,1.57-4.77c-0.05-1.72-0.59-3.38-1.28-4.95c-0.89-2.03-2.97-4.61-5.46-3.28
		C679.98,362.08,679.21,366.45,679.61,368.75z"/>
	<path class="st91" d="M689.92,375.23c0.04,0.29,0.16,1.04,0.81,1.52c0.73,0.54,1.89,0.55,2.28,0.04c0.07-0.09,0.1-0.18,0.13-0.32
		c0.05-0.22,0.31-1.45-0.52-2.4c-0.51-0.58-1.55-1.18-2.22-0.77C689.69,373.74,689.89,375.04,689.92,375.23z"/>
	<path class="st91" d="M731.67,398.02c-0.84,0.76-0.61,2.21-0.07,3.07c0.47,0.74,1.53,1.62,2.42,1.24c0.85-0.37,1.14-1.41,1.26-2.33
		c0.05-0.4,0.08-0.78-0.11-1.17C734.66,397.75,732.69,397.1,731.67,398.02z"/>
	<path class="st94" d="M773.71,604.36c-0.59,1.46-0.41,3.51-0.05,7.59c0.39,4.48,1.1,5.4,1.5,5.95c1.22,1.69,3.54,2.7,5.46,1.89
		c1.38-0.59,2.25-1.93,3.2-3.1c1.12-1.37,2.47-2.59,3.28-4.16c0.84-1.62,1.05-3.51,0.86-5.33c-0.21-1.97-0.81-4.1-1.64-5.9
		c-0.38-0.81-0.78-1.23-1.23-1.6c-1.23-1.01-2.68-1.06-3.25-1.08C778.83,598.5,775.11,600.9,773.71,604.36z"/>
	<path class="st94" d="M789.5,589.78c-0.48,1.54-0.45,4.09,1.39,5.61c1.5,1.24,4.23,1.8,5.27,0.45c0.63-0.81,0.73-1.92,0.66-2.94
		c-0.04-0.57-0.28-3.24-2.47-4.65c-0.41-0.26-1.96-1.26-3.32-0.61C790.02,588.11,789.68,589.21,789.5,589.78z"/>
</g>
</svg>
