<?xml version="1.0" encoding="utf-8"?>
<!-- Generator: Adobe Illustrator 28.0.0, SVG Export Plug-In . SVG Version: 6.00 Build 0)  -->
<svg version="1.1" id="Layer_1" xmlns="http://www.w3.org/2000/svg" xmlns:xlink="http://www.w3.org/1999/xlink" x="0px" y="0px"
	 viewBox="0 0 1080 1080" style="enable-background:new 0 0 1080 1080;" xml:space="preserve">
<style type="text/css">
	.st0{fill:none;stroke:#C1873A;stroke-width:16;stroke-linecap:round;stroke-linejoin:round;stroke-miterlimit:10;}
	.st1{fill:#E2D0E1;}
	.st2{fill:#EDE6EE;}
	.st3{fill:#DA9E53;}
	.st4{fill:#C98D4C;}
	.st5{fill:#DD6A6E;}
	.st6{fill:#D1626B;}
	.st7{fill:#F3EFF4;}
	.st8{fill:#C45C69;}
	.st9{fill:#FFB92E;}
	.st10{opacity:0.5;fill:#96A488;}
	.st11{fill:#F0F3EC;}
	.st12{fill:#E5E9E0;}
	.st13{fill:#B5CAD2;}
	.st14{fill:none;stroke:#009245;stroke-width:4;stroke-miterlimit:10;}
	.st15{fill:none;stroke:#009245;stroke-width:4;stroke-linecap:round;stroke-linejoin:round;stroke-miterlimit:10;}
	.st16{fill:none;stroke:#009245;stroke-width:4.1082;stroke-linecap:round;stroke-linejoin:round;stroke-miterlimit:10;}
	.st17{fill:none;stroke:#000000;stroke-width:1.9946;stroke-miterlimit:10;}
	.st18{fill:none;stroke:#000000;stroke-width:1.8919;stroke-miterlimit:10;}
	.st19{fill:none;stroke:#000000;stroke-width:1.924;stroke-miterlimit:10;}
	.st20{fill:none;stroke:#000000;stroke-width:1.924;stroke-linecap:round;stroke-linejoin:round;stroke-miterlimit:10;}
	.st21{fill:none;stroke:#000000;stroke-width:1.7309;stroke-linecap:round;stroke-linejoin:round;stroke-miterlimit:10;}
	.st22{fill:none;stroke:#000000;stroke-width:2;stroke-miterlimit:10;}
	.st23{fill:none;stroke:#000000;stroke-width:2;stroke-linecap:round;stroke-linejoin:round;stroke-miterlimit:10;}
	.st24{fill:#FFC257;}
	.st25{fill:#EDA229;}
	.st26{fill:#DD8E1B;}
	.st27{fill:#FFD085;}
	.st28{fill:none;stroke:#000000;stroke-width:3.4146;stroke-linecap:round;stroke-linejoin:round;stroke-miterlimit:10;}
	.st29{fill:none;stroke:#000000;stroke-width:1.8379;stroke-linecap:round;stroke-linejoin:round;stroke-miterlimit:10;}
	.st30{fill:none;stroke:#000000;stroke-linecap:round;stroke-linejoin:round;stroke-miterlimit:10;}
	.st31{fill:#D1D6CC;}
	.st32{fill:#F4DC98;}
	.st33{fill:#E9D2A3;}
	.st34{fill:#DAA765;}
	.st35{fill:#D09E62;}
	.st36{opacity:0.5;fill:#EDE1CA;}
	.st37{opacity:0.3;fill:#AF8056;}
	.st38{opacity:0.28;fill:#AF8056;}
	.st39{fill:#F3814A;}
	.st40{fill:#CF602F;}
	.st41{fill:#C35233;}
	.st42{fill:#F38A62;}
	.st43{opacity:0.2;fill:#FFFFFF;}
	.st44{opacity:0.37;fill:#DA7446;}
	.st45{opacity:0.1;fill:#FFFFFF;}
	.st46{opacity:0.08;fill:#FFFFFF;}
	.st47{opacity:0.3;fill:#997552;enable-background:new    ;}
	.st48{fill:#E5C98C;}
	.st49{opacity:0.6;fill:#F9E4BB;enable-background:new    ;}
	.st50{opacity:0.8;fill:#F9E4BB;enable-background:new    ;}
	.st51{fill:#618828;}
	.st52{fill:#92A931;}
	.st53{fill:#809A2C;}
	.st54{opacity:0.6;fill:#92A931;}
	.st55{opacity:0.6;fill:#618828;}
	.st56{opacity:0.25;fill:#E9D2A3;}
	.st57{fill:#E59055;}
	.st58{fill:#CE814D;}
	.st59{fill:#AF6C3E;}
	.st60{fill:#EFA16C;}
	.st61{fill:#FFBB8D;}
	.st62{fill:#E4C88B;}
	.st63{opacity:0.7;fill:#F8E3BA;}
	.st64{opacity:0.35;fill:#FFFFFF;}
	.st65{fill:#4D851D;}
	.st66{fill:#437A0F;}
	.st67{fill:#3B680B;}
	.st68{fill:#5B9324;}
	.st69{fill:#77B234;}
	.st70{fill:#E8EECB;}
	.st71{fill:#EFF4D4;}
	.st72{fill:#E3E8BF;}
	.st73{fill:#F9FFE1;}
	.st74{fill:#FCFFE9;}
	.st75{fill:#BF2C5A;}
	.st76{fill:#AF2859;}
	.st77{fill:#A3285A;}
	.st78{fill:#F3CEE4;}
	.st79{fill:#FFE3F7;}
	.st80{fill:#FFF8FD;}
	.st81{fill:#DBA9C9;}
	.st82{fill:#C9356A;}
	.st83{fill:#E0518B;}
	.st84{fill:#F96EA0;}
	.st85{fill:#A07A50;}
	.st86{fill:#BC916D;}
	.st87{fill:#936E4A;}
	.st88{fill:none;}
	.st89{fill:#E1AE4F;}
	.st90{fill:#D69F45;}
	.st91{fill:#C1873A;}
	.st92{fill:#E8B564;}
	.st93{fill:#F4C376;}
	.st94{fill:#AA7331;}
	.st95{fill:#839E39;}
	.st96{fill:#959F38;}
	.st97{fill:#8FAA44;}
	.st98{fill:#A8BF55;}
	.st99{fill:#708426;}
	.st100{fill:#FFCC73;}
	.st101{fill:#EDCC8C;}
	.st102{fill:#FFDDA1;}
	.st103{fill:#DDBB80;}
	.st104{fill:#FFE8C2;}
	.st105{fill:#CEA974;}
	.st106{fill:none;stroke:#E1AE4F;stroke-width:16;stroke-linecap:round;stroke-linejoin:round;stroke-miterlimit:10;}
	.st107{fill:none;stroke:#D69F45;stroke-width:16;stroke-linecap:round;stroke-linejoin:round;stroke-miterlimit:10;}
	.st108{fill:none;stroke:#F4C376;stroke-width:16;stroke-linecap:round;stroke-linejoin:round;stroke-miterlimit:10;}
	.st109{fill:none;stroke:#C1873A;stroke-width:5.6205;stroke-linecap:round;stroke-linejoin:round;stroke-miterlimit:10;}
	.st110{fill:none;stroke:#E1AE4F;stroke-width:5.6205;stroke-linecap:round;stroke-linejoin:round;stroke-miterlimit:10;}
	.st111{fill:none;stroke:#D69F45;stroke-width:5.6205;stroke-linecap:round;stroke-linejoin:round;stroke-miterlimit:10;}
	.st112{fill:none;stroke:#F4C376;stroke-width:5.6205;stroke-linecap:round;stroke-linejoin:round;stroke-miterlimit:10;}
	.st113{fill:none;stroke:#F4C376;stroke-width:5.2674;stroke-linecap:round;stroke-linejoin:round;stroke-miterlimit:10;}
	.st114{fill:none;stroke:#EDCC8C;stroke-width:5.8805;stroke-linecap:round;stroke-linejoin:round;stroke-miterlimit:10;}
	.st115{fill:none;stroke:#FFDDA1;stroke-width:5.8805;stroke-linecap:round;stroke-linejoin:round;stroke-miterlimit:10;}
	.st116{fill:none;stroke:#FFE8C2;stroke-width:5.8805;stroke-linecap:round;stroke-linejoin:round;stroke-miterlimit:10;}
	.st117{fill:none;stroke:#D1626B;stroke-width:5.2388;stroke-miterlimit:10;}
	.st118{fill:none;stroke:#D1626B;stroke-width:5.4518;stroke-miterlimit:10;}
	.st119{fill:none;stroke:#DD6A6E;stroke-width:5.2388;stroke-miterlimit:10;}
	.st120{fill:none;stroke:#AD4D58;stroke-width:5.0375;stroke-miterlimit:10;}
	.st121{fill:none;stroke:#D1626B;stroke-width:4.8407;stroke-miterlimit:10;}
	.st122{fill:none;stroke:#D1626B;stroke-width:5.0375;stroke-miterlimit:10;}
	.st123{fill:none;stroke:#DD6A6E;stroke-width:4.8407;stroke-miterlimit:10;}
</style>
<g>
	<path class="st57" d="M248.8,574.53c-10.21,13.77-10.54,27.91-10.54,27.91v0c0,0,0,14.58,10.54,29.24
		C269.29,660.2,332.34,661,332.34,661c145.95,1.85,265.26-36.64,265.26-36.64c0,0,198.8-66.39,238.88-146.55
		c9.23-18.46,3.48-32.91,3.48-32.92c-4.03-11.49-14.37-19.92-25.47-24.24c-22.38-8.71-76.28,18.06-92.27,26.27
		c-27.12,13.93-74.77,38.41-121.7,55.8c-10.35,3.84-52.03,18.94-108.45,29.31c-42.74,7.85-79.76,10.38-85.9,10.78
		c-33.82,2.21-53.12,1.11-92.91,6.44C292.12,552.08,262.61,555.92,248.8,574.53z"/>
	<path class="st58" d="M839.96,468.82c-0.79,2.84-1.93,5.86-3.48,8.98c-40.09,80.16-238.89,146.56-238.89,146.56
		S478.27,662.85,332.33,661c0,0-32.76-0.42-58.71-11.33c-0.12-0.15-0.23-0.29-0.34-0.43c-7.48-9.52-17.88-24.36-10.79-36.73
		c9.6-16.73,33.46-13.62,49.22-11.8c17.05,1.96,34.33,2.73,51.69,2.73c31.94,0,64.13-2.64,95.52-5.4
		c48.34-4.25,96.7-11.62,143.04-27.73c39.34-13.69,77.36-31.35,113.52-52c12.85-7.35,25.35-13.98,37.34-22.81
		c12.77-9.42,25.49-18.71,39.17-26.75c10.79-6.35,28.42-16.35,40.83-8.42C835.99,462.36,838.3,465.39,839.96,468.82z"/>
	<path class="st59" d="M839.97,468.83c-0.79,2.84-1.93,5.86-3.49,8.99C796.39,557.97,597.6,624.38,597.6,624.38
		s-119.31,38.48-265.26,36.63c0,0-32.39-0.41-58.27-11.14c-0.74-0.31-1.17-1.1-1.02-1.89c0.2-1.01,0.55-2.03,1.08-3.04
		c7.04-13.31,38.7-6.27,78.29-4.16c24.45,1.31,48.97-1.43,73.44-2.08c34.62-0.91,150.03-3.94,263.29-64.43
		c23.31-12.45,41.95-24.89,55.43-34.65c5.14-3.72,13.91-10.1,24.96-19.32c25.58-21.32,36.22-35.18,60.61-47.12
		C834.33,471.14,837.82,469.68,839.97,468.83z"/>
	<path class="st60" d="M277.69,580.18c6.83,13.34,30.93,17.02,135.55,6.13c48.91-5.09,73.37-7.64,100.32-13.02
		c43.35-8.66,74.1-18.81,107.21-29.87c0,0,70.42-23.52,153.93-79.64c6.8-4.57,17.01-12.23,16.08-20.68
		c-0.23-2.12-1.17-4.27-2.3-5.36c-8.76-8.45-52.92,23.91-71.99,36.76c-47.39,31.93-89.18,43.95-160.05,64.33
		c-40.29,11.59-79.71,22.92-134.02,26.04c-74.47,4.27-141.37-9.2-146.27,7.66C275.3,575.49,276.7,578.24,277.69,580.18z"/>
	<path class="st61" d="M327.46,556.76c-4.44,0.02-33.59,0.08-35.92,9.11c-0.57,2.19,0.35,5.3,2.03,7.45
		c3.18,4.09,9.02,4.67,12.87,4.74c149.4,2.72,276.8-39.06,276.8-39.06c6.47-2.12,19.15-6.33,35.26-12.23
		c21.85-8,30.2-11.84,78.53-32.47c42.67-18.22,68.95-29.22,69.31-41.54c0.03-1,0.13-4.43-2.03-6.1c-5.41-4.16-19.98,6.64-23.03,8.81
		c-25.74,18.28-128.97,59.52-177.91,73.6C479.27,553.27,349.24,556.63,327.46,556.76z"/>
</g>
</svg>
