<?xml version="1.0" encoding="utf-8"?>
<!-- Generator: Adobe Illustrator 28.0.0, SVG Export Plug-In . SVG Version: 6.00 Build 0)  -->
<svg version="1.1" id="Layer_1" xmlns="http://www.w3.org/2000/svg" xmlns:xlink="http://www.w3.org/1999/xlink" x="0px" y="0px"
	 viewBox="0 0 1080 1080" style="enable-background:new 0 0 1080 1080;" xml:space="preserve">
<style type="text/css">
	.st0{fill:none;stroke:#C1873A;stroke-width:16;stroke-linecap:round;stroke-linejoin:round;stroke-miterlimit:10;}
	.st1{fill:#E2D0E1;}
	.st2{fill:#EDE6EE;}
	.st3{fill:#DA9E53;}
	.st4{fill:#C98D4C;}
	.st5{fill:#DD6A6E;}
	.st6{fill:#D1626B;}
	.st7{fill:#F3EFF4;}
	.st8{fill:#C45C69;}
	.st9{fill:#FFB92E;}
	.st10{opacity:0.5;fill:#96A488;}
	.st11{fill:#F0F3EC;}
	.st12{fill:#E5E9E0;}
	.st13{fill:#B5CAD2;}
	.st14{fill:none;stroke:#009245;stroke-width:4;stroke-miterlimit:10;}
	.st15{fill:none;stroke:#009245;stroke-width:4;stroke-linecap:round;stroke-linejoin:round;stroke-miterlimit:10;}
	.st16{fill:none;stroke:#009245;stroke-width:4.1082;stroke-linecap:round;stroke-linejoin:round;stroke-miterlimit:10;}
	.st17{fill:none;stroke:#000000;stroke-width:1.9946;stroke-miterlimit:10;}
	.st18{fill:none;stroke:#000000;stroke-width:1.8919;stroke-miterlimit:10;}
	.st19{fill:none;stroke:#000000;stroke-width:1.924;stroke-miterlimit:10;}
	.st20{fill:none;stroke:#000000;stroke-width:1.924;stroke-linecap:round;stroke-linejoin:round;stroke-miterlimit:10;}
	.st21{fill:none;stroke:#000000;stroke-width:1.7309;stroke-linecap:round;stroke-linejoin:round;stroke-miterlimit:10;}
	.st22{fill:none;stroke:#000000;stroke-width:2;stroke-miterlimit:10;}
	.st23{fill:none;stroke:#000000;stroke-width:2;stroke-linecap:round;stroke-linejoin:round;stroke-miterlimit:10;}
	.st24{fill:#FFC257;}
	.st25{fill:#EDA229;}
	.st26{fill:#DD8E1B;}
	.st27{fill:#FFD085;}
	.st28{fill:none;stroke:#000000;stroke-width:3.4146;stroke-linecap:round;stroke-linejoin:round;stroke-miterlimit:10;}
	.st29{fill:none;stroke:#000000;stroke-width:1.8379;stroke-linecap:round;stroke-linejoin:round;stroke-miterlimit:10;}
	.st30{fill:none;stroke:#000000;stroke-linecap:round;stroke-linejoin:round;stroke-miterlimit:10;}
	.st31{fill:#D1D6CC;}
	.st32{fill:#F4DC98;}
	.st33{fill:#E9D2A3;}
	.st34{fill:#DAA765;}
	.st35{fill:#D09E62;}
	.st36{opacity:0.5;fill:#EDE1CA;}
	.st37{opacity:0.3;fill:#AF8056;}
	.st38{opacity:0.28;fill:#AF8056;}
	.st39{fill:#F3814A;}
	.st40{fill:#CF602F;}
	.st41{fill:#C35233;}
	.st42{fill:#F38A62;}
	.st43{opacity:0.2;fill:#FFFFFF;}
	.st44{opacity:0.37;fill:#DA7446;}
	.st45{opacity:0.1;fill:#FFFFFF;}
	.st46{opacity:0.08;fill:#FFFFFF;}
	.st47{opacity:0.3;fill:#997552;enable-background:new    ;}
	.st48{fill:#E5C98C;}
	.st49{opacity:0.6;fill:#F9E4BB;enable-background:new    ;}
	.st50{opacity:0.8;fill:#F9E4BB;enable-background:new    ;}
	.st51{fill:#618828;}
	.st52{fill:#92A931;}
	.st53{fill:#809A2C;}
	.st54{opacity:0.6;fill:#92A931;}
	.st55{opacity:0.6;fill:#618828;}
	.st56{opacity:0.25;fill:#E9D2A3;}
	.st57{fill:#E59055;}
	.st58{fill:#CE814D;}
	.st59{fill:#AF6C3E;}
	.st60{fill:#EFA16C;}
	.st61{fill:#FFBB8D;}
	.st62{fill:#E4C88B;}
	.st63{opacity:0.7;fill:#F8E3BA;}
	.st64{opacity:0.35;fill:#FFFFFF;}
	.st65{fill:#4D851D;}
	.st66{fill:#437A0F;}
	.st67{fill:#3B680B;}
	.st68{fill:#5B9324;}
	.st69{fill:#77B234;}
	.st70{fill:#E8EECB;}
	.st71{fill:#EFF4D4;}
	.st72{fill:#E3E8BF;}
	.st73{fill:#F9FFE1;}
	.st74{fill:#FCFFE9;}
	.st75{fill:#BF2C5A;}
	.st76{fill:#AF2859;}
	.st77{fill:#A3285A;}
	.st78{fill:#F3CEE4;}
	.st79{fill:#FFE3F7;}
	.st80{fill:#FFF8FD;}
	.st81{fill:#DBA9C9;}
	.st82{fill:#C9356A;}
	.st83{fill:#E0518B;}
	.st84{fill:#F96EA0;}
	.st85{fill:#A07A50;}
	.st86{fill:#BC916D;}
	.st87{fill:#936E4A;}
	.st88{fill:none;}
	.st89{fill:#E1AE4F;}
	.st90{fill:#D69F45;}
	.st91{fill:#C1873A;}
	.st92{fill:#E8B564;}
	.st93{fill:#F4C376;}
	.st94{fill:#AA7331;}
	.st95{fill:#839E39;}
	.st96{fill:#959F38;}
	.st97{fill:#8FAA44;}
	.st98{fill:#A8BF55;}
	.st99{fill:#708426;}
	.st100{fill:#FFCC73;}
	.st101{fill:#EDCC8C;}
	.st102{fill:#FFDDA1;}
	.st103{fill:#DDBB80;}
	.st104{fill:#FFE8C2;}
	.st105{fill:#CEA974;}
	.st106{fill:none;stroke:#E1AE4F;stroke-width:16;stroke-linecap:round;stroke-linejoin:round;stroke-miterlimit:10;}
	.st107{fill:none;stroke:#D69F45;stroke-width:16;stroke-linecap:round;stroke-linejoin:round;stroke-miterlimit:10;}
	.st108{fill:none;stroke:#F4C376;stroke-width:16;stroke-linecap:round;stroke-linejoin:round;stroke-miterlimit:10;}
	.st109{fill:none;stroke:#C1873A;stroke-width:5.6205;stroke-linecap:round;stroke-linejoin:round;stroke-miterlimit:10;}
	.st110{fill:none;stroke:#E1AE4F;stroke-width:5.6205;stroke-linecap:round;stroke-linejoin:round;stroke-miterlimit:10;}
	.st111{fill:none;stroke:#D69F45;stroke-width:5.6205;stroke-linecap:round;stroke-linejoin:round;stroke-miterlimit:10;}
	.st112{fill:none;stroke:#F4C376;stroke-width:5.6205;stroke-linecap:round;stroke-linejoin:round;stroke-miterlimit:10;}
	.st113{fill:none;stroke:#F4C376;stroke-width:5.2674;stroke-linecap:round;stroke-linejoin:round;stroke-miterlimit:10;}
	.st114{fill:none;stroke:#EDCC8C;stroke-width:5.8805;stroke-linecap:round;stroke-linejoin:round;stroke-miterlimit:10;}
	.st115{fill:none;stroke:#FFDDA1;stroke-width:5.8805;stroke-linecap:round;stroke-linejoin:round;stroke-miterlimit:10;}
	.st116{fill:none;stroke:#FFE8C2;stroke-width:5.8805;stroke-linecap:round;stroke-linejoin:round;stroke-miterlimit:10;}
	.st117{fill:none;stroke:#D1626B;stroke-width:5.2388;stroke-miterlimit:10;}
	.st118{fill:none;stroke:#D1626B;stroke-width:5.4518;stroke-miterlimit:10;}
	.st119{fill:none;stroke:#DD6A6E;stroke-width:5.2388;stroke-miterlimit:10;}
	.st120{fill:none;stroke:#AD4D58;stroke-width:5.0375;stroke-miterlimit:10;}
	.st121{fill:none;stroke:#D1626B;stroke-width:4.8407;stroke-miterlimit:10;}
	.st122{fill:none;stroke:#D1626B;stroke-width:5.0375;stroke-miterlimit:10;}
	.st123{fill:none;stroke:#DD6A6E;stroke-width:4.8407;stroke-miterlimit:10;}
</style>
<g>
	<g>
		<path class="st31" d="M589.87,627.75c0,21.67-103.58,36.89-137.73,38.52c-21,1.01-41.03-1.25-41.03-1.25
			c-4.25-0.48-5.78-0.76-37.11-7c-27.57-5.49-41.54-8.41-50.41-16.8c-5.36-5.07-9.33-8.82-9.19-13.47
			c0.58-19.52,73.05-38.52,137.73-38.52C528.21,589.23,589.87,606.48,589.87,627.75z"/>
		<path class="st31" d="M845.78,689.23c0.65,19.07-56.8,34.5-67.46,37.36c-35.02,9.41-65.32,12.01-82.65,13.32
			c-55.03,4.18-171.03,7.44-172.2-12.46c-1.2-20.38,124.1-57.97,174.06-67.05c24.15-4.39,70.88-11.71,119.89,7.58
			C844.58,678.67,845.7,687,845.78,689.23z"/>
	</g>
	<g>
		<g>
			<path class="st33" d="M616.64,462.12l-0.85,0.29c-0.36,0.06-0.74,0.12-1.11,0.2c-18.13,3.53-34.06,10.76-51.14,17.34
				c-44.55,17.17-91.73,29.87-138.71,39.21c-25.78,5.12-51.87,7.98-77.44,14.18c-29.12,7.06-59.95,16.64-70.2,36.92
				c-0.73,1.46-2.08,4.18-2.91,7.82c-6.32-2.35-18.46-7.9-28.29-20.3c-3.12-3.94-9.9-12.5-11.44-23.92c-0.43-3.2-0.41-6.3-0.04-9.31
				c0-0.02,0-0.04,0.01-0.06c1.82-14.54,11.83-26.44,17.71-33.27c5.87-6.8,25.31-27.59,95.68-46.8
				c10.67-2.91,25.55-6.08,54.96-12.01c47.32-9.55,77.33-13.46,103.13-19.19c6.7-1.49,67.58-13.05,96.58,7.13
				c0.02,0.01,0.03,0.03,0.04,0.03C614.12,428.4,620.59,441.44,616.64,462.12z"/>
			<path class="st34" d="M602.56,420.34c-29-20.19-89.88-8.62-96.58-7.13c-25.8,5.73-55.81,9.64-103.13,19.19
				c-29.4,5.93-44.29,9.1-54.96,12.01c-70.37,19.21-89.82,40-95.68,46.8c-5.89,6.83-15.89,18.73-17.71,33.27
				c0.36-10.56,2.55-24.94,10.43-39.51c6.29-11.64,15-21.15,27.04-30.16c46.81-35.01,128.91-51.04,157.05-56.16
				c97.97-17.85,124.38-9.55,141.45-1.04C584.44,404.57,595.04,413.12,602.56,420.34z"/>
			<path class="st34" d="M299.92,469.02c0.09,1.54,1.37,3.65,3.12,3.49c1.61-0.15,2.84-2.16,2.47-3.54
				c-0.53-1.95-4.24-2.54-5.27-1.37C299.86,468.03,299.9,468.62,299.92,469.02z"/>
			<path class="st34" d="M523.42,452.86c-0.16-0.8-0.74-1.84-1.82-2.09c-1.23-0.29-2.2,0.65-2.33,0.78c-0.97,0.97-1.41,2.92-0.3,4
				c0.84,0.81,2.25,0.84,3.25,0.2C523.22,455.11,523.62,453.91,523.42,452.86z"/>
			<path class="st34" d="M522.4,443.92c-0.11-0.55-0.51-1.26-1.25-1.43c-0.84-0.2-1.51,0.44-1.6,0.53c-0.67,0.67-0.96,2-0.2,2.74
				c0.57,0.55,1.54,0.58,2.22,0.13C522.27,445.45,522.54,444.63,522.4,443.92z"/>
			<path class="st34" d="M535.12,446.46c-0.11-0.55-0.51-1.26-1.25-1.43c-0.84-0.2-1.51,0.44-1.6,0.53c-0.67,0.67-0.96,2-0.2,2.74
				c0.57,0.55,1.54,0.58,2.22,0.13C534.98,448,535.26,447.18,535.12,446.46z"/>
			<path class="st34" d="M295.64,473.83c-0.13-0.59-1-0.86-1.55-1.03c-2.37-0.74-4.63,0.36-9.57,3.19
				c-4.23,2.42-6.34,3.63-7.41,4.42c0,0-4.28,3.15-7.67,8.4c-0.3,0.46-0.79,1.25-0.56,1.49c0.38,0.41,2.61-1.06,3.55-1.69
				c7.14-4.73,10.72-7.09,12.95-8.44C291.47,476.47,295.96,475.25,295.64,473.83z"/>
			<g>
				<path class="st32" d="M598.95,464.73c-5.51-0.8-23.55-2.97-48.32,2.89c-20.06,4.75-17.93,8.47-35.74,12.21
					c-4.65,0.98-8.16,1.37-9.03,1.47c-11.06,1.27-28.38,7.72-32.87,9.36c-4.71,1.72-24.2,8.86-43.82,13.18
					c-25.36,5.59-24.99,0.76-46.51,6.47c-17.5,4.64-19.38,8.26-41.38,14.02c-20.09,5.25-19.59,2.51-28.86,6.67
					c-4.96,2.23-28.41,13.47-34.84,37.34c-1.39,5.18-1.64,9.64-1.63,12.56c4.33-6.41,12.27-16.86,24.7-26.53
					c36.99-28.76,70.06-16.5,153.92-35.62c20.69-4.72,39.2-8.94,63.3-17.41c10.54-3.7,15.16-5.21,27.37-9.44
					c17.01-5.9,41.42-14.01,72.09-23C612.9,467.53,606.62,465.85,598.95,464.73z"/>
				<path class="st62" d="M600.92,465.38c-12.37,3.73-24.72,10.97-37.95,16.5l-52.6,17.86l-0.02,0.01
					c-2.66,0.74-5.57,1.54-8.77,2.42c-32.98,9.13-58.23,14.5-63.44,15.61c-50.94,10.75-50.98,7.32-89.45,16.64
					c-1.05,0.25-2.09,0.51-3.14,0.77c-7.68,1.44-14.79,3.32-21.65,6.07c-0.01,0-0.02,0-0.03,0.01
					c-19.06,6.17-36.01,14.56-44.02,27.65c1.45-4.94,4.19-9.54,7.63-13.4c5.2-5.83,11.92-10.12,18.87-13.69
					c7.05-3.63,14.45-6.59,22.06-8.85c18.31-5.42,38.88-12.44,57.71-15.62c9.76-1.65,19.76-1.47,29.56-2.9
					c25.56-3.74,46.8-15.1,72.46-18.11c25.92-3.04,45.35-12.28,65.99-20.49C568.14,470.29,586.06,466.04,600.92,465.38z"/>
			</g>
			<path class="st34" d="M628.19,564.2c-13.44,14.56-26.99,23.59-39,30.68c-14.66,8.66-72.71,41.4-164.85,49.4
				c-19.43,1.68-54.11,3.48-91.52-7.28c-9.56-2.76-26.43-8.37-41.6-22.88c-16.39-15.67-17.6-26.51-17.68-29.12
				c-0.08-2.68,0.23-5.13,0.73-7.26c0.83-3.64,2.18-6.37,2.91-7.82c10.25-20.28,41.08-29.86,70.2-36.92
				c38.46-9.32,38.5-5.89,89.44-16.64c5.21-1.1,30.46-6.48,63.44-15.6c3.2-0.88,6.11-1.68,8.77-2.42l0.02-0.01l52.6-17.86
				c18.85-7.88,30.77-14.08,53.02-18.19c0.37-0.07,0.75-0.14,1.11-0.2c15.62-2.8,25.51-2.41,33.21,3.32
				c8.34,6.21,10.61,16.11,11.44,19.76C668.47,520.34,635.82,555.93,628.19,564.2z"/>
			<path class="st37" d="M609.66,591.46c-0.03-1-0.08-2-0.17-3.01c0.04-0.04,0.08-0.08,0.12-0.12
				C609.65,589.38,609.67,590.43,609.66,591.46z"/>
			<path class="st37" d="M602.47,420.34c-3.15-2.19-6.66-4-10.45-5.5c-16.1-9.19-24.24-14.09-37.87-16.67
				c-17.63-3.34-28.7,0.19-53.29,4.07c-35.1,5.53-32.87,1.57-65.5,6.29c-29.66,4.29-54.44,11.99-103.99,27.39
				c-37.41,11.62-49.42,16.87-62.18,27.39c-20.75,17.08-28.15,35.45-29.6,39.23c-2.77,7.16-4.28,13.9-5.09,19.77
				c0.59-10.3,2.99-23.74,10.34-37.33c6.29-11.64,14.99-21.15,27.04-30.16c46.81-35.01,128.91-51.04,157.04-56.17
				c97.97-17.85,124.38-9.54,141.45-1.04C584.34,404.57,594.95,413.12,602.47,420.34z"/>
			<path class="st56" d="M321.34,566.73c-2.12,3.43-2.19,7.52-1.97,11.41c0.17,2.89,0.5,5.87,2.03,8.44
				c2.42,4.1,7.57,6.56,12.78,7.32c5.22,0.76,10.55,0.05,15.75-0.79c7.18-1.16,14.53-2.65,20.46-6.37
				c5.93-3.72,10.15-10.19,8.62-16.42c-1.3-5.25-6.39-9.3-12.08-11.38C353.38,553.99,329.57,553.42,321.34,566.73z"/>
		</g>
		<g>
			<path class="st33" d="M787.98,552.3l-0.85,0.29c-0.36,0.06-0.74,0.12-1.11,0.2c-18.13,3.53-34.06,10.76-51.14,17.34
				c-44.55,17.17-91.73,29.87-138.71,39.21c-25.78,5.12-51.87,7.98-77.44,14.18c-29.12,7.06-59.95,16.64-70.2,36.92
				c-0.73,1.46-2.08,4.18-2.91,7.82c-6.32-2.35-18.46-7.9-28.29-20.3c-3.12-3.94-9.9-12.5-11.44-23.92c-0.43-3.2-0.41-6.3-0.04-9.31
				c0-0.02,0-0.04,0.01-0.06c1.82-14.54,11.83-26.44,17.71-33.27c5.87-6.8,25.31-27.59,95.68-46.8
				c10.67-2.91,25.55-6.08,54.96-12.01c47.32-9.55,77.33-13.46,103.13-19.19c6.7-1.49,67.58-13.05,96.58,7.13
				c0.02,0.01,0.03,0.03,0.04,0.03C785.46,518.58,791.93,531.62,787.98,552.3z"/>
			<path class="st34" d="M773.91,510.52c-29-20.19-89.88-8.62-96.58-7.13c-25.8,5.73-55.81,9.64-103.13,19.19
				c-29.4,5.93-44.29,9.1-54.96,12.01c-70.37,19.21-89.82,40-95.68,46.8c-5.89,6.83-15.89,18.73-17.71,33.27
				c0.36-10.56,2.55-24.94,10.43-39.51c6.29-11.64,15-21.15,27.04-30.16c46.81-35.01,128.91-51.04,157.05-56.16
				c97.97-17.85,124.38-9.55,141.45-1.04C755.78,494.75,766.39,503.3,773.91,510.52z"/>
			<path class="st34" d="M471.27,559.2c0.09,1.54,1.37,3.65,3.12,3.49c1.61-0.15,2.84-2.16,2.47-3.54
				c-0.53-1.95-4.24-2.54-5.27-1.37C471.21,558.21,471.24,558.8,471.27,559.2z"/>
			<path class="st34" d="M694.76,543.04c-0.16-0.8-0.74-1.84-1.82-2.09c-1.23-0.29-2.2,0.65-2.33,0.78c-0.97,0.97-1.41,2.92-0.3,4
				c0.84,0.81,2.25,0.84,3.25,0.2C694.56,545.29,694.97,544.09,694.76,543.04z"/>
			<path class="st34" d="M693.75,534.1c-0.11-0.55-0.51-1.26-1.25-1.43c-0.84-0.2-1.51,0.44-1.6,0.53c-0.67,0.67-0.96,2-0.2,2.74
				c0.57,0.55,1.54,0.58,2.22,0.13C693.61,535.63,693.89,534.81,693.75,534.1z"/>
			<path class="st34" d="M706.46,536.64c-0.11-0.55-0.51-1.26-1.25-1.43c-0.84-0.2-1.51,0.44-1.6,0.53c-0.67,0.67-0.96,2-0.2,2.74
				c0.57,0.55,1.54,0.58,2.22,0.13C706.33,538.18,706.6,537.36,706.46,536.64z"/>
			<path class="st34" d="M466.98,564.01c-0.13-0.59-1-0.86-1.55-1.03c-2.37-0.74-4.63,0.36-9.57,3.19
				c-4.23,2.42-6.34,3.63-7.41,4.42c0,0-4.28,3.15-7.67,8.4c-0.3,0.46-0.79,1.25-0.56,1.49c0.38,0.41,2.61-1.06,3.55-1.69
				c7.14-4.73,10.72-7.09,12.95-8.44C462.81,566.65,467.3,565.43,466.98,564.01z"/>
			<g>
				<path class="st32" d="M786.17,568.15c-39.18,0.53-76.6,14.75-76.6,14.75c-33.27,14.51-61.01,23.57-84.88,29.72
					c-12.94,3.34-25.04,6.5-36.29,9.49c-20.42,5.43-38.06,10.26-52.96,14.43c-11.45,3.2-21.29,6.02-29.52,8.41
					c-20.85,6.05-31.45,9.39-32.09,9.46c0,0-23.35,2.78-26.43,10.85c-0.01,0.02-0.02,0.04-0.02,0.06c-0.04,0.11-0.08,0.22-0.11,0.33
					c0,0.03-0.01,0.05-0.01,0.05c-0.01,0.02-0.01,0.04-0.01,0.06c-0.05,0.23-0.11,0.46-0.16,0.7c-0.36,1.79-0.58,3.77-0.51,5.91
					c0.07,2.27,1.1,11.12,13.89,24.05c1.17,1.17,2.43,2.39,3.8,3.63c1.44,1.31,2.87,2.52,4.32,3.66c0.2,0.16,0.37,0.31,0.56,0.45
					c0.18,0.14,0.35,0.29,0.54,0.42c0.06,0.06,0.13,0.11,0.21,0.17c0.06,0.05,0.14,0.1,0.2,0.15c0.11,0.09,0.22,0.17,0.34,0.26
					c1.29,0.99,2.59,1.92,3.89,2.81c8.64,5.87,17.25,9.5,24.29,11.86c0.01,0.01,0.01,0.01,0.02,0.01c-2.6,1.06-5.36,1.91-8.14,2.6
					c-0.01-0.01-0.02-0.01-0.03-0.02c-2.42,0.61-4.85,1.1-7.23,1.5c-32.91,5.63-67.68,6.65-98.96-4.59
					c-5.49-1.97-11.53-5.06-13.14-10.27c-0.11-0.35-0.19-0.7-0.26-1.07c-0.07-0.41-0.12-0.81-0.13-1.21c-0.02-0.31-0.02-0.61,0-0.91
					c0.01-0.17,0.03-0.34,0.05-0.51c0.02-0.16,0.04-0.33,0.07-0.49c0.03-0.17,0.06-0.33,0.1-0.5c0.09-0.4,0.2-0.79,0.34-1.17
					c0.05-0.13,0.1-0.26,0.15-0.39c0.05-0.11,0.1-0.22,0.15-0.33v-0.01c2.18-4.79,8.05-8.47,13.49-10.59
					c6.96-2.72,14.24-4.69,21.67-5.87c12.45-1.98,18.19-5.01,21.71-8.71c3.33-3.51,3.88-6.91,4.07-10.89
					c0.07-1.44,0.09-2.95,0.17-4.57v-0.01c0.18-3.19,0.61-6.8,2.19-11.07c1.1-2.98,2.49-5.59,4.21-8
					c4.68-6.59,11.76-11.76,21.79-19.11c16.31-11.95,31.12-17.43,34.34-18.6c9.99-3.6,22.77-5.59,42.54-7.47
					c10.13-0.96,22.11-1.9,36.48-3.01c10.92-0.85,12.14-0.83,16.1-1.5c0.9-0.15,1.78-0.32,2.65-0.49
					c17.64-3.46,30.55-10.53,44.43-13.68c6.92-1.58,13.87-2.3,13.87-2.3c0.51-0.05,2.72-0.29,5.44-0.44
					c9.63-0.52,19.17,1.11,28.79,0.31c9.34-0.77,18.54-3.14,27-6.98c6.74-3.05,12.82-6.98,19.8-9.61
					c10.51-3.96,22.29-4.7,33.31-2.34c0.14,0.02,0.28,0.06,0.42,0.09c0.34,0.07,0.68,0.15,1.01,0.23c0.07,0.02,0.14,0.03,0.2,0.05
					c4.5,1.09,8.85,2.7,12.92,4.83C782.6,564,785.1,565.91,786.17,568.15z"/>
				<path class="st62" d="M767.29,557.91c-10.85,5.02-21.7,10.04-32.55,15.06c0,0-52.6,16.97-52.62,16.98
					c-2.66,0.71-5.56,1.47-8.77,2.3c-32.98,8.68-58.23,13.79-63.44,14.84c-13.18,2.64-22.95,4.39-30.86,5.67
					c-7.38,1.19-13.14,1.99-18.54,2.75c-0.06,0.01-0.11,0.02-0.17,0.02c-7.3,1.03-13.96,1.99-23.1,3.78
					c-4.77,0.93-10.21,2.09-16.77,3.6c-6.05,1.4-12.17,2.89-18.16,4.56c-0.1,0.03-0.2,0.06-0.29,0.09
					c-9.25,2.58-18.2,5.58-26.1,9.25c-6.71,3.12-12.67,6.73-17.42,10.98c-1.86,1.65-3.53,3.4-4.99,5.26
					c-1.24,1.57-2.33,3.23-3.25,4.96c-0.71,1.36-2.03,3.88-2.86,7.25c-0.01,0.02-0.02,0.04-0.02,0.06
					c-0.01,0.04-0.02,0.08-0.03,0.12c-0.01,0.06-0.03,0.12-0.04,0.18c-0.01,0.03-0.02,0.07-0.02,0.11c-0.05,0.22-0.1,0.43-0.15,0.66
					c-0.01,0.02-0.01,0.05-0.01,0.07c-0.09,0.36-0.15,0.73-0.21,1.12c-0.02,0.1-0.03,0.19-0.04,0.29c-0.06,0.4-0.11,0.81-0.15,1.24
					c-0.01,0.04-0.01,0.08-0.01,0.12c-0.03,0.24-0.05,0.5-0.06,0.75c-0.05,0.77-0.07,1.56-0.04,2.36c0.01,0.16,0.02,0.35,0.03,0.55
					c0.02,0.22,0.04,0.47,0.08,0.75c0.04,0.26,0.08,0.57,0.15,0.9c0.07,0.37,0.16,0.78,0.27,1.23c0.04,0.15,0.08,0.3,0.12,0.45
					c0.08,0.32,0.18,0.64,0.29,0.98c0.11,0.34,0.23,0.69,0.37,1.07c0.12,0.32,0.25,0.66,0.39,1c0.07,0.17,0.15,0.36,0.22,0.53
					c0.15,0.36,0.32,0.72,0.5,1.1c0.27,0.57,0.57,1.16,0.9,1.77c0.12,0.23,0.25,0.47,0.39,0.71c0.82,1.44,1.81,3,3.02,4.68
					c0.27,0.37,0.55,0.75,0.84,1.13c1.71,2.24,3.8,4.66,6.37,7.25c1.15,1.17,2.4,2.36,3.74,3.59c0.36,0.32,0.72,0.64,1.08,0.96
					c0.36,0.31,0.72,0.62,1.08,0.93c0.36,0.3,0.72,0.6,1.09,0.9c0.54,0.46,1.1,0.9,1.64,1.31c0.18,0.15,0.35,0.29,0.53,0.42
					c0.08,0.07,0.15,0.12,0.22,0.17c0.16,0.12,0.31,0.24,0.46,0.35c0.37,0.29,0.74,0.55,1.1,0.82c0.41,0.3,0.81,0.6,1.22,0.87
					c0.64,0.46,1.28,0.91,1.92,1.33c8.55,5.8,17.06,9.39,24.04,11.72c-0.02,0.01-0.04,0.02-0.06,0.02c-2.6,1.06-5.36,1.9-8.15,2.59
					c-2.42,0.61-4.85,1.1-7.23,1.5c-32.91,5.63-67.68,6.65-98.96-4.59c-5.49-1.97-11.53-5.06-13.14-10.27
					c-0.11-0.35-0.19-0.7-0.26-1.07c-0.07-0.41-0.12-0.81-0.13-1.21c-0.02-0.31-0.02-0.61,0-0.91c0.01-0.17,0.03-0.34,0.05-0.51
					c0.02-0.16,0.04-0.33,0.07-0.49c0.03-0.17,0.06-0.33,0.1-0.5c0.09-0.4,0.2-0.79,0.34-1.17c0.05-0.13,0.1-0.26,0.15-0.39
					c0.05-0.11,0.1-0.22,0.15-0.33c-0.18,1.6-0.22,4.47,1.48,7.13c1.73,2.74,4.46,3.94,7.01,4.92c9.95,3.8,19.65,5,26.19,5.63
					c5.14,0.5,8.99,0.7,11.67,0.85c11.71,0.7,23.82,0.84,34.73-3.28c1.08-0.39,2.17-0.87,2.98-1.67c1.13-1.11,1.53-3.45,0.05-7.89
					c-2.41-7.18-6.09-8.1-11.77-16.98c-2.26-3.53-4.41-7.45-4.93-11.69c-0.68-5.54,1.93-10.07,3.26-15.22
					c1.21-4.69,1.45-9.44,4.19-13.6c0.71-1.08,1.5-1.94,3.07-3.66c1.09-1.2,5.1-5.48,11.79-10.06
					c20.3-13.92,36.53-18.48,36.53-18.48c13.89-3.91,27-4.32,36.53-4.62c5.69-0.18,13.09-0.14,23.55-1.98
					c4.84-0.85,8.35-1.75,14.3-3.3c17.57-4.56,16.63-5.69,26.19-7.7c12-2.53,14.93-1.07,27.73-4.62c4.83-1.34,3.61-1.33,10.12-3.3
					c4.51-1.37,11.76-3.39,38.51-8.49c7.93-1.51,7.3-1.33,9.96-1.89c8.13-1.71,16.85-3.55,26.34-7.26
					c5.29-2.07,3.13-1.71,16.74-8.01c14.41-6.67,18.06-7.64,19.58-8.02C751.88,558.17,758.61,557.09,767.29,557.91z"/>
				<path class="st63" d="M378.25,703.98c0.01,1.53,0.79,2.85,0.85,2.95c1.04,1.71,2.72,2.42,3.72,2.82
					c15.96,6.26,27.41,4.59,27.41,4.59c3.33-0.48,8.63-1.59,8.61-2.76c-0.01-0.6-1.44-0.88-5.89-2.23c-6.61-2-9.08-3.08-10.82-3.98
					c-3.29-1.69-5.34-2.78-5.81-4.82c-0.62-2.7,2.14-4.39,1.35-5.84c-1.1-2.03-7.78-1.11-12.73,1.59
					C383.55,697.08,378.23,699.99,378.25,703.98z"/>
				<path class="st64" d="M385.17,705.21c-0.85-0.11-1.73-0.18-2.55,0.06c-0.82,0.24-1.59,0.84-1.8,1.67
					c-0.2,0.79,0.14,1.63,0.6,2.31c1.01,1.48,2.59,2.47,4.18,3.29c5.42,2.82,11.55,4.25,17.66,4.13c0.85-0.02,1.74-0.07,2.47-0.51
					c0.73-0.44,1.23-1.37,0.91-2.16c-0.18-0.43-0.56-0.74-0.93-1.02c-3.22-2.41-6.57-3-10.2-4.38
					C392,707.27,389.02,705.7,385.17,705.21z"/>
			</g>
			<path class="st34" d="M833.04,586.61c0,0.19-0.01,0.38-0.01,0.57v0.21c-0.01,0.4-0.01,0.79-0.03,1.18c0,0.08,0,0.16-0.01,0.24
				c-0.01,0.28-0.02,0.57-0.04,0.85c-0.03,0.6-0.07,1.19-0.12,1.79c-0.05,0.6-0.11,1.19-0.18,1.78c-0.06,0.5-0.12,1-0.19,1.49
				c-0.39,2.78-0.96,5.53-1.68,8.23c-0.03,0.12-0.06,0.24-0.1,0.36c-0.02,0.06-0.04,0.13-0.06,0.2c-0.03,0.11-0.06,0.22-0.09,0.34
				c-0.05,0.15-0.09,0.31-0.14,0.47c-0.12,0.43-0.25,0.85-0.38,1.28c-0.11,0.34-0.21,0.67-0.32,1.01c-0.15,0.46-0.3,0.92-0.45,1.37
				c-0.15,0.42-0.29,0.83-0.44,1.24c-0.14,0.4-0.29,0.8-0.44,1.2c-0.15,0.4-0.3,0.8-0.46,1.2c-0.15,0.38-0.3,0.75-0.45,1.13
				c-0.82,1.99-1.7,3.94-2.62,5.85c-0.34,0.69-0.68,1.38-1.03,2.06c-0.22,0.43-0.45,0.86-0.67,1.29c-0.18,0.34-0.37,0.69-0.55,1.03
				c-0.8,1.47-1.63,2.91-2.46,4.32c-0.41,0.69-0.83,1.37-1.25,2.05c-0.25,0.4-0.5,0.8-0.75,1.19c-0.35,0.55-0.7,1.1-1.06,1.63
				c-3.46,5.28-7,9.9-10.09,13.64c-0.21,0.26-0.42,0.51-0.63,0.76c-0.13,0.17-0.27,0.33-0.4,0.48c-0.18,0.22-0.36,0.43-0.54,0.64
				c-1.96,2.32-3.67,4.21-4.95,5.61c-0.19,0.21-0.37,0.4-0.54,0.58c-0.14,0.16-0.28,0.31-0.41,0.45c-2.01,2.18-4.02,4.23-6.02,6.17
				c-11.44,11.06-22.78,18.5-33.01,24.54c-14.68,8.66-72.76,41.42-164.98,49.42c-1.31,0.12-2.7,0.23-4.15,0.34
				c-0.81,0.07-1.65,0.13-2.51,0.19c-0.16,0.01-0.32,0.02-0.48,0.03c-0.51,0.04-1.03,0.07-1.55,0.1c-1.65,0.11-3.37,0.2-5.15,0.29
				c-0.11,0-0.22,0.01-0.34,0.02c-0.03-0.01-0.05-0.01-0.07,0c-0.93,0.04-1.87,0.08-2.84,0.11c-0.58,0.02-1.17,0.04-1.77,0.06
				c-0.61,0.02-1.23,0.04-1.85,0.05c-0.08,0-0.15,0.01-0.23,0.01c-1.16,0.02-2.34,0.04-3.54,0.06c-0.64,0-1.28,0.01-1.93,0.01
				c-0.52,0.01-1.05,0.01-1.6,0.01c-0.57,0-1.13,0-1.71-0.01c-0.35,0-0.7,0-1.05-0.01c-11.5-0.15-24.48-1.05-38.25-3.43
				c-7.25-1.25-14.72-2.92-22.31-5.1c-3.65-1.05-8.37-2.53-13.66-4.75c-0.01-0.01-0.02-0.01-0.03-0.02
				c-8.53-3.59-18.55-9.16-27.91-18.11c-1.88-1.8-3.56-3.54-5.05-5.21c-1.32-1.45-2.49-2.84-3.53-4.18
				c-8.28-10.56-9.04-17.69-9.1-19.74c-0.09-2.55,0.2-4.89,0.65-6.95c0.02-0.1,0.05-0.21,0.07-0.31c0.11-0.49,0.24-0.97,0.37-1.43
				c0.83-2.93,1.92-5.13,2.55-6.39c2.34-4.63,5.76-8.71,9.98-12.31c5.01-4.3,11.16-7.94,18.01-11.1c7.82-3.59,16.54-6.56,25.51-9.13
				c0.09-0.03,0.19-0.06,0.29-0.09c5.43-1.55,10.95-2.97,16.41-4.29c8.14-1.97,14.56-3.37,20.1-4.46
				c14.18-2.78,22.64-3.49,39.55-6.4c7.72-1.33,17.2-3.13,29.79-5.78c5.21-1.1,30.47-6.48,63.45-15.6c3.2-0.88,6.1-1.68,8.76-2.42
				l0.03-0.01l52.59-17.86c12.12-5.07,21.37-9.44,32.35-13c0.11-0.04,0.21-0.08,0.32-0.11c6.01-1.94,12.54-3.64,20.35-5.08
				c0.38-0.07,0.75-0.14,1.11-0.2c0.3-0.05,0.6-0.11,0.9-0.16c15.11-2.62,24.77-2.14,32.31,3.48c8.34,6.21,10.61,16.11,11.44,19.76
				c0.52,2.3,0.87,4.6,1.07,6.89c0.03,0.37,0.06,0.74,0.09,1.12c0.02,0.35,0.04,0.7,0.06,1.05c0.01,0.28,0.02,0.55,0.03,0.83v0.12
				c0,0.01,0,0.01,0,0.02v0.3C833.03,585.98,833.04,586.29,833.04,586.61z"/>
			<g>
				<path class="st37" d="M833.03,587.18v0.21c0,0.06,0,0.13-0.01,0.2c0,0.33-0.01,0.65-0.02,0.98c0,0.08,0,0.16-0.01,0.24
					c-0.01,0.28-0.02,0.57-0.04,0.85c-0.03,0.6-0.07,1.19-0.12,1.79c-0.05,0.6-0.11,1.19-0.18,1.78c-0.06,0.5-0.12,1-0.19,1.49
					c-0.39,2.78-0.96,5.53-1.68,8.23c-0.03,0.07-0.05,0.15-0.07,0.22c-0.01,0.05-0.02,0.09-0.03,0.14c-0.02,0.06-0.04,0.13-0.06,0.2
					c-0.08,0.27-0.15,0.54-0.23,0.81c-0.12,0.43-0.25,0.85-0.38,1.28c-0.11,0.34-0.21,0.67-0.32,1.01c-0.15,0.46-0.3,0.92-0.45,1.37
					c-0.15,0.42-0.29,0.83-0.44,1.24c-0.14,0.4-0.29,0.8-0.44,1.2c-0.15,0.4-0.3,0.8-0.46,1.2c-0.15,0.38-0.3,0.75-0.45,1.13
					c-0.82,1.99-1.7,3.94-2.62,5.85c-0.34,0.69-0.68,1.38-1.03,2.06c-0.22,0.43-0.45,0.86-0.67,1.29c-0.18,0.34-0.37,0.69-0.55,1.03
					c-0.8,1.47-1.63,2.91-2.46,4.32c-0.41,0.69-0.83,1.37-1.25,2.05c-0.25,0.4-0.5,0.8-0.75,1.19c-0.35,0.55-0.7,1.1-1.06,1.63
					c-3.46,5.28-7,9.9-10.09,13.64c-0.21,0.26-0.42,0.51-0.63,0.76c-0.13,0.17-0.27,0.33-0.4,0.48c-0.18,0.22-0.36,0.43-0.54,0.64
					c-1.96,2.32-3.67,4.21-4.95,5.61c-0.19,0.21-0.37,0.4-0.54,0.58c-0.14,0.16-0.28,0.31-0.41,0.45c-2.01,2.18-4.02,4.23-6.02,6.17
					c-11.44,11.06-22.78,18.5-33.01,24.54c-14.68,8.66-72.76,41.42-164.98,49.42c-1.31,0.12-2.7,0.23-4.15,0.34
					c-0.81,0.07-1.65,0.13-2.51,0.19c-0.16,0.01-0.32,0.02-0.48,0.03c-0.51,0.04-1.03,0.07-1.55,0.1c-1.65,0.11-3.37,0.2-5.15,0.29
					c-0.11,0-0.22,0.01-0.34,0.02c-0.03-0.01-0.05-0.01-0.07,0c-0.93,0.04-1.87,0.08-2.84,0.11c-0.58,0.02-1.17,0.04-1.77,0.06
					c-0.61,0.02-1.23,0.04-1.85,0.05c-0.08,0-0.15,0.01-0.23,0.01c-1.16,0.02-2.34,0.04-3.54,0.06c-0.64,0-1.28,0.01-1.93,0.01
					c-0.52,0.01-1.05,0.01-1.6,0.01c-0.57,0-1.13,0-1.71-0.01c-0.35,0-0.7,0-1.05-0.01c-11.5-0.15-24.48-1.05-38.25-3.43
					c-7.25-1.25-14.72-2.92-22.31-5.1c-3.65-1.05-8.37-2.53-13.66-4.75c-0.01-0.01-0.02-0.01-0.03-0.02
					c-8.53-3.59-18.55-9.16-27.91-18.11c-1.88-1.8-3.56-3.54-5.05-5.21c-1.32-1.45-2.49-2.84-3.53-4.18
					c2.18,0.53,4.35,1.03,6.49,1.5c0.03,0.01,0.06,0.01,0.09,0.02c39.1,8.67,71.43,9.16,97.46,6.13c0.01,0,0.01,0,0.01,0
					c13.36-1.55,25.06-4.04,35.17-6.82c36.08-9.93,40.37-20.49,85.75-30.39c31.55-6.89,50.58-6.38,66.47-10.03
					c9.22-2.1,17.39-5.61,26.34-12.76c6.23-4.98,18.08-16.88,41.78-40.7c8.09-8.12,14.74-14.94,19.27-19.61l0.01-0.01l0.02-0.02
					l0.01-0.01c0.04,0.38,0.07,0.75,0.08,1.13c0.02,0.35,0.04,0.7,0.06,1.05c0.01,0.28,0.02,0.55,0.03,0.83
					c0.01,0.03,0.01,0.08,0,0.12c0,0.01,0,0.01,0,0.02v0.3C833.03,586.18,833.03,586.68,833.03,587.18z"/>
				<path class="st37" d="M833.04,586.61c0,0.19-0.01,0.38-0.01,0.57v0.21c-0.01,0.4-0.01,0.79-0.03,1.18c0,0.08,0,0.16-0.01,0.24
					c-0.01,0.28-0.02,0.57-0.04,0.85c-0.03,0.6-0.07,1.19-0.12,1.79c-0.05,0.6-0.11,1.19-0.18,1.78c-0.06,0.5-0.12,1-0.19,1.49
					c-0.39,2.78-0.96,5.53-1.68,8.23c-0.03,0.07-0.05,0.15-0.07,0.22c-0.01,0.05-0.02,0.09-0.03,0.14c-0.02,0.06-0.04,0.13-0.06,0.2
					c-0.03,0.11-0.06,0.22-0.09,0.34c-0.05,0.15-0.09,0.31-0.14,0.47c-0.12,0.43-0.25,0.85-0.38,1.28
					c-0.11,0.34-0.21,0.67-0.32,1.01c-0.15,0.46-0.3,0.92-0.45,1.37c-0.15,0.42-0.29,0.83-0.44,1.24c-0.14,0.4-0.29,0.8-0.44,1.2
					c-0.15,0.4-0.3,0.8-0.46,1.2c-0.15,0.38-0.3,0.75-0.45,1.13c-0.82,1.99-1.7,3.94-2.62,5.85c-0.34,0.69-0.68,1.38-1.03,2.06
					c-0.22,0.43-0.45,0.86-0.67,1.29c-0.18,0.34-0.37,0.69-0.55,1.03c-0.8,1.47-1.63,2.91-2.46,4.32c-0.41,0.69-0.83,1.37-1.25,2.05
					c-0.25,0.4-0.5,0.8-0.75,1.19c-0.35,0.55-0.7,1.1-1.06,1.63c-3.46,5.28-7,9.9-10.09,13.64c-0.21,0.26-0.42,0.51-0.63,0.76
					c-0.13,0.17-0.27,0.33-0.4,0.48c-0.18,0.22-0.36,0.43-0.54,0.64c-1.96,2.32-3.67,4.21-4.95,5.61c-0.19,0.21-0.37,0.4-0.54,0.58
					c-0.14,0.16-0.28,0.31-0.41,0.45c-2.01,2.18-4.02,4.23-6.02,6.17c-11.44,11.06-22.78,18.5-33.01,24.54
					c-14.68,8.66-72.76,41.42-164.98,49.42c-1.31,0.12-2.7,0.23-4.15,0.34c-0.81,0.07-1.65,0.13-2.51,0.19
					c-0.16,0.01-0.32,0.02-0.48,0.03c-0.51,0.04-1.03,0.07-1.55,0.1c-1.65,0.11-3.37,0.2-5.15,0.29c-0.11,0-0.22,0.01-0.34,0.02
					h-0.07c-0.93,0.04-1.87,0.08-2.84,0.11c-0.58,0.02-1.17,0.04-1.77,0.06c-0.61,0.02-1.23,0.04-1.85,0.05
					c-0.08,0-0.15,0.01-0.23,0.01c-1.16,0.02-2.34,0.04-3.54,0.06c-0.64,0-1.28,0.01-1.93,0.01c-0.52,0.01-1.05,0.01-1.6,0.01
					c-0.57,0-1.13,0-1.71-0.01c-0.35,0-0.7,0-1.05-0.01c-11.5-0.15-24.48-1.05-38.25-3.43c-7.25-1.25-14.72-2.92-22.31-5.1
					c-3.65-1.05-8.37-2.53-13.66-4.75c-0.01-0.01-0.02-0.01-0.03-0.02c-8.53-3.59-18.55-9.16-27.91-18.11
					c-1.88-1.8-3.56-3.54-5.05-5.21c5.86,3.84,11.61,6.7,16.82,8.87c0.11,0.04,0.21,0.08,0.31,0.12c5.44,2.24,10.29,3.73,14.07,4.78
					c13.47,3.74,26.6,5.95,38.85,7.15c8.79,0.86,17.13,1.21,24.84,1.24c0.61,0.01,1.2,0.01,1.8,0.01c0.58,0,1.12,0,1.68-0.01
					c10.93-0.04,20.38-0.68,27.76-1.33c96.93-8.41,157.98-42.85,173.41-51.96c5.42-3.19,11.13-6.76,17.01-11.01
					c7.83-5.66,15.94-12.51,24.02-21.26c5.33-5.77,22.25-24.19,30.56-46.75c0.92-2.5,2.33-4.78,4.17-6.69l0.01-0.01l0.02-0.02
					l0.01-0.01c0.04,0.38,0.07,0.75,0.08,1.13c0.02,0.35,0.04,0.7,0.06,1.05c0.01,0.28,0.02,0.55,0.03,0.83
					c0.01,0.03,0.01,0.08,0,0.12c0,0.01,0,0.01,0,0.02v0.3C833.03,585.98,833.04,586.29,833.04,586.61z"/>
			</g>
			<path class="st56" d="M526.1,637.55c-7.19,1.08-13.37,2.57-19.32,6.78c-3.54,2.5-10.52,7.55-11.13,15.59
				c-0.56,7.27,4.58,14.24,11.42,17.67c6.84,3.43,15.03,3.77,22.66,2.51c9.76-1.6,15.29-3.98,22.18-6.44
				c23.89-8.52,33.15-1.69,58.66-11.37c6.88-2.61,14.49-6.25,15.56-12.29c0.59-3.31-0.99-6.15-1.44-6.93
				c-3.32-5.78-10.98-7.68-17.13-8.66c-17.27-2.76-24.26,1.42-45.69,2.11C546.9,637.01,541.39,635.26,526.1,637.55z"/>
			<path class="st56" d="M718.28,621.53c2.5,1.62,5.54,2.17,8.51,2.39c6.42,0.47,12.85-0.48,19.21-1.43
				c3.58-0.53,7.22-1.08,10.5-2.62c3.68-1.73,6.68-4.6,9.61-7.43c3.44-3.31,7.17-7.44,6.42-12.15c-0.84-5.3-6.88-8.03-12.21-8.64
				C751.7,590.66,699.18,609.19,718.28,621.53z"/>
			<path class="st56" d="M630.35,623.26c-4.04,3.37-2.63,9.17-2.54,9.48c0.24,0.92,1.13,3.77,3.96,5.58
				c3.34,2.14,6.91,1.24,7.8,1.02c0.81-0.2,1.99-0.51,3.18-1.41c2.51-1.89,3.89-5.49,3.17-8.9c-1.02-4.87-5.75-6.64-6.46-6.9
				C638.52,621.81,633.89,620.32,630.35,623.26z"/>
		</g>
		<path class="st37" d="M657.13,480.36c-15.67,1.66-34.34,4.38-56.76,8.46c-28.13,5.13-110.23,21.15-157.05,56.16
			c-12.04,9.01-20.75,18.53-27.04,30.16c-7.88,14.57-10.07,28.96-10.43,39.52c-0.01,0.02-0.01,0.04-0.01,0.06
			c-0.36,3-0.39,6.1,0.04,9.31c1.23,9.09,5.78,16.37,9.15,20.95c-20.17,1.24-50.19,1.23-82.21-7.98
			c-9.55-2.76-26.42-8.37-41.6-22.88c-1.43-1.37-2.74-2.7-3.95-3.99c57.56,15.31,82.35,6.18,94.2-5.83
			c10.88-11.04,14.81-28.54,39.49-52.5c0,0,8.36-8.12,18.78-15.89c18.81-14.04,47.14-28.71,106.43-41.42
			C574.46,488.43,612.08,482.32,657.13,480.36z"/>
		<path class="st37" d="M415.03,644.94c-20.17,1.24-50.19,1.23-82.21-7.98c-9.55-2.76-26.42-8.37-41.6-22.88
			c-1.43-1.37-2.74-2.7-3.95-3.99c12.24,6.79,38.53,19.16,73.48,18.41c18.24-0.39,33.52-4.24,44.83-8.25
			c0.03,1.23,0.13,2.47,0.3,3.74C407.11,633.08,411.66,640.36,415.03,644.94z"/>
	</g>
</g>
</svg>
